<svg xmlns="http://www.w3.org/2000/svg" style="display:block" viewBox="0 0 1920 624"><path d="M0 0h1920v624H0V0Z" style="fill:#b8e5fa"/><path d="M0 0h1920v624H0V0Zm433 80.764c-15.688 13.39-31.517 23.141-50.21 31.917-6.322 2.99-12.564 6.135-18.79 9.319l-3.07 1.543C341.475 133.65 329.82 149.445 323 170c-2.199 7.278-4.083 14.644-6 22-5.291 20.066-12.827 37.879-23 55.938-12.878 23.012-21.088 43.409-14 70.062 2.773 9.68 6.354 19.046 10.125 28.375 8.142 20.178 11.485 40.012 14.124 61.53 1.231 9.956 2.762 19.509 5.751 29.095l.672 2.3c7.616 23.174 27.781 35.565 47.22 47.87 16.568 10.513 31.209 22.65 44.08 37.506C418.623 543.764 435.649 559.474 462 562c11.877.606 23.773.094 35.631-.635 17.75-1.076 34.3.476 51.72 4.17 12.454 2.624 24.535 5.025 37.337 5.028l2.944.006c10.25-.237 19.666-2.569 28.556-7.694l1.978-1.09c3.106-1.626 3.106-1.626 5.834-3.785 2.147-.1 4.297-.129 6.446-.13l2.08-.007c2.331-.005 4.664-.003 6.996-.002l5.048-.008c4.667-.008 9.335-.01 14.002-.01 5.062-.002 10.123-.01 15.184-.016 8.885-.011 17.77-.019 26.655-.024 13.212-.007 26.424-.02 39.636-.034 22.22-.024 44.441-.043 66.662-.06 22.012-.016 44.025-.035 66.037-.056l2.07-.002a2083534.04 2083534.04 0 0 0 67.387-.065 890716.721 890716.721 0 0 1 138.938-.118l2.243-.002a1079415.32 1079415.32 0 0 0 154.246-.139 5819473.809 5819473.809 0 0 1 92.507-.085c86.474-.08 172.949-.153 279.863-.242-.58-3.57-1.205-7.033-2.2-10.512l-.716-2.514-.772-2.662-.808-2.813c-1.947-6.719-4.035-13.384-6.18-20.042-2.474-7.76-4.619-15.606-6.782-23.457a352.03 352.03 0 0 0-6.429-20.605c-1.556-4.746-2.784-9.56-4.033-14.394-1.005-3.796-2.157-7.535-3.346-11.278-2.92-9.256-5.704-18.55-8.484-27.848l-1.578-5.269-3.166-10.574a39345.95 39345.95 0 0 0-7.564-25.253 1908.567 1908.567 0 0 0-5.005-16.455c-2.002-6.491-3.873-13.015-5.7-19.558-1.101-3.91-2.207-7.793-3.58-11.618-2.662-7.534-2.954-12.5-.657-20.148l1.086-3.68c1.249-4.125 2.58-8.222 3.914-12.32 3.03-9.361 5.77-18.696 8.008-28.281.706-2.646 1.448-5.014 2.433-7.543 1.834-4.733 3.088-9.583 4.371-14.488 1.906-7.14 3.92-14.218 6.188-21.25 2.66-8.26 5.075-16.573 7.434-24.922 1.647-5.83 3.357-11.641 5.066-17.453 2.595-8.839 5.048-17.708 7.437-26.604a245.19 245.19 0 0 1 5.137-16.56c1.122-3.512 2-7.068 2.863-10.649 1.459-6.04 3.161-11.95 5.056-17.867 1.877-5.89 3.615-11.816 5.32-17.758l.808-2.796.742-2.602.666-2.326c.551-1.898.551-1.898.471-3.901l-2.507.002a350398.252 350398.252 0 0 1-359.73.076 889025.395 889025.395 0 0 0-49.445-.012 111630.121 111630.121 0 0 0-136.55.042 91739.276 91739.276 0 0 1-164.796-.002l-2-.001c-21.932-.013-43.863.006-65.794.038-21.37.03-42.739.028-64.108-.008-12.702-.02-25.403-.015-38.105.026-8.482.025-16.964.017-25.446-.017-4.835-.019-9.669-.023-14.504.012-4.401.032-8.8.022-13.202-.02-1.58-.009-3.16-.002-4.74.022C659.326 81.325 653.647 78.55 645 71c-2.62-1.587-5.183-2.765-8-4l-2.438-1.125c-8.971-3.063-17.569-3.125-26.93-3.035l-4.455.016c-3.892.013-7.784.037-11.676.065-6.22.043-12.44.073-18.66.096-2.152.01-4.305.027-6.458.045-9.874.062-19.494-.23-29.16-2.402l-3.557-.783-3.604-.815c-39.803-8.895-65.83-4.99-97.062 21.702Z" style="fill:#fefefe"/><path d="m0 0 3.59 1.352C18.658 7.084 32.885 14.616 46 24l2.785 1.957c48.193 34.366 82.067 85.91 92.219 144.563A317.9 317.9 0 0 1 143 185l.288 2.547c4.35 42.573-3.436 88.051-24.282 125.638a384.874 384.874 0 0 0-3.15 5.838C106.03 337.243 93.156 352.975 79 368l-2.207 2.371C70.438 376.985 63.297 382.481 56 388l-2.816 2.16c-11.634 8.721-24.226 15.608-37.292 21.914-1.308.64-2.608 1.294-3.903 1.959-15.55 7.983-33.58 11.771-50.614 15.217l-2.438.494a132.176 132.176 0 0 1-24.792 2.46l-2.473.02c-2.62.018-5.24.024-7.86.026l-2.715.002c-13.583-.016-26.751-.517-40.097-3.252l-2.524-.488C-142.282 424.418-162.465 417.2-181 407l-3.484-1.855c-14.672-8.05-28.06-18.004-40.516-29.145l-1.704-1.517C-233.216 368.66-239.44 362.755-245 356l-2.29-2.629c-6.615-7.69-12.271-15.815-17.71-24.371l-1.68-2.613C-298.354 275.45-307.406 213.154-294 155c1.716-6.759 3.786-13.39 6-20l.678-2.066c9.364-28.141 25.565-53.674 45.79-75.215a197.26 197.26 0 0 0 6.22-7.032c3.456-3.97 7.285-7.31 11.312-10.687l2.438-2.168C-162.64-13.474-72.65-30.036 0 0Z" transform="translate(617 103)" style="fill:#fcfdfd"/><path d="M0 0c8.099 1.192 16.256 1.101 24.42 1.014 2.197-.022 4.393-.036 6.59-.048C37.247.933 43.485.891 49.722.83 53.56.79 57.398.768 61.236.754c1.448-.008 2.896-.021 4.344-.04C82.006.495 94.638 4.566 108 14l2.121 1.426C111.787 16.562 113.4 17.774 115 19v2l1.938.813C119 23 119 23 120 26l1.734.844c3.2 1.633 5.122 3.995 7.516 6.656l1.39 1.512C134 38.74 134 38.74 134 41l3 1c1.543 1.566 1.543 1.566 3.188 3.563C151.4 58.685 164.505 67.89 179.11 76.832c7.973 4.93 15.627 10.24 22.89 16.168l2.05 1.605c21.147 17.287 24.588 44.514 27.221 70.024.138 1.519.275 3.037.41 4.556 1.753 19.177 8.59 36.855 15.648 54.612 9.168 23.145 9.168 23.145 9.608 35.016l.094 2.279c.518 22.042-9.246 40.085-19.88 58.784-10.405 18.306-17.445 36.518-21.956 57.15-3.542 16.15-9.117 32.383-20.195 44.974l-1.82 2.148c-10.526 11.496-26.486 17.773-40.375 24.297C137.995 455.403 124.47 462.214 112 473c-3.647 3.025-7.32 6.017-11 9l-1.67 1.354c-21.091 17.033-40.435 27.121-68.086 24.886-12.864-1.376-25.653-4.27-38.307-6.907-13.787-2.828-27.51-2.731-41.5-1.833-26.241 1.606-51.003 2.54-72.085-15.418L-123 482l-2.414-2.05c-8.867-7.7-16.525-16.524-24.336-25.262-1.414-1.565-2.83-3.128-4.25-4.688l-1.805-2.008c-10.045-10.65-22.964-18.196-35.26-25.927C-204.11 413.831-217.317 405.001-226 392l-1.523-2.094c-9.79-14.51-10.756-33.47-12.989-50.317-.776-5.708-1.651-11.399-2.55-17.089l-.456-2.979c-1.477-9.307-3.293-18.403-7.326-26.959C-257.95 276.815-265.607 258.274-267 241l-.246-2.79c-1.01-22.691 11.404-43.56 22.796-62.31 8.944-14.865 13.755-31.125 17.986-47.839 6.56-25.904 14.423-49.157 38.368-63.845 9.816-5.816 20.054-10.604 30.45-15.273 15.834-7.138 29.138-15.466 42.181-26.927C-80.448-8.684-44.553-14.851 0 0Zm-46 30-2.602.52c-39.662 8.172-76.277 26.148-105.785 54.02a171.734 171.734 0 0 1-6.925 6.147c-3.2 2.786-6 5.75-8.731 8.993a207.231 207.231 0 0 1-4.383 5.015c-38.237 42.881-55.194 101.898-52.336 158.547 1.444 22.872 6.178 45.498 14.762 66.758l1.043 2.623c9.996 24.91 23.54 47.024 41.668 66.865a377.09 377.09 0 0 1 4.578 5.117c4.613 5.24 9.312 9.975 14.711 14.395l1.521 1.272C-129.153 436.405-107.709 450.23-84 459l2.052.795c25.024 9.659 50.91 13.641 77.635 13.517l2.678-.008c19.038-.091 36.251-2.534 54.697-7.179l1.99-.499C63.723 463.424 71.834 460.638 80 457c1.637-.692 3.275-1.382 4.914-2.07 15.851-6.848 30.414-15.352 44.086-25.93l2.465-1.883c24.642-19.23 46.408-43.837 60.074-72.11a184.672 184.672 0 0 1 2.922-5.765c4.777-9.074 8.181-18.576 11.539-28.242l1.156-3.266C222.746 270.711 220.213 218.147 203 172l-.788-2.118c-8.5-22.462-20.61-43.589-36.212-61.882l-2.91-3.465C155.407 95.43 155.407 95.43 147 87l-1.707-1.582c-22.554-20.275-49.414-37.706-78.59-46.566-2.16-.681-4.285-1.472-6.394-2.297C51.855 33.356 42.832 31.803 34 30l-2.472-.518C6.828 24.504-21.36 24.998-46 30Z" transform="translate(544 62)" style="fill:#79c042"/><path d="M0 0c1.825.03 1.825.03 3.688.063.504 3.916 1.002 7.833 1.5 11.75l.433 3.367.41 3.242.381 2.983c.276 2.657.276 2.657.276 6.657-9.597 1.979-19.298 3.115-29.018 4.288-2.807.339-5.612.686-8.418 1.033l-5.397.656-2.519.312c-4.245.507-8.363.824-12.648.712l.515 3.214c1.781 11.36 3.275 22.748 4.672 34.16l.274 2.207c.26 2.105.515 4.211.769 6.317l.45 3.708c.297 3.157.38 6.225.32 9.394 4-.457 8-.916 12-1.376l3.595-.41c5.13-.591 10.258-1.182 15.377-1.859l2.139-.282c1.808-.242 3.616-.491 5.424-.741 4.17-.4 8.28-.402 12.465-.332.508 3.352 1.005 6.707 1.5 10.062l.433 2.857c.745 5.088 1.238 9.94 1.066 15.08l-3.812.368c-15.46 1.506-30.813 3.419-46.188 5.632l.32 2.374c1.849 13.745 3.69 27.492 5.43 41.251l.386 3.01.349 2.78.304 2.404c.212 2.181.212 2.181.212 6.181l1.844-.227c6.359-.785 12.718-1.562 19.078-2.336 2.371-.29 4.741-.58 7.112-.873a4786.2 4786.2 0 0 1 10.247-1.251l3.189-.398c5.558-.667 10.932-1.055 16.53-.915a372.219 372.219 0 0 1 3.187 21.188l.29 2.287c.218 1.837.376 3.681.523 5.525-2.004 2.004-5.809 1.704-8.562 2.032l-2.4.296c-2.632.324-5.265.64-7.898.958l-5.475.668c-3.833.468-7.667.932-11.5 1.394-4.912.593-9.822 1.192-14.732 1.793-3.773.461-7.546.92-11.32 1.377l-5.43.661c-2.534.31-5.07.615-7.604.92l-2.265.278c-3.632.432-7.16.661-10.815.624a1247.516 1247.516 0 0 1-5.36-38.623l-.651-5.275c-.581-4.704-1.158-9.407-1.735-14.111l-1.454-11.827c-1.144-9.291-2.286-18.583-3.425-27.876-1.174-9.574-2.353-19.148-3.533-28.722-1.017-8.25-2.032-16.501-3.045-24.753-.603-4.915-1.207-9.83-1.814-14.746-.568-4.607-1.133-9.214-1.697-13.822-.207-1.69-.415-3.38-.624-5.068-.285-2.305-.566-4.61-.846-6.915l-.48-3.908c-.282-2.82-.406-5.525-.335-8.355 8.275-1.846 16.607-2.907 25.019-3.91L-55 6.63c3.738-.455 7.476-.906 11.214-1.355 6-.722 11.998-1.449 17.997-2.178 2.085-.253 4.17-.503 6.256-.753l3.845-.465 3.374-.406C-1.374-.023-1.374-.023 0 0Z" transform="translate(675.313 188.938)" style="fill:#03b4d5"/><path d="m0 0 3 28c-12.456 1.961-24.923 3.66-37.438 5.188l-2.22.273c-2.112.26-4.225.516-6.338.77-1.23.148-2.458.296-3.724.45A67.874 67.874 0 0 1-55 35l1 2c.352 2.484.657 4.956.93 7.45l.258 2.282c.182 1.605.361 3.21.54 4.816.265 2.387.535 4.772.808 7.158.447 3.912.887 7.824 1.324 11.738l.54 4.807c.268 2.36.532 4.72.795 7.081l.246 2.162C-48.204 87.698-48 90.77-48 94l2.408-.335c26.636-3.706 26.636-3.706 36.03-4.915 1.153-.15 2.307-.3 3.496-.453C-3.023 88.002-.056 87.945 3 88c.505 3.895 1.003 7.791 1.5 11.688l.434 3.341.41 3.233.38 2.967c.26 2.613.326 5.147.276 7.771l-1.674.152c-13.933 1.272-13.933 1.272-27.826 2.91-6.823.888-13.637 1.475-20.5 1.938.454 3.917.914 7.834 1.375 11.75l.383 3.309a371.068 371.068 0 0 0 2.818 19.316c.5 3.1.794 6.178.986 9.313.235 3.686.54 7.348.953 11.018A212315263.112 212315263.112 0 0 1-37 181l1.8-.228a9547.43 9547.43 0 0 1 18.64-2.335c2.316-.29 4.631-.58 6.946-.874 3.338-.422 6.677-.837 10.016-1.25l3.108-.398c5.882-.721 11.564-1.044 17.49-.915.51 3.499 1.006 7 1.5 10.5l.434 2.977.41 2.93.38 2.665c.345 3.661.293 7.25.276 10.928-10.752 1.307-21.505 2.61-32.258 3.912-4.993.604-9.986 1.209-14.979 1.816-4.817.585-9.635 1.168-14.452 1.75l-5.517.67c-2.573.314-5.147.624-7.72.934l-2.309.283c-3.294.394-6.44.635-9.765.635-4.064-16.255-4.96-33.44-6.747-50.069-1.09-10.117-2.246-20.21-3.73-30.279-1.596-10.833-2.858-21.696-4.085-32.577-.644-5.708-1.3-11.415-1.954-17.122l-.388-3.397A4686.882 4686.882 0 0 0-83.188 53.5l-.475-3.948c-.997-8.137-2.103-16.252-3.474-24.335-.604-3.694-.924-7.225-.895-10.973l.014-2.42L-88 10c10.735-1.307 21.47-2.611 32.207-3.912 4.985-.603 9.97-1.208 14.954-1.816 4.811-.586 9.622-1.169 14.434-1.75 1.835-.222 3.67-.446 5.505-.67 2.57-.314 5.142-.625 7.713-.934l2.298-.283A89.923 89.923 0 0 1 0 0Z" transform="translate(566 203)" style="fill:#03b4d5"/><path d="m0 0 2.303-.023c11.261.038 20.733 4.216 30.01 10.46C44.76 23.17 49.047 37.799 50.063 55.25c-9.883 2.306-19.914 3.087-30 4l-.446-3.184c-1.481-9.62-3.075-17.798-11.367-23.879-7.12-2.094-14.596-1.524-21.188 2.063-1.623 2.388-1.623 2.388-2 5l-1 3c-.98 12.744 1.15 25.552 2.704 38.168l.845 6.99c.59 4.862 1.186 9.722 1.786 14.582.766 6.205 1.511 12.412 2.252 18.62.576 4.804 1.164 9.608 1.756 14.41.28 2.288.555 4.576.827 6.864.382 3.205.78 6.407 1.183 9.609l.325 2.817c.984 7.6 2.37 16.122 8.072 21.565 6.67 2.821 12.55 3.035 19.25.375 4.31-2.681 6.172-5.295 8-10 .354-3.635.284-7.228.188-10.875l-.041-2.953a636.505 636.505 0 0 0-.146-7.172c3.686-.508 7.374-1.005 11.062-1.5l3.146-.434c5.314-.708 10.431-1.248 15.791-1.066 2.9 20.444.594 35.021-11.187 52.188-10.422 10.422-22.558 14.126-36.938 14.25l-2.782.03c-9.902-.126-18.064-2.686-26.093-8.468L-19 198.125c-12.29-10.816-14.306-28.023-16.121-43.332-.182-1.46-.364-2.922-.548-4.382-.483-3.862-.952-7.725-1.418-11.589-.485-4.01-.98-8.02-1.475-12.029-.59-4.78-1.177-9.56-1.758-14.34a2487.866 2487.866 0 0 0-3.313-26.183c-6.792-51.614-6.792-51.614 5.07-67.895C-28.675 6.625-15.482-.157 0 0Z" transform="translate(414.938 219.75)" style="fill:#02b3d5"/><path d="m0 0 20.875-.188 6.527-.082c1.738-.009 3.477-.017 5.215-.023l2.659-.046C46.493-.344 55.734 3.138 63.94 10.816c8.494 9.081 11.886 19.285 12.125 31.602C75.616 54.725 71.866 66.187 63 75 45.197 89.836 22.098 85 0 85V0Z" transform="translate(839 417)" style="fill:#7ac141"/><path d="M0 0h18c3.377 6.753 3.377 6.753 4.465 10.066.24.727.48 1.453.729 2.201l.744 2.296.792 2.402a484.305 484.305 0 0 1 4.332 13.973C30.857 36.885 33.275 42.425 36 48c2.628-6.194 4.791-12.42 6.719-18.863C45.596 19.692 48.857 10.359 52 1h19v106H52l-1-48-10 30H30L20 58l-1 49H0V0Z" transform="translate(1244 274)" style="fill:#03b4d5"/><path d="m0 0 26.375-.25 8.267-.11c2.19-.012 4.38-.022 6.569-.03l3.378-.063c8.875-.004 17.106 1.65 23.849 7.828l1.87 1.648c4.111 4.804 5.277 9.519 5.254 15.727l-.007 2.126C75.327 33.374 73.376 38.109 69 43c-2.423 2.173-4.61 4-8 4l.839 2.013c6.485 15.565 6.485 15.565 7.81 18.755.926 2.215 1.86 4.427 2.799 6.636l1.384 3.268 1.261 2.956C76 83 76 83 76 85H46l-3.188-9.313C41.56 72.118 40.282 68.56 39 65l-1.332-3.742-1.168-2.946-.969-2.511C33.627 53.158 33.627 53.158 27 53v32H0V0Z" transform="translate(1194 417)" style="fill:#7bc143"/><path d="M0 0c6.42 4.634 11.053 10.428 12.578 18.254.445 3.127.597 6.088.618 9.245l.03 3.541.012 3.788.018 3.938c.01 2.747.016 5.494.02 8.24.005 3.495.029 6.989.057 10.483.024 3.363.025 6.726.03 10.09l.038 3.763c-.028 10.794-1.515 20.205-9.366 28.127-6.764 5.331-13.204 6.503-21.73 6.398-6.689-.815-12.662-3.609-17.285-8.555-4.486-6.358-6.219-12.858-6.291-20.63l-.049-3.965-.016-4.237-.027-4.404c-.017-3.07-.024-6.141-.027-9.211-.006-3.91-.043-7.82-.09-11.73-.03-3.032-.036-6.063-.037-9.094-.004-1.44-.017-2.88-.038-4.32-.13-9.696.596-17.705 7.3-25.15C-25.412-3.92-10.878-5.694 0 0Z" transform="translate(1088.965 276.531)" style="fill:#04b4d5"/><path d="M0 0c3.582 1.908 6.229 4.213 8.875 7.313L11.063 9.5c4.968 7.71 4.12 17.949 4.113 26.781l.013 3.988c.007 2.77.007 5.54.002 8.31-.006 3.524.01 7.047.034 10.57.018 3.398.015 6.796.013 10.195l.028 3.792c-.054 10.325-1.183 18.84-8.489 26.485-6.684 5.943-13.172 7.015-21.87 6.899-8.178-.559-13.438-4.394-19.032-10.207-5.913-7.884-5.312-16.954-5.3-26.368l-.014-4.21c-.007-2.933-.007-5.866-.002-8.8.006-3.738-.01-7.475-.034-11.212-.015-2.897-.016-5.793-.013-8.69 0-1.376-.005-2.753-.015-4.13-.072-11.171.706-19.551 8.538-27.864C-22.736-2.683-10.478-4.389 0 0Z" transform="translate(1218.125 275.688)" style="fill:#03b4d5"/><path d="M0 0c37.926 0 37.926 0 45.438 7.375 7.16 9.567 6.717 19.578 6.73 31.117l.01 3.234c.005 2.244.007 4.488.007 6.732.002 3.4.02 6.801.04 10.202.003 2.194.005 4.388.005 6.582l.022 3.032C52.22 78.864 51.486 90.2 45 99c-12.9 11.496-27.155 7-45 7V0Z" transform="translate(837 275)" style="fill:#02b3d5"/><path d="M0 0h19v107H1l-2.195-6.219a19354.302 19354.302 0 0 0-3.69-10.431c-3.266-9.236-6.59-18.436-10.19-27.55C-16 60-16 60-16 56h-2v51h-18V1h18l2.703 7.488a395328.954 395328.954 0 0 0 7.063 19.563l.799 2.214C-5.3 36.18-3.15 42.09-1 48L0 0Z" transform="translate(1149 274)" style="fill:#02b3d5"/><path d="M0 0c6.387 6 9.654 13.386 11 22-2.537 1.268-4.614 1.312-7.445 1.535L.293 23.8l-3.418.264-3.441.275c-2.811.224-5.623.445-8.434.662l-.55-1.863c-.252-.809-.504-1.617-.762-2.45l-.739-2.425C-18.055 15.868-18.993 14.622-21 13c-3.046-.623-5.938-.51-9 0-4.227 3.143-6.238 6.838-7 12-.236 3.602-.23 7.203-.25 10.813l-.063 2.908C-37.346 44.869-36.633 49.42-34 55c2.944 2.771 5.578 3.24 9.5 3.5 3.644-.121 4.426-.444 7.5-2.75 2.267-2.756 2.267-2.756 3-6.75h-13V31h38v48H-2l-3-7-1.941 1.242-2.622 1.633-2.566 1.617c-8.63 4.532-18.86 5.073-28.23 2.633C-51.146 74.963-58.047 68.415-63 58c-2.886-6.742-3.263-13.389-3.313-20.625-.005-.788-.01-1.575-.017-2.386.154-12.482 3.976-23.823 12.705-32.989C-38.83-11.613-16.155-11.094 0 0Z" transform="translate(1343 423)" style="fill:#7bc142"/><path d="M0 0h25c7.041 8.157 7.041 8.157 8.645 11.977 2.454 5.42 5.593 10.247 8.855 15.21a722.612 722.612 0 0 1 2.969 4.668l1.263 1.99C48.288 36.488 49.628 39.254 51 42V0h21v85H50l-2.57-4.824c-3.184-5.837-6.682-11.417-10.305-16.989C31.764 54.941 26.895 46.566 22 38l-1 46H0V0Z" transform="translate(1034 417)" style="fill:#7ac141"/><path d="M0 0h64v20H27v11h30v20H26v13h38v21H0V0Z" transform="translate(1120 417)" style="fill:#7ac142"/><path d="M0 0h64v20H26v11h31v20H26v13h38v21H0V0Z" transform="translate(960 417)" style="fill:#7bc143"/><path d="M0 0h64v20H26v11h31v20H25v13h39v21H0V0Z" transform="translate(1408 417)" style="fill:#7bc142"/><path d="M0 0c2.29.269 4.543.599 6.81 1.017-1.796 3.88-4.101 6.27-7.188 9.25-4.575 4.427-8.577 8.91-12.813 13.75l22 1v19h-29v25h25v18h-25v26h29v20h-48v-108h10a343.205 343.205 0 0 0 3.087-6.29C-19.747 5.76-15.206-1.233 0 0Z" transform="translate(970.19 248.983)" style="fill:#04b4d5"/><path d="M0 0c5.743 4.065 10.21 9.944 12.438 16.625.07 2.575.093 5.114.062 7.688l-.063 7.312h-19l-.488-7.422c-.595-3-1.31-4.455-3.511-6.578-2.28-.482-2.28-.482-4.688-.25l-2.45.11-1.863.14c-2.028 3.375-2.326 6.089-2.375 10l-.085 3.125c.602 3.756 1.387 4.63 4.46 6.875 3.875 1.878 7.898 3.37 11.915 4.912 6.88 2.742 12.989 5.965 16.085 13.088C13.745 68.084 14.149 82.762 8.25 94.5c-3.275 5.369-7.218 8.035-12.938 10.438-10.473 1.858-18.95 1.34-27.84-4.633-4.431-3.43-7.685-7.17-9.035-12.68-.44-5.348-.178-10.634 0-16h18l.489 7.422c.602 3.033 1.244 4.467 3.512 6.578 2.738.483 2.738.483 5.687.25l3.012-.11 2.3-.14c.905-3.879 1.165-7.52 1.188-11.5l.043-3.344c-.242-3.313-.491-5.322-2.23-8.156-3.016-1.774-3.016-1.774-6.626-3.063-1.275-.513-2.55-1.027-3.824-1.542l-3.55-1.395c-7.457-3-12.593-7.404-16.375-14.625-2.98-11.32-2.891-22.807 2.374-33.375C-30.1-3.065-12.047-6.552 0 0Z" transform="translate(1455.563 276.375)" style="fill:#03b3d5"/><path d="M0 0h48v18H19v25h25v18H19v26h29v19H0V0Z" transform="translate(1360 275)" style="fill:#04b4d5"/><path d="M0 0h16v23h9v13h-9c.118 6.515.242 13.03.372 19.543.044 2.218.085 4.435.125 6.653.058 3.182.122 6.364.187 9.546l.05 3.018.06 2.79.048 2.463C16.88 82.074 16.88 82.074 18 84c2.314.73 4.648 1.401 7 2v14c-12.913.487-12.913.487-17.625-1.625-4.41-4.41-7.179-8.489-7.495-14.754l.006-2.665v-3.032l.016-3.252.005-3.346c.005-3.525.018-7.05.03-10.576.006-2.39.01-4.781.014-7.172C-.038 47.718-.02 41.86 0 36h-6v3l-2.195.043c-6.693.33-10.25.935-14.805 5.957-1.932 3.141-2.265 5.563-2.319 9.228l-.06 3.153-.035 3.385-.059 3.48a2947.7 2947.7 0 0 0-.152 11.004c-.038 2.487-.077 4.974-.117 7.46A6095.07 6095.07 0 0 0-26 101h-16V23h16v7l1.863-1.277 2.45-1.66 2.425-1.653C-13.388 21.748-6.692 22.94 0 23V0Z" transform="translate(1156 142)" style="fill:#0275a0"/><path d="M0 0c5.64 3.318 10.095 7.712 12.68 13.762.952 3.758 1.041 7.27.945 11.113L13.5 32h-19l-.586-8.3c-.253-2.915-.253-2.915-2.414-5.7-1.977-.363-1.977-.363-4.125-.188L-16.5 18c-1.75 3.789-2.252 6.759-2.259 10.92l-.019 3.54.012 3.794-.005 3.918c-.003 2.731 0 5.462.01 8.193.012 3.496.005 6.992-.007 10.488-.009 3.342-.003 6.684.002 10.026l-.012 3.8.02 3.53c0 1.024.002 2.049.004 3.104.257 2.718.86 4.366 2.254 6.687 4.01.179 4.01.179 8 0 2.68-2.68 2.387-4.392 2.625-8.125L-5.5 72h19c.477 10.5.637 18.569-6.61 26.836-6.622 6.228-13.561 7.7-22.492 7.453-4.048-.404-7.299-1.429-10.898-3.289l-3.188-1.625c-5.801-4.9-8.175-10.93-8.812-18.375-.156-4.643-.164-9.284-.168-13.93l-.01-4.075c-.006-2.84-.008-5.679-.007-8.518 0-3.616-.014-7.233-.031-10.85a2013.83 2013.83 0 0 1-.013-8.41c-.001-1.975-.012-3.95-.023-5.924.027-10.645.615-19.326 8.252-27.293C-22.1-3.172-10.157-4.664 0 0Z" transform="translate(1024.5 276)" style="fill:#03b4d5"/><path d="M0 0c5.976 3.755 9.332 9.201 10.96 15.971.869 5.291.655 10.65.61 15.998l-.008 3.867c-.01 3.366-.027 6.733-.05 10.1-.02 3.446-.03 6.892-.04 10.337-.021 6.743-.056 13.485-.097 20.227h-17l-1-5L-9 73.938c-4.117 3.416-8.391 3.844-13.625 3.562-5.242-1.547-8.551-3.763-12-8-3.644-8.753-3.32-21.043-.184-29.941 2.41-4.192 6.423-7.232 11.054-8.62 2.149-.443 4.049-.553 6.24-.537l2.285.01 2.355.026 2.402.013c1.95.012 3.899.03 5.848.049a761.913 761.913 0 0 0-.875-6.375l-.492-3.586c-.363-3.135-.363-3.135-2.633-5.039-5.273-.591-5.273-.591-9.938 1.313C-19.8 18.63-19.8 18.63-20.625 21.5h-16c1.52-9.37 4.043-14.629 11.316-20.8C-19.437-3.484-6.366-2.818 0 0Z" transform="translate(1366.625 166.5)" style="fill:#0676a1"/><path d="M0 0c5.716 3.481 9.773 8.895 11.438 15.375.36 4.82.281 9.607.187 14.438l-.188 13.562h-31l1 13c4.341 4.283 4.341 4.283 8.125 4.125 3.687-1.072 3.687-1.072 5.876-7.125h16c0 7.415-.714 11.22-5.508 16.734-5.081 4.774-10.468 7.04-17.418 7.43-7.3-.241-12.812-1.968-18.075-7.164-3.182-4.685-5.11-9.68-5.16-15.36l-.03-2.661-.013-2.87-.017-2.963c-.01-2.071-.016-4.143-.02-6.214-.01-3.156-.04-6.311-.072-9.467-.007-2.014-.012-4.029-.016-6.043l-.037-2.845c.022-6.574.935-11.346 4.979-16.722l1.699-1.668 1.676-1.707C-19.598-3.278-7.752-3.544 0 0Z" transform="translate(1091.563 166.625)" style="fill:#03759f"/><path d="M0 0h3L2 5l3-3c2.28 3.606 2.148 6.49 2 10.688-.106 8.527.31 15.575 6 22.312 5.102 5.023 11.108 7.49 17.72 9.908C34.223 46.201 37.306 47.365 40 50c1.375 3.325 1.167 6.878 1.188 10.438l.042 3.37C41 67.016 40.538 69.185 39 72c-3.722 1.24-7.138 1.653-11 1-2.5-1.875-2.5-1.875-4-5-.312-3.41-.183-6.561 0-10H5v14c-4.321.864-7.493 1.05-11.832.879l-3.916-.147-4.065-.17-4.123-.158c-3.355-.13-6.71-.266-10.064-.404V46h25V28h-25V3H0V0Z" transform="translate(1408 290)" style="fill:#bae6fa"/><path d="M0 0h27v85H0V0Z" transform="translate(1367 417)" style="fill:#7bc144"/><path d="M0 0c6.516 3.801 9.88 7.432 12 14.75a84.622 84.622 0 0 1 0 6c-2.44.135-4.871.234-7.313.313l-2.091.126C.574 21.24.574 21.24-3 20.75c-1.995-2.412-3-3.848-3-7-5.585.199-5.585.199-10 3-.242 1.981-.242 1.981-.125 4.125L-16 24.75l2.273 1.137a2173.4 2173.4 0 0 1 6.41 3.218c2.04 1.012 4.093 2 6.165 2.946 5.944 2.753 10.377 5.182 12.89 11.578C14.082 51.776 13.43 59.065 10 66.75c-3.463 5.374-7.752 8.213-13.75 10.313-6.072 1.288-12.424.918-18-1.938-5.645-3.683-9.834-8.718-11.25-15.375v-6h15l3 6c1.157 1.37 1.157 1.37 4.313 1.313 3.66-.012 3.66-.012 6.124-1.938 2.035-3.092 2.17-4.739 1.563-8.375-3.072-3.918-6.757-5.276-11.313-6.875-7.081-2.668-12.34-5.254-16.324-11.824-1.558-3.772-1.94-7.088-1.925-11.114l.007-2.133C-32.33 12.382-30.532 8.23-26 3.75-19.08-2.157-8.472-3.449 0 0Z" transform="translate(1450 166.25)" style="fill:#05759f"/><path d="M0 0c4.141 3.793 7.768 8.1 8.227 13.84-.01 1.07-.02 2.137-.032 3.238l-.015 3.17-.055 4.002L8 37h-26l1 11c3.517 3.263 3.517 3.263 6.625 3L-8 50l2-5H8c0 7.316-.499 9.714-5 15-4.419 4.408-8.78 5.389-14.938 5.688C-18.82 65.4-23.19 63.95-28 59c-4.923-7.651-4.585-16.46-4.467-25.214.03-2.348.021-4.694.008-7.042.022-17.225.022-17.225 5.072-23.865C-19.13-3.518-9.357-5.53 0 0Z" transform="translate(912 178)" style="fill:#0777a1"/><path d="M0 0c5.34 3.343 8.554 8.336 10.75 14.125.625 3.375.625 3.375.625 9.375h-17l-1-7c-1.866-1.866-4.498-1.349-6.992-1.523-2.211.36-2.211.36-3.61 2.555-1.748 3.71-1.812 6.957-1.761 10.972l-.002 2.304c.003 1.601.012 3.202.029 4.803.023 2.447.02 4.893.014 7.34.005 1.56.012 3.119.021 4.678l-.003 2.21c.048 5.166.048 5.166 2.304 9.661 3.368 1.172 3.368 1.172 7 1 2.946-2.17 3.84-3.522 5-7h15c.45 6.312-.18 10.822-4 16-5.157 5.056-10.492 7.9-17.824 8.063C-19.874 77.224-25.205 75.1-31 69c-4.46-6.86-4.75-14.057-4.758-22.086l-.003-2.125c0-1.474.001-2.948.006-4.422.005-2.229 0-4.458-.007-6.687-.016-22.75-.016-22.75 8.75-31.856C-20.194-3.542-7.772-3.346 0 0Z" transform="translate(1312.625 166.5)" style="fill:#0576a0"/><path d="M0 0c5.701 3.42 10.535 8.612 12.344 15.094.436 3 .73 5.978 1 9h-16l-3-7c-1.892-1.892-4.57-1.237-7.09-1.328l-1.91.328c-2.592 3.887-2.342 7.204-2.371 11.718l-.028 2.59a905.03 905.03 0 0 0-.027 5.416c-.012 2.766-.06 5.53-.111 8.295-.01 1.754-.017 3.508-.022 5.262l-.059 2.51c-.036 2.604-.036 2.604.618 6.209 2.768 2.405 4.028 3.068 7.687 2.812 2.469-.68 2.469-.68 4.313-2.812l1-4h16c-.3 7.187-.98 12.594-6 18-5.947 4.8-12.44 6.35-20 6-6.795-1.054-12.853-4.464-17-10-2.73-6.233-3.447-12.007-3.399-18.75l-.008-2.722c-.002-1.886.003-3.771.016-5.657.016-2.864 0-5.726-.02-8.59.003-1.844.006-3.688.012-5.531l-.018-2.558c.08-6.854 1.094-13.399 5.573-18.786.773-.63 1.547-1.258 2.344-1.906l2.343-1.969C-17.904-2.57-6.701-2.287 0 0Z" transform="translate(1036.656 165.906)" style="fill:#0476a0"/><path d="m0 0 1 4 1-3 3-1c1.882 1.882 1.174 5.124 1.205 7.631l.03 2.099c.032 2.3.057 4.6.081 6.899L6.38 21.4c.056 4.194.105 8.388.153 12.582.05 4.276.106 8.552.161 12.829.108 8.396.21 16.792.307 25.189H4v2H2l-1-2-1 19h-50v-1h49V70h-29V44h25V26h-25V1c3.97-.023 7.939-.043 11.908-.055 1.351-.005 2.702-.012 4.054-.02C-12.1.912-10.161.907-8.223.902l3.54-.016C-2 1-2 1-1 2l1-2Z" transform="translate(980 292)" style="fill:#bbe6fb"/><path d="m0 0 2.14.014c1.745.011 3.49.03 5.235.049v14l-10 2-1 14h11v13h-11v64h-16v-64h-8v-13h8l-.105-3.508c-.029-1.54-.056-3.078-.082-4.617l-.077-2.305c-.075-5.846.866-10.022 5.018-14.434l1.809-1.449 1.816-1.488C-7.64-.407-4.314-.052 0 0Z" transform="translate(1236.625 134.938)" style="fill:#0476a0"/><path d="M0 0h19v108H0V0Z" transform="translate(1328 274)" style="fill:#07b5d6"/><path d="M0 0h17v23h9v13h-9l1 47 8 3v15c-8.272.345-14.4.052-20.875-5.438C1.797 91.55.748 88.906.773 83.681v-3.215l.032-3.45.008-3.548c.011-3.74.037-7.479.062-11.218.01-2.535.02-5.07.027-7.605C.924 48.43.958 42.215 1 36h-9V23h8V0Z" transform="translate(1388 142)" style="fill:#0777a1"/><path d="M0 0h14v80h27v14H0V0Z" transform="translate(835 149)" style="fill:#0978a2"/><path d="M0 0c4.325 2.84 7.414 6.634 8.703 11.688.29 2.203.29 2.203.414 5.703-2.102.135-4.207.232-6.312.312l-3.551.176-3.137-.488c-1.73-2.461-1.73-2.461-3-5-2.953-1.076-2.953-1.076-6-1l-3 2c-.25 3.583-.25 3.583 0 7l3.375 1.687 2.203 1.113c1.644.814 3.301 1.603 4.97 2.368 5.555 2.6 9.469 5.133 13.452 9.832 2.004 6.01 2.22 13.557.094 19.558C5.095 60.232.966 63.441-4.883 65.391c-7.076.677-13.524 1.015-19.414-3.383-4.6-4.69-6.054-10.234-6.586-16.617 4.383-.342 8.63-.556 13 0 2.375 3 2.375 3 4 6 3.585.667 3.585.667 7 0 2.364-1.938 2.364-1.938 2.313-5.438.006-3.399.006-3.399-1.438-5.137-2.55-1.938-5.163-2.761-8.187-3.8-6.528-2.433-10.402-4.502-14.563-10.188-2.026-6.192-2.018-12.599-.062-18.812C-21.432-1.994-11.495-5.648 0 0Z" transform="translate(956.883 177.61)" style="fill:#0676a0"/><path d="M0 0h16v78H0V0Z" transform="translate(1248 165)" style="fill:#0576a1"/><path d="M0 0h16v78H0V0Z" transform="translate(1187 165)" style="fill:#0476a1"/><path d="m0 0 2-.066c3.133.985 4.199 2.95 6 5.628.508 2.846.508 2.846.518 5.997l.038 3.59L8.53 19l.012 3.978c.006 2.774-.003 5.548-.022 8.322-.022 3.548-.01 7.094.015 10.642.018 3.394.005 6.788-.005 10.183l.025 3.851-.038 3.59-.01 3.151C7.87 66.286 6.495 67.981 4 70.563c-2 .628-2 .628-4 .562l-2 .004c-2.918-.827-4.097-2.227-6-4.567-.508-2.807-.508-2.807-.518-6.082l-.038-3.721c.007-1.336.016-2.673.025-4.009-.003-1.375-.007-2.75-.012-4.124-.006-2.879.003-5.756.022-8.635.022-3.686.01-7.37-.015-11.056-.014-2.838-.01-5.675 0-8.513.003-1.36 0-2.718-.01-4.077-.01-1.9.009-3.8.028-5.7l.01-3.275C-7.658 2.673-4.81-.01 0 0Z" transform="translate(1206 292.438)" style="fill:#b8e5fa"/><path d="m0 0 2.344.059c.773 0 1.547.002 2.344.004C7.43.614 8.17 1.258 9.843 3.495c.38 2.77.38 2.77.388 6.168l.029 3.853-.019 4.167.009 4.27c.004 2.982-.002 5.965-.016 8.947-.017 3.824-.007 7.647.01 11.47.011 2.94.008 5.879 0 8.818-.002 1.41 0 2.82.008 4.23.007 1.97-.006 3.94-.021 5.91l-.007 3.397c-.381 2.77-.381 2.77-1.66 4.628-2.43 1.613-4.831 1.556-7.686 1.638-2.985-.727-4.115-2.127-6.035-4.496-.501-2.808-.501-2.808-.502-6.082l-.028-3.721c.01-1.337.021-2.673.034-4.01 0-1.374-.002-2.749-.005-4.124-.001-2.878.011-5.756.034-8.634.029-3.686.026-7.37.013-11.056-.007-2.838 0-5.676.013-8.514.005-1.359.005-2.717.001-4.076-.003-1.9.016-3.8.036-5.7l.016-3.275C-5.023 3.529-3.889.894 0 0Z" transform="translate(1072.156 292.504)" style="fill:#bce6fb"/><path d="M0 0c10 0 10 0 13 3 1.033 3.565 1.145 7.024 1.193 10.72l.049 3.409c.044 5.109.085 10.217.108 15.327.013 2.696.041 5.392.082 8.088.055 3.892.077 7.783.091 11.675l.07 3.652c-.022 8.172-.022 8.172-2.563 12.428C9 70 9 70 0 70V0Z" transform="translate(856 293)" style="fill:#b9e6fb"/><path d="M0 0c11.912 0 11.912 0 17.188 5.125C22.081 12.889 23.021 20.93 22 30c-1.534 5.349-4.112 9.99-8 14-4 2-4 2-14 2V0Z" transform="translate(865 436)" style="fill:#b7e5f4"/><path d="m0 0 3.422.016L6.812 0c5.29.418 8.41 1.273 12.11 5.14 3.33 4.625 4.504 7.235 4.445 12.985l-.015 3.046-.055 3.845-.125 12.25h-26c1-7 1-7 2-9h-4c-.625-2.813-.625-2.813-1-6l2-3v8h14l-.875-5.875-.492-3.305c-.396-2.94-.396-2.94-2.633-4.82-2.958-.167-2.958-.167-6 0h-3l1-6-3-2C-4.828 1.203-4.035.379 0 0Z" transform="translate(896.828 176.734)" style="fill:#02749e"/><path d="M0 0h22c1.166 14.205.03 24.317-9.4 35.54-2.473 2.256-4.495 2.58-7.787 2.585C2.02 37.633 2.02 37.633 0 37v-2h2c.182-.58.364-1.16.55-1.758C4.043 28.61 5.684 24.302 8 20H0V0Z" transform="translate(924 417)" style="fill:#7ac040"/><path d="M0 0c2.29.269 4.543.599 6.81 1.017-1.796 3.88-4.101 6.27-7.188 9.25-4.575 4.427-8.577 8.91-12.813 13.75l22 1v19h-29v-1h28v-17h-47v-1h10a343.205 343.205 0 0 0 3.087-6.29C-19.747 5.76-15.206-1.233 0 0Z" transform="translate(970.19 248.983)" style="fill:#16b8d8"/><path d="M0 0h19c1.88 16.453 1.88 16.453-1.522 21.062C12.511 25.776 6.516 29.828 0 32V0Z" transform="translate(900 274)" style="fill:#0ab5d6"/><path d="M0 0c.95 1.707.95 1.707 1.688 3.813.25.687.502 1.374.761 2.082C3 8 3 8 3 12c-2.811 1.107-5.624 2.21-8.438 3.313l-2.373.935C-22.523 22-22.523 22-27 22l-3-9c4.317-2.323 8.64-4.634 12.973-6.926 1.29-.684 2.58-1.37 3.867-2.058 1.631-.87 3.27-1.725 4.91-2.579l2.86-1.503C-3-1-3-1 0 0Z" transform="translate(1010 388)" style="fill:#7bc143"/><path d="M0 0h2v83h61V65H28v-1h36v21H0V0Z" transform="translate(1120 417)" style="fill:#80c452"/><path d="M0 0h31v1H1c1.081 1.307 1.081 1.307 3.684 1.114l3.539-.016 3.818-.01 4.021-.026c1.345-.005 2.69-.01 4.034-.013C23.397 2.037 26.699 2.02 30 2l-1 4V4h-3v2h2v2l3 2H15l-1 5c-1.688 1.875-1.688 1.875-4 3-5.278-.11-6.047-1.047-10-5V0Z" transform="translate(1072 210)" style="fill:#b0e0f5"/><path d="m0 0 7.688-.188L10.08-.27C14.603-.323 17.433.183 21 3c1.437 2.875 1.382 4.819 1 8-3.543 3.543-6.32 4.951-11.355 5.098L0 16V0Z" transform="translate(1220 435)" style="fill:#b7e5f1"/><path d="M0 0h1v108H0v-6h-2c-.046-12.266-.082-24.531-.104-36.797-.01-5.695-.024-11.39-.047-17.087a5470.66 5470.66 0 0 1-.039-16.495c-.003-2.095-.01-4.191-.021-6.287-.015-2.94-.017-5.88-.016-8.819L-2.25 13.9C-2.232 8.88-1.615 4.759 0 0Z" transform="translate(1111 274)" style="fill:#c4e9fc"/><path d="M0 0c1.854 1.854 1.302 4.696 1.375 7.188-.073 7.415-.073 7.415-2.438 10.625C-4 20-4 20-7.563 20.688-11 20-11 20-13.438 18.063-15.535 13.948-15.967 10.53-15 6-10.623.322-6.94-.257 0 0Z" transform="translate(1361 209)" style="fill:#b7e4f7"/><path d="M0 0h16v16H0V0Z" transform="translate(1248 134)" style="fill:#0776a0"/><path d="M0 0h16v16H0V0Z" transform="translate(1187 134)" style="fill:#0375a0"/><path d="M0 0c2.554 2.376 2.976 3.735 3.293 7.234L3 17h-15c-.482-10.957-.482-10.957 1.5-15.25C-6.725-.893-4.556-.65 0 0Z" transform="translate(1084 181)" style="fill:#b9e6f9"/><path d="M0 0h1v73h13l-.016-3.76c-.018-4.618-.03-9.237-.039-13.855-.005-1.996-.012-3.992-.02-5.988a3189.87 3189.87 0 0 1-.023-8.624l-.015-2.69c0-4.479.201-8.674 1.113-13.083h1v50H0V0Z" transform="translate(1114 168)" style="fill:#0d7aa5"/><path d="M0 0h1v19h8l2 2c2.584.167 2.584.167 5 0l-3 6 3-1c-.671 4.194-2.856 7.403-5 11H0v-2h2c.182-.58.364-1.16.55-1.758C4.043 28.61 5.684 24.302 8 20H0V0Z" transform="translate(924 417)" style="fill:#7cc147"/><path d="M0 0c3 .438 3 .438 4.813 1.688C7.676 5.909 7.082 10.514 7 15.438H-6c-.37-10.35-.37-10.35 1.324-13.333C-3 .438-3 .438 0 0Z" transform="translate(900 188.563)" style="fill:#b5e3f6"/><path d="M0 0h1v40h-2l-1 15h-42v-1h41V4l2-1 1-3Z" transform="translate(879 189)" style="fill:#c7effd"/><path d="M0 0h1v49c-3.245-4.327-4.595-8.004-6.25-13.063l-.852-2.47-.789-2.377-.72-2.16C-8 27-8 27-7 24l2 1v-5l2-1 2 15L0 0Z" transform="translate(1148 275)" style="fill:#c6e9fc"/><path d="m0 0 3 1-1 44H1l-1-7h-1l-.028-2.14c-.054-3.204-.138-6.407-.222-9.61l-.043-3.367-.098-3.242-.063-2.984C-2.135 13.341-3.533 12.227-6 10c-.23-2.86.43-5.148 1-8l2 1 3-3Z" transform="translate(1055 178)" style="fill:#a2d7ee"/><path d="m0 0 2 1v60l-2 1c-.81-3.554-1.126-6.835-1.13-10.477l-.009-3.246.006-3.472-.003-3.59c0-2.5.001-4.999.006-7.499.005-3.834 0-7.667-.007-11.501 0-2.429.002-4.857.004-7.285l-.006-3.485.01-3.227.002-2.84C-1 3-1 3 0 0Z" transform="translate(1100 297)" style="fill:#29bada"/><path d="m0 0 3 1 .438 3.75C3.787 7.565 4.204 10.27 5 13h6v2H-4V3h2l2-3Z" transform="translate(1076 183)" style="fill:#abddf1"/><path d="M0 0h1v38l-3-3-2-1 1-26 2-1c.407-2.322.744-4.657 1-7Z" transform="translate(1055 185)" style="fill:#c2edfc"/><path d="M0 0h1v42H0l-.684-6.152C-.819 33.988-.819 33.988-2 33c-.087-1.854-.107-3.71-.098-5.566l.01-3.409.026-3.587.013-3.6C-2.037 13.892-2.02 10.946-2 8h2V0Z" transform="translate(1276 183)" style="fill:#c0ebfd"/><path d="M0 0h1v19h8l2 2c2.584.167 2.584.167 5 0l-3 6 3-1c-.506 2.169-1 4-2 6l-3-1c-1.188-3.063-1.188-3.063-2-6H8v-5H0V0Z" transform="translate(924 417)" style="fill:#81c454"/><path d="m0 0 3 1v31l-3 1V0Z" transform="translate(1019 188)" style="fill:#c6ecfd"/><path d="M0 0c5.568.568 5.568.568 7 2 .188 2.438.188 2.438 0 5-2 2-2 2-4.5 2.25C0 9 0 9-2 7c-.25-2.5-.25-2.5 0-5l2-2Z" transform="translate(678 459)" style="fill:#2782a4"/><path d="M0 0c2.5.25 2.5.25 4.5 2.25.313 2.5.313 2.5 0 5-3 2-3 2-5.625 1.688C-3.5 8.25-3.5 8.25-4.5 7.25c-.188-2.438-.188-2.438 0-5 2-2 2-2 4.5-2.25Z" transform="translate(709.5 190.75)" style="fill:#187ca1"/><path d="M0 0c5.568.568 5.568.568 7 2 .188 2.438.188 2.438 0 5-2 2-2 2-4.5 2.25C0 9 0 9-2 7c-.25-2.5-.25-2.5 0-5l2-2Z" transform="translate(380 172)" style="fill:#1f7fa4"/><path d="M0 0c2.563.188 2.563.188 4.563 2.188.25 2.5.25 2.5 0 5-2 2-2 2-4.5 2.312l-2.5-.313c-2-3-2-3-1.688-5.624C-3.165.243-3.165.243 0 0Z" transform="translate(658.438 138.813)" style="fill:#0d769e"/><path d="M0 0c2.5.25 2.5.25 4.5 2.25.25 2.5.25 2.5 0 5l-2 2c-5.568-.568-5.568-.568-7-2-.188-2.438-.188-2.438 0-5 2-2 2-2 4.5-2.25Z" transform="translate(646.5 130.75)" style="fill:#1d7c9e"/><path d="m0 0 2.375.125v2h2c.125 2.375.125 2.375 0 5-2 2-2 2-4.5 2.25-2.5-.25-2.5-.25-4.5-2.25-.25-2.5-.25-2.5 0-5 2-2 2-2 4.625-2.125Z" transform="translate(438.625 125.875)" style="fill:#2b80a5"/><path d="m0 0 2.563.25c2 3 2 3 1.687 5.625C3.562 8.25 3.562 8.25 2.562 9.25c-2.437.188-2.437.188-5 0l-2-2C-3.736.383-3.736.383 0 0Z" transform="translate(606.438 503.75)" style="fill:#0e789f"/><path d="M0 0c2.563.188 2.563.188 4.563 2.188.125 2.624.125 2.624 0 5h-2v2c-2.376.187-2.376.187-5 0-2-3-2-3-1.688-5.626C-3.165.244-3.165.244 0 0Z" transform="translate(337.438 262.813)" style="fill:#2081a5"/><path d="M0 0c1 1 1 1 1.188 3.438C1 6 1 6-1 8c-2.5.25-2.5.25-5 0l-2-2c.25-3.063.25-3.063 1-6 2.684-1.342 4.153-.73 7 0Z" transform="translate(624 118)" style="fill:#0a759d"/><path d="M0 0c1.454.03 1.454.03 2.938.063.624 3.374.624 3.374 1 7l-2 2c-3.298-.33-4.623-.623-7-3C-4.335.088-4.335.088 0 0Z" transform="translate(564.063 513.938)" style="fill:#1579a0"/><path d="m0 0 2.563.25c2 3 2 3 1.687 5.625C3.562 8.25 3.562 8.25 2.562 9.25c-2.437.25-2.437.25-5 0-2-3-2-3-1.687-5.625C-3.17.325-3.17.325 0 0Z" transform="translate(549.438 514.75)" style="fill:#0d759e"/><path d="M0 0c2.563.188 2.563.188 4.563 2.188.25 2.5.25 2.5 0 5-2 2-2 2-4.5 2.312l-2.5-.313c-2-3-2-3-1.688-5.624C-3.165.243-3.165.243 0 0Z" transform="translate(437.438 487.813)" style="fill:#177ba0"/><path d="M0 0c2.5.25 2.5.25 4.5 2.25.313 2.5.313 2.5 0 5-3 2-3 2-5.688 1.625L-3.5 8.25c-.625-2.875-.625-2.875-1-6 2-2 2-2 4.5-2.25Z" transform="translate(669.5 468.75)" style="fill:#157a9f"/><path d="m0 0 2.5.313c2 3 2 3 1.688 5.625C3.5 8.313 3.5 8.313 2.5 9.313c-2.438.187-2.438.187-5 0-2-2-2-2-2.25-4.5C-4.4 1.317-3.476.434 0 0Z" transform="translate(357.5 404.688)" style="fill:#207fa2"/><path d="M0 0c2 3 2 3 1.688 5.625C1 8 1 8 0 9c-2.438.188-2.438.188-5 0-2-2-2-2-2.313-4.5L-7 2c3-2 3-2 7-2Z" transform="translate(340 350)" style="fill:#1c789e"/><path d="M0 0c2.563.188 2.563.188 4.563 2.188-.375 3.124-.375 3.124-1 6-2.313.687-2.313.687-5 1-1.875-1.126-1.875-1.126-3-3C-3.877.298-3.877.298 0 0Z" transform="translate(345.438 234.813)" style="fill:#1c799e"/><path d="m0 0 2.5.313c2 3 2 3 1.688 5.625C3.5 8.313 3.5 8.313 2.5 9.313c-2.438.187-2.438.187-5 0-2-2-2-2-2.25-4.5C-4.4 1.317-3.476.434 0 0Z" transform="translate(691.5 167.688)" style="fill:#10789f"/><path d="m0 0 2.5.313c2 3 2 3 1.688 5.062C3.5 7.313 3.5 7.313 2.5 9.313c-2.375.124-2.375.124-5 0-2-2-2-2-2.25-4.5C-4.4 1.317-3.476.434 0 0Z" transform="translate(478.5 108.688)" style="fill:#0e779f"/><path d="m0 0 2.563.25c2 3 2 3 1.687 5.625C3.562 8.25 3.562 8.25 2.562 9.25c-2.437.188-2.437.188-5 0l-2-2C-3.736.383-3.736.383 0 0Z" transform="translate(492.438 104.75)" style="fill:#12789e"/><path d="M0 0c2.375-.125 2.375-.125 5 0 2 2 2 2 2.25 4.5C7 7 7 7 5 9c-3.125-.375-3.125-.375-6-1l-1-6h2V0Z" transform="translate(533 100)" style="fill:#2580a2"/><path d="M0 0c1.938.75 1.938.75 3.938 2.75-.556 4.556-.556 4.556-2 6-2.438.188-2.438.188-5 0-2-2-2-2-2.313-4.5l.313-2.5c3-2 3-2 5.062-1.75Z" transform="translate(426.063 480.25)" style="fill:#187ba2"/><path d="M0 0c4.556.556 4.556.556 6 2 .188 2.438.188 2.438 0 5-2 2-2 2-4.5 2.313L-1 9c-2-3-2-3-1.75-5.063C-2 2-2 2 0 0Z" transform="translate(390 452)" style="fill:#14789e"/><path d="M0 0c3.297.33 4.623.623 7 3-.375 2.625-.375 2.625-1 5-2.875.625-2.875.625-6 1-2-2-2-2-2.25-4.5C-2 2-2 2 0 0Z" transform="translate(331 321)" style="fill:#197aa0"/><path d="M0 0c4.556.556 4.556.556 6 2 .188 2.438.188 2.438 0 5-2 2-2 2-4.5 2.313L-1 9c-2-3-2-3-1.75-5.063C-2 2-2 2 0 0Z" transform="translate(356 208)" style="fill:#1f7a9f"/><path d="m0 0 2.5.313c2 3 2 3 1.75 5.062C3.5 7.313 3.5 7.313 1.5 9.313c-4.556-.556-4.556-.556-6-2-.188-2.438-.188-2.438 0-5 2-2 2-2 4.5-2.313Z" transform="translate(670.5 147.688)" style="fill:#13789e"/><path d="M0 0c1.938.75 1.938.75 3.938 2.75-.556 4.556-.556 4.556-2 6-2.438.188-2.438.188-5 0-2-2-2-2-2.313-4.5l.313-2.5c3-2 3-2 5.062-1.75Z" transform="translate(452.063 119.25)" style="fill:#1c7da3"/><path d="M0 0c2.563.188 2.563.188 4.563 2.188.312 2.5.312 2.5 0 5-3 2-3 2-5.063 1.75-1.938-.75-1.938-.75-3.938-2.75C-3.718.285-3.718.285 0 0Z" transform="translate(564.438 101.813)" style="fill:#1a7ca0"/><path d="M0 0c4.556.556 4.556.556 6 2 .188 2.438.188 2.438 0 5-2 2-2 2-4.5 2.25C-1 9-1 9-3 7c.33-3.297.623-4.623 3-7Z" transform="translate(505 102)" style="fill:#1679a0"/><path d="M0 0c2.007.287 4.009.619 6 1 .625 2.313.625 2.313 1 5L5 9c-2.5.313-2.5.313-5 0l-2-2c.568-5.568.568-5.568 2-7Z" transform="translate(518 514)" style="fill:#11779d"/><path d="M0 0c2.5.25 2.5.25 4.5 2.25-.33 3.297-.623 4.623-3 7-2.263-.354-3.95-.975-6-2-.125-2.375-.125-2.375 0-5 2-2 2-2 4.5-2.25Z" transform="translate(450.5 494.75)" style="fill:#1878a0"/><path d="M0 0c2-.043 4-.04 6 0 1 1 1 1 1.063 4.063L7 7 2 9l-4-4 2-5Z" transform="translate(643 486)" style="fill:#11779e"/><path d="M0 0c2.563.188 2.563.188 4.563 2.188-.375 3.124-.375 3.124-1 6-2.313.687-2.313.687-5 1-1.875-1.126-1.875-1.126-3-3C-3.877.298-3.877.298 0 0Z" transform="translate(413.438 471.813)" style="fill:#13799f"/><path d="M0 0c2.625.563 2.625.563 5 2 .938 2.5.938 2.5 1 5-2 2-2 2-4.5 2.25C-1 9-1 9-3 7c-.313-2.5-.313-2.5 0-5l3-2Z" transform="translate(401 462)" style="fill:#0f779e"/><path d="M0 0c2.313-.25 2.313-.25 5 0 1.875 1.75 1.875 1.75 3 4-.313 2.25-.313 2.25-1 4-2.875.625-2.875.625-6 1l-2-2c.375-3.625.375-3.625 1-7Z" transform="translate(736 258)" style="fill:#0e789f"/><path d="M0 0c1.454.03 1.454.03 2.938.063l2 5-4 4-5-2c-.043-2-.041-4 0-6 1-1 1-1 4.062-1.063Z" transform="translate(365.063 195.938)" style="fill:#05749c"/><path d="m0 0 1.813.625c.625 2.875.625 2.875 1 6-2 2-2 2-4.5 2.25-2.5-.25-2.5-.25-4.5-2.25.187-2.5.187-2.5 1-5 3-2 3-2 5.187-1.625Z" transform="translate(702.188 179.375)" style="fill:#1f80a5"/><path d="M0 0c2.5.063 2.5.063 5 1 1.438 2.375 1.438 2.375 2 5L5 9c-2.5.313-2.5.313-5 0-2-2-2-2-2.25-4.5C-2 2-2 2 0 0Z" transform="translate(548 100)" style="fill:#11779d"/><path d="M0 0c4.556.556 4.556.556 6 2 .188 2.438.188 2.438 0 5L4 9C.703 8.67-.623 8.377-3 6c.367-2.935.864-3.864 3-6Z" transform="translate(533 515)" style="fill:#10769c"/><path d="M0 0c2.563.188 2.563.188 4.563 2.188-.327 2.615-.82 4.64-2 7-4.75-.75-4.75-.75-7-3C-3.718.285-3.718.285 0 0Z" transform="translate(690.438 448.813)" style="fill:#12779e"/><path d="M0 0c4.556.556 4.556.556 6 2 .125 3 .125 3 0 6-1 1-1 1-4 1.125C-1 9-1 9-2 8c-.188-2.938-.188-2.938 0-6l2-2Z" transform="translate(380 441)" style="fill:#06739b"/><path d="M0 0c2.375-.125 2.375-.125 5 0 2 2 2 2 2.25 4.5C7 7 7 7 5 9c-2.5-.125-2.5-.125-5-1-1.438-1.813-1.438-1.813-2-4 .875-2.25.875-2.25 2-4Z" transform="translate(370 430)" style="fill:#15789d"/><path d="M0 0c2.563.188 2.563.188 4.563 2.188-.375 3.124-.375 3.124-1 6-1.75.687-1.75.687-4 1-2.25-1.438-2.25-1.438-4-3C-3.373.26-3.373.26 0 0Z" transform="translate(364.438 417.813)" style="fill:#14769d"/><path d="M0 0c2.935.367 3.864.864 6 3-.556 4.556-.556 4.556-2 6-2.438.188-2.438.188-5 0l-2-2c.33-3.297.623-4.623 3-7Z" transform="translate(728 387)" style="fill:#16789e"/><path d="M0 0c3.297.33 4.623.623 7 3-.367 2.935-.864 3.864-3 6-4.556-.556-4.556-.556-6-2-.188-2.438-.188-2.438 0-5l2-2Z" transform="translate(742 287)" style="fill:#0d759c"/><path d="m0 0 3.063.25c2 3 2 3 1.687 5.125C4.062 7.25 4.062 7.25 3.062 8.25c-3 .125-3 .125-6 0-1-1-1-1-1.124-4C-3.9.332-3.9.332 0 0Z" transform="translate(741.938 272.75)" style="fill:#12769d"/><path d="m0 0 2.375.125c1.188 2.25 1.188 2.25 2 5-1.375 2.313-1.375 2.313-3 4-4.875-.875-4.875-.875-6-2-.188-2.438-.188-2.438 0-5 2-2 2-2 4.625-2.125Z" transform="translate(341.625 248.875)" style="fill:#1a7aa0"/><path d="M0 0c2.625.625 2.625.625 5 2 .938 1.938.938 1.938 1 4L4 9c-2.5.313-2.5.313-5 0-2-2-2-2-2.313-4.5L-3 2l3-2Z" transform="translate(350 221)" style="fill:#0f769c"/><path d="M0 0c2.625.625 2.625.625 5 2 .938 1.938.938 1.938 1 4L4 9c-2.5.313-2.5.313-5 0-2-2-2-2-2.313-4.5L-3 2l3-2Z" transform="translate(391 161)" style="fill:#08759b"/><path d="M0 0c3 .125 3 .125 4 1.125.188 2.938.188 2.938 0 6l-2 2c-4.556-.556-4.556-.556-6-2-.125-3-.125-3 0-6 1-1 1-1 4-1.125Z" transform="translate(681 157.875)" style="fill:#18789d"/><path d="M0 0c4.875.875 4.875.875 6 2 .188 2.438.188 2.438 0 5-2 2-2 2-4.625 2.125L-1 9c-1.188-2.25-1.188-2.25-2-5 1.375-2.313 1.375-2.313 3-4Z" transform="translate(401 151)" style="fill:#1579a0"/><path d="M0 0c2.563.188 2.563.188 4.563 2.188-.375 3.124-.375 3.124-1 6l-5 1c-1.563-1.75-1.563-1.75-3-4C-4.037 1.672-3.654.28 0 0Z" transform="translate(464.438 113.813)" style="fill:#0a759c"/><path d="M0 0c2.688.875 2.688.875 5 2 .043 2 .04 4 0 6-1 1-1 1-4 1.125C-2 9-2 9-3 8c-.25-2.938-.25-2.938 0-6l3-2Z" transform="translate(505 512)" style="fill:#0f769c"/><path d="M0 0c2.688 1.438 2.688 1.438 5 3-.875 4.875-.875 4.875-2 6-2.438.188-2.438.188-5 0l-2-2c.375-3.125.375-3.125 1-6l3-1Z" transform="translate(592 508)" style="fill:#14769b"/><path d="M0 0c3 .125 3 .125 4 1.125.04 2 .043 4 0 6-2.313 1.125-2.313 1.125-5 2l-3-2c-.25-3.063-.25-3.063 0-6 1-1 1-1 4-1.125Z" transform="translate(464 500.875)" style="fill:#17779b"/><path d="M0 0c3 .125 3 .125 4 1.125.04 2 .043 4 0 6-2.313 1.125-2.313 1.125-5 2l-3-2c-.25-3.063-.25-3.063 0-6 1-1 1-1 4-1.125Z" transform="translate(658 477.875)" style="fill:#10779f"/><path d="M0 0c2.563.188 2.563.188 4.563 2.188.187 2.562.187 2.562 0 5-1 1-1 1-3.938 1.187-3.063-.188-3.063-.188-5.063-2.188C-3.718.287-3.718.287 0 0Z" transform="translate(716.438 413.813)" style="fill:#0d759d"/><path d="M0 0c2.563.188 2.563.188 4.563 2.188.25 2.5.25 2.5 0 5l-2 2c-4.556-.556-4.556-.556-6-2-.126-3-.126-3 0-6 1-1 1-1 3.437-1.188Z" transform="translate(350.438 391.813)" style="fill:#09739a"/><path d="M0 0c3.063.188 3.063.188 5.063 2.188-.556 4.555-.556 4.555-2 6-2.438.187-2.438.187-5 0-2-2-2-2-2.188-4.563C-3.851.063-3.627.232 0 0Z" transform="translate(344.938 378.813)" style="fill:#0f779e"/><path d="M0 0c4.556.556 4.556.556 6 2 .188 2.438.188 2.438 0 5-2 2-2 2-4.563 2.188C-1 9-1 9-2 8c-.188-2.938-.188-2.938 0-6l2-2Z" transform="translate(339 364)" style="fill:#11769d"/><path d="M0 0c3.063.188 3.063.188 5.063 2.188-.556 4.555-.556 4.555-2 6a176.79 176.79 0 0 1-7-1c-.043-2-.041-4 0-6 1-1 1-1 3.937-1.188Z" transform="translate(744.938 316.813)" style="fill:#09719a"/><path d="M0 0c3 .125 3 .125 4 1.125.04 2 .043 4 0 6-2.313 1.125-2.313 1.125-5 2l-3-2c-.25-3.063-.25-3.063 0-6 1-1 1-1 4-1.125Z" transform="translate(724 216.875)" style="fill:#1577a0"/><path d="m0 0 2.375.125 2 5-4 4-5-2c-.125-2.375-.125-2.375 0-5 2-2 2-2 4.625-2.125Z" transform="translate(717.625 203.875)" style="fill:#0f759c"/><path d="M0 0c2.5.063 2.5.063 5 1 1.313 2.563 1.313 2.563 2 5-1.188 1.563-1.188 1.563-3 3-4.421-.421-4.421-.421-6-2-.188-2.438-.188-2.438 0-5l2-2Z" transform="translate(412 142)" style="fill:#10769d"/><path d="M0 0c1.454.03 1.454.03 2.938.063.38 2.326.712 4.66 1 7-1 1-1 1-3.938 1.187-3.063-.188-3.063-.188-5.063-2.188C-4.333.088-4.333.088 0 0Z" transform="translate(634.063 123.938)" style="fill:#07749b"/><path d="M0 0c2 .875 2 .875 3.375 3.25L4 5.875l-2 3c-2.5.313-2.5.313-5 0l-2-2c.25-3.063.25-3.063 1-6 2-1 2-1 4-.875Z" transform="translate(594 107.125)" style="fill:#0f769d"/><path d="m0 0 3.063.25c2 3 2 3 1.687 5.125C4.062 7.25 4.062 7.25 3.062 8.25c-2.437.188-2.437.188-5 0-2-2-2-2-2.187-4.563C-3.851.128-3.619.308 0 0Z" transform="translate(577.938 511.75)" style="fill:#0b749d"/><path d="M0 0c1 1 1 1 1.188 3.438C1 6 1 6-1 8c-4.556-.556-4.556-.556-6-2-.04-2-.043-4 0-6 2.684-1.342 4.153-.73 7 0Z" transform="translate(623 500)" style="fill:#0c759d"/><path d="m0 0 2.5.313c2 3 2 3 1.688 5.125C3.5 7.313 3.5 7.313 2.5 8.313c-3 .124-3 .124-6 0-1-1-1-1-1.188-3.438C-4.428 1.327-3.52.44 0 0Z" transform="translate(700.5 437.688)" style="fill:#08749c"/><path d="M0 0c1 1 1 1 1.188 3.438C1 6 1 6-1 8c-4.556-.556-4.556-.556-6-2-.04-2-.043-4 0-6 2.684-1.342 4.153-.73 7 0Z" transform="translate(712 427)" style="fill:#0c749b"/><path d="M0 0c2.563.188 2.563.188 4.563 2.188-.375 3.124-.375 3.124-1 6-1.75.75-1.75.75-4 1-2.313-1.688-2.313-1.688-4-4C-4.136 1.666-3.61.277 0 0Z" transform="translate(723.438 400.813)" style="fill:#0f779e"/><path d="M0 0v13h-10l-1-2h6l-.063-3.875C-5.125 3.25-5.125 3.25-4 1c3-1 3-1 4-1Z" transform="translate(1414 230)" style="fill:#0e7aa3"/><path d="M0 0c2.375-.125 2.375-.125 5 0 2 2 2 2 2.25 4.5C7 7 7 7 5 9 .444 8.444.444 8.444-1 7c.287-2.34.62-4.674 1-7Z" transform="translate(727 230)" style="fill:#17759b"/><path d="M0 0c3.125.375 3.125.375 6 1 .125 2.875.125 2.875 0 6L4 9c-4.556-.556-4.556-.556-6-2-.188-2.438-.188-2.438 0-5l2-2Z" transform="translate(605 112)" style="fill:#0b759c"/><path d="M0 0c2.563.188 2.563.188 4.563 2.188-.556 4.555-.556 4.555-2 6-2.438.187-2.438.187-5 0l-2-2C-3.718.285-3.718.285 0 0Z" transform="translate(477.438 505.813)" style="fill:#1379a1"/><path d="M0 0c3 .125 3 .125 4 1.125.125 3 .125 3 0 6-1 1-1 1-4 1.125-3-.125-3-.125-4-1.125-.125-3-.125-3 0-6 1-1 1-1 4-1.125Z" transform="translate(633 492.875)" style="fill:#0b729a"/><path d="M0 0c3 .125 3 .125 4 1.125.125 3 .125 3 0 6-1 1-1 1-4 1.125-3-.125-3-.125-4-1.125-.125-3-.125-3 0-6 1-1 1-1 4-1.125Z" transform="translate(742 345.875)" style="fill:#0c739b"/><path d="M0 0c2.5-.313 2.5-.313 5 0 2 2 2 2 2.188 4.563C7 7 7 7 6 8c-2 .04-4 .043-6 0-1.125-2.313-1.125-2.313-2-5l2-3Z" transform="translate(332 336)" style="fill:#0a749c"/><path d="M0 0c2.5.125 2.5.125 5 1 1.313 2.063 1.313 2.063 2 4-1.75 2.063-1.75 2.063-4 4-2.218-.19-3.415-.415-5-2-.188-2.438-.188-2.438 0-5l2-2Z" transform="translate(742 331)" style="fill:#0a7299"/><path d="M0 0c2.563.188 2.563.188 4.563 2.188-.556 4.555-.556 4.555-2 6-2.438.187-2.438.187-5 0l-2-2C-3.718.285-3.718.285 0 0Z" transform="translate(333.438 291.813)" style="fill:#0e759c"/><path d="M0 0c4.556.556 4.556.556 6 2 .188 2.438.188 2.438 0 5L4 9c-4.556-.556-4.556-.556-6-2-.188-2.438-.188-2.438 0-5l2-2Z" transform="translate(333 277)" style="fill:#0c749b"/><path d="M0 0c3 .125 3 .125 4 1.125.125 3 .125 3 0 6-1 1-1 1-4 1.125-3-.125-3-.125-4-1.125-.125-3-.125-3 0-6 1-1 1-1 4-1.125Z" transform="translate(735 243.875)" style="fill:#067199"/><path d="M0 0c2.563.188 2.563.188 4.563 2.188-.556 4.555-.556 4.555-2 6-2.438.187-2.438.187-5 0l-2-2C-3.718.285-3.718.285 0 0Z" transform="translate(373.438 183.813)" style="fill:#0b759c"/><path d="M0 0c4.556.556 4.556.556 6 2 .188 2.438.188 2.438 0 5L4 9c-4.556-.556-4.556-.556-6-2-.188-2.438-.188-2.438 0-5l2-2Z" transform="translate(577 104)" style="fill:#0c759c"/><path d="M0 0c2.5-.313 2.5-.313 5 0l2 2c-.375 3.125-.375 3.125-1 6H0c-1.125-2.313-1.125-2.313-2-5l2-3Z" transform="translate(732 374)" style="fill:#0a729a"/><path d="M0 0c3.125-.188 3.125-.188 6 0 .625 2.875.625 2.875 1 6-2 2-2 2-4.625 2.125L0 8c-1.125-2.313-1.125-2.313-2-5l2-3Z" transform="translate(330 307)" style="fill:#0a729a"/><path d="M0 0c1 1 1 1 1.125 4C1 7 1 7 0 8c-3 .125-3 .125-6 0-1-1-1-1-1.063-4.063L-7 1C-4.516-.242-2.748-.14 0 0Z" transform="translate(748 302)" style="fill:#0e769c"/><path d="M0 0h1c2.48 11.522 2.48 11.522 1 17l-1-4h-3v15h-1V5l2 4 1-9Z" transform="translate(924 187)" style="fill:#c4effd"/><path d="M0 0c2.438.188 2.438.188 3.438 1.188.04 2 .042 4 0 6-1.75 1.125-1.75 1.125-4 2-2.25-.876-2.25-.876-4-2-.125-2.375-.125-2.375 0-5 2-2 2-2 4.562-2.188Z" transform="translate(521.563 100.813)" style="fill:#0c769e"/><path d="M0 0c2.563.188 2.563.188 4.563 2.188.187 2.562.187 2.562 0 5-1 1-1 1-4 1.125-3-.126-3-.126-4-1.126-.126-3-.126-3 0-6 1-1 1-1 3.437-1.187Z" transform="translate(738.438 359.813)" style="fill:#09729a"/><path d="M0 0c2.563.188 2.563.188 4.563 2.188.187 2.562.187 2.562 0 5-1 1-1 1-4 1.125-3-.126-3-.126-4-1.126-.126-3-.126-3 0-6 1-1 1-1 3.437-1.187Z" transform="translate(425.438 133.813)" style="fill:#09729b"/><path d="M0 0h1v18l6-2c2.875-.125 2.875-.125 5 0l2 4-3 1-1 2-2-1v-3H0V0Z" transform="translate(925 417)" style="fill:#76be34"/><path d="M0 0c2.563.188 2.563.188 4.563 2.188-.556 4.555-.556 4.555-2 6-2.5.124-2.5.124-5 0-1-1-1-1-1.126-4C-3.398.26-3.398.26 0 0Z" transform="translate(491.438 509.813)" style="fill:#057099"/><path d="M0 0h8v3l16-1v2l-1.697.06c-2.539.095-5.077.205-7.616.315l-2.67.094-2.568.117-2.364.095C4.698 4.896 4.698 4.896 2 7 0 4 0 4 0 0Z" transform="translate(1439 184)" style="fill:#aaddf2"/><path d="M0 0h12v14H4V9h3v2h4V1H0V0Z" transform="translate(1232 135)" style="fill:#016c98"/><path d="M0 0v1c-4.41 1.102-8.484 1.077-13 1v2l-16-1V2c3.145-.341 6.291-.671 9.438-1L-16.9.71C-11.232.126-5.698-.092 0 0Z" transform="translate(666 280)" style="fill:#1cb7d4"/><path d="M0 0h2v10h-14V8H0V0Z" transform="translate(1360 187)" style="fill:#a6d9ed"/><path d="M0 0h16l-1 14h-1V2H0V0Z" transform="translate(1187 134)" style="fill:#157aa1"/><path d="M0 0c2.063 1.688 2.063 1.688 4 4-.25 2.75-.25 2.75-1 5h-4l-2 6h-1c.497-5.661 1.545-9.877 4-15Z" transform="translate(372 245)" style="fill:#1cb9db"/><path d="M0 0h2v2h17v1H3L2 8 0 9c-1.125-6.75-1.125-6.75 0-9Z" transform="translate(1084 217)" style="fill:#9fd6ec"/><path d="m0 0 5 1v1l11 1v2H0V0Z" transform="translate(1034 185)" style="fill:#1b7ca5"/><path d="m0 0 2 1-1 1a85.688 85.688 0 0 0-.563 4.563L.184 9.066 0 11h3V8l3 1-1 2 6 1v1H-1c-.098-9.277-.098-9.277 0-12l1-1Z" transform="translate(1234 152)" style="fill:#c1eafd"/><path d="M0 0h10L9 4H4L3 6V4H1L0 7c-1-3-1-3 0-7Z" transform="translate(1378 178)" style="fill:#afdff6"/><path d="M0 0h1l1 18-5 2c-.125-2.875-.125-2.875 0-6l2-2c.464-2.892.464-2.892.625-6.125l.227-3.32L0 0Z" transform="translate(1413 348)" style="fill:#96ddf3"/><path d="M0 0v3h-14l4-2 1-1c6.6-1.2 6.6-1.2 9 0Z" transform="translate(1202 162)" style="fill:#c0eafe"/><path d="M0 0c1.207.03 1.207.03 2.438.063l-4 4 4 5c-2.376.187-2.376.187-5 0-2-3-2-3-1.688-5.626C-3.278.08-3.278.08 0 0Z" transform="translate(658.563 138.938)" style="fill:#2885a6"/><path d="m0 0 .875 1.875C1.937 4.133 1.937 4.133 4 6c-.023 3.04-.023 3.04-.375 6.625l-.336 3.602L3 19H2c-.338-2.229-.67-4.458-1-6.688L.437 8.552C.08 5.64-.089 2.923 0 0Z" transform="translate(304 402)" style="fill:#84c552"/><path d="m0 0 2 1-1 5-5 1-1-5 3-1v2l2-1V0Z" transform="translate(732 389)" style="fill:#057299"/><path d="m0 0 2 3 2-1a240.8 240.8 0 0 1-.813 4.375l-.457 2.46C2 11 2 11-1 13c-.077-4.516-.102-8.59 1-13Z" transform="translate(498 363)" style="fill:#10b9da"/><path d="M0 0h1v7h-2v9h-2c-.379-5.93.894-10.472 3-16Z" transform="translate(1006 174)" style="fill:#1279a1"/><path d="M0 0h7L5 1v4l-15-1V3L0 2V0Z" transform="translate(1305 161)" style="fill:#a6daf1"/><path d="M0 0h2v2h2v2l4 1-1 2c-2.375.125-2.375.125-5 0C0 5 0 5-.125 2.375L0 0Z" transform="translate(447 121)" style="fill:#0b749d"/><path d="M0 0v1h-6c1.152 2.468 2.048 4.048 4 6-1.875.625-1.875.625-4 1l-2-2c.25-3.063.25-3.063 1-6 2.667-1.333 4.167-.671 7 0Z" transform="translate(624 118)" style="fill:#2a83a6"/><path d="M0 0c3.875.875 3.875.875 5 2 .04 1.666.043 3.334 0 5L3 8C.875 7.062.875 7.062-1 6l.5-2.438C.032 1.272.032 1.272 0 0Z" transform="translate(564 102)" style="fill:#0a759e"/><path d="M0 0h6c1 3 1 3 0 5H1L0 0Z" transform="translate(354 210)" style="fill:#02759e"/><path d="M0 0h6l2 5-4 4-5-2c2.49-.687 4.379-1 7-1L5 1H0V0Z" transform="translate(362 196)" style="fill:#207a9e"/><path d="M0 0c.625 1.875.625 1.875 1 4-2 2-2 2-4.625 2.125L-6 6l-2-4 4-1 1 2h3V0Z" transform="translate(553 518)" style="fill:#227fa1"/><path d="M0 0h5l1 4-7 1 1-5Z" transform="translate(667 469)" style="fill:#08729a"/><path d="M0 0h2c1.068 5.577.826 10.394 0 16H1L0 0Z" transform="translate(593 214)" style="fill:#21bad8"/><path d="m0 0 5 1v4H2v2H0V0Z" transform="translate(723 217)" style="fill:#08749b"/><path d="M0 0v6l-4-1-1-5c2-1 2-1 5 0Z" transform="translate(595 509)" style="fill:#04739b"/><path d="m0 0 4 2c-.875 4.875-.875 4.875-2 6-1.666.04-3.334.043-5 0l1-3h3L0 0Z" transform="translate(478 506)" style="fill:#066f97"/><path d="M0 0v3c-3.272 1.073-5.43.893-8.75.063l-2.422-.59L-13 2V1C-8.624.407-4.425-.138 0 0Z" transform="translate(575 379)" style="fill:#23bbd8"/><path d="m0 0 1 3h3v3l2 1c-2.375.625-2.375.625-5 1-2-2-2-2-2.188-4.563C-1 1-1 1 0 0Z" transform="translate(736 259)" style="fill:#036e97"/><path d="M0 0c2 3 2 3 2 6l-7-1c1.129-5 1.129-5 5-5Z" transform="translate(342 249)" style="fill:#04729a"/><path d="M0 0v2h-2l-2 5c-3 0-3 0-5-2a466.06 466.06 0 0 1 3.375-2.5l1.898-1.406C-2 0-2 0 0 0Z" transform="translate(1432 166)" style="fill:#1379a2"/><path d="m0 0 1 2h2L0 12l-2-1L0 0Z" transform="translate(756 357)" style="fill:#82c44e"/><path d="M0 0h1l1 10-9 1 1-3 6 1V0Z" transform="translate(567 221)" style="fill:#1ab6d5"/><path d="M0 0c2.438.75 2.438.75 5 2 .938 1.938.938 1.938 1 4L4 9H2l-.438-3.375C1.216 2.179 1.216 2.179 0 0Z" transform="translate(391 161)" style="fill:#1b7a9f"/><path d="M0 0c.625 1.875.625 1.875 1 4l-2 2c-2.125-.375-2.125-.375-4-1l-1-4h4l2-1Z" transform="translate(406 154)" style="fill:#04729a"/><path d="M0 0h2c1.292 3.877.647 5.63-1.063 9.25L0 11c-2.084-4.413-2.084-4.413-1.688-7.188C-1 2-1 2 0 0Z" transform="translate(721 409)" style="fill:#e6f1f3"/><path d="M0 0h5v16H4l-.113-2.23C3.47 6.396 3.47 6.396 0 0Z" transform="translate(1015 292)" style="fill:#12b4d6"/><path d="M0 0a99.984 99.984 0 0 1 5 0c1 1 1 1 1.098 3.066l-.035 2.497-.028 2.503L6 10H5L4 5 2 6 0 0Z" transform="translate(888 194)" style="fill:#0c7ca4"/><path d="M0 0c2 3 2 3 2 6h4v2c-2.375.125-2.375.125-5 0-2-2-2-2-2.188-4.563C-1 1-1 1 0 0Z" transform="translate(475 110)" style="fill:#1e7aa0"/><path d="M0 0c1.938.75 1.938.75 4 2 .75 2.125.75 2.125 1 4H0a88.406 88.406 0 0 1-1-5l1-1Z" transform="translate(533 101)" style="fill:#02739c"/><path d="m0 0 2 2c-.556 4.556-.556 4.556-2 6-1.666.04-3.334.043-5 0V6h5l-.563-2.438L-1 1l1-1Z" transform="translate(609 505)" style="fill:#267fa3"/><path d="m0 0 3 1-1 5h-5c1.875-4.875 1.875-4.875 3-6Z" transform="translate(358 406)" style="fill:#01739b"/><path d="m0 0 2 1L.062 2.75C-1.982 4.98-2.582 6.074-3 9h-2v2h-2c1.486-4.593 3.85-7.436 7-11Z" transform="translate(1057 279)" style="fill:#18b6d5"/><path d="m0 0 2.875 1.063c-2.9 1.933-3.897 2.3-7.188 2.625l-3.812.374 3-1v-3c2-1 2-1 5.125-.062Z" transform="translate(443.125 274.938)" style="fill:#18b8d6"/><path d="M0 0h1l1 9h-3l-1 3V8l-4-1 5-1 1-6Z" transform="translate(1416 220)" style="fill:#9ad4ed"/><path d="M0 0c2.042 1.692 2.918 2.637 3.512 5.262l.175 2.426.2 2.449L4 12C.674 10.337.2 7.37-1 4c.313-2.438.313-2.438 1-4Z" transform="translate(740 213)" style="fill:#72bd39"/><path d="m0 0 1.813.688-4 2v5h-2l-1 2c-.364-6.42-.364-6.42 1.25-9 1.75-1 1.75-1 3.937-.688Z" transform="translate(1438.188 180.313)" style="fill:#c5edfb"/><path d="M0 0c2.266 4.532 1.927 6.178 1 11l-3-1L0 0Z" transform="translate(322 173)" style="fill:#83c64f"/><path d="m0 0 3 1 1 5-6-1V2h2V0Z" transform="translate(462 502)" style="fill:#02739e"/><path d="M0 0h2v9l-3 1L0 0Z" transform="translate(405 340)" style="fill:#18b7d6"/><path d="m0 0 2 1c-.875 4.875-.875 4.875-2 6-1.666.04-3.334.043-5 0l1-2h3l-1-3 2-2Z" transform="translate(748 318)" style="fill:#1e7da1"/><path d="M0 0h4v5l-5-1 1-4Z" transform="translate(728 232)" style="fill:#02779f"/><path d="m0 0-1 6-3-1c-.75-2-.75-2-1-4 1-1 1-1 5-1Zm-6 4 2 2h-2V4Z" transform="translate(650 132)" style="fill:#03739e"/><path d="M0 0h5v5H0V0Z" transform="translate(436 128)" style="fill:#03769e"/><path d="m0 0 5.957 1.758-4 3-7-3c3-2 3-2 5.043-1.758Z" transform="translate(382.043 114.242)" style="fill:#7fc34b"/><path d="M0 0h6l1 2c-.938 2.125-.938 2.125-2 4L1 3l1-2-2-1Z" transform="translate(630 493)" style="fill:#1079a0"/><path d="M0 0c4.875.875 4.875.875 6 2 .04 2 .043 4 0 6L4 9V3L0 1V0Z" transform="translate(380 441)" style="fill:#227da6"/><path d="m0 0 5 1v4L0 4V0Z" transform="translate(372 431)" style="fill:#02749e"/><path d="M0 0v4l-3 1-3-2V1c2-1 2-1 6-1Z" transform="translate(726 405)" style="fill:#037098"/><path d="m0 0 3 1v5l-5 2 2-8Z" transform="translate(1291 290)" style="fill:#11b7d7"/><path d="M0 0h6l1 3c-3.053.981-4.947.981-8 0l1-3Z" transform="translate(732 244)" style="fill:#16779d"/><path d="M0 0c1.454.03 1.454.03 2.938.063-3.75 3-3.75 3-6 3l1 5-3-2C-3.99.08-3.99.08 0 0Z" transform="translate(634.063 123.938)" style="fill:#1d7aa1"/><path d="M0 0h3l.313 1.875C3.875 4.365 3.875 4.365 7 6L3 7C0 3.375 0 3.375 0 0Z" transform="translate(460 116)" style="fill:#1d78a0"/><path d="m0 0 2 2c-.375 2.125-.375 2.125-1 4h-4V1l3-1Z" transform="translate(365 419)" style="fill:#01779f"/><path d="m0 0 2 1c-.875 4.875-.875 4.875-2 6-1.666.04-3.334.043-5 0l1-3 4 1-1-3 1-2Z" transform="translate(348 380)" style="fill:#1b7b9f"/><path d="M0 0c1 3 1 3-.438 6.188L-2 9l-1-2c-2.527-.656-2.527-.656-5-1V5l2.875-.813C-1.747 3.25-1.747 3.25 0 0Z" transform="translate(1213 358)" style="fill:#13b7d5"/><path d="m0 0 4 2-2 3 5 1v1c-2.375.125-2.375.125-5 0C0 5 0 5-.125 2.375L0 0Z" transform="translate(333 352)" style="fill:#2580a2"/><path d="m0 0 5 1v4H0V0Z" transform="translate(335 352)" style="fill:#0178a0"/><path d="M0 0h5l1 2-3 1-1 2-3-1 1-4Z" transform="translate(335 263)" style="fill:#10759b"/><path d="m0 0 14 2v1H1L0 0Z" transform="translate(1015 242)" style="fill:#c4edfa"/><path d="M0 0h3L1 14H0V0Z" transform="translate(1415 229)" style="fill:#c3edfc"/><path d="m0 0 2.375.125v2l-2.938.813-3.062 1.187-1 3c-.125-2.375-.125-2.375 0-5 2-2 2-2 4.625-2.125Z" transform="translate(691.625 167.875)" style="fill:#247fa2"/><path d="M0 0c3.937 1.312 6.227 2.92 9 6L1 5 0 0Z" transform="translate(647 74)" style="fill:#74bd37"/><path d="M0 0h5L4 5H1L0 0Z" transform="translate(450 497)" style="fill:#06779d"/><path d="M0 0c2.625-.188 2.625-.188 5 0L4 5 1 6V4h2V2l-5 1 2-3Z" transform="translate(425 483)" style="fill:#1c7ca0"/><path d="M0 0h5v4h-6l1-4Z" transform="translate(679 462)" style="fill:#02729c"/><path d="m0 0 4 2-2 3h-4l2-5Z" transform="translate(351 396)" style="fill:#177ca3"/><path d="M0 0h2v3h4C5 5 5 5 3 5.688L1 6C0 5 0 5-.063 2.437L0 0Z" transform="translate(378 174)" style="fill:#11759c"/><path d="m0 0 1 2 5-2v4H0l-1-3 1-1Z" transform="translate(1336 491)" style="fill:#81c451"/><path d="m0 0 1 3 5-1v2H4v2L0 5V0Z" transform="translate(422 483)" style="fill:#04709a"/><path d="m0 0 1 3 3-1v3h2v2L1 6 0 0Z" transform="translate(665 471)" style="fill:#2583a5"/><path d="m0 0 3 1-1 5-4-1 2-5Z" transform="translate(334 322)" style="fill:#02729b"/><path d="m0 0 2 1-3 6-4-1c1-2 1-2 4-4l1-2Z" transform="translate(1356 240)" style="fill:#b1e1f4"/><path d="m0 0 1 3 3-1 1 3 2 1c-2.875-.25-2.875-.25-6-1C-.375 2.937-.375 2.937-1 1l1-1Z" transform="translate(1162 235)" style="fill:#0b7199"/><path d="m0 0 4 2v3l-5 1 1-6Z" transform="translate(343 237)" style="fill:#097aa0"/><path d="m0 0 5 1 1 5-2 1C2 4 2 4 2 1L0 0Z" transform="translate(699 438)" style="fill:#19799f"/><path d="m0 0 3 3C1.625 5 1.625 5 0 7h-2c.875-4.75.875-4.75 2-7Z" transform="translate(372 245)" style="fill:#13b6d5"/><path d="M0 0h2C1.493 3.719.884 6.735-1 10c-.125-7.75-.125-7.75 1-10Z" transform="translate(597 236)" style="fill:#15b7d6"/><path d="m0 0 2 3H0l1 6h-3c.875-6.75.875-6.75 2-9Z" transform="translate(883 183)" style="fill:#1379a3"/><path d="m0 0 2 4H0l-1 2-2-1c.375-1.938.375-1.938 1-4l2-1Z" transform="translate(700 179)" style="fill:#067099"/><path d="m0 0 2.125.938C5.089 2.032 7.877 2.563 11 3v1L3 5 0 0Z" transform="translate(1346 177)" style="fill:#1b83a9"/><path d="M0 0h5L4 4H0V0Z" transform="translate(679 161)" style="fill:#02779f"/><path d="M0 0h1c.125 2.375.125 2.375 0 5l-2 2c-2.125-.375-2.125-.375-4-1l1.375-1.313C-1.8 2.893-1.8 2.893 0 0Z" transform="translate(650 133)" style="fill:#2d88a8"/><path d="M0 0h1v5l-4 2-2-2 3-3v2h2V0Z" transform="translate(524 103)" style="fill:#086d93"/><path d="m0 0 5 1 1 5a125.024 125.024 0 0 1-6-4V0Z" transform="translate(1054 372)" style="fill:#17b5d5"/><path d="M0 0h3c.043 1.666.04 3.334 0 5C2 6 2 6-.563 6.063L-3 6l4-1-1-5Z" transform="translate(746 304)" style="fill:#046a93"/><path d="m0 0 2 1-6 8-1-2c2.455-5.727 2.455-5.727 5-7Z" transform="translate(1054 280)" style="fill:#c7e9fd"/><path d="M0 0v7l-3-1V1c2-1 2-1 3-1Z" transform="translate(680 196)" style="fill:#19b6d7"/><path d="M0 0c.625 1.875.625 1.875 1 4l-2 2-3-1c1.75-3.875 1.75-3.875 4-5Z" transform="translate(704 182)" style="fill:#07729b"/></svg>