<svg xmlns="http://www.w3.org/2000/svg" style="display:block" viewBox="0 0 499 499"><path d="M0 0h499v499H0V0Z" style="fill:#fdfdfd"/><path d="M0 0c45.448-.167 90.893.096 136.34.438l2.208.016c18.828.142 37.655.288 56.483.437 10.931.086 21.863.17 32.794.255l2.36.018 11.732.09c32.028.245 64.055.494 96.083.746v27l-9.5 5.125c-15.702 8.53-31.29 17.37-46.328 27.031-2.885 1.677-5.789 3.157-8.781 4.63C267.092 68.9 261.045 72.36 255 75.936l-6 3.528-2.993 1.765c-4.033 2.374-8.076 4.73-12.12 7.085-2.718 1.586-5.432 3.18-8.145 4.775-1.622.95-3.245 1.898-4.867 2.847l-2.531 1.495-2.414 1.408-2.15 1.261C212 101 212 101 210 101v18c8.495-4.454 16.851-9.03 25.093-13.933 6.127-3.635 12.321-7.14 18.532-10.63 7.69-4.322 15.309-8.727 22.828-13.34 3.775-2.272 7.649-4.358 11.522-6.457a2222.183 2222.183 0 0 0 16.087-8.828l1.769-.977c8.456-4.68 16.795-9.516 24.964-14.685C335.805 47 335.805 47 338 47c1.41 6.956 2.406 14.176 0 21-4.742 5.588-12.13 8.342-18.638 11.375-5.238 2.532-10.219 5.482-15.238 8.419-2.949 1.717-5.918 3.4-8.886 5.085l-3.61 2.055-1.813 1.032c-4.829 2.751-9.653 5.511-14.479 8.27l-8.691 4.967-3.353 1.916L239 125v2a86.617 86.617 0 0 0 6.188 4.188l1.751 1.154c3.485 2.175 3.485 2.175 7.477 2.41 2.698-.785 4.825-1.804 7.26-3.201l2.723-1.55 2.913-1.689 3.042-1.74a2626.901 2626.901 0 0 0 25.311-14.725 547.322 547.322 0 0 1 16.724-9.412c4.627-2.543 9.143-5.274 13.666-7.998l2.125-1.265 1.866-1.122c2.23-1.198 4.604-2.11 6.954-3.05v21l-4 1v2l-2.055 1.102a368.517 368.517 0 0 0-16.29 9.324 205.604 205.604 0 0 1-7.55 4.238c-6.992 3.796-13.89 7.753-20.793 11.711l-3.896 2.23c-3.14 1.797-6.278 3.596-9.416 5.395 2.96 2.38 5.888 4.723 9.063 6.813l1.972 1.332c2.529 1.1 3.37.716 5.965-.145 1.66-.863 3.293-1.783 4.902-2.738l2.92-1.72 3.115-1.855c2.158-1.27 4.315-2.54 6.473-3.808l3.313-1.953c5.036-2.96 10.089-5.889 15.152-8.801l2.699-1.568 2.48-1.424c1.076-.62 1.076-.62 2.172-1.254C335 129 335 129 337 129v21l-5.258 2.922-5.094 2.84c-1.743.972-3.489 1.94-5.234 2.91l-3.36 1.875-3.078 1.714a106.947 106.947 0 0 0-6.23 3.955C306 168 306 168 304 168l.114 3.501c.346 10.916.6 21.83.767 32.75.088 5.613.208 11.222.401 16.833.186 5.421.287 10.838.33 16.262.032 2.064.093 4.127.185 6.188.674 15.715.674 15.715-3.433 20.288-4.046 3.196-8.48 5.311-13.229 7.26-3.234 1.39-6.162 3.166-9.182 4.973a20896.276 20896.276 0 0 0-10.334 5.891c-2.41 1.376-4.822 2.75-7.234 4.125-3.956 2.255-7.912 4.51-11.866 6.769-1.7.97-3.402 1.938-5.104 2.904a545.115 545.115 0 0 0-12.755 7.475l-2.627 1.573a374.82 374.82 0 0 0-4.908 2.996l-2.219 1.325-1.927 1.181c-2.72.97-4.234.545-6.979-.294a82.371 82.371 0 0 1-5.219-2.738l-3.042-1.718-3.239-1.856-3.365-1.908c-3.383-1.919-6.76-3.848-10.135-5.78l-5.684-3.246a6243.689 6243.689 0 0 1-7.836-4.485c-6.35-3.637-12.715-7.247-19.152-10.727-3.504-1.905-6.867-3.864-10.137-6.151-5.964-4.276-5.964-4.276-12.984-4.97-2.606 1.25-4.939 2.68-7.313 4.324-3.1 2.055-6.364 3.816-9.61 5.632-7.517 4.214-14.947 8.585-22.382 12.943-3.365 1.948-6.758 3.846-10.152 5.743-6.94 3.883-13.82 7.866-20.688 11.875l-3.099 1.807a1354.66 1354.66 0 0 0-14.174 8.376l-2.375 1.42a621.372 621.372 0 0 0-4.326 2.615C34.334 324 34.334 324 31 324v2l2.696-.003c63.392-.075 126.78.126 190.17.448 12.28.063 24.56.122 36.84.182 25.098.121 50.196.246 75.294.373v19c-59.356.128-118.708-.014-178.063-.438l-2.327-.016C103.405 345.173 51.202 344.687-1 344c-1.914-19.24-1.914-19.24 2.167-25.125 3.115-2.237 6.137-3.828 9.646-5.375l3.333-1.715c2.2-1.124 4.418-2.213 6.653-3.267 9.289-4.405 18.126-9.74 27.014-14.893l3.465-2.004 6.733-3.893c15.03-8.689 15.03-8.689 22.551-12.728 3.844-2.077 7.553-4.297 11.25-6.625 6.998-4.367 14.228-8.27 21.498-12.163 5.693-3.052 5.693-3.052 11.1-6.571C127 248 127 248 131 248v-19c-11.618 6.293-23.203 12.647-34.493 19.514-2.495 1.479-5.019 2.876-7.57 4.256-16.421 8.92-32.65 18.17-48.769 27.625a1780.3 1780.3 0 0 1-13.242 7.68l-1.79 1.028c-2.86 1.644-5.721 3.285-8.585 4.924-6.166 3.521-6.166 3.521-12.106 7.403C2 303 2 303-1 303v-21l7.125-4c2.96-1.665 5.917-3.332 8.875-5l1.922-1.083c6.329-3.568 12.594-7.207 18.765-11.042 4.817-2.993 9.702-5.77 14.7-8.445 2.582-1.413 5.098-2.901 7.613-4.43a220.559 220.559 0 0 1 9.813-5.625c8.362-4.511 16.576-9.29 24.818-14.017 3.121-1.79 6.245-3.574 9.369-5.358-1.338-4.014-3.148-4.624-6.75-6.75l-3.172-1.922c-3.535-1.525-4.52-1.65-8.078-.328-2.675 1.278-5.24 2.715-7.813 4.188l-2.363 1.333c-8.528 4.833-16.983 9.794-25.441 14.749-8.815 5.16-17.666 10.258-26.52 15.351a1309.44 1309.44 0 0 0-10.508 6.102l-1.991 1.162c-1.643.96-3.283 1.926-4.923 2.892C2 261 2 261-1 261c-1.273-6.601-2.268-13.534 0-20 4.473-5.2 11.17-7.865 17.28-10.697 4.092-1.96 7.914-4.316 11.782-6.678a460.874 460.874 0 0 1 15.829-8.918c4.44-2.437 8.84-4.94 13.234-7.457l2.591-1.469 2.417-1.39 2.184-1.25c1.84-1.047 1.84-1.047 2.683-3.141l-2-.688c-3.317-1.45-6.081-3.31-9.035-5.386-2.532-1.193-3.338-.792-5.965.074a94.892 94.892 0 0 0-4.684 2.52l-2.781 1.582-2.972 1.71-3.069 1.75A4161.069 4161.069 0 0 0 27 207c-2.942 1.687-5.884 3.373-8.826 5.057a2582.438 2582.438 0 0 0-5.346 3.071C8.608 217.552 4.383 219.883 0 222c-1.265-6.924-2.298-14.212 0-21 5.03-5.98 13.096-8.784 20-12l16-9 1-96 10-5a314.534 314.534 0 0 0 6.188-3.5 4087.749 4087.749 0 0 1 5.61-3.237c4.368-2.506 8.755-4.976 13.14-7.45l2.942-1.662 6.03-3.406 15.59-8.807 2.875-1.624 2.719-1.537 2.553-1.442c2.12-1.203 4.231-2.42 6.341-3.64C114 41 114 41 116.688 39.937c2.39-.844 2.39-.844 4.374-2.562C123 36 123 36 127 36v2l2.221.843c2.564 1.068 4.848 2.258 7.236 3.669l2.585 1.524 2.77 1.651 2.913 1.728c8.286 4.94 16.462 10.047 24.626 15.185a654.678 654.678 0 0 0 20.123 12.168l1.87 1.084 1.808 1.032a67.766 67.766 0 0 1 3.914 2.568c3.835 2.871 3.835 2.871 8.36 3.185L208 81c1.388-.767 2.777-1.531 4.168-2.293a1464.5 1464.5 0 0 0 5.02-2.894l2.735-1.575c1.967-1.133 3.934-2.268 5.9-3.404 2.768-1.598 5.538-3.192 8.31-4.783 2.894-1.661 5.787-3.325 8.68-4.989l3.303-1.897c4.362-2.514 8.712-5.026 12.958-7.731 3.874-2.452 7.876-4.63 11.91-6.805 5.55-2.998 11.062-6.07 16.579-9.129l3.498-1.934 3.443-1.91 3.057-1.693c2.909-1.66 5.784-3.36 8.654-5.086l2.718-1.634L311 22c-26.52-.318-53.042-.63-79.563-.938l-2.994-.034c-57.314-.665-114.627-1.252-171.943-1.653l-2.218-.016C36.188 19.233 18.094 19.113 0 19V0Z" style="fill:#d01229" transform="translate(81 145)"/><path d="M0 0c45.448-.167 90.893.096 136.34.438l2.208.016c18.828.142 37.655.288 56.483.437 10.931.086 21.863.17 32.794.255l2.36.018 11.732.09c32.028.245 64.055.494 96.083.746v27l-9.5 5.125c-15.702 8.53-31.29 17.37-46.328 27.031-2.885 1.677-5.789 3.157-8.781 4.63C267.092 68.9 261.045 72.36 255 75.936l-6 3.528-2.993 1.765c-4.033 2.374-8.076 4.73-12.12 7.085-2.718 1.586-5.432 3.18-8.145 4.775-1.622.95-3.245 1.898-4.867 2.847l-2.531 1.495-2.414 1.408-2.15 1.261C212 101 212 101 210 101v20c-8 4-8 4-10.875 5.125-2.29.784-2.29.784-4.125 2.875a291.32 291.32 0 0 1-5.059 2.14c-1.985.88-3.819 1.888-5.691 2.985C181 136 181 136 178 137v-32l-6-2a90.821 90.821 0 0 1-5.125-3.188c-3.762-2.458-7.542-4.82-11.438-7.062-6.886-3.976-13.656-8.138-20.433-12.297l-2.108-1.288a536.378 536.378 0 0 1-4.767-2.97c-2.622-1.472-4.167-1.663-7.129-1.195l-1.223 1.309c-2.512 2.39-5.49 3.656-8.59 5.129-6.979 3.398-13.817 7.019-20.624 10.75l-2.76 1.511c-5.211 2.861-5.211 2.861-10.393 5.776l-2.445 1.388-2.172 1.248C71 103 71 103 69 103v62l5 2c1.417.747 2.818 1.524 4.203 2.328l2.435 1.405 2.612 1.517a11828.363 11828.363 0 0 1 15.08 8.667c3.364 1.933 6.735 3.853 10.108 5.77l3.21 1.855 3.036 1.72 2.673 1.53c2.98 1.362 5.372 1.984 8.643 2.208l5-2v37l-11 6a1588.83 1588.83 0 0 0-8.063 4.5l-2.072 1.165c-4.501 2.54-8.943 5.163-13.358 7.849-2.495 1.479-5.019 2.876-7.57 4.256-16.421 8.92-32.65 18.17-48.769 27.625a1780.3 1780.3 0 0 1-13.242 7.68l-1.79 1.028c-2.86 1.644-5.721 3.285-8.585 4.924-6.166 3.521-6.166 3.521-12.106 7.403C2 303 2 303-1 303v-21l7.125-4c2.96-1.665 5.917-3.332 8.875-5l1.922-1.083c6.329-3.568 12.594-7.207 18.765-11.042 4.817-2.993 9.702-5.77 14.7-8.445 2.582-1.413 5.098-2.901 7.613-4.43a220.559 220.559 0 0 1 9.813-5.625c8.362-4.511 16.576-9.29 24.818-14.017 3.121-1.79 6.245-3.574 9.369-5.358-1.338-4.014-3.148-4.624-6.75-6.75l-3.172-1.922c-3.535-1.525-4.52-1.65-8.078-.328-2.675 1.278-5.24 2.715-7.813 4.188l-2.363 1.333c-8.528 4.833-16.983 9.794-25.441 14.749-8.815 5.16-17.666 10.258-26.52 15.351a1309.44 1309.44 0 0 0-10.508 6.102l-1.991 1.162c-1.643.96-3.283 1.926-4.923 2.892C2 261 2 261-1 261c-1.273-6.601-2.268-13.534 0-20 4.473-5.2 11.17-7.865 17.28-10.697 4.092-1.96 7.914-4.316 11.782-6.678a460.874 460.874 0 0 1 15.829-8.918c4.44-2.437 8.84-4.94 13.234-7.457l2.591-1.469 2.417-1.39 2.184-1.25c1.84-1.047 1.84-1.047 2.683-3.141l-2-.688c-3.317-1.45-6.081-3.31-9.035-5.386-2.532-1.193-3.338-.792-5.965.074a94.892 94.892 0 0 0-4.684 2.52l-2.781 1.582-2.972 1.71-3.069 1.75A4161.069 4161.069 0 0 0 27 207c-2.942 1.687-5.884 3.373-8.826 5.057a2582.438 2582.438 0 0 0-5.346 3.071C8.608 217.552 4.383 219.883 0 222c-1.265-6.924-2.298-14.212 0-21 5.03-5.98 13.096-8.784 20-12l16-9 1-96 10-5a314.534 314.534 0 0 0 6.188-3.5 4087.749 4087.749 0 0 1 5.61-3.237c4.368-2.506 8.755-4.976 13.14-7.45l2.942-1.662 6.03-3.406 15.59-8.807 2.875-1.624 2.719-1.537 2.553-1.442c2.12-1.203 4.231-2.42 6.341-3.64C114 41 114 41 116.688 39.937c2.39-.844 2.39-.844 4.374-2.562C123 36 123 36 127 36v2l2.221.843c2.564 1.068 4.848 2.258 7.236 3.669l2.585 1.524 2.77 1.651 2.913 1.728c8.286 4.94 16.462 10.047 24.626 15.185a654.678 654.678 0 0 0 20.123 12.168l1.87 1.084 1.808 1.032a67.766 67.766 0 0 1 3.914 2.568c3.835 2.871 3.835 2.871 8.36 3.185L208 81c1.388-.767 2.777-1.531 4.168-2.293a1464.5 1464.5 0 0 0 5.02-2.894l2.735-1.575c1.967-1.133 3.934-2.268 5.9-3.404 2.768-1.598 5.538-3.192 8.31-4.783 2.894-1.661 5.787-3.325 8.68-4.989l3.303-1.897c4.362-2.514 8.712-5.026 12.958-7.731 3.874-2.452 7.876-4.63 11.91-6.805 5.55-2.998 11.062-6.07 16.579-9.129l3.498-1.934 3.443-1.91 3.057-1.693c2.909-1.66 5.784-3.36 8.654-5.086l2.718-1.634L311 22c-26.52-.318-53.042-.63-79.563-.938l-2.994-.034c-57.314-.665-114.627-1.252-171.943-1.653l-2.218-.016C36.188 19.233 18.094 19.113 0 19V0Z" style="fill:#053f88" transform="translate(81 145)"/><path d="m0 0 1.996 1.402L4.73 2.988l3.016 1.79c4.673 2.742 9.368 5.277 14.25 7.624v2l2.375.563c4.072 1.615 7.056 3.722 10.507 6.39 3.088 2.204 3.088 2.204 6.874 3.383 4.581 1.709 8.337 3.62 11.244 7.664 2.808 8.606 2.176 17.986 1.963 26.922-.025 2.017.01 4.022.068 6.038.574 21.218.574 21.218-3.46 27.137-3.605 3.423-7.78 5.282-12.383 7.03-3.467 1.384-6.595 3.298-9.813 5.174-1.23.679-2.463 1.353-3.7 2.022l-1.833.993-1.842.997c-1.875 1.018-3.75 2.038-5.622 3.06-1.76.96-3.522 1.914-5.284 2.868-2.64 1.5-5.061 3.109-7.531 4.865-2.776 1.728-3.335 1.912-6.766 1.64-5.763-2.32-11.155-5.62-16.547-8.683l-3.605-2.026c-26.192-14.735-26.192-14.735-32.645-19.037-.36-2.594-.36-2.594-.34-5.918v-3.761l.047-4.078a1843.667 1843.667 0 0 1 .087-15.12c.03-3.728.044-7.454.06-11.181.032-7.314.083-14.628.146-21.942l3.308-1.738c8.529-4.491 17.005-9.05 25.38-13.824l2.94-1.66c4.303-2.435 8.587-4.887 12.81-7.457l1.954-1.174A487.809 487.809 0 0 0-4.648.5C-2.004-.598-2.004-.598 0 0Z" style="fill:#fefcfd" transform="translate(300.004 297.598)"/><path d="M0 0c5.769 1.022 10.538 4.639 15.395 7.73l5.925 3.7 2.925 1.84c4.243 2.651 8.539 5.212 12.837 7.773l4.188 2.52 1.925 1.158c1.29.775 2.579 1.551 3.867 2.328 3.46 2.088 3.46 2.088 7.02 3.994v33a7233.763 7233.763 0 0 1-22.523 12.644l-3.397 1.898-6.736 3.76-3.145 1.757-2.817 1.572c-1.835 1.055-3.621 2.195-5.382 3.369h-3l.08 2.614c.085 3.204.147 6.407.195 9.611.025 1.387.059 2.773.102 4.159.06 1.992.087 3.986.111 5.98l.08 3.633c-.568 3.003-.568 3.003-2.926 4.919-3.506 1.439-5.007 1.183-8.642.084-3.054-1.4-5.957-3.024-8.875-4.688l-2.592-1.45c-10.023-5.641-19.943-11.462-29.853-17.297-3.214-1.877-6.448-3.718-9.68-5.565v-62l17-9c3.991-2.233 7.972-4.474 11.938-6.75 6.27-3.6 12.542-7.064 19.068-10.18C-1.14.016-1.14.016 0 0Z" style="fill:#fbfcfd" transform="translate(204.918 218.957)"/><path d="M0 0c4.062 2.36 6.692 4.68 8.688 9.047l1-8h25v68h-25v-10l-1.626 2.687c-4.604 6.638-4.604 6.638-8.374 8.313-5.679.978-11.255 1.322-16.547-1.227-5.266-4.176-7.617-9.436-9.453-15.773l-1.079-3.649c-3.267-13.412-2.119-29.28 4.211-41.546C-18.03-.297-9.115-3.757 0 0Z" style="fill:#053e87" transform="translate(336.313 46.953)"/><path d="M0 0c7.95 5.423 11.623 11.822 14.605 20.828 2.102 11.568.8 23.518-5.078 33.73C4.837 61.314-1.867 65.533-10 67c-9.76.71-18.881 1.287-27-5-6.985-6.227-10.808-13.76-12-23-.668-12.288-.26-24.125 8-34C-30.066-5.42-13.275-8.038 0 0Z" style="fill:#043e87" transform="translate(180 49)"/><path d="m0 0 3.941.02c3.497.168 3.497.168 7.497 1.167v23h-8l-1 12h9v21h-9v48h-26v-49h-7v-20h8l-.07-3.472c-.02-1.53-.038-3.06-.055-4.59l-.051-2.28c-.062-7.18 1.445-13.44 5.175-19.657C-12.096 1.008-7.434-.082 0 0Z" style="fill:#063f88" transform="translate(233.563 10.813)"/><path d="M0 0c1.36.965 2.69 1.969 4 3l2.938.875C10.596 5.219 12.425 7.123 15 10c-3.795 3.416-7.81 5.465-12.355 7.668-2.464 1.24-4.795 2.579-7.145 4.02-4.474 2.735-9.031 5.285-13.625 7.812-8.173 4.507-16.237 9.185-24.288 13.906-8.388 4.913-16.829 9.731-25.283 14.53-6.559 3.725-13.08 7.501-19.53 11.412l-1.758 1.064c-2.77 1.68-5.532 3.368-8.287 5.068l-2.952 1.801-2.586 1.596C-105 80-105 80-108 80V59l7.125-4c2.96-1.665 5.917-3.332 8.875-5l1.922-1.083c6.329-3.568 12.594-7.207 18.766-11.042 4.816-2.993 9.7-5.77 14.699-8.445 2.582-1.413 5.098-2.901 7.613-4.43a220.559 220.559 0 0 1 9.813-5.625c7.51-4.051 14.893-8.328 22.296-12.57l2.532-1.448c1.492-.858 2.98-1.724 4.462-2.598C-3.934-.744-3.934-.744 0 0Z" style="fill:#ce142b" transform="translate(188 368)"/><path d="M0 0c1.41 6.956 2.406 14.176 0 21-4.742 5.588-12.13 8.342-18.638 11.375-5.238 2.532-10.219 5.482-15.238 8.419-2.949 1.717-5.918 3.4-8.886 5.085l-3.61 2.055-1.813 1.032c-4.232 2.411-8.46 4.83-12.69 7.248-2.353 1.346-4.709 2.69-7.065 4.031a1310.855 1310.855 0 0 0-16.31 9.427l-2.924 1.71a601.145 601.145 0 0 0-5.345 3.166l-2.383 1.39-2.047 1.214c-2.516 1.04-4.351 1.098-7.051.848-2.535-1.496-2.535-1.496-5.063-3.438-2.973-2.268-5.209-3.95-8.937-4.562v-3a96.925 96.925 0 0 1 7.625-4.688l2.102-1.2c1.523-.87 3.05-1.734 4.578-2.594 3.145-1.772 6.28-3.562 9.414-5.354l1.804-1.031c4.136-2.365 8.271-4.732 12.407-7.098C-58.877 32.911-58.877 32.911-51 28.5a3349.893 3349.893 0 0 0 20.327-11.503l3.643-2.072c7.606-4.319 15.09-8.773 22.477-13.454C-2 0-2 0 0 0Z" style="fill:#083f87" transform="translate(419 192)"/><path d="M0 0v28l-3-1c-3.061-.395-5.947-.497-9 0-4.187 3.768-4.892 7.126-5.205 12.575a686.628 686.628 0 0 0-.111 4.253l-.063 2.27c-.066 2.384-.125 4.768-.183 7.152l-.131 4.86C-17.801 62.072-17.9 66.035-18 70h-25V1h25v11l1.625-2.688C-12.205 3.05-7.681 0 0 0Z" style="fill:#023c86" transform="translate(299 46)"/><path d="m0 0 6.688.125v23l-9 2c-2.461 4.134-2.746 9.264-2 14 1.391 3.463 1.391 3.463 4 6l7 2v24c-17.313.787-17.313.787-25-5-7.948-7.334-12.5-15.864-13.258-26.68C-32 28.307-30.254 18.77-23.086 9.91-16.488 3.268-9.339-.175 0 0Z" style="fill:#063f87" transform="translate(413.313 46.875)"/><path d="M0 0v23l-7 2c-2.554 1.958-2.956 2.867-4 6-.397 5.26.267 8.48 3 13 2.252 2.64 2.252 2.64 8 3v24c-11.2.354-19.687.161-28.145-7.773-8.19-9.828-10.899-21.744-10.084-34.229C-37.105 19.208-31.226 11.334-24 5-16.367-.712-9.302-.456 0 0Z" style="fill:#053e87" transform="translate(121 45)"/><path d="M0 0h25v68H0V58l-6 2v2h-2l-2-5h2v-3h2l1-5h2C-.739 38.925.63 28.865-3 19v-1l-5-1v-3l3-1c1.23-3.512 1.23-3.512 2-7l2 2 1-8Z" style="fill:#013c87" transform="translate(346 48)"/><path d="M0 0h100v19c-14.5.031-29 .052-43.5.063l-3.406.002c-45.554.03-91.104-.23-136.656-.565l-2.472-.018c-20.989-.154-41.977-.314-62.966-.482v-1H98V2L0 1V0Z" style="fill:#d15263" transform="translate(317 472)"/><path d="M0 0c4.249 4.552 4.21 9.31 4.25 15.25l.063 2.238C4.35 22.74 3.4 26.32 1 31c-1 1-1 1-3.875 1.313C-6 32-6 32-7.813 30.25c-2.57-4.872-2.402-9.738-2.437-15.125l-.063-2.395C-10.345 7.741-9.787 4.315-7 0c2.756-1.378 4.098-.92 7 0Z" style="fill:#f3f8fb" transform="translate(166 65)"/><path d="M0 0c2.438.063 2.438.063 5 1 4.22 5.566 3.475 11.321 3 18-.595 3.929-1.105 7.105-4 10-2.438.438-2.438.438-5 0-4.442-5.69-3.456-12.138-3-19 .582-3.946 1.094-7.094 4-10Z" style="fill:#eff4f8" transform="translate(338 67)"/><path d="m0 0 2 1-2 3 167 3v1a22154.969 22154.969 0 0 1-39.636.065c-32.062.026-64.117-.187-96.177-.565l-3.076-.036C15.74 7.317 3.37 7.163-9 7V5a431.773 431.773 0 0 1 4.375-2.563l2.46-1.44L0 0Z" style="fill:#f7bdc5" transform="translate(121 464)"/><path d="M0 0h25v68H0l1-4 1 2h21V1H1v9l-2-1 1-9Z" style="fill:#133f7b" transform="translate(346 48)"/><path d="M0 0v37c-7 4-7 4-9.188 3.438-1.23-.977-2.46-1.956-3.687-2.938-2.599-1.834-5.093-2.549-8.125-3.5-4.626-1.755-7.689-3.321-11-7l-2-1v-2c2.929.628 5.361 1.586 8 3v2l2.938 1.25C-18.69 32.123-14.345 34.06-10 36v2h4l1-3 2-1 1-30-7 1V3c6.75-3 6.75-3 9-3Z" style="fill:#34306f" transform="translate(212 337)"/><path d="M0 0h2v36h-25V8h1v26H0V0Z" style="fill:#17417c" transform="translate(279 80)"/><path d="m0 0 2 1c.116 7.51.205 15.02.26 22.531.025 3.488.06 6.975.117 10.462.065 4.01.09 8.017.111 12.027l.078 3.797.002 3.518.033 3.102C2 59 2 59-.535 60.854L-3 62l1-4h2V0Z" style="fill:#f9b9c0" transform="translate(351 329)"/><path d="M0 0h1v95l-4 1v-3h2L0 0Z" style="fill:#ba1429" transform="translate(383 313)"/><path d="M0 0v28l-2-1 1-26c-7.057 4.164-7.057 4.164-11.938 9.625l-1.714 2.29C-16.155 15.05-16.155 15.05-17 18h-2l-1-6h2c.938-1.44 1.874-2.883 2.793-4.336C-11.195 2.134-6.827 0 0 0Z" style="fill:#234c88" transform="translate(299 46)"/><path d="m0 0 1.625 1.438C4.38 3.478 4.38 3.478 10 4v24c-9.96.195-9.96.195-13 0l-2-2 12-1L8 6 2 5C.625 2.437.625 2.437 0 0Z" style="fill:#234882" transform="translate(111 88)"/><path d="m0 0 3.996-.008c3.567.133 3.567.133 7.566 1.133v23l-3-1 1-21-22 1C-8.812-.5-4.813-.028 0 0Z" style="fill:#154079" transform="translate(233.438 10.875)"/><path d="m0 0 5 2v29h3v-2l4 1-9 4V2L0 1V0Z" style="fill:#1d3f77" transform="translate(256 248)"/><path d="M0 0c.881 2.978 1.067 5.453.879 8.547l-.147 2.558-.17 2.645-.158 2.691C.275 18.628.14 20.814 0 23l4-2 1 2h3l-2 4c-2.313.313-2.313.313-5 0-4.454-5.657-3.47-12.162-3-19 .476-2.8 1.132-5.289 2-8Z" style="fill:#d4e3f1" transform="translate(336 69)"/><path d="M0 0h3l-.035 2.52c-.01 1.086-.018 2.173-.027 3.292l-.036 3.27c.11 3.26.415 5.18 2.66 7.605L7 18c-2.647 1.46-3.894 2-7 2V0Z" style="fill:#26508c" transform="translate(80 386)"/><path d="M0 0c2.929.628 5.361 1.586 8 3v2l2.938 1.25 1.91.824c1.525.656 3.054 1.304 4.586 1.946l2.441 1.043 2.305.972C24 12 24 12 25 14c2.017 1.134 2.017 1.134 4 2-1.625.813-1.625.813-4 1-1.505-1.21-3.005-2.43-4.434-3.73-2.3-1.865-4.74-2.463-7.566-3.27C8.374 8.245 5.311 6.679 2 3L0 2V0Z" style="fill:#4d336b" transform="translate(178 361)"/><path d="M0 0c0 3.313-.774 5.286-1.938 8.375-2.002 5.754-2.601 11.038-2.789 17.105L-5 28l-2 1c-.258-10.327-.105-17.854 5-27l2-2Z" style="fill:#13407f" transform="translate(218 15)"/><path d="m0 0-3 2c-3.5 3.182-5.83 5.744-6.195 10.578l.07 2.672.055 2.703L-9 20c-2.804-3.339-3.467-5.524-3.293-9.969C-11.843 6.917-10.689 4.627-9 2-5.565-.29-4.015-.178 0 0Z" style="fill:#dfedf9" transform="translate(420 70)"/><path d="M0 0c-2.612 2.958-5.666 4.719-9.063 6.688l-3.222 1.886C-15 10-15 10-17 10V8c3-2 3-2 6-2l.313-1.813C-8.797-1.827-5.66-1.175 0 0Z" style="fill:#c41e32" transform="translate(331 437)"/><path d="M0 0c.592.07 1.183.14 1.793.21l1 2-3.688.188c-3.378.432-4.38.863-7.25 3-2.249 3.068-2.8 5.056-3.062 8.813h-2c.225-4.359.465-7.859 3-11.5C-6.525-.357-4.623-.317 0 0Z" style="fill:#cbdff0" transform="translate(294.207 71.79)"/><path d="M0 0h8v20H0v-3l7 1V2H0V0Z" style="fill:#093875" transform="translate(236 47)"/><path d="M0 0c3.914 1.27 5.79 2.512 8 6-3.288 2.912-5.599 4.497-10 5V9h3l1-6H0V0Z" style="fill:#b8273e" transform="translate(195 372)"/><path d="m0 0-2.313 1.813C-6.301 4.717-6.301 4.717-8.433 8.9l-.079 2.11-.107 2.296-.069 2.38-.103 2.417C-8.873 20.069-8.938 22.034-9 24h-1c-.081-2.876-.14-5.749-.188-8.625l-.076-2.45C-10.325 7.857-9.854 4.383-7 0c2.667-1.333 4.167-.671 7 0Z" style="fill:#c6d9ee" transform="translate(166 65)"/><path d="M0 0c-1.05 2.536-1.706 3.808-4.04 5.331-2.156 1.504-2.156 1.504-2.506 3.937l-.063 2.619-.098 2.842-.043 2.959-.09 2.994A525.94 525.94 0 0 0-7 28h-1c-.174-3.916-.28-7.831-.375-11.75l-.152-3.367c-.145-8.02-.145-8.02 1.819-10.541C-4.534.843-2.661 0 0 0Z" style="fill:#e1f0f8" transform="translate(159 244)"/><path d="m0 0 1.977.945c5.532 2.598 5.532 2.598 11.46 2.305L16 2h3c-5.046 4.923-5.046 4.923-9.875 5.313L6 7V5H4V3L0 2V0Z" style="fill:#c63146" transform="translate(288 414)"/><path d="M0 0v2c-2.768 2.46-5.588 3.653-9 5l-2 2a78.732 78.732 0 0 1-5.125 1.625c-.91.26-1.82.52-2.758.79L-21 12c2.02-3.053 3.455-4.531 6.938-5.688l2.027-.699C-10.035 5.011-8.031 4.486-6 4V2c3.75-2 3.75-2 6-2Z" style="fill:#9e1e45" transform="translate(297 262)"/><path d="m0 0 1.707.703-3 1-1 3c-5.233 5-5.233 5-10 5 1.183-3.55 2.417-4.456 5.313-6.75l2.363-1.922C-2.293-.297-2.293-.297 0 0Z" style="fill:#285088" transform="translate(150.293 47.297)"/><path d="M0 0c-1.152 2.468-2.048 4.048-4 6-.37 2.227-.37 2.227-.414 4.79l-.117 2.85-.094 2.985-.117 3.008c-.095 2.455-.18 4.91-.258 7.367h-1a875.941 875.941 0 0 1-.25-11.813l-.102-3.392-.039-3.252-.063-3C-6 3-6 3-4.101 1.154-2 0-2 0 0 0Z" style="fill:#fdeeee" transform="translate(392 310)"/><path d="m0 0 3 1-17 10V8l1.875-.813C-9.7 6.045-9.7 6.045-8 3c2.314-.73 4.648-1.401 7-2l1-1Z" style="fill:#184179" transform="translate(130 376)"/><path d="M0 0c1.272.622 2.543 1.248 3.813 1.875L5.957 2.93C8 4 8 4 11 6c2.625.167 2.625.167 5 0l-1 2C4.891 7.808 4.891 7.808 1.312 4.562 0 2 0 2 0 0Z" style="fill:#c2192c" transform="translate(356 295)"/><path d="M0 0c6.164 1.666 11.483 4.878 17 8v1h-5V7l-1.863-.586-2.45-.789-2.425-.773C3 4 3 4 0 2V0Z" style="fill:#17417d" transform="translate(168 321)"/><path d="M0 0c0 2 0 2-2.5 4.563C-6.174 7.55-9.35 7.758-14 8c9.429-8 9.429-8 14-8Z" style="fill:#d2e3f1" transform="translate(307 238)"/><path d="m0 0 2 1C-4.546 7.89-4.546 7.89-9.313 8.25L-12 8c2.277-2.49 4.623-4.104 7.563-5.75L-2.06.89 0 0Z" style="fill:#315891" transform="translate(329 203)"/><path d="M0 0c-2.017 4.852-5.449 6.685-10 9-3 .813-3 .813-5 1V8c2.906-1.257 4.796-2 8-2l.25-1.875C-6 2-6 2-4.062.75-2 0-2 0 0 0Z" style="fill:#15417d" transform="translate(187 105)"/><path d="m0 0 7 2v22l-3-1 1-1c.156-1.413.25-2.834.316-4.254l.127-2.588.12-2.72.13-2.733C5.8 7.47 5.902 5.235 6 3H1L0 0Z" style="fill:#0b3675" transform="translate(412 93)"/><path d="M0 0v2h-3l-.125 1.875C-4 6-4 6-6.813 7.313-9.92 7.982-11.08 7.88-14 7c1.955-1.172 3.914-2.337 5.875-3.5l3.305-1.969C-2 0-2 0 0 0Z" style="fill:#ca384b" transform="translate(169 377)"/><path d="M0 0v2h-2l-1 3h-3v3l-3 1V7l-3-1a983.483 983.483 0 0 1 4.875-3l2.742-1.688C-2 0-2 0 0 0Z" style="fill:#c52036" transform="translate(172 415)"/><path d="M0 0c-1.16 3.48-2.093 4.781-5 7-3.75.25-3.75.25-7 0 2.798-3.291 7.597-7 12-7Z" style="fill:#254c86" transform="translate(298 222)"/><path d="M0 0c-1.417 4.25-1.417 4.25-4 6-2.718.258-5.258.135-8 0 3.572-3.948 6.6-6 12-6Z" style="fill:#27508c" transform="translate(310 216)"/><path d="m0 0 1 4 2 1H1v12l4 1-5 3V0Z" style="fill:#194381" transform="translate(81 346)"/><path d="M0 0c4.498 1.687 8.729 3.817 13 6l-1 2H7L6 5 3.5 4 1 3 0 0Z" style="fill:#16427e" transform="translate(190 333)"/><path d="M0 0h6C1.509 4.042-3.59 6.437-9 9V7h2V5l7-2V0Z" style="fill:#184181" transform="translate(386 188)"/><path d="M0 0h8v1l-3.313.75C-.04 3.353-.957 5.023-3.188 9.25L-4 11c-1.033-2.788-1.045-3.868-.063-6.75L-3 2h3V0Z" style="fill:#1a4381" transform="translate(285 71)"/><path d="m0 0 2 1c-3.745 4.2-6.734 6.277-12 8-2.215-.43-2.215-.43-4-1l2.3-1.242 3.012-1.633 2.989-1.617C-2.904 1.993-2.904 1.993 0 0Z" style="fill:#fbdfe1" transform="translate(94 440)"/><path d="M0 0c-1.454 3.833-3.308 5.283-7 7-2.813.188-2.813.188-5 0 8.448-7 8.448-7 12-7Z" style="fill:#c62d40" transform="translate(349 391)"/><path d="m0 0 2 1c-4.867 4.74-9.444 6.406-16 8 2.498-2.812 5.278-4.448 8.563-6.25l2.94-1.64L0 0Z" style="fill:#c6d8e9" transform="translate(361 206)"/><path d="M0 0c3.375 1.186 5.647 2.276 8 5L2 4v2l-4-1 2-5Z" style="fill:#104284" transform="translate(238 201)"/><path d="m0 0 2 1c-5.75 5-5.75 5-8 5v2l-4-1c2.797-3.29 6.195-5.063 10-7Z" style="fill:#fcddde" transform="translate(185 388)"/><path d="m0 0 4 2A417.051 417.051 0 0 1-.813 5.063L-3.52 6.784C-6 8-6 8-9 7l1.938-.313L-5 6l1-3c2.063-.688 2.063-.688 4-1V0Z" style="fill:#123d7d" transform="translate(126 337)"/><path d="M0 0v3c-1.408.87-2.826 1.72-4.25 2.563l-2.39 1.44C-9 8-9 8-13 7L0 0Z" style="fill:#234a84" transform="translate(105 332)"/><path d="m0 0-12 7-1-3a407.78 407.78 0 0 1 4.813-2.563l2.707-1.44C-3-1-3-1 0 0Z" style="fill:#19447b" transform="translate(358 248)"/><path d="m0 0 2 1v2l2 1 .875 3.438c.738 3.62.738 3.62 3.25 5 .619.185 1.238.37 1.875.562l-2 2a827.626 827.626 0 0 1-2.875-3.75L3.508 9.14C1.265 5.957 0 3.945 0 0Z" style="fill:#143b79" transform="translate(385 96)"/><path d="M0 0h2C.18 3.79-1.778 7.43-4 11l-3 1c1.497-4.49 3.834-8.478 7-12Z" style="fill:#2b5086" transform="translate(392 55)"/><path d="M0 0c4.972 1.764 9.434 4.394 14 7l-1 2h-2V7H8V5l-3.438-.813L1 3 0 0Z" style="fill:#bd273b" transform="translate(249 392)"/><path d="M0 0h1v20l-4 2 1-4h2V0Z" style="fill:#feedef" transform="translate(351 369)"/><path d="m0 0 5 1C-3.207 8-3.207 8-8 8V6h3V4h4l1-4Z" style="fill:#c2253a" transform="translate(379 273)"/><path d="M0 0c-3.068 2.976-4.462 3.965-8.813 4.25L-12 4c7.216-6.392 7.216-6.392 12-4Z" style="fill:#c9243c" transform="translate(215 393)"/><path d="M0 0v2c-1.408.87-2.826 1.72-4.25 2.563l-2.39 1.44C-9.309 7.13-10.346 7.018-13 6c1.789-1.005 3.581-2.004 5.375-3l3.023-1.688C-2 0-2 0 0 0Z" style="fill:#c2283f" transform="translate(399 285)"/><path d="M0 0c1.627.45 3.252.91 4.875 1.375l2.742.773C10 3 10 3 12 5l3 2C8.947 6.622 4.816 4.703 0 1V0Z" style="fill:#365a92" transform="translate(142 109)"/><path d="M0 0h1v5l3 1-4 7h-1a535.423 535.423 0 0 1-.063-4.25l-.035-2.39C-1.004 4.092-.632 2.17 0 0Z" style="fill:#a9c4e2" transform="translate(281 47)"/><path d="M0 0c2.375 1.313 2.375 1.313 3.188 3.438l.187 1.874c-3.775-1.09-6.47-1.908-9-5 3-1 3-1 5.625-.312Z" style="fill:#c82339" transform="translate(238.625 418.688)"/><path d="m0 0-1 4-6-1-1-3c2.862-1.43 4.934-.6 8 0Z" style="fill:#023981" transform="translate(368 226)"/><path d="m0 0 1.813.688c-3.614 4.687-3.614 4.687-5 6h-3c.406-2.36.898-3.86 2.312-5.813C-2.187-.313-2.187-.313 0 0Z" style="fill:#144082" transform="translate(291.188 48.313)"/><path d="m0 0-11 7-2-2h3V2A327.76 327.76 0 0 1-6.125.437l2.18-.878C-2-1-2-1 0 0Z" style="fill:#193e7e" transform="translate(410 218)"/><path d="M0 0c5.155.483 8.816 3.186 13 6l-3 1a113.158 113.158 0 0 1-5-3l-2.25-.5L1 3 0 0Z" style="fill:#193f81" transform="translate(225 194)"/><path d="m0 0 3 1c-4.625 5.875-4.625 5.875-8 7 1.186-3.375 2.276-5.647 5-8Z" style="fill:#18417f" transform="translate(342 107)"/><path d="M0 0c3.206.343 3.975.97 6.125 3.5L8 6l2 1v2C6.043 7.326 3.155 4.869 0 2V0Z" style="fill:#224880" transform="translate(91 104)"/><path d="m0 0-10 5c2-5 2-5 3.875-5.875C-4-1-4-1 0 0Z" style="fill:#c11e33" transform="translate(155 406)"/><path d="M0 0c-2.518 3.123-3.726 3.945-7.75 4.75L-11 5c6.258-6.423 6.258-6.423 11-5Z" style="fill:#902249" transform="translate(276 275)"/><path d="M0 0c-1 3-1 3-3.813 4.75C-7.14 6.055-7.796 6.029-11 5a804.91 804.91 0 0 1 4.375-2.5l2.46-1.406C-2 0-2 0 0 0Z" style="fill:#365a90" transform="translate(140 218)"/><path d="M0 0v3h-2l-1 2-13-1V3l2.555-.148 3.32-.227 3.305-.21C-3.641 1.946-3.003 0 0 0Z" style="fill:#b6c9e0" transform="translate(340 114)"/><path d="M0 0c-.125 1.875-.125 1.875-1 4-3.063 1.25-3.063 1.25-6 2 2.154-6 2.154-6 7-6Z" style="fill:#134489" transform="translate(142 56)"/><path d="m0 0 1 3 3-1c-.813 1.938-.813 1.938-2 4-3 1-3 1-5 0 1.875-4.875 1.875-4.875 3-6Z" style="fill:#1f4b90" transform="translate(315 53)"/><path d="m0 0 4 1-11 6V4c2.647-1.46 3.894-2 7-2V0Z" style="fill:#fddcde" transform="translate(135 393)"/><path d="M0 0c1.316.255 2.628.53 3.938.813l2.214.457L8 2l1 3-10-2 1-3Z" style="fill:#154188" transform="translate(164 354)"/><path d="M0 0c4.308 1.566 8.062 3.683 12 6l-1 2L0 2V0Z" style="fill:#1c437e" transform="translate(155 313)"/><path d="M0 0c6.523 1.477 6.523 1.477 8.938 4.125L10 6 7 7V5l-2.375-.25C2 4 2 4 .687 1.937L0 0Z" style="fill:#b3304d" transform="translate(312 268)"/><path d="M0 0h7l2 6C5.063 4.688 2.773 3.08 0 0Z" style="fill:#273575" transform="translate(308 264)"/><path d="m0 0 2 1c-5.292 4.923-5.292 4.923-8.875 5.313L-9 6c5.696-4.747 5.696-4.747 9-6Z" style="fill:#dbe9f4" transform="translate(385 232)"/><path d="m0 0 7 2v2l3-1 1 4C6.892 5.55 3.531 3.546 0 1V0Z" style="fill:#284e88" transform="translate(216 224)"/><path d="m0 0 4 1-11 6-1-2h2V3l6-1V0Z" style="fill:#284f88" transform="translate(364 202)"/><path d="M0 0c0 5.139-2.843 9.091-6 13 .74-5.026 2.369-9.369 6-13Z" style="fill:#3b5d8f" transform="translate(218 15)"/><path d="M0 0c2 1 2 1 3 3-1.455.53-2.914 1.049-4.375 1.563l-2.46.878C-6 6-6 6-8 5a350.591 350.591 0 0 1 3.875-2.563l2.18-1.44L0 0Z" style="fill:#355b8f" transform="translate(136 353)"/><path d="M0 0c-3.663 2.478-6.61 3.49-11 4C-7.65.314-4.965-1.773 0 0Z" style="fill:#c72741" transform="translate(349 276)"/><path d="M0 0h2a158.814 158.814 0 0 1 5 6L5 7l-6-4 1-3Z" style="fill:#f1d8df" transform="translate(320 269)"/><path d="m0 0 2 1c-4.75 4.875-4.75 4.875-7 6V5l-2-1C-1.727.777-1.727.777 0 0Z" style="fill:#cedeee" transform="translate(329 224)"/><path d="m0 0 3 1v2l3 1C3.625 5.563 3.625 5.563 1 7l-2-1 1-6Z" style="fill:#134286" transform="translate(110 65)"/><path d="m0 0 2.758.027 2.117.036v1h-8v2l-7 1C-6.74.523-4.895-.064 0 0Z" style="fill:#43679c" transform="translate(329.125 45.938)"/><path d="m0 0 2.375.125v3l-6 2-1-3c2-2 2-2 4.625-2.125Z" style="fill:#cc1c32" transform="translate(168.625 433.875)"/><path d="M0 0v2c-3.445 2.296-5.938 2.54-10 3 3.006-3.307 5.457-5 10-5Z" style="fill:#c93749" transform="translate(159 423)"/><path d="M0 0v2h-2l-1 3h-6c2.545-2.8 5.076-5 9-5Z" style="fill:#ca364b" transform="translate(323 406)"/><path d="M0 0c2.929.628 5.361 1.586 8 3v4C6 7 6 7 4 5.062L2 3 0 2V0Z" style="fill:#435b8e" transform="translate(178 361)"/><path d="M0 0v7l-1-4-7 1V2C-5.094.743-3.204 0 0 0Z" style="fill:#1f4480" transform="translate(211 338)"/><path d="M0 0h7C1.857 4.429 1.857 4.429-2 5V3h2V0Z" style="fill:#c6253b" transform="translate(363 282)"/><path d="m0 0 3 3-8 4 1-5 4 1V0Z" style="fill:#c41d35" transform="translate(391 266)"/><path d="M0 0h5C2.166 3.254.314 4.52-4 5l-1-2 1.938-.375L-1 2l1-2Z" style="fill:#184280" transform="translate(321 265)"/><path d="M0 0v2h-3l-.813 1.938C-5 6-5 6-8 7l-2-2c3-2 3-2 6-2V1c2-1 2-1 4-1Z" style="fill:#f9ced1" transform="translate(418 255)"/><path d="M0 0c1.296.594 2.587 1.2 3.875 1.813l2.18 1.019C8 4 8 4 10 7c-3.58 0-4.297-.804-7-3L0 2V0Z" style="fill:#103979" transform="translate(248 207)"/><path d="m0 0 2 1-5 5-4-2C-1.727.777-1.727.777 0 0Z" style="fill:#385e95" transform="translate(348 192)"/><path d="m0 0 12 6a339.656 339.656 0 0 1-4.313-.375c-.8-.07-1.6-.14-2.425-.21C3 5 3 5 0 3V0Z" style="fill:#d7e9f7" transform="translate(96 110)"/><path d="m0 0 2 2c-.033 2.729-.564 5.297-1 8C-.625 8.375-.625 8.375-2 6c.813-3.25.813-3.25 2-6Z" style="fill:#083778" transform="translate(155 65)"/><path d="M0 0v2l3-2 3 1-8 4-1-4c1-1 1-1 3-1Z" style="fill:#c01c2f" transform="translate(114 425)"/><path d="m0 0 2 1C-.363 3.526-1.665 4.888-5 6l-2-2C-1.727.777-1.727.777 0 0Z" style="fill:#fbd7db" transform="translate(202 418)"/><path d="m0 0-4 1v2c-3 2-3 2-6 2C-9 2-9 2-7.25.812-4.7-.108-2.69-.148 0 0Z" style="fill:#c12c3e" transform="translate(188 368)"/><path d="M0 0h5C2.632 2.617.104 4.329-3 6h-2c1-3 1-3 3.063-4.188L0 1V0Z" style="fill:#bd2338" transform="translate(257 317)"/><path d="M0 0v2c-3.071 2.953-5.833 3.527-10 4l1-2h3V2c3.75-2 3.75-2 6-2Z" style="fill:#bd2d46" transform="translate(297 262)"/><path d="M0 0c-1 3-1 3-4 5-2.688.125-2.688.125-5 0 6.129-5 6.129-5 9-5Z" style="fill:#fddfdf" transform="translate(405 263)"/><path d="m0 0 1 2h-2l-1 3c-2.375 1.25-2.375 1.25-5 2l-3-1L0 0Z" style="fill:#b82234" transform="translate(401 243)"/><path d="m0 0 2 1-4 5-5-1c2.297-1.743 4.599-3.4 7-5Z" style="fill:#d8e6f3" transform="translate(414 215)"/><path d="M0 0h4v2h5v1H-2l2-3Z" style="fill:#dbeafa" transform="translate(411 44)"/><path d="m0 0 2 1C-1.08 4.672-3.248 5.568-8 6c2.366-2.615 4.86-4.39 8-6Z" style="fill:#f9cccf" transform="translate(366 417)"/><path d="M0 0h4v2l5 1 1 3C6.005 4.63 3.2 2.743 0 0Z" style="fill:#f9cbd0" transform="translate(286 412)"/><path d="m0 0 4 1C2.712 1.839 1.42 2.67.125 3.5l-2.18 1.406C-4 6-4 6-6 6l1-3 5-1V0Z" style="fill:#fee3e3" transform="translate(114 405)"/><path d="M0 0h5v2h4v3C5.54 3.75 2.853 2.325 0 0Z" style="fill:#f9d3d5" transform="translate(268 402)"/><path d="M0 0h7C4.647 2.724 2.375 3.814-1 5l1-5Z" style="fill:#17427d" transform="translate(106 348)"/><path d="m0 0 1 3c-4.75 3-4.75 3-7 3V4h3l-1-3 4-1Z" style="fill:#164382" transform="translate(366 240)"/><path d="m0 0 1 3h-9C-7 1-7 1-5.125.375-3 0-3 0 0 0Z" style="fill:#d8ecf8" transform="translate(120 42)"/><path d="M0 0h4v2l5 1v2C5.225 3.91 2.53 3.092 0 0Z" style="fill:#c12f3e" transform="translate(219 411)"/><path d="m0 0-1 4c-3 0-3 0-6-1 4.75-3 4.75-3 7-3Z" style="fill:#cb2c3f" transform="translate(337 398)"/><path d="m0 0 2 1v4h-4l2-5Z" style="fill:#d32336" transform="translate(170 375)"/><path d="m0 0 2 1-1 3h-5l-1 2-2-2C-1.727.777-1.727.777 0 0Z" style="fill:#2d578e" transform="translate(145 348)"/><path d="m0 0 2 1C-1.08 4.672-3.248 5.568-8 6c2.615-2.12 5.196-4.13 8-6Z" style="fill:#faced2" transform="translate(371 281)"/><path d="m0 0 2 1-6 5-3-2C-1.727.777-1.727.777 0 0Z" style="fill:#c9dcef" transform="translate(334 261)"/><path d="m0 0-1 4c-2.375.625-2.375.625-5 1l-2-2c5.75-3 5.75-3 8-3Z" style="fill:#c22239" transform="translate(410 239)"/><path d="m0 0 2 1-5 5V4l-2-1c2.375-1.563 2.375-1.563 5-3Z" style="fill:#2b5592" transform="translate(195 186)"/><path d="m0 0 2 1C.812 3 .812 3-1 5c-2.688.25-2.688.25-5 0 1.933-2.025 3.632-3.421 6-5Z" style="fill:#fbcdd3" transform="translate(121 464)"/><path d="m0 0 2 1C.687 2.5.687 2.5-1 4h-3l-1 3-3-2a350.591 350.591 0 0 1 3.875-2.563l2.18-1.44L0 0Z" style="fill:#ca3a50" transform="translate(149 387)"/><path d="m0 0 5 1C2.64 3.097 1.454 3.97-1.75 4.188L-4 4l3-1 1-3Z" style="fill:#1c3f7a" transform="translate(207 372)"/><path d="m0 0 6 2-2 3-4-1V0Z" style="fill:#03387c" transform="translate(82 346)"/><path d="M0 0c-6.75 4-6.75 4-9 4 1-3 1-3 2.813-4.25C-3.662-1.116-2.478-.885 0 0Z" style="fill:#dae9f7" transform="translate(112 329)"/><path d="m0 0 2 1-1 2h-2v2h-5c3.75-3.875 3.75-3.875 6-5Z" style="fill:#a02642" transform="translate(262 280)"/><path d="m0 0 3 2-8 4V3h4l1-3Z" style="fill:#e9dae5" transform="translate(301 256)"/><path d="m0 0 2 1C.026 3.523-.967 3.993-4.188 4.688L-7 5c4.75-3.875 4.75-3.875 7-5Z" style="fill:#cee1f1" transform="translate(355 249)"/><path d="M0 0c3.46 1.25 6.147 2.675 9 5-3.735-.498-5.812-.875-9-3V0Z" style="fill:#1b417d" transform="translate(277 225)"/><path d="M0 0v3l-7 1c3.826-4 3.826-4 7-4Z" style="fill:#41639a" transform="translate(172 200)"/><path d="M0 0c-1.37 3.161-1.99 3.993-5 6l-1-4c3.75-2 3.75-2 6-2Z" style="fill:#234c85" transform="translate(187 105)"/><path d="M0 0c1.125 1.75 1.125 1.75 2 4-.875 2.25-.875 2.25-2 4-2-2-2-2-2-5h2V0Z" style="fill:#17458d" transform="translate(156 89)"/><path d="M0 0h1c1.292 4.12 2.263 7.668 2 12C1.096 10.096.065 8.666-.2 5.953-.188 3.968-.1 1.983 0 0Z" style="fill:#b6cce5" transform="translate(408 78)"/></svg>