<svg id="svg" version="1.1" xmlns="http://www.w3.org/2000/svg" style="display: block;" viewBox="0 0 499 499"><path d="M0 0 C164.67 0 329.34 0 499 0 C499 164.67 499 329.34 499 499 C334.33 499 169.66 499 0 499 C0 334.33 0 169.66 0 0 Z " transform="translate(0,0)" style="fill: #FDFDFD;"/><path d="M0 0 C45.44826212 -0.16661741 90.89305008 0.09579619 136.33984375 0.4375 C137.4328768 0.44570975 137.4328768 0.44570975 138.54799134 0.45408535 C157.37566412 0.59561766 176.20329564 0.74230368 195.0309149 0.89076424 C205.9624137 0.97691373 216.8939227 1.06166832 227.82543945 1.14550781 C228.6043139 1.1514818 229.38318836 1.15745579 230.18566506 1.16361082 C234.0961969 1.19359766 238.00672891 1.22356202 241.917261 1.25351524 C273.94486815 1.49886346 305.9724427 1.74822606 338 2 C338 10.91 338 19.82 338 29 C334.865 30.69125 331.73 32.3825 328.5 34.125 C312.79779688 42.65520905 297.2107824 51.4948913 282.171875 61.15625 C279.28719573 62.83305864 276.38338968 64.31332469 273.390625 65.78515625 C267.09249733 68.90124559 261.04515045 72.35999886 255 75.9375 C253 77.11328125 251 78.2890625 249 79.46484375 C248.01241699 80.0472583 247.02483398 80.62967285 246.00732422 81.22973633 C241.97448825 83.60366826 237.93122827 85.95953425 233.88769531 88.31518555 C231.16925939 89.90124627 228.45519411 91.49451944 225.7421875 93.08984375 C224.11987572 94.03920614 222.49748124 94.98842724 220.875 95.9375 C220.0396875 96.43056641 219.204375 96.92363281 218.34375 97.43164062 C217.54710937 97.89634766 216.75046875 98.36105469 215.9296875 98.83984375 C215.22054199 99.25613037 214.51139648 99.67241699 213.78076172 100.10131836 C212 101 212 101 210 101 C210 106.94 210 112.88 210 119 C218.49481304 114.5464087 226.85142554 109.97094842 235.09301758 105.06713867 C241.21953069 101.43211538 247.4143919 97.92653742 253.625 94.4375 C261.3147149 90.11502833 268.93379248 85.71012486 276.453125 81.09765625 C280.22792624 78.82453188 284.10179331 76.73933294 287.97509766 74.63989258 C293.35254824 71.72461125 298.70932518 68.77207547 304.0625 65.8125 C304.64595184 65.49006317 305.22940369 65.16762634 305.83053589 64.8354187 C314.28670629 60.15444548 322.62576721 55.31929308 330.79516602 50.1496582 C335.80496818 47 335.80496818 47 338 47 C339.41080891 53.95637315 340.40588241 61.1760891 338 68 C333.25761752 73.58836495 325.87074006 76.34224319 319.36230469 79.375 C314.12428922 81.90652999 309.142986 84.85733477 304.12417603 87.79391479 C301.1749703 89.51130474 298.20595537 91.19370129 295.23828125 92.87890625 C294.03457819 93.56380709 292.83096514 94.24886614 291.62744141 94.93408203 C291.02949768 95.27449524 290.43155396 95.61490845 289.81549072 95.96563721 C284.98611324 98.71714032 280.16164505 101.47725193 275.33636475 104.2359314 C272.43932856 105.89208554 269.54190925 107.54756891 266.64453125 109.203125 C265.53803223 109.83541016 264.4315332 110.46769531 263.29150391 111.11914062 C255.19433594 115.74609375 247.09716797 120.37304688 239 125 C239 125.66 239 126.32 239 127 C241.0357241 128.51114512 243.03770923 129.85866493 245.1875 131.1875 C245.76564453 131.56841797 246.34378906 131.94933594 246.93945312 132.34179688 C250.4235627 134.51694165 250.4235627 134.51694165 254.41601562 134.75195312 C257.11380862 133.96688109 259.24091046 132.94810057 261.67578125 131.55078125 C262.57458008 131.039104 263.47337891 130.52742676 264.39941406 130.00024414 C265.36073242 129.44328857 266.32205078 128.88633301 267.3125 128.3125 C268.81828613 127.45096313 268.81828613 127.45096313 270.35449219 126.57202148 C278.82129537 121.71575197 287.25315628 116.79726432 295.6652832 111.84692383 C301.18685315 108.60437028 306.75708312 105.48240167 312.38867188 102.43530273 C317.01627131 99.89176711 321.53154963 97.1611099 326.0546875 94.4375 C326.7559375 94.01984375 327.4571875 93.6021875 328.1796875 93.171875 C328.79569824 92.8015918 329.41170898 92.43130859 330.04638672 92.04980469 C332.27588584 90.85174842 334.6500174 89.93999304 337 89 C337 95.93 337 102.86 337 110 C335.68 110.33 334.36 110.66 333 111 C333 111.66 333 112.32 333 113 C332.32195312 113.36351562 331.64390625 113.72703125 330.9453125 114.1015625 C325.42866504 117.08146902 320.01156883 120.16967822 314.65405273 123.42578125 C312.16610594 124.9014763 309.65294528 126.29430263 307.10546875 127.6640625 C300.11269718 131.46037327 293.21471336 135.41741084 286.3125 139.375 C285.01373024 140.11859153 283.71490245 140.86208172 282.41601562 141.60546875 C279.2766761 143.40248181 276.1381164 145.20085164 273 147 C275.95995173 149.38034663 278.88797127 151.72349601 282.0625 153.8125 C282.71347656 154.25207031 283.36445313 154.69164062 284.03515625 155.14453125 C286.56352825 156.24535325 287.40480047 155.8611977 290 155 C291.6607142 154.13658214 293.29266702 153.21691656 294.90234375 152.26171875 C295.86575684 151.69404785 296.82916992 151.12637695 297.82177734 150.54150391 C298.84996582 149.92968262 299.8781543 149.31786133 300.9375 148.6875 C303.09465262 147.41729011 305.25221323 146.14777288 307.41015625 144.87890625 C308.50344238 144.23453613 309.59672852 143.59016602 310.72314453 142.92626953 C315.75869801 139.96616545 320.81178748 137.03749096 325.875 134.125 C326.76566162 133.60768311 327.65632324 133.09036621 328.57397461 132.55737305 C329.39260986 132.08726807 330.21124512 131.61716309 331.0546875 131.1328125 C332.12952393 130.51237061 332.12952393 130.51237061 333.22607422 129.87939453 C335 129 335 129 337 129 C337 135.93 337 142.86 337 150 C335.26492188 150.96421875 333.52984375 151.9284375 331.7421875 152.921875 C330.04417097 153.86831044 328.34616463 154.81476428 326.6484375 155.76171875 C324.90460841 156.73350016 323.15934715 157.70271016 321.4140625 158.671875 C319.75117187 159.6 319.75117187 159.6 318.0546875 160.546875 C316.53077393 161.39523926 316.53077393 161.39523926 314.97607422 162.26074219 C312.85247335 163.50180311 310.77952129 164.83123704 308.74658203 166.21582031 C306 168 306 168 304 168 C304.0377504 169.15543304 304.07550079 170.31086609 304.11439514 171.50131226 C304.45975189 182.41653927 304.7141776 193.33065266 304.88080692 204.25011253 C304.96936441 209.86388988 305.08932239 215.4732428 305.2824707 221.08447266 C305.46789183 226.50545834 305.56895695 231.9222063 305.61291313 237.34611893 C305.64420917 239.40951944 305.70534126 241.47269973 305.79741096 243.53428268 C306.47098361 259.24891348 306.47098361 259.24891348 302.36383438 263.8216362 C298.31797053 267.01763666 293.88354549 269.13295745 289.1354723 271.08240986 C285.90068418 272.47236452 282.97321976 274.24802496 279.953125 276.0546875 C277.71937653 277.32922368 275.48499562 278.60265205 273.25 279.875 C272.03972518 280.56522603 270.8295215 281.25557682 269.61938477 281.94604492 C267.20833041 283.32153029 264.7969688 284.6964739 262.38525391 286.07080078 C258.42880129 288.32551653 254.47288584 290.58116512 250.51855469 292.83959961 C248.81846921 293.80976757 247.11732179 294.77807735 245.41503906 295.74438477 C241.12947215 298.1827391 236.87817216 300.66507401 232.66015625 303.21875 C231.3599353 303.99738403 231.3599353 303.99738403 230.03344727 304.79174805 C228.38981028 305.77837374 226.75306123 306.77660164 225.12475586 307.78833008 C224.39264893 308.22556396 223.66054199 308.66279785 222.90625 309.11328125 C222.27009766 309.50298096 221.63394531 309.89268066 220.97851562 310.29418945 C218.25979564 311.26405859 216.74496525 310.83885474 214 310 C212.22736745 309.15320864 210.48877535 308.23312955 208.78125 307.26171875 C207.77715088 306.69485352 206.77305176 306.12798828 205.73852539 305.54394531 C204.66981201 304.93131836 203.60109863 304.31869141 202.5 303.6875 C201.38939209 303.05811523 200.27878418 302.42873047 199.13452148 301.78027344 C195.75204623 299.86095357 192.37527446 297.93194997 189 296 C187.10549563 294.91792168 185.21096617 293.8358873 183.31640625 292.75390625 C180.70343633 291.2606094 178.09103255 289.76636096 175.48022461 288.26928711 C169.13085138 284.63158091 162.7653823 281.02202684 156.32788086 277.54199219 C152.82369109 275.63712233 149.46109412 273.67812428 146.19140625 271.390625 C140.22742493 267.11497933 140.22742493 267.11497933 133.20703125 266.421875 C130.60060051 267.67178537 128.26807273 269.10019633 125.89404297 270.74462891 C122.79312845 272.79991409 119.52951984 274.56147429 116.28417969 276.37670898 C108.76665304 280.5909801 101.33687345 284.96178036 93.90234375 289.3203125 C90.53684174 291.26804583 87.1444095 293.16584924 83.75 295.0625 C76.8101469 298.94581745 69.93044937 302.92854798 63.0625 306.9375 C61.52831421 307.83214966 61.52831421 307.83214966 59.96313477 308.74487305 C55.2239737 311.51331629 50.49425137 314.29525015 45.7890625 317.12109375 C45.00523193 317.58974854 44.22140137 318.05840332 43.41381836 318.54125977 C41.9684855 319.40712811 40.52637644 320.27840916 39.08813477 321.15600586 C34.33404042 324 34.33404042 324 31 324 C31 324.66 31 325.32 31 326 C32.33472965 325.99833454 32.33472965 325.99833454 33.69642353 325.99663544 C97.08772675 325.92175541 160.47575772 326.12339991 223.86619484 326.44538212 C236.14598081 326.50766196 248.42577939 326.56727292 260.70557916 326.62675762 C285.80373356 326.74839067 310.90187142 326.87315861 336 327 C336 333.27 336 339.54 336 346 C276.64350042 346.12809338 217.29236838 345.98641468 157.9375 345.5625 C157.16958759 345.55702683 156.40167519 345.55155367 155.61049271 345.54591465 C103.40543404 345.17312044 51.20195603 344.68745113 -1 344 C-2.91365869 324.76029201 -2.91365869 324.76029201 1.16650391 318.875 C4.28193014 316.63769508 7.30441945 315.04727523 10.8125 313.5 C11.91271484 312.93410156 13.01292969 312.36820312 14.14648438 311.78515625 C16.34635786 310.66120909 18.56417404 309.5716853 20.79858398 308.51806641 C30.08792977 304.11318941 38.92529055 298.77802175 47.8125 293.625 C48.96742179 292.95692675 50.12245205 292.28904097 51.27758789 291.62133789 C53.52215563 290.3238842 55.76654782 289.02612675 58.01074219 287.72802734 C73.04163289 279.03898419 73.04163289 279.03898419 80.5625 275 C84.40634647 272.92254541 88.11508132 270.70264958 91.8125 268.375 C98.8095994 264.00813556 106.03975445 260.10418627 113.30981445 256.21240234 C119.00273209 253.15984733 119.00273209 253.15984733 124.41015625 249.640625 C127 248 127 248 131 248 C131 241.73 131 235.46 131 229 C119.38235382 235.29289168 107.79722333 241.64741748 96.50683594 248.51367188 C94.01231798 249.99269654 91.48839782 251.39026118 88.9375 252.76953125 C72.51604434 261.68998024 56.28713542 270.94046677 40.16796875 280.39453125 C35.76535471 282.97468446 31.3503723 285.53204005 26.92578125 288.07421875 C26.3354158 288.41361984 25.74505035 288.75302094 25.13679504 289.10270691 C22.27633333 290.74674789 19.41458996 292.38846343 16.55102539 294.02709961 C10.38525906 297.54837077 10.38525906 297.54837077 4.4453125 301.4296875 C2 303 2 303 -1 303 C-1 296.07 -1 289.14 -1 282 C2.526875 280.02 2.526875 280.02 6.125 278 C9.08431088 276.3350657 12.04223685 274.66768202 15 273 C15.95156982 272.46415283 15.95156982 272.46415283 16.92236328 271.91748047 C23.25096028 268.34895507 29.51633669 264.71014512 35.6875 260.875 C40.50404849 257.88219317 45.38879876 255.10585305 50.38671875 252.4296875 C52.9686202 251.01716742 55.48534719 249.5285921 58 248 C61.23124012 246.04014985 64.48531713 244.16696306 67.8125 242.375 C76.17505052 237.86378193 84.38929221 233.08564901 92.63085938 228.35839844 C95.75195906 226.56884788 98.87575965 224.78406075 102 223 C100.6621001 218.98630031 98.85163712 218.37584435 95.25 216.25 C93.67992187 215.29867187 93.67992187 215.29867187 92.078125 214.328125 C88.54271417 212.80269393 87.55785048 212.67851268 84 214 C81.32528613 215.27820238 78.75937956 216.71479005 76.1875 218.1875 C75.40761719 218.62747314 74.62773437 219.06744629 73.82421875 219.52075195 C65.29591794 224.35373336 56.84108926 229.31542637 48.3828125 234.26953125 C39.56755947 239.42931246 30.71739608 244.52837188 21.86328125 249.62109375 C18.35211668 251.64073046 14.84773778 253.67053023 11.35546875 255.72265625 C10.36957764 256.29814209 10.36957764 256.29814209 9.36376953 256.88525391 C7.72056703 257.84516211 6.08079894 258.8109433 4.44140625 259.77734375 C2 261 2 261 -1 261 C-2.27325038 254.39868648 -3.26841729 247.46632214 -1 241 C3.47291938 235.79905125 10.16943272 233.13484552 16.28027344 230.30273438 C20.37230515 228.34267323 24.19372613 225.98696497 28.0625 223.625 C33.28181792 220.5415894 38.55380192 217.5826176 43.890625 214.70703125 C48.33007824 212.26979373 52.73050659 209.76723015 57.125 207.25 C57.98013184 206.76539307 58.83526367 206.28078613 59.71630859 205.78149414 C60.51375488 205.32250732 61.31120117 204.86352051 62.1328125 204.390625 C62.85355957 203.97844727 63.57430664 203.56626953 64.31689453 203.14160156 C66.15683904 202.09397629 66.15683904 202.09397629 67 200 C66.01 199.6596875 66.01 199.6596875 65 199.3125 C61.68342759 197.86149957 58.9187878 196.00231618 55.96484375 193.92578125 C53.43316855 192.73292435 52.62738204 193.13386258 50 194 C48.41449971 194.79301026 46.85497929 195.63892381 45.31640625 196.51953125 C44.39851318 197.0417627 43.48062012 197.56399414 42.53491211 198.10205078 C41.06356812 198.94872314 41.06356812 198.94872314 39.5625 199.8125 C38.55002197 200.38983887 37.53754395 200.96717773 36.49438477 201.56201172 C33.32669145 203.36966146 30.16292839 205.18402768 27 207 C24.05830944 208.68657557 21.1163123 210.37260877 18.17358398 212.05737305 C16.39065338 213.07889508 14.6088562 214.1023987 12.82836914 215.12817383 C8.60746612 217.55168089 4.38317916 219.88300261 0 222 C-1.26487347 215.07627722 -2.29848263 207.78794647 0 201 C5.0292729 195.02017724 13.0956627 192.21596764 20 189 C25.28 186.03 30.56 183.06 36 180 C36.33 148.32 36.66 116.64 37 84 C40.3 82.35 43.6 80.7 47 79 C49.07506402 77.85582927 51.13882464 76.69077564 53.1875 75.5 C54.39025595 74.8053502 55.59341158 74.11139217 56.796875 73.41796875 C57.45751953 73.03688965 58.11816406 72.65581055 58.79882812 72.26318359 C63.16564975 69.75720144 67.55306714 67.28749416 71.9375 64.8125 C72.90840576 64.26408447 73.87931152 63.71566895 74.87963867 63.15063477 C76.88957824 62.01533796 78.8995891 60.88016735 80.90966797 59.74511719 C86.10697696 56.81018555 91.30354132 53.87393683 96.5 50.9375 C97.44866943 50.40165283 98.39733887 49.86580566 99.37475586 49.3137207 C100.27202393 48.80671631 101.16929199 48.29971191 102.09375 47.77734375 C102.93639404 47.30143799 103.77903809 46.82553223 104.6472168 46.33520508 C106.76704736 45.13220068 108.87831107 43.91548659 110.98828125 42.6953125 C114 41 114 41 116.6875 39.9375 C119.07888938 39.09296191 119.07888938 39.09296191 121.0625 37.375 C123 36 123 36 127 36 C127 36.66 127 37.32 127 38 C127.73307373 38.2781958 128.46614746 38.5563916 129.22143555 38.84301758 C131.78525054 39.91057924 134.0691474 41.10136757 136.45703125 42.51171875 C137.73670776 43.26618286 137.73670776 43.26618286 139.04223633 44.03588867 C139.95642334 44.58092041 140.87061035 45.12595215 141.8125 45.6875 C143.25435669 46.54275269 143.25435669 46.54275269 144.7253418 47.4152832 C153.01057914 52.35539526 161.18742065 57.46172687 169.35083008 62.59985352 C175.99318363 66.77260711 182.68605278 70.83666174 189.47387695 74.76831055 C190.09093506 75.12578369 190.70799316 75.48325684 191.34375 75.8515625 C191.94058594 76.19219727 192.53742188 76.53283203 193.15234375 76.88378906 C194.48802334 77.69070332 195.78964366 78.55491499 197.06640625 79.45214844 C200.90114054 82.32320695 200.90114054 82.32320695 205.42578125 82.63671875 C206.70001953 81.82654297 206.70001953 81.82654297 208 81 C209.38766095 80.23266384 210.77721306 79.46874398 212.16796875 78.70703125 C213.84312208 77.74562273 215.5161636 76.78052875 217.1875 75.8125 C218.09008545 75.29292725 218.9926709 74.77335449 219.92260742 74.23803711 C221.89029738 73.10476104 223.85713925 71.9700115 225.82324219 70.83398438 C228.5911007 69.23606298 231.36138469 67.64245524 234.13316345 66.05134583 C237.02714803 64.38991373 239.91975537 62.72609006 242.8125 61.0625 C243.90264404 60.43641846 244.99278809 59.81033691 246.1159668 59.1652832 C250.47799065 56.65113382 254.82771814 54.13924283 259.07421875 51.43359375 C262.94817303 48.98218502 266.95005556 46.80476827 270.98388672 44.62890625 C276.53486246 41.63100191 282.04550481 38.55984607 287.5625 35.5 C288.71685547 34.86191406 289.87121094 34.22382813 291.06054688 33.56640625 C292.19685547 32.93605469 293.33316406 32.30570313 294.50390625 31.65625 C295.51267822 31.09744141 296.5214502 30.53863281 297.56079102 29.96289062 C300.46956032 28.3027426 303.3449795 26.60307438 306.21495056 24.87731934 C307.11204207 24.33815636 308.00913359 23.79899338 308.93340969 23.24349213 C309.61538449 22.83313972 310.29735929 22.42278732 311 22 C284.4792315 21.68194415 257.95839391 21.36991851 231.4375 21.0625 C230.44918812 21.05103723 229.46087624 21.03957445 228.44261551 21.02776432 C171.12913363 20.36338944 113.81596517 19.77570887 56.5 19.375 C55.76821329 19.36987475 55.03642657 19.3647495 54.2824645 19.35946894 C36.18835335 19.23287162 18.09420453 19.11251778 0 19 C0 12.73 0 6.46 0 0 Z " transform="translate(81,145)" style="fill: #D01229;"/><path d="M0 0 C45.44826212 -0.16661741 90.89305008 0.09579619 136.33984375 0.4375 C137.4328768 0.44570975 137.4328768 0.44570975 138.54799134 0.45408535 C157.37566412 0.59561766 176.20329564 0.74230368 195.0309149 0.89076424 C205.9624137 0.97691373 216.8939227 1.06166832 227.82543945 1.14550781 C228.6043139 1.1514818 229.38318836 1.15745579 230.18566506 1.16361082 C234.0961969 1.19359766 238.00672891 1.22356202 241.917261 1.25351524 C273.94486815 1.49886346 305.9724427 1.74822606 338 2 C338 10.91 338 19.82 338 29 C334.865 30.69125 331.73 32.3825 328.5 34.125 C312.79779688 42.65520905 297.2107824 51.4948913 282.171875 61.15625 C279.28719573 62.83305864 276.38338968 64.31332469 273.390625 65.78515625 C267.09249733 68.90124559 261.04515045 72.35999886 255 75.9375 C253 77.11328125 251 78.2890625 249 79.46484375 C248.01241699 80.0472583 247.02483398 80.62967285 246.00732422 81.22973633 C241.97448825 83.60366826 237.93122827 85.95953425 233.88769531 88.31518555 C231.16925939 89.90124627 228.45519411 91.49451944 225.7421875 93.08984375 C224.11987572 94.03920614 222.49748124 94.98842724 220.875 95.9375 C220.0396875 96.43056641 219.204375 96.92363281 218.34375 97.43164062 C217.54710937 97.89634766 216.75046875 98.36105469 215.9296875 98.83984375 C215.22054199 99.25613037 214.51139648 99.67241699 213.78076172 100.10131836 C212 101 212 101 210 101 C210 107.6 210 114.2 210 121 C202 125 202 125 199.125 126.125 C196.8349359 126.90865385 196.8349359 126.90865385 195 129 C193.31879435 129.72522596 191.63598697 130.44722663 189.94140625 131.140625 C187.95622381 132.01937779 186.12232012 133.02784426 184.25 134.125 C181 136 181 136 178 137 C178 126.44 178 115.88 178 105 C175.03 104.01 175.03 104.01 172 103 C170.25670905 101.99588561 168.54773112 100.93021178 166.875 99.8125 C163.11330075 97.35351002 159.33256265 94.991957 155.4375 92.75 C148.55111067 88.77360721 141.78113548 84.6120651 135.00390625 80.453125 C134.30845703 80.02789551 133.61300781 79.60266602 132.89648438 79.16455078 C131.30106594 78.18487185 129.71397873 77.19164378 128.12890625 76.1953125 C125.50669675 74.72302607 123.96174261 74.53235643 121 75 C120.39478516 75.64775391 120.39478516 75.64775391 119.77734375 76.30859375 C117.2646271 78.69981641 114.28764404 79.96534317 111.1875 81.4375 C104.20796372 84.83610986 97.37001015 88.4567981 90.5625 92.1875 C89.65201904 92.68628662 88.74153809 93.18507324 87.8034668 93.69897461 C82.59170045 96.56038145 82.59170045 96.56038145 77.40966797 99.47509766 C76.60287598 99.93319824 75.79608398 100.39129883 74.96484375 100.86328125 C74.24804443 101.27489502 73.53124512 101.68650879 72.79272461 102.1105957 C71 103 71 103 69 103 C69 123.46 69 143.92 69 165 C70.65 165.66 72.3 166.32 74 167 C75.41676545 167.74694986 76.81798832 168.52403869 78.203125 169.328125 C79.40859985 170.0236145 79.40859985 170.0236145 80.63842773 170.7331543 C81.50024658 171.23371338 82.36206543 171.73427246 83.25 172.25 C85.1207208 173.32486811 86.99183229 174.39905644 88.86328125 175.47265625 C92.01942577 177.28637291 95.175121 179.10085059 98.32958984 180.91748047 C101.69374146 182.84999599 105.06489519 184.76978319 108.4375 186.6875 C109.49678711 187.29948242 110.55607422 187.91146484 111.64746094 188.54199219 C113.15034668 189.39325684 113.15034668 189.39325684 114.68359375 190.26171875 C115.56587646 190.76662842 116.44815918 191.27153809 117.35717773 191.79174805 C120.33745852 193.15428011 122.72858649 193.77622427 126 194 C128.475 193.01 128.475 193.01 131 192 C131 204.21 131 216.42 131 229 C127.37 230.98 123.74 232.96 120 235 C117.30865668 236.49380758 114.6200233 237.99063173 111.9375 239.5 C111.25341064 239.88454346 110.56932129 240.26908691 109.86450195 240.6652832 C105.3637193 243.20504472 100.92246647 245.82830409 96.50683594 248.51367188 C94.01231798 249.99269654 91.48839782 251.39026118 88.9375 252.76953125 C72.51604434 261.68998024 56.28713542 270.94046677 40.16796875 280.39453125 C35.76535471 282.97468446 31.3503723 285.53204005 26.92578125 288.07421875 C26.3354158 288.41361984 25.74505035 288.75302094 25.13679504 289.10270691 C22.27633333 290.74674789 19.41458996 292.38846343 16.55102539 294.02709961 C10.38525906 297.54837077 10.38525906 297.54837077 4.4453125 301.4296875 C2 303 2 303 -1 303 C-1 296.07 -1 289.14 -1 282 C2.526875 280.02 2.526875 280.02 6.125 278 C9.08431088 276.3350657 12.04223685 274.66768202 15 273 C15.95156982 272.46415283 15.95156982 272.46415283 16.92236328 271.91748047 C23.25096028 268.34895507 29.51633669 264.71014512 35.6875 260.875 C40.50404849 257.88219317 45.38879876 255.10585305 50.38671875 252.4296875 C52.9686202 251.01716742 55.48534719 249.5285921 58 248 C61.23124012 246.04014985 64.48531713 244.16696306 67.8125 242.375 C76.17505052 237.86378193 84.38929221 233.08564901 92.63085938 228.35839844 C95.75195906 226.56884788 98.87575965 224.78406075 102 223 C100.6621001 218.98630031 98.85163712 218.37584435 95.25 216.25 C93.67992187 215.29867187 93.67992187 215.29867187 92.078125 214.328125 C88.54271417 212.80269393 87.55785048 212.67851268 84 214 C81.32528613 215.27820238 78.75937956 216.71479005 76.1875 218.1875 C75.40761719 218.62747314 74.62773437 219.06744629 73.82421875 219.52075195 C65.29591794 224.35373336 56.84108926 229.31542637 48.3828125 234.26953125 C39.56755947 239.42931246 30.71739608 244.52837188 21.86328125 249.62109375 C18.35211668 251.64073046 14.84773778 253.67053023 11.35546875 255.72265625 C10.36957764 256.29814209 10.36957764 256.29814209 9.36376953 256.88525391 C7.72056703 257.84516211 6.08079894 258.8109433 4.44140625 259.77734375 C2 261 2 261 -1 261 C-2.27325038 254.39868648 -3.26841729 247.46632214 -1 241 C3.47291938 235.79905125 10.16943272 233.13484552 16.28027344 230.30273438 C20.37230515 228.34267323 24.19372613 225.98696497 28.0625 223.625 C33.28181792 220.5415894 38.55380192 217.5826176 43.890625 214.70703125 C48.33007824 212.26979373 52.73050659 209.76723015 57.125 207.25 C57.98013184 206.76539307 58.83526367 206.28078613 59.71630859 205.78149414 C60.51375488 205.32250732 61.31120117 204.86352051 62.1328125 204.390625 C62.85355957 203.97844727 63.57430664 203.56626953 64.31689453 203.14160156 C66.15683904 202.09397629 66.15683904 202.09397629 67 200 C66.01 199.6596875 66.01 199.6596875 65 199.3125 C61.68342759 197.86149957 58.9187878 196.00231618 55.96484375 193.92578125 C53.43316855 192.73292435 52.62738204 193.13386258 50 194 C48.41449971 194.79301026 46.85497929 195.63892381 45.31640625 196.51953125 C44.39851318 197.0417627 43.48062012 197.56399414 42.53491211 198.10205078 C41.06356812 198.94872314 41.06356812 198.94872314 39.5625 199.8125 C38.55002197 200.38983887 37.53754395 200.96717773 36.49438477 201.56201172 C33.32669145 203.36966146 30.16292839 205.18402768 27 207 C24.05830944 208.68657557 21.1163123 210.37260877 18.17358398 212.05737305 C16.39065338 213.07889508 14.6088562 214.1023987 12.82836914 215.12817383 C8.60746612 217.55168089 4.38317916 219.88300261 0 222 C-1.26487347 215.07627722 -2.29848263 207.78794647 0 201 C5.0292729 195.02017724 13.0956627 192.21596764 20 189 C25.28 186.03 30.56 183.06 36 180 C36.33 148.32 36.66 116.64 37 84 C40.3 82.35 43.6 80.7 47 79 C49.07506402 77.85582927 51.13882464 76.69077564 53.1875 75.5 C54.39025595 74.8053502 55.59341158 74.11139217 56.796875 73.41796875 C57.45751953 73.03688965 58.11816406 72.65581055 58.79882812 72.26318359 C63.16564975 69.75720144 67.55306714 67.28749416 71.9375 64.8125 C72.90840576 64.26408447 73.87931152 63.71566895 74.87963867 63.15063477 C76.88957824 62.01533796 78.8995891 60.88016735 80.90966797 59.74511719 C86.10697696 56.81018555 91.30354132 53.87393683 96.5 50.9375 C97.44866943 50.40165283 98.39733887 49.86580566 99.37475586 49.3137207 C100.27202393 48.80671631 101.16929199 48.29971191 102.09375 47.77734375 C102.93639404 47.30143799 103.77903809 46.82553223 104.6472168 46.33520508 C106.76704736 45.13220068 108.87831107 43.91548659 110.98828125 42.6953125 C114 41 114 41 116.6875 39.9375 C119.07888938 39.09296191 119.07888938 39.09296191 121.0625 37.375 C123 36 123 36 127 36 C127 36.66 127 37.32 127 38 C127.73307373 38.2781958 128.46614746 38.5563916 129.22143555 38.84301758 C131.78525054 39.91057924 134.0691474 41.10136757 136.45703125 42.51171875 C137.73670776 43.26618286 137.73670776 43.26618286 139.04223633 44.03588867 C139.95642334 44.58092041 140.87061035 45.12595215 141.8125 45.6875 C143.25435669 46.54275269 143.25435669 46.54275269 144.7253418 47.4152832 C153.01057914 52.35539526 161.18742065 57.46172687 169.35083008 62.59985352 C175.99318363 66.77260711 182.68605278 70.83666174 189.47387695 74.76831055 C190.09093506 75.12578369 190.70799316 75.48325684 191.34375 75.8515625 C191.94058594 76.19219727 192.53742188 76.53283203 193.15234375 76.88378906 C194.48802334 77.69070332 195.78964366 78.55491499 197.06640625 79.45214844 C200.90114054 82.32320695 200.90114054 82.32320695 205.42578125 82.63671875 C206.70001953 81.82654297 206.70001953 81.82654297 208 81 C209.38766095 80.23266384 210.77721306 79.46874398 212.16796875 78.70703125 C213.84312208 77.74562273 215.5161636 76.78052875 217.1875 75.8125 C218.09008545 75.29292725 218.9926709 74.77335449 219.92260742 74.23803711 C221.89029738 73.10476104 223.85713925 71.9700115 225.82324219 70.83398438 C228.5911007 69.23606298 231.36138469 67.64245524 234.13316345 66.05134583 C237.02714803 64.38991373 239.91975537 62.72609006 242.8125 61.0625 C243.90264404 60.43641846 244.99278809 59.81033691 246.1159668 59.1652832 C250.47799065 56.65113382 254.82771814 54.13924283 259.07421875 51.43359375 C262.94817303 48.98218502 266.95005556 46.80476827 270.98388672 44.62890625 C276.53486246 41.63100191 282.04550481 38.55984607 287.5625 35.5 C288.71685547 34.86191406 289.87121094 34.22382813 291.06054688 33.56640625 C292.19685547 32.93605469 293.33316406 32.30570313 294.50390625 31.65625 C295.51267822 31.09744141 296.5214502 30.53863281 297.56079102 29.96289062 C300.46956032 28.3027426 303.3449795 26.60307438 306.21495056 24.87731934 C307.11204207 24.33815636 308.00913359 23.79899338 308.93340969 23.24349213 C309.61538449 22.83313972 310.29735929 22.42278732 311 22 C284.4792315 21.68194415 257.95839391 21.36991851 231.4375 21.0625 C230.44918812 21.05103723 229.46087624 21.03957445 228.44261551 21.02776432 C171.12913363 20.36338944 113.81596517 19.77570887 56.5 19.375 C55.76821329 19.36987475 55.03642657 19.3647495 54.2824645 19.35946894 C36.18835335 19.23287162 18.09420453 19.11251778 0 19 C0 12.73 0 6.46 0 0 Z " transform="translate(81,145)" style="fill: #053F88;"/><path d="M0 0 C0.65871094 0.46277344 1.31742187 0.92554688 1.99609375 1.40234375 C3.34960938 2.18738281 3.34960938 2.18738281 4.73046875 2.98828125 C6.22320312 3.87386719 6.22320312 3.87386719 7.74609375 4.77734375 C12.41853197 7.5201108 17.11440611 10.05537854 21.99609375 12.40234375 C21.99609375 13.06234375 21.99609375 13.72234375 21.99609375 14.40234375 C23.17171875 14.68078125 23.17171875 14.68078125 24.37109375 14.96484375 C28.44339896 16.5797234 31.42737965 18.68664321 34.87817383 21.35546875 C37.96587558 23.55870419 37.96587558 23.55870419 41.75244141 24.73828125 C46.33332665 26.44704471 50.08862304 28.35783054 52.99609375 32.40234375 C55.80432416 41.00837566 55.17151094 50.38754261 54.9586792 59.32403564 C54.93358557 61.34050118 54.96884378 63.34638422 55.02709961 65.36206055 C55.60056836 86.58040436 55.60056836 86.58040436 51.56719971 92.49917603 C47.96249734 95.92161674 43.78728405 97.78092989 39.18411255 99.52926636 C35.71728301 100.91262307 32.58861096 102.82676451 29.37109375 104.703125 C28.14071998 105.38186909 26.9076476 106.05574522 25.671875 106.72460938 C25.06682129 107.05243408 24.46176758 107.38025879 23.83837891 107.71801758 C23.2304248 108.04697021 22.6224707 108.37592285 21.99609375 108.71484375 C20.12091008 109.73305731 18.24656815 110.75274805 16.3737793 111.77536011 C14.61455372 112.73509633 12.85224597 113.68917613 11.08984375 114.64306641 C8.45069577 116.1438319 6.02875636 117.75197817 3.55859375 119.5078125 C0.78295225 121.23620723 0.22442724 121.42044336 -3.20703125 121.1484375 C-8.97002811 118.82858707 -14.36179759 115.52810963 -19.75390625 112.46484375 C-20.95545108 111.78897478 -22.15727662 111.11360463 -23.359375 110.4387207 C-49.55100755 95.70427622 -49.55100755 95.70427622 -56.00390625 91.40234375 C-56.3646698 88.80807495 -56.3646698 88.80807495 -56.34448242 85.48388672 C-56.34425583 84.24275116 -56.34402924 83.0016156 -56.34379578 81.72286987 C-56.32847473 80.36342003 -56.31282672 79.00397384 -56.296875 77.64453125 C-56.29128052 76.25733905 -56.28700972 74.87014092 -56.28401184 73.48294067 C-56.27255122 69.82985094 -56.24307411 66.17711841 -56.2098999 62.52416992 C-56.17922492 58.79741244 -56.16551204 55.0705973 -56.15039062 51.34375 C-56.11820511 44.02978498 -56.06699464 36.71611439 -56.00390625 29.40234375 C-54.91231201 28.8287915 -53.82071777 28.25523926 -52.69604492 27.66430664 C-44.16725675 23.17282111 -35.69101714 18.61450538 -27.31640625 13.83984375 C-26.34598389 13.29191162 -25.37556152 12.74397949 -24.37573242 12.17944336 C-20.0730295 9.74545741 -15.78942893 7.29276755 -11.56640625 4.72265625 C-10.92147217 4.33537354 -10.27653809 3.94809082 -9.61206055 3.54907227 C-7.94980093 2.54538838 -6.29859287 1.52346258 -4.6484375 0.5 C-2.00390625 -0.59765625 -2.00390625 -0.59765625 0 0 Z " transform="translate(300.00390625,297.59765625)" style="fill: #FEFCFD;"/><path d="M0 0 C5.76853513 1.02183775 10.5383137 4.63900255 15.39453125 7.73046875 C17.36964342 8.96377911 19.34490267 10.19685396 21.3203125 11.4296875 C22.28533691 12.03707764 23.25036133 12.64446777 24.24462891 13.27026367 C28.48804308 15.92139345 32.78385659 18.48197867 37.08203125 21.04296875 C38.47831271 21.88206726 39.87417252 22.72186796 41.26953125 23.5625 C41.90503906 23.94470703 42.54054688 24.32691406 43.1953125 24.72070312 C44.48470017 25.4962044 45.77374733 26.27227203 47.0625 27.04882812 C50.52129149 29.13731782 50.52129149 29.13731782 54.08203125 31.04296875 C54.08203125 41.93296875 54.08203125 52.82296875 54.08203125 64.04296875 C46.57963038 68.26762167 39.07603672 72.48966022 31.55859375 76.6875 C30.43767334 77.31382324 29.31675293 77.94014648 28.16186523 78.58544922 C25.91714901 79.83938857 23.67187712 81.09233378 21.42602539 82.34423828 C20.38824951 82.92415527 19.35047363 83.50407227 18.28125 84.1015625 C17.35143311 84.62032959 16.42161621 85.13909668 15.46362305 85.67358398 C13.62884817 86.72855603 11.84302494 87.86897296 10.08203125 89.04296875 C9.09203125 89.04296875 8.10203125 89.04296875 7.08203125 89.04296875 C7.10821533 89.90575439 7.13439941 90.76854004 7.16137695 91.6574707 C7.24662943 94.86102125 7.30929393 98.06399371 7.35668945 101.26831055 C7.38182344 102.65457179 7.41593717 104.04070062 7.45922852 105.42651367 C7.51991521 107.41917912 7.54558004 109.41281408 7.5703125 111.40625 C7.59649658 112.60548096 7.62268066 113.80471191 7.6496582 115.0402832 C7.08203125 118.04296875 7.08203125 118.04296875 4.72387695 119.95898438 C1.21792671 121.39752232 -0.28265265 121.14232338 -3.91796875 120.04296875 C-6.97229877 118.64338391 -9.87530517 117.01851667 -12.79296875 115.35546875 C-13.64850342 114.87650146 -14.50403809 114.39753418 -15.38549805 113.90405273 C-25.40756767 108.26377531 -35.32827063 102.44318255 -45.23754883 96.60766602 C-48.45190883 94.7312808 -51.68640886 92.8895744 -54.91796875 91.04296875 C-54.91796875 70.58296875 -54.91796875 50.12296875 -54.91796875 29.04296875 C-49.30796875 26.07296875 -43.69796875 23.10296875 -37.91796875 20.04296875 C-33.92687883 17.81012239 -29.94607388 15.5694678 -25.98046875 13.29296875 C-19.71007644 9.6938585 -13.43828866 6.22889556 -6.91186523 3.11230469 C-1.13992441 0.01678604 -1.13992441 0.01678604 0 0 Z " transform="translate(204.91796875,218.95703125)" style="fill: #FBFCFD;"/><path d="M0 0 C4.06196192 2.359522 6.69160172 4.68084751 8.6875 9.046875 C9.0175 6.406875 9.3475 3.766875 9.6875 1.046875 C17.9375 1.046875 26.1875 1.046875 34.6875 1.046875 C34.6875 23.486875 34.6875 45.926875 34.6875 69.046875 C26.4375 69.046875 18.1875 69.046875 9.6875 69.046875 C9.6875 65.746875 9.6875 62.446875 9.6875 59.046875 C9.15125 59.93375 8.615 60.820625 8.0625 61.734375 C3.45839524 68.37248495 3.45839524 68.37248495 -0.3125 70.046875 C-5.99056272 71.0253761 -11.56658416 71.36929459 -16.859375 68.8203125 C-22.12478979 64.64361129 -24.47589042 59.38408726 -26.3125 53.046875 C-26.66828125 51.84289062 -27.0240625 50.63890625 -27.390625 49.3984375 C-30.65776701 35.98554604 -29.50979295 20.11887031 -23.1796875 7.8515625 C-18.03148595 -0.29691545 -9.11541981 -3.75703114 0 0 Z " transform="translate(336.3125,46.953125)" style="fill: #053E87;"/><path d="M0 0 C7.94956342 5.42305691 11.6225988 11.82178219 14.60546875 20.828125 C16.70685529 32.39615385 15.4052325 44.34634672 9.52734375 54.55859375 C4.83620336 61.31250509 -1.86657759 65.53166533 -10 67 C-19.75987727 67.71017818 -28.8814599 68.28729045 -37 62 C-43.98512277 55.77295257 -47.80848317 48.23987582 -49 39 C-49.6683947 26.71182059 -49.26007629 14.87528923 -41 5 C-30.06579627 -5.42037836 -13.27475124 -8.03771387 0 0 Z " transform="translate(180,49)" style="fill: #043E87;"/><path d="M0 0 C1.30066406 0.00644531 2.60132813 0.01289063 3.94140625 0.01953125 C7.4375 0.1875 7.4375 0.1875 11.4375 1.1875 C11.4375 8.7775 11.4375 16.3675 11.4375 24.1875 C8.7975 24.1875 6.1575 24.1875 3.4375 24.1875 C3.1075 28.1475 2.7775 32.1075 2.4375 36.1875 C5.4075 36.1875 8.3775 36.1875 11.4375 36.1875 C11.4375 43.1175 11.4375 50.0475 11.4375 57.1875 C8.4675 57.1875 5.4975 57.1875 2.4375 57.1875 C2.4375 73.0275 2.4375 88.8675 2.4375 105.1875 C-6.1425 105.1875 -14.7225 105.1875 -23.5625 105.1875 C-23.5625 89.0175 -23.5625 72.8475 -23.5625 56.1875 C-25.8725 56.1875 -28.1825 56.1875 -30.5625 56.1875 C-30.5625 49.5875 -30.5625 42.9875 -30.5625 36.1875 C-27.9225 36.1875 -25.2825 36.1875 -22.5625 36.1875 C-22.58570313 35.04152344 -22.60890625 33.89554688 -22.6328125 32.71484375 C-22.65158479 31.1849024 -22.66978341 29.65495394 -22.6875 28.125 C-22.71263672 26.99674805 -22.71263672 26.99674805 -22.73828125 25.84570312 C-22.80045757 18.66433771 -21.29346233 12.40577055 -17.5625 6.1875 C-12.09568384 1.008411 -7.43465091 -0.08121267 0 0 Z " transform="translate(233.5625,10.8125)" style="fill: #063F88;"/><path d="M0 0 C1.35917857 0.96457834 2.69084721 1.96854629 4 3 C4.969375 3.28875 5.93875 3.5775 6.9375 3.875 C10.59703568 5.21931923 12.42613583 7.12332829 15 10 C11.20492327 13.41556906 7.19079362 15.46472886 2.64453125 17.66796875 C0.18136442 18.90864806 -2.14977535 20.24651597 -4.5 21.6875 C-8.9742911 24.42332815 -13.53102653 26.97336495 -18.125 29.5 C-26.29788545 34.00671334 -34.36229046 38.68537599 -42.4128418 43.40649414 C-50.8012138 48.31905409 -59.24158871 53.13726555 -67.69570923 57.93536377 C-74.2546016 61.66110757 -80.77587871 65.43702707 -87.2265625 69.34765625 C-87.8066658 69.69892075 -88.3867691 70.05018524 -88.98445129 70.41209412 C-91.75321431 72.09114435 -94.51563761 73.7796469 -97.27124023 75.48022461 C-98.24520752 76.07456299 -99.2191748 76.66890137 -100.22265625 77.28125 C-101.07609619 77.80783203 -101.92953613 78.33441406 -102.80883789 78.87695312 C-105 80 -105 80 -108 80 C-108 73.07 -108 66.14 -108 59 C-104.473125 57.02 -104.473125 57.02 -100.875 55 C-97.91568912 53.3350657 -94.95776315 51.66768202 -92 50 C-91.36562012 49.64276855 -90.73124023 49.28553711 -90.07763672 48.91748047 C-83.74903972 45.34895507 -77.48366331 41.71014512 -71.3125 37.875 C-66.49595151 34.88219317 -61.61120124 32.10585305 -56.61328125 29.4296875 C-54.0313798 28.01716742 -51.51465281 26.5285921 -49 25 C-45.76875988 23.04014985 -42.51468287 21.16696306 -39.1875 19.375 C-31.677155 15.32350829 -24.29387411 11.04746918 -16.890625 6.8046875 C-16.0550708 6.32684814 -15.2195166 5.84900879 -14.35864258 5.35668945 C-12.8668783 4.49862775 -11.37915771 3.63346302 -9.8972168 2.75854492 C-3.93407579 -0.74428461 -3.93407579 -0.74428461 0 0 Z " transform="translate(188,368)" style="fill: #CE142B;"/><path d="M0 0 C1.41080891 6.95637315 2.40588241 14.1760891 0 21 C-4.74238248 26.58836495 -12.12925994 29.34224319 -18.63769531 32.375 C-23.87571078 34.90652999 -28.857014 37.85733477 -33.87582397 40.79391479 C-36.8250297 42.51130474 -39.79404463 44.19370129 -42.76171875 45.87890625 C-43.96542181 46.56380709 -45.16903486 47.24886614 -46.37255859 47.93408203 C-46.97050232 48.27449524 -47.56844604 48.61490845 -48.18450928 48.96563721 C-52.4170265 51.37708348 -56.64554818 53.79552543 -60.87426758 56.21362305 C-63.22839012 57.55962231 -65.5837392 58.90343474 -67.94018555 60.24536133 C-73.39639304 63.35527162 -78.83899741 66.48386392 -84.25 69.671875 C-85.21494385 70.23616211 -86.1798877 70.80044922 -87.17407227 71.38183594 C-88.96107277 72.42823927 -90.74319593 73.48303662 -92.51928711 74.54785156 C-93.3056958 75.00643555 -94.09210449 75.46501953 -94.90234375 75.9375 C-95.57773193 76.33839844 -96.25312012 76.73929687 -96.94897461 77.15234375 C-99.4648157 78.19210095 -101.30025603 78.24994581 -104 78 C-106.53515625 76.50390625 -106.53515625 76.50390625 -109.0625 74.5625 C-112.03647607 72.29421316 -114.27152737 70.61136618 -118 70 C-118 69.01 -118 68.02 -118 67 C-115.48689552 65.28707286 -113.02489154 63.78593107 -110.375 62.3125 C-109.68148438 61.91611328 -108.98796875 61.51972656 -108.2734375 61.11132812 C-106.74998655 60.24214495 -105.2235428 59.37819524 -103.69482422 58.51831055 C-100.54966717 56.7462747 -97.41485756 54.95640536 -94.28125 53.1640625 C-93.38832245 52.65356354 -93.38832245 52.65356354 -92.47735596 52.13275146 C-88.34116828 49.76777191 -84.20580454 47.40135193 -80.0703125 45.03515625 C-58.87696105 32.91092341 -58.87696105 32.91092341 -51 28.5 C-44.20891086 24.69291713 -37.43745767 20.85139762 -30.6730957 16.99707031 C-29.45902885 16.30568465 -28.24453008 15.61505672 -27.02954102 14.92529297 C-19.42400164 10.6063078 -11.93998255 6.1515284 -4.5534668 1.47094727 C-2 0 -2 0 0 0 Z " transform="translate(419,192)" style="fill: #083F87;"/><path d="M0 0 C0 9.24 0 18.48 0 28 C-0.99 27.67 -1.98 27.34 -3 27 C-6.06148124 26.60533391 -8.94701408 26.50313068 -12 27 C-16.18707476 30.76836728 -16.89239418 34.12630243 -17.20532227 39.57519531 C-17.24687512 40.99271313 -17.28363719 42.41037693 -17.31640625 43.828125 C-17.33718735 44.57713074 -17.35796844 45.32613647 -17.37937927 46.09783936 C-17.44457088 48.48180288 -17.50361783 50.86587312 -17.5625 53.25 C-17.60571416 54.86980254 -17.64932937 56.48959443 -17.69335938 58.109375 C-17.80097311 62.07280905 -17.90027164 66.03632834 -18 70 C-26.25 70 -34.5 70 -43 70 C-43 47.23 -43 24.46 -43 1 C-34.75 1 -26.5 1 -18 1 C-18 4.63 -18 8.26 -18 12 C-17.46375 11.113125 -16.9275 10.22625 -16.375 9.3125 C-12.20513933 3.05028932 -7.68092957 0 0 0 Z " transform="translate(299,46)" style="fill: #023C86;"/><path d="M0 0 C3.3103125 0.061875 3.3103125 0.061875 6.6875 0.125 C6.6875 7.715 6.6875 15.305 6.6875 23.125 C3.7175 23.785 0.7475 24.445 -2.3125 25.125 C-4.77328517 29.25911909 -5.05786285 34.38864366 -4.3125 39.125 C-2.92095604 42.58755794 -2.92095604 42.58755794 -0.3125 45.125 C1.9975 45.785 4.3075 46.445 6.6875 47.125 C6.6875 55.045 6.6875 62.965 6.6875 71.125 C-10.62457289 71.9119124 -10.62457289 71.9119124 -18.3125 66.125 C-26.26003558 58.79117374 -30.81249502 50.26143467 -31.5703125 39.4453125 C-32.00093964 28.3065131 -30.25366352 18.76975669 -23.0859375 9.91015625 C-16.48775138 3.26836979 -9.33920016 -0.17456449 0 0 Z " transform="translate(413.3125,46.875)" style="fill: #063F87;"/><path d="M0 0 C0 7.59 0 15.18 0 23 C-2.31 23.66 -4.62 24.32 -7 25 C-9.55395319 26.95803078 -9.95557293 27.86671878 -11 31 C-11.39702232 36.26054571 -10.7327998 39.48036957 -8 44 C-5.74813012 46.63936201 -5.74813012 46.63936201 0 47 C0 54.92 0 62.84 0 71 C-11.19993652 71.35368221 -19.68660309 71.1611458 -28.14453125 63.2265625 C-36.33405891 53.39912931 -39.04369787 41.48253402 -38.22949219 28.99804688 C-37.10492335 19.20711991 -31.22607527 11.33439611 -24 5 C-16.36685507 -0.71196487 -9.30229955 -0.45599508 0 0 Z " transform="translate(121,45)" style="fill: #053E87;"/><path d="M0 0 C8.25 0 16.5 0 25 0 C25 22.44 25 44.88 25 68 C16.75 68 8.5 68 0 68 C0 64.7 0 61.4 0 58 C-1.98 58.66 -3.96 59.32 -6 60 C-6 60.66 -6 61.32 -6 62 C-6.66 62 -7.32 62 -8 62 C-8.66 60.35 -9.32 58.7 -10 57 C-9.34 57 -8.68 57 -8 57 C-8 56.01 -8 55.02 -8 54 C-7.34 54 -6.68 54 -6 54 C-5.67 52.35 -5.34 50.7 -5 49 C-4.34 49 -3.68 49 -3 49 C-0.7387121 38.92515482 0.62922545 28.86515648 -3 19 C-3 18.67 -3 18.34 -3 18 C-4.65 17.67 -6.3 17.34 -8 17 C-8 16.01 -8 15.02 -8 14 C-7.01 13.67 -6.02 13.34 -5 13 C-3.77030122 9.48809191 -3.77030122 9.48809191 -3 6 C-2.34 6.66 -1.68 7.32 -1 8 C-0.67 5.36 -0.34 2.72 0 0 Z " transform="translate(346,48)" style="fill: #013C87;"/><path d="M0 0 C33 0 66 0 100 0 C100 6.27 100 12.54 100 19 C85.50000632 19.03129149 71.00002356 19.05153803 56.5 19.0625 C54.81423292 19.06378403 54.81423292 19.06378403 53.09440994 19.06509399 C7.54039092 19.09553895 -38.00992523 18.83412497 -83.5625 18.5 C-84.78600599 18.49103943 -84.78600599 18.49103943 -86.03422928 18.48189783 C-107.02287288 18.32804885 -128.01146165 18.16761361 -149 18 C-149 17.67 -149 17.34 -149 17 C-67.49 17 14.02 17 98 17 C98 12.05 98 7.1 98 2 C65.66 1.67 33.32 1.34 0 1 C0 0.67 0 0.34 0 0 Z " transform="translate(317,472)" style="fill: #D15263;"/><path d="M0 0 C4.24874209 4.55222367 4.20938592 9.3101904 4.25 15.25 C4.270625 15.98863281 4.29125 16.72726563 4.3125 17.48828125 C4.34954781 22.73980824 3.40075144 26.3197472 1 31 C0 32 0 32 -2.875 32.3125 C-6 32 -6 32 -7.8125 30.25 C-10.38391469 25.37784585 -10.21519212 20.51151982 -10.25 15.125 C-10.270625 14.33480469 -10.29125 13.54460937 -10.3125 12.73046875 C-10.34570672 7.74115947 -9.78679046 4.31546678 -7 0 C-4.24438552 -1.37780724 -2.90228766 -0.92023755 0 0 Z " transform="translate(166,65)" style="fill: #F3F8FB;"/><path d="M0 0 C2.4375 0.0625 2.4375 0.0625 5 1 C9.21968383 6.56596391 8.47474263 12.32141718 8 19 C7.40525079 22.92894935 6.89538601 26.10461399 4 29 C1.5625 29.4375 1.5625 29.4375 -1 29 C-5.44239441 23.30950431 -4.45644984 16.86222045 -4 10 C-3.41785173 6.05432836 -2.90584149 2.90584149 0 0 Z " transform="translate(338,67)" style="fill: #EFF4F8;"/><path d="M0 0 C0.66 0.33 1.32 0.66 2 1 C1.01 2.485 1.01 2.485 0 4 C55.11 4.99 110.22 5.98 167 7 C167 7.33 167 7.66 167 8 C154.72917825 8.03158135 142.45835696 8.05130779 130.1875 8.0625 C129.25583134 8.06335602 128.32416267 8.06421204 127.36426163 8.06509399 C95.30249752 8.09101628 63.2469638 7.87773065 31.1875 7.5 C30.17210018 7.48804218 29.15670036 7.47608437 28.11053085 7.46376419 C15.74024783 7.31734779 3.37007657 7.16290632 -9 7 C-9 6.34 -9 5.68 -9 5 C-7.54735962 4.1361871 -6.0876837 3.28419546 -4.625 2.4375 C-3.40683594 1.72400391 -3.40683594 1.72400391 -2.1640625 0.99609375 C-1.44992188 0.66738281 -0.73578125 0.33867187 0 0 Z " transform="translate(121,464)" style="fill: #F7BDC5;"/><path d="M0 0 C8.25 0 16.5 0 25 0 C25 22.44 25 44.88 25 68 C16.75 68 8.5 68 0 68 C0.33 66.68 0.66 65.36 1 64 C1.33 64.66 1.66 65.32 2 66 C8.93 66 15.86 66 23 66 C23 44.55 23 23.1 23 1 C15.74 1 8.48 1 1 1 C1 3.97 1 6.94 1 10 C0.34 9.67 -0.32 9.34 -1 9 C-0.67 6.03 -0.34 3.06 0 0 Z " transform="translate(346,48)" style="fill: #133F7B;"/><path d="M0 0 C0 12.21 0 24.42 0 37 C-7 41 -7 41 -9.1875 40.4375 C-10.41876805 39.46097706 -11.64786322 38.48170942 -12.875 37.5 C-15.47365404 35.66565597 -17.96795178 34.95123081 -21 34 C-25.62590271 32.24534725 -28.68892019 30.67897756 -32 27 C-32.66 26.67 -33.32 26.34 -34 26 C-34 25.34 -34 24.68 -34 24 C-31.07120629 24.62759865 -28.63904371 25.58622659 -26 27 C-26 27.66 -26 28.32 -26 29 C-25.030625 29.4125 -24.06125 29.825 -23.0625 30.25 C-18.68893731 32.12310369 -14.34398313 34.05949053 -10 36 C-10 36.66 -10 37.32 -10 38 C-8.68 38 -7.36 38 -6 38 C-5.67 37.01 -5.34 36.02 -5 35 C-4.01 34.505 -4.01 34.505 -3 34 C-2.67 24.1 -2.34 14.2 -2 4 C-4.31 4.33 -6.62 4.66 -9 5 C-9 4.34 -9 3.68 -9 3 C-2.25 0 -2.25 0 0 0 Z " transform="translate(212,337)" style="fill: #34306F;"/><path d="M0 0 C0.66 0 1.32 0 2 0 C2 11.88 2 23.76 2 36 C-6.25 36 -14.5 36 -23 36 C-23 26.76 -23 17.52 -23 8 C-22.67 8 -22.34 8 -22 8 C-22 16.58 -22 25.16 -22 34 C-14.74 34 -7.48 34 0 34 C0 22.78 0 11.56 0 0 Z " transform="translate(279,80)" style="fill: #17417C;"/><path d="M0 0 C0.66 0.33 1.32 0.66 2 1 C2.11582029 8.51024979 2.20467737 16.02040709 2.25906086 23.53134632 C2.28516211 27.01902101 2.32056666 30.50608503 2.37719727 33.9934082 C2.44188862 38.00217567 2.46617566 42.0103012 2.48828125 46.01953125 C2.51408768 47.27272659 2.5398941 48.52592194 2.56648254 49.8170929 C2.5668602 50.97806992 2.56723785 52.13904694 2.56762695 53.33520508 C2.57873001 54.35890701 2.58983307 55.38260895 2.60127258 56.43733215 C2 59 2 59 -0.53547668 60.85404968 C-1.75541573 61.42129509 -1.75541573 61.42129509 -3 62 C-2.67 60.68 -2.34 59.36 -2 58 C-1.34 58 -0.68 58 0 58 C0 38.86 0 19.72 0 0 Z " transform="translate(351,329)" style="fill: #F9B9C0;"/><path d="M0 0 C0.33 0 0.66 0 1 0 C1 31.35 1 62.7 1 95 C-0.98 95.495 -0.98 95.495 -3 96 C-3 95.01 -3 94.02 -3 93 C-2.34 93 -1.68 93 -1 93 C-0.67 62.31 -0.34 31.62 0 0 Z " transform="translate(383,313)" style="fill: #BA1429;"/><path d="M0 0 C0 9.24 0 18.48 0 28 C-0.66 27.67 -1.32 27.34 -2 27 C-1.67 18.42 -1.34 9.84 -1 1 C-8.05722827 5.1642381 -8.05722827 5.1642381 -12.9375 10.625 C-13.50339844 11.38039063 -14.06929688 12.13578125 -14.65234375 12.9140625 C-16.15512206 15.0500312 -16.15512206 15.0500312 -17 18 C-17.66 18 -18.32 18 -19 18 C-19.33 16.02 -19.66 14.04 -20 12 C-19.34 12 -18.68 12 -18 12 C-17.06187532 10.55930853 -16.12624075 9.1168955 -15.20703125 7.6640625 C-11.19521101 2.13320353 -6.82617271 0 0 0 Z " transform="translate(299,46)" style="fill: #234C88;"/><path d="M0 0 C0.53625 0.474375 1.0725 0.94875 1.625 1.4375 C4.37957216 3.47930303 4.37957216 3.47930303 10 4 C10 11.92 10 19.84 10 28 C0.0390625 28.1953125 0.0390625 28.1953125 -3 28 C-3.66 27.34 -4.32 26.68 -5 26 C-1.04 25.67 2.92 25.34 7 25 C7.33 18.73 7.66 12.46 8 6 C5.03 5.505 5.03 5.505 2 5 C0.625 2.4375 0.625 2.4375 0 0 Z " transform="translate(111,88)" style="fill: #234882;"/><path d="M0 0 C1.31871094 -0.00257812 2.63742188 -0.00515625 3.99609375 -0.0078125 C7.5625 0.125 7.5625 0.125 11.5625 1.125 C11.5625 8.715 11.5625 16.305 11.5625 24.125 C10.5725 23.795 9.5825 23.465 8.5625 23.125 C8.8925 16.195 9.2225 9.265 9.5625 2.125 C-1.3275 2.62 -1.3275 2.62 -12.4375 3.125 C-8.81221445 -0.50028555 -4.81268223 -0.02768561 0 0 Z " transform="translate(233.4375,10.875)" style="fill: #154079;"/><path d="M0 0 C2.475 0.99 2.475 0.99 5 2 C5 11.57 5 21.14 5 31 C5.99 31 6.98 31 8 31 C8 30.34 8 29.68 8 29 C9.32 29.33 10.64 29.66 12 30 C9.03 31.32 6.06 32.64 3 34 C3 23.44 3 12.88 3 2 C2.01 1.67 1.02 1.34 0 1 C0 0.67 0 0.34 0 0 Z " transform="translate(256,248)" style="fill: #1D3F77;"/><path d="M0 0 C0.88099735 2.97818634 1.06705164 5.45292865 0.87890625 8.546875 C0.83056641 9.39121094 0.78222656 10.23554687 0.73242188 11.10546875 C0.67634766 11.97816406 0.62027344 12.85085937 0.5625 13.75 C0.51029297 14.63816406 0.45808594 15.52632812 0.40429688 16.44140625 C0.27498267 18.62799196 0.14003358 20.81407894 0 23 C1.32 22.34 2.64 21.68 4 21 C4.33 21.66 4.66 22.32 5 23 C5.99 23 6.98 23 8 23 C7.34 24.32 6.68 25.64 6 27 C3.6875 27.3125 3.6875 27.3125 1 27 C-3.45422457 21.3425015 -2.46920618 14.83810321 -2 8 C-1.5244618 5.19960838 -0.86763623 2.71136321 0 0 Z " transform="translate(336,69)" style="fill: #D4E3F1;"/><path d="M0 0 C0.99 0 1.98 0 3 0 C2.98839844 0.83144531 2.97679688 1.66289062 2.96484375 2.51953125 C2.95582031 3.60621094 2.94679688 4.69289063 2.9375 5.8125 C2.92589844 6.89144531 2.91429688 7.97039062 2.90234375 9.08203125 C3.01145568 12.3422956 3.31697202 14.26232978 5.5625 16.6875 C6.2740625 17.3371875 6.2740625 17.3371875 7 18 C4.35261084 19.4606285 3.10551666 20 0 20 C0 13.4 0 6.8 0 0 Z " transform="translate(80,386)" style="fill: #26508C;"/><path d="M0 0 C2.92879371 0.62759865 5.36095629 1.58622659 8 3 C8 3.66 8 4.32 8 5 C9.4540625 5.61875 9.4540625 5.61875 10.9375 6.25 C11.56785156 6.52199219 12.19820312 6.79398437 12.84765625 7.07421875 C14.37302753 7.73032219 15.90207242 8.37791477 17.43359375 9.01953125 C18.23925781 9.36371094 19.04492188 9.70789063 19.875 10.0625 C21.01582031 10.54396484 21.01582031 10.54396484 22.1796875 11.03515625 C24 12 24 12 25 14 C27.01669827 15.13350534 27.01669827 15.13350534 29 16 C27.375 16.8125 27.375 16.8125 25 17 C23.49501824 15.7894712 21.99504881 14.56927373 20.56640625 13.26953125 C18.2657484 11.40490831 15.82553054 10.80729444 13 10 C8.37409729 8.24534725 5.31107981 6.67897756 2 3 C1.34 2.67 0.68 2.34 0 2 C0 1.34 0 0.68 0 0 Z " transform="translate(178,361)" style="fill: #4D336B;"/><path d="M0 0 C0 3.3126684 -0.77411898 5.28645109 -1.9375 8.375 C-3.93982789 14.12905805 -4.53942072 19.41275651 -4.7265625 25.48046875 C-4.81679687 26.31191406 -4.90703125 27.14335938 -5 28 C-5.66 28.33 -6.32 28.66 -7 29 C-7.25781311 18.67315283 -7.10476996 11.14604617 -2 2 C-1.34 1.34 -0.68 0.68 0 0 Z " transform="translate(218,15)" style="fill: #13407F;"/><path d="M0 0 C-0.99 0.66 -1.98 1.32 -3 2 C-6.49969856 5.18154415 -8.82910947 7.74424505 -9.1953125 12.578125 C-9.17210937 13.45984375 -9.14890625 14.3415625 -9.125 15.25 C-9.10695313 16.14203125 -9.08890625 17.0340625 -9.0703125 17.953125 C-9.04710937 18.62859375 -9.02390625 19.3040625 -9 20 C-11.80441126 16.66141517 -12.46712832 14.47646565 -12.29296875 10.03125 C-11.84377197 6.91681902 -10.68901992 4.62736433 -9 2 C-5.5647952 -0.29013653 -4.014669 -0.17842973 0 0 Z " transform="translate(420,70)" style="fill: #DFEDF9;"/><path d="M0 0 C-2.61227152 2.95814719 -5.66570307 4.71876108 -9.0625 6.6875 C-10.12597656 7.31011719 -11.18945312 7.93273437 -12.28515625 8.57421875 C-15 10 -15 10 -17 10 C-17 9.34 -17 8.68 -17 8 C-14 6 -14 6 -11 6 C-10.8453125 5.1028125 -10.8453125 5.1028125 -10.6875 4.1875 C-8.79730397 -1.82676009 -5.65952634 -1.17461867 0 0 Z " transform="translate(331,437)" style="fill: #C41E32;"/><path d="M0 0 C0.59167969 0.06960937 1.18335938 0.13921875 1.79296875 0.2109375 C2.12296875 0.8709375 2.45296875 1.5309375 2.79296875 2.2109375 C0.96765625 2.30375 0.96765625 2.30375 -0.89453125 2.3984375 C-4.27319645 2.82975646 -5.27412764 3.2609029 -8.14453125 5.3984375 C-10.39380377 8.4656273 -10.94494482 10.45436527 -11.20703125 14.2109375 C-11.86703125 14.2109375 -12.52703125 14.2109375 -13.20703125 14.2109375 C-12.98158492 9.85230837 -12.74213452 6.35242605 -10.20703125 2.7109375 C-6.52501183 -0.35741202 -4.62299261 -0.31674664 0 0 Z " transform="translate(294.20703125,71.7890625)" style="fill: #CBDFF0;"/><path d="M0 0 C2.64 0 5.28 0 8 0 C8 6.6 8 13.2 8 20 C5.36 20 2.72 20 0 20 C0 19.01 0 18.02 0 17 C2.31 17.33 4.62 17.66 7 18 C7 12.72 7 7.44 7 2 C4.69 2 2.38 2 0 2 C0 1.34 0 0.68 0 0 Z " transform="translate(236,47)" style="fill: #093875;"/><path d="M0 0 C3.91402949 1.26941497 5.79072873 2.51167694 8 6 C4.71195019 8.91227269 2.40114397 10.49701212 -2 11 C-2 10.34 -2 9.68 -2 9 C-1.01 9 -0.02 9 1 9 C1.33 7.02 1.66 5.04 2 3 C1.34 3 0.68 3 0 3 C0 2.01 0 1.02 0 0 Z " transform="translate(195,372)" style="fill: #B8273E;"/><path d="M0 0 C-1.1446875 0.8971875 -1.1446875 0.8971875 -2.3125 1.8125 C-6.30180908 4.71757103 -6.30180908 4.71757103 -8.43237305 8.90112305 C-8.45855713 9.59761963 -8.48474121 10.29411621 -8.51171875 11.01171875 C-8.54716797 11.76904297 -8.58261719 12.52636719 -8.61914062 13.30664062 C-8.64169922 14.09232422 -8.66425781 14.87800781 -8.6875 15.6875 C-8.72166016 16.48478516 -8.75582031 17.28207031 -8.79101562 18.10351562 C-8.87338104 20.06851904 -8.93837067 22.03423696 -9 24 C-9.33 24 -9.66 24 -10 24 C-10.08138426 21.12442297 -10.14067851 18.25117738 -10.1875 15.375 C-10.21263672 14.56675781 -10.23777344 13.75851563 -10.26367188 12.92578125 C-10.32549742 7.85608617 -9.85435362 4.38174382 -7 0 C-4.3333581 -1.33332095 -2.83319697 -0.67102033 0 0 Z " transform="translate(166,65)" style="fill: #C6D9EE;"/><path d="M0 0 C-1.04929445 2.53579493 -1.70577653 3.80799419 -4.04003906 5.33129883 C-6.19569047 6.83496694 -6.19569047 6.83496694 -6.54589844 9.26831055 C-6.5668457 10.13238525 -6.58779297 10.99645996 -6.609375 11.88671875 C-6.64160156 12.82451172 -6.67382812 13.76230469 -6.70703125 14.72851562 C-6.72121094 15.70498047 -6.73539063 16.68144531 -6.75 17.6875 C-6.77964844 18.67556641 -6.80929688 19.66363281 -6.83984375 20.68164062 C-6.91055492 23.12117596 -6.96324265 25.55975525 -7 28 C-7.33 28 -7.66 28 -8 28 C-8.17426756 24.08389516 -8.28084155 20.16878503 -8.375 16.25 C-8.42527344 15.13882812 -8.47554687 14.02765625 -8.52734375 12.8828125 C-8.67228302 4.86283943 -8.67228302 4.86283943 -6.70800781 2.34179688 C-4.53404216 0.84314821 -2.66064375 0 0 0 Z " transform="translate(159,244)" style="fill: #E1F0F8;"/><path d="M0 0 C0.65226562 0.31195313 1.30453125 0.62390625 1.9765625 0.9453125 C7.50873065 3.54299027 7.50873065 3.54299027 13.4375 3.25 C14.283125 2.8375 15.12875 2.425 16 2 C16.99 2 17.98 2 19 2 C13.95384615 6.92307692 13.95384615 6.92307692 9.125 7.3125 C8.09375 7.209375 7.0625 7.10625 6 7 C6 6.34 6 5.68 6 5 C5.34 5 4.68 5 4 5 C4 4.34 4 3.68 4 3 C2.68 2.67 1.36 2.34 0 2 C0 1.34 0 0.68 0 0 Z " transform="translate(288,414)" style="fill: #C63146;"/><path d="M0 0 C0 0.66 0 1.32 0 2 C-2.76803316 4.46047392 -5.58827867 5.6532679 -9 7 C-9.66 7.66 -10.32 8.32 -11 9 C-12.68761858 9.60311615 -14.40014476 10.13850237 -16.125 10.625 C-17.03507812 10.88539063 -17.94515625 11.14578125 -18.8828125 11.4140625 C-19.58148438 11.60742188 -20.28015625 11.80078125 -21 12 C-18.97957487 8.94733274 -17.54450698 7.46871345 -14.0625 6.3125 C-13.39347656 6.08175781 -12.72445313 5.85101563 -12.03515625 5.61328125 C-10.03562994 5.01073685 -8.03072091 4.48610098 -6 4 C-6 3.34 -6 2.68 -6 2 C-2.25 0 -2.25 0 0 0 Z " transform="translate(297,262)" style="fill: #9E1E45;"/><path d="M0 0 C0.84498047 0.34804688 0.84498047 0.34804688 1.70703125 0.703125 C0.71703125 1.033125 -0.27296875 1.363125 -1.29296875 1.703125 C-1.62296875 2.693125 -1.95296875 3.683125 -2.29296875 4.703125 C-7.52552689 9.703125 -7.52552689 9.703125 -12.29296875 9.703125 C-11.1097778 6.15355216 -9.87616958 5.24693712 -6.98046875 2.953125 C-5.81064453 2.00179687 -5.81064453 2.00179687 -4.6171875 1.03125 C-2.29296875 -0.296875 -2.29296875 -0.296875 0 0 Z " transform="translate(150.29296875,47.296875)" style="fill: #285088;"/><path d="M0 0 C-1.15173355 2.46800047 -2.04783565 4.04783565 -4 6 C-4.37004294 8.22658154 -4.37004294 8.22658154 -4.4140625 10.7890625 C-4.45273437 11.73007812 -4.49140625 12.67109375 -4.53125 13.640625 C-4.5621875 14.62546875 -4.593125 15.6103125 -4.625 16.625 C-4.66367187 17.61757813 -4.70234375 18.61015625 -4.7421875 19.6328125 C-4.8366314 22.08835385 -4.92219875 24.5438841 -5 27 C-5.33 27 -5.66 27 -6 27 C-6.11594584 23.06274674 -6.18716464 19.12593077 -6.25 15.1875 C-6.28351563 14.06794922 -6.31703125 12.94839844 -6.3515625 11.79492188 C-6.36445313 10.72177734 -6.37734375 9.64863281 -6.390625 8.54296875 C-6.41157227 7.55321045 -6.43251953 6.56345215 -6.45410156 5.54370117 C-6 3 -6 3 -4.10058594 1.15356445 C-2 0 -2 0 0 0 Z " transform="translate(392,310)" style="fill: #FDEEEE;"/><path d="M0 0 C0.99 0.33 1.98 0.66 3 1 C-2.61 4.3 -8.22 7.6 -14 11 C-14 10.01 -14 9.02 -14 8 C-13.38125 7.731875 -12.7625 7.46375 -12.125 7.1875 C-9.7004767 6.04443152 -9.7004767 6.04443152 -8 3 C-5.6859378 2.26924352 -3.35171131 1.59861742 -1 1 C-0.67 0.67 -0.34 0.34 0 0 Z " transform="translate(130,376)" style="fill: #184179;"/><path d="M0 0 C1.27208622 0.62244599 2.54261882 1.24806767 3.8125 1.875 C4.52019531 2.22304688 5.22789062 2.57109375 5.95703125 2.9296875 C8 4 8 4 11 6 C13.62531524 6.16713569 13.62531524 6.16713569 16 6 C15.67 6.66 15.34 7.32 15 8 C4.89118165 7.80828103 4.89118165 7.80828103 1.3125 4.5625 C0 2 0 2 0 0 Z " transform="translate(356,295)" style="fill: #C2192C;"/><path d="M0 0 C6.16356805 1.6658292 11.48259656 4.87805286 17 8 C17 8.33 17 8.66 17 9 C15.35 9 13.7 9 12 9 C12 8.34 12 7.68 12 7 C11.38511719 6.80664062 10.77023438 6.61328125 10.13671875 6.4140625 C8.92435547 6.02347656 8.92435547 6.02347656 7.6875 5.625 C6.88699219 5.36976563 6.08648437 5.11453125 5.26171875 4.8515625 C3 4 3 4 0 2 C0 1.34 0 0.68 0 0 Z " transform="translate(168,321)" style="fill: #17417D;"/><path d="M0 0 C0 2 0 2 -2.5 4.5625 C-6.17395407 7.55088369 -9.34965102 7.75946471 -14 8 C-4.57142857 0 -4.57142857 0 0 0 Z " transform="translate(307,238)" style="fill: #D2E3F1;"/><path d="M0 0 C0.66 0.33 1.32 0.66 2 1 C-4.54573171 7.8902439 -4.54573171 7.8902439 -9.3125 8.25 C-10.199375 8.1675 -11.08625 8.085 -12 8 C-9.72254211 5.51017465 -7.37664762 3.89631003 -4.4375 2.25 C-3.65246094 1.80140625 -2.86742187 1.3528125 -2.05859375 0.890625 C-1.37925781 0.59671875 -0.69992187 0.3028125 0 0 Z " transform="translate(329,203)" style="fill: #315891;"/><path d="M0 0 C-2.01726909 4.85179079 -5.44889527 6.68528899 -10 9 C-13 9.8125 -13 9.8125 -15 10 C-15 9.34 -15 8.68 -15 8 C-12.09399739 6.74335022 -10.20395416 6 -7 6 C-6.9175 5.38125 -6.835 4.7625 -6.75 4.125 C-6 2 -6 2 -4.0625 0.75 C-2 0 -2 0 0 0 Z " transform="translate(187,105)" style="fill: #15417D;"/><path d="M0 0 C2.31 0.66 4.62 1.32 7 2 C7 9.26 7 16.52 7 24 C6.01 23.67 5.02 23.34 4 23 C4.33 22.67 4.66 22.34 5 22 C5.15620555 20.58672053 5.25056173 19.1664541 5.31640625 17.74609375 C5.35830078 16.89208984 5.40019531 16.03808594 5.44335938 15.15820312 C5.48267578 14.26037109 5.52199219 13.36253906 5.5625 12.4375 C5.60568359 11.53580078 5.64886719 10.63410156 5.69335938 9.70507812 C5.79978142 7.47021515 5.90179988 5.23523692 6 3 C4.35 3 2.7 3 1 3 C0.67 2.01 0.34 1.02 0 0 Z " transform="translate(412,93)" style="fill: #0B3675;"/><path d="M0 0 C0 0.66 0 1.32 0 2 C-0.99 2 -1.98 2 -3 2 C-3.04125 2.61875 -3.0825 3.2375 -3.125 3.875 C-4 6 -4 6 -6.8125 7.3125 C-9.91991921 7.98272767 -11.08061566 7.88024821 -14 7 C-12.04480616 5.82807953 -10.0857461 4.6626071 -8.125 3.5 C-7.03445312 2.8503125 -5.94390625 2.200625 -4.8203125 1.53125 C-2 0 -2 0 0 0 Z " transform="translate(169,377)" style="fill: #CA384B;"/><path d="M0 0 C0 0.66 0 1.32 0 2 C-0.66 2 -1.32 2 -2 2 C-2.33 2.99 -2.66 3.98 -3 5 C-3.99 5 -4.98 5 -6 5 C-6 5.99 -6 6.98 -6 8 C-6.99 8.33 -7.98 8.66 -9 9 C-9 8.34 -9 7.68 -9 7 C-9.99 6.67 -10.98 6.34 -12 6 C-10.37829621 4.99466333 -8.75252763 3.99588093 -7.125 3 C-6.22007812 2.443125 -5.31515625 1.88625 -4.3828125 1.3125 C-2 0 -2 0 0 0 Z " transform="translate(172,415)" style="fill: #C52036;"/><path d="M0 0 C-1.16018357 3.48055071 -2.09282927 4.78136971 -5 7 C-8.75 7.25 -8.75 7.25 -12 7 C-9.20232475 3.70861735 -4.40323273 0 0 0 Z " transform="translate(298,222)" style="fill: #254C86;"/><path d="M0 0 C-1.41666667 4.25 -1.41666667 4.25 -4 6 C-6.71836308 6.25786843 -9.25839624 6.13483297 -12 6 C-8.42811627 2.0521285 -5.4000395 0 0 0 Z " transform="translate(310,216)" style="fill: #27508C;"/><path d="M0 0 C0.33 1.32 0.66 2.64 1 4 C1.66 4.33 2.32 4.66 3 5 C2.34 5 1.68 5 1 5 C1 8.96 1 12.92 1 17 C2.32 17.33 3.64 17.66 5 18 C3.35 18.99 1.7 19.98 0 21 C0 14.07 0 7.14 0 0 Z " transform="translate(81,346)" style="fill: #194381;"/><path d="M0 0 C4.49797113 1.68673918 8.72886302 3.81673892 13 6 C12.67 6.66 12.34 7.32 12 8 C10.35 8 8.7 8 7 8 C6.67 7.01 6.34 6.02 6 5 C4.7625 4.505 4.7625 4.505 3.5 4 C2.2625 3.505 2.2625 3.505 1 3 C0.67 2.01 0.34 1.02 0 0 Z " transform="translate(190,333)" style="fill: #16427E;"/><path d="M0 0 C1.98 0 3.96 0 6 0 C1.50898372 4.04191465 -3.58984989 6.43674441 -9 9 C-9 8.34 -9 7.68 -9 7 C-8.34 7 -7.68 7 -7 7 C-7 6.34 -7 5.68 -7 5 C-4.69 4.34 -2.38 3.68 0 3 C0 2.01 0 1.02 0 0 Z " transform="translate(386,188)" style="fill: #184181;"/><path d="M0 0 C2.64 0 5.28 0 8 0 C8 0.33 8 0.66 8 1 C6.3603125 1.37125 6.3603125 1.37125 4.6875 1.75 C-0.04033528 3.35265603 -0.95662642 5.02308163 -3.1875 9.25 C-3.455625 9.8275 -3.72375 10.405 -4 11 C-5.0326802 8.21176345 -5.04509293 7.1322726 -4.0625 4.25 C-3.711875 3.5075 -3.36125 2.765 -3 2 C-2.01 2 -1.02 2 0 2 C0 1.34 0 0.68 0 0 Z " transform="translate(285,71)" style="fill: #1A4381;"/><path d="M0 0 C0.66 0.33 1.32 0.66 2 1 C-1.74538039 5.19936589 -4.73412001 7.2766211 -10 9 C-12.21484375 8.5703125 -12.21484375 8.5703125 -14 8 C-13.24074219 7.59007812 -12.48148437 7.18015625 -11.69921875 6.7578125 C-10.70535156 6.21898437 -9.71148437 5.68015625 -8.6875 5.125 C-7.20830078 4.32449219 -7.20830078 4.32449219 -5.69921875 3.5078125 C-2.90413542 1.99277874 -2.90413542 1.99277874 0 0 Z " transform="translate(94,440)" style="fill: #FBDFE1;"/><path d="M0 0 C-1.45399296 3.83325416 -3.3080115 5.28279605 -7 7 C-9.8125 7.1875 -9.8125 7.1875 -12 7 C-3.55172414 0 -3.55172414 0 0 0 Z " transform="translate(349,391)" style="fill: #C62D40;"/><path d="M0 0 C0.66 0.33 1.32 0.66 2 1 C-2.86744914 5.73935838 -7.44418777 7.40639347 -14 9 C-11.50175511 6.18841591 -8.721524 4.55162169 -5.4375 2.75 C-4.46683594 2.20859375 -3.49617188 1.6671875 -2.49609375 1.109375 C-1.67238281 0.74328125 -0.84867187 0.3771875 0 0 Z " transform="translate(361,206)" style="fill: #C6D8E9;"/><path d="M0 0 C3.37503669 1.1858237 5.64722731 2.27573689 8 5 C5.03 4.505 5.03 4.505 2 4 C2 4.66 2 5.32 2 6 C0.68 5.67 -0.64 5.34 -2 5 C-1.34 3.35 -0.68 1.7 0 0 Z " transform="translate(238,201)" style="fill: #104284;"/><path d="M0 0 C0.66 0.33 1.32 0.66 2 1 C-3.75 6 -3.75 6 -6 6 C-6 6.66 -6 7.32 -6 8 C-7.32 7.67 -8.64 7.34 -10 7 C-7.20283196 3.70921407 -3.80471422 1.93694542 0 0 Z " transform="translate(185,388)" style="fill: #FCDDDE;"/><path d="M0 0 C1.32 0.66 2.64 1.32 4 2 C2.40377344 3.03320481 0.79770894 4.05122429 -0.8125 5.0625 C-2.15248047 5.91521484 -2.15248047 5.91521484 -3.51953125 6.78515625 C-6 8 -6 8 -9 7 C-8.360625 6.896875 -7.72125 6.79375 -7.0625 6.6875 C-6.381875 6.460625 -5.70125 6.23375 -5 6 C-4.67 5.01 -4.34 4.02 -4 3 C-1.9375 2.3125 -1.9375 2.3125 0 2 C0 1.34 0 0.68 0 0 Z " transform="translate(126,337)" style="fill: #123D7D;"/><path d="M0 0 C0 0.99 0 1.98 0 3 C-1.40751221 3.86916887 -2.8264521 4.71985149 -4.25 5.5625 C-5.03890625 6.03816406 -5.8278125 6.51382812 -6.640625 7.00390625 C-9 8 -9 8 -13 7 C-8.71 4.69 -4.42 2.38 0 0 Z " transform="translate(105,332)" style="fill: #234A84;"/><path d="M0 0 C-5.94 3.465 -5.94 3.465 -12 7 C-12.33 6.01 -12.66 5.02 -13 4 C-11.40233897 3.13372601 -9.79660056 2.28233535 -8.1875 1.4375 C-7.29417969 0.96183594 -6.40085937 0.48617187 -5.48046875 -0.00390625 C-3 -1 -3 -1 0 0 Z " transform="translate(358,248)" style="fill: #19447B;"/><path d="M0 0 C0.99 0.495 0.99 0.495 2 1 C2 1.66 2 2.32 2 3 C2.66 3.33 3.32 3.66 4 4 C4.28875 5.134375 4.5775 6.26875 4.875 7.4375 C5.61302892 11.05886586 5.61302892 11.05886586 8.125 12.4375 C8.74375 12.623125 9.3625 12.80875 10 13 C9.34 13.66 8.68 14.32 8 15 C7.03760548 13.75312408 6.08025991 12.50235031 5.125 11.25 C4.59132813 10.55390625 4.05765625 9.8578125 3.5078125 9.140625 C1.26470221 5.95610573 0 3.94432537 0 0 Z " transform="translate(385,96)" style="fill: #143B79;"/><path d="M0 0 C0.66 0 1.32 0 2 0 C0.18061137 3.79039298 -1.77768563 7.43082843 -4 11 C-4.99 11.33 -5.98 11.66 -7 12 C-5.50328459 7.50985376 -3.16631659 3.52151236 0 0 Z " transform="translate(392,55)" style="fill: #2B5086;"/><path d="M0 0 C4.97209562 1.76429199 9.43438061 4.3939166 14 7 C13.67 7.66 13.34 8.32 13 9 C12.34 9 11.68 9 11 9 C11 8.34 11 7.68 11 7 C10.01 7 9.02 7 8 7 C8 6.34 8 5.68 8 5 C6.865625 4.731875 5.73125 4.46375 4.5625 4.1875 C3.386875 3.795625 2.21125 3.40375 1 3 C0.67 2.01 0.34 1.02 0 0 Z " transform="translate(249,392)" style="fill: #BD273B;"/><path d="M0 0 C0.33 0 0.66 0 1 0 C1 6.6 1 13.2 1 20 C-0.98 20.99 -0.98 20.99 -3 22 C-2.67 20.68 -2.34 19.36 -2 18 C-1.34 18 -0.68 18 0 18 C0 12.06 0 6.12 0 0 Z " transform="translate(351,369)" style="fill: #FEEDEF;"/><path d="M0 0 C1.65 0.33 3.3 0.66 5 1 C-3.20689655 8 -3.20689655 8 -8 8 C-8 7.34 -8 6.68 -8 6 C-7.01 6 -6.02 6 -5 6 C-5 5.34 -5 4.68 -5 4 C-3.68 4 -2.36 4 -1 4 C-0.67 2.68 -0.34 1.36 0 0 Z " transform="translate(379,273)" style="fill: #C2253A;"/><path d="M0 0 C-3.0684847 2.97550031 -4.46236331 3.96474513 -8.8125 4.25 C-9.864375 4.1675 -10.91625 4.085 -12 4 C-4.78350515 -2.39175258 -4.78350515 -2.39175258 0 0 Z " transform="translate(215,393)" style="fill: #C9243C;"/><path d="M0 0 C0 0.66 0 1.32 0 2 C-1.40751221 2.86916887 -2.8264521 3.71985149 -4.25 4.5625 C-5.03890625 5.03816406 -5.8278125 5.51382812 -6.640625 6.00390625 C-9.30844625 7.13022151 -10.34501768 7.0169313 -13 6 C-11.21118264 4.99491199 -9.41885304 3.99607264 -7.625 3 C-6.62726563 2.443125 -5.62953125 1.88625 -4.6015625 1.3125 C-2 0 -2 0 0 0 Z " transform="translate(399,285)" style="fill: #C2283F;"/><path d="M0 0 C1.62723299 0.45034123 3.25173664 0.91055354 4.875 1.375 C5.77992188 1.63023438 6.68484375 1.88546875 7.6171875 2.1484375 C10 3 10 3 12 5 C12.99 5.66 13.98 6.32 15 7 C8.94696161 6.6216851 4.81617877 4.70282835 0 1 C0 0.67 0 0.34 0 0 Z " transform="translate(142,109)" style="fill: #365A92;"/><path d="M0 0 C0.33 0 0.66 0 1 0 C1 1.65 1 3.3 1 5 C1.99 5.33 2.98 5.66 4 6 C2.68 8.31 1.36 10.62 0 13 C-0.33 13 -0.66 13 -1 13 C-1.0272415 11.58344207 -1.04650467 10.16672955 -1.0625 8.75 C-1.07410156 7.96109375 -1.08570313 7.1721875 -1.09765625 6.359375 C-1.00385306 4.09308998 -0.63241063 2.1711105 0 0 Z " transform="translate(281,47)" style="fill: #A9C4E2;"/><path d="M0 0 C2.375 1.3125 2.375 1.3125 3.1875 3.4375 C3.249375 4.05625 3.31125 4.675 3.375 5.3125 C-0.40045388 4.22181332 -3.09543472 3.4041909 -5.625 0.3125 C-2.625 -0.6875 -2.625 -0.6875 0 0 Z " transform="translate(238.625,418.6875)" style="fill: #C82339;"/><path d="M0 0 C-0.33 1.32 -0.66 2.64 -1 4 C-3.97 3.505 -3.97 3.505 -7 3 C-7.33 2.01 -7.66 1.02 -8 0 C-5.13822943 -1.43088528 -3.06624227 -0.59991697 0 0 Z " transform="translate(368,226)" style="fill: #023981;"/><path d="M0 0 C0.8971875 0.3403125 0.8971875 0.3403125 1.8125 0.6875 C-1.80078125 5.375 -1.80078125 5.375 -3.1875 6.6875 C-4.1775 6.6875 -5.1675 6.6875 -6.1875 6.6875 C-5.78066505 4.32785727 -5.28935661 2.82815912 -3.875 0.875 C-2.1875 -0.3125 -2.1875 -0.3125 0 0 Z " transform="translate(291.1875,48.3125)" style="fill: #144082;"/><path d="M0 0 C-3.63 2.31 -7.26 4.62 -11 7 C-11.66 6.34 -12.32 5.68 -13 5 C-12.01 5 -11.02 5 -10 5 C-10 4.01 -10 3.02 -10 2 C-8.71211992 1.46987262 -7.41953322 0.9511671 -6.125 0.4375 C-5.40570313 0.14746094 -4.68640625 -0.14257812 -3.9453125 -0.44140625 C-2 -1 -2 -1 0 0 Z " transform="translate(410,218)" style="fill: #193E7E;"/><path d="M0 0 C5.15464734 0.48324819 8.81550319 3.18610761 13 6 C12.01 6.33 11.02 6.66 10 7 C8.30712215 6.04504326 6.64142963 5.0409066 5 4 C4.2575 3.835 3.515 3.67 2.75 3.5 C2.1725 3.335 1.595 3.17 1 3 C0.67 2.01 0.34 1.02 0 0 Z " transform="translate(225,194)" style="fill: #193F81;"/><path d="M0 0 C0.99 0.33 1.98 0.66 3 1 C-1.625 6.875 -1.625 6.875 -5 8 C-3.8141763 4.62496331 -2.72426311 2.35277269 0 0 Z " transform="translate(342,107)" style="fill: #18417F;"/><path d="M0 0 C3.20575987 0.34347427 3.97516759 0.9707854 6.125 3.5 C6.74375 4.325 7.3625 5.15 8 6 C8.66 6.33 9.32 6.66 10 7 C10 7.66 10 8.32 10 9 C6.04322598 7.32598022 3.15535787 4.86850715 0 2 C0 1.34 0 0.68 0 0 Z " transform="translate(91,104)" style="fill: #224880;"/><path d="M0 0 C-4.95 2.475 -4.95 2.475 -10 5 C-8 0 -8 0 -6.125 -0.875 C-4 -1 -4 -1 0 0 Z " transform="translate(155,406)" style="fill: #C11E33;"/><path d="M0 0 C-2.51830747 3.12270126 -3.7261549 3.94523098 -7.75 4.75 C-9.35875 4.87375 -9.35875 4.87375 -11 5 C-4.74206349 -1.42261905 -4.74206349 -1.42261905 0 0 Z " transform="translate(276,275)" style="fill: #902249;"/><path d="M0 0 C-1 3 -1 3 -3.8125 4.75 C-7.13982105 6.05483179 -7.79584277 6.02866653 -11 5 C-9.54462432 4.16151196 -8.08559627 3.32936066 -6.625 2.5 C-5.40683594 1.80390625 -5.40683594 1.80390625 -4.1640625 1.09375 C-2 0 -2 0 0 0 Z " transform="translate(140,218)" style="fill: #365A90;"/><path d="M0 0 C0 0.99 0 1.98 0 3 C-0.66 3 -1.32 3 -2 3 C-2.33 3.66 -2.66 4.32 -3 5 C-7.29 4.67 -11.58 4.34 -16 4 C-16 3.67 -16 3.34 -16 3 C-15.15695312 2.95101562 -14.31390625 2.90203125 -13.4453125 2.8515625 C-12.34960938 2.77679688 -11.25390625 2.70203125 -10.125 2.625 C-8.48917969 2.52058594 -8.48917969 2.52058594 -6.8203125 2.4140625 C-3.64097554 1.94729004 -3.00295671 0 0 0 Z " transform="translate(340,114)" style="fill: #B6C9E0;"/><path d="M0 0 C-0.125 1.875 -0.125 1.875 -1 4 C-4.0625 5.25 -4.0625 5.25 -7 6 C-4.84615385 0 -4.84615385 0 0 0 Z " transform="translate(142,56)" style="fill: #134489;"/><path d="M0 0 C0.33 0.99 0.66 1.98 1 3 C1.99 2.67 2.98 2.34 4 2 C3.1875 3.9375 3.1875 3.9375 2 6 C-1 7 -1 7 -3 6 C-1.125 1.125 -1.125 1.125 0 0 Z " transform="translate(315,53)" style="fill: #1F4B90;"/><path d="M0 0 C1.32 0.33 2.64 0.66 4 1 C0.37 2.98 -3.26 4.96 -7 7 C-7 6.01 -7 5.02 -7 4 C-4.35261084 2.5393715 -3.10551666 2 0 2 C0 1.34 0 0.68 0 0 Z " transform="translate(135,393)" style="fill: #FDDCDE;"/><path d="M0 0 C1.31571603 0.2547514 2.62760376 0.52934141 3.9375 0.8125 C4.66839844 0.96332031 5.39929688 1.11414063 6.15234375 1.26953125 C6.76207031 1.51058594 7.37179688 1.75164062 8 2 C8.33 2.99 8.66 3.98 9 5 C5.7 4.34 2.4 3.68 -1 3 C-0.67 2.01 -0.34 1.02 0 0 Z " transform="translate(164,354)" style="fill: #154188;"/><path d="M0 0 C4.30764815 1.56641751 8.06171464 3.68336156 12 6 C11.67 6.66 11.34 7.32 11 8 C7.37 6.02 3.74 4.04 0 2 C0 1.34 0 0.68 0 0 Z " transform="translate(155,313)" style="fill: #1C437E;"/><path d="M0 0 C6.52307692 1.47692308 6.52307692 1.47692308 8.9375 4.125 C9.288125 4.74375 9.63875 5.3625 10 6 C9.01 6.33 8.02 6.66 7 7 C7 6.34 7 5.68 7 5 C6.21625 4.9175 5.4325 4.835 4.625 4.75 C2 4 2 4 0.6875 1.9375 C0.460625 1.298125 0.23375 0.65875 0 0 Z " transform="translate(312,268)" style="fill: #B3304D;"/><path d="M0 0 C2.31 0 4.62 0 7 0 C7.66 1.98 8.32 3.96 9 6 C5.06326356 4.68775452 2.77280706 3.08089673 0 0 Z " transform="translate(308,264)" style="fill: #273575;"/><path d="M0 0 C0.66 0.33 1.32 0.66 2 1 C-3.29230769 5.92307692 -3.29230769 5.92307692 -6.875 6.3125 C-7.926875 6.1578125 -7.926875 6.1578125 -9 6 C-3.30379747 1.25316456 -3.30379747 1.25316456 0 0 Z " transform="translate(385,232)" style="fill: #DBE9F4;"/><path d="M0 0 C2.31 0.66 4.62 1.32 7 2 C7 2.66 7 3.32 7 4 C7.99 3.67 8.98 3.34 10 3 C10.33 4.32 10.66 5.64 11 7 C6.89188572 5.55007731 3.53144334 3.54592427 0 1 C0 0.67 0 0.34 0 0 Z " transform="translate(216,224)" style="fill: #284E88;"/><path d="M0 0 C1.32 0.33 2.64 0.66 4 1 C0.37 2.98 -3.26 4.96 -7 7 C-7.33 6.34 -7.66 5.68 -8 5 C-7.34 5 -6.68 5 -6 5 C-6 4.34 -6 3.68 -6 3 C-4.02 2.67 -2.04 2.34 0 2 C0 1.34 0 0.68 0 0 Z " transform="translate(364,202)" style="fill: #284F88;"/><path d="M0 0 C0 5.1385061 -2.84297684 9.09130466 -6 13 C-5.26083824 7.97370003 -3.63107238 3.63107238 0 0 Z " transform="translate(218,15)" style="fill: #3B5D8F;"/><path d="M0 0 C2 1 2 1 3 3 C1.54494642 3.52992692 0.08581873 4.0486789 -1.375 4.5625 C-2.59316406 4.99755859 -2.59316406 4.99755859 -3.8359375 5.44140625 C-6 6 -6 6 -8 5 C-6.71475739 4.13619741 -5.42157581 3.28419631 -4.125 2.4375 C-3.04605469 1.72400391 -3.04605469 1.72400391 -1.9453125 0.99609375 C-1.30335938 0.66738281 -0.66140625 0.33867187 0 0 Z " transform="translate(136,353)" style="fill: #355B8F;"/><path d="M0 0 C-3.66291938 2.47785723 -6.6109185 3.48964169 -11 4 C-7.64918101 0.31409911 -4.96535219 -1.77334007 0 0 Z " transform="translate(349,276)" style="fill: #C72741;"/><path d="M0 0 C0.66 0 1.32 0 2 0 C3.7143618 1.95927063 5.38405168 3.95880212 7 6 C6.01 6.495 6.01 6.495 5 7 C3.02 5.68 1.04 4.36 -1 3 C-0.67 2.01 -0.34 1.02 0 0 Z " transform="translate(320,269)" style="fill: #F1D8DF;"/><path d="M0 0 C0.66 0.33 1.32 0.66 2 1 C-2.75 5.875 -2.75 5.875 -5 7 C-5 6.34 -5 5.68 -5 5 C-5.66 4.67 -6.32 4.34 -7 4 C-1.7265625 0.77734375 -1.7265625 0.77734375 0 0 Z " transform="translate(329,224)" style="fill: #CEDEEE;"/><path d="M0 0 C0.99 0.33 1.98 0.66 3 1 C3 1.66 3 2.32 3 3 C3.99 3.33 4.98 3.66 6 4 C3.625 5.5625 3.625 5.5625 1 7 C0.34 6.67 -0.32 6.34 -1 6 C-0.67 4.02 -0.34 2.04 0 0 Z " transform="translate(110,65)" style="fill: #134286;"/><path d="M0 0 C0.91007812 0.00902344 1.82015625 0.01804688 2.7578125 0.02734375 C3.45648438 0.03894531 4.15515625 0.05054688 4.875 0.0625 C4.875 0.3925 4.875 0.7225 4.875 1.0625 C2.235 1.0625 -0.405 1.0625 -3.125 1.0625 C-3.125 1.7225 -3.125 2.3825 -3.125 3.0625 C-5.435 3.3925 -7.745 3.7225 -10.125 4.0625 C-6.74032128 0.52397224 -4.89499091 -0.06275629 0 0 Z " transform="translate(329.125,45.9375)" style="fill: #43679C;"/><path d="M0 0 C0.78375 0.04125 1.5675 0.0825 2.375 0.125 C2.375 1.115 2.375 2.105 2.375 3.125 C0.395 3.785 -1.585 4.445 -3.625 5.125 C-3.955 4.135 -4.285 3.145 -4.625 2.125 C-2.625 0.125 -2.625 0.125 0 0 Z " transform="translate(168.625,433.875)" style="fill: #CC1C32;"/><path d="M0 0 C0 0.66 0 1.32 0 2 C-3.44450737 4.29633824 -5.93812283 4.54016485 -10 5 C-6.99385784 1.69324363 -4.54252119 0 0 0 Z " transform="translate(159,423)" style="fill: #C93749;"/><path d="M0 0 C0 0.66 0 1.32 0 2 C-0.66 2 -1.32 2 -2 2 C-2.33 2.99 -2.66 3.98 -3 5 C-4.98 5 -6.96 5 -9 5 C-6.45523312 2.20075644 -3.92372883 0 0 0 Z " transform="translate(323,406)" style="fill: #CA364B;"/><path d="M0 0 C2.92879371 0.62759865 5.36095629 1.58622659 8 3 C8 4.32 8 5.64 8 7 C6 7 6 7 4 5.0625 C3.34 4.381875 2.68 3.70125 2 3 C1.34 2.67 0.68 2.34 0 2 C0 1.34 0 0.68 0 0 Z " transform="translate(178,361)" style="fill: #435B8E;"/><path d="M0 0 C0 2.31 0 4.62 0 7 C-0.33 5.68 -0.66 4.36 -1 3 C-3.31 3.33 -5.62 3.66 -8 4 C-8 3.34 -8 2.68 -8 2 C-5.09399739 0.74335022 -3.20395416 0 0 0 Z " transform="translate(211,338)" style="fill: #1F4480;"/><path d="M0 0 C2.31 0 4.62 0 7 0 C1.85714286 4.42857143 1.85714286 4.42857143 -2 5 C-2 4.34 -2 3.68 -2 3 C-1.34 3 -0.68 3 0 3 C0 2.01 0 1.02 0 0 Z " transform="translate(363,282)" style="fill: #C6253B;"/><path d="M0 0 C0.99 0.99 1.98 1.98 3 3 C-0.96 4.98 -0.96 4.98 -5 7 C-4.67 5.35 -4.34 3.7 -4 2 C-2.02 2.495 -2.02 2.495 0 3 C0 2.01 0 1.02 0 0 Z " transform="translate(391,266)" style="fill: #C41D35;"/><path d="M0 0 C1.65 0 3.3 0 5 0 C2.16569547 3.2542015 0.31392226 4.5206753 -4 5 C-4.33 4.34 -4.66 3.68 -5 3 C-4.360625 2.87625 -3.72125 2.7525 -3.0625 2.625 C-2.0415625 2.315625 -2.0415625 2.315625 -1 2 C-0.67 1.34 -0.34 0.68 0 0 Z " transform="translate(321,265)" style="fill: #184280;"/><path d="M0 0 C0 0.66 0 1.32 0 2 C-0.99 2 -1.98 2 -3 2 C-3.268125 2.639375 -3.53625 3.27875 -3.8125 3.9375 C-5 6 -5 6 -8 7 C-8.66 6.34 -9.32 5.68 -10 5 C-7 3 -7 3 -4 3 C-4 2.34 -4 1.68 -4 1 C-2 0 -2 0 0 0 Z " transform="translate(418,255)" style="fill: #F9CED1;"/><path d="M0 0 C1.29640378 0.59393382 2.58698839 1.20057989 3.875 1.8125 C4.59429687 2.14894531 5.31359375 2.48539063 6.0546875 2.83203125 C8 4 8 4 10 7 C6.41954683 7 5.70316905 6.19632485 3 4 C2.01 3.34 1.02 2.68 0 2 C0 1.34 0 0.68 0 0 Z " transform="translate(248,207)" style="fill: #103979;"/><path d="M0 0 C0.66 0.33 1.32 0.66 2 1 C0.35 2.65 -1.3 4.3 -3 6 C-4.32 5.34 -5.64 4.68 -7 4 C-1.7265625 0.77734375 -1.7265625 0.77734375 0 0 Z " transform="translate(348,192)" style="fill: #385E95;"/><path d="M0 0 C4 2 8 4 12 6 C10.56163249 5.88541307 9.12429034 5.75790884 7.6875 5.625 C6.88699219 5.55539063 6.08648437 5.48578125 5.26171875 5.4140625 C3 5 3 5 0 3 C0 2.01 0 1.02 0 0 Z " transform="translate(96,110)" style="fill: #D7E9F7;"/><path d="M0 0 C0.66 0.66 1.32 1.32 2 2 C1.96712417 4.72869407 1.43602229 7.2966618 1 10 C-0.625 8.375 -0.625 8.375 -2 6 C-1.1875 2.75 -1.1875 2.75 0 0 Z " transform="translate(155,65)" style="fill: #083778;"/><path d="M0 0 C0 0.66 0 1.32 0 2 C0.99 1.34 1.98 0.68 3 0 C3.99 0.33 4.98 0.66 6 1 C2.04 2.98 2.04 2.98 -2 5 C-2.33 3.68 -2.66 2.36 -3 1 C-2 0 -2 0 0 0 Z " transform="translate(114,425)" style="fill: #C01C2F;"/><path d="M0 0 C0.66 0.33 1.32 0.66 2 1 C-0.36292656 3.52588702 -1.66462511 4.88820837 -5 6 C-5.66 5.34 -6.32 4.68 -7 4 C-1.7265625 0.77734375 -1.7265625 0.77734375 0 0 Z " transform="translate(202,418)" style="fill: #FBD7DB;"/><path d="M0 0 C-1.32 0.33 -2.64 0.66 -4 1 C-4 1.66 -4 2.32 -4 3 C-7 5 -7 5 -10 5 C-9 2 -9 2 -7.25 0.8125 C-4.70039426 -0.10819096 -2.69076919 -0.14948718 0 0 Z " transform="translate(188,368)" style="fill: #C12C3E;"/><path d="M0 0 C1.65 0 3.3 0 5 0 C2.63202009 2.61724095 0.10399646 4.32861729 -3 6 C-3.66 6 -4.32 6 -5 6 C-4 3 -4 3 -1.9375 1.8125 C-1.298125 1.544375 -0.65875 1.27625 0 1 C0 0.67 0 0.34 0 0 Z " transform="translate(257,317)" style="fill: #BD2338;"/><path d="M0 0 C0 0.66 0 1.32 0 2 C-3.07115285 4.95303159 -5.8333396 5.52651586 -10 6 C-9.67 5.34 -9.34 4.68 -9 4 C-8.01 4 -7.02 4 -6 4 C-6 3.34 -6 2.68 -6 2 C-2.25 0 -2.25 0 0 0 Z " transform="translate(297,262)" style="fill: #BD2D46;"/><path d="M0 0 C-1 3 -1 3 -4 5 C-6.6875 5.125 -6.6875 5.125 -9 5 C-2.87096774 0 -2.87096774 0 0 0 Z " transform="translate(405,263)" style="fill: #FDDFDF;"/><path d="M0 0 C0.33 0.66 0.66 1.32 1 2 C0.34 2 -0.32 2 -1 2 C-1.33 2.99 -1.66 3.98 -2 5 C-4.375 6.25 -4.375 6.25 -7 7 C-7.99 6.67 -8.98 6.34 -10 6 C-6.7 4.02 -3.4 2.04 0 0 Z " transform="translate(401,243)" style="fill: #B82234;"/><path d="M0 0 C0.66 0.33 1.32 0.66 2 1 C0.68 2.65 -0.64 4.3 -2 6 C-3.65 5.67 -5.3 5.34 -7 5 C-4.702779 3.25728062 -2.40133271 1.60088848 0 0 Z " transform="translate(414,215)" style="fill: #D8E6F3;"/><path d="M0 0 C1.32 0 2.64 0 4 0 C4 0.66 4 1.32 4 2 C5.65 2 7.3 2 9 2 C9 2.33 9 2.66 9 3 C5.37 3 1.74 3 -2 3 C-1.34 2.01 -0.68 1.02 0 0 Z " transform="translate(411,44)" style="fill: #DBEAFA;"/><path d="M0 0 C0.66 0.33 1.32 0.66 2 1 C-1.07999946 4.67230705 -3.2482602 5.56802365 -8 6 C-5.63404067 3.38499232 -3.13950774 1.61000397 0 0 Z " transform="translate(366,417)" style="fill: #F9CCCF;"/><path d="M0 0 C1.32 0 2.64 0 4 0 C4 0.66 4 1.32 4 2 C5.65 2.33 7.3 2.66 9 3 C9.33 3.99 9.66 4.98 10 6 C6.00499382 4.6302836 3.19990508 2.74277578 0 0 Z " transform="translate(286,412)" style="fill: #F9CBD0;"/><path d="M0 0 C1.32 0.33 2.64 0.66 4 1 C2.71186658 1.83878455 1.41936744 2.67086783 0.125 3.5 C-0.59429687 3.9640625 -1.31359375 4.428125 -2.0546875 4.90625 C-4 6 -4 6 -6 6 C-5.67 5.01 -5.34 4.02 -5 3 C-3.35 2.67 -1.7 2.34 0 2 C0 1.34 0 0.68 0 0 Z " transform="translate(114,405)" style="fill: #FEE3E3;"/><path d="M0 0 C1.65 0 3.3 0 5 0 C5 0.66 5 1.32 5 2 C6.32 2 7.64 2 9 2 C9 2.99 9 3.98 9 5 C5.54074837 3.7508258 2.85306797 2.32472205 0 0 Z " transform="translate(268,402)" style="fill: #F9D3D5;"/><path d="M0 0 C2.31 0 4.62 0 7 0 C4.64722731 2.72426311 2.37503669 3.8141763 -1 5 C-0.67 3.35 -0.34 1.7 0 0 Z " transform="translate(106,348)" style="fill: #17427D;"/><path d="M0 0 C0.33 0.99 0.66 1.98 1 3 C-3.75 6 -3.75 6 -6 6 C-6 5.34 -6 4.68 -6 4 C-5.01 4 -4.02 4 -3 4 C-3.33 3.01 -3.66 2.02 -4 1 C-2.68 0.67 -1.36 0.34 0 0 Z " transform="translate(366,240)" style="fill: #164382;"/><path d="M0 0 C0.33 0.99 0.66 1.98 1 3 C-1.97 3 -4.94 3 -8 3 C-7 1 -7 1 -5.125 0.375 C-3 0 -3 0 0 0 Z " transform="translate(120,42)" style="fill: #D8ECF8;"/><path d="M0 0 C1.32 0 2.64 0 4 0 C4 0.66 4 1.32 4 2 C5.65 2.33 7.3 2.66 9 3 C9 3.66 9 4.32 9 5 C5.22454612 3.90931332 2.52956528 3.0916909 0 0 Z " transform="translate(219,411)" style="fill: #C12F3E;"/><path d="M0 0 C-0.33 1.32 -0.66 2.64 -1 4 C-4 4 -4 4 -7 3 C-2.25 0 -2.25 0 0 0 Z " transform="translate(337,398)" style="fill: #CB2C3F;"/><path d="M0 0 C0.66 0.33 1.32 0.66 2 1 C2 2.32 2 3.64 2 5 C0.68 5 -0.64 5 -2 5 C-1.34 3.35 -0.68 1.7 0 0 Z " transform="translate(170,375)" style="fill: #D32336;"/><path d="M0 0 C0.66 0.33 1.32 0.66 2 1 C1.67 1.99 1.34 2.98 1 4 C-0.65 4 -2.3 4 -4 4 C-4.33 4.66 -4.66 5.32 -5 6 C-5.66 5.34 -6.32 4.68 -7 4 C-1.7265625 0.77734375 -1.7265625 0.77734375 0 0 Z " transform="translate(145,348)" style="fill: #2D578E;"/><path d="M0 0 C0.66 0.33 1.32 0.66 2 1 C-1.07999946 4.67230705 -3.2482602 5.56802365 -8 6 C-5.38485683 3.87961365 -2.80362384 1.86908256 0 0 Z " transform="translate(371,281)" style="fill: #FACED2;"/><path d="M0 0 C0.66 0.33 1.32 0.66 2 1 C-0.97 3.475 -0.97 3.475 -4 6 C-4.99 5.34 -5.98 4.68 -7 4 C-1.7265625 0.77734375 -1.7265625 0.77734375 0 0 Z " transform="translate(334,261)" style="fill: #C9DCEF;"/><path d="M0 0 C-0.33 1.32 -0.66 2.64 -1 4 C-3.375 4.625 -3.375 4.625 -6 5 C-6.66 4.34 -7.32 3.68 -8 3 C-2.25 0 -2.25 0 0 0 Z " transform="translate(410,239)" style="fill: #C22239;"/><path d="M0 0 C0.66 0.33 1.32 0.66 2 1 C0.35 2.65 -1.3 4.3 -3 6 C-3 5.34 -3 4.68 -3 4 C-3.66 3.67 -4.32 3.34 -5 3 C-2.625 1.4375 -2.625 1.4375 0 0 Z " transform="translate(195,186)" style="fill: #2B5592;"/><path d="M0 0 C0.66 0.33 1.32 0.66 2 1 C0.8125 3 0.8125 3 -1 5 C-3.6875 5.25 -3.6875 5.25 -6 5 C-4.06745228 2.9754262 -2.36841312 1.57894208 0 0 Z " transform="translate(121,464)" style="fill: #FBCDD3;"/><path d="M0 0 C0.66 0.33 1.32 0.66 2 1 C0.6875 2.5 0.6875 2.5 -1 4 C-1.99 4 -2.98 4 -4 4 C-4.33 4.99 -4.66 5.98 -5 7 C-5.99 6.34 -6.98 5.68 -8 5 C-6.71475739 4.13619741 -5.42157581 3.28419631 -4.125 2.4375 C-3.04605469 1.72400391 -3.04605469 1.72400391 -1.9453125 0.99609375 C-1.30335938 0.66738281 -0.66140625 0.33867187 0 0 Z " transform="translate(149,387)" style="fill: #CA3A50;"/><path d="M0 0 C1.65 0.33 3.3 0.66 5 1 C2.64031256 3.09749995 1.45383006 3.96905704 -1.75 4.1875 C-2.86375 4.0946875 -2.86375 4.0946875 -4 4 C-3.01 3.67 -2.02 3.34 -1 3 C-0.67 2.01 -0.34 1.02 0 0 Z " transform="translate(207,372)" style="fill: #1C3F7A;"/><path d="M0 0 C1.98 0.66 3.96 1.32 6 2 C5.01 3.485 5.01 3.485 4 5 C2.68 4.67 1.36 4.34 0 4 C0 2.68 0 1.36 0 0 Z " transform="translate(82,346)" style="fill: #03387C;"/><path d="M0 0 C-6.75 4 -6.75 4 -9 4 C-8 1 -8 1 -6.1875 -0.25 C-3.66056586 -1.11637742 -2.47778006 -0.88492145 0 0 Z " transform="translate(112,329)" style="fill: #DAE9F7;"/><path d="M0 0 C0.66 0.33 1.32 0.66 2 1 C1.67 1.66 1.34 2.32 1 3 C0.34 3 -0.32 3 -1 3 C-1 3.66 -1 4.32 -1 5 C-2.65 5 -4.3 5 -6 5 C-2.25 1.125 -2.25 1.125 0 0 Z " transform="translate(262,280)" style="fill: #A02642;"/><path d="M0 0 C0.99 0.66 1.98 1.32 3 2 C-0.96 3.98 -0.96 3.98 -5 6 C-5 5.01 -5 4.02 -5 3 C-3.68 3 -2.36 3 -1 3 C-0.67 2.01 -0.34 1.02 0 0 Z " transform="translate(301,256)" style="fill: #E9DAE5;"/><path d="M0 0 C0.66 0.33 1.32 0.66 2 1 C0.02579865 3.52259061 -0.96745642 3.9929808 -4.1875 4.6875 C-5.5796875 4.8421875 -5.5796875 4.8421875 -7 5 C-2.25 1.125 -2.25 1.125 0 0 Z " transform="translate(355,249)" style="fill: #CEE1F1;"/><path d="M0 0 C3.45925163 1.2491742 6.14693203 2.67527795 9 5 C5.26512223 4.5020163 3.18762365 4.12508244 0 2 C0 1.34 0 0.68 0 0 Z " transform="translate(277,225)" style="fill: #1B417D;"/><path d="M0 0 C0 0.99 0 1.98 0 3 C-2.31 3.33 -4.62 3.66 -7 4 C-3.17391304 0 -3.17391304 0 0 0 Z " transform="translate(172,200)" style="fill: #41639A;"/><path d="M0 0 C-1.36983503 3.16115776 -1.9890638 3.9927092 -5 6 C-5.33 4.68 -5.66 3.36 -6 2 C-2.25 0 -2.25 0 0 0 Z " transform="translate(187,105)" style="fill: #234C85;"/><path d="M0 0 C1.125 1.75 1.125 1.75 2 4 C1.125 6.25 1.125 6.25 0 8 C-2 6 -2 6 -2 3 C-1.34 3 -0.68 3 0 3 C0 2.01 0 1.02 0 0 Z " transform="translate(156,89)" style="fill: #17458D;"/><path d="M0 0 C0.33 0 0.66 0 1 0 C2.29243536 4.1196377 3.26252625 7.66831683 3 12 C1.09598862 10.09598862 0.06479561 8.66574314 -0.19921875 5.953125 C-0.1886578 3.96766727 -0.09915043 1.9830086 0 0 Z " transform="translate(408,78)" style="fill: #B6CCE5;"/></svg>