<?xml version="1.0" encoding="UTF-8"?>
<svg xmlns="http://www.w3.org/2000/svg" xmlns:xlink="http://www.w3.org/1999/xlink" width="110px" height="110px" viewBox="0 0 110 110" version="1.1">
<g id="surface1">
<rect x="0" y="0" width="110" height="110" style="fill:rgb(99.215686%,99.215686%,99.215686%);fill-opacity:1;stroke:none;"/>
<path style=" stroke:none;fill-rule:nonzero;fill:rgb(81.568627%,7.058824%,16.078431%);fill-opacity:1;" d="M 17.855469 31.964844 C 27.875 31.925781 37.890625 31.984375 47.910156 32.058594 L 48.398438 32.0625 C 52.546875 32.09375 56.699219 32.128906 60.847656 32.160156 C 63.257812 32.179688 65.667969 32.199219 68.078125 32.214844 L 68.597656 32.21875 L 71.183594 32.242188 C 78.246094 32.292969 85.304688 32.347656 92.363281 32.40625 L 92.363281 38.355469 L 90.269531 39.488281 C 86.808594 41.367188 83.371094 43.316406 80.058594 45.445312 C 79.421875 45.816406 78.78125 46.140625 78.121094 46.464844 C 76.734375 47.152344 75.402344 47.914062 74.066406 48.703125 L 72.746094 49.480469 L 72.085938 49.871094 C 71.195312 50.394531 70.304688 50.914062 69.414062 51.433594 C 68.816406 51.78125 68.214844 52.132812 67.617188 52.484375 C 67.261719 52.695312 66.902344 52.902344 66.546875 53.113281 L 65.988281 53.441406 L 65.457031 53.753906 L 64.980469 54.03125 C 64.589844 54.226562 64.589844 54.226562 64.148438 54.226562 L 64.148438 58.195312 C 66.019531 57.214844 67.863281 56.207031 69.679688 55.125 C 71.03125 54.324219 72.394531 53.550781 73.765625 52.78125 C 75.460938 51.828125 77.140625 50.859375 78.796875 49.839844 C 79.628906 49.339844 80.484375 48.878906 81.335938 48.417969 C 82.523438 47.773438 83.703125 47.125 84.882812 46.472656 L 85.273438 46.257812 C 87.136719 45.222656 88.976562 44.160156 90.777344 43.019531 C 91.882812 42.324219 91.882812 42.324219 92.363281 42.324219 C 92.675781 43.859375 92.894531 45.449219 92.363281 46.953125 C 91.320312 48.1875 89.691406 48.792969 88.257812 49.460938 C 87.101562 50.019531 86.003906 50.667969 84.898438 51.316406 C 84.246094 51.695312 83.59375 52.066406 82.9375 52.4375 L 81.742188 53.117188 C 80.679688 53.726562 79.613281 54.332031 78.550781 54.941406 L 76.636719 56.035156 L 75.894531 56.460938 L 70.542969 59.519531 L 70.542969 59.960938 C 70.980469 60.289062 71.4375 60.59375 71.90625 60.882812 L 72.292969 61.136719 C 73.058594 61.617188 73.058594 61.617188 73.9375 61.667969 C 74.535156 61.496094 75.003906 61.269531 75.539062 60.964844 L 76.140625 60.621094 L 76.78125 60.25 L 77.453125 59.867188 C 79.320312 58.792969 81.179688 57.710938 83.03125 56.621094 C 84.25 55.90625 85.476562 55.214844 86.71875 54.542969 C 87.738281 53.984375 88.734375 53.382812 89.730469 52.78125 L 90.199219 52.503906 L 90.613281 52.253906 C 91.101562 51.992188 91.625 51.789062 92.144531 51.582031 L 92.144531 56.210938 L 91.261719 56.433594 L 91.261719 56.875 L 90.808594 57.117188 C 89.59375 57.769531 88.398438 58.457031 87.21875 59.171875 C 86.671875 59.496094 86.117188 59.804688 85.554688 60.105469 C 84.011719 60.941406 82.492188 61.816406 80.96875 62.6875 L 80.113281 63.179688 C 79.417969 63.574219 78.726562 63.972656 78.035156 64.367188 C 78.6875 64.894531 79.335938 65.410156 80.035156 65.871094 L 80.46875 66.164062 C 81.027344 66.40625 81.210938 66.320312 81.785156 66.132812 C 82.148438 65.941406 82.507812 65.738281 82.863281 65.527344 L 83.507812 65.148438 L 84.195312 64.742188 C 84.671875 64.460938 85.144531 64.179688 85.621094 63.902344 L 86.351562 63.46875 C 87.460938 62.816406 88.574219 62.171875 89.691406 61.53125 L 90.285156 61.183594 L 90.832031 60.871094 C 91.070312 60.734375 91.070312 60.734375 91.3125 60.59375 C 91.703125 60.402344 91.703125 60.402344 92.144531 60.402344 L 92.144531 65.03125 L 90.984375 65.675781 L 89.863281 66.300781 C 89.476562 66.515625 89.09375 66.726562 88.707031 66.941406 L 87.96875 67.355469 L 87.289062 67.734375 C 86.820312 68.007812 86.363281 68.296875 85.914062 68.605469 C 85.3125 68.996094 85.3125 68.996094 84.871094 68.996094 L 84.894531 69.769531 C 84.972656 72.175781 85.027344 74.582031 85.0625 76.988281 C 85.082031 78.226562 85.109375 79.464844 85.152344 80.699219 C 85.191406 81.894531 85.214844 83.089844 85.226562 84.285156 C 85.230469 84.738281 85.246094 85.195312 85.265625 85.648438 C 85.414062 89.113281 85.414062 89.113281 84.507812 90.121094 C 83.617188 90.824219 82.640625 91.292969 81.59375 91.722656 C 80.878906 92.027344 80.234375 92.417969 79.570312 92.816406 C 78.808594 93.25 78.050781 93.683594 77.289062 94.117188 C 76.757812 94.417969 76.226562 94.722656 75.695312 95.027344 C 74.824219 95.523438 73.953125 96.019531 73.082031 96.519531 C 72.707031 96.730469 72.332031 96.945312 71.957031 97.15625 C 71.011719 97.695312 70.074219 98.242188 69.144531 98.804688 L 68.5625 99.152344 C 68.203125 99.371094 67.839844 99.589844 67.484375 99.8125 L 66.992188 100.105469 L 66.570312 100.367188 C 65.96875 100.578125 65.636719 100.484375 65.03125 100.300781 C 64.640625 100.113281 64.253906 99.910156 63.878906 99.695312 L 63.210938 99.316406 L 62.496094 98.910156 L 61.753906 98.488281 C 61.007812 98.066406 60.261719 97.640625 59.519531 97.214844 L 58.265625 96.5 C 57.691406 96.167969 57.113281 95.839844 56.539062 95.511719 C 55.140625 94.707031 53.734375 93.914062 52.316406 93.144531 C 51.542969 92.726562 50.804688 92.292969 50.082031 91.789062 C 48.765625 90.847656 48.765625 90.847656 47.21875 90.695312 C 46.644531 90.96875 46.132812 91.285156 45.609375 91.648438 C 44.925781 92.101562 44.203125 92.488281 43.488281 92.890625 C 41.832031 93.816406 40.195312 94.78125 38.554688 95.742188 C 37.8125 96.171875 37.066406 96.589844 36.316406 97.007812 C 34.789062 97.863281 33.269531 98.742188 31.757812 99.625 L 31.074219 100.023438 C 30.027344 100.632812 28.988281 101.25 27.949219 101.871094 L 27.425781 102.183594 C 27.105469 102.375 26.789062 102.566406 26.472656 102.761719 C 25.425781 103.386719 25.425781 103.386719 24.6875 103.386719 L 24.6875 103.828125 L 25.285156 103.828125 C 39.257812 103.808594 53.230469 103.855469 67.203125 103.925781 C 69.910156 103.941406 72.617188 103.953125 75.324219 103.964844 C 80.859375 103.992188 86.390625 104.019531 91.925781 104.046875 L 91.925781 108.238281 C 78.839844 108.265625 65.753906 108.234375 52.671875 108.140625 L 52.160156 108.136719 C 40.652344 108.054688 29.144531 107.945312 17.636719 107.796875 C 17.214844 103.554688 17.214844 103.554688 18.113281 102.257812 C 18.800781 101.765625 19.464844 101.414062 20.238281 101.070312 L 20.972656 100.695312 C 21.460938 100.445312 21.949219 100.207031 22.441406 99.972656 C 24.488281 99.003906 26.4375 97.828125 28.394531 96.691406 L 29.160156 96.25 L 30.644531 95.390625 C 33.957031 93.476562 33.957031 93.476562 35.613281 92.585938 C 36.460938 92.128906 37.28125 91.636719 38.09375 91.125 C 39.636719 90.160156 41.230469 89.300781 42.832031 88.445312 C 44.089844 87.769531 44.089844 87.769531 45.28125 86.996094 C 45.851562 86.632812 45.851562 86.632812 46.734375 86.632812 L 46.734375 82.445312 C 44.171875 83.832031 41.617188 85.234375 39.128906 86.746094 C 38.578125 87.074219 38.023438 87.378906 37.460938 87.683594 C 33.839844 89.652344 30.261719 91.691406 26.710938 93.773438 C 25.738281 94.34375 24.765625 94.90625 23.792969 95.46875 L 23.398438 95.695312 C 22.765625 96.054688 22.136719 96.417969 21.503906 96.78125 C 20.144531 97.554688 20.144531 97.554688 18.835938 98.410156 C 18.296875 98.757812 18.296875 98.757812 17.636719 98.757812 L 17.636719 94.128906 L 19.207031 93.246094 C 19.859375 92.878906 20.511719 92.511719 21.164062 92.144531 L 21.585938 91.90625 C 22.980469 91.117188 24.363281 90.316406 25.722656 89.472656 C 26.785156 88.8125 27.859375 88.199219 28.964844 87.609375 C 29.53125 87.296875 30.085938 86.96875 30.640625 86.632812 C 31.351562 86.203125 32.074219 85.789062 32.804688 85.394531 C 34.648438 84.398438 36.457031 83.34375 38.273438 82.304688 C 38.964844 81.910156 39.652344 81.515625 40.339844 81.121094 C 40.046875 80.238281 39.648438 80.101562 38.851562 79.632812 L 38.152344 79.210938 C 37.375 78.875 37.15625 78.847656 36.371094 79.136719 C 35.78125 79.421875 35.21875 79.738281 34.652344 80.0625 L 34.128906 80.355469 C 32.25 81.421875 30.386719 82.515625 28.519531 83.605469 C 26.578125 84.742188 24.628906 85.867188 22.675781 86.992188 C 21.902344 87.433594 21.128906 87.882812 20.359375 88.335938 L 19.917969 88.59375 C 19.558594 88.804688 19.195312 89.015625 18.835938 89.230469 C 18.296875 89.5 18.296875 89.5 17.636719 89.5 C 17.355469 88.042969 17.136719 86.515625 17.636719 85.089844 C 18.621094 83.945312 20.097656 83.355469 21.445312 82.730469 C 22.347656 82.300781 23.1875 81.78125 24.042969 81.261719 C 25.191406 80.582031 26.355469 79.925781 27.53125 79.292969 C 28.511719 78.757812 29.480469 78.207031 30.449219 77.648438 L 31.019531 77.328125 L 31.550781 77.019531 L 32.035156 76.746094 C 32.4375 76.515625 32.4375 76.515625 32.625 76.050781 L 32.183594 75.902344 C 31.453125 75.582031 30.84375 75.171875 30.191406 74.714844 C 29.632812 74.449219 29.457031 74.539062 28.878906 74.730469 C 28.527344 74.90625 28.183594 75.089844 27.84375 75.285156 L 27.230469 75.632812 L 26.578125 76.011719 L 25.902344 76.394531 C 25.203125 76.796875 24.503906 77.195312 23.808594 77.59375 C 23.160156 77.96875 22.511719 78.339844 21.863281 78.710938 C 21.46875 78.933594 21.074219 79.160156 20.683594 79.386719 C 19.753906 79.921875 18.820312 80.433594 17.855469 80.902344 C 17.578125 79.375 17.347656 77.769531 17.855469 76.273438 C 18.964844 74.953125 20.742188 74.335938 22.265625 73.628906 L 25.792969 71.644531 L 26.011719 50.480469 L 28.214844 49.378906 C 28.675781 49.125 29.128906 48.871094 29.582031 48.605469 C 29.992188 48.367188 30.40625 48.132812 30.816406 47.894531 C 31.78125 47.339844 32.746094 46.796875 33.714844 46.25 L 34.363281 45.886719 L 35.691406 45.132812 L 39.128906 43.191406 L 39.761719 42.835938 L 40.363281 42.496094 L 40.925781 42.179688 C 41.390625 41.914062 41.855469 41.644531 42.320312 41.375 C 42.984375 41.003906 42.984375 41.003906 43.578125 40.769531 C 44.105469 40.582031 44.105469 40.582031 44.542969 40.203125 C 44.96875 39.898438 44.96875 39.898438 45.851562 39.898438 L 45.851562 40.339844 L 46.339844 40.527344 C 46.90625 40.761719 47.410156 41.023438 47.9375 41.335938 L 48.507812 41.671875 L 49.117188 42.035156 L 49.757812 42.417969 C 51.585938 43.503906 53.386719 44.632812 55.1875 45.761719 C 56.648438 46.683594 58.128906 47.578125 59.625 48.445312 L 60.035156 48.683594 L 60.433594 48.914062 C 60.726562 49.089844 61.015625 49.28125 61.296875 49.476562 C 62.140625 50.109375 62.140625 50.109375 63.140625 50.179688 L 63.707031 49.820312 C 64.011719 49.652344 64.320312 49.480469 64.625 49.3125 C 64.996094 49.101562 65.363281 48.890625 65.734375 48.675781 L 66.335938 48.328125 C 66.769531 48.078125 67.203125 47.828125 67.636719 47.578125 C 68.246094 47.226562 68.855469 46.875 69.46875 46.523438 C 70.105469 46.15625 70.742188 45.792969 71.382812 45.425781 L 72.109375 45.007812 C 73.070312 44.453125 74.03125 43.898438 74.964844 43.300781 C 75.820312 42.761719 76.703125 42.28125 77.589844 41.800781 C 78.816406 41.140625 80.03125 40.464844 81.246094 39.789062 L 82.015625 39.363281 L 82.777344 38.941406 L 83.449219 38.570312 C 84.089844 38.203125 84.726562 37.828125 85.359375 37.449219 L 85.957031 37.085938 L 86.414062 36.8125 C 80.566406 36.742188 74.71875 36.675781 68.875 36.605469 L 68.214844 36.597656 C 55.578125 36.453125 42.945312 36.324219 30.3125 36.234375 L 29.820312 36.230469 C 25.832031 36.203125 21.84375 36.175781 17.855469 36.152344 Z M 17.855469 31.964844 "/>
<path style=" stroke:none;fill-rule:nonzero;fill:rgb(1.960784%,24.705882%,53.333333%);fill-opacity:1;" d="M 17.855469 31.964844 C 27.875 31.925781 37.890625 31.984375 47.910156 32.058594 L 48.398438 32.0625 C 52.546875 32.09375 56.699219 32.128906 60.847656 32.160156 C 63.257812 32.179688 65.667969 32.199219 68.078125 32.214844 L 68.597656 32.21875 L 71.183594 32.242188 C 78.246094 32.292969 85.304688 32.347656 92.363281 32.40625 L 92.363281 38.355469 L 90.269531 39.488281 C 86.808594 41.367188 83.371094 43.316406 80.058594 45.445312 C 79.421875 45.816406 78.78125 46.140625 78.121094 46.464844 C 76.734375 47.152344 75.402344 47.914062 74.066406 48.703125 L 72.746094 49.480469 L 72.085938 49.871094 C 71.195312 50.394531 70.304688 50.914062 69.414062 51.433594 C 68.816406 51.78125 68.214844 52.132812 67.617188 52.484375 C 67.261719 52.695312 66.902344 52.902344 66.546875 53.113281 L 65.988281 53.441406 L 65.457031 53.753906 L 64.980469 54.03125 C 64.589844 54.226562 64.589844 54.226562 64.148438 54.226562 L 64.148438 58.636719 C 62.386719 59.519531 62.386719 59.519531 61.75 59.765625 C 61.246094 59.941406 61.246094 59.941406 60.839844 60.402344 C 60.472656 60.5625 60.101562 60.71875 59.726562 60.871094 C 59.289062 61.066406 58.882812 61.289062 58.472656 61.53125 C 57.753906 61.945312 57.753906 61.945312 57.09375 62.164062 L 57.09375 55.109375 L 55.773438 54.667969 C 55.386719 54.449219 55.011719 54.214844 54.640625 53.964844 C 53.8125 53.425781 52.980469 52.902344 52.121094 52.410156 C 50.601562 51.535156 49.109375 50.617188 47.617188 49.699219 L 47.152344 49.414062 C 46.800781 49.199219 46.449219 48.980469 46.101562 48.761719 C 45.523438 48.4375 45.183594 48.394531 44.527344 48.496094 L 44.257812 48.785156 C 43.707031 49.3125 43.050781 49.589844 42.367188 49.917969 C 40.828125 50.664062 39.320312 51.464844 37.820312 52.285156 L 37.210938 52.617188 C 36.0625 53.25 36.0625 53.25 34.921875 53.890625 L 34.382812 54.199219 L 33.902344 54.472656 C 33.507812 54.667969 33.507812 54.667969 33.066406 54.667969 L 33.066406 68.335938 L 34.167969 68.777344 C 34.480469 68.941406 34.789062 69.113281 35.09375 69.289062 L 35.632812 69.601562 L 36.207031 69.933594 C 37.316406 70.570312 38.425781 71.207031 39.53125 71.84375 C 40.273438 72.273438 41.015625 72.695312 41.761719 73.117188 L 42.46875 73.527344 L 43.136719 73.90625 L 43.726562 74.242188 C 44.382812 74.542969 44.910156 74.679688 45.632812 74.730469 L 46.734375 74.289062 L 46.734375 82.445312 L 44.308594 83.765625 C 43.714844 84.097656 43.121094 84.425781 42.53125 84.757812 L 42.074219 85.015625 C 41.082031 85.578125 40.101562 86.15625 39.128906 86.746094 C 38.578125 87.074219 38.023438 87.378906 37.460938 87.683594 C 33.839844 89.652344 30.261719 91.691406 26.710938 93.773438 C 25.738281 94.34375 24.765625 94.90625 23.792969 95.46875 L 23.398438 95.695312 C 22.765625 96.054688 22.136719 96.417969 21.503906 96.78125 C 20.144531 97.554688 20.144531 97.554688 18.835938 98.410156 C 18.296875 98.757812 18.296875 98.757812 17.636719 98.757812 L 17.636719 94.128906 L 19.207031 93.246094 C 19.859375 92.878906 20.511719 92.511719 21.164062 92.144531 L 21.585938 91.90625 C 22.980469 91.117188 24.363281 90.316406 25.722656 89.472656 C 26.785156 88.8125 27.859375 88.199219 28.964844 87.609375 C 29.53125 87.296875 30.085938 86.96875 30.640625 86.632812 C 31.351562 86.203125 32.074219 85.789062 32.804688 85.394531 C 34.648438 84.398438 36.457031 83.34375 38.273438 82.304688 C 38.964844 81.910156 39.652344 81.515625 40.339844 81.121094 C 40.046875 80.238281 39.648438 80.101562 38.851562 79.632812 L 38.152344 79.210938 C 37.375 78.875 37.15625 78.847656 36.371094 79.136719 C 35.78125 79.421875 35.21875 79.738281 34.652344 80.0625 L 34.128906 80.355469 C 32.25 81.421875 30.386719 82.515625 28.519531 83.605469 C 26.578125 84.742188 24.628906 85.867188 22.675781 86.992188 C 21.902344 87.433594 21.128906 87.882812 20.359375 88.335938 L 19.917969 88.59375 C 19.558594 88.804688 19.195312 89.015625 18.835938 89.230469 C 18.296875 89.5 18.296875 89.5 17.636719 89.5 C 17.355469 88.042969 17.136719 86.515625 17.636719 85.089844 C 18.621094 83.945312 20.097656 83.355469 21.445312 82.730469 C 22.347656 82.300781 23.1875 81.78125 24.042969 81.261719 C 25.191406 80.582031 26.355469 79.925781 27.53125 79.292969 C 28.511719 78.757812 29.480469 78.207031 30.449219 77.648438 L 31.019531 77.328125 L 31.550781 77.019531 L 32.035156 76.746094 C 32.4375 76.515625 32.4375 76.515625 32.625 76.050781 L 32.183594 75.902344 C 31.453125 75.582031 30.84375 75.171875 30.191406 74.714844 C 29.632812 74.449219 29.457031 74.539062 28.878906 74.730469 C 28.527344 74.90625 28.183594 75.089844 27.84375 75.285156 L 27.230469 75.632812 L 26.578125 76.011719 L 25.902344 76.394531 C 25.203125 76.796875 24.503906 77.195312 23.808594 77.59375 C 23.160156 77.96875 22.511719 78.339844 21.863281 78.710938 C 21.46875 78.933594 21.074219 79.160156 20.683594 79.386719 C 19.753906 79.921875 18.820312 80.433594 17.855469 80.902344 C 17.578125 79.375 17.347656 77.769531 17.855469 76.273438 C 18.964844 74.953125 20.742188 74.335938 22.265625 73.628906 L 25.792969 71.644531 L 26.011719 50.480469 L 28.214844 49.378906 C 28.675781 49.125 29.128906 48.871094 29.582031 48.605469 C 29.992188 48.367188 30.40625 48.132812 30.816406 47.894531 C 31.78125 47.339844 32.746094 46.796875 33.714844 46.25 L 34.363281 45.886719 L 35.691406 45.132812 L 39.128906 43.191406 L 39.761719 42.835938 L 40.363281 42.496094 L 40.925781 42.179688 C 41.390625 41.914062 41.855469 41.644531 42.320312 41.375 C 42.984375 41.003906 42.984375 41.003906 43.578125 40.769531 C 44.105469 40.582031 44.105469 40.582031 44.542969 40.203125 C 44.96875 39.898438 44.96875 39.898438 45.851562 39.898438 L 45.851562 40.339844 L 46.339844 40.527344 C 46.90625 40.761719 47.410156 41.023438 47.9375 41.335938 L 48.507812 41.671875 L 49.117188 42.035156 L 49.757812 42.417969 C 51.585938 43.503906 53.386719 44.632812 55.1875 45.761719 C 56.648438 46.683594 58.128906 47.578125 59.625 48.445312 L 60.035156 48.683594 L 60.433594 48.914062 C 60.726562 49.089844 61.015625 49.28125 61.296875 49.476562 C 62.140625 50.109375 62.140625 50.109375 63.140625 50.179688 L 63.707031 49.820312 C 64.011719 49.652344 64.320312 49.480469 64.625 49.3125 C 64.996094 49.101562 65.363281 48.890625 65.734375 48.675781 L 66.335938 48.328125 C 66.769531 48.078125 67.203125 47.828125 67.636719 47.578125 C 68.246094 47.226562 68.855469 46.875 69.46875 46.523438 C 70.105469 46.15625 70.742188 45.792969 71.382812 45.425781 L 72.109375 45.007812 C 73.070312 44.453125 74.03125 43.898438 74.964844 43.300781 C 75.820312 42.761719 76.703125 42.28125 77.589844 41.800781 C 78.816406 41.140625 80.03125 40.464844 81.246094 39.789062 L 82.015625 39.363281 L 82.777344 38.941406 L 83.449219 38.570312 C 84.089844 38.203125 84.726562 37.828125 85.359375 37.449219 L 85.957031 37.085938 L 86.414062 36.8125 C 80.566406 36.742188 74.71875 36.675781 68.875 36.605469 L 68.214844 36.597656 C 55.578125 36.453125 42.945312 36.324219 30.3125 36.234375 L 29.820312 36.230469 C 25.832031 36.203125 21.84375 36.175781 17.855469 36.152344 Z M 17.855469 31.964844 "/>
<path style=" stroke:none;fill-rule:nonzero;fill:rgb(99.607843%,98.823529%,99.215686%);fill-opacity:1;" d="M 66.132812 65.601562 L 66.574219 65.910156 L 67.175781 66.261719 L 67.839844 66.65625 C 68.871094 67.261719 69.90625 67.820312 70.980469 68.335938 L 70.980469 68.777344 L 71.503906 68.902344 C 72.402344 69.257812 73.0625 69.722656 73.820312 70.308594 C 74.503906 70.796875 74.503906 70.796875 75.335938 71.054688 C 76.347656 71.433594 77.175781 71.855469 77.816406 72.746094 C 78.433594 74.644531 78.296875 76.710938 78.25 78.679688 C 78.242188 79.125 78.25 79.566406 78.261719 80.011719 C 78.390625 84.6875 78.390625 84.6875 77.5 85.992188 C 76.707031 86.746094 75.785156 87.15625 74.769531 87.542969 C 74.007812 87.847656 73.316406 88.269531 72.609375 88.683594 C 72.335938 88.832031 72.066406 88.980469 71.792969 89.128906 L 70.980469 89.566406 C 70.570312 89.792969 70.15625 90.015625 69.742188 90.242188 C 69.355469 90.453125 68.964844 90.664062 68.578125 90.875 C 67.996094 91.207031 67.460938 91.558594 66.917969 91.945312 C 66.304688 92.328125 66.183594 92.367188 65.425781 92.308594 C 64.15625 91.796875 62.96875 91.070312 61.777344 90.394531 L 60.984375 89.949219 C 55.210938 86.699219 55.210938 86.699219 53.789062 85.75 C 53.707031 85.179688 53.707031 85.179688 53.710938 84.445312 L 53.710938 83.617188 L 53.722656 82.71875 C 53.726562 81.609375 53.730469 80.496094 53.742188 79.386719 C 53.75 78.5625 53.75 77.742188 53.753906 76.921875 C 53.761719 75.308594 53.773438 73.695312 53.789062 72.085938 L 54.515625 71.699219 C 56.398438 70.710938 58.265625 69.707031 60.113281 68.652344 L 60.757812 68.289062 C 61.707031 67.75 62.652344 67.210938 63.582031 66.644531 L 64.015625 66.386719 C 64.378906 66.164062 64.746094 65.9375 65.109375 65.714844 C 65.691406 65.472656 65.691406 65.472656 66.132812 65.601562 Z M 66.132812 65.601562 "/>
<path style=" stroke:none;fill-rule:nonzero;fill:rgb(98.431373%,98.823529%,99.215686%);fill-opacity:1;" d="M 45.171875 48.265625 C 46.445312 48.492188 47.496094 49.289062 48.566406 49.972656 L 49.871094 50.785156 L 50.515625 51.191406 C 51.453125 51.777344 52.398438 52.339844 53.347656 52.90625 L 54.269531 53.460938 L 54.695312 53.714844 C 54.980469 53.886719 55.261719 54.058594 55.546875 54.230469 C 56.308594 54.691406 56.308594 54.691406 57.09375 55.109375 L 57.09375 62.386719 C 55.441406 63.316406 53.785156 64.246094 52.128906 65.171875 L 51.378906 65.589844 L 49.894531 66.417969 L 49.203125 66.804688 L 48.582031 67.152344 C 48.175781 67.386719 47.78125 67.636719 47.394531 67.894531 L 46.734375 67.894531 L 46.75 68.472656 C 46.769531 69.179688 46.785156 69.882812 46.792969 70.589844 C 46.800781 70.894531 46.808594 71.203125 46.816406 71.507812 C 46.828125 71.945312 46.835938 72.386719 46.839844 72.824219 L 46.859375 73.625 C 46.734375 74.289062 46.734375 74.289062 46.214844 74.710938 C 45.441406 75.027344 45.109375 74.972656 44.308594 74.730469 C 43.636719 74.421875 42.996094 74.0625 42.351562 73.695312 L 41.78125 73.375 C 39.570312 72.132812 37.382812 70.851562 35.199219 69.5625 C 34.492188 69.148438 33.777344 68.742188 33.066406 68.335938 L 33.066406 54.667969 L 36.8125 52.683594 C 37.695312 52.191406 38.570312 51.699219 39.445312 51.199219 C 40.828125 50.402344 42.210938 49.640625 43.648438 48.953125 C 44.921875 48.269531 44.921875 48.269531 45.171875 48.265625 Z M 45.171875 48.265625 "/>
<path style=" stroke:none;fill-rule:nonzero;fill:rgb(1.960784%,24.313725%,52.941176%);fill-opacity:1;" d="M 74.136719 10.351562 C 75.03125 10.871094 75.613281 11.382812 76.050781 12.34375 L 76.273438 10.582031 L 81.785156 10.582031 L 81.785156 25.570312 L 76.273438 25.570312 L 76.273438 23.367188 L 75.914062 23.960938 C 74.898438 25.421875 74.898438 25.421875 74.066406 25.792969 C 72.816406 26.007812 71.585938 26.082031 70.421875 25.519531 C 69.261719 24.601562 68.742188 23.441406 68.335938 22.042969 L 68.097656 21.238281 C 67.378906 18.28125 67.632812 14.785156 69.027344 12.082031 C 70.164062 10.285156 72.128906 9.523438 74.136719 10.351562 Z M 74.136719 10.351562 "/>
<path style=" stroke:none;fill-rule:nonzero;fill:rgb(1.568627%,24.313725%,52.941176%);fill-opacity:1;" d="M 39.679688 10.800781 C 41.433594 11.996094 42.242188 13.40625 42.898438 15.394531 C 43.363281 17.941406 43.074219 20.578125 41.78125 22.828125 C 40.746094 24.316406 39.269531 25.246094 37.476562 25.570312 C 35.324219 25.726562 33.3125 25.855469 31.523438 24.46875 C 29.984375 23.097656 29.140625 21.4375 28.878906 19.398438 C 28.730469 16.691406 28.820312 14.082031 30.640625 11.902344 C 33.050781 9.605469 36.753906 9.03125 39.679688 10.800781 Z M 39.679688 10.800781 "/>
<path style=" stroke:none;fill-rule:nonzero;fill:rgb(2.352941%,24.705882%,53.333333%);fill-opacity:1;" d="M 51.488281 2.382812 L 52.355469 2.386719 C 53.125 2.425781 53.125 2.425781 54.007812 2.644531 L 54.007812 7.714844 L 52.246094 7.714844 L 52.023438 10.359375 L 54.007812 10.359375 L 54.007812 14.988281 L 52.023438 14.988281 L 52.023438 25.570312 L 46.292969 25.570312 L 46.292969 14.769531 L 44.75 14.769531 L 44.75 10.359375 L 46.511719 10.359375 L 46.496094 9.59375 C 46.492188 9.257812 46.488281 8.921875 46.484375 8.582031 L 46.472656 8.082031 C 46.460938 6.5 46.792969 5.117188 47.613281 3.746094 C 48.820312 2.605469 49.847656 2.367188 51.488281 2.382812 Z M 51.488281 2.382812 "/>
<path style=" stroke:none;fill-rule:nonzero;fill:rgb(80.784314%,7.843137%,16.862745%);fill-opacity:1;" d="M 41.441406 81.121094 C 41.742188 81.335938 42.035156 81.554688 42.324219 81.785156 L 42.972656 81.976562 C 43.777344 82.273438 44.183594 82.691406 44.75 83.328125 C 43.914062 84.078125 43.027344 84.53125 42.027344 85.015625 C 41.484375 85.289062 40.96875 85.585938 40.449219 85.902344 C 39.464844 86.507812 38.460938 87.066406 37.449219 87.625 C 35.644531 88.617188 33.867188 89.648438 32.09375 90.691406 C 30.246094 91.773438 28.382812 92.835938 26.519531 93.894531 C 25.074219 94.714844 23.636719 95.546875 22.214844 96.410156 L 21.828125 96.644531 C 21.214844 97.015625 20.609375 97.386719 20 97.761719 L 19.351562 98.15625 L 18.78125 98.511719 C 18.296875 98.757812 18.296875 98.757812 17.636719 98.757812 L 17.636719 94.128906 L 19.207031 93.246094 C 19.859375 92.878906 20.511719 92.511719 21.164062 92.144531 L 21.585938 91.90625 C 22.980469 91.117188 24.363281 90.316406 25.722656 89.472656 C 26.785156 88.8125 27.859375 88.199219 28.964844 87.609375 C 29.53125 87.296875 30.085938 86.96875 30.640625 86.632812 C 31.351562 86.203125 32.074219 85.789062 32.804688 85.394531 C 34.460938 84.5 36.085938 83.558594 37.71875 82.621094 L 38.277344 82.304688 C 38.605469 82.113281 38.933594 81.921875 39.261719 81.730469 C 40.574219 80.957031 40.574219 80.957031 41.441406 81.121094 Z M 41.441406 81.121094 "/>
<path style=" stroke:none;fill-rule:nonzero;fill:rgb(3.137255%,24.705882%,52.941176%);fill-opacity:1;" d="M 92.363281 42.324219 C 92.675781 43.859375 92.894531 45.449219 92.363281 46.953125 C 91.320312 48.1875 89.691406 48.792969 88.257812 49.460938 C 87.101562 50.019531 86.003906 50.667969 84.898438 51.316406 C 84.246094 51.695312 83.59375 52.066406 82.9375 52.4375 L 81.742188 53.117188 C 80.808594 53.648438 79.878906 54.183594 78.945312 54.714844 C 78.425781 55.011719 77.90625 55.308594 77.386719 55.605469 C 76.183594 56.289062 74.984375 56.980469 73.792969 57.683594 L 73.148438 58.058594 C 72.753906 58.289062 72.359375 58.523438 71.96875 58.757812 L 71.445312 59.066406 L 70.992188 59.332031 C 70.4375 59.5625 70.035156 59.574219 69.4375 59.519531 C 68.878906 59.1875 68.878906 59.1875 68.324219 58.761719 C 67.667969 58.261719 67.175781 57.890625 66.351562 57.753906 L 66.351562 57.09375 C 66.898438 56.722656 67.457031 56.378906 68.035156 56.0625 L 68.496094 55.796875 C 68.832031 55.605469 69.167969 55.414062 69.507812 55.222656 C 70.199219 54.832031 70.890625 54.4375 71.582031 54.042969 L 71.980469 53.816406 C 72.890625 53.296875 73.800781 52.773438 74.714844 52.253906 C 79.386719 49.578125 79.386719 49.578125 81.121094 48.605469 C 82.617188 47.765625 84.113281 46.921875 85.601562 46.070312 L 86.40625 45.613281 C 88.082031 44.664062 89.734375 43.679688 91.359375 42.648438 C 91.925781 42.324219 91.925781 42.324219 92.363281 42.324219 Z M 92.363281 42.324219 "/>
<path style=" stroke:none;fill-rule:nonzero;fill:rgb(0.784314%,23.529412%,52.54902%);fill-opacity:1;" d="M 65.910156 10.140625 L 65.910156 16.3125 L 65.25 16.09375 C 64.574219 16.003906 63.941406 15.984375 63.265625 16.09375 C 62.34375 16.921875 62.1875 17.664062 62.117188 18.863281 C 62.109375 19.175781 62.101562 19.488281 62.09375 19.800781 L 62.082031 20.300781 C 62.066406 20.828125 62.054688 21.351562 62.039062 21.878906 L 62.011719 22.949219 C 61.988281 23.824219 61.964844 24.695312 61.945312 25.570312 L 56.433594 25.570312 L 56.433594 10.359375 L 61.945312 10.359375 L 61.945312 12.785156 L 62.300781 12.191406 C 63.222656 10.8125 64.21875 10.140625 65.910156 10.140625 Z M 65.910156 10.140625 "/>
<path style=" stroke:none;fill-rule:nonzero;fill:rgb(2.352941%,24.705882%,52.941176%);fill-opacity:1;" d="M 91.109375 10.332031 L 92.585938 10.359375 L 92.585938 15.429688 L 90.601562 15.871094 C 90.058594 16.78125 89.996094 17.914062 90.160156 18.957031 C 90.46875 19.722656 90.46875 19.722656 91.042969 20.28125 L 92.585938 20.722656 L 92.585938 26.011719 C 88.769531 26.183594 88.769531 26.183594 87.074219 24.910156 C 85.324219 23.292969 84.320312 21.414062 84.152344 19.027344 C 84.058594 16.574219 84.441406 14.472656 86.023438 12.519531 C 87.476562 11.054688 89.050781 10.292969 91.109375 10.332031 Z M 91.109375 10.332031 "/>
<path style=" stroke:none;fill-rule:nonzero;fill:rgb(1.960784%,24.313725%,52.941176%);fill-opacity:1;" d="M 26.671875 9.917969 L 26.671875 14.988281 L 25.128906 15.429688 C 24.566406 15.863281 24.480469 16.0625 24.25 16.753906 C 24.160156 17.914062 24.308594 18.621094 24.910156 19.621094 C 25.40625 20.203125 25.40625 20.203125 26.671875 20.28125 L 26.671875 25.570312 C 24.203125 25.648438 22.332031 25.605469 20.46875 23.859375 C 18.664062 21.691406 18.066406 19.0625 18.246094 16.3125 C 18.492188 14.152344 19.789062 12.417969 21.382812 11.023438 C 23.066406 9.761719 24.621094 9.820312 26.671875 9.917969 Z M 26.671875 9.917969 "/>
<path style=" stroke:none;fill-rule:nonzero;fill:rgb(0.392157%,23.529412%,52.941176%);fill-opacity:1;" d="M 76.273438 10.582031 L 81.785156 10.582031 L 81.785156 25.570312 L 76.273438 25.570312 L 76.273438 23.367188 L 74.949219 23.808594 L 74.949219 24.25 L 74.507812 24.25 L 74.066406 23.144531 L 74.507812 23.144531 L 74.507812 22.484375 L 74.949219 22.484375 L 75.171875 21.382812 L 75.609375 21.382812 C 76.109375 19.160156 76.410156 16.945312 75.609375 14.769531 L 75.609375 14.550781 L 74.507812 14.328125 L 74.507812 13.667969 L 75.171875 13.445312 C 75.441406 12.671875 75.441406 12.671875 75.609375 11.902344 L 76.050781 12.34375 Z M 76.273438 10.582031 "/>
<path style=" stroke:none;fill-rule:nonzero;fill:rgb(81.960784%,32.156863%,38.823529%);fill-opacity:1;" d="M 69.878906 104.046875 L 91.925781 104.046875 L 91.925781 108.238281 C 88.726562 108.242188 85.53125 108.246094 82.335938 108.25 L 81.582031 108.25 C 71.542969 108.257812 61.5 108.199219 51.460938 108.125 L 50.914062 108.121094 C 46.289062 108.089844 41.660156 108.054688 37.035156 108.015625 L 37.035156 107.796875 L 91.484375 107.796875 L 91.484375 104.488281 L 69.878906 104.269531 Z M 69.878906 104.046875 "/>
<path style=" stroke:none;fill-rule:nonzero;fill:rgb(95.294118%,97.254902%,98.431373%);fill-opacity:1;" d="M 36.59375 14.328125 C 37.53125 15.332031 37.519531 16.382812 37.53125 17.691406 L 37.542969 18.183594 C 37.550781 19.339844 37.34375 20.128906 36.8125 21.164062 C 36.59375 21.382812 36.59375 21.382812 35.960938 21.453125 C 35.269531 21.382812 35.269531 21.382812 34.871094 20.996094 C 34.304688 19.921875 34.339844 18.851562 34.332031 17.664062 L 34.320312 17.136719 C 34.3125 16.035156 34.4375 15.28125 35.050781 14.328125 C 35.65625 14.023438 35.953125 14.125 36.59375 14.328125 Z M 36.59375 14.328125 "/>
<path style=" stroke:none;fill-rule:nonzero;fill:rgb(93.72549%,95.686275%,97.254902%);fill-opacity:1;" d="M 74.507812 14.769531 C 75.046875 14.785156 75.046875 14.785156 75.609375 14.988281 C 76.542969 16.21875 76.378906 17.484375 76.273438 18.957031 C 76.140625 19.824219 76.027344 20.523438 75.390625 21.164062 C 74.851562 21.257812 74.851562 21.257812 74.289062 21.164062 C 73.308594 19.90625 73.527344 18.488281 73.628906 16.972656 C 73.753906 16.105469 73.867188 15.410156 74.507812 14.769531 Z M 74.507812 14.769531 "/>
<path style=" stroke:none;fill-rule:nonzero;fill:rgb(96.862745%,74.117647%,77.254902%);fill-opacity:1;" d="M 26.671875 102.285156 L 27.113281 102.503906 L 26.671875 103.167969 L 63.488281 103.828125 L 63.488281 104.046875 C 60.574219 104.054688 57.660156 104.058594 54.75 104.0625 C 47.683594 104.066406 40.617188 104.019531 33.546875 103.9375 L 32.871094 103.929688 C 30.144531 103.898438 27.417969 103.863281 24.6875 103.828125 L 24.6875 103.386719 C 25.007812 103.195312 25.332031 103.007812 25.652344 102.820312 L 26.195312 102.503906 Z M 26.671875 102.285156 "/>
<path style=" stroke:none;fill-rule:nonzero;fill:rgb(7.45098%,24.705882%,48.235294%);fill-opacity:1;" d="M 76.273438 10.582031 L 81.785156 10.582031 L 81.785156 25.570312 L 76.273438 25.570312 L 76.492188 24.6875 L 76.714844 25.128906 L 81.34375 25.128906 L 81.34375 10.800781 L 76.492188 10.800781 L 76.492188 12.785156 L 76.050781 12.566406 Z M 76.273438 10.582031 "/>
<path style=" stroke:none;fill-rule:nonzero;fill:rgb(20.392157%,18.823529%,43.529412%);fill-opacity:1;" d="M 46.734375 74.289062 L 46.734375 82.445312 C 45.191406 83.328125 45.191406 83.328125 44.707031 83.203125 C 44.4375 82.988281 44.164062 82.773438 43.894531 82.554688 C 43.324219 82.152344 42.773438 81.992188 42.105469 81.785156 C 41.085938 81.398438 40.410156 81.050781 39.679688 80.242188 L 39.238281 80.019531 L 39.238281 79.578125 C 39.882812 79.71875 40.421875 79.929688 41.003906 80.242188 L 41.003906 80.679688 L 41.648438 80.957031 C 42.613281 81.371094 43.570312 81.796875 44.527344 82.222656 L 44.527344 82.664062 L 45.410156 82.664062 L 45.632812 82.003906 L 46.070312 81.785156 L 46.292969 75.171875 L 44.75 75.390625 L 44.75 74.949219 C 46.238281 74.289062 46.238281 74.289062 46.734375 74.289062 Z M 46.734375 74.289062 "/>
<path style=" stroke:none;fill-rule:nonzero;fill:rgb(9.019608%,25.490196%,48.627451%);fill-opacity:1;" d="M 61.503906 17.636719 L 61.945312 17.636719 L 61.945312 25.570312 L 56.433594 25.570312 L 56.433594 19.398438 L 56.652344 19.398438 L 56.652344 25.128906 L 61.503906 25.128906 Z M 61.503906 17.636719 "/>
<path style=" stroke:none;fill-rule:nonzero;fill:rgb(97.647059%,72.54902%,75.294118%);fill-opacity:1;" d="M 77.375 72.523438 L 77.816406 72.746094 C 77.839844 74.402344 77.859375 76.054688 77.871094 77.710938 C 77.878906 78.480469 77.886719 79.25 77.898438 80.019531 C 77.914062 80.902344 77.917969 81.785156 77.921875 82.667969 L 77.941406 83.507812 L 77.941406 84.28125 L 77.949219 84.964844 C 77.816406 85.53125 77.816406 85.53125 77.257812 85.941406 L 76.714844 86.191406 L 76.933594 85.3125 L 77.375 85.3125 Z M 77.375 72.523438 "/>
<path style=" stroke:none;fill-rule:nonzero;fill:rgb(72.941176%,7.843137%,16.078431%);fill-opacity:1;" d="M 84.429688 68.996094 L 84.648438 68.996094 L 84.648438 89.941406 L 83.765625 90.160156 L 83.765625 89.5 L 84.207031 89.5 Z M 84.429688 68.996094 "/>
<path style=" stroke:none;fill-rule:nonzero;fill:rgb(13.72549%,29.803922%,53.333333%);fill-opacity:1;" d="M 65.910156 10.140625 L 65.910156 16.3125 L 65.472656 16.09375 L 65.691406 10.359375 C 64.136719 11.277344 64.136719 11.277344 63.058594 12.484375 L 62.683594 12.988281 C 62.351562 13.457031 62.351562 13.457031 62.164062 14.109375 L 61.722656 14.109375 L 61.503906 12.785156 L 61.945312 12.785156 C 62.152344 12.46875 62.355469 12.148438 62.558594 11.828125 C 63.445312 10.609375 64.40625 10.140625 65.910156 10.140625 Z M 65.910156 10.140625 "/>
<path style=" stroke:none;fill-rule:nonzero;fill:rgb(13.72549%,28.235294%,50.980392%);fill-opacity:1;" d="M 24.46875 19.398438 L 24.828125 19.714844 C 25.433594 20.164062 25.433594 20.164062 26.671875 20.28125 L 26.671875 25.570312 C 24.476562 25.613281 24.476562 25.613281 23.808594 25.570312 L 23.367188 25.128906 L 26.011719 24.910156 L 26.234375 20.722656 L 24.910156 20.5 C 24.605469 19.9375 24.605469 19.9375 24.46875 19.398438 Z M 24.46875 19.398438 "/>
<path style=" stroke:none;fill-rule:nonzero;fill:rgb(8.235294%,25.098039%,47.45098%);fill-opacity:1;" d="M 51.460938 2.398438 L 52.339844 2.394531 C 53.125 2.425781 53.125 2.425781 54.007812 2.644531 L 54.007812 7.714844 L 53.347656 7.496094 L 53.566406 2.867188 L 48.71875 3.085938 C 49.515625 2.285156 50.398438 2.390625 51.460938 2.398438 Z M 51.460938 2.398438 "/>
<path style=" stroke:none;fill-rule:nonzero;fill:rgb(11.372549%,24.705882%,46.666667%);fill-opacity:1;" d="M 56.433594 54.667969 L 57.535156 55.109375 L 57.535156 61.503906 L 58.195312 61.503906 L 58.195312 61.0625 L 59.078125 61.28125 L 57.09375 62.164062 L 57.09375 55.109375 L 56.433594 54.890625 Z M 56.433594 54.667969 "/>
<path style=" stroke:none;fill-rule:nonzero;fill:rgb(83.137255%,89.019608%,94.509804%);fill-opacity:1;" d="M 74.066406 15.210938 C 74.261719 15.867188 74.304688 16.414062 74.261719 17.09375 L 74.230469 17.660156 L 74.191406 18.242188 L 74.15625 18.835938 C 74.128906 19.316406 74.097656 19.796875 74.066406 20.28125 L 74.949219 19.839844 L 75.171875 20.28125 L 75.832031 20.28125 L 75.390625 21.164062 C 74.882812 21.230469 74.882812 21.230469 74.289062 21.164062 C 73.308594 19.914062 73.523438 18.480469 73.628906 16.972656 C 73.730469 16.355469 73.875 15.808594 74.066406 15.210938 Z M 74.066406 15.210938 "/>
<path style=" stroke:none;fill-rule:nonzero;fill:rgb(14.901961%,31.372549%,54.901961%);fill-opacity:1;" d="M 17.636719 85.089844 L 18.296875 85.089844 L 18.289062 85.644531 C 18.285156 85.886719 18.285156 86.125 18.28125 86.371094 L 18.273438 87.09375 C 18.300781 87.8125 18.367188 88.234375 18.863281 88.769531 L 19.179688 89.058594 C 18.59375 89.378906 18.320312 89.5 17.636719 89.5 Z M 17.636719 85.089844 "/>
<path style=" stroke:none;fill-rule:nonzero;fill:rgb(30.196078%,20%,41.960784%);fill-opacity:1;" d="M 39.238281 79.578125 C 39.882812 79.71875 40.421875 79.929688 41.003906 80.242188 L 41.003906 80.679688 L 41.648438 80.957031 L 42.070312 81.136719 C 42.40625 81.28125 42.742188 81.425781 43.082031 81.566406 L 43.621094 81.796875 L 44.128906 82.011719 C 44.527344 82.222656 44.527344 82.222656 44.75 82.664062 C 45.195312 82.914062 45.195312 82.914062 45.632812 83.105469 C 45.273438 83.285156 45.273438 83.285156 44.75 83.328125 C 44.417969 83.058594 44.085938 82.789062 43.773438 82.503906 C 43.265625 82.09375 42.726562 81.960938 42.105469 81.785156 C 41.085938 81.398438 40.410156 81.050781 39.679688 80.242188 L 39.238281 80.019531 Z M 39.238281 79.578125 "/>
<path style=" stroke:none;fill-rule:nonzero;fill:rgb(7.45098%,25.098039%,49.803922%);fill-opacity:1;" d="M 48.054688 3.304688 C 48.054688 4.035156 47.886719 4.472656 47.628906 5.152344 C 47.1875 6.421875 47.054688 7.585938 47.015625 8.921875 L 46.953125 9.480469 L 46.511719 9.699219 C 46.457031 7.421875 46.488281 5.761719 47.613281 3.746094 Z M 48.054688 3.304688 "/>
<path style=" stroke:none;fill-rule:nonzero;fill:rgb(87.45098%,92.941176%,97.647059%);fill-opacity:1;" d="M 92.585938 15.429688 L 91.925781 15.871094 C 91.152344 16.574219 90.640625 17.136719 90.558594 18.203125 L 90.574219 18.792969 L 90.585938 19.386719 L 90.601562 19.839844 C 89.984375 19.105469 89.835938 18.621094 89.875 17.640625 C 89.972656 16.957031 90.230469 16.449219 90.601562 15.871094 C 91.359375 15.367188 91.699219 15.390625 92.585938 15.429688 Z M 92.585938 15.429688 "/>
<path style=" stroke:none;fill-rule:nonzero;fill:rgb(76.862745%,11.764706%,19.607843%);fill-opacity:1;" d="M 72.964844 96.332031 C 72.390625 96.984375 71.71875 97.371094 70.96875 97.808594 L 70.257812 98.222656 C 69.660156 98.535156 69.660156 98.535156 69.21875 98.535156 L 69.21875 98.097656 C 69.878906 97.65625 69.878906 97.65625 70.542969 97.65625 L 70.609375 97.253906 C 71.027344 95.929688 71.71875 96.074219 72.964844 96.332031 Z M 72.964844 96.332031 "/>
<path style=" stroke:none;fill-rule:nonzero;fill:rgb(79.607843%,87.45098%,94.117647%);fill-opacity:1;" d="M 64.855469 15.824219 C 64.984375 15.839844 65.117188 15.855469 65.25 15.871094 L 65.472656 16.3125 L 64.65625 16.355469 C 63.914062 16.449219 63.691406 16.542969 63.058594 17.015625 C 62.5625 17.691406 62.441406 18.128906 62.386719 18.957031 L 61.945312 18.957031 C 61.992188 17.996094 62.046875 17.226562 62.605469 16.421875 C 63.417969 15.746094 63.835938 15.753906 64.855469 15.824219 Z M 64.855469 15.824219 "/>
<path style=" stroke:none;fill-rule:nonzero;fill:rgb(3.529412%,21.960784%,45.882353%);fill-opacity:1;" d="M 52.023438 10.359375 L 53.789062 10.359375 L 53.789062 14.769531 L 52.023438 14.769531 L 52.023438 14.109375 L 53.566406 14.328125 L 53.566406 10.800781 L 52.023438 10.800781 Z M 52.023438 10.359375 "/>
<path style=" stroke:none;fill-rule:nonzero;fill:rgb(72.156863%,15.294118%,24.313725%);fill-opacity:1;" d="M 42.984375 82.003906 C 43.847656 82.285156 44.261719 82.558594 44.75 83.328125 C 44.023438 83.96875 43.515625 84.316406 42.546875 84.429688 L 42.546875 83.988281 L 43.207031 83.988281 L 43.425781 82.664062 L 42.984375 82.664062 Z M 42.984375 82.003906 "/>
<path style=" stroke:none;fill-rule:nonzero;fill:rgb(77.647059%,85.098039%,93.333333%);fill-opacity:1;" d="M 36.59375 14.328125 L 36.082031 14.726562 C 35.203125 15.367188 35.203125 15.367188 34.734375 16.289062 L 34.714844 16.753906 L 34.691406 17.261719 L 34.679688 17.785156 L 34.65625 18.320312 C 34.636719 18.753906 34.621094 19.1875 34.609375 19.621094 L 34.390625 19.621094 C 34.371094 18.984375 34.359375 18.351562 34.347656 17.71875 L 34.332031 17.179688 C 34.316406 16.0625 34.421875 15.292969 35.050781 14.328125 C 35.636719 14.035156 35.96875 14.179688 36.59375 14.328125 Z M 36.59375 14.328125 "/>
<path style=" stroke:none;fill-rule:nonzero;fill:rgb(88.235294%,94.117647%,97.254902%);fill-opacity:1;" d="M 35.050781 53.789062 C 34.820312 54.347656 34.675781 54.628906 34.160156 54.960938 C 33.683594 55.292969 33.683594 55.292969 33.605469 55.832031 L 33.59375 56.40625 L 33.570312 57.035156 L 33.5625 57.6875 L 33.542969 58.347656 C 33.527344 58.882812 33.515625 59.421875 33.507812 59.960938 L 33.285156 59.960938 C 33.25 59.097656 33.226562 58.234375 33.203125 57.371094 L 33.171875 56.628906 C 33.136719 54.859375 33.136719 54.859375 33.570312 54.304688 C 34.050781 53.972656 34.464844 53.789062 35.050781 53.789062 Z M 35.050781 53.789062 "/>
<path style=" stroke:none;fill-rule:nonzero;fill:rgb(77.647059%,19.215686%,27.45098%);fill-opacity:1;" d="M 63.488281 91.261719 L 63.921875 91.472656 C 65.140625 92.042969 65.140625 92.042969 66.449219 91.980469 L 67.015625 91.703125 L 67.675781 91.703125 C 66.5625 92.789062 66.5625 92.789062 65.5 92.875 L 64.808594 92.804688 L 64.808594 92.363281 L 64.367188 92.363281 L 64.367188 91.925781 L 63.488281 91.703125 Z M 63.488281 91.261719 "/>
<path style=" stroke:none;fill-rule:nonzero;fill:rgb(61.960784%,11.764706%,27.058824%);fill-opacity:1;" d="M 65.472656 57.753906 L 65.472656 58.195312 C 64.859375 58.738281 64.238281 59 63.488281 59.296875 L 63.046875 59.738281 C 62.671875 59.871094 62.296875 59.992188 61.917969 60.097656 C 61.714844 60.15625 61.515625 60.210938 61.308594 60.273438 L 60.839844 60.402344 C 61.285156 59.726562 61.601562 59.402344 62.371094 59.148438 L 62.816406 58.992188 C 63.257812 58.859375 63.699219 58.746094 64.148438 58.636719 L 64.148438 58.195312 C 64.976562 57.753906 64.976562 57.753906 65.472656 57.753906 Z M 65.472656 57.753906 "/>
<path style=" stroke:none;fill-rule:nonzero;fill:rgb(15.686275%,31.372549%,53.333333%);fill-opacity:1;" d="M 33.128906 10.425781 L 33.507812 10.582031 L 32.84375 10.800781 L 32.625 11.464844 C 31.472656 12.566406 31.472656 12.566406 30.421875 12.566406 C 30.679688 11.78125 30.953125 11.582031 31.59375 11.078125 L 32.113281 10.652344 C 32.625 10.359375 32.625 10.359375 33.128906 10.425781 Z M 33.128906 10.425781 "/>
<path style=" stroke:none;fill-rule:nonzero;fill:rgb(99.215686%,93.333333%,93.333333%);fill-opacity:1;" d="M 86.414062 68.335938 C 86.160156 68.878906 85.960938 69.230469 85.53125 69.660156 C 85.449219 70.148438 85.449219 70.148438 85.441406 70.714844 L 85.414062 71.34375 L 85.394531 72 L 85.367188 72.664062 C 85.347656 73.207031 85.328125 73.746094 85.3125 74.289062 L 85.089844 74.289062 C 85.066406 73.421875 85.046875 72.550781 85.035156 71.683594 L 85.011719 70.9375 L 85.003906 70.21875 L 84.988281 69.558594 C 85.089844 68.996094 85.089844 68.996094 85.507812 68.589844 C 85.972656 68.335938 85.972656 68.335938 86.414062 68.335938 Z M 86.414062 68.335938 "/>
<path style=" stroke:none;fill-rule:nonzero;fill:rgb(9.411765%,25.490196%,47.45098%);fill-opacity:1;" d="M 28.65625 82.886719 L 29.320312 83.105469 L 25.570312 85.3125 L 25.570312 84.648438 L 25.984375 84.46875 C 26.519531 84.21875 26.519531 84.21875 26.894531 83.546875 C 27.402344 83.386719 27.917969 83.238281 28.4375 83.105469 Z M 28.65625 82.886719 "/>
<path style=" stroke:none;fill-rule:nonzero;fill:rgb(76.078431%,9.803922%,17.254902%);fill-opacity:1;" d="M 78.476562 65.03125 C 78.757812 65.167969 79.039062 65.304688 79.316406 65.445312 L 79.789062 65.675781 C 80.242188 65.910156 80.242188 65.910156 80.902344 66.351562 C 81.480469 66.390625 81.480469 66.390625 82.003906 66.351562 L 81.785156 66.792969 C 79.554688 66.75 79.554688 66.75 78.765625 66.035156 C 78.476562 65.472656 78.476562 65.472656 78.476562 65.03125 Z M 78.476562 65.03125 "/>
<path style=" stroke:none;fill-rule:nonzero;fill:rgb(9.019608%,25.490196%,49.019608%);fill-opacity:1;" d="M 37.035156 70.761719 C 38.394531 71.128906 39.566406 71.835938 40.78125 72.523438 L 40.78125 72.746094 L 39.679688 72.746094 L 39.679688 72.304688 L 39.269531 72.175781 L 38.730469 72 L 38.195312 71.832031 C 37.695312 71.644531 37.695312 71.644531 37.035156 71.203125 Z M 37.035156 70.761719 "/>
<path style=" stroke:none;fill-rule:nonzero;fill:rgb(82.352941%,89.019608%,94.509804%);fill-opacity:1;" d="M 67.675781 52.464844 C 67.675781 52.90625 67.675781 52.90625 67.125 53.472656 C 66.3125 54.128906 65.613281 54.175781 64.589844 54.226562 C 66.667969 52.464844 66.667969 52.464844 67.675781 52.464844 Z M 67.675781 52.464844 "/>
<path style=" stroke:none;fill-rule:nonzero;fill:rgb(19.215686%,34.509804%,56.862745%);fill-opacity:1;" d="M 72.523438 44.75 L 72.964844 44.96875 C 71.523438 46.488281 71.523438 46.488281 70.472656 46.566406 L 69.878906 46.511719 C 70.382812 45.964844 70.898438 45.609375 71.546875 45.246094 L 72.070312 44.945312 Z M 72.523438 44.75 "/>
<path style=" stroke:none;fill-rule:nonzero;fill:rgb(8.235294%,25.490196%,49.019608%);fill-opacity:1;" d="M 41.222656 23.144531 C 40.777344 24.214844 40.019531 24.621094 39.019531 25.128906 C 38.355469 25.308594 38.355469 25.308594 37.914062 25.351562 L 37.914062 24.910156 C 38.554688 24.632812 38.972656 24.46875 39.679688 24.46875 L 39.734375 24.054688 C 39.898438 23.585938 39.898438 23.585938 40.328125 23.3125 C 40.78125 23.144531 40.78125 23.144531 41.222656 23.144531 Z M 41.222656 23.144531 "/>
<path style=" stroke:none;fill-rule:nonzero;fill:rgb(4.313725%,21.176471%,45.882353%);fill-opacity:1;" d="M 90.820312 20.5 L 92.363281 20.941406 L 92.363281 25.792969 L 91.703125 25.570312 L 91.925781 25.351562 C 91.957031 25.039062 91.980469 24.726562 91.992188 24.414062 L 92.023438 23.84375 L 92.046875 23.242188 L 92.078125 22.640625 C 92.101562 22.148438 92.121094 21.65625 92.144531 21.164062 L 91.042969 21.164062 Z M 90.820312 20.5 "/>
<path style=" stroke:none;fill-rule:nonzero;fill:rgb(79.215686%,21.960784%,29.411765%);fill-opacity:1;" d="M 37.253906 83.105469 L 37.253906 83.546875 L 36.59375 83.546875 L 36.566406 83.960938 C 36.371094 84.429688 36.371094 84.429688 35.753906 84.71875 C 35.066406 84.867188 34.8125 84.84375 34.167969 84.648438 C 34.597656 84.390625 35.03125 84.132812 35.464844 83.878906 L 36.191406 83.445312 C 36.8125 83.105469 36.8125 83.105469 37.253906 83.105469 Z M 37.253906 83.105469 "/>
<path style=" stroke:none;fill-rule:nonzero;fill:rgb(77.254902%,12.54902%,21.176471%);fill-opacity:1;" d="M 37.914062 91.484375 L 37.914062 91.925781 L 37.476562 91.925781 L 37.253906 92.585938 L 36.59375 92.585938 L 36.59375 93.246094 L 35.933594 93.46875 L 35.933594 93.027344 L 35.269531 92.804688 C 35.628906 92.585938 35.988281 92.363281 36.34375 92.144531 L 36.949219 91.773438 C 37.476562 91.484375 37.476562 91.484375 37.914062 91.484375 Z M 37.914062 91.484375 "/>
<path style=" stroke:none;fill-rule:nonzero;fill:rgb(14.509804%,29.803922%,52.54902%);fill-opacity:1;" d="M 65.691406 48.9375 C 65.4375 49.703125 65.230469 49.992188 64.589844 50.480469 C 63.761719 50.535156 63.761719 50.535156 63.046875 50.480469 C 63.664062 49.753906 64.722656 48.9375 65.691406 48.9375 Z M 65.691406 48.9375 "/>
<path style=" stroke:none;fill-rule:nonzero;fill:rgb(15.294118%,31.372549%,54.901961%);fill-opacity:1;" d="M 68.335938 47.613281 C 68.023438 48.550781 68.023438 48.550781 67.453125 48.9375 C 66.855469 48.996094 66.296875 48.96875 65.691406 48.9375 C 66.480469 48.066406 67.144531 47.613281 68.335938 47.613281 Z M 68.335938 47.613281 "/>
<path style=" stroke:none;fill-rule:nonzero;fill:rgb(9.803922%,26.27451%,50.588235%);fill-opacity:1;" d="M 17.855469 76.273438 L 18.074219 77.15625 L 18.515625 77.375 L 18.074219 77.375 L 18.074219 80.019531 L 18.957031 80.242188 L 17.855469 80.902344 Z M 17.855469 76.273438 "/>
<path style=" stroke:none;fill-rule:nonzero;fill:rgb(8.627451%,25.882353%,49.411765%);fill-opacity:1;" d="M 41.882812 73.40625 C 42.875 73.777344 43.808594 74.25 44.75 74.730469 L 44.527344 75.171875 L 43.425781 75.171875 L 43.207031 74.507812 L 42.65625 74.289062 L 42.105469 74.066406 Z M 41.882812 73.40625 "/>
<path style=" stroke:none;fill-rule:nonzero;fill:rgb(9.411765%,25.490196%,50.588235%);fill-opacity:1;" d="M 85.089844 41.441406 L 86.414062 41.441406 C 85.421875 42.332031 84.296875 42.863281 83.105469 43.425781 L 83.105469 42.984375 L 83.546875 42.984375 L 83.546875 42.546875 L 85.089844 42.105469 Z M 85.089844 41.441406 "/>
<path style=" stroke:none;fill-rule:nonzero;fill:rgb(10.196078%,26.27451%,50.588235%);fill-opacity:1;" d="M 62.824219 15.652344 L 64.589844 15.652344 L 64.589844 15.871094 L 63.859375 16.035156 C 62.816406 16.390625 62.613281 16.757812 62.121094 17.691406 L 61.945312 18.074219 C 61.714844 17.460938 61.714844 17.222656 61.929688 16.589844 L 62.164062 16.09375 L 62.824219 16.09375 Z M 62.824219 15.652344 "/>
<path style=" stroke:none;fill-rule:nonzero;fill:rgb(98.431373%,87.45098%,88.235294%);fill-opacity:1;" d="M 20.722656 96.992188 L 21.164062 97.214844 C 20.335938 98.140625 19.679688 98.597656 18.515625 98.976562 C 18.027344 98.882812 18.027344 98.882812 17.636719 98.757812 L 18.140625 98.484375 L 18.804688 98.125 L 19.464844 97.765625 C 20.082031 97.433594 20.082031 97.433594 20.722656 96.992188 Z M 20.722656 96.992188 "/>
<path style=" stroke:none;fill-rule:nonzero;fill:rgb(77.647059%,17.647059%,25.098039%);fill-opacity:1;" d="M 76.933594 86.191406 C 76.613281 87.039062 76.203125 87.355469 75.390625 87.734375 C 74.769531 87.777344 74.769531 87.777344 74.289062 87.734375 C 76.152344 86.191406 76.152344 86.191406 76.933594 86.191406 Z M 76.933594 86.191406 "/>
<path style=" stroke:none;fill-rule:nonzero;fill:rgb(77.647059%,84.705882%,91.372549%);fill-opacity:1;" d="M 79.578125 45.410156 L 80.019531 45.632812 C 78.945312 46.675781 77.9375 47.042969 76.492188 47.394531 C 77.042969 46.773438 77.65625 46.414062 78.378906 46.015625 L 79.027344 45.65625 Z M 79.578125 45.410156 "/>
<path style=" stroke:none;fill-rule:nonzero;fill:rgb(6.27451%,25.882353%,51.764706%);fill-opacity:1;" d="M 52.464844 44.308594 C 53.207031 44.570312 53.710938 44.808594 54.226562 45.410156 L 52.90625 45.191406 L 52.90625 45.632812 L 52.023438 45.410156 Z M 52.464844 44.308594 "/>
<path style=" stroke:none;fill-rule:nonzero;fill:rgb(98.823529%,86.666667%,87.058824%);fill-opacity:1;" d="M 40.78125 85.53125 L 41.222656 85.75 C 39.953125 86.855469 39.953125 86.855469 39.457031 86.855469 L 39.457031 87.292969 L 38.578125 87.074219 C 39.195312 86.347656 39.941406 85.957031 40.78125 85.53125 Z M 40.78125 85.53125 "/>
<path style=" stroke:none;fill-rule:nonzero;fill:rgb(7.058824%,23.921569%,49.019608%);fill-opacity:1;" d="M 27.777344 74.289062 L 28.65625 74.730469 C 28.304688 74.957031 27.953125 75.183594 27.597656 75.40625 L 27 75.785156 C 26.453125 76.050781 26.453125 76.050781 25.792969 75.832031 L 26.21875 75.761719 L 26.671875 75.609375 L 26.894531 74.949219 C 27.347656 74.796875 27.347656 74.796875 27.777344 74.730469 Z M 27.777344 74.289062 "/>
<path style=" stroke:none;fill-rule:nonzero;fill:rgb(13.72549%,29.019608%,51.764706%);fill-opacity:1;" d="M 23.144531 73.1875 L 23.144531 73.847656 C 22.835938 74.039062 22.523438 74.226562 22.210938 74.414062 L 21.683594 74.730469 C 21.164062 74.949219 21.164062 74.949219 20.28125 74.730469 Z M 23.144531 73.1875 "/>
<path style=" stroke:none;fill-rule:nonzero;fill:rgb(9.803922%,26.666667%,48.235294%);fill-opacity:1;" d="M 78.917969 54.667969 L 76.273438 56.210938 L 76.050781 55.550781 C 76.40625 55.359375 76.757812 55.171875 77.113281 54.984375 L 77.710938 54.667969 C 78.257812 54.449219 78.257812 54.449219 78.917969 54.667969 Z M 78.917969 54.667969 "/>
<path style=" stroke:none;fill-rule:nonzero;fill:rgb(7.843137%,23.137255%,47.45098%);fill-opacity:1;" d="M 84.871094 21.164062 L 85.3125 21.382812 L 85.3125 21.824219 L 85.75 22.042969 L 85.945312 22.800781 C 86.105469 23.601562 86.105469 23.601562 86.660156 23.902344 C 86.796875 23.945312 86.933594 23.984375 87.074219 24.027344 L 86.632812 24.46875 C 86.421875 24.195312 86.210938 23.917969 86 23.640625 L 85.644531 23.175781 C 85.148438 22.476562 84.871094 22.03125 84.871094 21.164062 Z M 84.871094 21.164062 "/>
<path style=" stroke:none;fill-rule:nonzero;fill:rgb(16.862745%,31.372549%,52.54902%);fill-opacity:1;" d="M 86.414062 12.125 L 86.855469 12.125 C 86.453125 12.960938 86.019531 13.761719 85.53125 14.550781 L 84.871094 14.769531 C 85.199219 13.78125 85.714844 12.902344 86.414062 12.125 Z M 86.414062 12.125 "/>
<path style=" stroke:none;fill-rule:nonzero;fill:rgb(74.117647%,15.294118%,23.137255%);fill-opacity:1;" d="M 54.890625 86.414062 C 55.984375 86.800781 56.96875 87.382812 57.976562 87.957031 L 57.753906 88.398438 L 57.316406 88.398438 L 57.316406 87.957031 L 56.652344 87.957031 L 56.652344 87.515625 L 55.894531 87.335938 L 55.109375 87.074219 Z M 54.890625 86.414062 "/>
<path style=" stroke:none;fill-rule:nonzero;fill:rgb(99.607843%,92.941176%,93.72549%);fill-opacity:1;" d="M 77.375 81.34375 L 77.59375 81.34375 L 77.59375 85.75 L 76.714844 86.191406 L 76.933594 85.3125 L 77.375 85.3125 Z M 77.375 81.34375 "/>
<path style=" stroke:none;fill-rule:nonzero;fill:rgb(76.078431%,14.509804%,22.745098%);fill-opacity:1;" d="M 83.546875 60.179688 L 84.648438 60.402344 C 82.839844 61.945312 82.839844 61.945312 81.785156 61.945312 L 81.785156 61.503906 L 82.445312 61.503906 L 82.445312 61.0625 L 83.328125 61.0625 Z M 83.546875 60.179688 "/>
<path style=" stroke:none;fill-rule:nonzero;fill:rgb(78.823529%,14.117647%,23.529412%);fill-opacity:1;" d="M 47.394531 86.632812 C 46.71875 87.289062 46.410156 87.507812 45.453125 87.570312 L 44.75 87.515625 C 46.339844 86.105469 46.339844 86.105469 47.394531 86.632812 Z M 47.394531 86.632812 "/>
<path style=" stroke:none;fill-rule:nonzero;fill:rgb(76.078431%,15.686275%,24.705882%);fill-opacity:1;" d="M 87.957031 62.824219 L 87.957031 63.265625 C 87.644531 63.457031 87.332031 63.644531 87.019531 63.832031 L 86.492188 64.148438 C 85.902344 64.398438 85.675781 64.371094 85.089844 64.148438 C 85.484375 63.925781 85.878906 63.707031 86.273438 63.488281 L 86.941406 63.113281 C 87.515625 62.824219 87.515625 62.824219 87.957031 62.824219 Z M 87.957031 62.824219 "/>
<path style=" stroke:none;fill-rule:nonzero;fill:rgb(21.176471%,35.294118%,57.254902%);fill-opacity:1;" d="M 31.300781 24.027344 C 31.660156 24.128906 32.019531 24.230469 32.378906 24.332031 L 32.980469 24.5 C 33.507812 24.6875 33.507812 24.6875 33.949219 25.128906 L 34.609375 25.570312 C 33.273438 25.488281 32.363281 25.066406 31.300781 24.25 Z M 31.300781 24.027344 "/>
<path style=" stroke:none;fill-rule:nonzero;fill:rgb(66.27451%,76.862745%,88.627451%);fill-opacity:1;" d="M 61.945312 10.359375 L 62.164062 10.359375 L 62.164062 11.464844 L 62.824219 11.683594 L 61.945312 13.226562 L 61.722656 13.226562 C 61.71875 12.914062 61.714844 12.601562 61.710938 12.289062 L 61.703125 11.761719 C 61.722656 11.261719 61.804688 10.839844 61.945312 10.359375 Z M 61.945312 10.359375 "/>
<path style=" stroke:none;fill-rule:nonzero;fill:rgb(78.431373%,13.72549%,22.352941%);fill-opacity:1;" d="M 52.601562 92.296875 C 53.125 92.585938 53.125 92.585938 53.304688 93.054688 L 53.347656 93.46875 C 52.515625 93.226562 51.921875 93.046875 51.363281 92.363281 C 52.023438 92.144531 52.023438 92.144531 52.601562 92.296875 Z M 52.601562 92.296875 "/>
<path style=" stroke:none;fill-rule:nonzero;fill:rgb(0.784314%,22.352941%,50.588235%);fill-opacity:1;" d="M 81.121094 49.820312 L 80.902344 50.703125 L 79.578125 50.480469 L 79.359375 49.820312 C 79.988281 49.503906 80.445312 49.6875 81.121094 49.820312 Z M 81.121094 49.820312 "/>
<path style=" stroke:none;fill-rule:nonzero;fill:rgb(7.843137%,25.098039%,50.980392%);fill-opacity:1;" d="M 64.191406 10.648438 L 64.589844 10.800781 C 63.792969 11.835938 63.792969 11.835938 63.488281 12.125 L 62.824219 12.125 C 62.914062 11.605469 63.023438 11.273438 63.335938 10.84375 C 63.707031 10.582031 63.707031 10.582031 64.191406 10.648438 Z M 64.191406 10.648438 "/>
<path style=" stroke:none;fill-rule:nonzero;fill:rgb(9.803922%,24.313725%,49.411765%);fill-opacity:1;" d="M 90.378906 48.054688 L 87.957031 49.597656 L 87.515625 49.160156 L 88.175781 49.160156 L 88.175781 48.496094 C 88.460938 48.378906 88.746094 48.265625 89.03125 48.152344 L 89.511719 47.957031 C 89.941406 47.835938 89.941406 47.835938 90.378906 48.054688 Z M 90.378906 48.054688 "/>
<path style=" stroke:none;fill-rule:nonzero;fill:rgb(9.803922%,24.705882%,50.588235%);fill-opacity:1;" d="M 49.597656 42.765625 C 50.734375 42.871094 51.542969 43.46875 52.464844 44.089844 L 51.804688 44.308594 C 51.429688 44.097656 51.0625 43.878906 50.703125 43.648438 L 50.207031 43.535156 L 49.820312 43.425781 Z M 49.597656 42.765625 "/>
<path style=" stroke:none;fill-rule:nonzero;fill:rgb(9.411765%,25.490196%,49.803922%);fill-opacity:1;" d="M 75.390625 23.585938 L 76.050781 23.808594 C 75.03125 25.101562 75.03125 25.101562 74.289062 25.351562 C 74.550781 24.605469 74.789062 24.105469 75.390625 23.585938 Z M 75.390625 23.585938 "/>
<path style=" stroke:none;fill-rule:nonzero;fill:rgb(13.333333%,28.235294%,50.196078%);fill-opacity:1;" d="M 20.058594 22.925781 C 20.765625 23 20.9375 23.140625 21.410156 23.699219 L 21.824219 24.25 L 22.265625 24.46875 L 22.265625 24.910156 C 21.390625 24.539062 20.753906 24 20.058594 23.367188 Z M 20.058594 22.925781 "/>
<path style=" stroke:none;fill-rule:nonzero;fill:rgb(75.686275%,11.764706%,20%);fill-opacity:1;" d="M 34.167969 89.5 L 31.964844 90.601562 C 32.40625 89.5 32.40625 89.5 32.816406 89.304688 C 33.285156 89.277344 33.285156 89.277344 34.167969 89.5 Z M 34.167969 89.5 "/>
<path style=" stroke:none;fill-rule:nonzero;fill:rgb(56.470588%,13.333333%,28.627451%);fill-opacity:1;" d="M 60.839844 60.621094 C 60.285156 61.308594 60.019531 61.492188 59.132812 61.667969 L 58.417969 61.722656 C 59.796875 60.308594 59.796875 60.308594 60.839844 60.621094 Z M 60.839844 60.621094 "/>
<path style=" stroke:none;fill-rule:nonzero;fill:rgb(21.176471%,35.294118%,56.470588%);fill-opacity:1;" d="M 30.863281 48.054688 C 30.640625 48.71875 30.640625 48.71875 30.019531 49.101562 C 29.289062 49.390625 29.144531 49.386719 28.4375 49.160156 C 28.757812 48.972656 29.078125 48.789062 29.402344 48.605469 L 29.945312 48.296875 C 30.421875 48.054688 30.421875 48.054688 30.863281 48.054688 Z M 30.863281 48.054688 "/>
<path style=" stroke:none;fill-rule:nonzero;fill:rgb(71.372549%,78.823529%,87.843137%);fill-opacity:1;" d="M 74.949219 25.128906 L 74.949219 25.792969 L 74.507812 25.792969 L 74.289062 26.234375 L 71.421875 26.011719 L 71.421875 25.792969 L 71.984375 25.757812 L 72.71875 25.707031 L 73.445312 25.664062 C 74.148438 25.558594 74.289062 25.128906 74.949219 25.128906 Z M 74.949219 25.128906 "/>
<path style=" stroke:none;fill-rule:nonzero;fill:rgb(7.45098%,26.666667%,53.72549%);fill-opacity:1;" d="M 31.300781 12.34375 C 31.273438 12.757812 31.273438 12.757812 31.082031 13.226562 C 30.40625 13.503906 30.40625 13.503906 29.757812 13.667969 C 30.234375 12.34375 30.234375 12.34375 31.300781 12.34375 Z M 31.300781 12.34375 "/>
<path style=" stroke:none;fill-rule:nonzero;fill:rgb(12.156863%,29.411765%,56.470588%);fill-opacity:1;" d="M 69.4375 11.683594 L 69.660156 12.34375 L 70.320312 12.125 C 70.140625 12.550781 70.140625 12.550781 69.878906 13.007812 C 69.21875 13.226562 69.21875 13.226562 68.777344 13.007812 C 69.191406 11.929688 69.191406 11.929688 69.4375 11.683594 Z M 69.4375 11.683594 "/>
<path style=" stroke:none;fill-rule:nonzero;fill:rgb(99.215686%,86.27451%,87.058824%);fill-opacity:1;" d="M 29.757812 86.632812 L 30.640625 86.855469 L 28.214844 88.175781 L 28.214844 87.515625 C 28.800781 87.191406 29.074219 87.074219 29.757812 87.074219 Z M 29.757812 86.632812 "/>
<path style=" stroke:none;fill-rule:nonzero;fill:rgb(8.235294%,25.490196%,53.333333%);fill-opacity:1;" d="M 36.152344 78.035156 C 36.441406 78.09375 36.730469 78.152344 37.019531 78.214844 L 37.507812 78.316406 L 37.914062 78.476562 L 38.136719 79.136719 L 35.933594 78.699219 Z M 36.152344 78.035156 "/>
<path style=" stroke:none;fill-rule:nonzero;fill:rgb(10.980392%,26.27451%,49.411765%);fill-opacity:1;" d="M 34.167969 68.996094 C 35.117188 69.34375 35.945312 69.808594 36.8125 70.320312 L 36.59375 70.761719 L 34.167969 69.4375 Z M 34.167969 68.996094 "/>
<path style=" stroke:none;fill-rule:nonzero;fill:rgb(70.196078%,18.823529%,30.196078%);fill-opacity:1;" d="M 68.777344 59.078125 C 70.214844 59.402344 70.214844 59.402344 70.746094 59.988281 L 70.980469 60.402344 L 70.320312 60.621094 L 70.320312 60.179688 L 69.796875 60.125 C 69.21875 59.960938 69.21875 59.960938 68.929688 59.503906 Z M 68.777344 59.078125 "/>
<path style=" stroke:none;fill-rule:nonzero;fill:rgb(15.294118%,20.784314%,45.882353%);fill-opacity:1;" d="M 67.894531 58.195312 L 69.4375 58.195312 L 69.878906 59.519531 C 69.011719 59.230469 68.507812 58.875 67.894531 58.195312 Z M 67.894531 58.195312 "/>
<path style=" stroke:none;fill-rule:nonzero;fill:rgb(85.882353%,91.372549%,95.686275%);fill-opacity:1;" d="M 84.871094 51.140625 L 85.3125 51.363281 C 84.144531 52.449219 84.144531 52.449219 83.355469 52.535156 L 82.886719 52.464844 C 84.140625 51.417969 84.140625 51.417969 84.871094 51.140625 Z M 84.871094 51.140625 "/>
<path style=" stroke:none;fill-rule:nonzero;fill:rgb(15.686275%,30.588235%,53.333333%);fill-opacity:1;" d="M 47.613281 49.378906 L 49.160156 49.820312 L 49.160156 50.261719 L 49.820312 50.039062 L 50.039062 50.921875 C 49.132812 50.601562 48.394531 50.160156 47.613281 49.597656 Z M 47.613281 49.378906 "/>
<path style=" stroke:none;fill-rule:nonzero;fill:rgb(15.686275%,30.980392%,53.333333%);fill-opacity:1;" d="M 80.242188 44.527344 L 81.121094 44.75 L 78.699219 46.070312 L 78.476562 45.632812 L 78.917969 45.632812 L 78.917969 45.191406 L 80.242188 44.96875 Z M 80.242188 44.527344 "/>
<path style=" stroke:none;fill-rule:nonzero;fill:rgb(23.137255%,36.470588%,56.078431%);fill-opacity:1;" d="M 48.054688 3.304688 C 48.054688 4.441406 47.429688 5.3125 46.734375 6.171875 C 46.898438 5.0625 47.253906 4.105469 48.054688 3.304688 Z M 48.054688 3.304688 "/>
<path style=" stroke:none;fill-rule:nonzero;fill:rgb(20.784314%,35.686275%,56.078431%);fill-opacity:1;" d="M 29.980469 77.816406 C 30.421875 78.035156 30.421875 78.035156 30.640625 78.476562 C 30.320312 78.59375 30 78.707031 29.675781 78.820312 L 29.132812 79.015625 C 28.65625 79.136719 28.65625 79.136719 28.214844 78.917969 C 28.5 78.726562 28.785156 78.539062 29.070312 78.351562 L 29.550781 78.035156 Z M 29.980469 77.816406 "/>
<path style=" stroke:none;fill-rule:nonzero;fill:rgb(78.039216%,15.294118%,25.490196%);fill-opacity:1;" d="M 76.933594 60.839844 C 76.125 61.386719 75.476562 61.609375 74.507812 61.722656 C 75.246094 60.910156 75.839844 60.449219 76.933594 60.839844 Z M 76.933594 60.839844 "/>
<path style=" stroke:none;fill-rule:nonzero;fill:rgb(94.509804%,84.705882%,87.45098%);fill-opacity:1;" d="M 70.542969 59.296875 L 70.980469 59.296875 C 71.359375 59.730469 71.726562 60.171875 72.085938 60.621094 L 71.644531 60.839844 L 70.320312 59.960938 Z M 70.542969 59.296875 "/>
<path style=" stroke:none;fill-rule:nonzero;fill:rgb(80.784314%,87.058824%,93.333333%);fill-opacity:1;" d="M 72.523438 49.378906 L 72.964844 49.597656 C 71.917969 50.675781 71.917969 50.675781 71.421875 50.921875 L 71.421875 50.480469 L 70.980469 50.261719 C 72.144531 49.550781 72.144531 49.550781 72.523438 49.378906 Z M 72.523438 49.378906 "/>
<path style=" stroke:none;fill-rule:nonzero;fill:rgb(7.45098%,25.882353%,52.54902%);fill-opacity:1;" d="M 24.25 14.328125 L 24.910156 14.550781 L 24.910156 14.988281 L 25.570312 15.210938 C 25.046875 15.554688 25.046875 15.554688 24.46875 15.871094 L 24.027344 15.652344 Z M 24.25 14.328125 "/>
<path style=" stroke:none;fill-rule:nonzero;fill:rgb(26.27451%,40.392157%,61.176471%);fill-opacity:1;" d="M 72.550781 10.125 L 73.160156 10.132812 L 73.628906 10.140625 L 73.628906 10.359375 L 71.863281 10.359375 L 71.863281 10.800781 L 70.320312 11.023438 C 71.066406 10.242188 71.472656 10.113281 72.550781 10.125 Z M 72.550781 10.125 "/>
<path style=" stroke:none;fill-rule:nonzero;fill:rgb(80%,10.980392%,19.607843%);fill-opacity:1;" d="M 37.171875 95.644531 L 37.695312 95.671875 L 37.695312 96.332031 L 36.371094 96.773438 L 36.152344 96.113281 C 36.59375 95.671875 36.59375 95.671875 37.171875 95.644531 Z M 37.171875 95.644531 "/>
<path style=" stroke:none;fill-rule:nonzero;fill:rgb(78.823529%,21.568627%,28.627451%);fill-opacity:1;" d="M 35.050781 93.246094 L 35.050781 93.6875 C 34.289062 94.195312 33.742188 94.246094 32.84375 94.347656 C 33.507812 93.621094 34.046875 93.246094 35.050781 93.246094 Z M 35.050781 93.246094 "/>
<path style=" stroke:none;fill-rule:nonzero;fill:rgb(79.215686%,21.176471%,29.411765%);fill-opacity:1;" d="M 71.203125 89.5 L 71.203125 89.941406 L 70.761719 89.941406 L 70.542969 90.601562 L 69.21875 90.601562 C 69.78125 89.984375 70.335938 89.5 71.203125 89.5 Z M 71.203125 89.5 "/>
<path style=" stroke:none;fill-rule:nonzero;fill:rgb(26.27451%,35.686275%,55.686275%);fill-opacity:1;" d="M 39.238281 79.578125 C 39.882812 79.71875 40.421875 79.929688 41.003906 80.242188 L 41.003906 81.121094 C 40.5625 81.121094 40.5625 81.121094 40.121094 80.695312 L 39.679688 80.242188 L 39.238281 80.019531 Z M 39.238281 79.578125 "/>
<path style=" stroke:none;fill-rule:nonzero;fill:rgb(12.156863%,26.666667%,50.196078%);fill-opacity:1;" d="M 46.511719 74.507812 L 46.511719 76.050781 L 46.292969 75.171875 L 44.75 75.390625 L 44.75 74.949219 C 45.390625 74.671875 45.808594 74.507812 46.511719 74.507812 Z M 46.511719 74.507812 "/>
<path style=" stroke:none;fill-rule:nonzero;fill:rgb(77.647059%,14.509804%,23.137255%);fill-opacity:1;" d="M 80.019531 62.164062 L 81.5625 62.164062 C 80.429688 63.140625 80.429688 63.140625 79.578125 63.265625 L 79.578125 62.824219 L 80.019531 62.824219 Z M 80.019531 62.164062 "/>
<path style=" stroke:none;fill-rule:nonzero;fill:rgb(76.862745%,11.372549%,20.784314%);fill-opacity:1;" d="M 86.191406 58.636719 L 86.855469 59.296875 L 85.089844 60.179688 L 85.3125 59.078125 L 86.191406 59.296875 Z M 86.191406 58.636719 "/>
<path style=" stroke:none;fill-rule:nonzero;fill:rgb(9.411765%,25.882353%,50.196078%);fill-opacity:1;" d="M 70.761719 58.417969 L 71.863281 58.417969 C 71.238281 59.132812 70.832031 59.414062 69.878906 59.519531 L 69.660156 59.078125 L 70.085938 58.996094 L 70.542969 58.859375 Z M 70.761719 58.417969 "/>
<path style=" stroke:none;fill-rule:nonzero;fill:rgb(97.647059%,80.784314%,81.960784%);fill-opacity:1;" d="M 92.144531 56.210938 L 92.144531 56.652344 L 91.484375 56.652344 L 91.304688 57.082031 C 91.042969 57.535156 91.042969 57.535156 90.378906 57.753906 L 89.941406 57.316406 C 90.601562 56.875 90.601562 56.875 91.261719 56.875 L 91.261719 56.433594 C 91.703125 56.210938 91.703125 56.210938 92.144531 56.210938 Z M 92.144531 56.210938 "/>
<path style=" stroke:none;fill-rule:nonzero;fill:rgb(6.27451%,22.352941%,47.45098%);fill-opacity:1;" d="M 54.667969 45.632812 C 54.953125 45.761719 55.238281 45.894531 55.523438 46.03125 L 56.003906 46.253906 C 56.433594 46.511719 56.433594 46.511719 56.875 47.175781 C 56.085938 47.175781 55.925781 46.996094 55.332031 46.511719 L 54.667969 46.070312 Z M 54.667969 45.632812 "/>
<path style=" stroke:none;fill-rule:nonzero;fill:rgb(21.960784%,36.862745%,58.431373%);fill-opacity:1;" d="M 76.714844 42.324219 L 77.15625 42.546875 L 76.050781 43.648438 L 75.171875 43.207031 C 76.332031 42.496094 76.332031 42.496094 76.714844 42.324219 Z M 76.714844 42.324219 "/>
<path style=" stroke:none;fill-rule:nonzero;fill:rgb(84.313725%,91.372549%,96.862745%);fill-opacity:1;" d="M 21.164062 24.25 L 23.808594 25.570312 C 23.492188 25.546875 23.171875 25.519531 22.855469 25.488281 C 22.679688 25.472656 22.503906 25.457031 22.324219 25.441406 C 21.824219 25.351562 21.824219 25.351562 21.164062 24.910156 Z M 21.164062 24.25 "/>
<path style=" stroke:none;fill-rule:nonzero;fill:rgb(3.137255%,21.568627%,47.058824%);fill-opacity:1;" d="M 34.167969 14.328125 L 34.609375 14.769531 C 34.601562 15.371094 34.484375 15.9375 34.390625 16.53125 C 34.03125 16.175781 34.03125 16.175781 33.726562 15.652344 C 33.90625 14.933594 33.90625 14.933594 34.167969 14.328125 Z M 34.167969 14.328125 "/>
<path style=" stroke:none;fill-rule:nonzero;fill:rgb(75.294118%,10.980392%,18.431373%);fill-opacity:1;" d="M 25.128906 93.6875 L 25.128906 94.128906 L 25.792969 93.6875 L 26.453125 93.90625 L 24.6875 94.789062 L 24.46875 93.90625 C 24.6875 93.6875 24.6875 93.6875 25.128906 93.6875 Z M 25.128906 93.6875 "/>
<path style=" stroke:none;fill-rule:nonzero;fill:rgb(98.431373%,84.313725%,85.882353%);fill-opacity:1;" d="M 44.527344 92.144531 L 44.96875 92.363281 C 44.449219 92.921875 44.160156 93.222656 43.425781 93.46875 L 42.984375 93.027344 C 44.148438 92.316406 44.148438 92.316406 44.527344 92.144531 Z M 44.527344 92.144531 "/>
<path style=" stroke:none;fill-rule:nonzero;fill:rgb(75.686275%,17.254902%,24.313725%);fill-opacity:1;" d="M 41.441406 81.121094 L 40.5625 81.34375 L 40.5625 81.785156 C 39.898438 82.222656 39.898438 82.222656 39.238281 82.222656 C 39.457031 81.5625 39.457031 81.5625 39.84375 81.300781 C 40.40625 81.097656 40.851562 81.089844 41.441406 81.121094 Z M 41.441406 81.121094 "/>
<path style=" stroke:none;fill-rule:nonzero;fill:rgb(74.117647%,13.72549%,21.960784%);fill-opacity:1;" d="M 56.652344 69.878906 L 57.753906 69.878906 C 57.234375 70.457031 56.675781 70.835938 55.992188 71.203125 L 55.550781 71.203125 C 55.773438 70.542969 55.773438 70.542969 56.226562 70.277344 L 56.652344 70.101562 Z M 56.652344 69.878906 "/>
<path style=" stroke:none;fill-rule:nonzero;fill:rgb(74.117647%,17.647059%,27.45098%);fill-opacity:1;" d="M 65.472656 57.753906 L 65.472656 58.195312 C 64.792969 58.847656 64.183594 58.972656 63.265625 59.078125 L 63.488281 58.636719 L 64.148438 58.636719 L 64.148438 58.195312 C 64.976562 57.753906 64.976562 57.753906 65.472656 57.753906 Z M 65.472656 57.753906 "/>
<path style=" stroke:none;fill-rule:nonzero;fill:rgb(99.215686%,87.45098%,87.45098%);fill-opacity:1;" d="M 89.277344 57.976562 C 89.058594 58.636719 89.058594 58.636719 88.398438 59.078125 C 87.804688 59.105469 87.804688 59.105469 87.292969 59.078125 C 88.644531 57.976562 88.644531 57.976562 89.277344 57.976562 Z M 89.277344 57.976562 "/>
<path style=" stroke:none;fill-rule:nonzero;fill:rgb(72.156863%,13.333333%,20.392157%);fill-opacity:1;" d="M 88.398438 53.566406 L 88.617188 54.007812 L 88.175781 54.007812 L 87.957031 54.667969 C 87.433594 54.945312 87.433594 54.945312 86.855469 55.109375 L 86.191406 54.890625 Z M 88.398438 53.566406 "/>
<path style=" stroke:none;fill-rule:nonzero;fill:rgb(84.705882%,90.196078%,95.294118%);fill-opacity:1;" d="M 91.261719 47.394531 L 91.703125 47.613281 L 90.820312 48.71875 L 89.71875 48.496094 C 90.226562 48.113281 90.734375 47.746094 91.261719 47.394531 Z M 91.261719 47.394531 "/>
<path style=" stroke:none;fill-rule:nonzero;fill:rgb(85.882353%,91.764706%,98.039216%);fill-opacity:1;" d="M 90.601562 9.699219 L 91.484375 9.699219 L 91.484375 10.140625 L 92.585938 10.140625 L 92.585938 10.359375 L 90.160156 10.359375 Z M 90.601562 9.699219 "/>
<path style=" stroke:none;fill-rule:nonzero;fill:rgb(97.647059%,80%,81.176471%);fill-opacity:1;" d="M 80.679688 91.925781 L 81.121094 92.144531 C 80.441406 92.953125 79.964844 93.152344 78.917969 93.246094 C 79.4375 92.671875 79.988281 92.277344 80.679688 91.925781 Z M 80.679688 91.925781 "/>
<path style=" stroke:none;fill-rule:nonzero;fill:rgb(97.647059%,79.607843%,81.568627%);fill-opacity:1;" d="M 63.046875 90.820312 L 63.929688 90.820312 L 63.929688 91.261719 L 65.03125 91.484375 L 65.25 92.144531 C 64.371094 91.84375 63.75 91.425781 63.046875 90.820312 Z M 63.046875 90.820312 "/>
<path style=" stroke:none;fill-rule:nonzero;fill:rgb(99.607843%,89.019608%,89.019608%);fill-opacity:1;" d="M 25.128906 89.277344 L 26.011719 89.5 C 25.726562 89.683594 25.441406 89.867188 25.15625 90.050781 L 24.675781 90.359375 C 24.25 90.601562 24.25 90.601562 23.808594 90.601562 L 24.027344 89.941406 L 25.128906 89.71875 Z M 25.128906 89.277344 "/>
<path style=" stroke:none;fill-rule:nonzero;fill:rgb(97.647059%,82.745098%,83.529412%);fill-opacity:1;" d="M 59.078125 88.617188 L 60.179688 88.617188 L 60.179688 89.058594 L 61.0625 89.058594 L 61.0625 89.71875 C 60.300781 89.445312 59.707031 89.128906 59.078125 88.617188 Z M 59.078125 88.617188 "/>
<path style=" stroke:none;fill-rule:nonzero;fill:rgb(9.019608%,25.882353%,49.019608%);fill-opacity:1;" d="M 23.367188 76.714844 L 24.910156 76.714844 C 24.390625 77.3125 23.890625 77.554688 23.144531 77.816406 Z M 23.367188 76.714844 "/>
<path style=" stroke:none;fill-rule:nonzero;fill:rgb(8.627451%,26.27451%,50.980392%);fill-opacity:1;" d="M 80.679688 52.90625 L 80.902344 53.566406 C 79.855469 54.226562 79.855469 54.226562 79.359375 54.226562 L 79.359375 53.789062 L 80.019531 53.789062 L 79.800781 53.125 Z M 80.679688 52.90625 "/>
<path style=" stroke:none;fill-rule:nonzero;fill:rgb(84.705882%,92.54902%,97.254902%);fill-opacity:1;" d="M 26.453125 9.257812 L 26.671875 9.917969 L 24.6875 9.917969 C 24.910156 9.480469 24.910156 9.480469 25.324219 9.339844 C 25.792969 9.257812 25.792969 9.257812 26.453125 9.257812 Z M 26.453125 9.257812 "/>
<path style=" stroke:none;fill-rule:nonzero;fill:rgb(75.686275%,18.431373%,24.313725%);fill-opacity:1;" d="M 48.277344 90.601562 L 49.160156 90.601562 L 49.160156 91.042969 L 50.261719 91.261719 L 50.261719 91.703125 C 49.429688 91.464844 48.835938 91.28125 48.277344 90.601562 Z M 48.277344 90.601562 "/>
<path style=" stroke:none;fill-rule:nonzero;fill:rgb(79.607843%,17.254902%,24.705882%);fill-opacity:1;" d="M 74.289062 87.734375 L 74.066406 88.617188 C 73.40625 88.617188 73.40625 88.617188 72.746094 88.398438 C 73.792969 87.734375 73.792969 87.734375 74.289062 87.734375 Z M 74.289062 87.734375 "/>
<path style=" stroke:none;fill-rule:nonzero;fill:rgb(82.745098%,13.72549%,21.176471%);fill-opacity:1;" d="M 37.476562 82.664062 L 37.914062 82.886719 L 37.914062 83.765625 L 37.035156 83.765625 Z M 37.476562 82.664062 "/>
<path style=" stroke:none;fill-rule:nonzero;fill:rgb(17.647059%,34.117647%,55.686275%);fill-opacity:1;" d="M 31.964844 76.714844 L 32.40625 76.933594 L 32.183594 77.59375 L 31.082031 77.59375 L 30.863281 78.035156 L 30.421875 77.59375 C 31.582031 76.882812 31.582031 76.882812 31.964844 76.714844 Z M 31.964844 76.714844 "/>
<path style=" stroke:none;fill-rule:nonzero;fill:rgb(98.039216%,80.784314%,82.352941%);fill-opacity:1;" d="M 81.785156 61.945312 L 82.222656 62.164062 C 81.546875 62.972656 81.066406 63.171875 80.019531 63.265625 C 80.597656 62.800781 81.164062 62.355469 81.785156 61.945312 Z M 81.785156 61.945312 "/>
<path style=" stroke:none;fill-rule:nonzero;fill:rgb(78.823529%,86.27451%,93.72549%);fill-opacity:1;" d="M 73.628906 57.535156 L 74.066406 57.753906 L 72.746094 58.859375 L 72.085938 58.417969 C 73.246094 57.707031 73.246094 57.707031 73.628906 57.535156 Z M 73.628906 57.535156 "/>
<path style=" stroke:none;fill-rule:nonzero;fill:rgb(76.078431%,13.333333%,22.352941%);fill-opacity:1;" d="M 90.378906 52.683594 L 90.160156 53.566406 C 89.636719 53.703125 89.636719 53.703125 89.058594 53.789062 L 88.617188 53.347656 C 89.886719 52.683594 89.886719 52.683594 90.378906 52.683594 Z M 90.378906 52.683594 "/>
<path style=" stroke:none;fill-rule:nonzero;fill:rgb(16.862745%,33.333333%,57.254902%);fill-opacity:1;" d="M 42.984375 41.003906 L 43.425781 41.222656 L 42.324219 42.324219 L 42.324219 41.882812 L 41.882812 41.664062 C 42.40625 41.320312 42.40625 41.320312 42.984375 41.003906 Z M 42.984375 41.003906 "/>
<path style=" stroke:none;fill-rule:nonzero;fill:rgb(98.431373%,80.392157%,82.745098%);fill-opacity:1;" d="M 26.671875 102.285156 L 27.113281 102.503906 C 26.851562 102.945312 26.851562 102.945312 26.453125 103.386719 C 25.859375 103.441406 25.859375 103.441406 25.351562 103.386719 C 25.777344 102.941406 26.152344 102.632812 26.671875 102.285156 Z M 26.671875 102.285156 "/>
<path style=" stroke:none;fill-rule:nonzero;fill:rgb(79.215686%,22.745098%,31.372549%);fill-opacity:1;" d="M 32.84375 85.3125 L 33.285156 85.53125 C 32.996094 85.863281 32.996094 85.863281 32.625 86.191406 L 31.964844 86.191406 L 31.742188 86.855469 L 31.082031 86.414062 C 31.367188 86.222656 31.652344 86.035156 31.9375 85.847656 L 32.417969 85.53125 Z M 32.84375 85.3125 "/>
<path style=" stroke:none;fill-rule:nonzero;fill:rgb(10.980392%,24.705882%,47.843137%);fill-opacity:1;" d="M 45.632812 82.003906 L 46.734375 82.222656 C 46.214844 82.6875 45.953125 82.878906 45.246094 82.925781 L 44.75 82.886719 L 45.410156 82.664062 Z M 45.632812 82.003906 "/>
<path style=" stroke:none;fill-rule:nonzero;fill:rgb(1.176471%,21.960784%,48.627451%);fill-opacity:1;" d="M 18.074219 76.273438 L 19.398438 76.714844 L 18.957031 77.375 L 18.074219 77.15625 Z M 18.074219 76.273438 "/>
<path style=" stroke:none;fill-rule:nonzero;fill:rgb(85.490196%,91.372549%,96.862745%);fill-opacity:1;" d="M 24.6875 72.523438 C 23.203125 73.40625 23.203125 73.40625 22.707031 73.40625 C 22.925781 72.746094 22.925781 72.746094 23.324219 72.46875 C 23.882812 72.277344 24.144531 72.328125 24.6875 72.523438 Z M 24.6875 72.523438 "/>
<path style=" stroke:none;fill-rule:nonzero;fill:rgb(62.745098%,14.901961%,25.882353%);fill-opacity:1;" d="M 57.753906 61.722656 L 58.195312 61.945312 L 57.976562 62.386719 L 57.535156 62.386719 L 57.535156 62.824219 L 56.433594 62.824219 C 57.257812 61.972656 57.257812 61.972656 57.753906 61.722656 Z M 57.753906 61.722656 "/>
<path style=" stroke:none;fill-rule:nonzero;fill:rgb(91.372549%,85.490196%,89.803922%);fill-opacity:1;" d="M 66.351562 56.433594 L 67.015625 56.875 L 65.25 57.753906 L 65.25 57.09375 L 66.132812 57.09375 Z M 66.351562 56.433594 "/>
<path style=" stroke:none;fill-rule:nonzero;fill:rgb(80.784314%,88.235294%,94.509804%);fill-opacity:1;" d="M 78.257812 54.890625 L 78.699219 55.109375 C 78.261719 55.667969 78.042969 55.769531 77.332031 55.921875 L 76.714844 55.992188 C 77.761719 55.136719 77.761719 55.136719 78.257812 54.890625 Z M 78.257812 54.890625 "/>
<path style=" stroke:none;fill-rule:nonzero;fill:rgb(10.588235%,25.490196%,49.019608%);fill-opacity:1;" d="M 61.0625 49.597656 C 61.824219 49.875 62.417969 50.1875 63.046875 50.703125 C 62.222656 50.589844 61.765625 50.507812 61.0625 50.039062 Z M 61.0625 49.597656 "/>
<path style=" stroke:none;fill-rule:nonzero;fill:rgb(25.490196%,38.823529%,60.392157%);fill-opacity:1;" d="M 37.914062 44.089844 L 37.914062 44.75 L 36.371094 44.96875 C 37.214844 44.089844 37.214844 44.089844 37.914062 44.089844 Z M 37.914062 44.089844 "/>
<path style=" stroke:none;fill-rule:nonzero;fill:rgb(13.72549%,29.803922%,52.156863%);fill-opacity:1;" d="M 41.222656 23.144531 C 40.921875 23.84375 40.785156 24.027344 40.121094 24.46875 L 39.898438 23.585938 C 40.726562 23.144531 40.726562 23.144531 41.222656 23.144531 Z M 41.222656 23.144531 "/>
<path style=" stroke:none;fill-rule:nonzero;fill:rgb(9.019608%,27.058824%,55.294118%);fill-opacity:1;" d="M 34.390625 19.621094 C 34.636719 20.003906 34.636719 20.003906 34.828125 20.5 C 34.636719 20.996094 34.636719 20.996094 34.390625 21.382812 C 33.949219 20.941406 33.949219 20.941406 33.949219 20.28125 L 34.390625 20.28125 Z M 34.390625 19.621094 "/>
<path style=" stroke:none;fill-rule:nonzero;fill:rgb(71.372549%,80%,89.803922%);fill-opacity:1;" d="M 89.941406 17.195312 L 90.160156 17.195312 C 90.445312 18.101562 90.660156 18.882812 90.601562 19.839844 C 90.179688 19.421875 89.953125 19.105469 89.894531 18.507812 C 89.898438 18.070312 89.917969 17.632812 89.941406 17.195312 Z M 89.941406 17.195312 "/>
</g>
</svg>
