<svg xmlns="http://www.w3.org/2000/svg" width="3151" height="1182"><path d="M377.5 157.599c-39.28 2.946-73.58 13.442-105.175 32.185-63.154 37.466-104.38 100.615-113.406 173.716-1.591 12.883-1.586 42.175.009 55 6.562 52.771 29.404 99.805 66.555 137.046 33.155 33.236 72.048 54.415 116.432 63.402C360.952 622.803 372.584 624 391 624c51.098 0 98.076-15.554 139.618-46.226 13.963-10.309 36.847-33.193 47.156-47.156 41.141-55.721 55.649-124.177 40.596-191.556-4.683-20.967-14.883-47.369-25.124-65.033-32.324-55.756-89.254-97.651-150.832-110.998-19.593-4.246-48.483-6.664-64.914-5.432" fill="#fbcb04" fill-rule="evenodd"/><path d="M602.549 292.211c.389 1.259 1.538 3.935 2.553 5.947 3.277 6.497 10.697 29.394 13.296 41.025C622.288 356.6 624 372.431 624 391c0 26.616-3.981 51.122-12.156 74.831-12.245 35.512-29.495 63.059-56.224 89.789-27.421 27.42-55.908 45.006-92.339 57.003-37.728 12.424-79.585 14.858-118.677 6.901-6.107-1.243-11.246-2.14-11.419-1.993-.558.471 5.862 12.566 11.548 21.759 29.614 47.874 78.446 85.177 131.879 100.743 23.528 6.854 41.623 9.348 67.388 9.289 14.664-.033 22.987-.574 33.562-2.178 102.785-15.599 181.95-95.555 197.115-199.086 2.373-16.203 2.328-48.441-.091-64.558-10.755-71.652-51.222-132.119-112.911-168.716-17.161-10.18-41.565-20.537-57.005-24.192-2.597-.615-2.771-.482-2.121 1.619M1164 307.689c-9.576.723-26.925 3.536-36.143 5.86-57.275 14.442-95.908 49.911-106.143 97.451-2.469 11.468-2.885 35.373-.818 47 7.472 42.03 33.55 69.431 83.832 88.085 14.213 5.272 36.052 11.423 70.272 19.792 63.491 15.527 78.163 22.681 82.178 40.072 2.236 9.689-2.872 22.353-12.256 30.386-8.475 7.254-24.41 13.796-40.922 16.8-10.686 1.945-41.455 1.662-55.822-.512-25.464-3.853-46.89-11.076-65.656-22.132-5.938-3.499-12.547-6.657-14.688-7.019-6.05-1.022-13.13 1.157-18.167 5.59-4.403 3.876-25.424 34.719-28.216 41.4-3.149 7.537-1.242 17.222 4.726 24.001 10.02 11.384 43.373 27.826 74.823 36.887 30.496 8.786 52.043 11.95 82 12.041 29.339.089 49.38-2.703 72.5-10.1 38.407-12.288 67.259-34.984 82.761-65.103 9.369-18.204 12.675-31.282 13.473-53.31 2.113-58.318-28.772-95.884-97.403-118.473-5.957-1.961-22.531-6.482-36.831-10.046-62.377-15.549-84.082-23.275-95.571-34.022-6.336-5.926-8.352-11.178-7.714-20.092 1.026-14.351 10.5-24.631 28.883-31.34 12.762-4.658 24.782-6.196 43.402-5.554 23.587.813 43.919 5.689 71.61 17.174 7.365 3.054 15.296 5.821 17.626 6.148 5.579.784 12.177-1.153 16.738-4.912 4.067-3.353 29.167-40.196 31.175-45.761 3.136-8.689.018-19.831-7.216-25.795-4.469-3.683-24.243-12.807-39.87-18.395-35.363-12.646-77.899-18.738-112.563-16.121m415.5.355c-103.854 10.611-184.964 87.578-197.906 187.798-2.039 15.788-2.068 43.405-.062 58.857 7.287 56.122 35.461 106.226 79.391 141.182 51.012 40.592 119.253 56.553 186.194 43.55 68.167-13.242 124.463-56.121 154.39-117.596 14.935-30.677 21.759-60.892 21.759-96.335 0-35.626-6.699-65.258-21.705-96-31.531-64.601-92.716-108.666-166.561-119.958-12.701-1.942-43.119-2.763-55.5-1.498m860.183-.054c-42.729 4.136-81.183 18.612-113.486 42.722-9.688 7.231-28.522 25.452-36.475 35.288-29.629 36.644-45.802 81.5-47.412 131.5-1.993 61.883 17.639 115.01 57.586 155.837 42.869 43.814 101.386 67.724 172.093 70.318 55.327 2.029 108.034-10.127 151.293-34.892 17.381-9.95 26.679-16.605 30.179-21.599 2.826-4.032 3.039-4.953 3.039-13.123 0-11.059-.064-11.154-20.299-30.167-17.795-16.72-22.007-19.378-30.674-19.364-5.507.009-6.976.539-17.027 6.134-25.222 14.042-51.145 22.93-78.489 26.911-8.835 1.286-15.879 1.559-30.5 1.182-22.031-.569-32.021-2.157-48.814-7.764-32.689-10.912-57.583-30.162-73.713-57-4.412-7.34-10.984-22.264-10.984-24.941 0-.705 50.134-1.039 158.25-1.054 152.026-.021 158.407-.095 162.25-1.878 5.001-2.32 9.875-7.386 12.124-12.6 2.233-5.178 3.131-37.253 1.47-52.519-10.896-100.157-85.433-177.259-185.104-191.475-13.514-1.927-42.773-2.729-55.307-1.516m500.817.713c-2.75.188-12.026 1.22-20.614 2.294-60.105 7.516-120.423 27.832-168.886 56.885-15.002 8.993-19.326 13.11-21.516 20.485-2.18 7.34-2.245 321.787-.068 329.019 1.96 6.514 5.822 11.194 11.69 14.168l4.982 2.524 32.372-.289 32.372-.289 4.31-3.031c2.371-1.667 5.671-5.232 7.334-7.921l3.024-4.891.264-140.127.263-140.128 11.692-5.819c35.44-17.637 75.286-27.688 120.998-30.523 9.177-.569 17.642-1.603 19.5-2.381 4.819-2.02 9.57-6.368 12.077-11.055 2.09-3.907 2.223-5.534 2.529-30.869.359-29.835-.265-34.251-5.787-40.915-5.572-6.724-9.537-7.866-26.602-7.66-8.214.099-17.184.334-19.934.523M884.5 318.9c-2.2 1.021-5.44 3.373-7.199 5.228-6.81 7.177-6.301-9.092-6.301 201.372 0 210.464-.509 194.195 6.301 201.372 6.523 6.875 7.736 7.084 41.199 7.084s34.676-.209 41.199-7.084c6.811-7.178 6.303 9.123 6.279-201.59-.021-183.716-.091-190.93-1.878-194.782-1.021-2.2-3.373-5.44-5.228-7.199-6.431-6.102-7.732-6.303-40.59-6.279-26.88.02-30.172.203-33.782 1.878m939.837.614c-4.91 2.944-8.357 9.198-8.295 15.052.063 5.908 156.292 386.169 160.923 391.684 6.545 7.797 5.872 7.703 55.671 7.728l44.136.022 5.348-2.794c3.75-1.959 6.169-4.127 8.091-7.25 1.507-2.451 37.898-90.406 80.868-195.456 72.9-178.221 78.097-191.315 77.674-195.719-.551-5.738-3.914-10.941-8.872-13.728-3.501-1.967-5.17-2.052-40.017-2.031-33.163.02-36.721.184-40.42 1.864-9.019 4.097-6.382-2.067-68.889 161.048l-57.909 151.116-58.073-151.098c-62.516-162.657-60.1-157.016-68.979-161.049-3.749-1.703-7.166-1.86-40.594-1.872l-36.5-.012-4.163 2.495m621.837 71.526c-50.378 6.334-85.981 37.986-100.121 89.011l-1.926 6.949h117.937c73.678 0 117.936-.356 117.936-.948 0-.522-1.179-4.68-2.619-9.241-14.027-44.401-48.324-75.984-91.551-84.308-10.257-1.974-29.84-2.697-39.656-1.463m-861.674 8.007c-29.21 4.578-54.876 17.945-75.094 39.109-16.978 17.772-27.545 38.064-32.985 63.344-2.646 12.298-2.42 35.973.472 49.5 8.246 38.564 33.413 71.111 68.615 88.736 19.196 9.611 33.669 12.799 57.492 12.666 16.244-.09 18.361-.323 29.5-3.244 29.482-7.729 56.682-26.65 73.334-51.012 51.721-75.668 11.893-176.613-77.834-197.271-9.871-2.273-34.153-3.293-43.5-1.828m88 492.928c-15.525 3.432-24.96 10.235-30.264 21.821-2.195 4.793-2.419 6.397-2.034 14.546.515 10.933 3.107 16.923 10.118 23.386 6.135 5.654 11.764 8.318 30.988 14.664 22.488 7.424 26.692 10.505 26.692 19.562 0 8.814-5.557 13.328-18.784 15.256-6.693.975-8.928.902-14.518-.478-8.513-2.101-16.438-5.878-22.674-10.807-6.113-4.832-9.822-5.15-13.185-1.128-4.065 4.861-6.185 9.689-5.482 12.488 1.316 5.244 16.505 15.315 29.143 19.323 21.672 6.872 46.847 2.281 59.055-10.77 7.099-7.59 8.945-12.513 8.945-23.86 0-8.771-.263-10.055-3.334-16.293-2.417-4.91-4.734-7.878-8.431-10.8-7.179-5.675-10.612-7.241-29.521-13.461-18.478-6.079-23.676-8.891-25.793-13.958-2.048-4.902-1.761-7.908 1.075-11.279 7.257-8.624 26.887-9.305 43.661-1.515 9.624 4.47 12.081 3.974 16.07-3.24 4.722-8.541 3.493-12.01-5.943-16.784-9.43-4.771-18.084-6.829-30.284-7.204-6.325-.194-13.3.045-15.5.531m124.815.217c-1.627.786-9.23 16.582-29.75 61.809-15.161 33.415-27.565 61.73-27.565 62.922 0 1.192 1.105 3.272 2.455 4.622 2.046 2.047 3.418 2.453 8.25 2.44 9.156-.023 9.703-.588 17.638-18.235l7.083-15.75 29.537.026 29.537.026 7 15.601c4.358 9.714 7.85 16.163 9.252 17.09 1.623 1.074 4.105 1.372 8.884 1.067 5.418-.345 6.973-.843 8.498-2.727 1.026-1.267 1.866-3.153 1.866-4.189 0-3.039-54.859-122.222-57.142-124.144-2.369-1.994-11.868-2.335-15.543-.558m94.14 1.263-2.455 2.454v123.182l2.455 2.454c2.068 2.069 3.411 2.455 8.545 2.455s6.477-.386 8.545-2.455l2.455-2.454V895.909l-2.455-2.454c-2.068-2.069-3.411-2.455-8.545-2.455s-6.477.386-8.545 2.455m60 0-2.455 2.454v123.182l2.455 2.454c2.054 2.055 3.421 2.455 8.389 2.455 4.352 0 6.564-.51 8.295-1.911l2.361-1.911.5-43.681.5-43.68 32.375 44.15c17.806 24.283 33.444 44.851 34.752 45.708 1.751 1.147 4.124 1.447 9.009 1.135 11.26-.717 10.364 5.028 10.364-66.466v-61.435l-2.455-2.454c-2.054-2.055-3.421-2.455-8.389-2.455-4.352 0-6.564.51-8.295 1.911l-2.361 1.911-.5 43.639-.5 43.639-32.465-44.144c-17.856-24.279-33.369-44.777-34.473-45.55-1.211-.848-4.516-1.406-8.33-1.406-5.38 0-6.689.366-8.777 2.455m129.18-.382c-2.382 1.873-2.635 2.721-2.635 8.825 0 5.766.338 7.071 2.314 8.928 2.191 2.058 3.232 2.174 19.5 2.174H2117v51.953c0 35.945.342 52.704 1.11 54.39 1.453 3.187 4.862 4.657 10.802 4.657 3.36 0 5.616-.627 7.453-2.073l2.635-2.072V913h17.826c17.34 0 17.885-.063 20-2.314 1.752-1.866 2.174-3.525 2.174-8.546 0-5.282-.374-6.605-2.455-8.685l-2.454-2.455h-45.411c-44.426 0-45.467.045-48.045 2.073m233.259-.638c-25.035 5.251-46.192 25.148-52.327 49.209-1.992 7.812-1.997 22.901-.01 31.356 4.604 19.593 21.201 38.398 40.689 46.103 21.644 8.558 47.894 5.249 67.102-8.457 3.526-2.516 6.69-5.303 7.031-6.192.342-.89.621-12.176.621-25.081v-23.464l-2.455-2.454c-2.4-2.401-2.805-2.455-18.365-2.455-14.582 0-16.13.173-18.545 2.073-2.394 1.882-2.635 2.707-2.635 9 0 9.798 1.292 10.927 12.5 10.927h8.5v20.966l-4.75 2.406c-10.506 5.32-23.394 7.044-34.138 4.567-12.935-2.981-24.811-12.503-30.859-24.742-3.653-7.391-3.753-7.888-3.753-18.645 0-10.334.206-11.486 3.165-17.732 3.804-8.03 9.821-14.839 17.556-19.865 15.01-9.753 36.502-9.222 52.25 1.292 8.634 5.763 9.388 6.054 12.427 4.795 3.83-1.586 9.102-8.733 9.102-12.339 0-5.493-13.175-14.74-27.5-19.302-9.962-3.172-25.71-4.042-35.606-1.966m139.606.099c-23.028 4.968-42.619 22.456-50.624 45.191-2.968 8.428-3.624 23.815-1.435 33.654 4.303 19.341 17.617 36.158 35.581 44.942 20.695 10.12 42.262 10.104 62.852-.047 8.892-4.383 22.005-16.366 27.003-24.676 22.143-36.813 4.313-83.255-37.285-97.118-10.085-3.361-25.644-4.2-36.092-1.946m107.932.943-2.476 2.477.272 61.988c.254 57.994.387 62.102 2.06 63.773 1.642 1.64 4.408 1.784 34 1.778 35.68-.009 39.278-.479 50.867-6.657 7.139-3.804 12.215-9.224 15.657-16.716 2.147-4.675 2.59-7.134 2.635-14.62.072-12.263-1.972-17.85-9.46-25.855l-5.802-6.202 2.877-3.859c4.798-6.435 6.438-12.065 6.438-22.105 0-8.185-.306-9.643-3.3-15.724-3.5-7.11-8.283-11.792-16.037-15.699-8.096-4.08-17.23-5.056-47.296-5.056h-27.958l-2.477 2.477m170.892-1.289c-2.391 1.155-2.173.699-35.781 74.812-11.847 26.125-21.541 48.533-21.542 49.795 0 1.263 1.104 3.4 2.454 4.75 2.01 2.011 3.448 2.455 7.952 2.455 9.217 0 9.665-.458 17.756-18.153l7.259-15.876 29.49.264 29.489.265 6.827 15c3.755 8.25 7.765 15.788 8.91 16.75 2.43 2.041 11.335 2.403 15.247.62 2.622-1.194 5.182-5.967 4.347-8.102-4.584-11.717-55.443-120.761-56.911-122.018-2.326-1.993-11.826-2.337-15.497-.562m94.131 1.267-2.455 2.454v123.182l2.455 2.454c2.068 2.069 3.411 2.455 8.545 2.455s6.477-.386 8.545-2.455l2.455-2.454V895.909l-2.455-2.454c-2.068-2.069-3.411-2.455-8.545-2.455s-6.477.386-8.545 2.455m60 0-2.455 2.454v123.182l2.455 2.454c2.054 2.055 3.421 2.455 8.389 2.455 4.352 0 6.564-.51 8.295-1.911l2.361-1.911.5-43.615.5-43.614 32.292 43.998c17.761 24.199 33.273 44.686 34.473 45.526 2.565 1.796 11.507 2.044 15.078.417 1.34-.611 2.936-2.207 3.547-3.547.774-1.699 1.11-20.461 1.11-61.94 0-64.197-.014-64.37-5.21-65.762-4.796-1.285-11.531-.671-13.929 1.27l-2.361 1.911-.5 43.714-.5 43.715-32.812-44.624c-18.047-24.543-33.655-45.074-34.684-45.625-1.03-.551-4.623-1.002-7.984-1.002-5.155 0-6.495.384-8.565 2.455m-430.19 21.087c-33.943 9.141-45.546 49.269-21.278 73.592 22.844 22.897 61.497 16.289 75.312-12.875 3.001-6.336 3.201-7.451 3.201-17.811 0-10.757-.1-11.254-3.753-18.645-7.924-16.034-23.891-25.874-41.747-25.725-3.575.029-8.856.688-11.735 1.464M2581 929.113v16.114l20.75-.496c11.412-.272 22.419-1.014 24.459-1.649 10.951-3.406 14.382-17.016 6.227-24.707-4.737-4.468-10.221-5.375-32.485-5.375H2581v16.113m-786.135 17.47L1785.231 968h19.385c10.661 0 19.384-.169 19.384-.375 0-.395-18.975-41.934-19.307-42.266-.107-.106-4.529 9.445-9.828 21.224m934.928-.044-9.62 21.461h19.521c15.232 0 19.403-.275 18.989-1.25-1.18-2.777-18.881-41.265-19.069-41.461-.111-.116-4.531 9.447-9.821 21.25m-548.99 11.504c-2.827 2.827-3.01 3.444-2.577 8.666.764 9.217.975 9.291 26.43 9.291 21.425 0 21.436-.001 23.889-2.455 1.947-1.946 2.455-3.481 2.455-7.418 0-10.648-1.163-11.127-27.027-11.127h-20.127l-3.043 3.043M2581 984.095v18.095l22.75-.345 22.75-.345 5.955-3c7.864-3.962 9.966-6.959 10.01-14.277.085-14.067-9.836-18.201-43.715-18.215L2581 966v18.095" fill="#040404" fill-rule="evenodd"/></svg>