<?xml version="1.0" encoding="UTF-8"?>
<svg xmlns="http://www.w3.org/2000/svg" xmlns:xlink="http://www.w3.org/1999/xlink" width="300px" height="113px" viewBox="0 0 301 113" version="1.1">
<g id="surface1">
<path style=" stroke:none;fill-rule:evenodd;fill:rgb(98.431373%,79.607843%,1.568627%);fill-opacity:1;" d="M 36.0625 15.066406 C 32.308594 15.347656 29.03125 16.351562 26.015625 18.144531 C 19.980469 21.726562 16.042969 27.761719 15.179688 34.75 C 15.027344 35.984375 15.027344 38.78125 15.179688 40.007812 C 15.808594 45.054688 17.992188 49.550781 21.539062 53.109375 C 24.707031 56.289062 28.421875 58.3125 32.660156 59.171875 C 34.480469 59.539062 35.589844 59.65625 37.351562 59.65625 C 42.230469 59.65625 46.71875 58.167969 50.6875 55.234375 C 52.019531 54.25 54.207031 52.0625 55.191406 50.726562 C 59.121094 45.402344 60.507812 38.855469 59.070312 32.414062 C 58.621094 30.410156 57.648438 27.886719 56.671875 26.199219 C 53.582031 20.867188 48.144531 16.863281 42.261719 15.585938 C 40.390625 15.179688 37.628906 14.949219 36.0625 15.066406 "/>
<path style=" stroke:none;fill-rule:evenodd;fill:rgb(1.568627%,1.568627%,1.568627%);fill-opacity:1;" d="M 57.558594 27.9375 C 57.597656 28.054688 57.707031 28.3125 57.800781 28.503906 C 58.117188 29.125 58.824219 31.3125 59.074219 32.425781 C 59.445312 34.089844 59.609375 35.605469 59.609375 37.378906 C 59.609375 39.925781 59.226562 42.265625 58.445312 44.535156 C 57.277344 47.929688 55.628906 50.5625 53.074219 53.117188 C 50.457031 55.738281 47.734375 57.421875 44.253906 58.566406 C 40.652344 59.753906 36.652344 59.988281 32.917969 59.226562 C 32.335938 59.109375 31.84375 59.023438 31.828125 59.035156 C 31.773438 59.082031 32.386719 60.238281 32.929688 61.117188 C 35.757812 65.691406 40.425781 69.257812 45.527344 70.746094 C 47.777344 71.402344 49.503906 71.640625 51.964844 71.636719 C 53.367188 71.632812 54.160156 71.582031 55.171875 71.425781 C 64.992188 69.9375 72.550781 62.292969 74 52.394531 C 74.226562 50.84375 74.222656 47.765625 73.992188 46.222656 C 72.964844 39.371094 69.097656 33.59375 63.207031 30.09375 C 61.566406 29.121094 59.234375 28.128906 57.761719 27.78125 C 57.511719 27.722656 57.496094 27.734375 57.558594 27.9375 M 111.191406 29.414062 C 110.277344 29.484375 108.621094 29.753906 107.738281 29.976562 C 102.269531 31.355469 98.578125 34.746094 97.597656 39.292969 C 97.363281 40.386719 97.324219 42.671875 97.519531 43.785156 C 98.234375 47.804688 100.726562 50.421875 105.53125 52.207031 C 106.886719 52.710938 108.972656 53.296875 112.242188 54.097656 C 118.308594 55.582031 119.707031 56.265625 120.09375 57.929688 C 120.304688 58.855469 119.816406 60.066406 118.921875 60.835938 C 118.113281 61.527344 116.589844 62.152344 115.011719 62.441406 C 113.992188 62.625 111.050781 62.597656 109.679688 62.390625 C 107.246094 62.023438 105.199219 61.332031 103.40625 60.273438 C 102.839844 59.941406 102.210938 59.640625 102.003906 59.605469 C 101.425781 59.507812 100.75 59.714844 100.269531 60.140625 C 99.847656 60.507812 97.839844 63.457031 97.574219 64.097656 C 97.273438 64.816406 97.457031 65.742188 98.027344 66.390625 C 98.984375 67.480469 102.167969 69.050781 105.171875 69.917969 C 108.085938 70.757812 110.144531 71.058594 113.007812 71.070312 C 115.808594 71.078125 117.722656 70.808594 119.933594 70.101562 C 123.601562 68.929688 126.355469 66.757812 127.835938 63.878906 C 128.734375 62.140625 129.046875 60.886719 129.125 58.78125 C 129.328125 53.207031 126.375 49.617188 119.820312 47.457031 C 119.25 47.269531 117.667969 46.835938 116.300781 46.496094 C 110.34375 45.007812 108.269531 44.269531 107.171875 43.242188 C 106.566406 42.675781 106.375 42.175781 106.4375 41.324219 C 106.535156 39.949219 107.4375 38.96875 109.195312 38.328125 C 110.414062 37.882812 111.5625 37.734375 113.339844 37.796875 C 115.59375 37.875 117.535156 38.339844 120.179688 39.4375 C 120.886719 39.730469 121.640625 39.996094 121.863281 40.027344 C 122.398438 40.101562 123.027344 39.914062 123.464844 39.554688 C 123.851562 39.234375 126.25 35.714844 126.441406 35.179688 C 126.742188 34.351562 126.445312 33.285156 125.753906 32.714844 C 125.324219 32.363281 123.4375 31.492188 121.945312 30.957031 C 118.566406 29.746094 114.503906 29.164062 111.191406 29.414062 M 150.882812 29.449219 C 140.960938 30.464844 133.214844 37.820312 131.976562 47.402344 C 131.78125 48.914062 131.78125 51.550781 131.972656 53.03125 C 132.667969 58.394531 135.359375 63.183594 139.554688 66.527344 C 144.429688 70.40625 150.945312 71.933594 157.339844 70.691406 C 163.851562 69.425781 169.230469 65.324219 172.089844 59.449219 C 173.515625 56.515625 174.167969 53.625 174.167969 50.238281 C 174.167969 46.832031 173.527344 44 172.09375 41.058594 C 169.082031 34.882812 163.238281 30.671875 156.183594 29.59375 C 154.96875 29.40625 152.066406 29.328125 150.882812 29.449219 M 233.050781 29.445312 C 228.96875 29.839844 225.296875 31.222656 222.210938 33.527344 C 221.285156 34.21875 219.484375 35.960938 218.726562 36.902344 C 215.894531 40.40625 214.351562 44.691406 214.195312 49.472656 C 214.007812 55.390625 215.882812 60.46875 219.699219 64.371094 C 223.792969 68.558594 229.382812 70.847656 236.136719 71.09375 C 241.421875 71.289062 246.457031 70.125 250.589844 67.757812 C 252.25 66.808594 253.136719 66.171875 253.472656 65.691406 C 253.742188 65.308594 253.761719 65.21875 253.761719 64.4375 C 253.761719 63.382812 253.757812 63.371094 251.824219 61.554688 C 250.125 59.957031 249.722656 59.703125 248.894531 59.703125 C 248.367188 59.703125 248.226562 59.753906 247.265625 60.289062 C 244.859375 61.632812 242.382812 62.480469 239.769531 62.863281 C 238.925781 62.984375 238.253906 63.011719 236.855469 62.976562 C 234.75 62.921875 233.796875 62.769531 232.191406 62.234375 C 229.070312 61.191406 226.691406 59.351562 225.152344 56.785156 C 224.730469 56.082031 224.101562 54.65625 224.101562 54.398438 C 224.101562 54.332031 228.890625 54.300781 239.21875 54.300781 C 253.742188 54.296875 254.351562 54.289062 254.71875 54.121094 C 255.195312 53.898438 255.660156 53.414062 255.875 52.914062 C 256.089844 52.421875 256.175781 49.355469 256.015625 47.894531 C 254.976562 38.320312 247.855469 30.949219 238.335938 29.589844 C 237.042969 29.40625 234.25 29.328125 233.050781 29.445312 M 280.890625 29.511719 C 280.628906 29.53125 279.742188 29.628906 278.921875 29.730469 C 273.179688 30.449219 267.417969 32.390625 262.789062 35.167969 C 261.355469 36.03125 260.945312 36.421875 260.734375 37.128906 C 260.527344 37.828125 260.519531 67.890625 260.726562 68.582031 C 260.914062 69.207031 261.285156 69.652344 261.84375 69.9375 L 262.320312 70.179688 L 265.414062 70.152344 L 268.503906 70.125 L 268.917969 69.832031 C 269.144531 69.675781 269.457031 69.332031 269.617188 69.074219 L 269.90625 68.609375 L 269.933594 55.210938 L 269.957031 41.816406 L 271.074219 41.257812 C 274.460938 39.574219 278.265625 38.613281 282.632812 38.339844 C 283.507812 38.289062 284.316406 38.1875 284.496094 38.113281 C 284.957031 37.921875 285.410156 37.503906 285.648438 37.058594 C 285.847656 36.683594 285.859375 36.527344 285.890625 34.105469 C 285.925781 31.253906 285.863281 30.832031 285.335938 30.195312 C 284.804688 29.550781 284.425781 29.441406 282.796875 29.460938 C 282.011719 29.472656 281.15625 29.496094 280.890625 29.511719 M 84.492188 30.488281 C 84.28125 30.585938 83.972656 30.808594 83.804688 30.988281 C 83.152344 31.671875 83.203125 30.117188 83.203125 50.238281 C 83.203125 70.359375 83.152344 68.804688 83.804688 69.488281 C 84.425781 70.148438 84.542969 70.167969 87.738281 70.167969 C 90.9375 70.167969 91.050781 70.148438 91.675781 69.488281 C 92.324219 68.804688 92.277344 70.363281 92.273438 50.21875 C 92.273438 32.652344 92.265625 31.964844 92.097656 31.597656 C 92 31.386719 91.773438 31.074219 91.597656 30.90625 C 90.980469 30.324219 90.859375 30.304688 87.71875 30.308594 C 85.152344 30.308594 84.835938 30.328125 84.492188 30.488281 M 174.269531 30.546875 C 173.800781 30.828125 173.472656 31.425781 173.476562 31.984375 C 173.484375 32.550781 188.40625 68.902344 188.851562 69.429688 C 189.476562 70.175781 189.410156 70.167969 194.167969 70.167969 L 198.382812 70.171875 L 198.894531 69.902344 C 199.253906 69.714844 199.484375 69.507812 199.667969 69.210938 C 199.8125 68.976562 203.289062 60.566406 207.394531 50.523438 C 214.355469 33.488281 214.851562 32.234375 214.8125 31.8125 C 214.761719 31.265625 214.4375 30.769531 213.964844 30.5 C 213.628906 30.3125 213.472656 30.304688 210.140625 30.308594 C 206.976562 30.308594 206.632812 30.324219 206.28125 30.484375 C 205.417969 30.878906 205.671875 30.289062 199.699219 45.882812 L 194.167969 60.328125 L 188.621094 45.882812 C 182.648438 30.332031 182.878906 30.871094 182.03125 30.488281 C 181.675781 30.324219 181.347656 30.308594 178.15625 30.308594 L 174.667969 30.308594 L 174.269531 30.546875 M 233.671875 37.382812 C 228.859375 37.988281 225.457031 41.015625 224.105469 45.894531 L 223.921875 46.558594 L 235.1875 46.558594 C 242.226562 46.558594 246.457031 46.523438 246.457031 46.46875 C 246.457031 46.417969 246.34375 46.019531 246.203125 45.582031 C 244.863281 41.339844 241.589844 38.320312 237.460938 37.523438 C 236.480469 37.335938 234.609375 37.265625 233.671875 37.382812 M 151.359375 38.148438 C 148.570312 38.585938 146.117188 39.863281 144.1875 41.886719 C 142.566406 43.585938 141.554688 45.527344 141.035156 47.945312 C 140.78125 49.121094 140.804688 51.382812 141.082031 52.675781 C 141.867188 56.363281 144.273438 59.472656 147.636719 61.160156 C 149.46875 62.078125 150.851562 62.382812 153.125 62.371094 C 154.679688 62.363281 154.882812 62.339844 155.945312 62.058594 C 158.761719 61.320312 161.359375 59.511719 162.949219 57.183594 C 167.890625 49.949219 164.085938 40.300781 155.515625 38.324219 C 154.570312 38.105469 152.253906 38.007812 151.359375 38.148438 M 159.765625 85.273438 C 158.28125 85.601562 157.382812 86.25 156.875 87.359375 C 156.664062 87.816406 156.644531 87.972656 156.679688 88.75 C 156.730469 89.796875 156.976562 90.367188 157.648438 90.984375 C 158.234375 91.527344 158.769531 91.78125 160.605469 92.386719 C 162.753906 93.097656 163.15625 93.390625 163.15625 94.257812 C 163.15625 95.101562 162.625 95.53125 161.363281 95.714844 C 160.722656 95.808594 160.511719 95.800781 159.976562 95.671875 C 159.164062 95.46875 158.40625 95.109375 157.808594 94.636719 C 157.226562 94.175781 156.871094 94.144531 156.550781 94.53125 C 156.164062 94.996094 155.960938 95.457031 156.027344 95.722656 C 156.152344 96.226562 157.601562 97.1875 158.8125 97.570312 C 160.882812 98.226562 163.285156 97.789062 164.453125 96.542969 C 165.128906 95.816406 165.304688 95.34375 165.304688 94.261719 C 165.304688 93.421875 165.28125 93.300781 164.988281 92.703125 C 164.757812 92.234375 164.535156 91.949219 164.183594 91.671875 C 163.496094 91.128906 163.167969 90.976562 161.363281 90.382812 C 159.597656 89.800781 159.101562 89.53125 158.898438 89.046875 C 158.703125 88.582031 158.730469 88.292969 159 87.96875 C 159.695312 87.144531 161.570312 87.082031 163.171875 87.824219 C 164.089844 88.253906 164.324219 88.207031 164.707031 87.515625 C 165.160156 86.699219 165.039062 86.367188 164.140625 85.910156 C 163.238281 85.457031 162.410156 85.257812 161.246094 85.222656 C 160.640625 85.203125 159.976562 85.226562 159.765625 85.273438 M 171.6875 85.292969 C 171.535156 85.371094 170.808594 86.878906 168.847656 91.203125 C 167.398438 94.398438 166.214844 97.105469 166.214844 97.21875 C 166.214844 97.332031 166.320312 97.53125 166.449219 97.660156 C 166.644531 97.855469 166.773438 97.894531 167.238281 97.894531 C 168.109375 97.890625 168.164062 97.835938 168.921875 96.148438 L 169.597656 94.644531 L 172.417969 94.648438 L 175.242188 94.648438 L 175.910156 96.140625 C 176.324219 97.070312 176.660156 97.6875 176.792969 97.773438 C 176.949219 97.878906 177.1875 97.90625 177.640625 97.875 C 178.160156 97.84375 178.308594 97.796875 178.453125 97.617188 C 178.550781 97.496094 178.632812 97.316406 178.632812 97.214844 C 178.632812 96.925781 173.390625 85.53125 173.171875 85.347656 C 172.949219 85.15625 172.039062 85.125 171.6875 85.292969 M 180.683594 85.414062 L 180.445312 85.648438 L 180.445312 97.425781 L 180.683594 97.660156 C 180.878906 97.859375 181.007812 97.894531 181.496094 97.894531 C 181.988281 97.894531 182.117188 97.859375 182.3125 97.660156 L 182.546875 97.425781 L 182.546875 85.648438 L 182.3125 85.414062 C 182.117188 85.21875 181.988281 85.179688 181.496094 85.179688 C 181.007812 85.179688 180.878906 85.21875 180.683594 85.414062 M 186.414062 85.414062 L 186.179688 85.648438 L 186.179688 97.425781 L 186.414062 97.660156 C 186.609375 97.855469 186.738281 97.894531 187.214844 97.894531 C 187.628906 97.894531 187.839844 97.847656 188.007812 97.710938 L 188.234375 97.53125 L 188.328125 89.179688 L 191.421875 93.398438 C 193.121094 95.71875 194.617188 97.6875 194.742188 97.769531 C 194.90625 97.878906 195.132812 97.90625 195.601562 97.875 C 196.675781 97.808594 196.589844 98.359375 196.589844 91.523438 L 196.589844 85.648438 L 196.355469 85.414062 C 196.160156 85.21875 196.03125 85.179688 195.554688 85.179688 C 195.140625 85.179688 194.929688 85.230469 194.761719 85.363281 L 194.539062 85.546875 L 194.488281 89.71875 L 194.441406 93.890625 L 191.339844 89.667969 C 189.632812 87.347656 188.152344 85.386719 188.046875 85.316406 C 187.933594 85.234375 187.617188 85.179688 187.25 85.179688 C 186.738281 85.179688 186.613281 85.214844 186.414062 85.414062 M 198.753906 85.378906 C 198.527344 85.558594 198.5 85.636719 198.5 86.222656 C 198.5 86.773438 198.535156 86.898438 198.722656 87.074219 C 198.933594 87.273438 199.03125 87.285156 200.585938 87.285156 L 202.226562 87.285156 L 202.226562 92.25 C 202.226562 95.6875 202.257812 97.289062 202.332031 97.449219 C 202.472656 97.753906 202.796875 97.894531 203.363281 97.894531 C 203.6875 97.894531 203.902344 97.835938 204.078125 97.695312 L 204.328125 97.5 L 204.328125 87.285156 L 206.03125 87.285156 C 207.6875 87.285156 207.738281 87.277344 207.941406 87.0625 C 208.109375 86.882812 208.148438 86.726562 208.148438 86.246094 C 208.148438 85.738281 208.113281 85.613281 207.914062 85.414062 L 207.679688 85.179688 L 203.34375 85.179688 C 199.097656 85.179688 199 85.183594 198.753906 85.378906 M 221.035156 85.316406 C 218.644531 85.820312 216.621094 87.722656 216.035156 90.023438 C 215.847656 90.769531 215.847656 92.210938 216.035156 93.019531 C 216.476562 94.890625 218.0625 96.691406 219.921875 97.425781 C 221.988281 98.246094 224.496094 97.929688 226.332031 96.617188 C 226.667969 96.378906 226.972656 96.113281 227.003906 96.027344 C 227.035156 95.941406 227.0625 94.863281 227.0625 93.628906 L 227.0625 91.386719 L 226.828125 91.152344 C 226.601562 90.921875 226.5625 90.917969 225.074219 90.917969 C 223.683594 90.917969 223.535156 90.933594 223.304688 91.113281 C 223.074219 91.292969 223.050781 91.375 223.050781 91.976562 C 223.050781 92.910156 223.175781 93.019531 224.246094 93.019531 L 225.058594 93.019531 L 225.058594 95.023438 L 224.605469 95.253906 C 223.601562 95.761719 222.367188 95.925781 221.34375 95.691406 C 220.105469 95.40625 218.972656 94.496094 218.394531 93.324219 C 218.046875 92.617188 218.035156 92.570312 218.035156 91.542969 C 218.035156 90.554688 218.054688 90.445312 218.339844 89.847656 C 218.703125 89.078125 219.277344 88.429688 220.015625 87.949219 C 221.449219 87.015625 223.503906 87.066406 225.007812 88.070312 C 225.832031 88.621094 225.902344 88.652344 226.195312 88.53125 C 226.558594 88.378906 227.0625 87.695312 227.0625 87.351562 C 227.0625 86.824219 225.804688 85.941406 224.4375 85.503906 C 223.484375 85.203125 221.980469 85.117188 221.035156 85.316406 M 234.371094 85.328125 C 232.171875 85.800781 230.300781 87.472656 229.535156 89.648438 C 229.25 90.453125 229.1875 91.925781 229.398438 92.863281 C 229.808594 94.714844 231.082031 96.320312 232.796875 97.160156 C 234.773438 98.128906 236.835938 98.125 238.800781 97.15625 C 239.652344 96.738281 240.902344 95.59375 241.378906 94.796875 C 243.496094 91.277344 241.792969 86.839844 237.820312 85.511719 C 236.855469 85.191406 235.371094 85.113281 234.371094 85.328125 M 244.679688 85.417969 L 244.445312 85.652344 L 244.472656 91.578125 C 244.496094 97.125 244.507812 97.515625 244.667969 97.675781 C 244.824219 97.832031 245.089844 97.847656 247.914062 97.847656 C 251.324219 97.847656 251.667969 97.800781 252.773438 97.210938 C 253.457031 96.847656 253.941406 96.328125 254.269531 95.613281 C 254.476562 95.164062 254.519531 94.929688 254.523438 94.214844 C 254.527344 93.042969 254.332031 92.507812 253.617188 91.742188 L 253.0625 91.148438 L 253.339844 90.78125 C 253.796875 90.164062 253.953125 89.628906 253.953125 88.667969 C 253.953125 87.886719 253.925781 87.746094 253.636719 87.164062 C 253.304688 86.484375 252.847656 86.035156 252.105469 85.664062 C 251.332031 85.273438 250.460938 85.179688 247.589844 85.179688 L 244.917969 85.179688 L 244.679688 85.417969 M 261.007812 85.292969 C 260.777344 85.402344 260.796875 85.359375 257.585938 92.445312 C 256.457031 94.945312 255.53125 97.085938 255.53125 97.207031 C 255.53125 97.328125 255.636719 97.53125 255.765625 97.660156 C 255.957031 97.851562 256.09375 97.894531 256.523438 97.894531 C 257.40625 97.894531 257.449219 97.851562 258.21875 96.160156 L 258.914062 94.640625 L 261.730469 94.667969 L 264.546875 94.691406 L 265.199219 96.125 C 265.558594 96.914062 265.941406 97.636719 266.050781 97.726562 C 266.28125 97.921875 267.132812 97.957031 267.507812 97.785156 C 267.757812 97.671875 268.003906 97.214844 267.921875 97.011719 C 267.484375 95.890625 262.625 85.46875 262.484375 85.347656 C 262.265625 85.15625 261.355469 85.125 261.007812 85.292969 M 269.996094 85.414062 L 269.761719 85.648438 L 269.761719 97.425781 L 269.996094 97.660156 C 270.195312 97.859375 270.324219 97.894531 270.8125 97.894531 C 271.304688 97.894531 271.433594 97.859375 271.628906 97.660156 L 271.863281 97.425781 L 271.863281 85.648438 L 271.628906 85.414062 C 271.433594 85.21875 271.304688 85.179688 270.8125 85.179688 C 270.324219 85.179688 270.195312 85.21875 269.996094 85.414062 M 275.730469 85.414062 L 275.496094 85.648438 L 275.496094 97.425781 L 275.730469 97.660156 C 275.925781 97.855469 276.054688 97.894531 276.53125 97.894531 C 276.945312 97.894531 277.15625 97.847656 277.324219 97.710938 L 277.546875 97.53125 L 277.597656 93.359375 L 277.644531 89.191406 L 280.730469 93.398438 C 282.425781 95.710938 283.90625 97.667969 284.023438 97.75 C 284.265625 97.921875 285.121094 97.945312 285.460938 97.789062 C 285.589844 97.730469 285.742188 97.578125 285.800781 97.449219 C 285.875 97.289062 285.90625 95.492188 285.90625 91.527344 C 285.90625 85.390625 285.90625 85.375 285.410156 85.242188 C 284.953125 85.117188 284.308594 85.175781 284.078125 85.363281 L 283.851562 85.546875 L 283.804688 89.726562 L 283.757812 93.902344 L 280.625 89.636719 C 278.898438 87.292969 277.410156 85.328125 277.308594 85.277344 C 277.210938 85.222656 276.867188 85.179688 276.546875 85.179688 C 276.054688 85.179688 275.925781 85.21875 275.730469 85.414062 M 234.636719 87.429688 C 231.394531 88.304688 230.285156 92.140625 232.601562 94.464844 C 234.785156 96.65625 238.476562 96.023438 239.796875 93.234375 C 240.082031 92.628906 240.101562 92.523438 240.101562 91.53125 C 240.101562 90.503906 240.09375 90.457031 239.746094 89.75 C 238.988281 88.21875 237.460938 87.277344 235.757812 87.289062 C 235.414062 87.292969 234.910156 87.355469 234.636719 87.429688 M 246.550781 88.824219 L 246.550781 90.363281 L 248.53125 90.316406 C 249.621094 90.289062 250.675781 90.21875 250.871094 90.160156 C 251.914062 89.832031 252.242188 88.53125 251.464844 87.796875 C 251.011719 87.371094 250.488281 87.285156 248.359375 87.285156 L 246.550781 87.285156 L 246.550781 88.824219 M 171.453125 90.492188 L 170.535156 92.542969 L 172.386719 92.542969 C 173.40625 92.542969 174.238281 92.523438 174.238281 92.503906 C 174.238281 92.46875 172.425781 88.496094 172.394531 88.464844 C 172.382812 88.453125 171.960938 89.367188 171.453125 90.492188 M 260.765625 90.488281 L 259.84375 92.542969 L 261.710938 92.542969 C 263.164062 92.542969 263.5625 92.515625 263.523438 92.421875 C 263.410156 92.15625 261.71875 88.476562 261.703125 88.457031 C 261.691406 88.445312 261.269531 89.363281 260.765625 90.488281 M 208.320312 91.589844 C 208.050781 91.859375 208.035156 91.917969 208.074219 92.417969 C 208.148438 93.300781 208.167969 93.304688 210.601562 93.304688 C 212.648438 93.304688 212.648438 93.304688 212.882812 93.070312 C 213.066406 92.886719 213.117188 92.738281 213.117188 92.363281 C 213.117188 91.34375 213.003906 91.296875 210.535156 91.296875 L 208.613281 91.296875 L 208.320312 91.589844 M 246.550781 94.082031 L 246.550781 95.808594 L 248.722656 95.777344 L 250.898438 95.742188 L 251.464844 95.457031 C 252.21875 95.078125 252.417969 94.792969 252.421875 94.09375 C 252.429688 92.746094 251.484375 92.351562 248.246094 92.351562 L 246.550781 92.351562 L 246.550781 94.082031 "/>
</g>
</svg>
