<svg xmlns="http://www.w3.org/2000/svg" width="3151" height="1182" viewBox="0 0 3151 1182" version="1.1"><path d="M 377.500 157.599 C 338.220 160.545, 303.920 171.041, 272.325 189.784 C 209.171 227.250, 167.945 290.399, 158.919 363.500 C 157.328 376.383, 157.333 405.675, 158.928 418.500 C 165.490 471.271, 188.332 518.305, 225.483 555.546 C 258.638 588.782, 297.531 609.961, 341.915 618.948 C 360.952 622.803, 372.584 624, 391 624 C 442.098 624, 489.076 608.446, 530.618 577.774 C 544.581 567.465, 567.465 544.581, 577.774 530.618 C 618.915 474.897, 633.423 406.441, 618.370 339.062 C 613.687 318.095, 603.487 291.693, 593.246 274.029 C 560.922 218.273, 503.992 176.378, 442.414 163.031 C 422.821 158.785, 393.931 156.367, 377.500 157.599" stroke="none" fill="#fbcb04" fill-rule="evenodd"/><path d="M 602.549 292.211 C 602.938 293.470, 604.087 296.146, 605.102 298.158 C 608.379 304.655, 615.799 327.552, 618.398 339.183 C 622.288 356.600, 624 372.431, 624 391 C 624 417.616, 620.019 442.122, 611.844 465.831 C 599.599 501.343, 582.349 528.890, 555.620 555.620 C 528.199 583.040, 499.712 600.626, 463.281 612.623 C 425.553 625.047, 383.696 627.481, 344.604 619.524 C 338.497 618.281, 333.358 617.384, 333.185 617.531 C 332.627 618.002, 339.047 630.097, 344.733 639.290 C 374.347 687.164, 423.179 724.467, 476.612 740.033 C 500.140 746.887, 518.235 749.381, 544 749.322 C 558.664 749.289, 566.987 748.748, 577.562 747.144 C 680.347 731.545, 759.512 651.589, 774.677 548.058 C 777.050 531.855, 777.005 499.617, 774.586 483.500 C 763.831 411.848, 723.364 351.381, 661.675 314.784 C 644.514 304.604, 620.110 294.247, 604.670 290.592 C 602.073 289.977, 601.899 290.110, 602.549 292.211 M 1164 307.689 C 1154.424 308.412, 1137.075 311.225, 1127.857 313.549 C 1070.582 327.991, 1031.949 363.460, 1021.714 411 C 1019.245 422.468, 1018.829 446.373, 1020.896 458 C 1028.368 500.030, 1054.446 527.431, 1104.728 546.085 C 1118.941 551.357, 1140.780 557.508, 1175 565.877 C 1238.491 581.404, 1253.163 588.558, 1257.178 605.949 C 1259.414 615.638, 1254.306 628.302, 1244.922 636.335 C 1236.447 643.589, 1220.512 650.131, 1204 653.135 C 1193.314 655.080, 1162.545 654.797, 1148.178 652.623 C 1122.714 648.770, 1101.288 641.547, 1082.522 630.491 C 1076.584 626.992, 1069.975 623.834, 1067.834 623.472 C 1061.784 622.450, 1054.704 624.629, 1049.667 629.062 C 1045.264 632.938, 1024.243 663.781, 1021.451 670.462 C 1018.302 677.999, 1020.209 687.684, 1026.177 694.463 C 1036.197 705.847, 1069.550 722.289, 1101 731.350 C 1131.496 740.136, 1153.043 743.300, 1183 743.391 C 1212.339 743.480, 1232.380 740.688, 1255.500 733.291 C 1293.907 721.003, 1322.759 698.307, 1338.261 668.188 C 1347.630 649.984, 1350.936 636.906, 1351.734 614.878 C 1353.847 556.560, 1322.962 518.994, 1254.331 496.405 C 1248.374 494.444, 1231.800 489.923, 1217.500 486.359 C 1155.123 470.810, 1133.418 463.084, 1121.929 452.337 C 1115.593 446.411, 1113.577 441.159, 1114.215 432.245 C 1115.241 417.894, 1124.715 407.614, 1143.098 400.905 C 1155.860 396.247, 1167.880 394.709, 1186.500 395.351 C 1210.087 396.164, 1230.419 401.040, 1258.110 412.525 C 1265.475 415.579, 1273.406 418.346, 1275.736 418.673 C 1281.315 419.457, 1287.913 417.520, 1292.474 413.761 C 1296.541 410.408, 1321.641 373.565, 1323.649 368 C 1326.785 359.311, 1323.667 348.169, 1316.433 342.205 C 1311.964 338.522, 1292.190 329.398, 1276.563 323.810 C 1241.200 311.164, 1198.664 305.072, 1164 307.689 M 1579.500 308.044 C 1475.646 318.655, 1394.536 395.622, 1381.594 495.842 C 1379.555 511.630, 1379.526 539.247, 1381.532 554.699 C 1388.819 610.821, 1416.993 660.925, 1460.923 695.881 C 1511.935 736.473, 1580.176 752.434, 1647.117 739.431 C 1715.284 726.189, 1771.580 683.310, 1801.507 621.835 C 1816.442 591.158, 1823.266 560.943, 1823.266 525.500 C 1823.266 489.874, 1816.567 460.242, 1801.561 429.500 C 1770.030 364.899, 1708.845 320.834, 1635 309.542 C 1622.299 307.600, 1591.881 306.779, 1579.500 308.044 M 2439.683 307.990 C 2396.954 312.126, 2358.500 326.602, 2326.197 350.712 C 2316.509 357.943, 2297.675 376.164, 2289.722 386 C 2260.093 422.644, 2243.920 467.500, 2242.310 517.500 C 2240.317 579.383, 2259.949 632.510, 2299.896 673.337 C 2342.765 717.151, 2401.282 741.061, 2471.989 743.655 C 2527.316 745.684, 2580.023 733.528, 2623.282 708.763 C 2640.663 698.813, 2649.961 692.158, 2653.461 687.164 C 2656.287 683.132, 2656.500 682.211, 2656.500 674.041 C 2656.500 662.982, 2656.436 662.887, 2636.201 643.874 C 2618.406 627.154, 2614.194 624.496, 2605.527 624.510 C 2600.020 624.519, 2598.551 625.049, 2588.500 630.644 C 2563.278 644.686, 2537.355 653.574, 2510.011 657.555 C 2501.176 658.841, 2494.132 659.114, 2479.511 658.737 C 2457.480 658.168, 2447.490 656.580, 2430.697 650.973 C 2398.008 640.061, 2373.114 620.811, 2356.984 593.973 C 2352.572 586.633, 2346 571.709, 2346 569.032 C 2346 568.327, 2396.134 567.993, 2504.250 567.978 C 2656.276 567.957, 2662.657 567.883, 2666.500 566.100 C 2671.501 563.780, 2676.375 558.714, 2678.624 553.500 C 2680.857 548.322, 2681.755 516.247, 2680.094 500.981 C 2669.198 400.824, 2594.661 323.722, 2494.990 309.506 C 2481.476 307.579, 2452.217 306.777, 2439.683 307.990 M 2940.500 308.703 C 2937.750 308.891, 2928.474 309.923, 2919.886 310.997 C 2859.781 318.513, 2799.463 338.829, 2751 367.882 C 2735.998 376.875, 2731.674 380.992, 2729.484 388.367 C 2727.304 395.707, 2727.239 710.154, 2729.416 717.386 C 2731.376 723.900, 2735.238 728.580, 2741.106 731.554 L 2746.088 734.078 2778.460 733.789 L 2810.832 733.500 2815.142 730.469 C 2817.513 728.802, 2820.813 725.237, 2822.476 722.548 L 2825.500 717.657 2825.764 577.530 L 2826.027 437.402 2837.719 431.583 C 2873.159 413.946, 2913.005 403.895, 2958.717 401.060 C 2967.894 400.491, 2976.359 399.457, 2978.217 398.679 C 2983.036 396.659, 2987.787 392.311, 2990.294 387.624 C 2992.384 383.717, 2992.517 382.090, 2992.823 356.755 C 2993.182 326.920, 2992.558 322.504, 2987.036 315.840 C 2981.464 309.116, 2977.499 307.974, 2960.434 308.180 C 2952.220 308.279, 2943.250 308.514, 2940.500 308.703 M 884.500 318.900 C 882.300 319.921, 879.060 322.273, 877.301 324.128 C 870.491 331.305, 871 315.036, 871 525.500 C 871 735.964, 870.491 719.695, 877.301 726.872 C 883.824 733.747, 885.037 733.956, 918.500 733.956 C 951.963 733.956, 953.176 733.747, 959.699 726.872 C 966.510 719.694, 966.002 735.995, 965.978 525.282 C 965.957 341.566, 965.887 334.352, 964.100 330.500 C 963.079 328.300, 960.727 325.060, 958.872 323.301 C 952.441 317.199, 951.140 316.998, 918.282 317.022 C 891.402 317.042, 888.110 317.225, 884.500 318.900 M 1824.337 319.514 C 1819.427 322.458, 1815.980 328.712, 1816.042 334.566 C 1816.105 340.474, 1972.334 720.735, 1976.965 726.250 C 1983.510 734.047, 1982.837 733.953, 2032.636 733.978 L 2076.772 734 2082.120 731.206 C 2085.870 729.247, 2088.289 727.079, 2090.211 723.956 C 2091.718 721.505, 2128.109 633.550, 2171.079 528.500 C 2243.979 350.279, 2249.176 337.185, 2248.753 332.781 C 2248.202 327.043, 2244.839 321.840, 2239.881 319.053 C 2236.380 317.086, 2234.711 317.001, 2199.864 317.022 C 2166.701 317.042, 2163.143 317.206, 2159.444 318.886 C 2150.425 322.983, 2153.062 316.819, 2090.555 479.934 L 2032.646 631.050 1974.573 479.952 C 1912.057 317.295, 1914.473 322.936, 1905.594 318.903 C 1901.845 317.200, 1898.428 317.043, 1865 317.031 L 1828.500 317.019 1824.337 319.514 M 2446.174 391.040 C 2395.796 397.374, 2360.193 429.026, 2346.053 480.051 L 2344.127 487 2462.064 487 C 2535.742 487, 2580 486.644, 2580 486.052 C 2580 485.530, 2578.821 481.372, 2577.381 476.811 C 2563.354 432.410, 2529.057 400.827, 2485.830 392.503 C 2475.573 390.529, 2455.990 389.806, 2446.174 391.040 M 1584.500 399.047 C 1555.290 403.625, 1529.624 416.992, 1509.406 438.156 C 1492.428 455.928, 1481.861 476.220, 1476.421 501.500 C 1473.775 513.798, 1474.001 537.473, 1476.893 551 C 1485.139 589.564, 1510.306 622.111, 1545.508 639.736 C 1564.704 649.347, 1579.177 652.535, 1603 652.402 C 1619.244 652.312, 1621.361 652.079, 1632.500 649.158 C 1661.982 641.429, 1689.182 622.508, 1705.834 598.146 C 1757.555 522.478, 1717.727 421.533, 1628 400.875 C 1618.129 398.602, 1593.847 397.582, 1584.500 399.047 M 1672.500 891.975 C 1656.975 895.407, 1647.540 902.210, 1642.236 913.796 C 1640.041 918.589, 1639.817 920.193, 1640.202 928.342 C 1640.717 939.275, 1643.309 945.265, 1650.320 951.728 C 1656.455 957.382, 1662.084 960.046, 1681.308 966.392 C 1703.796 973.816, 1708 976.897, 1708 985.954 C 1708 994.768, 1702.443 999.282, 1689.216 1001.210 C 1682.523 1002.185, 1680.288 1002.112, 1674.698 1000.732 C 1666.185 998.631, 1658.260 994.854, 1652.024 989.925 C 1645.911 985.093, 1642.202 984.775, 1638.839 988.797 C 1634.774 993.658, 1632.654 998.486, 1633.357 1001.285 C 1634.673 1006.529, 1649.862 1016.600, 1662.500 1020.608 C 1684.172 1027.480, 1709.347 1022.889, 1721.555 1009.838 C 1728.654 1002.248, 1730.500 997.325, 1730.500 985.978 C 1730.500 977.207, 1730.237 975.923, 1727.166 969.685 C 1724.749 964.775, 1722.432 961.807, 1718.735 958.885 C 1711.556 953.210, 1708.123 951.644, 1689.214 945.424 C 1670.736 939.345, 1665.538 936.533, 1663.421 931.466 C 1661.373 926.564, 1661.660 923.558, 1664.496 920.187 C 1671.753 911.563, 1691.383 910.882, 1708.157 918.672 C 1717.781 923.142, 1720.238 922.646, 1724.227 915.432 C 1728.949 906.891, 1727.720 903.422, 1718.284 898.648 C 1708.854 893.877, 1700.200 891.819, 1688 891.444 C 1681.675 891.250, 1674.700 891.489, 1672.500 891.975 M 1797.315 892.192 C 1795.688 892.978, 1788.085 908.774, 1767.565 954.001 C 1752.404 987.416, 1740 1015.731, 1740 1016.923 C 1740 1018.115, 1741.105 1020.195, 1742.455 1021.545 C 1744.501 1023.592, 1745.873 1023.998, 1750.705 1023.985 C 1759.861 1023.962, 1760.408 1023.397, 1768.343 1005.750 L 1775.426 990 1804.963 990.026 L 1834.500 990.052 1841.500 1005.653 C 1845.858 1015.367, 1849.350 1021.816, 1850.752 1022.743 C 1852.375 1023.817, 1854.857 1024.115, 1859.636 1023.810 C 1865.054 1023.465, 1866.609 1022.967, 1868.134 1021.083 C 1869.160 1019.816, 1870 1017.930, 1870 1016.894 C 1870 1013.855, 1815.141 894.672, 1812.858 892.750 C 1810.489 890.756, 1800.990 890.415, 1797.315 892.192 M 1891.455 893.455 L 1889 895.909 1889 957.500 L 1889 1019.091 1891.455 1021.545 C 1893.523 1023.614, 1894.866 1024, 1900 1024 C 1905.134 1024, 1906.477 1023.614, 1908.545 1021.545 L 1911 1019.091 1911 957.500 L 1911 895.909 1908.545 893.455 C 1906.477 891.386, 1905.134 891, 1900 891 C 1894.866 891, 1893.523 891.386, 1891.455 893.455 M 1951.455 893.455 L 1949 895.909 1949 957.500 L 1949 1019.091 1951.455 1021.545 C 1953.509 1023.600, 1954.876 1024, 1959.844 1024 C 1964.196 1024, 1966.408 1023.490, 1968.139 1022.089 L 1970.500 1020.178 1971 976.497 L 1971.500 932.817 2003.875 976.967 C 2021.681 1001.250, 2037.319 1021.818, 2038.627 1022.675 C 2040.378 1023.822, 2042.751 1024.122, 2047.636 1023.810 C 2058.896 1023.093, 2058 1028.838, 2058 957.344 L 2058 895.909 2055.545 893.455 C 2053.491 891.400, 2052.124 891, 2047.156 891 C 2042.804 891, 2040.592 891.510, 2038.861 892.911 L 2036.500 894.822 2036 938.461 L 2035.500 982.100 2003.035 937.956 C 1985.179 913.677, 1969.666 893.179, 1968.562 892.406 C 1967.351 891.558, 1964.046 891, 1960.232 891 C 1954.852 891, 1953.543 891.366, 1951.455 893.455 M 2080.635 893.073 C 2078.253 894.946, 2078 895.794, 2078 901.898 C 2078 907.664, 2078.338 908.969, 2080.314 910.826 C 2082.505 912.884, 2083.546 913, 2099.814 913 L 2117 913 2117 964.953 C 2117 1000.898, 2117.342 1017.657, 2118.110 1019.343 C 2119.563 1022.530, 2122.972 1024, 2128.912 1024 C 2132.272 1024, 2134.528 1023.373, 2136.365 1021.927 L 2139 1019.855 2139 966.427 L 2139 913 2156.826 913 C 2174.166 913, 2174.711 912.937, 2176.826 910.686 C 2178.578 908.820, 2179 907.161, 2179 902.140 C 2179 896.858, 2178.626 895.535, 2176.545 893.455 L 2174.091 891 2128.680 891 C 2084.254 891, 2083.213 891.045, 2080.635 893.073 M 2313.894 892.435 C 2288.859 897.686, 2267.702 917.583, 2261.567 941.644 C 2259.575 949.456, 2259.570 964.545, 2261.557 973 C 2266.161 992.593, 2282.758 1011.398, 2302.246 1019.103 C 2323.890 1027.661, 2350.140 1024.352, 2369.348 1010.646 C 2372.874 1008.130, 2376.038 1005.343, 2376.379 1004.454 C 2376.721 1003.564, 2377 992.278, 2377 979.373 L 2377 955.909 2374.545 953.455 C 2372.145 951.054, 2371.740 951, 2356.180 951 C 2341.598 951, 2340.050 951.173, 2337.635 953.073 C 2335.241 954.955, 2335 955.780, 2335 962.073 C 2335 971.871, 2336.292 973, 2347.500 973 L 2356 973 2356 983.483 L 2356 993.966 2351.250 996.372 C 2340.744 1001.692, 2327.856 1003.416, 2317.112 1000.939 C 2304.177 997.958, 2292.301 988.436, 2286.253 976.197 C 2282.600 968.806, 2282.500 968.309, 2282.500 957.552 C 2282.500 947.218, 2282.706 946.066, 2285.665 939.820 C 2289.469 931.790, 2295.486 924.981, 2303.221 919.955 C 2318.231 910.202, 2339.723 910.733, 2355.471 921.247 C 2364.105 927.010, 2364.859 927.301, 2367.898 926.042 C 2371.728 924.456, 2377 917.309, 2377 913.703 C 2377 908.210, 2363.825 898.963, 2349.500 894.401 C 2339.538 891.229, 2323.790 890.359, 2313.894 892.435 M 2453.500 892.534 C 2430.472 897.502, 2410.881 914.990, 2402.876 937.725 C 2399.908 946.153, 2399.252 961.540, 2401.441 971.379 C 2405.744 990.720, 2419.058 1007.537, 2437.022 1016.321 C 2457.717 1026.441, 2479.284 1026.425, 2499.874 1016.274 C 2508.766 1011.891, 2521.879 999.908, 2526.877 991.598 C 2549.020 954.785, 2531.190 908.343, 2489.592 894.480 C 2479.507 891.119, 2463.948 890.280, 2453.500 892.534 M 2561.432 893.477 L 2558.956 895.954 2559.228 957.942 C 2559.482 1015.936, 2559.615 1020.044, 2561.288 1021.715 C 2562.930 1023.355, 2565.696 1023.499, 2595.288 1023.493 C 2630.968 1023.484, 2634.566 1023.014, 2646.155 1016.836 C 2653.294 1013.032, 2658.370 1007.612, 2661.812 1000.120 C 2663.959 995.445, 2664.402 992.986, 2664.447 985.500 C 2664.519 973.237, 2662.475 967.650, 2654.987 959.645 L 2649.185 953.443 2652.062 949.584 C 2656.860 943.149, 2658.500 937.519, 2658.500 927.479 C 2658.500 919.294, 2658.194 917.836, 2655.200 911.755 C 2651.700 904.645, 2646.917 899.963, 2639.163 896.056 C 2631.067 891.976, 2621.933 891, 2591.867 891 L 2563.909 891 2561.432 893.477 M 2732.324 892.188 C 2729.933 893.343, 2730.151 892.887, 2696.543 967 C 2684.696 993.125, 2675.002 1015.533, 2675.001 1016.795 C 2675.001 1018.058, 2676.105 1020.195, 2677.455 1021.545 C 2679.465 1023.556, 2680.903 1024, 2685.407 1024 C 2694.624 1024, 2695.072 1023.542, 2703.163 1005.847 L 2710.422 989.971 2739.912 990.235 L 2769.401 990.500 2776.228 1005.500 C 2779.983 1013.750, 2783.993 1021.288, 2785.138 1022.250 C 2787.568 1024.291, 2796.473 1024.653, 2800.385 1022.870 C 2803.007 1021.676, 2805.567 1016.903, 2804.732 1014.768 C 2800.148 1003.051, 2749.289 894.007, 2747.821 892.750 C 2745.495 890.757, 2735.995 890.413, 2732.324 892.188 M 2826.455 893.455 L 2824 895.909 2824 957.500 L 2824 1019.091 2826.455 1021.545 C 2828.523 1023.614, 2829.866 1024, 2835 1024 C 2840.134 1024, 2841.477 1023.614, 2843.545 1021.545 L 2846 1019.091 2846 957.500 L 2846 895.909 2843.545 893.455 C 2841.477 891.386, 2840.134 891, 2835 891 C 2829.866 891, 2828.523 891.386, 2826.455 893.455 M 2886.455 893.455 L 2884 895.909 2884 957.500 L 2884 1019.091 2886.455 1021.545 C 2888.509 1023.600, 2889.876 1024, 2894.844 1024 C 2899.196 1024, 2901.408 1023.490, 2903.139 1022.089 L 2905.500 1020.178 2906 976.563 L 2906.500 932.949 2938.792 976.947 C 2956.553 1001.146, 2972.065 1021.633, 2973.265 1022.473 C 2975.830 1024.269, 2984.772 1024.517, 2988.343 1022.890 C 2989.683 1022.279, 2991.279 1020.683, 2991.890 1019.343 C 2992.664 1017.644, 2993 998.882, 2993 957.403 C 2993 893.206, 2992.986 893.033, 2987.790 891.641 C 2982.994 890.356, 2976.259 890.970, 2973.861 892.911 L 2971.500 894.822 2971 938.536 L 2970.500 982.251 2937.688 937.627 C 2919.641 913.084, 2904.033 892.553, 2903.004 892.002 C 2901.974 891.451, 2898.381 891, 2895.020 891 C 2889.865 891, 2888.525 891.384, 2886.455 893.455 M 2456.265 914.542 C 2422.322 923.683, 2410.719 963.811, 2434.987 988.134 C 2457.831 1011.031, 2496.484 1004.423, 2510.299 975.259 C 2513.300 968.923, 2513.500 967.808, 2513.500 957.448 C 2513.500 946.691, 2513.400 946.194, 2509.747 938.803 C 2501.823 922.769, 2485.856 912.929, 2468 913.078 C 2464.425 913.107, 2459.144 913.766, 2456.265 914.542 M 2581 929.113 L 2581 945.227 2601.750 944.731 C 2613.162 944.459, 2624.169 943.717, 2626.209 943.082 C 2637.160 939.676, 2640.591 926.066, 2632.436 918.375 C 2627.699 913.907, 2622.215 913, 2599.951 913 L 2581 913 2581 929.113 M 1794.865 946.583 L 1785.231 968 1804.616 968 C 1815.277 968, 1824 967.831, 1824 967.625 C 1824 967.230, 1805.025 925.691, 1804.693 925.359 C 1804.586 925.253, 1800.164 934.804, 1794.865 946.583 M 2729.793 946.539 L 2720.173 968 2739.694 968 C 2754.926 968, 2759.097 967.725, 2758.683 966.750 C 2757.503 963.973, 2739.802 925.485, 2739.614 925.289 C 2739.503 925.173, 2735.083 934.736, 2729.793 946.539 M 2180.803 958.043 C 2177.976 960.870, 2177.793 961.487, 2178.226 966.709 C 2178.990 975.926, 2179.201 976, 2204.656 976 C 2226.081 976, 2226.092 975.999, 2228.545 973.545 C 2230.492 971.599, 2231 970.064, 2231 966.127 C 2231 955.479, 2229.837 955, 2203.973 955 L 2183.846 955 2180.803 958.043 M 2581 984.095 L 2581 1002.190 2603.750 1001.845 L 2626.500 1001.500 2632.455 998.500 C 2640.319 994.538, 2642.421 991.541, 2642.465 984.223 C 2642.550 970.156, 2632.629 966.022, 2598.750 966.008 L 2581 966 2581 984.095" stroke="none" fill="#040404" fill-rule="evenodd"/></svg>