<svg width="457" height="67" viewBox="0 0 457 67" fill="none" xmlns="http://www.w3.org/2000/svg">
<path d="M78 5.87199V9.93999H67.524V16.384H75.552V20.38H67.524V31H62.484V5.87199H78ZM86.6139 14.152C87.2619 13.096 88.1019 12.268 89.1339 11.668C90.1899 11.068 91.3899 10.768 92.7339 10.768V16.06H91.4019C89.8179 16.06 88.6179 16.432 87.8019 17.176C87.0099 17.92 86.6139 19.216 86.6139 21.064V31H81.5739V11.056H86.6139V14.152ZM94.8325 20.956C94.8325 18.94 95.2285 17.152 96.0205 15.592C96.8365 14.032 97.9285 12.832 99.2965 11.992C100.689 11.152 102.237 10.732 103.941 10.732C105.429 10.732 106.725 11.032 107.829 11.632C108.957 12.232 109.857 12.988 110.529 13.9V11.056H115.605V31H110.529V28.084C109.881 29.02 108.981 29.8 107.829 30.424C106.701 31.024 105.393 31.324 103.905 31.324C102.225 31.324 100.689 30.892 99.2965 30.028C97.9285 29.164 96.8365 27.952 96.0205 26.392C95.2285 24.808 94.8325 22.996 94.8325 20.956ZM110.529 21.028C110.529 19.804 110.289 18.76 109.809 17.896C109.329 17.008 108.681 16.336 107.865 15.88C107.049 15.4 106.173 15.16 105.237 15.16C104.301 15.16 103.437 15.388 102.645 15.844C101.853 16.3 101.205 16.972 100.701 17.86C100.221 18.724 99.9805 19.756 99.9805 20.956C99.9805 22.156 100.221 23.212 100.701 24.124C101.205 25.012 101.853 25.696 102.645 26.176C103.461 26.656 104.325 26.896 105.237 26.896C106.173 26.896 107.049 26.668 107.865 26.212C108.681 25.732 109.329 25.06 109.809 24.196C110.289 23.308 110.529 22.252 110.529 21.028ZM131.579 10.768C133.955 10.768 135.875 11.524 137.339 13.036C138.803 14.524 139.535 16.612 139.535 19.3V31H134.495V19.984C134.495 18.4 134.099 17.188 133.307 16.348C132.515 15.484 131.435 15.052 130.067 15.052C128.675 15.052 127.571 15.484 126.755 16.348C125.963 17.188 125.567 18.4 125.567 19.984V31H120.527V11.056H125.567V13.54C126.239 12.676 127.091 12.004 128.123 11.524C129.179 11.02 130.331 10.768 131.579 10.768ZM143.032 21.028C143.032 18.964 143.452 17.164 144.292 15.628C145.132 14.068 146.296 12.868 147.784 12.028C149.272 11.164 150.976 10.732 152.896 10.732C155.368 10.732 157.408 11.356 159.016 12.604C160.648 13.828 161.74 15.556 162.292 17.788H156.856C156.568 16.924 156.076 16.252 155.38 15.772C154.708 15.268 153.868 15.016 152.86 15.016C151.42 15.016 150.28 15.544 149.44 16.6C148.6 17.632 148.18 19.108 148.18 21.028C148.18 22.924 148.6 24.4 149.44 25.456C150.28 26.488 151.42 27.004 152.86 27.004C154.9 27.004 156.232 26.092 156.856 24.268H162.292C161.74 26.428 160.648 28.144 159.016 29.416C157.384 30.688 155.344 31.324 152.896 31.324C150.976 31.324 149.272 30.904 147.784 30.064C146.296 29.2 145.132 28 144.292 26.464C143.452 24.904 143.032 23.092 143.032 21.028ZM184.524 20.596C184.524 21.316 184.476 21.964 184.38 22.54H169.8C169.92 23.98 170.424 25.108 171.312 25.924C172.2 26.74 173.292 27.148 174.588 27.148C176.46 27.148 177.792 26.344 178.584 24.736H184.02C183.444 26.656 182.34 28.24 180.708 29.488C179.076 30.712 177.072 31.324 174.696 31.324C172.776 31.324 171.048 30.904 169.512 30.064C168 29.2 166.812 27.988 165.948 26.428C165.108 24.868 164.688 23.068 164.688 21.028C164.688 18.964 165.108 17.152 165.948 15.592C166.788 14.032 167.964 12.832 169.476 11.992C170.988 11.152 172.728 10.732 174.696 10.732C176.592 10.732 178.284 11.14 179.772 11.956C181.284 12.772 182.448 13.936 183.264 15.448C184.104 16.936 184.524 18.652 184.524 20.596ZM179.304 19.156C179.28 17.86 178.812 16.828 177.9 16.06C176.988 15.268 175.872 14.872 174.552 14.872C173.304 14.872 172.248 15.256 171.384 16.024C170.544 16.768 170.028 17.812 169.836 19.156H179.304ZM196.025 18.4C196.025 15.928 196.565 13.72 197.645 11.776C198.725 9.80799 200.201 8.28399 202.073 7.20399C203.945 6.09999 206.033 5.54799 208.337 5.54799C211.145 5.54799 213.545 6.21999 215.537 7.56399C217.553 8.88399 219.017 10.756 219.929 13.18H216.977C216.257 11.476 215.153 10.144 213.665 9.18399C212.201 8.22399 210.425 7.74399 208.337 7.74399C206.489 7.74399 204.821 8.17599 203.333 9.03999C201.869 9.90399 200.717 11.152 199.877 12.784C199.037 14.392 198.617 16.264 198.617 18.4C198.617 20.536 199.037 22.408 199.877 24.016C200.717 25.624 201.869 26.86 203.333 27.724C204.821 28.588 206.489 29.02 208.337 29.02C210.425 29.02 212.201 28.552 213.665 27.616C215.153 26.656 216.257 25.336 216.977 23.656H219.929C219.017 26.056 217.553 27.916 215.537 29.236C213.521 30.556 211.121 31.216 208.337 31.216C206.033 31.216 203.945 30.676 202.073 29.596C200.201 28.492 198.725 26.968 197.645 25.024C196.565 23.08 196.025 20.872 196.025 18.4ZM223.798 21.136C223.798 19.12 224.194 17.356 224.986 15.844C225.802 14.308 226.918 13.132 228.334 12.316C229.774 11.476 231.394 11.056 233.194 11.056C235.066 11.056 236.674 11.488 238.018 12.352C239.386 13.216 240.37 14.32 240.97 15.664V11.344H243.49V31H240.97V26.644C240.346 27.988 239.35 29.104 237.982 29.992C236.638 30.856 235.03 31.288 233.158 31.288C231.382 31.288 229.774 30.868 228.334 30.028C226.918 29.188 225.802 28 224.986 26.464C224.194 24.928 223.798 23.152 223.798 21.136ZM240.97 21.172C240.97 19.588 240.646 18.196 239.998 16.996C239.35 15.796 238.462 14.872 237.334 14.224C236.23 13.576 235.006 13.252 233.662 13.252C232.27 13.252 231.022 13.564 229.918 14.188C228.814 14.812 227.938 15.724 227.29 16.924C226.666 18.1 226.354 19.504 226.354 21.136C226.354 22.744 226.666 24.16 227.29 25.384C227.938 26.584 228.814 27.508 229.918 28.156C231.022 28.78 232.27 29.092 233.662 29.092C235.006 29.092 236.23 28.768 237.334 28.12C238.462 27.472 239.35 26.548 239.998 25.348C240.646 24.148 240.97 22.756 240.97 21.172ZM251.763 4.35999V31H249.243V4.35999H251.763ZM266.074 31.288C264.226 31.288 262.558 30.88 261.07 30.064C259.606 29.224 258.442 28.048 257.578 26.536C256.738 25 256.318 23.212 256.318 21.172C256.318 19.132 256.75 17.356 257.614 15.844C258.478 14.308 259.654 13.132 261.142 12.316C262.63 11.476 264.298 11.056 266.146 11.056C267.994 11.056 269.662 11.476 271.15 12.316C272.662 13.132 273.838 14.308 274.678 15.844C275.542 17.356 275.974 19.132 275.974 21.172C275.974 23.188 275.542 24.964 274.678 26.5C273.814 28.036 272.626 29.224 271.114 30.064C269.602 30.88 267.922 31.288 266.074 31.288ZM266.074 29.092C267.37 29.092 268.57 28.804 269.674 28.228C270.778 27.628 271.666 26.74 272.338 25.564C273.034 24.364 273.382 22.9 273.382 21.172C273.382 19.444 273.046 17.992 272.374 16.816C271.702 15.616 270.814 14.728 269.71 14.152C268.606 13.552 267.406 13.252 266.11 13.252C264.814 13.252 263.614 13.552 262.51 14.152C261.406 14.728 260.518 15.616 259.846 16.816C259.198 17.992 258.874 19.444 258.874 21.172C258.874 22.9 259.198 24.364 259.846 25.564C260.518 26.74 261.394 27.628 262.474 28.228C263.578 28.804 264.778 29.092 266.074 29.092ZM283.088 14.836C283.64 13.612 284.48 12.664 285.608 11.992C286.76 11.32 288.164 10.984 289.82 10.984V13.612H289.136C287.312 13.612 285.848 14.104 284.744 15.088C283.64 16.072 283.088 17.716 283.088 20.02V31H280.568V11.344H283.088V14.836ZM294.871 7.63599C294.367 7.63599 293.935 7.45599 293.575 7.09599C293.215 6.73599 293.035 6.29199 293.035 5.76399C293.035 5.23599 293.215 4.80399 293.575 4.46799C293.935 4.10799 294.367 3.92799 294.871 3.92799C295.375 3.92799 295.807 4.10799 296.167 4.46799C296.527 4.80399 296.707 5.23599 296.707 5.76399C296.707 6.29199 296.527 6.73599 296.167 7.09599C295.807 7.45599 295.375 7.63599 294.871 7.63599ZM296.131 11.344V31H293.611V11.344H296.131ZM309.577 13.468H305.005V31H302.485V13.468H299.749V11.344H302.485V9.97599C302.485 7.83999 303.025 6.26799 304.105 5.25999C305.209 4.25199 306.985 3.74799 309.433 3.74799V5.90799C307.801 5.90799 306.649 6.21999 305.977 6.84399C305.329 7.46799 305.005 8.51199 305.005 9.97599V11.344H309.577V13.468ZM330.572 11.344V31H328.052V27.544C327.476 28.768 326.588 29.704 325.388 30.352C324.188 31 322.844 31.324 321.356 31.324C319.004 31.324 317.084 30.604 315.596 29.164C314.108 27.7 313.364 25.588 313.364 22.828V11.344H315.848V22.54C315.848 24.676 316.376 26.308 317.432 27.436C318.512 28.564 319.976 29.128 321.824 29.128C323.72 29.128 325.232 28.528 326.36 27.328C327.488 26.128 328.052 24.364 328.052 22.036V11.344H330.572ZM344.569 11.056C346.417 11.056 348.025 11.488 349.393 12.352C350.761 13.216 351.745 14.308 352.345 15.628V11.344H354.865V31.504C354.865 33.304 354.469 34.9 353.677 36.292C352.909 37.684 351.829 38.752 350.437 39.496C349.045 40.264 347.461 40.648 345.685 40.648C343.165 40.648 341.065 40.048 339.385 38.848C337.729 37.648 336.697 36.016 336.289 33.952H338.773C339.205 35.32 340.021 36.412 341.221 37.228C342.445 38.044 343.933 38.452 345.685 38.452C346.957 38.452 348.097 38.176 349.105 37.624C350.113 37.096 350.905 36.304 351.481 35.248C352.057 34.192 352.345 32.944 352.345 31.504V26.644C351.721 27.988 350.725 29.104 349.357 29.992C348.013 30.856 346.417 31.288 344.569 31.288C342.769 31.288 341.149 30.868 339.709 30.028C338.293 29.188 337.177 28 336.361 26.464C335.569 24.928 335.173 23.152 335.173 21.136C335.173 19.12 335.569 17.356 336.361 15.844C337.177 14.308 338.293 13.132 339.709 12.316C341.149 11.476 342.769 11.056 344.569 11.056ZM352.345 21.172C352.345 19.588 352.021 18.196 351.373 16.996C350.725 15.796 349.837 14.872 348.709 14.224C347.605 13.576 346.381 13.252 345.037 13.252C343.645 13.252 342.397 13.564 341.293 14.188C340.189 14.812 339.313 15.724 338.665 16.924C338.041 18.1 337.729 19.504 337.729 21.136C337.729 22.744 338.041 24.16 338.665 25.384C339.313 26.584 340.189 27.508 341.293 28.156C342.397 28.78 343.645 29.092 345.037 29.092C346.381 29.092 347.605 28.768 348.709 28.12C349.837 27.472 350.725 26.548 351.373 25.348C352.021 24.148 352.345 22.756 352.345 21.172ZM378.402 20.164C378.402 21.028 378.378 21.688 378.33 22.144H362.022C362.094 23.632 362.454 24.904 363.102 25.96C363.75 27.016 364.602 27.82 365.658 28.372C366.714 28.9 367.866 29.164 369.114 29.164C370.746 29.164 372.114 28.768 373.218 27.976C374.346 27.184 375.09 26.116 375.45 24.772H378.114C377.634 26.692 376.602 28.264 375.018 29.488C373.458 30.688 371.49 31.288 369.114 31.288C367.266 31.288 365.61 30.88 364.146 30.064C362.682 29.224 361.53 28.048 360.69 26.536C359.874 25 359.466 23.212 359.466 21.172C359.466 19.132 359.874 17.344 360.69 15.808C361.506 14.272 362.646 13.096 364.11 12.28C365.574 11.464 367.242 11.056 369.114 11.056C370.986 11.056 372.618 11.464 374.01 12.28C375.426 13.096 376.506 14.2 377.25 15.592C378.018 16.96 378.402 18.484 378.402 20.164ZM375.846 20.092C375.87 18.628 375.57 17.38 374.946 16.348C374.346 15.316 373.518 14.536 372.462 14.008C371.406 13.48 370.254 13.216 369.006 13.216C367.134 13.216 365.538 13.816 364.218 15.016C362.898 16.216 362.166 17.908 362.022 20.092H375.846ZM381.861 21.136C381.861 19.12 382.257 17.356 383.049 15.844C383.865 14.308 384.981 13.132 386.397 12.316C387.837 11.476 389.457 11.056 391.257 11.056C393.129 11.056 394.737 11.488 396.081 12.352C397.449 13.216 398.433 14.32 399.033 15.664V11.344H401.553V31H399.033V26.644C398.409 27.988 397.413 29.104 396.045 29.992C394.701 30.856 393.093 31.288 391.221 31.288C389.445 31.288 387.837 30.868 386.397 30.028C384.981 29.188 383.865 28 383.049 26.464C382.257 24.928 381.861 23.152 381.861 21.136ZM399.033 21.172C399.033 19.588 398.709 18.196 398.061 16.996C397.413 15.796 396.525 14.872 395.397 14.224C394.293 13.576 393.069 13.252 391.725 13.252C390.333 13.252 389.085 13.564 387.981 14.188C386.877 14.812 386.001 15.724 385.353 16.924C384.729 18.1 384.417 19.504 384.417 21.136C384.417 22.744 384.729 24.16 385.353 25.384C386.001 26.584 386.877 27.508 387.981 28.156C389.085 28.78 390.333 29.092 391.725 29.092C393.069 29.092 394.293 28.768 395.397 28.12C396.525 27.472 397.413 26.548 398.061 25.348C398.709 24.148 399.033 22.756 399.033 21.172ZM415.55 11.056C417.398 11.056 419.006 11.488 420.374 12.352C421.742 13.216 422.726 14.308 423.326 15.628V11.344H425.846V31.504C425.846 33.304 425.45 34.9 424.658 36.292C423.89 37.684 422.81 38.752 421.418 39.496C420.026 40.264 418.442 40.648 416.666 40.648C414.146 40.648 412.046 40.048 410.366 38.848C408.71 37.648 407.678 36.016 407.27 33.952H409.754C410.186 35.32 411.002 36.412 412.202 37.228C413.426 38.044 414.914 38.452 416.666 38.452C417.938 38.452 419.078 38.176 420.086 37.624C421.094 37.096 421.886 36.304 422.462 35.248C423.038 34.192 423.326 32.944 423.326 31.504V26.644C422.702 27.988 421.706 29.104 420.338 29.992C418.994 30.856 417.398 31.288 415.55 31.288C413.75 31.288 412.13 30.868 410.69 30.028C409.274 29.188 408.158 28 407.342 26.464C406.55 24.928 406.154 23.152 406.154 21.136C406.154 19.12 406.55 17.356 407.342 15.844C408.158 14.308 409.274 13.132 410.69 12.316C412.13 11.476 413.75 11.056 415.55 11.056ZM423.326 21.172C423.326 19.588 423.002 18.196 422.354 16.996C421.706 15.796 420.818 14.872 419.69 14.224C418.586 13.576 417.362 13.252 416.018 13.252C414.626 13.252 413.378 13.564 412.274 14.188C411.17 14.812 410.294 15.724 409.646 16.924C409.022 18.1 408.71 19.504 408.71 21.136C408.71 22.744 409.022 24.16 409.646 25.384C410.294 26.584 411.17 27.508 412.274 28.156C413.378 28.78 414.626 29.092 416.018 29.092C417.362 29.092 418.586 28.768 419.69 28.12C420.818 27.472 421.706 26.548 422.354 25.348C423.002 24.148 423.326 22.756 423.326 21.172ZM449.383 20.164C449.383 21.028 449.359 21.688 449.311 22.144H433.003C433.075 23.632 433.435 24.904 434.083 25.96C434.731 27.016 435.583 27.82 436.639 28.372C437.695 28.9 438.847 29.164 440.095 29.164C441.727 29.164 443.095 28.768 444.199 27.976C445.327 27.184 446.071 26.116 446.431 24.772H449.095C448.615 26.692 447.583 28.264 445.999 29.488C444.439 30.688 442.471 31.288 440.095 31.288C438.247 31.288 436.591 30.88 435.127 30.064C433.663 29.224 432.511 28.048 431.671 26.536C430.855 25 430.447 23.212 430.447 21.172C430.447 19.132 430.855 17.344 431.671 15.808C432.487 14.272 433.627 13.096 435.091 12.28C436.555 11.464 438.223 11.056 440.095 11.056C441.967 11.056 443.599 11.464 444.991 12.28C446.407 13.096 447.487 14.2 448.231 15.592C448.999 16.96 449.383 18.484 449.383 20.164ZM446.827 20.092C446.851 18.628 446.551 17.38 445.927 16.348C445.327 15.316 444.499 14.536 443.443 14.008C442.387 13.48 441.235 13.216 439.987 13.216C438.115 13.216 436.519 13.816 435.199 15.016C433.879 16.216 433.147 17.908 433.003 20.092H446.827Z" fill="#192A68"/>
<path d="M65.072 43.7947L66.848 53.3787L72.048 43.7947H73.616L67.424 54.9467H65.744L63.504 43.7947H65.072ZM77.0845 55.0907C76.3485 55.0907 75.6978 54.9414 75.1325 54.6427C74.5778 54.3334 74.1458 53.9067 73.8365 53.3627C73.5272 52.808 73.3725 52.168 73.3725 51.4427C73.3725 50.4507 73.6018 49.544 74.0605 48.7227C74.5192 47.8907 75.1485 47.2347 75.9485 46.7547C76.7592 46.2747 77.6605 46.0347 78.6525 46.0347C79.3885 46.0347 80.0392 46.1894 80.6045 46.4987C81.1805 46.7974 81.6232 47.224 81.9325 47.7787C82.2525 48.3227 82.4125 48.9627 82.4125 49.6987C82.4125 50.6907 82.1778 51.5974 81.7085 52.4187C81.2392 53.24 80.5992 53.8907 79.7885 54.3707C78.9778 54.8507 78.0765 55.0907 77.0845 55.0907ZM77.2605 53.8587C77.9538 53.8587 78.5778 53.672 79.1325 53.2987C79.6872 52.9147 80.1192 52.4134 80.4285 51.7947C80.7485 51.1654 80.9085 50.4934 80.9085 49.7787C80.9085 48.968 80.6738 48.3494 80.2045 47.9227C79.7352 47.4854 79.1485 47.2667 78.4445 47.2667C77.7512 47.2667 77.1325 47.4587 76.5885 47.8427C76.0445 48.216 75.6232 48.7174 75.3245 49.3467C75.0258 49.976 74.8765 50.6534 74.8765 51.3787C74.8765 52.168 75.1005 52.7814 75.5485 53.2187C75.9965 53.6454 76.5672 53.8587 77.2605 53.8587ZM86.5509 55.0907C85.6335 55.0907 84.8815 54.872 84.2949 54.4347C83.7082 53.9974 83.4149 53.4107 83.4149 52.6747C83.4149 52.536 83.4202 52.4347 83.4309 52.3707H84.8549C84.8122 52.8294 84.9455 53.2027 85.2549 53.4907C85.5749 53.7787 86.0335 53.9227 86.6309 53.9227C87.2282 53.9227 87.7082 53.8107 88.0709 53.5867C88.4442 53.352 88.6309 53.0267 88.6309 52.6107C88.6309 52.2587 88.4815 51.9814 88.1829 51.7787C87.8842 51.576 87.4255 51.3574 86.8069 51.1227C86.2629 50.92 85.8149 50.728 85.4629 50.5467C85.1109 50.3654 84.8122 50.1147 84.5669 49.7947C84.3215 49.464 84.1989 49.048 84.1989 48.5467C84.1989 48.056 84.3375 47.6187 84.6149 47.2347C84.9029 46.8507 85.2975 46.5574 85.7989 46.3547C86.3109 46.1414 86.8922 46.0347 87.5429 46.0347C88.4389 46.0347 89.1749 46.2587 89.7509 46.7067C90.3269 47.1547 90.6149 47.7414 90.6149 48.4667C90.6149 48.6054 90.6095 48.712 90.5989 48.7867H89.2069L89.2229 48.5947C89.2229 48.168 89.0575 47.832 88.7269 47.5867C88.4069 47.3307 87.9802 47.2027 87.4469 47.2027C86.9242 47.2027 86.4922 47.32 86.1509 47.5547C85.8202 47.7894 85.6549 48.104 85.6549 48.4987C85.6549 48.872 85.8095 49.1654 86.1189 49.3787C86.4282 49.592 86.9082 49.8267 87.5589 50.0827C88.1029 50.296 88.5402 50.4934 88.8709 50.6747C89.2015 50.8454 89.4842 51.0854 89.7189 51.3947C89.9535 51.704 90.0709 52.0934 90.0709 52.5627C90.0709 53.0747 89.9162 53.5227 89.6069 53.9067C89.3082 54.2907 88.8922 54.584 88.3589 54.7867C87.8255 54.9894 87.2229 55.0907 86.5509 55.0907ZM96.8119 50.5307C96.9719 49.6347 97.2919 48.8507 97.7719 48.1787C98.2625 47.496 98.8545 46.968 99.5479 46.5947C100.252 46.2214 100.999 46.0347 101.788 46.0347C102.556 46.0347 103.191 46.2 103.692 46.5307C104.193 46.8614 104.54 47.2774 104.732 47.7787L105.02 46.1787H106.492L104.94 54.9467H103.468L103.772 53.3147C103.388 53.8267 102.881 54.2534 102.252 54.5947C101.623 54.9254 100.929 55.0907 100.172 55.0907C99.4892 55.0907 98.8865 54.9467 98.3639 54.6587C97.8412 54.36 97.4359 53.9387 97.1479 53.3947C96.8599 52.8507 96.7159 52.2214 96.7159 51.5067C96.7159 51.1867 96.7479 50.8614 96.8119 50.5307ZM104.252 50.5467C104.295 50.3227 104.316 50.0827 104.316 49.8267C104.316 49.048 104.081 48.4347 103.612 47.9867C103.153 47.528 102.567 47.2987 101.852 47.2987C101.308 47.2987 100.785 47.4267 100.284 47.6827C99.7932 47.9387 99.3719 48.312 99.0199 48.8027C98.6679 49.2934 98.4332 49.8694 98.3159 50.5307C98.2732 50.7547 98.2519 51 98.2519 51.2667C98.2519 52.056 98.4812 52.68 98.9399 53.1387C99.3985 53.5867 99.9852 53.8107 100.7 53.8107C101.244 53.8107 101.761 53.6827 102.252 53.4267C102.753 53.16 103.18 52.7814 103.532 52.2907C103.895 51.7894 104.135 51.208 104.252 50.5467ZM110.12 47.8427C110.472 47.2667 110.915 46.8187 111.448 46.4987C111.982 46.1787 112.59 46.0187 113.272 46.0187L113 47.5227H112.616C111.859 47.5227 111.224 47.7254 110.712 48.1307C110.211 48.536 109.875 49.2187 109.704 50.1787L108.856 54.9467H107.4L108.952 46.1787H110.408L110.12 47.8427ZM115.577 52.5467C115.545 52.7067 115.529 52.8454 115.529 52.9627C115.529 53.2294 115.609 53.4214 115.769 53.5387C115.94 53.656 116.212 53.7147 116.585 53.7147H117.657L117.433 54.9467H116.121C115.428 54.9467 114.905 54.8134 114.553 54.5467C114.212 54.28 114.041 53.8427 114.041 53.2347C114.041 53 114.062 52.7707 114.105 52.5467L115.017 47.3787H113.897L114.105 46.1787H115.241L115.625 43.9707H117.097L116.713 46.1787H118.985L118.777 47.3787H116.489L115.577 52.5467ZM121.741 44.7547C121.507 44.7547 121.309 44.68 121.149 44.5307C121 44.3707 120.925 44.1734 120.925 43.9387C120.925 43.6187 121.043 43.3467 121.277 43.1227C121.512 42.888 121.784 42.7707 122.093 42.7707C122.339 42.7707 122.536 42.8454 122.685 42.9947C122.835 43.144 122.909 43.3414 122.909 43.5867C122.909 43.9067 122.792 44.184 122.557 44.4187C122.323 44.6427 122.051 44.7547 121.741 44.7547ZM122.205 46.1787L120.653 54.9467H119.197L120.749 46.1787H122.205ZM126.223 55.0907C125.305 55.0907 124.553 54.872 123.967 54.4347C123.38 53.9974 123.087 53.4107 123.087 52.6747C123.087 52.536 123.092 52.4347 123.103 52.3707H124.527C124.484 52.8294 124.617 53.2027 124.927 53.4907C125.247 53.7787 125.705 53.9227 126.303 53.9227C126.9 53.9227 127.38 53.8107 127.743 53.5867C128.116 53.352 128.303 53.0267 128.303 52.6107C128.303 52.2587 128.153 51.9814 127.855 51.7787C127.556 51.576 127.097 51.3574 126.479 51.1227C125.935 50.92 125.487 50.728 125.135 50.5467C124.783 50.3654 124.484 50.1147 124.239 49.7947C123.993 49.464 123.871 49.048 123.871 48.5467C123.871 48.056 124.009 47.6187 124.287 47.2347C124.575 46.8507 124.969 46.5574 125.471 46.3547C125.983 46.1414 126.564 46.0347 127.215 46.0347C128.111 46.0347 128.847 46.2587 129.423 46.7067C129.999 47.1547 130.287 47.7414 130.287 48.4667C130.287 48.6054 130.281 48.712 130.271 48.7867H128.879L128.895 48.5947C128.895 48.168 128.729 47.832 128.399 47.5867C128.079 47.3307 127.652 47.2027 127.119 47.2027C126.596 47.2027 126.164 47.32 125.823 47.5547C125.492 47.7894 125.327 48.104 125.327 48.4987C125.327 48.872 125.481 49.1654 125.791 49.3787C126.1 49.592 126.58 49.8267 127.231 50.0827C127.775 50.296 128.212 50.4934 128.543 50.6747C128.873 50.8454 129.156 51.0854 129.391 51.3947C129.625 51.704 129.743 52.0934 129.743 52.5627C129.743 53.0747 129.588 53.5227 129.279 53.9067C128.98 54.2907 128.564 54.584 128.031 54.7867C127.497 54.9894 126.895 55.0907 126.223 55.0907ZM131.718 50.5307C131.878 49.6347 132.198 48.8507 132.678 48.1787C133.169 47.496 133.761 46.968 134.454 46.5947C135.158 46.2214 135.905 46.0347 136.694 46.0347C137.462 46.0347 138.097 46.2 138.598 46.5307C139.099 46.8614 139.446 47.2774 139.638 47.7787L139.926 46.1787H141.398L139.846 54.9467H138.374L138.678 53.3147C138.294 53.8267 137.787 54.2534 137.158 54.5947C136.529 54.9254 135.835 55.0907 135.078 55.0907C134.395 55.0907 133.793 54.9467 133.27 54.6587C132.747 54.36 132.342 53.9387 132.054 53.3947C131.766 52.8507 131.622 52.2214 131.622 51.5067C131.622 51.1867 131.654 50.8614 131.718 50.5307ZM139.158 50.5467C139.201 50.3227 139.222 50.0827 139.222 49.8267C139.222 49.048 138.987 48.4347 138.518 47.9867C138.059 47.528 137.473 47.2987 136.758 47.2987C136.214 47.2987 135.691 47.4267 135.19 47.6827C134.699 47.9387 134.278 48.312 133.926 48.8027C133.574 49.2934 133.339 49.8694 133.222 50.5307C133.179 50.7547 133.158 51 133.158 51.2667C133.158 52.056 133.387 52.68 133.846 53.1387C134.305 53.5867 134.891 53.8107 135.606 53.8107C136.15 53.8107 136.667 53.6827 137.158 53.4267C137.659 53.16 138.086 52.7814 138.438 52.2907C138.801 51.7894 139.041 51.208 139.158 50.5467ZM148.163 46.0187C149.069 46.0187 149.795 46.264 150.339 46.7547C150.883 47.2347 151.155 47.9387 151.155 48.8667C151.155 49.208 151.128 49.512 151.075 49.7787L150.163 54.9467H148.723L149.603 49.9867C149.645 49.7627 149.667 49.528 149.667 49.2827C149.667 48.632 149.485 48.136 149.123 47.7947C148.771 47.4534 148.275 47.2827 147.635 47.2827C146.867 47.2827 146.211 47.5227 145.667 48.0027C145.133 48.4827 144.787 49.1814 144.627 50.0987V50.0667L143.763 54.9467H142.307L143.859 46.1787H145.315L145.091 47.4427C145.453 46.984 145.907 46.632 146.451 46.3867C146.995 46.1414 147.565 46.0187 148.163 46.0187ZM155.629 55.0907C154.712 55.0907 153.96 54.872 153.373 54.4347C152.786 53.9974 152.493 53.4107 152.493 52.6747C152.493 52.536 152.498 52.4347 152.509 52.3707H153.933C153.89 52.8294 154.024 53.2027 154.333 53.4907C154.653 53.7787 155.112 53.9227 155.709 53.9227C156.306 53.9227 156.786 53.8107 157.149 53.5867C157.522 53.352 157.709 53.0267 157.709 52.6107C157.709 52.2587 157.56 51.9814 157.261 51.7787C156.962 51.576 156.504 51.3574 155.885 51.1227C155.341 50.92 154.893 50.728 154.541 50.5467C154.189 50.3654 153.89 50.1147 153.645 49.7947C153.4 49.464 153.277 49.048 153.277 48.5467C153.277 48.056 153.416 47.6187 153.693 47.2347C153.981 46.8507 154.376 46.5574 154.877 46.3547C155.389 46.1414 155.97 46.0347 156.621 46.0347C157.517 46.0347 158.253 46.2587 158.829 46.7067C159.405 47.1547 159.693 47.7414 159.693 48.4667C159.693 48.6054 159.688 48.712 159.677 48.7867H158.285L158.301 48.5947C158.301 48.168 158.136 47.832 157.805 47.5867C157.485 47.3307 157.058 47.2027 156.525 47.2027C156.002 47.2027 155.57 47.32 155.229 47.5547C154.898 47.7894 154.733 48.104 154.733 48.4987C154.733 48.872 154.888 49.1654 155.197 49.3787C155.506 49.592 155.986 49.8267 156.637 50.0827C157.181 50.296 157.618 50.4934 157.949 50.6747C158.28 50.8454 158.562 51.0854 158.797 51.3947C159.032 51.704 159.149 52.0934 159.149 52.5627C159.149 53.0747 158.994 53.5227 158.685 53.9067C158.386 54.2907 157.97 54.584 157.437 54.7867C156.904 54.9894 156.301 55.0907 155.629 55.0907ZM165.89 50.5467C166.05 49.64 166.37 48.8507 166.85 48.1787C167.341 47.496 167.943 46.968 168.658 46.5947C169.373 46.2214 170.146 46.0347 170.978 46.0347C172.055 46.0347 172.893 46.296 173.49 46.8187C174.098 47.3414 174.434 48.0667 174.498 48.9947H172.93C172.877 48.4614 172.658 48.04 172.274 47.7307C171.901 47.4214 171.394 47.2667 170.754 47.2667C169.922 47.2667 169.197 47.5547 168.578 48.1307C167.97 48.696 167.575 49.5014 167.394 50.5467C167.341 50.8987 167.314 51.192 167.314 51.4267C167.314 52.2054 167.522 52.808 167.938 53.2347C168.354 53.6507 168.909 53.8587 169.602 53.8587C170.242 53.8587 170.797 53.7094 171.266 53.4107C171.746 53.112 172.114 52.6854 172.37 52.1307H173.938C173.554 53.0267 172.962 53.7467 172.162 54.2907C171.362 54.824 170.434 55.0907 169.378 55.0907C168.279 55.0907 167.405 54.776 166.754 54.1467C166.114 53.5174 165.794 52.6587 165.794 51.5707C165.794 51.24 165.826 50.8987 165.89 50.5467ZM180.745 46.0347C181.481 46.0347 182.115 46.1787 182.649 46.4667C183.193 46.744 183.603 47.1387 183.881 47.6507C184.169 48.152 184.313 48.728 184.313 49.3787C184.313 49.6027 184.286 49.8747 184.233 50.1947C184.19 50.472 184.121 50.76 184.025 51.0587H177.017C176.995 51.272 176.985 51.4267 176.985 51.5227C176.985 52.2587 177.203 52.8347 177.641 53.2507C178.089 53.656 178.67 53.8587 179.385 53.8587C180.014 53.8587 180.563 53.7147 181.033 53.4267C181.513 53.128 181.875 52.7334 182.121 52.2427H183.689C183.305 53.0854 182.713 53.7734 181.913 54.3067C181.123 54.8294 180.206 55.0907 179.161 55.0907C178.062 55.0907 177.177 54.776 176.505 54.1467C175.843 53.5067 175.513 52.6374 175.513 51.5387C175.513 51.2294 175.545 50.8987 175.609 50.5467C175.769 49.64 176.094 48.8454 176.585 48.1627C177.075 47.48 177.678 46.9574 178.393 46.5947C179.118 46.2214 179.902 46.0347 180.745 46.0347ZM182.761 50.0027C182.793 49.7894 182.809 49.592 182.809 49.4107C182.809 48.728 182.59 48.2 182.153 47.8267C181.726 47.4534 181.166 47.2667 180.473 47.2667C179.726 47.2667 179.049 47.512 178.441 48.0027C177.833 48.4827 177.422 49.1494 177.209 50.0027H182.761ZM188.027 47.8427C188.379 47.2667 188.821 46.8187 189.355 46.4987C189.888 46.1787 190.496 46.0187 191.179 46.0187L190.907 47.5227H190.523C189.765 47.5227 189.131 47.7254 188.619 48.1307C188.117 48.536 187.781 49.2187 187.611 50.1787L186.763 54.9467H185.307L186.859 46.1787H188.315L188.027 47.8427ZM193.483 52.5467C193.451 52.7067 193.435 52.8454 193.435 52.9627C193.435 53.2294 193.515 53.4214 193.675 53.5387C193.846 53.656 194.118 53.7147 194.491 53.7147H195.563L195.339 54.9467H194.027C193.334 54.9467 192.811 54.8134 192.459 54.5467C192.118 54.28 191.947 53.8427 191.947 53.2347C191.947 53 191.969 52.7707 192.011 52.5467L192.923 47.3787H191.803L192.011 46.1787H193.147L193.531 43.9707H195.003L194.619 46.1787H196.891L196.683 47.3787H194.395L193.483 52.5467ZM199.648 44.7547C199.413 44.7547 199.216 44.68 199.056 44.5307C198.906 44.3707 198.832 44.1734 198.832 43.9387C198.832 43.6187 198.949 43.3467 199.184 43.1227C199.418 42.888 199.69 42.7707 200 42.7707C200.245 42.7707 200.442 42.8454 200.592 42.9947C200.741 43.144 200.816 43.3414 200.816 43.5867C200.816 43.9067 200.698 44.184 200.464 44.4187C200.229 44.6427 199.957 44.7547 199.648 44.7547ZM200.112 46.1787L198.56 54.9467H197.104L198.656 46.1787H200.112ZM206.465 43.9387C205.814 43.9387 205.334 44.0667 205.025 44.3227C204.726 44.568 204.529 44.9787 204.433 45.5547L204.321 46.1787H206.161L205.953 47.3787H204.113L202.769 54.9467H201.313L202.641 47.3787H201.521L201.729 46.1787H202.849L202.961 45.5547C203.142 44.5734 203.526 43.8587 204.113 43.4107C204.7 42.952 205.553 42.7227 206.673 42.7227L206.465 43.9387ZM208.851 44.7547C208.616 44.7547 208.419 44.68 208.259 44.5307C208.109 44.3707 208.035 44.1734 208.035 43.9387C208.035 43.6187 208.152 43.3467 208.387 43.1227C208.621 42.888 208.893 42.7707 209.203 42.7707C209.448 42.7707 209.645 42.8454 209.795 42.9947C209.944 43.144 210.019 43.3414 210.019 43.5867C210.019 43.9067 209.901 44.184 209.667 44.4187C209.432 44.6427 209.16 44.7547 208.851 44.7547ZM209.315 46.1787L207.763 54.9467H206.307L207.859 46.1787H209.315ZM215.604 46.0347C216.34 46.0347 216.975 46.1787 217.508 46.4667C218.052 46.744 218.463 47.1387 218.74 47.6507C219.028 48.152 219.172 48.728 219.172 49.3787C219.172 49.6027 219.145 49.8747 219.092 50.1947C219.049 50.472 218.98 50.76 218.884 51.0587H211.876C211.855 51.272 211.844 51.4267 211.844 51.5227C211.844 52.2587 212.063 52.8347 212.5 53.2507C212.948 53.656 213.529 53.8587 214.244 53.8587C214.873 53.8587 215.423 53.7147 215.892 53.4267C216.372 53.128 216.735 52.7334 216.98 52.2427H218.548C218.164 53.0854 217.572 53.7734 216.772 54.3067C215.983 54.8294 215.065 55.0907 214.02 55.0907C212.921 55.0907 212.036 54.776 211.364 54.1467C210.703 53.5067 210.372 52.6374 210.372 51.5387C210.372 51.2294 210.404 50.8987 210.468 50.5467C210.628 49.64 210.953 48.8454 211.444 48.1627C211.935 47.48 212.537 46.9574 213.252 46.5947C213.977 46.2214 214.761 46.0347 215.604 46.0347ZM217.62 50.0027C217.652 49.7894 217.668 49.592 217.668 49.4107C217.668 48.728 217.449 48.2 217.012 47.8267C216.585 47.4534 216.025 47.2667 215.332 47.2667C214.585 47.2667 213.908 47.512 213.3 48.0027C212.692 48.4827 212.281 49.1494 212.068 50.0027H217.62ZM217.54 43.6987L213.796 45.5227L213.988 44.4347L217.764 42.4347L217.54 43.6987ZM223.254 55.0907C222.337 55.0907 221.585 54.872 220.998 54.4347C220.411 53.9974 220.118 53.4107 220.118 52.6747C220.118 52.536 220.123 52.4347 220.134 52.3707H221.558C221.515 52.8294 221.649 53.2027 221.958 53.4907C222.278 53.7787 222.737 53.9227 223.334 53.9227C223.931 53.9227 224.411 53.8107 224.774 53.5867C225.147 53.352 225.334 53.0267 225.334 52.6107C225.334 52.2587 225.185 51.9814 224.886 51.7787C224.587 51.576 224.129 51.3574 223.51 51.1227C222.966 50.92 222.518 50.728 222.166 50.5467C221.814 50.3654 221.515 50.1147 221.27 49.7947C221.025 49.464 220.902 49.048 220.902 48.5467C220.902 48.056 221.041 47.6187 221.318 47.2347C221.606 46.8507 222.001 46.5574 222.502 46.3547C223.014 46.1414 223.595 46.0347 224.246 46.0347C225.142 46.0347 225.878 46.2587 226.454 46.7067C227.03 47.1547 227.318 47.7414 227.318 48.4667C227.318 48.6054 227.313 48.712 227.302 48.7867H225.91L225.926 48.5947C225.926 48.168 225.761 47.832 225.43 47.5867C225.11 47.3307 224.683 47.2027 224.15 47.2027C223.627 47.2027 223.195 47.32 222.854 47.5547C222.523 47.7894 222.358 48.104 222.358 48.4987C222.358 48.872 222.513 49.1654 222.822 49.3787C223.131 49.592 223.611 49.8267 224.262 50.0827C224.806 50.296 225.243 50.4934 225.574 50.6747C225.905 50.8454 226.187 51.0854 226.422 51.3947C226.657 51.704 226.774 52.0934 226.774 52.5627C226.774 53.0747 226.619 53.5227 226.31 53.9067C226.011 54.2907 225.595 54.584 225.062 54.7867C224.529 54.9894 223.926 55.0907 223.254 55.0907ZM238.859 43.7947C239.968 43.7947 240.806 44.0347 241.371 44.5147C241.936 44.9947 242.219 45.6347 242.219 46.4347C242.219 46.5627 242.198 46.776 242.155 47.0747C242.016 47.8427 241.675 48.52 241.131 49.1067C240.587 49.6934 239.856 50.0827 238.939 50.2747L240.907 54.9467H239.163L237.307 50.3867H235.563L234.747 54.9467H233.291L235.275 43.7947H238.859ZM240.651 47.0747C240.683 46.8827 240.699 46.7067 240.699 46.5467C240.699 46.0347 240.528 45.64 240.187 45.3627C239.856 45.0854 239.344 44.9467 238.651 44.9467H236.523L235.771 49.2187H237.915C238.704 49.2187 239.328 49.0267 239.787 48.6427C240.246 48.248 240.534 47.7254 240.651 47.0747ZM243.473 49.3627C243.665 48.2747 244.081 47.2987 244.721 46.4347C245.372 45.56 246.167 44.8827 247.105 44.4027C248.044 43.912 249.031 43.6667 250.065 43.6667C251.26 43.6667 252.257 43.96 253.057 44.5467C253.868 45.1334 254.391 45.96 254.625 47.0267H252.881C252.689 46.376 252.327 45.8747 251.793 45.5227C251.271 45.16 250.62 44.9787 249.841 44.9787C249.063 44.9787 248.327 45.16 247.633 45.5227C246.951 45.8747 246.375 46.3867 245.905 47.0587C245.436 47.72 245.121 48.488 244.961 49.3627C244.908 49.64 244.881 49.96 244.881 50.3227C244.881 51.368 245.191 52.2 245.809 52.8187C246.428 53.4267 247.255 53.7307 248.289 53.7307C249.388 53.7307 250.348 53.4054 251.169 52.7547C251.991 52.0934 252.556 51.2027 252.865 50.0827H248.417L248.625 48.9307H254.625L254.417 50.0507C254.172 50.968 253.735 51.8107 253.105 52.5787C252.487 53.336 251.735 53.9387 250.849 54.3867C249.975 54.824 249.047 55.0427 248.065 55.0427C247.148 55.0427 246.332 54.856 245.617 54.4827C244.913 54.0987 244.364 53.56 243.969 52.8667C243.575 52.1734 243.377 51.3787 243.377 50.4827C243.377 50.12 243.409 49.7467 243.473 49.3627ZM258.711 44.9307L258.039 48.7547H262.087L261.895 49.8747H257.847L257.143 53.7947H261.687L261.479 54.9467H255.479L257.463 43.7787H263.447L263.239 44.9307H258.711Z" fill="#192A68"/>
<path d="M42.075 28.4251H49.5L24.75 3.94669L0 28.4251H7.425L24.75 11.263L42.075 28.4251ZM12.375 8.86957V3.94669H4.95V16.1859L12.375 8.86957Z" fill="#192A68"/>
<path d="M25 28C17.3 28 11 34.075 11 41.5C11 48.925 17.3 55 25 55C32.7 55 39 48.925 39 41.5C39 34.075 32.7 28 25 28ZM25 52.3C18.826 52.3 13.8 47.4535 13.8 41.5C13.8 35.5465 18.826 30.7 25 30.7C31.174 30.7 36.2 35.5465 36.2 41.5C36.2 47.4535 31.174 52.3 25 52.3ZM31.426 35.533L22.2 44.4295L18.574 40.9465L16.6 42.85L22.2 48.25L33.4 37.45L31.426 35.533Z" fill="#217BF4"/>
</svg>
