<?xml version="1.0" encoding="UTF-8"?>
<svg xmlns="http://www.w3.org/2000/svg" xmlns:xlink="http://www.w3.org/1999/xlink" width="95px" height="115px" viewBox="0 0 95 115" version="1.1">
<g id="surface1">
<path style=" stroke:none;fill-rule:evenodd;fill:rgb(98.431373%,98.431373%,98.431373%);fill-opacity:1;" d="M 35.308594 0.175781 C 34.925781 0.269531 34.476562 0.382812 34.3125 0.429688 C 34.046875 0.503906 33.050781 0.714844 31.230469 1.082031 C 30.960938 1.136719 30.480469 1.226562 30.167969 1.28125 C 29.480469 1.40625 29.042969 1.5625 28.6875 1.804688 C 28.359375 2.027344 28.1875 2.21875 28.015625 2.5625 C 27.945312 2.707031 27.882812 2.832031 27.878906 2.839844 C 27.875 2.847656 27.769531 2.761719 27.644531 2.648438 C 27.242188 2.28125 26.734375 2.085938 26.191406 2.085938 C 25.863281 2.085938 24.480469 2.335938 23.613281 2.554688 C 21.929688 2.972656 20.402344 3.671875 19.460938 4.457031 C 18.621094 5.15625 17.710938 6.449219 17.394531 7.398438 C 17.316406 7.628906 17.246094 7.820312 17.242188 7.820312 C 17.234375 7.820312 17.113281 7.667969 16.972656 7.476562 C 16.644531 7.039062 16.019531 6.4375 15.636719 6.183594 C 14.765625 5.613281 13.785156 5.332031 12.660156 5.332031 C 11.890625 5.332031 11.320312 5.425781 9.839844 5.792969 C 9.097656 5.976562 8.046875 6.222656 7.5 6.339844 C 6.957031 6.453125 6.398438 6.59375 6.257812 6.652344 C 5.226562 7.070312 4.617188 8 4.683594 9.046875 C 4.699219 9.253906 4.777344 9.652344 4.890625 10.09375 C 4.992188 10.484375 5.167969 11.273438 5.285156 11.851562 C 5.402344 12.425781 5.59375 13.289062 5.714844 13.769531 C 5.941406 14.675781 6.054688 15.191406 6.371094 16.769531 C 6.476562 17.292969 6.722656 18.339844 6.921875 19.101562 C 7.265625 20.429688 7.484375 21.457031 7.617188 22.378906 C 7.703125 22.941406 7.738281 23.070312 7.90625 23.40625 C 8.1875 23.960938 8.796875 24.421875 9.398438 24.53125 C 9.878906 24.617188 10.121094 24.582031 11.222656 24.257812 C 11.527344 24.167969 12.085938 24.042969 12.464844 23.976562 C 13.4375 23.8125 13.84375 23.605469 14.191406 23.085938 C 14.277344 22.957031 14.359375 22.839844 14.371094 22.820312 C 14.386719 22.804688 14.484375 22.84375 14.585938 22.910156 C 14.914062 23.117188 15.25 23.207031 15.675781 23.203125 C 16.003906 23.203125 16.15625 23.171875 16.882812 22.976562 C 17.339844 22.855469 17.902344 22.71875 18.128906 22.671875 C 18.359375 22.628906 18.71875 22.558594 18.929688 22.519531 C 19.675781 22.375 20.203125 21.996094 20.492188 21.386719 C 20.625 21.109375 20.640625 21.039062 20.65625 20.695312 C 20.671875 20.296875 20.617188 20.007812 20.460938 19.703125 C 20.371094 19.53125 20.410156 19.511719 20.546875 19.65625 C 20.730469 19.855469 21.339844 20.316406 21.644531 20.488281 C 22.535156 20.996094 23.78125 21.242188 25.234375 21.203125 C 25.933594 21.183594 26.046875 21.167969 26.855469 21 C 28.824219 20.589844 29.945312 20.214844 30.671875 19.722656 C 30.882812 19.578125 31.292969 19.179688 31.382812 19.03125 C 31.417969 18.972656 31.457031 18.921875 31.472656 18.921875 C 31.488281 18.921875 31.597656 18.984375 31.710938 19.0625 C 32.042969 19.28125 32.464844 19.398438 32.925781 19.398438 C 33.265625 19.398438 33.441406 19.367188 34.4375 19.125 C 35.058594 18.972656 35.71875 18.820312 35.902344 18.785156 C 36.085938 18.75 36.445312 18.667969 36.695312 18.605469 C 36.945312 18.546875 37.40625 18.449219 37.722656 18.390625 C 38.039062 18.332031 38.476562 18.242188 38.691406 18.1875 C 38.910156 18.132812 39.289062 18.054688 39.535156 18.011719 C 40.105469 17.914062 40.371094 17.820312 40.703125 17.59375 C 41.335938 17.164062 41.65625 16.535156 41.65625 15.722656 C 41.65625 15.371094 41.636719 15.226562 41.511719 14.75 C 41.433594 14.445312 41.339844 14.019531 41.304688 13.804688 C 41.214844 13.230469 41.136719 12.972656 40.976562 12.660156 C 40.695312 12.128906 40.101562 11.679688 39.523438 11.566406 C 39.394531 11.539062 39.28125 11.515625 39.273438 11.511719 C 39.265625 11.507812 39.339844 11.40625 39.4375 11.285156 C 39.953125 10.65625 40.070312 9.824219 39.785156 8.847656 C 39.71875 8.621094 39.617188 8.175781 39.5625 7.863281 C 39.410156 7.035156 39.25 6.648438 38.882812 6.242188 C 38.785156 6.132812 38.601562 5.980469 38.472656 5.902344 C 38.214844 5.742188 38.21875 5.773438 38.429688 5.511719 C 38.59375 5.308594 38.78125 4.867188 38.832031 4.570312 C 38.894531 4.207031 38.863281 3.835938 38.734375 3.320312 C 38.675781 3.089844 38.578125 2.601562 38.515625 2.230469 C 38.355469 1.277344 38.210938 0.953125 37.753906 0.535156 C 37.136719 -0.0390625 36.539062 -0.125 35.308594 0.175781 M 35.792969 1.519531 C 35.699219 1.550781 35.601562 1.589844 35.574219 1.609375 C 35.546875 1.632812 35.429688 1.671875 35.308594 1.699219 C 35.1875 1.726562 34.867188 1.808594 34.597656 1.882812 C 34.324219 1.957031 33.878906 2.054688 33.605469 2.097656 C 33.335938 2.140625 32.96875 2.210938 32.792969 2.25 C 32.222656 2.382812 32.054688 2.410156 32.019531 2.386719 C 32 2.375 31.984375 2.378906 31.984375 2.398438 C 31.984375 2.433594 31.472656 2.546875 31.113281 2.589844 C 30.742188 2.632812 29.929688 2.804688 29.714844 2.886719 C 29.519531 2.957031 29.371094 3.09375 29.257812 3.304688 C 29.1875 3.4375 29.164062 3.792969 29.210938 4.011719 C 29.253906 4.207031 29.339844 4.640625 29.390625 4.898438 C 29.425781 5.09375 29.523438 5.480469 29.589844 5.675781 C 29.65625 5.871094 29.894531 7.023438 30.027344 7.78125 C 30.195312 8.753906 30.375 9.527344 30.609375 10.28125 C 30.671875 10.496094 30.730469 10.753906 30.738281 10.855469 C 30.742188 10.957031 30.800781 11.273438 30.867188 11.554688 C 30.933594 11.835938 31.007812 12.210938 31.035156 12.386719 C 31.058594 12.558594 31.109375 12.761719 31.140625 12.839844 C 31.171875 12.914062 31.214844 13.085938 31.234375 13.214844 C 31.25 13.34375 31.304688 13.621094 31.351562 13.828125 C 31.421875 14.144531 31.519531 14.644531 31.613281 15.199219 C 31.628906 15.269531 31.652344 15.316406 31.667969 15.308594 C 31.707031 15.285156 31.746094 15.429688 31.746094 15.59375 C 31.746094 15.660156 31.800781 15.9375 31.863281 16.203125 C 31.929688 16.46875 31.984375 16.742188 31.984375 16.808594 C 31.984375 16.875 32 16.992188 32.019531 17.066406 C 32.039062 17.140625 32.066406 17.273438 32.082031 17.355469 C 32.097656 17.460938 32.164062 17.5625 32.304688 17.707031 C 32.628906 18.039062 32.796875 18.050781 33.746094 17.820312 C 33.917969 17.777344 34.265625 17.695312 34.515625 17.636719 C 34.765625 17.582031 35.039062 17.507812 35.121094 17.476562 C 35.207031 17.445312 35.289062 17.429688 35.304688 17.441406 C 35.355469 17.46875 36.070312 17.320312 36.613281 17.164062 C 36.886719 17.089844 37.269531 17.007812 37.464844 16.984375 C 37.660156 16.964844 38.007812 16.894531 38.238281 16.832031 C 38.464844 16.769531 38.867188 16.679688 39.128906 16.632812 C 39.894531 16.492188 40.113281 16.355469 40.222656 15.949219 C 40.28125 15.734375 40.253906 15.5625 40.015625 14.589844 C 39.929688 14.238281 39.859375 13.855469 39.859375 13.738281 C 39.859375 13.566406 39.835938 13.488281 39.71875 13.300781 C 39.472656 12.910156 39.132812 12.808594 38.628906 12.972656 C 38.097656 13.148438 37.554688 13.269531 37.207031 13.292969 C 37.023438 13.304688 36.664062 13.351562 36.414062 13.398438 C 35.632812 13.535156 35.503906 13.449219 35.285156 12.621094 C 35.066406 11.785156 35.066406 11.546875 35.300781 11.328125 C 35.519531 11.117188 35.757812 11.042969 36.832031 10.859375 C 37.980469 10.664062 38.136719 10.613281 38.34375 10.378906 C 38.597656 10.089844 38.605469 9.6875 38.371094 9.027344 C 38.316406 8.875 38.261719 8.679688 38.253906 8.59375 C 38.171875 7.878906 38.039062 7.394531 37.875 7.210938 C 37.652344 6.953125 37.398438 6.945312 36.574219 7.171875 C 36.367188 7.226562 35.992188 7.308594 35.742188 7.351562 C 35.492188 7.398438 35.207031 7.449219 35.101562 7.46875 C 35 7.484375 34.882812 7.519531 34.839844 7.542969 C 34.652344 7.640625 34.3125 7.527344 34.179688 7.320312 C 34.140625 7.257812 34.078125 7.179688 34.035156 7.140625 C 33.996094 7.101562 33.960938 7.03125 33.960938 6.988281 C 33.960938 6.945312 33.925781 6.730469 33.878906 6.511719 C 33.789062 6.070312 33.800781 5.890625 33.933594 5.765625 C 34.136719 5.578125 34.371094 5.492188 35.125 5.335938 C 36.125 5.128906 36.78125 4.960938 36.996094 4.855469 C 37.433594 4.644531 37.496094 4.316406 37.273438 3.394531 C 37.195312 3.082031 37.113281 2.652344 37.085938 2.449219 C 37.03125 2 36.929688 1.738281 36.746094 1.578125 C 36.621094 1.46875 36.59375 1.460938 36.285156 1.464844 C 36.109375 1.464844 35.886719 1.492188 35.792969 1.519531 M 25.570312 3.574219 C 25.472656 3.605469 25.15625 3.671875 24.871094 3.71875 C 24.582031 3.765625 24.355469 3.820312 24.367188 3.835938 C 24.375 3.851562 24.253906 3.886719 24.097656 3.910156 C 23.710938 3.972656 23.363281 4.078125 22.699219 4.335938 C 22.394531 4.453125 22.078125 4.574219 21.996094 4.605469 C 21.464844 4.804688 20.941406 5.125 20.375 5.589844 C 19.746094 6.105469 18.996094 7.167969 18.738281 7.902344 C 18.640625 8.1875 18.609375 8.304688 18.503906 8.828125 C 18.472656 8.980469 18.421875 9.238281 18.386719 9.402344 C 18.195312 10.28125 18.410156 12.453125 18.839844 14.035156 C 18.945312 14.433594 19.082031 14.882812 19.140625 15.03125 C 19.195312 15.183594 19.296875 15.449219 19.363281 15.625 C 19.429688 15.796875 19.484375 15.960938 19.484375 15.988281 C 19.488281 16.015625 19.503906 16.039062 19.519531 16.039062 C 19.539062 16.039062 19.554688 16.058594 19.554688 16.082031 C 19.554688 16.15625 19.949219 16.910156 20.105469 17.136719 C 20.3125 17.433594 20.816406 17.992188 21.136719 18.273438 C 21.277344 18.398438 21.523438 18.617188 21.683594 18.761719 C 21.960938 19.015625 22.410156 19.316406 22.503906 19.316406 C 22.53125 19.316406 22.632812 19.359375 22.730469 19.414062 C 22.953125 19.53125 23.421875 19.652344 23.886719 19.714844 C 24.449219 19.789062 25.609375 19.785156 25.988281 19.707031 C 26.160156 19.671875 26.429688 19.617188 26.582031 19.59375 C 26.734375 19.566406 27.027344 19.507812 27.234375 19.464844 C 27.441406 19.425781 27.703125 19.375 27.816406 19.355469 C 28.148438 19.296875 29.472656 18.820312 29.65625 18.695312 C 29.75 18.628906 29.90625 18.503906 30.003906 18.414062 C 30.101562 18.324219 30.195312 18.25 30.207031 18.25 C 30.222656 18.25 30.273438 18.175781 30.316406 18.082031 C 30.421875 17.863281 30.425781 17.589844 30.324219 17.191406 C 30.28125 17.023438 30.234375 16.800781 30.222656 16.691406 C 30.171875 16.316406 30.085938 15.878906 30.042969 15.800781 C 30.019531 15.753906 29.992188 15.621094 29.984375 15.5 C 29.964844 15.285156 29.929688 15.132812 29.742188 14.539062 C 29.636719 14.191406 29.507812 13.625 29.46875 13.304688 C 29.453125 13.179688 29.421875 13.078125 29.402344 13.078125 C 29.378906 13.078125 29.375 13.046875 29.386719 13.011719 C 29.402344 12.972656 29.394531 12.933594 29.371094 12.917969 C 29.347656 12.902344 29.328125 12.8125 29.328125 12.71875 C 29.328125 12.621094 29.257812 12.25 29.171875 11.890625 C 29.085938 11.53125 28.988281 11.089844 28.953125 10.902344 C 28.917969 10.71875 28.851562 10.4375 28.8125 10.28125 C 28.769531 10.121094 28.738281 9.945312 28.738281 9.886719 C 28.738281 9.742188 28.574219 9.40625 28.457031 9.296875 C 28.304688 9.160156 28.050781 9.046875 27.84375 9.023438 C 27.691406 9.003906 27.542969 9.03125 27.175781 9.140625 C 26.914062 9.214844 26.582031 9.304688 26.441406 9.339844 C 26.300781 9.375 26.09375 9.429688 25.988281 9.460938 C 25.878906 9.492188 25.636719 9.535156 25.453125 9.5625 C 24.984375 9.625 24.347656 9.773438 24.203125 9.847656 C 24.042969 9.9375 23.9375 10.027344 23.816406 10.199219 C 23.65625 10.410156 23.65625 10.839844 23.824219 11.496094 C 23.890625 11.769531 23.964844 12.117188 23.988281 12.277344 C 24.082031 12.96875 24.179688 13.203125 24.4375 13.363281 C 24.636719 13.488281 24.765625 13.496094 25.03125 13.40625 C 25.261719 13.328125 25.539062 13.351562 25.683594 13.460938 C 25.875 13.605469 25.929688 13.726562 26.007812 14.164062 C 26.046875 14.402344 26.117188 14.699219 26.164062 14.828125 C 26.332031 15.300781 26.296875 15.613281 26.054688 15.738281 C 25.878906 15.828125 25.433594 15.894531 25.117188 15.871094 C 24.789062 15.851562 24.578125 15.746094 24.316406 15.476562 C 24.125 15.28125 23.394531 14.257812 23.269531 14.015625 C 23.105469 13.691406 22.996094 13.285156 22.839844 12.445312 C 22.710938 11.738281 22.679688 11.441406 22.644531 10.703125 C 22.597656 9.761719 22.609375 9.621094 22.765625 9.144531 C 22.835938 8.921875 22.894531 8.828125 23.132812 8.582031 C 23.355469 8.347656 23.480469 8.25 23.730469 8.132812 C 24.082031 7.960938 24.558594 7.804688 24.917969 7.746094 C 25.046875 7.722656 25.261719 7.6875 25.394531 7.664062 C 25.722656 7.609375 25.9375 7.613281 26.214844 7.6875 C 26.457031 7.75 26.667969 7.730469 26.96875 7.617188 C 27.128906 7.554688 27.421875 7.210938 27.472656 7.023438 C 27.527344 6.824219 27.464844 6.449219 27.195312 5.390625 C 27.089844 4.980469 26.984375 4.515625 26.957031 4.363281 C 26.90625 4.046875 26.734375 3.710938 26.574219 3.605469 C 26.433594 3.515625 25.820312 3.496094 25.570312 3.574219 M 12.132812 6.800781 C 11.828125 6.820312 11.496094 6.863281 11.398438 6.898438 C 11.300781 6.929688 10.792969 7.066406 10.273438 7.195312 C 9.75 7.324219 9.136719 7.472656 8.90625 7.53125 C 8.480469 7.636719 8.117188 7.710938 7.976562 7.71875 C 7.933594 7.722656 7.886719 7.734375 7.878906 7.746094 C 7.867188 7.757812 7.621094 7.816406 7.328125 7.871094 C 6.886719 7.957031 6.765625 7.996094 6.589844 8.113281 C 6.210938 8.363281 6.078125 8.71875 6.171875 9.214844 C 6.242188 9.59375 6.378906 10.128906 6.417969 10.175781 C 6.433594 10.199219 6.476562 10.394531 6.507812 10.609375 C 6.542969 10.824219 6.613281 11.179688 6.667969 11.398438 C 6.722656 11.613281 6.804688 11.988281 6.847656 12.226562 C 6.890625 12.464844 6.957031 12.75 6.988281 12.859375 C 7.023438 12.96875 7.082031 13.234375 7.125 13.453125 C 7.167969 13.667969 7.230469 13.960938 7.261719 14.101562 C 7.433594 14.832031 7.523438 15.257812 7.558594 15.503906 C 7.578125 15.65625 7.632812 15.886719 7.679688 16.015625 C 7.722656 16.144531 7.757812 16.316406 7.757812 16.398438 C 7.757812 16.566406 7.8125 16.847656 7.914062 17.222656 C 7.953125 17.367188 8.007812 17.625 8.035156 17.796875 C 8.058594 17.972656 8.117188 18.191406 8.15625 18.285156 C 8.199219 18.382812 8.234375 18.515625 8.234375 18.582031 C 8.234375 18.648438 8.257812 18.785156 8.292969 18.882812 C 8.492188 19.476562 8.558594 19.714844 8.613281 20.039062 C 8.644531 20.242188 8.699219 20.472656 8.730469 20.554688 C 8.761719 20.636719 8.789062 20.773438 8.789062 20.859375 C 8.789062 20.945312 8.832031 21.226562 8.882812 21.480469 C 8.933594 21.734375 8.996094 22.070312 9.023438 22.222656 C 9.050781 22.375 9.078125 22.546875 9.089844 22.605469 C 9.101562 22.664062 9.191406 22.800781 9.285156 22.910156 C 9.546875 23.195312 9.65625 23.203125 10.421875 22.996094 C 11.601562 22.675781 11.882812 22.613281 12.289062 22.578125 C 12.847656 22.527344 13.101562 22.351562 13.101562 22.011719 C 13.101562 21.910156 13.074219 21.730469 13.039062 21.609375 C 13.003906 21.488281 12.953125 21.265625 12.925781 21.113281 C 12.898438 20.960938 12.839844 20.703125 12.792969 20.542969 C 12.75 20.378906 12.691406 20.132812 12.667969 19.996094 C 12.644531 19.859375 12.570312 19.578125 12.507812 19.371094 C 12.363281 18.910156 12.351562 18.613281 12.472656 18.503906 C 12.554688 18.433594 12.558594 18.433594 12.699219 18.511719 C 12.78125 18.558594 12.964844 18.753906 13.113281 18.945312 C 13.261719 19.136719 13.441406 19.359375 13.515625 19.441406 C 13.589844 19.519531 13.695312 19.671875 13.757812 19.777344 C 13.816406 19.882812 13.925781 20.03125 13.996094 20.109375 C 14.167969 20.292969 14.789062 21.082031 14.972656 21.351562 C 15.300781 21.828125 15.554688 21.894531 16.289062 21.695312 C 16.53125 21.632812 16.777344 21.566406 17.019531 21.496094 C 17.183594 21.453125 17.601562 21.363281 17.949219 21.296875 C 18.804688 21.136719 18.988281 21.078125 19.152344 20.914062 C 19.277344 20.785156 19.285156 20.765625 19.269531 20.5625 C 19.246094 20.269531 19.101562 20.058594 18.386719 19.246094 C 18.101562 18.929688 17.9375 18.710938 17.695312 18.355469 C 17.476562 18.027344 16.601562 16.988281 16.546875 16.988281 C 16.496094 16.988281 16.191406 16.457031 16.191406 16.363281 C 16.191406 16.320312 16.289062 16.136719 16.414062 15.957031 C 16.601562 15.679688 16.761719 15.375 16.902344 15.03125 C 16.96875 14.863281 17.109375 14.332031 17.144531 14.09375 C 17.296875 13.109375 17.296875 13.074219 17.257812 12.53125 C 17.238281 12.238281 17.207031 11.984375 17.1875 11.972656 C 17.167969 11.960938 17.132812 11.800781 17.109375 11.613281 C 17.085938 11.429688 17.011719 11.101562 16.941406 10.882812 C 16.875 10.667969 16.78125 10.363281 16.738281 10.210938 C 16.5625 9.621094 16.453125 9.351562 16.21875 8.960938 C 15.707031 8.089844 15.191406 7.5625 14.472656 7.167969 C 14.171875 7.003906 14.097656 6.980469 13.484375 6.851562 C 12.980469 6.75 12.976562 6.75 12.132812 6.800781 M 11.34375 10.695312 C 11.242188 10.722656 11 10.875 10.917969 10.96875 C 10.882812 11.007812 10.832031 11.09375 10.804688 11.160156 C 10.742188 11.324219 10.753906 11.847656 10.820312 11.929688 C 10.851562 11.960938 10.867188 12.007812 10.859375 12.03125 C 10.851562 12.050781 10.890625 12.273438 10.949219 12.523438 C 11.003906 12.773438 11.054688 13.003906 11.058594 13.035156 C 11.117188 13.332031 11.140625 13.421875 11.175781 13.492188 C 11.199219 13.535156 11.222656 13.605469 11.230469 13.648438 C 11.246094 13.75 11.488281 13.960938 11.710938 14.066406 C 11.875 14.144531 12.140625 14.160156 12.269531 14.101562 C 12.304688 14.085938 12.375 14.050781 12.429688 14.027344 C 12.738281 13.886719 12.835938 13.765625 12.917969 13.425781 C 12.972656 13.1875 12.96875 12.757812 12.902344 12.464844 C 12.878906 12.355469 12.851562 12.222656 12.847656 12.167969 C 12.820312 11.921875 12.765625 11.738281 12.652344 11.515625 C 12.585938 11.386719 12.515625 11.273438 12.5 11.265625 C 12.484375 11.257812 12.46875 11.234375 12.46875 11.210938 C 12.46875 11.179688 12.273438 10.984375 12.058594 10.800781 C 11.953125 10.710938 11.53125 10.648438 11.34375 10.695312 M 29.238281 45.890625 C 19.734375 57.578125 11.96875 67.148438 11.984375 67.160156 C 12 67.175781 19.773438 70.007812 29.261719 73.457031 L 46.507812 79.726562 L 64.726562 73.769531 C 74.75 70.496094 82.960938 67.804688 82.976562 67.792969 C 83 67.773438 46.898438 25.039062 46.570312 24.699219 C 46.53125 24.65625 43.25 28.671875 29.238281 45.890625 M 11.164062 86.460938 C 11.109375 86.46875 10.894531 86.507812 10.6875 86.542969 C 9.972656 86.664062 9.160156 86.996094 8.515625 87.433594 C 8.105469 87.714844 7.472656 88.355469 7.179688 88.789062 C 5.820312 90.789062 5.644531 93.722656 6.746094 95.914062 C 7.40625 97.226562 8.464844 98.152344 9.863281 98.640625 C 11.332031 99.152344 13.503906 99.023438 14.691406 98.359375 L 14.839844 98.277344 L 15.011719 98.429688 C 15.109375 98.515625 15.484375 98.851562 15.847656 99.179688 C 16.210938 99.503906 16.523438 99.769531 16.539062 99.769531 C 16.582031 99.769531 17.734375 98.578125 17.734375 98.53125 C 17.734375 98.511719 17.40625 98.195312 17.007812 97.835938 L 16.277344 97.175781 L 16.527344 96.847656 C 17.296875 95.832031 17.710938 94.679688 17.808594 93.304688 C 17.984375 90.800781 17.019531 88.554688 15.265625 87.382812 C 14.652344 86.96875 14.039062 86.714844 13.269531 86.550781 C 12.964844 86.484375 12.714844 86.464844 12.074219 86.457031 C 11.625 86.449219 11.21875 86.453125 11.164062 86.460938 M 35.136719 86.761719 C 33.667969 89.882812 32.609375 92.574219 31.53125 95.957031 C 31.234375 96.890625 30.824219 98.199219 30.691406 98.65625 C 30.671875 98.71875 30.753906 98.722656 32.019531 98.722656 C 32.757812 98.722656 33.371094 98.710938 33.382812 98.691406 C 33.394531 98.675781 33.609375 97.976562 33.863281 97.140625 C 34.113281 96.304688 34.335938 95.582031 34.359375 95.535156 L 34.394531 95.445312 L 38.554688 95.445312 L 38.59375 95.535156 C 38.625 95.609375 39.203125 97.472656 39.476562 98.386719 L 39.570312 98.703125 L 40.925781 98.714844 C 42.203125 98.722656 42.28125 98.722656 42.261719 98.65625 C 41.730469 96.835938 40.738281 93.835938 40.117188 92.183594 C 39.449219 90.398438 38.453125 88.066406 37.800781 86.742188 L 37.707031 86.554688 L 35.234375 86.554688 L 35.136719 86.761719 M 73.171875 87.316406 C 71.613281 90.671875 70.648438 93.265625 69.097656 98.28125 L 68.960938 98.722656 L 71.671875 98.722656 L 71.71875 98.574219 C 71.746094 98.496094 71.910156 97.957031 72.085938 97.378906 C 72.261719 96.804688 72.464844 96.132812 72.539062 95.890625 L 72.675781 95.445312 L 76.867188 95.445312 L 77.007812 95.890625 C 77.082031 96.132812 77.308594 96.871094 77.511719 97.527344 L 77.875 98.722656 L 80.582031 98.722656 L 80.433594 98.238281 C 80.347656 97.972656 80.121094 97.242188 79.921875 96.609375 C 78.792969 92.996094 77.734375 90.242188 76.234375 87.023438 L 76.019531 86.558594 L 73.527344 86.558594 L 73.171875 87.316406 M 19.605469 90.929688 C 19.617188 95.066406 19.617188 95.15625 19.703125 95.515625 C 19.925781 96.484375 20.222656 97.078125 20.769531 97.632812 C 21.683594 98.554688 23.148438 99.011719 24.976562 98.949219 C 26.378906 98.898438 27.371094 98.601562 28.230469 97.96875 C 28.519531 97.753906 28.863281 97.402344 29.058594 97.121094 C 29.261719 96.824219 29.527344 96.222656 29.628906 95.828125 C 29.820312 95.074219 29.816406 95.09375 29.835938 90.792969 L 29.851562 86.714844 L 27.195312 86.714844 L 27.195312 90.554688 C 27.191406 92.800781 27.175781 94.539062 27.15625 94.734375 C 27.015625 95.925781 26.558594 96.484375 25.5625 96.6875 C 25.167969 96.765625 24.265625 96.769531 23.886719 96.6875 C 23.277344 96.558594 22.753906 96.175781 22.5 95.667969 C 22.246094 95.152344 22.25 95.195312 22.246094 90.734375 L 22.246094 86.714844 L 19.589844 86.714844 L 19.605469 90.929688 M 43.9375 92.699219 L 43.9375 98.683594 L 51.496094 98.683594 L 51.496094 96.472656 L 46.550781 96.472656 L 46.550781 86.714844 L 43.9375 86.714844 L 43.9375 92.699219 M 53.4375 92.699219 L 53.4375 98.683594 L 56.089844 98.683594 L 56.089844 86.714844 L 53.4375 86.714844 L 53.4375 92.699219 M 58.542969 92.695312 L 58.542969 98.683594 L 61.585938 98.683594 C 64.421875 98.683594 64.664062 98.679688 65.082031 98.609375 C 66.824219 98.308594 67.878906 97.449219 68.230469 96.039062 C 68.332031 95.640625 68.316406 94.695312 68.207031 94.28125 C 68.0625 93.742188 67.832031 93.335938 67.472656 92.972656 C 67.125 92.625 66.921875 92.488281 66.449219 92.300781 L 66.144531 92.175781 L 66.410156 92.023438 C 66.777344 91.8125 67.285156 91.304688 67.449219 90.988281 C 67.644531 90.59375 67.726562 90.210938 67.726562 89.667969 C 67.726562 89.078125 67.648438 88.683594 67.445312 88.257812 C 67.15625 87.648438 66.59375 87.195312 65.828125 86.953125 C 65.15625 86.742188 65.128906 86.742188 61.71875 86.726562 L 58.542969 86.710938 L 58.542969 92.695312 M 79.722656 87.820312 L 79.722656 88.925781 L 83.046875 88.925781 L 83.046875 98.683594 L 85.660156 98.683594 L 85.660156 88.925781 L 88.984375 88.925781 L 88.984375 86.714844 L 79.722656 86.714844 L 79.722656 87.820312 M 11.1875 88.710938 C 10.265625 88.917969 9.617188 89.4375 9.171875 90.328125 C 8.648438 91.386719 8.523438 92.960938 8.863281 94.265625 C 9.207031 95.585938 10.097656 96.480469 11.277344 96.691406 C 11.796875 96.785156 12.71875 96.746094 12.90625 96.628906 C 12.96875 96.585938 12.871094 96.484375 12.195312 95.875 L 11.859375 95.570312 L 12.460938 94.933594 C 12.792969 94.585938 13.074219 94.296875 13.09375 94.296875 C 13.109375 94.296875 13.414062 94.558594 13.769531 94.878906 C 14.125 95.203125 14.433594 95.464844 14.460938 95.464844 C 14.542969 95.464844 14.917969 94.652344 15.019531 94.25 C 15.335938 93.003906 15.207031 91.394531 14.707031 90.367188 C 14.296875 89.527344 13.660156 88.96875 12.84375 88.746094 C 12.503906 88.652344 11.546875 88.632812 11.1875 88.710938 M 61.195312 90.167969 L 61.195312 91.574219 L 62.433594 91.574219 C 64.066406 91.574219 64.390625 91.515625 64.792969 91.15625 C 65.113281 90.867188 65.253906 90.347656 65.15625 89.820312 C 65.066406 89.34375 64.789062 89.046875 64.285156 88.878906 C 64.042969 88.796875 63.941406 88.789062 62.609375 88.777344 L 61.195312 88.761719 L 61.195312 90.167969 M 36.300781 89.617188 C 36.007812 90.363281 35.070312 93.222656 35.070312 93.371094 C 35.070312 93.421875 35.269531 93.429688 36.496094 93.429688 C 37.28125 93.429688 37.921875 93.414062 37.921875 93.394531 C 37.921875 93.375 37.894531 93.285156 37.859375 93.1875 C 37.824219 93.09375 37.644531 92.535156 37.460938 91.949219 C 37.082031 90.753906 36.757812 89.824219 36.585938 89.441406 L 36.46875 89.183594 L 36.300781 89.617188 M 74.523438 89.808594 C 74.203125 90.660156 73.347656 93.28125 73.347656 93.402344 C 73.347656 93.417969 73.996094 93.429688 74.785156 93.429688 L 76.226562 93.429688 L 75.78125 92.039062 C 75.226562 90.300781 74.863281 89.277344 74.777344 89.222656 C 74.761719 89.214844 74.648438 89.476562 74.523438 89.808594 M 61.195312 94.988281 L 61.195312 96.628906 L 62.691406 96.628906 C 64.3125 96.628906 64.53125 96.605469 64.914062 96.414062 C 65.382812 96.175781 65.625 95.78125 65.660156 95.203125 C 65.703125 94.425781 65.449219 93.878906 64.925781 93.613281 C 64.472656 93.382812 64.425781 93.378906 62.75 93.359375 L 61.195312 93.34375 L 61.195312 94.988281 M 36.335938 106.5625 L 36.335938 109.035156 L 36.492188 109.035156 C 36.644531 109.035156 36.644531 109.03125 36.671875 108.851562 L 36.699219 108.671875 L 36.804688 108.769531 C 37.289062 109.234375 38.339844 109.128906 38.835938 108.566406 C 39.621094 107.675781 39.371094 106.121094 38.363281 105.628906 C 38.144531 105.519531 38.054688 105.5 37.742188 105.484375 C 37.328125 105.46875 37.050781 105.535156 36.851562 105.703125 L 36.734375 105.800781 L 36.722656 104.957031 L 36.714844 104.117188 L 36.527344 104.105469 L 36.335938 104.09375 L 36.335938 106.5625 M 52.960938 104.941406 L 52.960938 105.789062 L 52.738281 105.65625 C 52.480469 105.5 52.28125 105.460938 51.859375 105.488281 C 50.984375 105.539062 50.378906 106.257812 50.378906 107.257812 C 50.378906 108.273438 50.964844 108.976562 51.882812 109.0625 C 52.222656 109.09375 52.585938 108.992188 52.800781 108.8125 C 52.976562 108.660156 52.96875 108.660156 53.011719 108.9375 C 53.019531 108.996094 53.058594 109.019531 53.171875 109.027344 L 53.320312 109.039062 L 53.320312 104.097656 L 52.960938 104.097656 L 52.960938 104.941406 M 63.089844 104.152344 C 62.613281 104.28125 62.414062 104.5625 62.390625 105.132812 L 62.375 105.480469 L 62.027344 105.480469 L 62.027344 105.796875 L 62.382812 105.796875 L 62.382812 109.035156 L 62.738281 109.035156 L 62.738281 105.792969 L 64.261719 105.816406 L 64.285156 109.035156 L 64.640625 109.035156 L 64.640625 105.480469 L 62.738281 105.480469 L 62.738281 105.230469 C 62.738281 104.734375 62.878906 104.523438 63.261719 104.445312 L 63.496094 104.394531 L 63.484375 104.257812 C 63.472656 104.140625 63.457031 104.113281 63.371094 104.109375 C 63.320312 104.105469 63.191406 104.121094 63.089844 104.152344 M 71.171875 106.5625 L 71.171875 109.035156 L 71.324219 109.035156 C 71.476562 109.035156 71.480469 109.03125 71.503906 108.855469 L 71.53125 108.679688 L 71.679688 108.796875 C 72.097656 109.128906 72.726562 109.15625 73.28125 108.867188 C 74.273438 108.34375 74.4375 106.691406 73.578125 105.890625 C 73.285156 105.617188 73.003906 105.503906 72.582031 105.484375 C 72.175781 105.46875 71.945312 105.519531 71.722656 105.683594 L 71.566406 105.792969 L 71.558594 104.957031 L 71.546875 104.117188 L 71.171875 104.09375 L 71.171875 106.5625 M 5.945312 104.171875 C 5.953125 104.191406 6.347656 105.300781 6.828125 106.640625 L 7.695312 109.074219 L 8.261719 109.074219 L 8.925781 107.1875 C 9.214844 106.363281 9.507812 105.539062 9.796875 104.71875 L 10.003906 104.132812 L 9.804688 104.144531 L 9.601562 104.15625 L 8.820312 106.40625 C 8.390625 107.644531 8.023438 108.691406 8.007812 108.726562 C 7.984375 108.777344 7.75 108.160156 7.246094 106.734375 C 6.847656 105.597656 6.476562 104.550781 6.421875 104.402344 L 6.324219 104.136719 L 6.128906 104.136719 C 6.019531 104.136719 5.9375 104.152344 5.945312 104.171875 M 29.171875 106.21875 C 29.171875 107.492188 29.1875 108.359375 29.214844 108.445312 C 29.308594 108.792969 29.613281 109.035156 29.953125 109.035156 L 30.121094 109.035156 L 30.121094 108.882812 C 30.121094 108.734375 30.117188 108.726562 29.964844 108.703125 C 29.761719 108.671875 29.613281 108.539062 29.566406 108.34375 C 29.546875 108.257812 29.53125 107.273438 29.53125 106.160156 L 29.527344 104.136719 L 29.171875 104.136719 L 29.171875 106.21875 M 45.878906 106.242188 C 45.878906 107.714844 45.890625 108.390625 45.921875 108.484375 C 46.03125 108.808594 46.324219 109.03125 46.640625 109.035156 C 46.785156 109.035156 46.789062 109.03125 46.789062 108.875 C 46.789062 108.738281 46.777344 108.71875 46.699219 108.71875 C 46.554688 108.71875 46.351562 108.570312 46.289062 108.421875 C 46.242188 108.308594 46.234375 107.929688 46.234375 106.210938 L 46.234375 104.136719 L 45.878906 104.136719 L 45.878906 106.242188 M 64.242188 104.394531 L 64.242188 104.648438 L 64.640625 104.648438 L 64.640625 104.136719 L 64.242188 104.136719 L 64.242188 104.394531 M 75.882812 104.394531 L 75.882812 104.648438 L 76.238281 104.648438 L 76.238281 104.136719 L 75.882812 104.136719 L 75.882812 104.394531 M 78.1875 106.277344 L 78.195312 108.421875 L 78.289062 108.613281 C 78.414062 108.859375 78.613281 108.992188 78.90625 109.023438 L 79.128906 109.046875 L 79.128906 108.882812 C 79.128906 108.742188 79.113281 108.71875 79.046875 108.71875 C 78.890625 108.71875 78.695312 108.605469 78.625 108.476562 C 78.558594 108.351562 78.550781 108.183594 78.539062 106.238281 L 78.527344 104.136719 L 78.175781 104.136719 L 78.1875 106.277344 M 80.75 104.394531 L 80.75 104.648438 L 81.144531 104.648438 L 81.144531 104.136719 L 80.75 104.136719 L 80.75 104.394531 M 87.417969 104.441406 C 87.335938 104.589844 87.242188 104.75 87.210938 104.796875 C 87.15625 104.886719 87.15625 104.886719 87.328125 104.886719 C 87.496094 104.886719 87.503906 104.878906 87.714844 104.582031 C 87.835938 104.414062 87.949219 104.253906 87.964844 104.226562 C 87.992188 104.1875 87.949219 104.175781 87.78125 104.175781 L 87.566406 104.175781 L 87.417969 104.441406 M 16.328125 104.550781 C 16.304688 104.558594 16.238281 104.574219 16.179688 104.585938 L 16.070312 104.613281 L 16.070312 105.480469 L 15.554688 105.480469 L 15.554688 105.796875 L 16.066406 105.796875 L 16.078125 107.070312 C 16.089844 108.269531 16.09375 108.351562 16.175781 108.519531 C 16.324219 108.839844 16.570312 109.003906 16.972656 109.058594 L 17.179688 109.085938 L 17.179688 108.730469 L 16.996094 108.707031 C 16.785156 108.683594 16.636719 108.585938 16.527344 108.398438 C 16.453125 108.273438 16.445312 108.179688 16.433594 107.03125 L 16.421875 105.796875 L 16.789062 105.785156 L 17.160156 105.777344 L 17.183594 105.480469 L 16.816406 105.472656 L 16.445312 105.460938 L 16.4375 104.996094 C 16.429688 104.738281 16.410156 104.53125 16.394531 104.535156 C 16.378906 104.535156 16.351562 104.542969 16.328125 104.550781 M 83.304688 104.566406 L 83.183594 104.589844 L 83.160156 105.480469 L 82.605469 105.480469 L 82.628906 105.777344 L 82.894531 105.789062 L 83.160156 105.796875 L 83.171875 107.109375 C 83.183594 108.378906 83.1875 108.429688 83.273438 108.585938 C 83.417969 108.859375 83.652344 109 84.03125 109.054688 L 84.234375 109.082031 L 84.234375 108.898438 C 84.234375 108.730469 84.226562 108.71875 84.125 108.71875 C 83.921875 108.714844 83.691406 108.578125 83.601562 108.40625 C 83.523438 108.257812 83.519531 108.179688 83.519531 107.023438 L 83.519531 105.796875 L 84.234375 105.796875 L 84.234375 105.480469 L 83.519531 105.480469 L 83.519531 105.003906 C 83.519531 104.648438 83.507812 104.53125 83.472656 104.535156 C 83.445312 104.539062 83.367188 104.550781 83.304688 104.566406 M 12.175781 105.441406 C 12.09375 105.460938 11.917969 105.535156 11.789062 105.605469 C 11.113281 105.964844 10.722656 106.757812 10.839844 107.535156 C 11.0625 108.992188 12.71875 109.613281 13.757812 108.632812 C 14.164062 108.25 14.339844 107.839844 14.339844 107.257812 C 14.339844 106.675781 14.164062 106.265625 13.757812 105.882812 C 13.433594 105.574219 13.101562 105.433594 12.671875 105.417969 C 12.484375 105.410156 12.261719 105.421875 12.175781 105.441406 M 32.617188 105.441406 C 32.378906 105.488281 32.117188 105.589844 31.933594 105.703125 C 31.785156 105.796875 31.785156 105.796875 31.84375 105.914062 C 31.878906 105.980469 31.921875 106.03125 31.941406 106.03125 C 31.960938 106.03125 32.097656 105.976562 32.246094 105.90625 C 32.472656 105.796875 32.574219 105.777344 32.878906 105.761719 C 33.699219 105.726562 34.078125 106.023438 34.082031 106.695312 L 34.082031 106.980469 L 33.925781 106.902344 C 33.273438 106.570312 32.347656 106.664062 31.839844 107.109375 C 31.492188 107.414062 31.402344 107.980469 31.628906 108.433594 C 31.847656 108.867188 32.261719 109.082031 32.894531 109.089844 C 33.324219 109.09375 33.570312 109.027344 33.882812 108.816406 C 33.992188 108.746094 34.085938 108.695312 34.09375 108.710938 C 34.105469 108.726562 34.121094 108.804688 34.136719 108.886719 C 34.164062 109.023438 34.171875 109.035156 34.304688 109.035156 L 34.441406 109.035156 L 34.429688 107.660156 L 34.417969 106.289062 L 34.3125 106.089844 C 34.121094 105.722656 33.808594 105.519531 33.328125 105.441406 C 33.035156 105.394531 32.867188 105.394531 32.617188 105.441406 M 67.453125 105.445312 C 67.242188 105.480469 66.894531 105.617188 66.707031 105.738281 C 66.617188 105.796875 66.617188 105.800781 66.683594 105.914062 C 66.722656 105.980469 66.765625 106.03125 66.78125 106.03125 C 66.796875 106.03125 66.929688 105.976562 67.078125 105.90625 C 67.308594 105.796875 67.410156 105.777344 67.710938 105.761719 C 68.53125 105.726562 68.910156 106.023438 68.914062 106.691406 L 68.914062 106.976562 L 68.707031 106.878906 C 68.40625 106.742188 68.109375 106.691406 67.726562 106.714844 C 67.152344 106.75 66.71875 106.972656 66.480469 107.355469 C 66.378906 107.515625 66.359375 107.59375 66.347656 107.855469 C 66.335938 108.113281 66.347656 108.191406 66.429688 108.371094 C 66.550781 108.632812 66.738281 108.820312 67 108.941406 C 67.558594 109.203125 68.273438 109.144531 68.75 108.796875 C 68.945312 108.65625 68.953125 108.65625 68.953125 108.769531 C 68.957031 108.972656 68.996094 109.035156 69.136719 109.035156 L 69.269531 109.035156 L 69.269531 107.734375 C 69.269531 106.28125 69.253906 106.164062 69.003906 105.875 C 68.820312 105.660156 68.582031 105.527344 68.257812 105.460938 C 67.953125 105.394531 67.773438 105.390625 67.453125 105.445312 M 19.757812 105.507812 C 19.664062 105.539062 19.507812 105.644531 19.410156 105.734375 C 19.21875 105.917969 19.214844 105.914062 19.1875 105.617188 C 19.179688 105.511719 19.164062 105.496094 19.03125 105.488281 L 18.882812 105.472656 L 18.882812 109.035156 L 19.238281 109.035156 L 19.238281 107.796875 C 19.238281 106.371094 19.25 106.296875 19.535156 106.039062 C 19.835938 105.757812 20.300781 105.683594 20.703125 105.851562 C 20.746094 105.871094 20.785156 105.835938 20.832031 105.734375 C 20.871094 105.660156 20.898438 105.585938 20.898438 105.578125 C 20.898438 105.570312 20.808594 105.535156 20.695312 105.5 C 20.4375 105.425781 19.984375 105.425781 19.757812 105.507812 M 23.175781 105.492188 C 22.894531 105.585938 22.691406 105.710938 22.488281 105.914062 C 21.628906 106.769531 21.871094 108.375 22.9375 108.902344 C 23.1875 109.023438 23.28125 109.046875 23.582031 109.0625 C 23.976562 109.085938 24.277344 109.019531 24.574219 108.851562 C 24.765625 108.742188 25.015625 108.53125 25.015625 108.480469 C 25.015625 108.460938 24.960938 108.410156 24.898438 108.363281 L 24.777344 108.277344 L 24.632812 108.40625 C 24.394531 108.613281 24.171875 108.691406 23.769531 108.710938 C 23.472656 108.722656 23.375 108.710938 23.183594 108.640625 C 22.761719 108.480469 22.386719 107.996094 22.335938 107.546875 L 22.316406 107.375 L 23.8125 107.367188 L 25.3125 107.355469 L 25.328125 107.179688 C 25.359375 106.746094 25.148438 106.203125 24.835938 105.886719 C 24.738281 105.789062 24.539062 105.65625 24.390625 105.585938 C 24.15625 105.476562 24.078125 105.460938 23.730469 105.449219 C 23.480469 105.445312 23.277344 105.460938 23.175781 105.492188 M 42.019531 105.492188 C 41.269531 105.738281 40.808594 106.394531 40.808594 107.214844 C 40.808594 108.09375 41.300781 108.800781 42.054688 109.015625 C 42.359375 109.105469 42.875 109.078125 43.183594 108.960938 C 43.394531 108.882812 43.859375 108.554688 43.859375 108.488281 C 43.859375 108.472656 43.804688 108.417969 43.738281 108.367188 L 43.617188 108.277344 L 43.472656 108.40625 C 43.242188 108.605469 43.011719 108.691406 42.632812 108.710938 C 42.234375 108.730469 42.03125 108.683594 41.773438 108.511719 C 41.464844 108.300781 41.234375 107.933594 41.152344 107.503906 L 41.128906 107.375 L 42.640625 107.367188 L 44.15625 107.355469 L 44.167969 107.1875 C 44.199219 106.765625 43.988281 106.214844 43.679688 105.894531 C 43.574219 105.789062 43.390625 105.660156 43.234375 105.585938 C 43 105.476562 42.921875 105.460938 42.570312 105.449219 C 42.324219 105.445312 42.117188 105.460938 42.019531 105.492188 M 56.269531 105.492188 C 55.519531 105.738281 55.058594 106.394531 55.058594 107.214844 C 55.058594 108.09375 55.550781 108.800781 56.304688 109.015625 C 56.609375 109.105469 57.125 109.078125 57.433594 108.960938 C 57.644531 108.882812 58.109375 108.554688 58.109375 108.488281 C 58.109375 108.472656 58.054688 108.417969 57.988281 108.367188 L 57.867188 108.277344 L 57.722656 108.40625 C 57.492188 108.605469 57.261719 108.691406 56.882812 108.710938 C 56.484375 108.730469 56.28125 108.683594 56.023438 108.511719 C 55.714844 108.300781 55.484375 107.933594 55.402344 107.503906 L 55.378906 107.375 L 56.890625 107.367188 L 58.40625 107.355469 L 58.417969 107.1875 C 58.449219 106.757812 58.238281 106.207031 57.917969 105.886719 C 57.816406 105.785156 57.617188 105.648438 57.476562 105.582031 C 57.25 105.476562 57.167969 105.460938 56.820312 105.449219 C 56.574219 105.445312 56.367188 105.460938 56.269531 105.492188 M 86.871094 105.515625 C 86.433594 105.660156 86.117188 105.9375 85.910156 106.367188 C 85.554688 107.105469 85.664062 107.945312 86.199219 108.554688 C 86.765625 109.203125 87.925781 109.25 88.589844 108.652344 C 88.675781 108.574219 88.746094 108.496094 88.746094 108.480469 C 88.746094 108.460938 88.691406 108.410156 88.625 108.363281 L 88.507812 108.277344 L 88.359375 108.40625 C 88.128906 108.609375 87.898438 108.691406 87.511719 108.710938 C 87.121094 108.730469 86.914062 108.675781 86.632812 108.484375 C 86.359375 108.296875 86.054688 107.761719 86.054688 107.46875 L 86.054688 107.375 L 89.0625 107.375 L 89.0625 107.101562 C 89.0625 106.433594 88.703125 105.851562 88.113281 105.570312 C 87.816406 105.425781 87.222656 105.402344 86.871094 105.515625 M 75.882812 107.257812 L 75.882812 109.035156 L 76.238281 109.035156 L 76.238281 105.480469 L 75.882812 105.480469 L 75.882812 107.257812 M 80.789062 107.257812 L 80.789062 109.035156 L 81.144531 109.035156 L 81.144531 105.480469 L 80.789062 105.480469 L 80.789062 107.257812 M 12.359375 105.761719 C 11.929688 105.828125 11.527344 106.140625 11.335938 106.554688 C 11.230469 106.78125 11.222656 106.839844 11.222656 107.257812 C 11.222656 107.683594 11.230469 107.726562 11.347656 107.972656 C 11.496094 108.289062 11.738281 108.535156 12.035156 108.675781 C 12.214844 108.761719 12.308594 108.777344 12.585938 108.777344 C 12.875 108.777344 12.957031 108.761719 13.140625 108.671875 C 13.4375 108.527344 13.683594 108.277344 13.832031 107.96875 C 13.945312 107.726562 13.953125 107.683594 13.953125 107.257812 C 13.953125 106.820312 13.945312 106.789062 13.824219 106.539062 C 13.542969 105.96875 12.972656 105.667969 12.359375 105.761719 M 23.3125 105.808594 C 23.046875 105.882812 22.785156 106.046875 22.640625 106.230469 C 22.492188 106.417969 22.328125 106.792969 22.324219 106.949219 L 22.324219 107.058594 L 23.671875 107.058594 C 24.722656 107.058594 25.015625 107.046875 25.015625 107.011719 C 25.015625 106.925781 24.910156 106.566406 24.859375 106.464844 C 24.582031 105.9375 23.890625 105.644531 23.3125 105.808594 M 42.152344 105.808594 C 41.910156 105.875 41.632812 106.042969 41.5 106.199219 C 41.371094 106.355469 41.222656 106.660156 41.171875 106.890625 L 41.136719 107.058594 L 43.855469 107.058594 L 43.832031 106.929688 C 43.738281 106.390625 43.433594 106.003906 42.984375 105.847656 C 42.742188 105.765625 42.363281 105.746094 42.152344 105.808594 M 56.402344 105.808594 C 55.894531 105.949219 55.5625 106.3125 55.433594 106.851562 L 55.382812 107.058594 L 58.105469 107.058594 L 58.082031 106.929688 C 57.988281 106.390625 57.683594 106.003906 57.234375 105.847656 C 56.992188 105.765625 56.613281 105.746094 56.402344 105.808594 M 87.097656 105.792969 C 86.648438 105.890625 86.292969 106.21875 86.132812 106.6875 C 85.992188 107.097656 85.863281 107.058594 87.40625 107.058594 L 88.757812 107.058594 L 88.730469 106.890625 C 88.691406 106.664062 88.546875 106.355469 88.390625 106.179688 C 88.121094 105.871094 87.542969 105.699219 87.097656 105.792969 M 37.152344 105.875 C 37.046875 105.917969 36.898438 106.007812 36.824219 106.078125 L 36.695312 106.207031 L 36.695312 108.226562 L 36.808594 108.367188 C 36.871094 108.441406 37.019531 108.554688 37.136719 108.621094 C 37.585938 108.867188 38.25 108.710938 38.59375 108.28125 C 39.222656 107.488281 38.953125 106.195312 38.097656 105.875 C 37.816406 105.773438 37.417969 105.769531 37.152344 105.875 M 51.613281 105.855469 C 51.40625 105.921875 51.097656 106.171875 50.964844 106.382812 C 50.792969 106.65625 50.734375 106.917969 50.753906 107.328125 C 50.765625 107.632812 50.789062 107.757812 50.871094 107.933594 C 51.101562 108.433594 51.527344 108.71875 52.039062 108.71875 C 52.375 108.71875 52.550781 108.652344 52.785156 108.433594 L 52.960938 108.273438 L 52.960938 106.15625 L 52.832031 106.058594 C 52.582031 105.871094 52.4375 105.820312 52.113281 105.808594 C 51.910156 105.800781 51.730469 105.816406 51.613281 105.855469 M 71.984375 105.875 C 71.878906 105.917969 71.730469 106.007812 71.660156 106.078125 L 71.527344 106.207031 L 71.527344 108.226562 L 71.640625 108.367188 C 71.703125 108.441406 71.851562 108.554688 71.96875 108.621094 C 72.363281 108.835938 72.925781 108.75 73.3125 108.410156 C 73.511719 108.238281 73.695312 107.875 73.75 107.539062 C 73.84375 107.007812 73.648438 106.390625 73.292969 106.089844 C 72.960938 105.804688 72.402344 105.710938 71.984375 105.875 M 32.8125 107.066406 C 32.207031 107.125 31.863281 107.425781 31.863281 107.902344 C 31.863281 108.390625 32.164062 108.683594 32.753906 108.757812 C 33.195312 108.8125 33.753906 108.648438 33.992188 108.394531 C 34.078125 108.300781 34.082031 108.269531 34.074219 107.789062 L 34.0625 107.28125 L 33.824219 107.1875 C 33.546875 107.074219 33.167969 107.027344 32.8125 107.066406 M 67.648438 107.066406 C 67.207031 107.109375 66.878906 107.304688 66.753906 107.601562 C 66.621094 107.910156 66.726562 108.339844 66.984375 108.535156 C 67.359375 108.820312 68.023438 108.851562 68.511719 108.601562 C 68.90625 108.402344 68.917969 108.378906 68.90625 107.785156 L 68.894531 107.277344 L 68.664062 107.183594 C 68.382812 107.074219 68 107.03125 67.648438 107.066406 "/>
<path style=" stroke:none;fill-rule:evenodd;fill:rgb(5.882353%,56.078431%,84.705882%);fill-opacity:1;" d="M 35.792969 1.519531 C 35.699219 1.550781 35.601562 1.589844 35.574219 1.609375 C 35.546875 1.632812 35.429688 1.671875 35.308594 1.699219 C 35.1875 1.726562 34.867188 1.808594 34.597656 1.882812 C 34.324219 1.957031 33.878906 2.054688 33.605469 2.097656 C 33.335938 2.140625 32.96875 2.210938 32.792969 2.25 C 32.222656 2.382812 32.054688 2.410156 32.019531 2.386719 C 32 2.375 31.984375 2.378906 31.984375 2.398438 C 31.984375 2.433594 31.472656 2.546875 31.113281 2.589844 C 30.742188 2.632812 29.929688 2.804688 29.714844 2.886719 C 29.519531 2.957031 29.371094 3.09375 29.257812 3.304688 C 29.1875 3.4375 29.164062 3.792969 29.210938 4.011719 C 29.253906 4.207031 29.339844 4.640625 29.390625 4.898438 C 29.425781 5.09375 29.523438 5.480469 29.589844 5.675781 C 29.65625 5.871094 29.894531 7.023438 30.027344 7.78125 C 30.195312 8.753906 30.375 9.527344 30.609375 10.28125 C 30.671875 10.496094 30.730469 10.753906 30.738281 10.855469 C 30.742188 10.957031 30.800781 11.273438 30.867188 11.554688 C 30.933594 11.835938 31.007812 12.210938 31.035156 12.386719 C 31.058594 12.558594 31.109375 12.761719 31.140625 12.839844 C 31.171875 12.914062 31.214844 13.085938 31.234375 13.214844 C 31.25 13.34375 31.304688 13.621094 31.351562 13.828125 C 31.421875 14.144531 31.519531 14.644531 31.613281 15.199219 C 31.628906 15.269531 31.652344 15.316406 31.667969 15.308594 C 31.707031 15.285156 31.746094 15.429688 31.746094 15.59375 C 31.746094 15.660156 31.800781 15.9375 31.863281 16.203125 C 31.929688 16.46875 31.984375 16.742188 31.984375 16.808594 C 31.984375 16.875 32 16.992188 32.019531 17.066406 C 32.039062 17.140625 32.066406 17.273438 32.082031 17.355469 C 32.097656 17.460938 32.164062 17.5625 32.304688 17.707031 C 32.628906 18.039062 32.796875 18.050781 33.746094 17.820312 C 33.917969 17.777344 34.265625 17.695312 34.515625 17.636719 C 34.765625 17.582031 35.039062 17.507812 35.121094 17.476562 C 35.207031 17.445312 35.289062 17.429688 35.304688 17.441406 C 35.355469 17.46875 36.070312 17.320312 36.613281 17.164062 C 36.886719 17.089844 37.269531 17.007812 37.464844 16.984375 C 37.660156 16.964844 38.007812 16.894531 38.238281 16.832031 C 38.464844 16.769531 38.867188 16.679688 39.128906 16.632812 C 39.894531 16.492188 40.113281 16.355469 40.222656 15.949219 C 40.28125 15.734375 40.253906 15.5625 40.015625 14.589844 C 39.929688 14.238281 39.859375 13.855469 39.859375 13.738281 C 39.859375 13.566406 39.835938 13.488281 39.71875 13.300781 C 39.472656 12.910156 39.132812 12.808594 38.628906 12.972656 C 38.097656 13.148438 37.554688 13.269531 37.207031 13.292969 C 37.023438 13.304688 36.664062 13.351562 36.414062 13.398438 C 35.632812 13.535156 35.503906 13.449219 35.285156 12.621094 C 35.066406 11.785156 35.066406 11.546875 35.300781 11.328125 C 35.519531 11.117188 35.757812 11.042969 36.832031 10.859375 C 37.980469 10.664062 38.136719 10.613281 38.34375 10.378906 C 38.597656 10.089844 38.605469 9.6875 38.371094 9.027344 C 38.316406 8.875 38.261719 8.679688 38.253906 8.59375 C 38.171875 7.878906 38.039062 7.394531 37.875 7.210938 C 37.652344 6.953125 37.398438 6.945312 36.574219 7.171875 C 36.367188 7.226562 35.992188 7.308594 35.742188 7.351562 C 35.492188 7.398438 35.207031 7.449219 35.101562 7.46875 C 35 7.484375 34.882812 7.519531 34.839844 7.542969 C 34.652344 7.640625 34.3125 7.527344 34.179688 7.320312 C 34.140625 7.257812 34.078125 7.179688 34.035156 7.140625 C 33.996094 7.101562 33.960938 7.03125 33.960938 6.988281 C 33.960938 6.945312 33.925781 6.730469 33.878906 6.511719 C 33.789062 6.070312 33.800781 5.890625 33.933594 5.765625 C 34.136719 5.578125 34.371094 5.492188 35.125 5.335938 C 36.125 5.128906 36.78125 4.960938 36.996094 4.855469 C 37.433594 4.644531 37.496094 4.316406 37.273438 3.394531 C 37.195312 3.082031 37.113281 2.652344 37.085938 2.449219 C 37.03125 2 36.929688 1.738281 36.746094 1.578125 C 36.621094 1.46875 36.59375 1.460938 36.285156 1.464844 C 36.109375 1.464844 35.886719 1.492188 35.792969 1.519531 M 25.570312 3.574219 C 25.472656 3.605469 25.15625 3.671875 24.871094 3.71875 C 24.582031 3.765625 24.355469 3.820312 24.367188 3.835938 C 24.375 3.851562 24.253906 3.886719 24.097656 3.910156 C 23.710938 3.972656 23.363281 4.078125 22.699219 4.335938 C 22.394531 4.453125 22.078125 4.574219 21.996094 4.605469 C 21.464844 4.804688 20.941406 5.125 20.375 5.589844 C 19.746094 6.105469 18.996094 7.167969 18.738281 7.902344 C 18.640625 8.1875 18.609375 8.304688 18.503906 8.828125 C 18.472656 8.980469 18.421875 9.238281 18.386719 9.402344 C 18.195312 10.28125 18.410156 12.453125 18.839844 14.035156 C 18.945312 14.433594 19.082031 14.882812 19.140625 15.03125 C 19.195312 15.183594 19.296875 15.449219 19.363281 15.625 C 19.429688 15.796875 19.484375 15.960938 19.484375 15.988281 C 19.488281 16.015625 19.503906 16.039062 19.519531 16.039062 C 19.539062 16.039062 19.554688 16.058594 19.554688 16.082031 C 19.554688 16.15625 19.949219 16.910156 20.105469 17.136719 C 20.3125 17.433594 20.816406 17.992188 21.136719 18.273438 C 21.277344 18.398438 21.523438 18.617188 21.683594 18.761719 C 21.960938 19.015625 22.410156 19.316406 22.503906 19.316406 C 22.53125 19.316406 22.632812 19.359375 22.730469 19.414062 C 22.953125 19.53125 23.421875 19.652344 23.886719 19.714844 C 24.449219 19.789062 25.609375 19.785156 25.988281 19.707031 C 26.160156 19.671875 26.429688 19.617188 26.582031 19.59375 C 26.734375 19.566406 27.027344 19.507812 27.234375 19.464844 C 27.441406 19.425781 27.703125 19.375 27.816406 19.355469 C 28.148438 19.296875 29.472656 18.820312 29.65625 18.695312 C 29.75 18.628906 29.90625 18.503906 30.003906 18.414062 C 30.101562 18.324219 30.195312 18.25 30.207031 18.25 C 30.222656 18.25 30.273438 18.175781 30.316406 18.082031 C 30.421875 17.863281 30.425781 17.589844 30.324219 17.191406 C 30.28125 17.023438 30.234375 16.800781 30.222656 16.691406 C 30.171875 16.316406 30.085938 15.878906 30.042969 15.800781 C 30.019531 15.753906 29.992188 15.621094 29.984375 15.5 C 29.964844 15.285156 29.929688 15.132812 29.742188 14.539062 C 29.636719 14.191406 29.507812 13.625 29.46875 13.304688 C 29.453125 13.179688 29.421875 13.078125 29.402344 13.078125 C 29.378906 13.078125 29.375 13.046875 29.386719 13.011719 C 29.402344 12.972656 29.394531 12.933594 29.371094 12.917969 C 29.347656 12.902344 29.328125 12.8125 29.328125 12.71875 C 29.328125 12.621094 29.257812 12.25 29.171875 11.890625 C 29.085938 11.53125 28.988281 11.089844 28.953125 10.902344 C 28.917969 10.71875 28.851562 10.4375 28.8125 10.28125 C 28.769531 10.121094 28.738281 9.945312 28.738281 9.886719 C 28.738281 9.742188 28.574219 9.40625 28.457031 9.296875 C 28.304688 9.160156 28.050781 9.046875 27.84375 9.023438 C 27.691406 9.003906 27.542969 9.03125 27.175781 9.140625 C 26.914062 9.214844 26.582031 9.304688 26.441406 9.339844 C 26.300781 9.375 26.09375 9.429688 25.988281 9.460938 C 25.878906 9.492188 25.636719 9.535156 25.453125 9.5625 C 24.984375 9.625 24.347656 9.773438 24.203125 9.847656 C 24.042969 9.9375 23.9375 10.027344 23.816406 10.199219 C 23.65625 10.410156 23.65625 10.839844 23.824219 11.496094 C 23.890625 11.769531 23.964844 12.117188 23.988281 12.277344 C 24.082031 12.96875 24.179688 13.203125 24.4375 13.363281 C 24.636719 13.488281 24.765625 13.496094 25.03125 13.40625 C 25.261719 13.328125 25.539062 13.351562 25.683594 13.460938 C 25.875 13.605469 25.929688 13.726562 26.007812 14.164062 C 26.046875 14.402344 26.117188 14.699219 26.164062 14.828125 C 26.332031 15.300781 26.296875 15.613281 26.054688 15.738281 C 25.878906 15.828125 25.433594 15.894531 25.117188 15.871094 C 24.789062 15.851562 24.578125 15.746094 24.316406 15.476562 C 24.125 15.28125 23.394531 14.257812 23.269531 14.015625 C 23.105469 13.691406 22.996094 13.285156 22.839844 12.445312 C 22.710938 11.738281 22.679688 11.441406 22.644531 10.703125 C 22.597656 9.761719 22.609375 9.621094 22.765625 9.144531 C 22.835938 8.921875 22.894531 8.828125 23.132812 8.582031 C 23.355469 8.347656 23.480469 8.25 23.730469 8.132812 C 24.082031 7.960938 24.558594 7.804688 24.917969 7.746094 C 25.046875 7.722656 25.261719 7.6875 25.394531 7.664062 C 25.722656 7.609375 25.9375 7.613281 26.214844 7.6875 C 26.457031 7.75 26.667969 7.730469 26.96875 7.617188 C 27.128906 7.554688 27.421875 7.210938 27.472656 7.023438 C 27.527344 6.824219 27.464844 6.449219 27.195312 5.390625 C 27.089844 4.980469 26.984375 4.515625 26.957031 4.363281 C 26.90625 4.046875 26.734375 3.710938 26.574219 3.605469 C 26.433594 3.515625 25.820312 3.496094 25.570312 3.574219 M 12.132812 6.800781 C 11.828125 6.820312 11.496094 6.863281 11.398438 6.898438 C 11.300781 6.929688 10.792969 7.066406 10.273438 7.195312 C 9.75 7.324219 9.136719 7.472656 8.90625 7.53125 C 8.480469 7.636719 8.117188 7.710938 7.976562 7.71875 C 7.933594 7.722656 7.886719 7.734375 7.878906 7.746094 C 7.867188 7.757812 7.621094 7.816406 7.328125 7.871094 C 6.886719 7.957031 6.765625 7.996094 6.589844 8.113281 C 6.210938 8.363281 6.078125 8.71875 6.171875 9.214844 C 6.242188 9.59375 6.378906 10.128906 6.417969 10.175781 C 6.433594 10.199219 6.476562 10.394531 6.507812 10.609375 C 6.542969 10.824219 6.613281 11.179688 6.667969 11.398438 C 6.722656 11.613281 6.804688 11.988281 6.847656 12.226562 C 6.890625 12.464844 6.957031 12.75 6.988281 12.859375 C 7.023438 12.96875 7.082031 13.234375 7.125 13.453125 C 7.167969 13.667969 7.230469 13.960938 7.261719 14.101562 C 7.433594 14.832031 7.523438 15.257812 7.558594 15.503906 C 7.578125 15.65625 7.632812 15.886719 7.679688 16.015625 C 7.722656 16.144531 7.757812 16.316406 7.757812 16.398438 C 7.757812 16.566406 7.8125 16.847656 7.914062 17.222656 C 7.953125 17.367188 8.007812 17.625 8.035156 17.796875 C 8.058594 17.972656 8.117188 18.191406 8.15625 18.285156 C 8.199219 18.382812 8.234375 18.515625 8.234375 18.582031 C 8.234375 18.648438 8.257812 18.785156 8.292969 18.882812 C 8.492188 19.476562 8.558594 19.714844 8.613281 20.039062 C 8.644531 20.242188 8.699219 20.472656 8.730469 20.554688 C 8.761719 20.636719 8.789062 20.773438 8.789062 20.859375 C 8.789062 20.945312 8.832031 21.226562 8.882812 21.480469 C 8.933594 21.734375 8.996094 22.070312 9.023438 22.222656 C 9.050781 22.375 9.078125 22.546875 9.089844 22.605469 C 9.101562 22.664062 9.191406 22.800781 9.285156 22.910156 C 9.546875 23.195312 9.65625 23.203125 10.421875 22.996094 C 11.601562 22.675781 11.882812 22.613281 12.289062 22.578125 C 12.847656 22.527344 13.101562 22.351562 13.101562 22.011719 C 13.101562 21.910156 13.074219 21.730469 13.039062 21.609375 C 13.003906 21.488281 12.953125 21.265625 12.925781 21.113281 C 12.898438 20.960938 12.839844 20.703125 12.792969 20.542969 C 12.75 20.378906 12.691406 20.132812 12.667969 19.996094 C 12.644531 19.859375 12.570312 19.578125 12.507812 19.371094 C 12.363281 18.910156 12.351562 18.613281 12.472656 18.503906 C 12.554688 18.433594 12.558594 18.433594 12.699219 18.511719 C 12.78125 18.558594 12.964844 18.753906 13.113281 18.945312 C 13.261719 19.136719 13.441406 19.359375 13.515625 19.441406 C 13.589844 19.519531 13.695312 19.671875 13.757812 19.777344 C 13.816406 19.882812 13.925781 20.03125 13.996094 20.109375 C 14.167969 20.292969 14.789062 21.082031 14.972656 21.351562 C 15.300781 21.828125 15.554688 21.894531 16.289062 21.695312 C 16.53125 21.632812 16.777344 21.566406 17.019531 21.496094 C 17.183594 21.453125 17.601562 21.363281 17.949219 21.296875 C 18.804688 21.136719 18.988281 21.078125 19.152344 20.914062 C 19.277344 20.785156 19.285156 20.765625 19.269531 20.5625 C 19.246094 20.269531 19.101562 20.058594 18.386719 19.246094 C 18.101562 18.929688 17.9375 18.710938 17.695312 18.355469 C 17.476562 18.027344 16.601562 16.988281 16.546875 16.988281 C 16.496094 16.988281 16.191406 16.457031 16.191406 16.363281 C 16.191406 16.320312 16.289062 16.136719 16.414062 15.957031 C 16.601562 15.679688 16.761719 15.375 16.902344 15.03125 C 16.96875 14.863281 17.109375 14.332031 17.144531 14.09375 C 17.296875 13.109375 17.296875 13.074219 17.257812 12.53125 C 17.238281 12.238281 17.207031 11.984375 17.1875 11.972656 C 17.167969 11.960938 17.132812 11.800781 17.109375 11.613281 C 17.085938 11.429688 17.011719 11.101562 16.941406 10.882812 C 16.875 10.667969 16.78125 10.363281 16.738281 10.210938 C 16.5625 9.621094 16.453125 9.351562 16.21875 8.960938 C 15.707031 8.089844 15.191406 7.5625 14.472656 7.167969 C 14.171875 7.003906 14.097656 6.980469 13.484375 6.851562 C 12.980469 6.75 12.976562 6.75 12.132812 6.800781 M 11.34375 10.695312 C 11.242188 10.722656 11 10.875 10.917969 10.96875 C 10.882812 11.007812 10.832031 11.09375 10.804688 11.160156 C 10.742188 11.324219 10.753906 11.847656 10.820312 11.929688 C 10.851562 11.960938 10.867188 12.007812 10.859375 12.03125 C 10.851562 12.050781 10.890625 12.273438 10.949219 12.523438 C 11.003906 12.773438 11.054688 13.003906 11.058594 13.035156 C 11.117188 13.332031 11.140625 13.421875 11.175781 13.492188 C 11.199219 13.535156 11.222656 13.605469 11.230469 13.648438 C 11.246094 13.75 11.488281 13.960938 11.710938 14.066406 C 11.875 14.144531 12.140625 14.160156 12.269531 14.101562 C 12.304688 14.085938 12.375 14.050781 12.429688 14.027344 C 12.738281 13.886719 12.835938 13.765625 12.917969 13.425781 C 12.972656 13.1875 12.96875 12.757812 12.902344 12.464844 C 12.878906 12.355469 12.851562 12.222656 12.847656 12.167969 C 12.820312 11.921875 12.765625 11.738281 12.652344 11.515625 C 12.585938 11.386719 12.515625 11.273438 12.5 11.265625 C 12.484375 11.257812 12.46875 11.234375 12.46875 11.210938 C 12.46875 11.179688 12.273438 10.984375 12.058594 10.800781 C 11.953125 10.710938 11.53125 10.648438 11.34375 10.695312 M 3.546875 15.765625 C 2.914062 15.859375 2.148438 16.175781 1.664062 16.542969 C 0.886719 17.132812 0.355469 17.917969 0.105469 18.859375 L 0.0195312 19.179688 L 0.0195312 111.621094 L 0.128906 111.976562 C 0.363281 112.726562 0.691406 113.285156 1.207031 113.796875 C 1.71875 114.308594 2.277344 114.636719 3.027344 114.871094 L 3.382812 114.980469 L 91.617188 114.980469 L 91.972656 114.871094 C 92.914062 114.578125 93.640625 114.082031 94.179688 113.363281 C 94.566406 112.84375 94.871094 112.140625 94.945312 111.605469 C 94.957031 111.496094 94.984375 111.394531 95.003906 111.382812 C 95.023438 111.371094 95.039062 91.308594 95.039062 65.316406 C 95.039062 34.632812 95.027344 19.28125 95 19.296875 C 94.976562 19.3125 94.960938 19.28125 94.960938 19.226562 C 94.960938 19.175781 94.925781 19 94.882812 18.832031 C 94.652344 17.9375 94.109375 17.125 93.347656 16.550781 C 92.984375 16.277344 92.371094 15.980469 91.894531 15.851562 L 91.496094 15.742188 L 66.59375 15.734375 L 41.6875 15.722656 L 41.660156 15.949219 C 41.582031 16.65625 41.253906 17.21875 40.703125 17.59375 C 40.371094 17.820312 40.105469 17.914062 39.535156 18.011719 C 39.289062 18.054688 38.910156 18.132812 38.691406 18.1875 C 38.476562 18.242188 38.039062 18.332031 37.722656 18.390625 C 37.40625 18.449219 36.945312 18.546875 36.695312 18.605469 C 36.445312 18.667969 36.085938 18.75 35.902344 18.785156 C 35.71875 18.820312 35.058594 18.972656 34.4375 19.125 C 33.441406 19.367188 33.265625 19.398438 32.925781 19.398438 C 32.464844 19.398438 32.042969 19.28125 31.710938 19.0625 C 31.597656 18.984375 31.488281 18.921875 31.472656 18.921875 C 31.457031 18.921875 31.417969 18.972656 31.382812 19.03125 C 31.292969 19.179688 30.882812 19.578125 30.671875 19.722656 C 29.945312 20.214844 28.824219 20.589844 26.855469 21 C 26.046875 21.167969 25.933594 21.183594 25.234375 21.203125 C 23.78125 21.242188 22.535156 20.996094 21.644531 20.488281 C 21.339844 20.316406 20.730469 19.855469 20.546875 19.65625 C 20.410156 19.511719 20.371094 19.53125 20.460938 19.703125 C 20.617188 20.007812 20.671875 20.296875 20.65625 20.695312 C 20.640625 21.039062 20.625 21.109375 20.492188 21.386719 C 20.203125 21.996094 19.675781 22.375 18.929688 22.519531 C 18.71875 22.558594 18.359375 22.628906 18.128906 22.671875 C 17.902344 22.71875 17.339844 22.855469 16.882812 22.976562 C 16.15625 23.171875 16.003906 23.203125 15.675781 23.203125 C 15.25 23.207031 14.914062 23.117188 14.585938 22.910156 C 14.484375 22.84375 14.386719 22.804688 14.371094 22.820312 C 14.359375 22.839844 14.277344 22.957031 14.191406 23.085938 C 13.84375 23.605469 13.4375 23.8125 12.464844 23.976562 C 12.085938 24.042969 11.527344 24.167969 11.222656 24.257812 C 10.121094 24.582031 9.878906 24.617188 9.398438 24.53125 C 8.796875 24.421875 8.1875 23.960938 7.90625 23.40625 C 7.738281 23.070312 7.703125 22.941406 7.617188 22.378906 C 7.484375 21.453125 7.265625 20.425781 6.90625 19.042969 C 6.621094 17.929688 6.175781 15.925781 6.175781 15.746094 C 6.175781 15.710938 3.808594 15.730469 3.546875 15.765625 M 0.0195312 65.363281 C 0.0195312 90.695312 0.0234375 101.054688 0.03125 88.378906 C 0.0351562 75.707031 0.0351562 54.976562 0.03125 42.316406 C 0.0234375 29.65625 0.0195312 40.027344 0.0195312 65.363281 M 29.238281 45.890625 C 19.734375 57.578125 11.96875 67.148438 11.984375 67.160156 C 12 67.175781 19.773438 70.007812 29.261719 73.457031 L 46.507812 79.726562 L 64.726562 73.769531 C 74.75 70.496094 82.960938 67.804688 82.976562 67.792969 C 83 67.773438 46.898438 25.039062 46.570312 24.699219 C 46.53125 24.65625 43.25 28.671875 29.238281 45.890625 M 11.164062 86.460938 C 11.109375 86.46875 10.894531 86.507812 10.6875 86.542969 C 9.972656 86.664062 9.160156 86.996094 8.515625 87.433594 C 8.105469 87.714844 7.472656 88.355469 7.179688 88.789062 C 5.820312 90.789062 5.644531 93.722656 6.746094 95.914062 C 7.40625 97.226562 8.464844 98.152344 9.863281 98.640625 C 11.332031 99.152344 13.503906 99.023438 14.691406 98.359375 L 14.839844 98.277344 L 15.011719 98.429688 C 15.109375 98.515625 15.484375 98.851562 15.847656 99.179688 C 16.210938 99.503906 16.523438 99.769531 16.539062 99.769531 C 16.582031 99.769531 17.734375 98.578125 17.734375 98.53125 C 17.734375 98.511719 17.40625 98.195312 17.007812 97.835938 L 16.277344 97.175781 L 16.527344 96.847656 C 17.296875 95.832031 17.710938 94.679688 17.808594 93.304688 C 17.984375 90.800781 17.019531 88.554688 15.265625 87.382812 C 14.652344 86.96875 14.039062 86.714844 13.269531 86.550781 C 12.964844 86.484375 12.714844 86.464844 12.074219 86.457031 C 11.625 86.449219 11.21875 86.453125 11.164062 86.460938 M 35.136719 86.761719 C 33.667969 89.882812 32.609375 92.574219 31.53125 95.957031 C 31.234375 96.890625 30.824219 98.199219 30.691406 98.65625 C 30.671875 98.71875 30.753906 98.722656 32.019531 98.722656 C 32.757812 98.722656 33.371094 98.710938 33.382812 98.691406 C 33.394531 98.675781 33.609375 97.976562 33.863281 97.140625 C 34.113281 96.304688 34.335938 95.582031 34.359375 95.535156 L 34.394531 95.445312 L 38.554688 95.445312 L 38.59375 95.535156 C 38.625 95.609375 39.203125 97.472656 39.476562 98.386719 L 39.570312 98.703125 L 40.925781 98.714844 C 42.203125 98.722656 42.28125 98.722656 42.261719 98.65625 C 41.730469 96.835938 40.738281 93.835938 40.117188 92.183594 C 39.449219 90.398438 38.453125 88.066406 37.800781 86.742188 L 37.707031 86.554688 L 35.234375 86.554688 L 35.136719 86.761719 M 73.171875 87.316406 C 71.613281 90.671875 70.648438 93.265625 69.097656 98.28125 L 68.960938 98.722656 L 71.671875 98.722656 L 71.71875 98.574219 C 71.746094 98.496094 71.910156 97.957031 72.085938 97.378906 C 72.261719 96.804688 72.464844 96.132812 72.539062 95.890625 L 72.675781 95.445312 L 76.867188 95.445312 L 77.007812 95.890625 C 77.082031 96.132812 77.308594 96.871094 77.511719 97.527344 L 77.875 98.722656 L 80.582031 98.722656 L 80.433594 98.238281 C 80.347656 97.972656 80.121094 97.242188 79.921875 96.609375 C 78.792969 92.996094 77.734375 90.242188 76.234375 87.023438 L 76.019531 86.558594 L 73.527344 86.558594 L 73.171875 87.316406 M 19.605469 90.929688 C 19.617188 95.066406 19.617188 95.15625 19.703125 95.515625 C 19.925781 96.484375 20.222656 97.078125 20.769531 97.632812 C 21.683594 98.554688 23.148438 99.011719 24.976562 98.949219 C 26.378906 98.898438 27.371094 98.601562 28.230469 97.96875 C 28.519531 97.753906 28.863281 97.402344 29.058594 97.121094 C 29.261719 96.824219 29.527344 96.222656 29.628906 95.828125 C 29.820312 95.074219 29.816406 95.09375 29.835938 90.792969 L 29.851562 86.714844 L 27.195312 86.714844 L 27.195312 90.554688 C 27.191406 92.800781 27.175781 94.539062 27.15625 94.734375 C 27.015625 95.925781 26.558594 96.484375 25.5625 96.6875 C 25.167969 96.765625 24.265625 96.769531 23.886719 96.6875 C 23.277344 96.558594 22.753906 96.175781 22.5 95.667969 C 22.246094 95.152344 22.25 95.195312 22.246094 90.734375 L 22.246094 86.714844 L 19.589844 86.714844 L 19.605469 90.929688 M 43.9375 92.699219 L 43.9375 98.683594 L 51.496094 98.683594 L 51.496094 96.472656 L 46.550781 96.472656 L 46.550781 86.714844 L 43.9375 86.714844 L 43.9375 92.699219 M 53.4375 92.699219 L 53.4375 98.683594 L 56.089844 98.683594 L 56.089844 86.714844 L 53.4375 86.714844 L 53.4375 92.699219 M 58.542969 92.695312 L 58.542969 98.683594 L 61.585938 98.683594 C 64.421875 98.683594 64.664062 98.679688 65.082031 98.609375 C 66.824219 98.308594 67.878906 97.449219 68.230469 96.039062 C 68.332031 95.640625 68.316406 94.695312 68.207031 94.28125 C 68.0625 93.742188 67.832031 93.335938 67.472656 92.972656 C 67.125 92.625 66.921875 92.488281 66.449219 92.300781 L 66.144531 92.175781 L 66.410156 92.023438 C 66.777344 91.8125 67.285156 91.304688 67.449219 90.988281 C 67.644531 90.59375 67.726562 90.210938 67.726562 89.667969 C 67.726562 89.078125 67.648438 88.683594 67.445312 88.257812 C 67.15625 87.648438 66.59375 87.195312 65.828125 86.953125 C 65.15625 86.742188 65.128906 86.742188 61.71875 86.726562 L 58.542969 86.710938 L 58.542969 92.695312 M 79.722656 87.820312 L 79.722656 88.925781 L 83.046875 88.925781 L 83.046875 98.683594 L 85.660156 98.683594 L 85.660156 88.925781 L 88.984375 88.925781 L 88.984375 86.714844 L 79.722656 86.714844 L 79.722656 87.820312 M 11.1875 88.710938 C 10.265625 88.917969 9.617188 89.4375 9.171875 90.328125 C 8.648438 91.386719 8.523438 92.960938 8.863281 94.265625 C 9.207031 95.585938 10.097656 96.480469 11.277344 96.691406 C 11.796875 96.785156 12.71875 96.746094 12.90625 96.628906 C 12.96875 96.585938 12.871094 96.484375 12.195312 95.875 L 11.859375 95.570312 L 12.460938 94.933594 C 12.792969 94.585938 13.074219 94.296875 13.09375 94.296875 C 13.109375 94.296875 13.414062 94.558594 13.769531 94.878906 C 14.125 95.203125 14.433594 95.464844 14.460938 95.464844 C 14.542969 95.464844 14.917969 94.652344 15.019531 94.25 C 15.335938 93.003906 15.207031 91.394531 14.707031 90.367188 C 14.296875 89.527344 13.660156 88.96875 12.84375 88.746094 C 12.503906 88.652344 11.546875 88.632812 11.1875 88.710938 M 61.195312 90.167969 L 61.195312 91.574219 L 62.433594 91.574219 C 64.066406 91.574219 64.390625 91.515625 64.792969 91.15625 C 65.113281 90.867188 65.253906 90.347656 65.15625 89.820312 C 65.066406 89.34375 64.789062 89.046875 64.285156 88.878906 C 64.042969 88.796875 63.941406 88.789062 62.609375 88.777344 L 61.195312 88.761719 L 61.195312 90.167969 M 36.300781 89.617188 C 36.007812 90.363281 35.070312 93.222656 35.070312 93.371094 C 35.070312 93.421875 35.269531 93.429688 36.496094 93.429688 C 37.28125 93.429688 37.921875 93.414062 37.921875 93.394531 C 37.921875 93.375 37.894531 93.285156 37.859375 93.1875 C 37.824219 93.09375 37.644531 92.535156 37.460938 91.949219 C 37.082031 90.753906 36.757812 89.824219 36.585938 89.441406 L 36.46875 89.183594 L 36.300781 89.617188 M 74.523438 89.808594 C 74.203125 90.660156 73.347656 93.28125 73.347656 93.402344 C 73.347656 93.417969 73.996094 93.429688 74.785156 93.429688 L 76.226562 93.429688 L 75.78125 92.039062 C 75.226562 90.300781 74.863281 89.277344 74.777344 89.222656 C 74.761719 89.214844 74.648438 89.476562 74.523438 89.808594 M 61.195312 94.988281 L 61.195312 96.628906 L 62.691406 96.628906 C 64.3125 96.628906 64.53125 96.605469 64.914062 96.414062 C 65.382812 96.175781 65.625 95.78125 65.660156 95.203125 C 65.703125 94.425781 65.449219 93.878906 64.925781 93.613281 C 64.472656 93.382812 64.425781 93.378906 62.75 93.359375 L 61.195312 93.34375 L 61.195312 94.988281 M 36.335938 106.5625 L 36.335938 109.035156 L 36.492188 109.035156 C 36.644531 109.035156 36.644531 109.03125 36.671875 108.851562 L 36.699219 108.671875 L 36.804688 108.769531 C 37.289062 109.234375 38.339844 109.128906 38.835938 108.566406 C 39.621094 107.675781 39.371094 106.121094 38.363281 105.628906 C 38.144531 105.519531 38.054688 105.5 37.742188 105.484375 C 37.328125 105.46875 37.050781 105.535156 36.851562 105.703125 L 36.734375 105.800781 L 36.722656 104.957031 L 36.714844 104.117188 L 36.527344 104.105469 L 36.335938 104.09375 L 36.335938 106.5625 M 52.960938 104.941406 L 52.960938 105.789062 L 52.738281 105.65625 C 52.480469 105.5 52.28125 105.460938 51.859375 105.488281 C 50.984375 105.539062 50.378906 106.257812 50.378906 107.257812 C 50.378906 108.273438 50.964844 108.976562 51.882812 109.0625 C 52.222656 109.09375 52.585938 108.992188 52.800781 108.8125 C 52.976562 108.660156 52.96875 108.660156 53.011719 108.9375 C 53.019531 108.996094 53.058594 109.019531 53.171875 109.027344 L 53.320312 109.039062 L 53.320312 104.097656 L 52.960938 104.097656 L 52.960938 104.941406 M 63.089844 104.152344 C 62.613281 104.28125 62.414062 104.5625 62.390625 105.132812 L 62.375 105.480469 L 62.027344 105.480469 L 62.027344 105.796875 L 62.382812 105.796875 L 62.382812 109.035156 L 62.738281 109.035156 L 62.738281 105.792969 L 64.261719 105.816406 L 64.285156 109.035156 L 64.640625 109.035156 L 64.640625 105.480469 L 62.738281 105.480469 L 62.738281 105.230469 C 62.738281 104.734375 62.878906 104.523438 63.261719 104.445312 L 63.496094 104.394531 L 63.484375 104.257812 C 63.472656 104.140625 63.457031 104.113281 63.371094 104.109375 C 63.320312 104.105469 63.191406 104.121094 63.089844 104.152344 M 71.171875 106.5625 L 71.171875 109.035156 L 71.324219 109.035156 C 71.476562 109.035156 71.480469 109.03125 71.503906 108.855469 L 71.53125 108.679688 L 71.679688 108.796875 C 72.097656 109.128906 72.726562 109.15625 73.28125 108.867188 C 74.273438 108.34375 74.4375 106.691406 73.578125 105.890625 C 73.285156 105.617188 73.003906 105.503906 72.582031 105.484375 C 72.175781 105.46875 71.945312 105.519531 71.722656 105.683594 L 71.566406 105.792969 L 71.558594 104.957031 L 71.546875 104.117188 L 71.171875 104.09375 L 71.171875 106.5625 M 5.945312 104.171875 C 5.953125 104.191406 6.347656 105.300781 6.828125 106.640625 L 7.695312 109.074219 L 8.261719 109.074219 L 8.925781 107.1875 C 9.214844 106.363281 9.507812 105.539062 9.796875 104.71875 L 10.003906 104.132812 L 9.804688 104.144531 L 9.601562 104.15625 L 8.820312 106.40625 C 8.390625 107.644531 8.023438 108.691406 8.007812 108.726562 C 7.984375 108.777344 7.75 108.160156 7.246094 106.734375 C 6.847656 105.597656 6.476562 104.550781 6.421875 104.402344 L 6.324219 104.136719 L 6.128906 104.136719 C 6.019531 104.136719 5.9375 104.152344 5.945312 104.171875 M 29.171875 106.21875 C 29.171875 107.492188 29.1875 108.359375 29.214844 108.445312 C 29.308594 108.792969 29.613281 109.035156 29.953125 109.035156 L 30.121094 109.035156 L 30.121094 108.882812 C 30.121094 108.734375 30.117188 108.726562 29.964844 108.703125 C 29.761719 108.671875 29.613281 108.539062 29.566406 108.34375 C 29.546875 108.257812 29.53125 107.273438 29.53125 106.160156 L 29.527344 104.136719 L 29.171875 104.136719 L 29.171875 106.21875 M 45.878906 106.242188 C 45.878906 107.714844 45.890625 108.390625 45.921875 108.484375 C 46.03125 108.808594 46.324219 109.03125 46.640625 109.035156 C 46.785156 109.035156 46.789062 109.03125 46.789062 108.875 C 46.789062 108.738281 46.777344 108.71875 46.699219 108.71875 C 46.554688 108.71875 46.351562 108.570312 46.289062 108.421875 C 46.242188 108.308594 46.234375 107.929688 46.234375 106.210938 L 46.234375 104.136719 L 45.878906 104.136719 L 45.878906 106.242188 M 64.242188 104.394531 L 64.242188 104.648438 L 64.640625 104.648438 L 64.640625 104.136719 L 64.242188 104.136719 L 64.242188 104.394531 M 75.882812 104.394531 L 75.882812 104.648438 L 76.238281 104.648438 L 76.238281 104.136719 L 75.882812 104.136719 L 75.882812 104.394531 M 78.1875 106.277344 L 78.195312 108.421875 L 78.289062 108.613281 C 78.414062 108.859375 78.613281 108.992188 78.90625 109.023438 L 79.128906 109.046875 L 79.128906 108.882812 C 79.128906 108.742188 79.113281 108.71875 79.046875 108.71875 C 78.890625 108.71875 78.695312 108.605469 78.625 108.476562 C 78.558594 108.351562 78.550781 108.183594 78.539062 106.238281 L 78.527344 104.136719 L 78.175781 104.136719 L 78.1875 106.277344 M 80.75 104.394531 L 80.75 104.648438 L 81.144531 104.648438 L 81.144531 104.136719 L 80.75 104.136719 L 80.75 104.394531 M 87.417969 104.441406 C 87.335938 104.589844 87.242188 104.75 87.210938 104.796875 C 87.15625 104.886719 87.15625 104.886719 87.328125 104.886719 C 87.496094 104.886719 87.503906 104.878906 87.714844 104.582031 C 87.835938 104.414062 87.949219 104.253906 87.964844 104.226562 C 87.992188 104.1875 87.949219 104.175781 87.78125 104.175781 L 87.566406 104.175781 L 87.417969 104.441406 M 16.328125 104.550781 C 16.304688 104.558594 16.238281 104.574219 16.179688 104.585938 L 16.070312 104.613281 L 16.070312 105.480469 L 15.554688 105.480469 L 15.554688 105.796875 L 16.066406 105.796875 L 16.078125 107.070312 C 16.089844 108.269531 16.09375 108.351562 16.175781 108.519531 C 16.324219 108.839844 16.570312 109.003906 16.972656 109.058594 L 17.179688 109.085938 L 17.179688 108.730469 L 16.996094 108.707031 C 16.785156 108.683594 16.636719 108.585938 16.527344 108.398438 C 16.453125 108.273438 16.445312 108.179688 16.433594 107.03125 L 16.421875 105.796875 L 16.789062 105.785156 L 17.160156 105.777344 L 17.183594 105.480469 L 16.816406 105.472656 L 16.445312 105.460938 L 16.4375 104.996094 C 16.429688 104.738281 16.410156 104.53125 16.394531 104.535156 C 16.378906 104.535156 16.351562 104.542969 16.328125 104.550781 M 83.304688 104.566406 L 83.183594 104.589844 L 83.160156 105.480469 L 82.605469 105.480469 L 82.628906 105.777344 L 82.894531 105.789062 L 83.160156 105.796875 L 83.171875 107.109375 C 83.183594 108.378906 83.1875 108.429688 83.273438 108.585938 C 83.417969 108.859375 83.652344 109 84.03125 109.054688 L 84.234375 109.082031 L 84.234375 108.898438 C 84.234375 108.730469 84.226562 108.71875 84.125 108.71875 C 83.921875 108.714844 83.691406 108.578125 83.601562 108.40625 C 83.523438 108.257812 83.519531 108.179688 83.519531 107.023438 L 83.519531 105.796875 L 84.234375 105.796875 L 84.234375 105.480469 L 83.519531 105.480469 L 83.519531 105.003906 C 83.519531 104.648438 83.507812 104.53125 83.472656 104.535156 C 83.445312 104.539062 83.367188 104.550781 83.304688 104.566406 M 12.175781 105.441406 C 12.09375 105.460938 11.917969 105.535156 11.789062 105.605469 C 11.113281 105.964844 10.722656 106.757812 10.839844 107.535156 C 11.0625 108.992188 12.71875 109.613281 13.757812 108.632812 C 14.164062 108.25 14.339844 107.839844 14.339844 107.257812 C 14.339844 106.675781 14.164062 106.265625 13.757812 105.882812 C 13.433594 105.574219 13.101562 105.433594 12.671875 105.417969 C 12.484375 105.410156 12.261719 105.421875 12.175781 105.441406 M 32.617188 105.441406 C 32.378906 105.488281 32.117188 105.589844 31.933594 105.703125 C 31.785156 105.796875 31.785156 105.796875 31.84375 105.914062 C 31.878906 105.980469 31.921875 106.03125 31.941406 106.03125 C 31.960938 106.03125 32.097656 105.976562 32.246094 105.90625 C 32.472656 105.796875 32.574219 105.777344 32.878906 105.761719 C 33.699219 105.726562 34.078125 106.023438 34.082031 106.695312 L 34.082031 106.980469 L 33.925781 106.902344 C 33.273438 106.570312 32.347656 106.664062 31.839844 107.109375 C 31.492188 107.414062 31.402344 107.980469 31.628906 108.433594 C 31.847656 108.867188 32.261719 109.082031 32.894531 109.089844 C 33.324219 109.09375 33.570312 109.027344 33.882812 108.816406 C 33.992188 108.746094 34.085938 108.695312 34.09375 108.710938 C 34.105469 108.726562 34.121094 108.804688 34.136719 108.886719 C 34.164062 109.023438 34.171875 109.035156 34.304688 109.035156 L 34.441406 109.035156 L 34.429688 107.660156 L 34.417969 106.289062 L 34.3125 106.089844 C 34.121094 105.722656 33.808594 105.519531 33.328125 105.441406 C 33.035156 105.394531 32.867188 105.394531 32.617188 105.441406 M 67.453125 105.445312 C 67.242188 105.480469 66.894531 105.617188 66.707031 105.738281 C 66.617188 105.796875 66.617188 105.800781 66.683594 105.914062 C 66.722656 105.980469 66.765625 106.03125 66.78125 106.03125 C 66.796875 106.03125 66.929688 105.976562 67.078125 105.90625 C 67.308594 105.796875 67.410156 105.777344 67.710938 105.761719 C 68.53125 105.726562 68.910156 106.023438 68.914062 106.691406 L 68.914062 106.976562 L 68.707031 106.878906 C 68.40625 106.742188 68.109375 106.691406 67.726562 106.714844 C 67.152344 106.75 66.71875 106.972656 66.480469 107.355469 C 66.378906 107.515625 66.359375 107.59375 66.347656 107.855469 C 66.335938 108.113281 66.347656 108.191406 66.429688 108.371094 C 66.550781 108.632812 66.738281 108.820312 67 108.941406 C 67.558594 109.203125 68.273438 109.144531 68.75 108.796875 C 68.945312 108.65625 68.953125 108.65625 68.953125 108.769531 C 68.957031 108.972656 68.996094 109.035156 69.136719 109.035156 L 69.269531 109.035156 L 69.269531 107.734375 C 69.269531 106.28125 69.253906 106.164062 69.003906 105.875 C 68.820312 105.660156 68.582031 105.527344 68.257812 105.460938 C 67.953125 105.394531 67.773438 105.390625 67.453125 105.445312 M 19.757812 105.507812 C 19.664062 105.539062 19.507812 105.644531 19.410156 105.734375 C 19.21875 105.917969 19.214844 105.914062 19.1875 105.617188 C 19.179688 105.511719 19.164062 105.496094 19.03125 105.488281 L 18.882812 105.472656 L 18.882812 109.035156 L 19.238281 109.035156 L 19.238281 107.796875 C 19.238281 106.371094 19.25 106.296875 19.535156 106.039062 C 19.835938 105.757812 20.300781 105.683594 20.703125 105.851562 C 20.746094 105.871094 20.785156 105.835938 20.832031 105.734375 C 20.871094 105.660156 20.898438 105.585938 20.898438 105.578125 C 20.898438 105.570312 20.808594 105.535156 20.695312 105.5 C 20.4375 105.425781 19.984375 105.425781 19.757812 105.507812 M 23.175781 105.492188 C 22.894531 105.585938 22.691406 105.710938 22.488281 105.914062 C 21.628906 106.769531 21.871094 108.375 22.9375 108.902344 C 23.1875 109.023438 23.28125 109.046875 23.582031 109.0625 C 23.976562 109.085938 24.277344 109.019531 24.574219 108.851562 C 24.765625 108.742188 25.015625 108.53125 25.015625 108.480469 C 25.015625 108.460938 24.960938 108.410156 24.898438 108.363281 L 24.777344 108.277344 L 24.632812 108.40625 C 24.394531 108.613281 24.171875 108.691406 23.769531 108.710938 C 23.472656 108.722656 23.375 108.710938 23.183594 108.640625 C 22.761719 108.480469 22.386719 107.996094 22.335938 107.546875 L 22.316406 107.375 L 23.8125 107.367188 L 25.3125 107.355469 L 25.328125 107.179688 C 25.359375 106.746094 25.148438 106.203125 24.835938 105.886719 C 24.738281 105.789062 24.539062 105.65625 24.390625 105.585938 C 24.15625 105.476562 24.078125 105.460938 23.730469 105.449219 C 23.480469 105.445312 23.277344 105.460938 23.175781 105.492188 M 42.019531 105.492188 C 41.269531 105.738281 40.808594 106.394531 40.808594 107.214844 C 40.808594 108.09375 41.300781 108.800781 42.054688 109.015625 C 42.359375 109.105469 42.875 109.078125 43.183594 108.960938 C 43.394531 108.882812 43.859375 108.554688 43.859375 108.488281 C 43.859375 108.472656 43.804688 108.417969 43.738281 108.367188 L 43.617188 108.277344 L 43.472656 108.40625 C 43.242188 108.605469 43.011719 108.691406 42.632812 108.710938 C 42.234375 108.730469 42.03125 108.683594 41.773438 108.511719 C 41.464844 108.300781 41.234375 107.933594 41.152344 107.503906 L 41.128906 107.375 L 42.640625 107.367188 L 44.15625 107.355469 L 44.167969 107.1875 C 44.199219 106.765625 43.988281 106.214844 43.679688 105.894531 C 43.574219 105.789062 43.390625 105.660156 43.234375 105.585938 C 43 105.476562 42.921875 105.460938 42.570312 105.449219 C 42.324219 105.445312 42.117188 105.460938 42.019531 105.492188 M 56.269531 105.492188 C 55.519531 105.738281 55.058594 106.394531 55.058594 107.214844 C 55.058594 108.09375 55.550781 108.800781 56.304688 109.015625 C 56.609375 109.105469 57.125 109.078125 57.433594 108.960938 C 57.644531 108.882812 58.109375 108.554688 58.109375 108.488281 C 58.109375 108.472656 58.054688 108.417969 57.988281 108.367188 L 57.867188 108.277344 L 57.722656 108.40625 C 57.492188 108.605469 57.261719 108.691406 56.882812 108.710938 C 56.484375 108.730469 56.28125 108.683594 56.023438 108.511719 C 55.714844 108.300781 55.484375 107.933594 55.402344 107.503906 L 55.378906 107.375 L 56.890625 107.367188 L 58.40625 107.355469 L 58.417969 107.1875 C 58.449219 106.757812 58.238281 106.207031 57.917969 105.886719 C 57.816406 105.785156 57.617188 105.648438 57.476562 105.582031 C 57.25 105.476562 57.167969 105.460938 56.820312 105.449219 C 56.574219 105.445312 56.367188 105.460938 56.269531 105.492188 M 86.871094 105.515625 C 86.433594 105.660156 86.117188 105.9375 85.910156 106.367188 C 85.554688 107.105469 85.664062 107.945312 86.199219 108.554688 C 86.765625 109.203125 87.925781 109.25 88.589844 108.652344 C 88.675781 108.574219 88.746094 108.496094 88.746094 108.480469 C 88.746094 108.460938 88.691406 108.410156 88.625 108.363281 L 88.507812 108.277344 L 88.359375 108.40625 C 88.128906 108.609375 87.898438 108.691406 87.511719 108.710938 C 87.121094 108.730469 86.914062 108.675781 86.632812 108.484375 C 86.359375 108.296875 86.054688 107.761719 86.054688 107.46875 L 86.054688 107.375 L 89.0625 107.375 L 89.0625 107.101562 C 89.0625 106.433594 88.703125 105.851562 88.113281 105.570312 C 87.816406 105.425781 87.222656 105.402344 86.871094 105.515625 M 75.882812 107.257812 L 75.882812 109.035156 L 76.238281 109.035156 L 76.238281 105.480469 L 75.882812 105.480469 L 75.882812 107.257812 M 80.789062 107.257812 L 80.789062 109.035156 L 81.144531 109.035156 L 81.144531 105.480469 L 80.789062 105.480469 L 80.789062 107.257812 M 12.359375 105.761719 C 11.929688 105.828125 11.527344 106.140625 11.335938 106.554688 C 11.230469 106.78125 11.222656 106.839844 11.222656 107.257812 C 11.222656 107.683594 11.230469 107.726562 11.347656 107.972656 C 11.496094 108.289062 11.738281 108.535156 12.035156 108.675781 C 12.214844 108.761719 12.308594 108.777344 12.585938 108.777344 C 12.875 108.777344 12.957031 108.761719 13.140625 108.671875 C 13.4375 108.527344 13.683594 108.277344 13.832031 107.96875 C 13.945312 107.726562 13.953125 107.683594 13.953125 107.257812 C 13.953125 106.820312 13.945312 106.789062 13.824219 106.539062 C 13.542969 105.96875 12.972656 105.667969 12.359375 105.761719 M 23.3125 105.808594 C 23.046875 105.882812 22.785156 106.046875 22.640625 106.230469 C 22.492188 106.417969 22.328125 106.792969 22.324219 106.949219 L 22.324219 107.058594 L 23.671875 107.058594 C 24.722656 107.058594 25.015625 107.046875 25.015625 107.011719 C 25.015625 106.925781 24.910156 106.566406 24.859375 106.464844 C 24.582031 105.9375 23.890625 105.644531 23.3125 105.808594 M 42.152344 105.808594 C 41.910156 105.875 41.632812 106.042969 41.5 106.199219 C 41.371094 106.355469 41.222656 106.660156 41.171875 106.890625 L 41.136719 107.058594 L 43.855469 107.058594 L 43.832031 106.929688 C 43.738281 106.390625 43.433594 106.003906 42.984375 105.847656 C 42.742188 105.765625 42.363281 105.746094 42.152344 105.808594 M 56.402344 105.808594 C 55.894531 105.949219 55.5625 106.3125 55.433594 106.851562 L 55.382812 107.058594 L 58.105469 107.058594 L 58.082031 106.929688 C 57.988281 106.390625 57.683594 106.003906 57.234375 105.847656 C 56.992188 105.765625 56.613281 105.746094 56.402344 105.808594 M 87.097656 105.792969 C 86.648438 105.890625 86.292969 106.21875 86.132812 106.6875 C 85.992188 107.097656 85.863281 107.058594 87.40625 107.058594 L 88.757812 107.058594 L 88.730469 106.890625 C 88.691406 106.664062 88.546875 106.355469 88.390625 106.179688 C 88.121094 105.871094 87.542969 105.699219 87.097656 105.792969 M 37.152344 105.875 C 37.046875 105.917969 36.898438 106.007812 36.824219 106.078125 L 36.695312 106.207031 L 36.695312 108.226562 L 36.808594 108.367188 C 36.871094 108.441406 37.019531 108.554688 37.136719 108.621094 C 37.585938 108.867188 38.25 108.710938 38.59375 108.28125 C 39.222656 107.488281 38.953125 106.195312 38.097656 105.875 C 37.816406 105.773438 37.417969 105.769531 37.152344 105.875 M 51.613281 105.855469 C 51.40625 105.921875 51.097656 106.171875 50.964844 106.382812 C 50.792969 106.65625 50.734375 106.917969 50.753906 107.328125 C 50.765625 107.632812 50.789062 107.757812 50.871094 107.933594 C 51.101562 108.433594 51.527344 108.71875 52.039062 108.71875 C 52.375 108.71875 52.550781 108.652344 52.785156 108.433594 L 52.960938 108.273438 L 52.960938 106.15625 L 52.832031 106.058594 C 52.582031 105.871094 52.4375 105.820312 52.113281 105.808594 C 51.910156 105.800781 51.730469 105.816406 51.613281 105.855469 M 71.984375 105.875 C 71.878906 105.917969 71.730469 106.007812 71.660156 106.078125 L 71.527344 106.207031 L 71.527344 108.226562 L 71.640625 108.367188 C 71.703125 108.441406 71.851562 108.554688 71.96875 108.621094 C 72.363281 108.835938 72.925781 108.75 73.3125 108.410156 C 73.511719 108.238281 73.695312 107.875 73.75 107.539062 C 73.84375 107.007812 73.648438 106.390625 73.292969 106.089844 C 72.960938 105.804688 72.402344 105.710938 71.984375 105.875 M 32.8125 107.066406 C 32.207031 107.125 31.863281 107.425781 31.863281 107.902344 C 31.863281 108.390625 32.164062 108.683594 32.753906 108.757812 C 33.195312 108.8125 33.753906 108.648438 33.992188 108.394531 C 34.078125 108.300781 34.082031 108.269531 34.074219 107.789062 L 34.0625 107.28125 L 33.824219 107.1875 C 33.546875 107.074219 33.167969 107.027344 32.8125 107.066406 M 67.648438 107.066406 C 67.207031 107.109375 66.878906 107.304688 66.753906 107.601562 C 66.621094 107.910156 66.726562 108.339844 66.984375 108.535156 C 67.359375 108.820312 68.023438 108.851562 68.511719 108.601562 C 68.90625 108.402344 68.917969 108.378906 68.90625 107.785156 L 68.894531 107.277344 L 68.664062 107.183594 C 68.382812 107.074219 68 107.03125 67.648438 107.066406 "/>
</g>
</svg>
