<svg xmlns="http://www.w3.org/2000/svg" width="2400" height="2911"><path fill="#fbfbfb" fill-rule="evenodd" d="M892 4.425c-9.625 2.358-20.966 5.27-25.201 6.47-6.682 1.893-31.827 7.219-77.799 16.479-6.875 1.385-18.941 3.682-26.813 5.105-17.397 3.145-28.481 7.038-37.469 13.159-8.273 5.634-12.614 10.569-16.928 19.245-1.809 3.639-3.387 6.789-3.505 6.999-.119.21-2.771-1.954-5.895-4.809-10.179-9.302-23-14.285-36.76-14.285-8.235 0-43.225 6.367-65.13 11.851-42.494 10.639-81.048 28.346-104.824 48.143-21.294 17.729-44.254 50.445-52.255 74.454-1.972 5.92-3.7 10.764-3.839 10.764-.138 0-3.198-3.937-6.799-8.75-8.268-11.052-24.042-26.327-33.761-32.694-22.032-14.433-46.814-21.537-75.18-21.55-19.464-.009-33.836 2.341-71.275 11.652-18.737 4.66-45.317 10.868-59.067 13.795-13.75 2.926-27.899 6.501-31.443 7.943-26.026 10.588-41.415 34.075-39.709 60.604.339 5.271 2.308 15.324 5.182 26.463 2.55 9.88 7.037 29.905 9.972 44.5 2.935 14.596 7.819 36.437 10.852 48.537 5.756 22.962 8.607 35.994 16.629 76.022 2.648 13.212 8.886 39.762 13.862 59 8.697 33.618 14.212 59.572 17.632 82.978 2.081 14.242 2.988 17.488 7.251 25.952 7.094 14.088 22.491 25.714 37.706 28.472 12.107 2.195 18.232 1.278 46.066-6.896 7.7-2.261 21.846-5.439 31.435-7.062 24.532-4.152 34.811-9.476 43.549-22.556 2.171-3.25 4.24-6.276 4.596-6.724.357-.448 2.798.549 5.426 2.215 8.232 5.221 16.717 7.52 27.494 7.45 8.299-.053 12.155-.777 30.5-5.727 11.55-3.116 25.725-6.578 31.5-7.694 5.775-1.115 14.868-2.868 20.207-3.895 18.913-3.638 32.207-13.277 39.504-28.642 3.347-7.048 3.778-8.874 4.124-17.494.408-10.156-1.025-17.43-4.947-25.119-2.238-4.387-1.284-4.902 2.188-1.182 4.632 4.963 20.045 16.666 27.712 21.04 22.479 12.826 53.954 19.102 90.683 18.083 17.664-.491 20.602-.858 40.963-5.123 49.78-10.428 78.061-19.923 96.45-32.382 5.344-3.622 15.69-13.707 17.918-17.466.896-1.513 1.943-2.75 2.326-2.75.384 0 3.099 1.587 6.035 3.527 8.347 5.515 19.047 8.473 30.639 8.471 8.574-.003 13.001-.804 38.198-6.913 15.675-3.8 32.325-7.662 37-8.58 4.675-.919 13.675-2.95 20-4.513 6.325-1.563 18.025-4.026 26-5.473 7.975-1.447 19-3.771 24.5-5.163 5.5-1.393 15.057-3.386 21.237-4.431 14.427-2.437 21.158-4.839 29.504-10.529 15.988-10.901 24.081-26.794 24.133-47.396.023-8.925-.524-12.614-3.646-24.59-2.02-7.75-4.384-18.55-5.253-24-2.307-14.469-4.199-21.055-8.303-28.91-7.05-13.491-22.08-24.851-36.672-27.718-3.3-.649-6.149-1.276-6.331-1.395-.182-.119 1.672-2.676 4.121-5.682 13.031-15.998 16.042-37.052 8.827-61.705-1.691-5.775-4.244-16.997-5.675-24.938-3.774-20.948-7.862-30.752-17.117-41.046-2.472-2.749-7.157-6.642-10.412-8.651-6.453-3.983-6.378-3.259-1.033-9.865 4.126-5.101 8.899-16.261 10.166-23.772 1.553-9.208.801-18.596-2.541-31.728-1.47-5.775-3.947-18.15-5.503-27.5-4.03-24.202-7.657-32.336-19.174-42.999C938.189-.977 923.093-3.194 892 4.425m12.218 34.046c-2.355.735-4.83 1.771-5.5 2.302-.67.531-3.693 1.532-6.718 2.224-3.025.693-11.125 2.791-18 4.664-6.875 1.873-18.125 4.318-25 5.432-6.875 1.115-16.1 2.851-20.5 3.858-14.488 3.317-18.669 4.062-19.59 3.493-.501-.309-.91-.178-.91.292 0 .911-12.897 3.72-22 4.791-9.384 1.104-29.873 5.453-35.315 7.496-4.926 1.85-8.669 5.307-11.5 10.622-1.803 3.385-2.413 12.389-1.21 17.855 1.104 5.015 3.282 15.954 4.48 22.5.91 4.971 3.439 14.769 5.087 19.703 1.652 4.951 7.682 34.103 11.025 53.297 4.282 24.596 8.818 44.144 14.684 63.286 1.649 5.382 3.12 11.907 3.268 14.5.149 2.593 1.631 10.564 3.295 17.714 1.664 7.15 3.556 16.6 4.205 21 .649 4.4 1.853 9.575 2.674 11.5.822 1.925 1.88 6.2 2.351 9.5.472 3.3 1.809 10.275 2.972 15.5 1.788 8.041 4.23 20.743 6.675 34.73.31 1.777.906 3.019 1.323 2.761.959-.592 1.955 3.04 1.972 7.198.008 1.755 1.364 8.718 3.014 15.475 1.65 6.757 3.003 13.647 3.006 15.311.003 1.664.412 4.6.908 6.525.497 1.925 1.194 5.21 1.549 7.301.463 2.722 2.071 5.255 5.661 8.922 8.206 8.381 12.403 8.711 36.376 2.866 4.4-1.072 13.175-3.146 19.5-4.608 6.325-1.461 13.217-3.301 15.316-4.087 2.099-.787 4.173-1.21 4.61-.94 1.24.767 19.29-3.018 33.074-6.935 6.875-1.954 16.55-4 21.5-4.547 4.95-.547 13.725-2.284 19.5-3.86s15.9-3.861 22.5-5.078c19.352-3.569 24.906-7.046 27.652-17.313 1.444-5.398.779-9.786-5.212-34.421-2.167-8.911-3.94-18.6-3.94-21.532 0-4.386-.637-6.348-3.595-11.077-6.204-9.919-14.77-12.497-27.554-8.293-13.402 4.408-27.095 7.504-35.851 8.106-4.675.321-13.708 1.503-20.074 2.626-19.766 3.487-22.967 1.278-28.49-19.656-5.586-21.171-5.524-27.143.337-32.755 5.583-5.347 11.629-7.193 38.727-11.828 29.048-4.968 32.936-6.207 38.164-12.161 6.467-7.365 6.668-17.547.678-34.23-1.382-3.85-2.72-8.8-2.972-11-2.075-18.109-5.389-30.313-9.504-35-5.69-6.48-12.02-6.674-32.866-1.004-5.225 1.421-14.675 3.506-21 4.633-6.325 1.127-13.608 2.427-16.183 2.889-2.576.462-5.584 1.322-6.685 1.911-4.69 2.51-13.278-.394-16.623-5.621-.989-1.545-2.632-3.613-3.653-4.597-1.021-.984-1.856-2.697-1.856-3.808 0-1.11-.939-6.551-2.087-12.09-2.321-11.201-1.991-15.731 1.375-18.867 5.139-4.787 11.077-6.936 30.041-10.872 25.313-5.253 41.837-9.492 47.287-12.13 11.097-5.372 12.685-13.73 7.026-36.969-1.946-7.989-4.067-18.789-4.714-24-1.409-11.344-3.987-17.942-8.589-21.982-3.212-2.821-3.882-2.989-11.624-2.926-4.518.037-10.142.668-12.497 1.404M646 90.481c-2.475.804-10.442 2.45-17.704 3.66-7.262 1.209-12.998 2.532-12.747 2.938.251.407-2.807 1.271-6.796 1.921-9.755 1.59-18.553 4.273-35.253 10.751-7.7 2.986-15.708 6.069-17.796 6.85-13.393 5.012-26.696 13.088-40.93 24.847-15.904 13.139-34.849 39.968-41.338 58.543-2.54 7.268-3.278 10.189-5.942 23.509-.77 3.85-2.127 10.375-3.016 14.5-4.79 22.222.58 77.273 11.442 117.302 2.726 10.046 6.141 21.4 7.589 25.232 1.448 3.831 3.991 10.566 5.651 14.966 1.661 4.4 3.054 8.563 3.096 9.25.043.688.452 1.25.911 1.25.458 0 .833.471.833 1.047 0 1.896 9.939 20.975 13.946 26.771 5.183 7.497 17.941 21.573 26.054 28.744 3.575 3.16 9.772 8.713 13.771 12.341 7.057 6.404 18.388 14.097 20.761 14.097.644 0 3.198 1.078 5.677 2.396 5.628 2.993 17.538 6.11 29.291 7.668 14.195 1.881 43.455 1.757 53-.225 4.4-.913 11.15-2.219 15-2.901 3.85-.683 11.275-2.112 16.5-3.176s11.844-2.349 14.709-2.856c8.424-1.489 41.838-13.498 46.502-16.712 2.359-1.626 6.314-4.809 8.789-7.075 2.474-2.265 4.797-4.119 5.16-4.119.364 0 1.602-1.942 2.751-4.316 2.644-5.463 2.694-12.445.16-22.517-1.061-4.217-2.222-9.917-2.58-12.667-1.234-9.469-3.467-20.587-4.535-22.583-.589-1.1-1.264-4.509-1.499-7.574-.419-5.468-1.373-9.302-6.056-24.343-2.731-8.773-5.898-23.082-6.915-31.25-.394-3.163-1.163-5.75-1.708-5.75-.546 0-.704-.752-.351-1.67.352-.919.148-1.974-.454-2.346-.602-.373-1.088-2.658-1.08-5.08.007-2.422-1.749-11.829-3.903-20.904s-4.66-20.325-5.569-25c-.908-4.675-2.5-11.768-3.536-15.761-1.037-3.994-1.889-8.494-1.895-10-.013-3.604-4.102-12.175-7.108-14.896-3.856-3.492-10.261-6.366-15.498-6.953-3.784-.425-7.586.241-16.884 2.955-6.6 1.927-14.925 4.217-18.5 5.089-3.575.871-8.75 2.23-11.5 3.019-2.75.789-8.825 1.955-13.5 2.591-11.771 1.602-27.912 5.328-31.504 7.271-4.115 2.227-6.715 4.549-9.864 8.811-4.018 5.436-3.952 16.237.202 32.874 1.716 6.875 3.58 15.766 4.141 19.758 2.458 17.489 4.919 23.445 11.358 27.492 5.028 3.159 8.374 3.41 15.068 1.129 5.756-1.961 12.76-1.396 16.401 1.323 4.885 3.646 6.293 6.712 8.211 17.878 1.031 6.006 2.812 13.529 3.957 16.718 4.306 11.995 3.368 19.925-2.731 23.078-4.461 2.307-15.669 3.924-23.653 3.411-8.327-.534-13.641-3.157-20.234-9.989-4.835-5.009-23.355-30.924-26.486-37.06-4.144-8.124-6.956-18.445-10.827-39.738-3.241-17.83-4.092-25.347-4.988-44.035-1.143-23.843-.869-27.421 3.035-39.504 1.818-5.628 3.338-7.957 9.294-14.241 5.61-5.92 8.817-8.338 15.12-11.402 8.908-4.33 20.908-8.225 30-9.736 3.3-.549 8.7-1.464 12-2.034 8.337-1.44 13.716-1.306 20.751.517 6.172 1.599 11.46 1.107 19.025-1.773 4.06-1.545 11.517-10.309 12.788-15.029 1.364-5.068-.24-14.479-7.033-41.263-2.65-10.45-5.343-22.179-5.984-26.065-1.313-7.961-5.621-16.455-9.703-19.129-3.588-2.351-19.086-2.855-25.344-.825m-339.5 81.697c-7.7.485-16.025 1.577-18.5 2.427-2.475.85-15.3 4.218-28.5 7.485-13.2 3.266-28.725 7.11-34.5 8.54-10.779 2.671-19.967 4.526-23.5 4.746-1.1.068-2.225.387-2.5.708-.275.32-6.516 1.754-13.868 3.186-11.197 2.18-14.232 3.177-18.691 6.138-9.495 6.304-12.894 15.301-10.517 27.842 1.82 9.598 5.262 23.127 6.189 24.318.457.588 1.51 5.538 2.34 11 .83 5.463 2.637 14.432 4.016 19.932 1.379 5.5 3.418 14.95 4.53 21 1.112 6.05 2.711 13.25 3.554 16 .842 2.75 2.406 9.5 3.477 15 1.071 5.5 2.629 12.925 3.463 16.5 4.304 18.455 6.554 29.182 7.447 35.5.544 3.85 1.905 9.658 3.024 12.907 1.12 3.248 2.036 7.614 2.036 9.7 0 4.28 1.33 11.317 3.948 20.893.977 3.575 2.328 10.1 3.002 14.5.673 4.4 2.085 9.97 3.137 12.377 1.052 2.408 1.911 5.783 1.908 7.5-.003 1.718.672 5.148 1.499 7.623 5.03 15.055 6.686 21.071 8.061 29.294.846 5.063 2.193 10.903 2.992 12.976.799 2.074 1.453 5.557 1.453 7.741 0 2.184 1.078 9.263 2.396 15.73 1.317 6.468 2.923 14.909 3.567 18.759.644 3.85 1.399 8.226 1.678 9.724.278 1.498 2.518 4.961 4.976 7.695 6.519 7.251 9.333 7.464 28.691 2.175 29.804-8.144 36.841-9.726 47.192-10.61 14.114-1.206 20.51-5.674 20.488-14.311-.006-2.57-.712-7.148-1.568-10.173-.856-3.025-2.146-8.661-2.866-12.525-.72-3.863-2.228-10.388-3.351-14.5-1.123-4.111-2.552-10.309-3.175-13.774-.624-3.464-2.46-10.607-4.081-15.873-3.596-11.682-3.891-19.164-.864-21.903 2.043-1.849 2.153-1.845 5.75.202 2.017 1.149 6.732 6.066 10.479 10.928 3.747 4.862 8.307 10.495 10.135 12.518 1.827 2.023 4.571 5.871 6.098 8.552 1.526 2.681 4.232 6.45 6.014 8.375 4.349 4.699 20.021 24.652 24.705 31.454 8.32 12.081 14.721 13.77 33.236 8.769a3222.85 3222.85 0 0 0 18.5-5.057c4.125-1.148 14.7-3.445 23.5-5.104 21.539-4.063 26.184-5.546 30.319-9.681 3.226-3.226 3.399-3.741 2.974-8.858-.616-7.431-4.205-12.787-22.329-33.318-7.127-8.073-11.341-13.54-17.433-22.617C441.49 456.333 419.406 430 418.024 430c-1.314 0-9.024-13.456-9.024-15.751 0-1.172 2.531-5.825 5.624-10.342 4.788-6.991 8.848-14.677 12.364-23.407 1.736-4.31 5.204-17.755 6.117-23.719 3.822-24.961 3.889-25.874 2.91-39.575-.533-7.458-1.345-13.818-1.803-14.133-.459-.315-1.334-4.398-1.946-9.073-.611-4.675-2.518-13-4.237-18.5-1.719-5.5-4.055-13.15-5.19-17-4.401-14.926-7.213-21.741-13.074-31.685-12.983-22.031-25.95-35.359-44.115-45.343-7.669-4.216-9.479-4.795-25.038-8.013-12.681-2.623-12.738-2.625-34.112-1.281m-19.946 98.549c-2.584.657-8.635 4.544-10.734 6.895-.925 1.035-2.202 3.231-2.84 4.88-1.603 4.149-1.333 17.433.396 19.426.749.865 1.199 2.022.999 2.572-.2.55.789 6.175 2.199 12.5 1.409 6.325 2.69 12.175 2.845 13 1.418 7.516 1.989 9.772 2.914 11.5.588 1.1 1.204 2.9 1.369 4 .38 2.539 6.51 7.864 12.115 10.524 4.228 2.007 10.937 2.433 14.183.9.825-.39 2.625-1.225 4-1.856 7.836-3.596 10.276-6.604 12.332-15.201 1.447-6.052 1.269-16.897-.399-24.367-.614-2.75-1.241-6.125-1.394-7.5-.694-6.259-2.066-10.862-4.905-16.457-1.686-3.324-3.418-6.193-3.85-6.376-.431-.184-.784-.791-.784-1.349 0-.85-4.913-5.816-10.336-10.449-2.671-2.281-13.385-3.844-18.11-2.642m452.122 890.935c-240.147 295.781-436.303 538.068-435.903 538.415.4.347 196.802 72.04 436.45 159.316l435.723 158.685 460.277-150.709c253.152-82.891 460.616-150.994 461.03-151.342.547-.46-911.462-1082.176-919.699-1090.838-1.01-1.062-83.969 100.577-437.878 536.473M282 2188.591c-1.375.242-6.775 1.162-12 2.045-18.091 3.058-38.593 11.504-54.826 22.59-10.396 7.098-26.403 23.319-33.824 34.274-34.286 50.615-38.769 124.881-10.89 180.408 16.687 33.237 43.389 56.623 78.74 68.964 37.048 12.932 91.925 9.738 121.981-7.101l3.682-2.062 4.403 3.895c2.422 2.143 11.919 10.646 21.104 18.896 9.186 8.25 17.038 15 17.449 15 1.115 0 30.181-30.188 30.181-31.347 0-.547-8.269-8.495-18.376-17.661l-18.375-16.666 6.284-8.333c19.414-25.739 29.909-54.838 32.345-89.675 4.429-63.35-19.913-120.182-64.211-149.913-15.532-10.424-30.949-16.861-50.401-21.043-7.712-1.658-14.078-2.164-30.266-2.405-11.275-.168-21.625-.107-23 .134m605.676 7.659c-37.14 78.933-63.835 147.113-91.131 232.75-7.51 23.561-17.78 56.674-21.168 68.25-.48 1.642 1.579 1.75 33.497 1.75 18.704 0 34.228-.356 34.497-.792.27-.435 5.703-18.098 12.074-39.25 6.371-21.152 12.017-39.47 12.548-40.708l.964-2.25h105.086l.959 2.25c.834 1.954 15.36 49.091 22.265 72.25l2.386 8 34.245.263c32.309.249 34.216.164 33.733-1.5-13.369-46.039-38.464-121.984-54.132-163.82-16.928-45.197-42.035-104.24-58.552-137.693l-2.346-4.75h-62.454l-2.471 5.25m960.899 14.01c-39.413 84.959-63.742 150.556-102.917 277.49l-3.472 11.25h68.478l1.202-3.75c.662-2.062 4.815-15.675 9.231-30.25 4.416-14.575 9.591-31.562 11.5-37.75l3.472-11.25h105.815l3.536 11.25c1.944 6.188 7.676 24.863 12.737 41.5l9.202 30.25h68.423l-3.806-12.25c-2.093-6.738-7.879-25.3-12.859-41.25-28.556-91.476-55.317-161.187-93.176-242.718l-5.441-11.719-31.5-.021-31.5-.022-8.925 19.24M495.26 2301.75c.33 104.714.377 106.927 2.466 116.027 5.636 24.557 13.188 39.528 27.026 53.571 23.016 23.357 60.038 34.978 106.239 33.347 35.449-1.251 60.523-8.831 82.195-24.848 7.292-5.389 15.957-14.287 20.877-21.439 5.172-7.517 11.888-22.759 14.412-32.711 4.849-19.116 4.826-18.559 5.25-127.447l.401-103.25H687l-.008 97.25c-.005 56.831-.415 100.783-.986 105.75-3.465 30.126-15.003 44.31-40.214 49.433-9.977 2.028-32.798 2.058-42.292.056-15.472-3.263-28.69-13.025-35.044-25.88-6.441-13.034-6.382-11.887-6.421-124.859L562 2195h-67.077l.337 106.75M1110 2346.5V2498h191v-56h-125v-247h-66v151.5m240 0V2498h67v-303h-67v151.5m129-.054V2498h76.901c71.592 0 77.685-.134 88.27-1.944 44.022-7.526 70.662-29.285 79.587-65.006 2.511-10.051 2.159-34.062-.654-44.55-3.645-13.588-9.404-23.851-18.574-33.099-8.744-8.818-13.87-12.2-25.766-16.996l-7.775-3.135 6.756-3.873c9.309-5.336 22.126-18.185 26.19-26.253 5.027-9.982 7.065-19.601 7.065-33.346 0-14.978-1.977-24.936-7.096-35.744-7.305-15.424-21.487-26.854-40.904-32.966-16.977-5.344-17.633-5.381-103.75-5.803l-80.25-.394v151.555M2014 2223v28h84v247h66v-247h84v-56h-234v28m-1731.346 22.572c-23.351 5.212-39.681 18.343-50.897 40.928-13.292 26.768-16.446 66.657-7.878 99.646 8.68 33.419 31.237 56.115 61.06 61.435 13.117 2.34 36.375 1.405 41.112-1.652 1.566-1.012-.886-3.614-17.982-19.084l-8.43-7.629 15.173-16.115c8.346-8.863 15.514-16.139 15.931-16.169.416-.03 8.103 6.611 17.082 14.757 8.979 8.146 16.854 14.811 17.5 14.811 2.12 0 11.565-20.54 14.153-30.78 7.969-31.526 4.682-72.208-7.934-98.22-10.333-21.304-26.466-35.386-47.044-41.065-8.602-2.375-32.835-2.874-41.846-.863M1546 2282.432V2318l31.25-.008c41.292-.01 49.5-1.467 59.646-10.588 8.103-7.286 11.646-20.43 9.119-33.827-2.266-12.007-9.225-19.557-21.93-23.795-6.192-2.065-8.721-2.217-42.335-2.557l-35.75-.361v35.568m-628.974-13.919c-7.4 18.862-31.026 91.214-31.026 95.016 0 1.267 4.985 1.471 36 1.471 19.882 0 36-.391 36-.874 0-.481-.697-2.844-1.55-5.25-.852-2.407-5.396-16.526-10.096-31.376-9.57-30.23-17.772-53.776-22.115-63.487l-2.902-6.488-4.311 10.988m965.665 4.789c-8.04 21.553-29.691 87.905-29.691 90.992 0 .388 16.359.706 36.352.706h36.353l-11.219-35.25c-13.983-43.937-23.235-69.859-25.414-71.205-.392-.242-3.263 6.399-6.381 14.757M1546 2404.419V2446l37.75-.017c40.97-.019 46.531-.558 56.165-5.44 11.842-6.001 18.023-16.045 18.855-30.639 1.12-19.651-5.292-33.577-18.553-40.293-11.47-5.808-12.587-5.937-54.967-6.371l-39.25-.401v41.58m-628 293.026V2760h3.886c3.854 0 3.893-.039 4.579-4.612l.691-4.613 2.672 2.559c12.217 11.699 38.778 9.009 51.278-5.192 19.814-22.51 13.52-61.847-11.899-74.361-5.56-2.737-7.845-3.26-15.752-3.606-10.441-.457-17.43 1.25-22.466 5.488l-2.949 2.481-.27-21.322-.27-21.322-4.75-.305-4.75-.305v62.555m420-41.018v21.427l-5.619-3.384c-6.526-3.929-11.553-4.895-22.203-4.264-22.197 1.315-37.43 19.546-37.427 44.794.004 25.685 14.824 43.503 38.009 45.698 8.507.806 17.744-1.726 23.135-6.34 4.431-3.793 4.281-3.881 5.324 3.142.226 1.521 1.193 2.074 4.039 2.31l3.742.311V2635h-9v21.427m255.803-20.049c-12.018 3.29-17.061 10.398-17.647 24.872l-.355 8.75H1567v8h9v82h9v-82.043l19.25.271 19.25.272.261 40.75.261 40.75H1633v-90h-48v-6.257c0-12.598 3.552-17.952 13.234-19.952l5.862-1.211-.298-3.54c-.249-2.963-.705-3.573-2.798-3.744-1.375-.112-4.614.375-7.197 1.082M1798 2697.445V2760h3.886c3.84 0 3.895-.055 4.561-4.498l.675-4.498 3.689 2.953c10.572 8.462 26.52 9.157 40.51 1.765 25.035-13.23 29.204-54.991 7.515-75.279-7.434-6.954-14.492-9.835-25.182-10.28-10.268-.428-16.061.9-21.682 4.972l-3.932 2.849-.27-21.242-.27-21.242-4.75-.305-4.75-.305v62.555m-1647.833-60.566c.183.483 10.213 28.608 22.288 62.5L194.41 2761h14.311l16.789-47.75a63830.289 63830.289 0 0 1 22.02-62.548l5.231-14.798-5.096.298-5.095.298-19.765 57c-10.871 31.35-20.111 57.787-20.535 58.748-.533 1.21-6.439-14.352-19.167-50.5-10.118-28.736-19.508-55.285-20.866-58.998l-2.469-6.75h-4.967c-2.732 0-4.818.396-4.634.879m586.839 51.871c.003 32.252.396 54.156 1.01 56.368 2.437 8.772 10.112 14.882 18.696 14.882H761v-3.872c0-3.736-.139-3.895-3.948-4.504-5.223-.835-8.944-4.203-10.08-9.124-.509-2.2-.935-27.062-.948-55.25L746 2636h-9l.006 52.75m421.994.601c0 37.225.344 54.378 1.138 56.75 2.733 8.163 10.13 13.83 18.112 13.877 3.712.022 3.75-.019 3.75-3.978 0-3.48-.292-4-2.25-4.004-3.595-.006-8.748-3.747-10.31-7.486-1.191-2.85-1.44-12.521-1.44-55.978V2636h-9v53.351m464-46.851v6.5h10v-13h-10v6.5m294 0v6.5h9v-13h-9v6.5m58.217 47.75.283 54.25 2.371 4.816c3.068 6.231 8.137 9.623 15.52 10.385l5.609.579v-4.14c0-3.495-.317-4.14-2.032-4.14-3.932 0-8.834-2.84-10.652-6.171-1.679-3.077-1.839-7.353-2.122-56.579l-.306-53.25h-8.954l.283 54.25M2040 2642.5v6.5h10v-13h-10v6.5m168.42 1.25c-2.063 3.713-4.404 7.762-5.201 9-1.424 2.212-1.375 2.25 2.916 2.226 4.287-.023 4.463-.16 9.865-7.69 3.025-4.217 5.86-8.256 6.3-8.976.621-1.018-.42-1.31-4.664-1.31h-5.464l-3.752 6.75m-1795.92 2.741c-.55.184-2.238.607-3.75.941l-2.75.606V2670h-13v8h12.875l.312 32.25c.295 30.419.433 32.505 2.433 36.75 3.793 8.051 9.997 12.217 20.212 13.572l5.168.686v-8.998l-4.614-.52c-5.349-.603-9.065-3.055-11.886-7.845-1.864-3.165-2.021-5.512-2.314-34.607l-.314-31.211 9.314-.289 9.314-.288.308-3.712.308-3.711-9.308-.289-9.308-.288-.282-11.75c-.155-6.463-.605-11.714-1-11.671-.395.043-1.168.229-1.718.412m1692 .385-3 .64-.283 11.242-.283 11.242h-14.055l.311 3.75.31 3.75 6.7.295 6.7.294.3 33.206c.29 32.102.374 33.343 2.522 37.36 3.672 6.868 9.561 10.509 19.125 11.824l5.153.709v-4.594c0-4.34-.152-4.595-2.75-4.616-5.144-.041-10.974-3.516-13.191-7.863-1.948-3.817-2.059-5.714-2.059-35.075V2678h18v-8h-18v-12c0-8.996-.313-11.97-1.25-11.882-.687.065-2.6.407-4.25.758m-1796.882 22.173c-2.136.536-6.52 2.38-9.743 4.098-17.085 9.106-26.984 29.248-24.01 48.853 5.593 36.875 47.461 52.666 73.74 27.813 10.264-9.708 14.632-20.1 14.632-34.813 0-14.713-4.368-25.105-14.632-34.813-8.224-7.778-16.573-11.363-27.431-11.78-4.771-.183-10.421.106-12.556.642m516.382.036c-5.96 1.148-12.634 3.699-17.264 6.6-3.741 2.344-3.755 2.377-2.225 5.337.847 1.638 1.928 2.978 2.402 2.978.475 0 3.95-1.446 7.725-3.213 5.771-2.702 8.31-3.277 15.968-3.613 20.709-.909 30.321 6.558 30.372 23.596l.022 7.271-3.97-2.025c-16.42-8.378-39.806-6.054-52.661 5.233-8.802 7.728-11.068 22.031-5.314 33.545 5.484 10.975 16.001 16.442 31.945 16.608 10.904.113 17.137-1.611 25.025-6.919 2.723-1.832 5.122-3.028 5.331-2.657.21.371.686 2.362 1.058 4.424.63 3.493.917 3.75 4.19 3.75h3.514l-.309-34.75-.309-34.75-2.686-5.09c-4.856-9.203-12.715-14.377-24.82-16.341-7.456-1.21-11.644-1.206-17.994.016m880.043.054c-5.264.872-14.094 4.371-18.824 7.459-2.231 1.456-2.243 1.554-.534 4.445.96 1.626 2.049 2.957 2.418 2.957.37 0 3.76-1.446 7.535-3.213 5.771-2.702 8.31-3.277 15.968-3.613 20.676-.908 30.32 6.563 30.372 23.53l.022 7.204-5.25-2.434c-7.602-3.524-15.063-4.793-24.75-4.209-14.561.877-25.484 6.496-31.479 16.191-2.543 4.114-3.077 6.116-3.374 12.651-.299 6.588.017 8.568 2.093 13.078 3.054 6.635 7.765 11.373 14.366 14.45 14.172 6.605 32.155 5.116 44.28-3.667 4.914-3.56 5.11-3.588 5.128-.718.031 5.229 1.069 6.75 4.603 6.75H1750v-32.885c0-36.826-.416-39.736-6.735-47.118-4.631-5.411-10.659-8.762-18.901-10.508-7.621-1.615-12.217-1.694-20.321-.35m-1204.899 1.559c-2.396.847-6.343 3.442-8.77 5.768-4.814 4.612-4.912 4.56-5.6-2.966-.245-2.686-.666-3.032-4.024-3.31l-3.75-.311V2760h9v-31.322c0-36.063.317-37.95 7.479-44.552 7.671-7.071 19.412-8.942 29.571-4.711 1.105.46 2.039-.379 3.25-2.919.935-1.96 1.7-3.756 1.7-3.991 0-.235-2.332-1.12-5.182-1.966-6.511-1.934-17.972-1.857-23.674.159m86.356-.35c-7.067 2.336-12.268 5.515-17.367 10.614-21.698 21.698-15.585 62.315 11.385 75.644 6.311 3.119 8.625 3.71 16.226 4.144 9.938.566 17.616-1.087 25.046-5.394 4.844-2.808 11.21-8.141 11.21-9.391 0-.456-1.36-1.797-3.022-2.981l-3.023-2.152-3.677 3.228c-5.98 5.252-11.663 7.267-21.778 7.723-7.468.338-9.981.037-14.762-1.764-10.664-4.019-20.228-16.315-21.506-27.65l-.489-4.345 37.878-.262 37.879-.262.325-4.5c.789-10.91-4.453-24.68-12.43-32.658-2.472-2.471-7.509-5.91-11.194-7.641-5.911-2.777-7.88-3.18-16.701-3.412-6.303-.166-11.479.225-14 1.059m476 0c-18.928 6.258-30.5 22.809-30.5 43.623 0 22.183 12.353 40.087 31.445 45.575 7.683 2.209 20.748 1.558 28.555-1.422 5.242-2.002 17-10.267 17-11.951 0-.438-1.37-1.81-3.046-3.049l-3.045-2.251-3.654 3.208c-5.807 5.099-11.685 7.231-21.255 7.71-10.069.504-15.117-.676-21.624-5.055-7.892-5.31-13.648-14.647-15.706-25.474l-.615-3.238 38.222-.262 38.223-.262.306-4.221c.778-10.73-4.481-24.674-12.367-32.788-2.618-2.694-7.292-5.936-11.214-7.779-5.938-2.79-7.896-3.19-16.725-3.423-6.303-.166-11.479.225-14 1.059m360 0c-18.928 6.258-30.5 22.809-30.5 43.623 0 22.183 12.353 40.087 31.445 45.575 7.683 2.209 20.748 1.558 28.555-1.422 5.242-2.002 17-10.267 17-11.951 0-.438-1.37-1.81-3.046-3.049l-3.045-2.251-3.654 3.208c-5.807 5.099-11.685 7.231-21.255 7.71-10.069.504-15.117-.676-21.624-5.055-7.892-5.31-13.648-14.647-15.706-25.474l-.615-3.238 38.222-.262 38.223-.262.306-4.221c.79-10.895-4.563-24.878-12.6-32.915-2.601-2.601-7.605-6.065-11.203-7.756-5.691-2.674-7.751-3.088-16.503-3.319-6.303-.166-11.479.225-14 1.059m773.18.565c-11.083 3.645-19.05 10.729-24.279 21.587-9.006 18.702-6.219 39.954 7.261 55.364 14.349 16.403 43.638 17.605 60.383 2.476 2.175-1.965 3.955-3.94 3.955-4.388 0-.449-1.36-1.784-3.022-2.968l-3.023-2.152-3.677 3.228c-5.864 5.15-11.687 7.251-21.455 7.742-9.901.497-15.113-.842-22.166-5.694-6.981-4.803-14.657-18.307-14.657-25.786V2718h76v-6.911c0-16.947-9.071-31.639-23.963-38.812-7.505-3.615-22.526-4.269-31.357-1.364M1917 2715v45h9v-90h-9v45m124 0v45h9v-90h-9v45m-1728.783-37.821c-10.827 1.668-20.974 9.557-25.837 20.087-2.645 5.725-2.88 7.173-2.88 17.734 0 10.829.184 11.888 3.155 18.159 3.782 7.983 9.876 14.217 17.345 17.744 4.577 2.161 6.927 2.597 14 2.597 7.214 0 9.333-.409 14.007-2.705 7.476-3.671 13.655-9.996 17.385-17.795 2.921-6.11 3.108-7.191 3.108-18.021 0-10.999-.149-11.823-3.281-18.185-7.092-14.406-21.442-22.013-37.002-19.615m276.712 1.125c-6.647 1.885-13.277 6.085-16.975 10.754-3.765 4.754-7.896 14.231-7.93 18.192L564 2710h34c26.54 0 33.997-.274 33.988-1.25-.02-2.143-2.637-11.222-3.976-13.796-6.948-13.357-24.43-20.805-39.083-16.65m476 .001c-6.138 1.739-13.11 5.936-16.483 9.925-3.318 3.923-6.989 11.684-8.288 17.52l-.945 4.25h68.737l-.568-3.25c-2.381-13.634-10.103-23.476-21.497-27.402-6.035-2.079-15.613-2.555-20.956-1.043m360 0c-12.829 3.633-21.276 12.747-24.509 26.445l-1.24 5.25h68.77l-.568-3.25c-2.381-13.634-10.103-23.476-21.497-27.402-6.035-2.079-15.613-2.555-20.956-1.043m775.397-.321c-11.272 2.393-20.276 10.745-24.351 22.589-3.567 10.368-6.776 9.427 32.153 9.427h34.128l-.675-4.25c-.915-5.764-4.601-13.564-8.518-18.025-6.833-7.782-21.461-12.135-32.737-9.741m-1261.745 2.03c-2.705 1.057-6.418 3.374-8.25 5.15l-3.331 3.228v51.152l2.894 3.512c1.592 1.931 5.305 4.828 8.25 6.438 11.409 6.234 28.213 2.32 36.826-8.576 15.872-20.079 9.142-52.746-12.537-60.857-7.107-2.659-17.111-2.679-23.852-.047m365.328-.519c-5.185 1.663-12.978 8.062-16.346 13.421-4.353 6.926-5.822 13.459-5.383 23.931.322 7.704.928 10.787 2.997 15.273 5.846 12.67 16.525 19.878 29.451 19.879 8.578.001 12.962-1.658 18.939-7.168l4.433-4.086v-53.643l-3.25-2.433c-6.334-4.742-9.991-6.011-18.25-6.333-5.117-.201-9.654.217-12.591 1.159m514.672.519c-2.705 1.057-6.418 3.374-8.25 5.15l-3.331 3.228v51.152l2.894 3.512c1.592 1.931 5.305 4.83 8.25 6.441 10.013 5.478 24.235 3.255 33.994-5.313 4.991-4.383 9.589-13.555 11.042-22.031 2.316-13.5-2.567-29.048-11.53-36.721-8.414-7.202-22.563-9.52-33.069-5.418m-989.615 30.123c-15.297 1.535-23.95 9.174-23.961 21.153-.011 12.445 7.6 19.784 22.495 21.691 11.125 1.425 25.232-2.737 31.281-9.228 2.164-2.323 2.267-3.105 2-15.29l-.281-12.843-5.957-2.393c-7.08-2.844-16.582-3.992-25.577-3.09m880 0c-11.1 1.114-19.369 6.086-22.585 13.581-3.369 7.85-.69 18.656 5.864 23.655 9.456 7.213 26.25 7.953 38.586 1.701 9.976-5.056 10.277-5.681 9.95-20.668l-.281-12.898-5.87-2.328c-7.028-2.786-16.74-3.938-25.664-3.043"/><path fill="#0f8fd8" fill-rule="evenodd" d="M904.218 38.471c-2.355.735-4.83 1.771-5.5 2.302-.67.531-3.693 1.532-6.718 2.224-3.025.693-11.125 2.791-18 4.664-6.875 1.873-18.125 4.318-25 5.432-6.875 1.115-16.1 2.851-20.5 3.858-14.488 3.317-18.669 4.062-19.59 3.493-.501-.309-.91-.178-.91.292 0 .911-12.897 3.72-22 4.791-9.384 1.104-29.873 5.453-35.315 7.496-4.926 1.85-8.669 5.307-11.5 10.622-1.803 3.385-2.413 12.389-1.21 17.855 1.104 5.015 3.282 15.954 4.48 22.5.91 4.971 3.439 14.769 5.087 19.703 1.652 4.951 7.682 34.103 11.025 53.297 4.282 24.596 8.818 44.144 14.684 63.286 1.649 5.382 3.12 11.907 3.268 14.5.149 2.593 1.631 10.564 3.295 17.714 1.664 7.15 3.556 16.6 4.205 21 .649 4.4 1.853 9.575 2.674 11.5.822 1.925 1.88 6.2 2.351 9.5.472 3.3 1.809 10.275 2.972 15.5 1.788 8.041 4.23 20.743 6.675 34.73.31 1.777.906 3.019 1.323 2.761.959-.592 1.955 3.04 1.972 7.198.008 1.755 1.364 8.718 3.014 15.475 1.65 6.757 3.003 13.647 3.006 15.311.003 1.664.412 4.6.908 6.525.497 1.925 1.194 5.21 1.549 7.301.463 2.722 2.071 5.255 5.661 8.922 8.206 8.381 12.403 8.711 36.376 2.866 4.4-1.072 13.175-3.146 19.5-4.608 6.325-1.461 13.217-3.301 15.316-4.087 2.099-.787 4.173-1.21 4.61-.94 1.24.767 19.29-3.018 33.074-6.935 6.875-1.954 16.55-4 21.5-4.547 4.95-.547 13.725-2.284 19.5-3.86s15.9-3.861 22.5-5.078c19.352-3.569 24.906-7.046 27.652-17.313 1.444-5.398.779-9.786-5.212-34.421-2.167-8.911-3.94-18.6-3.94-21.532 0-4.386-.637-6.348-3.595-11.077-6.204-9.919-14.77-12.497-27.554-8.293-13.402 4.408-27.095 7.504-35.851 8.106-4.675.321-13.708 1.503-20.074 2.626-19.766 3.487-22.967 1.278-28.49-19.656-5.586-21.171-5.524-27.143.337-32.755 5.583-5.347 11.629-7.193 38.727-11.828 29.048-4.968 32.936-6.207 38.164-12.161 6.467-7.365 6.668-17.547.678-34.23-1.382-3.85-2.72-8.8-2.972-11-2.075-18.109-5.389-30.313-9.504-35-5.69-6.48-12.02-6.674-32.866-1.004-5.225 1.421-14.675 3.506-21 4.633-6.325 1.127-13.608 2.427-16.183 2.889-2.576.462-5.584 1.322-6.685 1.911-4.69 2.51-13.278-.394-16.623-5.621-.989-1.545-2.632-3.613-3.653-4.597-1.021-.984-1.856-2.697-1.856-3.808 0-1.11-.939-6.551-2.087-12.09-2.321-11.201-1.991-15.731 1.375-18.867 5.139-4.787 11.077-6.936 30.041-10.872 25.313-5.253 41.837-9.492 47.287-12.13 11.097-5.372 12.685-13.73 7.026-36.969-1.946-7.989-4.067-18.789-4.714-24-1.409-11.344-3.987-17.942-8.589-21.982-3.212-2.821-3.882-2.989-11.624-2.926-4.518.037-10.142.668-12.497 1.404M646 90.481c-2.475.804-10.442 2.45-17.704 3.66-7.262 1.209-12.998 2.532-12.747 2.938.251.407-2.807 1.271-6.796 1.921-9.755 1.59-18.553 4.273-35.253 10.751-7.7 2.986-15.708 6.069-17.796 6.85-13.393 5.012-26.696 13.088-40.93 24.847-15.904 13.139-34.849 39.968-41.338 58.543-2.54 7.268-3.278 10.189-5.942 23.509-.77 3.85-2.127 10.375-3.016 14.5-4.79 22.222.58 77.273 11.442 117.302 2.726 10.046 6.141 21.4 7.589 25.232 1.448 3.831 3.991 10.566 5.651 14.966 1.661 4.4 3.054 8.563 3.096 9.25.043.688.452 1.25.911 1.25.458 0 .833.471.833 1.047 0 1.896 9.939 20.975 13.946 26.771 5.183 7.497 17.941 21.573 26.054 28.744 3.575 3.16 9.772 8.713 13.771 12.341 7.057 6.404 18.388 14.097 20.761 14.097.644 0 3.198 1.078 5.677 2.396 5.628 2.993 17.538 6.11 29.291 7.668 14.195 1.881 43.455 1.757 53-.225 4.4-.913 11.15-2.219 15-2.901 3.85-.683 11.275-2.112 16.5-3.176s11.844-2.349 14.709-2.856c8.424-1.489 41.838-13.498 46.502-16.712 2.359-1.626 6.314-4.809 8.789-7.075 2.474-2.265 4.797-4.119 5.16-4.119.364 0 1.602-1.942 2.751-4.316 2.644-5.463 2.694-12.445.16-22.517-1.061-4.217-2.222-9.917-2.58-12.667-1.234-9.469-3.467-20.587-4.535-22.583-.589-1.1-1.264-4.509-1.499-7.574-.419-5.468-1.373-9.302-6.056-24.343-2.731-8.773-5.898-23.082-6.915-31.25-.394-3.163-1.163-5.75-1.708-5.75-.546 0-.704-.752-.351-1.67.352-.919.148-1.974-.454-2.346-.602-.373-1.088-2.658-1.08-5.08.007-2.422-1.749-11.829-3.903-20.904s-4.66-20.325-5.569-25c-.908-4.675-2.5-11.768-3.536-15.761-1.037-3.994-1.889-8.494-1.895-10-.013-3.604-4.102-12.175-7.108-14.896-3.856-3.492-10.261-6.366-15.498-6.953-3.784-.425-7.586.241-16.884 2.955-6.6 1.927-14.925 4.217-18.5 5.089-3.575.871-8.75 2.23-11.5 3.019-2.75.789-8.825 1.955-13.5 2.591-11.771 1.602-27.912 5.328-31.504 7.271-4.115 2.227-6.715 4.549-9.864 8.811-4.018 5.436-3.952 16.237.202 32.874 1.716 6.875 3.58 15.766 4.141 19.758 2.458 17.489 4.919 23.445 11.358 27.492 5.028 3.159 8.374 3.41 15.068 1.129 5.756-1.961 12.76-1.396 16.401 1.323 4.885 3.646 6.293 6.712 8.211 17.878 1.031 6.006 2.812 13.529 3.957 16.718 4.306 11.995 3.368 19.925-2.731 23.078-4.461 2.307-15.669 3.924-23.653 3.411-8.327-.534-13.641-3.157-20.234-9.989-4.835-5.009-23.355-30.924-26.486-37.06-4.144-8.124-6.956-18.445-10.827-39.738-3.241-17.83-4.092-25.347-4.988-44.035-1.143-23.843-.869-27.421 3.035-39.504 1.818-5.628 3.338-7.957 9.294-14.241 5.61-5.92 8.817-8.338 15.12-11.402 8.908-4.33 20.908-8.225 30-9.736 3.3-.549 8.7-1.464 12-2.034 8.337-1.44 13.716-1.306 20.751.517 6.172 1.599 11.46 1.107 19.025-1.773 4.06-1.545 11.517-10.309 12.788-15.029 1.364-5.068-.24-14.479-7.033-41.263-2.65-10.45-5.343-22.179-5.984-26.065-1.313-7.961-5.621-16.455-9.703-19.129-3.588-2.351-19.086-2.855-25.344-.825m-339.5 81.697c-7.7.485-16.025 1.577-18.5 2.427-2.475.85-15.3 4.218-28.5 7.485-13.2 3.266-28.725 7.11-34.5 8.54-10.779 2.671-19.967 4.526-23.5 4.746-1.1.068-2.225.387-2.5.708-.275.32-6.516 1.754-13.868 3.186-11.197 2.18-14.232 3.177-18.691 6.138-9.495 6.304-12.894 15.301-10.517 27.842 1.82 9.598 5.262 23.127 6.189 24.318.457.588 1.51 5.538 2.34 11 .83 5.463 2.637 14.432 4.016 19.932 1.379 5.5 3.418 14.95 4.53 21 1.112 6.05 2.711 13.25 3.554 16 .842 2.75 2.406 9.5 3.477 15 1.071 5.5 2.629 12.925 3.463 16.5 4.304 18.455 6.554 29.182 7.447 35.5.544 3.85 1.905 9.658 3.024 12.907 1.12 3.248 2.036 7.614 2.036 9.7 0 4.28 1.33 11.317 3.948 20.893.977 3.575 2.328 10.1 3.002 14.5.673 4.4 2.085 9.97 3.137 12.377 1.052 2.408 1.911 5.783 1.908 7.5-.003 1.718.672 5.148 1.499 7.623 5.03 15.055 6.686 21.071 8.061 29.294.846 5.063 2.193 10.903 2.992 12.976.799 2.074 1.453 5.557 1.453 7.741 0 2.184 1.078 9.263 2.396 15.73 1.317 6.468 2.923 14.909 3.567 18.759.644 3.85 1.399 8.226 1.678 9.724.278 1.498 2.518 4.961 4.976 7.695 6.519 7.251 9.333 7.464 28.691 2.175 29.804-8.144 36.841-9.726 47.192-10.61 14.114-1.206 20.51-5.674 20.488-14.311-.006-2.57-.712-7.148-1.568-10.173-.856-3.025-2.146-8.661-2.866-12.525-.72-3.863-2.228-10.388-3.351-14.5-1.123-4.111-2.552-10.309-3.175-13.774-.624-3.464-2.46-10.607-4.081-15.873-3.596-11.682-3.891-19.164-.864-21.903 2.043-1.849 2.153-1.845 5.75.202 2.017 1.149 6.732 6.066 10.479 10.928 3.747 4.862 8.307 10.495 10.135 12.518 1.827 2.023 4.571 5.871 6.098 8.552 1.526 2.681 4.232 6.45 6.014 8.375 4.349 4.699 20.021 24.652 24.705 31.454 8.32 12.081 14.721 13.77 33.236 8.769a3222.85 3222.85 0 0 0 18.5-5.057c4.125-1.148 14.7-3.445 23.5-5.104 21.539-4.063 26.184-5.546 30.319-9.681 3.226-3.226 3.399-3.741 2.974-8.858-.616-7.431-4.205-12.787-22.329-33.318-7.127-8.073-11.341-13.54-17.433-22.617C441.49 456.333 419.406 430 418.024 430c-1.314 0-9.024-13.456-9.024-15.751 0-1.172 2.531-5.825 5.624-10.342 4.788-6.991 8.848-14.677 12.364-23.407 1.736-4.31 5.204-17.755 6.117-23.719 3.822-24.961 3.889-25.874 2.91-39.575-.533-7.458-1.345-13.818-1.803-14.133-.459-.315-1.334-4.398-1.946-9.073-.611-4.675-2.518-13-4.237-18.5-1.719-5.5-4.055-13.15-5.19-17-4.401-14.926-7.213-21.741-13.074-31.685-12.983-22.031-25.95-35.359-44.115-45.343-7.669-4.216-9.479-4.795-25.038-8.013-12.681-2.623-12.738-2.625-34.112-1.281m-19.946 98.549c-2.584.657-8.635 4.544-10.734 6.895-.925 1.035-2.202 3.231-2.84 4.88-1.603 4.149-1.333 17.433.396 19.426.749.865 1.199 2.022.999 2.572-.2.55.789 6.175 2.199 12.5 1.409 6.325 2.69 12.175 2.845 13 1.418 7.516 1.989 9.772 2.914 11.5.588 1.1 1.204 2.9 1.369 4 .38 2.539 6.51 7.864 12.115 10.524 4.228 2.007 10.937 2.433 14.183.9.825-.39 2.625-1.225 4-1.856 7.836-3.596 10.276-6.604 12.332-15.201 1.447-6.052 1.269-16.897-.399-24.367-.614-2.75-1.241-6.125-1.394-7.5-.694-6.259-2.066-10.862-4.905-16.457-1.686-3.324-3.418-6.193-3.85-6.376-.431-.184-.784-.791-.784-1.349 0-.85-4.913-5.816-10.336-10.449-2.671-2.281-13.385-3.844-18.11-2.642M89.585 399.107C73.617 401.435 54.259 409.432 42 418.764c-19.642 14.951-32.975 34.819-39.328 58.604L.5 485.5v2340l2.784 9c5.876 18.995 14.177 33.071 27.161 46.055 12.984 12.984 27.06 21.285 46.055 27.161l9 2.784h2229l9-2.784c23.803-7.363 42.135-19.919 55.757-38.188 9.8-13.144 17.534-30.931 19.327-44.451.374-2.817 1.07-5.363 1.548-5.658.49-.303.868-508.079.868-1166.037 0-776.745-.334-1165.294-1-1164.882-.561.346-1-.436-1-1.781 0-1.32-.873-5.813-1.94-9.984-5.804-22.695-19.593-43.222-38.822-57.792-9.171-6.948-24.677-14.426-36.738-17.715l-10-2.728-629.177-.256-629.178-.257-.649 5.757c-2.021 17.918-10.302 32.139-24.255 41.652-8.346 5.69-15.077 8.092-29.504 10.529-6.18 1.045-15.737 3.038-21.237 4.431-5.5 1.392-16.525 3.716-24.5 5.163-7.975 1.447-19.675 3.91-26 5.473-6.325 1.563-15.325 3.594-20 4.513-4.675.918-21.325 4.78-37 8.58-25.197 6.109-29.624 6.91-38.198 6.913-11.592.002-22.292-2.956-30.639-8.471-2.936-1.94-5.651-3.527-6.035-3.527-.383 0-1.43 1.238-2.326 2.75-2.228 3.759-12.574 13.844-17.918 17.466-18.389 12.459-46.67 21.954-96.45 32.382-20.361 4.265-23.299 4.632-40.963 5.123-36.729 1.019-68.204-5.257-90.683-18.083-7.667-4.374-23.08-16.077-27.712-21.04-3.472-3.72-4.426-3.205-2.188 1.182 3.922 7.689 5.355 14.963 4.947 25.119-.346 8.62-.777 10.446-4.124 17.494-7.297 15.365-20.591 25.004-39.504 28.642-5.339 1.027-14.432 2.78-20.207 3.895-5.775 1.116-19.95 4.578-31.5 7.694-18.345 4.95-22.201 5.674-30.5 5.727-10.777.07-19.262-2.229-27.494-7.45-2.628-1.666-5.069-2.663-5.426-2.215-.356.448-2.425 3.474-4.596 6.724-8.738 13.08-19.017 18.404-43.549 22.556-9.589 1.623-23.735 4.801-31.435 7.062-27.834 8.174-33.959 9.091-46.066 6.896-15.215-2.758-30.612-14.384-37.706-28.472-4.263-8.464-5.17-11.71-7.251-25.952-3.425-23.436-8.955-49.426-17.98-84.5C167.256 453.861 156 403.101 156 398.59c0-.918-59.768-.453-66.415.517M.498 1654.5c0 641.3.114 903.5.252 582.667.138-320.833.138-845.533 0-1166S.498 1013.2.498 1654.5m738.178-492.838c-240.147 295.781-436.303 538.068-435.903 538.415.4.347 196.802 72.04 436.45 159.316l435.723 158.685 460.277-150.709c253.152-82.891 460.616-150.994 461.03-151.342.547-.46-911.462-1082.176-919.699-1090.838-1.01-1.062-83.969 100.577-437.878 536.473M282 2188.591c-1.375.242-6.775 1.162-12 2.045-18.091 3.058-38.593 11.504-54.826 22.59-10.396 7.098-26.403 23.319-33.824 34.274-34.286 50.615-38.769 124.881-10.89 180.408 16.687 33.237 43.389 56.623 78.74 68.964 37.048 12.932 91.925 9.738 121.981-7.101l3.682-2.062 4.403 3.895c2.422 2.143 11.919 10.646 21.104 18.896 9.186 8.25 17.038 15 17.449 15 1.115 0 30.181-30.188 30.181-31.347 0-.547-8.269-8.495-18.376-17.661l-18.375-16.666 6.284-8.333c19.414-25.739 29.909-54.838 32.345-89.675 4.429-63.35-19.913-120.182-64.211-149.913-15.532-10.424-30.949-16.861-50.401-21.043-7.712-1.658-14.078-2.164-30.266-2.405-11.275-.168-21.625-.107-23 .134m605.676 7.659c-37.14 78.933-63.835 147.113-91.131 232.75-7.51 23.561-17.78 56.674-21.168 68.25-.48 1.642 1.579 1.75 33.497 1.75 18.704 0 34.228-.356 34.497-.792.27-.435 5.703-18.098 12.074-39.25 6.371-21.152 12.017-39.47 12.548-40.708l.964-2.25h105.086l.959 2.25c.834 1.954 15.36 49.091 22.265 72.25l2.386 8 34.245.263c32.309.249 34.216.164 33.733-1.5-13.369-46.039-38.464-121.984-54.132-163.82-16.928-45.197-42.035-104.24-58.552-137.693l-2.346-4.75h-62.454l-2.471 5.25m960.899 14.01c-39.413 84.959-63.742 150.556-102.917 277.49l-3.472 11.25h68.478l1.202-3.75c.662-2.062 4.815-15.675 9.231-30.25 4.416-14.575 9.591-31.562 11.5-37.75l3.472-11.25h105.815l3.536 11.25c1.944 6.188 7.676 24.863 12.737 41.5l9.202 30.25h68.423l-3.806-12.25c-2.093-6.738-7.879-25.3-12.859-41.25-28.556-91.476-55.317-161.187-93.176-242.718l-5.441-11.719-31.5-.021-31.5-.022-8.925 19.24M495.26 2301.75c.33 104.714.377 106.927 2.466 116.027 5.636 24.557 13.188 39.528 27.026 53.571 23.016 23.357 60.038 34.978 106.239 33.347 35.449-1.251 60.523-8.831 82.195-24.848 7.292-5.389 15.957-14.287 20.877-21.439 5.172-7.517 11.888-22.759 14.412-32.711 4.849-19.116 4.826-18.559 5.25-127.447l.401-103.25H687l-.008 97.25c-.005 56.831-.415 100.783-.986 105.75-3.465 30.126-15.003 44.31-40.214 49.433-9.977 2.028-32.798 2.058-42.292.056-15.472-3.263-28.69-13.025-35.044-25.88-6.441-13.034-6.382-11.887-6.421-124.859L562 2195h-67.077l.337 106.75M1110 2346.5V2498h191v-56h-125v-247h-66v151.5m240 0V2498h67v-303h-67v151.5m129-.054V2498h76.901c71.592 0 77.685-.134 88.27-1.944 44.022-7.526 70.662-29.285 79.587-65.006 2.511-10.051 2.159-34.062-.654-44.55-3.645-13.588-9.404-23.851-18.574-33.099-8.744-8.818-13.87-12.2-25.766-16.996l-7.775-3.135 6.756-3.873c9.309-5.336 22.126-18.185 26.19-26.253 5.027-9.982 7.065-19.601 7.065-33.346 0-14.978-1.977-24.936-7.096-35.744-7.305-15.424-21.487-26.854-40.904-32.966-16.977-5.344-17.633-5.381-103.75-5.803l-80.25-.394v151.555M2014 2223v28h84v247h66v-247h84v-56h-234v28m-1731.346 22.572c-23.351 5.212-39.681 18.343-50.897 40.928-13.292 26.768-16.446 66.657-7.878 99.646 8.68 33.419 31.237 56.115 61.06 61.435 13.117 2.34 36.375 1.405 41.112-1.652 1.566-1.012-.886-3.614-17.982-19.084l-8.43-7.629 15.173-16.115c8.346-8.863 15.514-16.139 15.931-16.169.416-.03 8.103 6.611 17.082 14.757 8.979 8.146 16.854 14.811 17.5 14.811 2.12 0 11.565-20.54 14.153-30.78 7.969-31.526 4.682-72.208-7.934-98.22-10.333-21.304-26.466-35.386-47.044-41.065-8.602-2.375-32.835-2.874-41.846-.863M1546 2282.432V2318l31.25-.008c41.292-.01 49.5-1.467 59.646-10.588 8.103-7.286 11.646-20.43 9.119-33.827-2.266-12.007-9.225-19.557-21.93-23.795-6.192-2.065-8.721-2.217-42.335-2.557l-35.75-.361v35.568m-628.974-13.919c-7.4 18.862-31.026 91.214-31.026 95.016 0 1.267 4.985 1.471 36 1.471 19.882 0 36-.391 36-.874 0-.481-.697-2.844-1.55-5.25-.852-2.407-5.396-16.526-10.096-31.376-9.57-30.23-17.772-53.776-22.115-63.487l-2.902-6.488-4.311 10.988m965.665 4.789c-8.04 21.553-29.691 87.905-29.691 90.992 0 .388 16.359.706 36.352.706h36.353l-11.219-35.25c-13.983-43.937-23.235-69.859-25.414-71.205-.392-.242-3.263 6.399-6.381 14.757M1546 2404.419V2446l37.75-.017c40.97-.019 46.531-.558 56.165-5.44 11.842-6.001 18.023-16.045 18.855-30.639 1.12-19.651-5.292-33.577-18.553-40.293-11.47-5.808-12.587-5.937-54.967-6.371l-39.25-.401v41.58m-628 293.026V2760h3.886c3.854 0 3.893-.039 4.579-4.612l.691-4.613 2.672 2.559c12.217 11.699 38.778 9.009 51.278-5.192 19.814-22.51 13.52-61.847-11.899-74.361-5.56-2.737-7.845-3.26-15.752-3.606-10.441-.457-17.43 1.25-22.466 5.488l-2.949 2.481-.27-21.322-.27-21.322-4.75-.305-4.75-.305v62.555m420-41.018v21.427l-5.619-3.384c-6.526-3.929-11.553-4.895-22.203-4.264-22.197 1.315-37.43 19.546-37.427 44.794.004 25.685 14.824 43.503 38.009 45.698 8.507.806 17.744-1.726 23.135-6.34 4.431-3.793 4.281-3.881 5.324 3.142.226 1.521 1.193 2.074 4.039 2.31l3.742.311V2635h-9v21.427m255.803-20.049c-12.018 3.29-17.061 10.398-17.647 24.872l-.355 8.75H1567v8h9v82h9v-82.043l19.25.271 19.25.272.261 40.75.261 40.75H1633v-90h-48v-6.257c0-12.598 3.552-17.952 13.234-19.952l5.862-1.211-.298-3.54c-.249-2.963-.705-3.573-2.798-3.744-1.375-.112-4.614.375-7.197 1.082M1798 2697.445V2760h3.886c3.84 0 3.895-.055 4.561-4.498l.675-4.498 3.689 2.953c10.572 8.462 26.52 9.157 40.51 1.765 25.035-13.23 29.204-54.991 7.515-75.279-7.434-6.954-14.492-9.835-25.182-10.28-10.268-.428-16.061.9-21.682 4.972l-3.932 2.849-.27-21.242-.27-21.242-4.75-.305-4.75-.305v62.555m-1647.833-60.566c.183.483 10.213 28.608 22.288 62.5L194.41 2761h14.311l16.789-47.75a63830.289 63830.289 0 0 1 22.02-62.548l5.231-14.798-5.096.298-5.095.298-19.765 57c-10.871 31.35-20.111 57.787-20.535 58.748-.533 1.21-6.439-14.352-19.167-50.5-10.118-28.736-19.508-55.285-20.866-58.998l-2.469-6.75h-4.967c-2.732 0-4.818.396-4.634.879m586.839 51.871c.003 32.252.396 54.156 1.01 56.368 2.437 8.772 10.112 14.882 18.696 14.882H761v-3.872c0-3.736-.139-3.895-3.948-4.504-5.223-.835-8.944-4.203-10.08-9.124-.509-2.2-.935-27.062-.948-55.25L746 2636h-9l.006 52.75m421.994.601c0 37.225.344 54.378 1.138 56.75 2.733 8.163 10.13 13.83 18.112 13.877 3.712.022 3.75-.019 3.75-3.978 0-3.48-.292-4-2.25-4.004-3.595-.006-8.748-3.747-10.31-7.486-1.191-2.85-1.44-12.521-1.44-55.978V2636h-9v53.351m464-46.851v6.5h10v-13h-10v6.5m294 0v6.5h9v-13h-9v6.5m58.217 47.75.283 54.25 2.371 4.816c3.068 6.231 8.137 9.623 15.52 10.385l5.609.579v-4.14c0-3.495-.317-4.14-2.032-4.14-3.932 0-8.834-2.84-10.652-6.171-1.679-3.077-1.839-7.353-2.122-56.579l-.306-53.25h-8.954l.283 54.25M2040 2642.5v6.5h10v-13h-10v6.5m168.42 1.25c-2.063 3.713-4.404 7.762-5.201 9-1.424 2.212-1.375 2.25 2.916 2.226 4.287-.023 4.463-.16 9.865-7.69 3.025-4.217 5.86-8.256 6.3-8.976.621-1.018-.42-1.31-4.664-1.31h-5.464l-3.752 6.75m-1795.92 2.741c-.55.184-2.238.607-3.75.941l-2.75.606V2670h-13v8h12.875l.312 32.25c.295 30.419.433 32.505 2.433 36.75 3.793 8.051 9.997 12.217 20.212 13.572l5.168.686v-8.998l-4.614-.52c-5.349-.603-9.065-3.055-11.886-7.845-1.864-3.165-2.021-5.512-2.314-34.607l-.314-31.211 9.314-.289 9.314-.288.308-3.712.308-3.711-9.308-.289-9.308-.288-.282-11.75c-.155-6.463-.605-11.714-1-11.671-.395.043-1.168.229-1.718.412m1692 .385-3 .64-.283 11.242-.283 11.242h-14.055l.311 3.75.31 3.75 6.7.295 6.7.294.3 33.206c.29 32.102.374 33.343 2.522 37.36 3.672 6.868 9.561 10.509 19.125 11.824l5.153.709v-4.594c0-4.34-.152-4.595-2.75-4.616-5.144-.041-10.974-3.516-13.191-7.863-1.948-3.817-2.059-5.714-2.059-35.075V2678h18v-8h-18v-12c0-8.996-.313-11.97-1.25-11.882-.687.065-2.6.407-4.25.758m-1796.882 22.173c-2.136.536-6.52 2.38-9.743 4.098-17.085 9.106-26.984 29.248-24.01 48.853 5.593 36.875 47.461 52.666 73.74 27.813 10.264-9.708 14.632-20.1 14.632-34.813 0-14.713-4.368-25.105-14.632-34.813-8.224-7.778-16.573-11.363-27.431-11.78-4.771-.183-10.421.106-12.556.642m516.382.036c-5.96 1.148-12.634 3.699-17.264 6.6-3.741 2.344-3.755 2.377-2.225 5.337.847 1.638 1.928 2.978 2.402 2.978.475 0 3.95-1.446 7.725-3.213 5.771-2.702 8.31-3.277 15.968-3.613 20.709-.909 30.321 6.558 30.372 23.596l.022 7.271-3.97-2.025c-16.42-8.378-39.806-6.054-52.661 5.233-8.802 7.728-11.068 22.031-5.314 33.545 5.484 10.975 16.001 16.442 31.945 16.608 10.904.113 17.137-1.611 25.025-6.919 2.723-1.832 5.122-3.028 5.331-2.657.21.371.686 2.362 1.058 4.424.63 3.493.917 3.75 4.19 3.75h3.514l-.309-34.75-.309-34.75-2.686-5.09c-4.856-9.203-12.715-14.377-24.82-16.341-7.456-1.21-11.644-1.206-17.994.016m880.043.054c-5.264.872-14.094 4.371-18.824 7.459-2.231 1.456-2.243 1.554-.534 4.445.96 1.626 2.049 2.957 2.418 2.957.37 0 3.76-1.446 7.535-3.213 5.771-2.702 8.31-3.277 15.968-3.613 20.676-.908 30.32 6.563 30.372 23.53l.022 7.204-5.25-2.434c-7.602-3.524-15.063-4.793-24.75-4.209-14.561.877-25.484 6.496-31.479 16.191-2.543 4.114-3.077 6.116-3.374 12.651-.299 6.588.017 8.568 2.093 13.078 3.054 6.635 7.765 11.373 14.366 14.45 14.172 6.605 32.155 5.116 44.28-3.667 4.914-3.56 5.11-3.588 5.128-.718.031 5.229 1.069 6.75 4.603 6.75H1750v-32.885c0-36.826-.416-39.736-6.735-47.118-4.631-5.411-10.659-8.762-18.901-10.508-7.621-1.615-12.217-1.694-20.321-.35m-1204.899 1.559c-2.396.847-6.343 3.442-8.77 5.768-4.814 4.612-4.912 4.56-5.6-2.966-.245-2.686-.666-3.032-4.024-3.31l-3.75-.311V2760h9v-31.322c0-36.063.317-37.95 7.479-44.552 7.671-7.071 19.412-8.942 29.571-4.711 1.105.46 2.039-.379 3.25-2.919.935-1.96 1.7-3.756 1.7-3.991 0-.235-2.332-1.12-5.182-1.966-6.511-1.934-17.972-1.857-23.674.159m86.356-.35c-7.067 2.336-12.268 5.515-17.367 10.614-21.698 21.698-15.585 62.315 11.385 75.644 6.311 3.119 8.625 3.71 16.226 4.144 9.938.566 17.616-1.087 25.046-5.394 4.844-2.808 11.21-8.141 11.21-9.391 0-.456-1.36-1.797-3.022-2.981l-3.023-2.152-3.677 3.228c-5.98 5.252-11.663 7.267-21.778 7.723-7.468.338-9.981.037-14.762-1.764-10.664-4.019-20.228-16.315-21.506-27.65l-.489-4.345 37.878-.262 37.879-.262.325-4.5c.789-10.91-4.453-24.68-12.43-32.658-2.472-2.471-7.509-5.91-11.194-7.641-5.911-2.777-7.88-3.18-16.701-3.412-6.303-.166-11.479.225-14 1.059m476 0c-18.928 6.258-30.5 22.809-30.5 43.623 0 22.183 12.353 40.087 31.445 45.575 7.683 2.209 20.748 1.558 28.555-1.422 5.242-2.002 17-10.267 17-11.951 0-.438-1.37-1.81-3.046-3.049l-3.045-2.251-3.654 3.208c-5.807 5.099-11.685 7.231-21.255 7.71-10.069.504-15.117-.676-21.624-5.055-7.892-5.31-13.648-14.647-15.706-25.474l-.615-3.238 38.222-.262 38.223-.262.306-4.221c.778-10.73-4.481-24.674-12.367-32.788-2.618-2.694-7.292-5.936-11.214-7.779-5.938-2.79-7.896-3.19-16.725-3.423-6.303-.166-11.479.225-14 1.059m360 0c-18.928 6.258-30.5 22.809-30.5 43.623 0 22.183 12.353 40.087 31.445 45.575 7.683 2.209 20.748 1.558 28.555-1.422 5.242-2.002 17-10.267 17-11.951 0-.438-1.37-1.81-3.046-3.049l-3.045-2.251-3.654 3.208c-5.807 5.099-11.685 7.231-21.255 7.71-10.069.504-15.117-.676-21.624-5.055-7.892-5.31-13.648-14.647-15.706-25.474l-.615-3.238 38.222-.262 38.223-.262.306-4.221c.79-10.895-4.563-24.878-12.6-32.915-2.601-2.601-7.605-6.065-11.203-7.756-5.691-2.674-7.751-3.088-16.503-3.319-6.303-.166-11.479.225-14 1.059m773.18.565c-11.083 3.645-19.05 10.729-24.279 21.587-9.006 18.702-6.219 39.954 7.261 55.364 14.349 16.403 43.638 17.605 60.383 2.476 2.175-1.965 3.955-3.94 3.955-4.388 0-.449-1.36-1.784-3.022-2.968l-3.023-2.152-3.677 3.228c-5.864 5.15-11.687 7.251-21.455 7.742-9.901.497-15.113-.842-22.166-5.694-6.981-4.803-14.657-18.307-14.657-25.786V2718h76v-6.911c0-16.947-9.071-31.639-23.963-38.812-7.505-3.615-22.526-4.269-31.357-1.364M1917 2715v45h9v-90h-9v45m124 0v45h9v-90h-9v45m-1728.783-37.821c-10.827 1.668-20.974 9.557-25.837 20.087-2.645 5.725-2.88 7.173-2.88 17.734 0 10.829.184 11.888 3.155 18.159 3.782 7.983 9.876 14.217 17.345 17.744 4.577 2.161 6.927 2.597 14 2.597 7.214 0 9.333-.409 14.007-2.705 7.476-3.671 13.655-9.996 17.385-17.795 2.921-6.11 3.108-7.191 3.108-18.021 0-10.999-.149-11.823-3.281-18.185-7.092-14.406-21.442-22.013-37.002-19.615m276.712 1.125c-6.647 1.885-13.277 6.085-16.975 10.754-3.765 4.754-7.896 14.231-7.93 18.192L564 2710h34c26.54 0 33.997-.274 33.988-1.25-.02-2.143-2.637-11.222-3.976-13.796-6.948-13.357-24.43-20.805-39.083-16.65m476 .001c-6.138 1.739-13.11 5.936-16.483 9.925-3.318 3.923-6.989 11.684-8.288 17.52l-.945 4.25h68.737l-.568-3.25c-2.381-13.634-10.103-23.476-21.497-27.402-6.035-2.079-15.613-2.555-20.956-1.043m360 0c-12.829 3.633-21.276 12.747-24.509 26.445l-1.24 5.25h68.77l-.568-3.25c-2.381-13.634-10.103-23.476-21.497-27.402-6.035-2.079-15.613-2.555-20.956-1.043m775.397-.321c-11.272 2.393-20.276 10.745-24.351 22.589-3.567 10.368-6.776 9.427 32.153 9.427h34.128l-.675-4.25c-.915-5.764-4.601-13.564-8.518-18.025-6.833-7.782-21.461-12.135-32.737-9.741m-1261.745 2.03c-2.705 1.057-6.418 3.374-8.25 5.15l-3.331 3.228v51.152l2.894 3.512c1.592 1.931 5.305 4.828 8.25 6.438 11.409 6.234 28.213 2.32 36.826-8.576 15.872-20.079 9.142-52.746-12.537-60.857-7.107-2.659-17.111-2.679-23.852-.047m365.328-.519c-5.185 1.663-12.978 8.062-16.346 13.421-4.353 6.926-5.822 13.459-5.383 23.931.322 7.704.928 10.787 2.997 15.273 5.846 12.67 16.525 19.878 29.451 19.879 8.578.001 12.962-1.658 18.939-7.168l4.433-4.086v-53.643l-3.25-2.433c-6.334-4.742-9.991-6.011-18.25-6.333-5.117-.201-9.654.217-12.591 1.159m514.672.519c-2.705 1.057-6.418 3.374-8.25 5.15l-3.331 3.228v51.152l2.894 3.512c1.592 1.931 5.305 4.83 8.25 6.441 10.013 5.478 24.235 3.255 33.994-5.313 4.991-4.383 9.589-13.555 11.042-22.031 2.316-13.5-2.567-29.048-11.53-36.721-8.414-7.202-22.563-9.52-33.069-5.418m-989.615 30.123c-15.297 1.535-23.95 9.174-23.961 21.153-.011 12.445 7.6 19.784 22.495 21.691 11.125 1.425 25.232-2.737 31.281-9.228 2.164-2.323 2.267-3.105 2-15.29l-.281-12.843-5.957-2.393c-7.08-2.844-16.582-3.992-25.577-3.09m880 0c-11.1 1.114-19.369 6.086-22.585 13.581-3.369 7.85-.69 18.656 5.864 23.655 9.456 7.213 26.25 7.953 38.586 1.701 9.976-5.056 10.277-5.681 9.95-20.668l-.281-12.898-5.87-2.328c-7.028-2.786-16.74-3.938-25.664-3.043"/></svg>