<?xml version="1.0" standalone="no"?>
<!DOCTYPE svg PUBLIC "-//W3C//DTD SVG 20010904//EN"
 "http://www.w3.org/TR/2001/REC-SVG-20010904/DTD/svg10.dtd">
<svg version="1.0" xmlns="http://www.w3.org/2000/svg"
 width="501.000000pt" height="72.000000pt" viewBox="0 0 501.000000 72.000000"
 preserveAspectRatio="xMidYMid meet">
<metadata>
Created by potrace 1.16, written by Peter Selinger 2001-2019
</metadata>
<g transform="translate(0.000000,72.000000) scale(0.100000,-0.100000)"
fill="#ffffff" stroke="none">
<path d="M457 659 c-15 -9 -17 -30 -17 -200 0 -177 1 -189 18 -181 9 5 23 7
30 5 9 -4 12 37 12 180 0 194 -5 217 -43 196z"/>
<path d="M373 623 c-10 -4 -14 -45 -15 -151 l-2 -147 -3 143 c-3 125 -5 142
-18 132 -10 -9 -15 -32 -15 -76 0 -57 -2 -64 -20 -64 -16 0 -20 -7 -20 -30 0
-23 4 -30 20 -30 18 0 20 -7 20 -54 0 -53 1 -55 31 -61 17 -4 32 -5 35 -2 2 2
3 81 2 174 -2 130 -6 169 -15 166z"/>
<path d="M2176 438 c-9 -12 -16 -30 -16 -40 0 -10 -4 -18 -10 -18 -5 0 -10
-11 -10 -25 0 -14 5 -25 10 -25 6 0 10 -32 10 -75 l0 -75 30 0 30 0 0 75 c0
68 2 75 20 75 15 0 20 7 20 25 0 18 -5 25 -20 25 -23 0 -27 18 -5 26 8 4 15
17 15 30 0 20 -5 24 -29 24 -20 0 -35 -8 -45 -22z"/>
<path d="M1580 315 l0 -135 30 0 30 0 0 135 0 135 -30 0 -30 0 0 -135z"/>
<path d="M1113 420 c-94 -57 -80 -204 22 -238 23 -7 55 -10 74 -7 33 6 91 53
91 74 0 17 -66 13 -80 -4 -18 -21 -66 -19 -90 5 -24 24 -26 77 -4 108 18 26
74 30 98 7 15 -15 76 -21 76 -7 0 16 -33 53 -60 67 -40 21 -89 19 -127 -5z"/>
<path d="M3787 433 c-4 -3 -7 -62 -7 -130 0 -116 1 -123 20 -123 18 0 20 7 20
55 l0 55 45 0 c33 0 45 4 45 15 0 11 -12 15 -45 15 l-45 0 0 45 0 45 55 0 c42
0 55 3 55 15 0 12 -14 15 -68 15 -38 0 -72 -3 -75 -7z"/>
<path d="M1380 378 c-88 -46 -63 -203 32 -200 18 0 54 1 81 1 l47 1 0 100 0
101 -37 -2 c-21 0 -51 2 -68 5 -17 4 -41 1 -55 -6z"/>
<path d="M1734 380 c-82 -33 -84 -171 -3 -199 42 -15 55 -14 94 4 75 36 75
154 0 190 -36 17 -59 18 -91 5z"/>
<path d="M2007 383 c-4 -3 -27 -5 -52 -5 l-45 2 0 -100 0 -100 30 0 30 0 0 66
c0 63 1 65 30 75 24 9 30 17 30 40 0 28 -9 37 -23 22z"/>
<path d="M2564 380 c-55 -22 -74 -122 -34 -173 24 -30 78 -44 109 -28 18 10
21 9 21 -7 0 -39 -55 -58 -80 -27 -7 8 -25 15 -40 15 -23 0 -27 -3 -23 -20 9
-36 51 -60 102 -60 85 1 101 30 101 185 l0 116 -37 -2 c-21 0 -51 2 -68 5 -16
3 -40 1 -51 -4z"/>
<path d="M2805 377 c-52 -24 -71 -98 -40 -157 17 -33 72 -55 113 -45 31 8 72
43 72 62 0 18 -45 17 -74 -2 -25 -17 -51 -12 -60 11 -4 11 9 14 71 14 l76 0
-6 37 c-12 71 -86 110 -152 80z"/>
<path d="M3023 378 c-12 -6 -29 -26 -39 -46 -23 -49 -13 -100 27 -136 27 -24
37 -27 68 -21 20 4 53 6 74 5 l37 -1 0 101 0 101 -42 -1 c-24 -1 -56 1 -73 4
-16 3 -40 0 -52 -6z"/>
<path d="M3274 380 c-55 -22 -74 -122 -34 -173 24 -30 78 -44 109 -28 18 10
21 9 21 -7 0 -39 -55 -58 -80 -27 -7 8 -25 15 -40 15 -23 0 -27 -3 -23 -20 9
-36 51 -60 102 -60 85 1 101 30 101 185 l0 116 -37 -2 c-21 0 -51 2 -68 5 -16
3 -40 1 -51 -4z"/>
<path d="M3515 377 c-49 -23 -70 -94 -44 -151 16 -33 73 -60 112 -52 34 7 77
42 77 63 0 18 -50 16 -71 -3 -20 -18 -54 -12 -63 11 -4 12 8 15 71 15 l76 0
-6 37 c-12 71 -86 110 -152 80z"/>
<path d="M2280 306 c0 -41 3 -82 6 -91 11 -27 61 -47 97 -39 18 4 47 6 65 5
l32 -3 0 101 0 101 -30 0 -30 0 0 -64 c0 -55 -3 -67 -22 -80 -15 -11 -26 -12
-40 -5 -15 8 -18 22 -18 79 l0 70 -30 0 -30 0 0 -74z"/>
<path d="M4111 356 c-30 -32 -38 -94 -17 -134 22 -43 81 -61 125 -39 17 8 31
11 31 6 0 -5 9 -9 20 -9 19 0 20 7 20 100 0 93 -1 100 -20 100 -11 0 -20 -5
-20 -10 0 -7 -6 -7 -19 0 -36 19 -96 12 -120 -14z m124 -30 c49 -75 -38 -162
-100 -100 -20 20 -19 83 2 106 24 27 79 24 98 -6z"/>
<path d="M4340 278 c0 -80 3 -98 15 -98 12 0 15 14 15 69 0 78 13 101 59 101
42 0 51 -17 51 -97 0 -68 2 -73 21 -73 20 0 21 4 17 81 -4 104 -19 120 -114
117 l-64 -2 0 -98z"/>
<path d="M4583 356 c-24 -21 -28 -32 -28 -74 0 -39 5 -56 24 -76 46 -49 130
-42 158 14 18 36 -7 39 -41 6 -30 -31 -59 -33 -86 -6 -26 26 -27 90 -2 113 25
23 69 21 89 -3 10 -11 26 -20 35 -20 17 0 17 2 4 29 -18 33 -34 41 -86 41 -27
0 -48 -8 -67 -24z"/>
<path d="M4814 365 c-51 -35 -55 -122 -8 -166 38 -36 107 -34 140 4 13 15 24
32 24 38 0 18 -29 9 -55 -17 -20 -20 -32 -24 -53 -19 -26 6 -52 30 -52 47 0 4
36 8 80 8 79 0 80 0 80 26 0 29 -16 64 -39 81 -22 17 -92 16 -117 -2z"/>
<path d="M195 343 c-77 -32 -85 -39 -85 -74 0 -22 10 -36 43 -60 47 -34 111
-69 127 -69 24 0 6 26 -29 43 -52 23 -123 76 -117 85 3 5 39 7 81 5 l76 -3 -3
48 c-4 57 -12 59 -93 25z"/>
</g>
</svg>
