<svg xmlns="http://www.w3.org/2000/svg" width="2400" height="2911" viewBox="0 0 2400 2911" version="1.1"><path d="M 892 4.425 C 882.375 6.783, 871.034 9.695, 866.799 10.895 C 860.117 12.788, 834.972 18.114, 789 27.374 C 782.125 28.759, 770.059 31.056, 762.187 32.479 C 744.790 35.624, 733.706 39.517, 724.718 45.638 C 716.445 51.272, 712.104 56.207, 707.790 64.883 C 705.981 68.522, 704.403 71.672, 704.285 71.882 C 704.166 72.092, 701.514 69.928, 698.390 67.073 C 688.211 57.771, 675.390 52.788, 661.630 52.788 C 653.395 52.788, 618.405 59.155, 596.500 64.639 C 554.006 75.278, 515.452 92.985, 491.676 112.782 C 470.382 130.511, 447.422 163.227, 439.421 187.236 C 437.449 193.156, 435.721 198, 435.582 198 C 435.444 198, 432.384 194.063, 428.783 189.250 C 420.515 178.198, 404.741 162.923, 395.022 156.556 C 372.990 142.123, 348.208 135.019, 319.842 135.006 C 300.378 134.997, 286.006 137.347, 248.567 146.658 C 229.830 151.318, 203.250 157.526, 189.500 160.453 C 175.750 163.379, 161.601 166.954, 158.057 168.396 C 132.031 178.984, 116.642 202.471, 118.348 229 C 118.687 234.271, 120.656 244.324, 123.530 255.463 C 126.080 265.343, 130.567 285.368, 133.502 299.963 C 136.437 314.559, 141.321 336.400, 144.354 348.500 C 150.110 371.462, 152.961 384.494, 160.983 424.522 C 163.631 437.734, 169.869 464.284, 174.845 483.522 C 183.542 517.140, 189.057 543.094, 192.477 566.500 C 194.558 580.742, 195.465 583.988, 199.728 592.452 C 206.822 606.540, 222.219 618.166, 237.434 620.924 C 249.541 623.119, 255.666 622.202, 283.500 614.028 C 291.200 611.767, 305.346 608.589, 314.935 606.966 C 339.467 602.814, 349.746 597.490, 358.484 584.410 C 360.655 581.160, 362.724 578.134, 363.080 577.686 C 363.437 577.238, 365.878 578.235, 368.506 579.901 C 376.738 585.122, 385.223 587.421, 396 587.351 C 404.299 587.298, 408.155 586.574, 426.500 581.624 C 438.050 578.508, 452.225 575.046, 458 573.930 C 463.775 572.815, 472.868 571.062, 478.207 570.035 C 497.120 566.397, 510.414 556.758, 517.711 541.393 C 521.058 534.345, 521.489 532.519, 521.835 523.899 C 522.243 513.743, 520.810 506.469, 516.888 498.780 C 514.650 494.393, 515.604 493.878, 519.076 497.598 C 523.708 502.561, 539.121 514.264, 546.788 518.638 C 569.267 531.464, 600.742 537.740, 637.471 536.721 C 655.135 536.230, 658.073 535.863, 678.434 531.598 C 728.214 521.170, 756.495 511.675, 774.884 499.216 C 780.228 495.594, 790.574 485.509, 792.802 481.750 C 793.698 480.237, 794.745 479, 795.128 479 C 795.512 479, 798.227 480.587, 801.163 482.527 C 809.510 488.042, 820.210 491, 831.802 490.998 C 840.376 490.995, 844.803 490.194, 870 484.085 C 885.675 480.285, 902.325 476.423, 907 475.505 C 911.675 474.586, 920.675 472.555, 927 470.992 C 933.325 469.429, 945.025 466.966, 953 465.519 C 960.975 464.072, 972 461.748, 977.500 460.356 C 983 458.963, 992.557 456.970, 998.737 455.925 C 1013.164 453.488, 1019.895 451.086, 1028.241 445.396 C 1044.229 434.495, 1052.322 418.602, 1052.374 398 C 1052.397 389.075, 1051.850 385.386, 1048.728 373.410 C 1046.708 365.660, 1044.344 354.860, 1043.475 349.410 C 1041.168 334.941, 1039.276 328.355, 1035.172 320.500 C 1028.122 307.009, 1013.092 295.649, 998.500 292.782 C 995.200 292.133, 992.351 291.506, 992.169 291.387 C 991.987 291.268, 993.841 288.711, 996.290 285.705 C 1009.321 269.707, 1012.332 248.653, 1005.117 224 C 1003.426 218.225, 1000.873 207.003, 999.442 199.062 C 995.668 178.114, 991.580 168.310, 982.325 158.016 C 979.853 155.267, 975.168 151.374, 971.913 149.365 C 965.460 145.382, 965.535 146.106, 970.880 139.500 C 975.006 134.399, 979.779 123.239, 981.046 115.728 C 982.599 106.520, 981.847 97.132, 978.505 84 C 977.035 78.225, 974.558 65.850, 973.002 56.500 C 968.972 32.298, 965.345 24.164, 953.828 13.501 C 938.189 -0.977, 923.093 -3.194, 892 4.425 M 904.218 38.471 C 901.863 39.206, 899.388 40.242, 898.718 40.773 C 898.048 41.304, 895.025 42.305, 892 42.997 C 888.975 43.690, 880.875 45.788, 874 47.661 C 867.125 49.534, 855.875 51.979, 849 53.093 C 842.125 54.208, 832.900 55.944, 828.500 56.951 C 814.012 60.268, 809.831 61.013, 808.910 60.444 C 808.409 60.135, 808 60.266, 808 60.736 C 808 61.647, 795.103 64.456, 786 65.527 C 776.616 66.631, 756.127 70.980, 750.685 73.023 C 745.759 74.873, 742.016 78.330, 739.185 83.645 C 737.382 87.030, 736.772 96.034, 737.975 101.500 C 739.079 106.515, 741.257 117.454, 742.455 124 C 743.365 128.971, 745.894 138.769, 747.542 143.703 C 749.194 148.654, 755.224 177.806, 758.567 197 C 762.849 221.596, 767.385 241.144, 773.251 260.286 C 774.900 265.668, 776.371 272.193, 776.519 274.786 C 776.668 277.379, 778.150 285.350, 779.814 292.500 C 781.478 299.650, 783.370 309.100, 784.019 313.500 C 784.668 317.900, 785.872 323.075, 786.693 325 C 787.515 326.925, 788.573 331.200, 789.044 334.500 C 789.516 337.800, 790.853 344.775, 792.016 350 C 793.804 358.041, 796.246 370.743, 798.691 384.730 C 799.001 386.507, 799.597 387.749, 800.014 387.491 C 800.973 386.899, 801.969 390.531, 801.986 394.689 C 801.994 396.444, 803.350 403.407, 805 410.164 C 806.650 416.921, 808.003 423.811, 808.006 425.475 C 808.009 427.139, 808.418 430.075, 808.914 432 C 809.411 433.925, 810.108 437.210, 810.463 439.301 C 810.926 442.023, 812.534 444.556, 816.124 448.223 C 824.330 456.604, 828.527 456.934, 852.500 451.089 C 856.900 450.017, 865.675 447.943, 872 446.481 C 878.325 445.020, 885.217 443.180, 887.316 442.394 C 889.415 441.607, 891.489 441.184, 891.926 441.454 C 893.166 442.221, 911.216 438.436, 925 434.519 C 931.875 432.565, 941.550 430.519, 946.500 429.972 C 951.450 429.425, 960.225 427.688, 966 426.112 C 971.775 424.536, 981.900 422.251, 988.500 421.034 C 1007.852 417.465, 1013.406 413.988, 1016.152 403.721 C 1017.596 398.323, 1016.931 393.935, 1010.940 369.300 C 1008.773 360.389, 1007 350.700, 1007 347.768 C 1007 343.382, 1006.363 341.420, 1003.405 336.691 C 997.201 326.772, 988.635 324.194, 975.851 328.398 C 962.449 332.806, 948.756 335.902, 940 336.504 C 935.325 336.825, 926.292 338.007, 919.926 339.130 C 900.160 342.617, 896.959 340.408, 891.436 319.474 C 885.850 298.303, 885.912 292.331, 891.773 286.719 C 897.356 281.372, 903.402 279.526, 930.500 274.891 C 959.548 269.923, 963.436 268.684, 968.664 262.730 C 975.131 255.365, 975.332 245.183, 969.342 228.500 C 967.960 224.650, 966.622 219.700, 966.370 217.500 C 964.295 199.391, 960.981 187.187, 956.866 182.500 C 951.176 176.020, 944.846 175.826, 924 181.496 C 918.775 182.917, 909.325 185.002, 903 186.129 C 896.675 187.256, 889.392 188.556, 886.817 189.018 C 884.241 189.480, 881.233 190.340, 880.132 190.929 C 875.442 193.439, 866.854 190.535, 863.509 185.308 C 862.520 183.763, 860.877 181.695, 859.856 180.711 C 858.835 179.727, 858 178.014, 858 176.903 C 858 175.793, 857.061 170.352, 855.913 164.813 C 853.592 153.612, 853.922 149.082, 857.288 145.946 C 862.427 141.159, 868.365 139.010, 887.329 135.074 C 912.642 129.821, 929.166 125.582, 934.616 122.944 C 945.713 117.572, 947.301 109.214, 941.642 85.975 C 939.696 77.986, 937.575 67.186, 936.928 61.975 C 935.519 50.631, 932.941 44.033, 928.339 39.993 C 925.127 37.172, 924.457 37.004, 916.715 37.067 C 912.197 37.104, 906.573 37.735, 904.218 38.471 M 646 90.481 C 643.525 91.285, 635.558 92.931, 628.296 94.141 C 621.034 95.350, 615.298 96.673, 615.549 97.079 C 615.800 97.486, 612.742 98.350, 608.753 99 C 598.998 100.590, 590.200 103.273, 573.500 109.751 C 565.800 112.737, 557.792 115.820, 555.704 116.601 C 542.311 121.613, 529.008 129.689, 514.774 141.448 C 498.870 154.587, 479.925 181.416, 473.436 199.991 C 470.896 207.259, 470.158 210.180, 467.494 223.500 C 466.724 227.350, 465.367 233.875, 464.478 238 C 459.688 260.222, 465.058 315.273, 475.920 355.302 C 478.646 365.348, 482.061 376.702, 483.509 380.534 C 484.957 384.365, 487.500 391.100, 489.160 395.500 C 490.821 399.900, 492.214 404.063, 492.256 404.750 C 492.299 405.438, 492.708 406, 493.167 406 C 493.625 406, 494 406.471, 494 407.047 C 494 408.943, 503.939 428.022, 507.946 433.818 C 513.129 441.315, 525.887 455.391, 534 462.562 C 537.575 465.722, 543.772 471.275, 547.771 474.903 C 554.828 481.307, 566.159 489, 568.532 489 C 569.176 489, 571.730 490.078, 574.209 491.396 C 579.837 494.389, 591.747 497.506, 603.500 499.064 C 617.695 500.945, 646.955 500.821, 656.500 498.839 C 660.900 497.926, 667.650 496.620, 671.500 495.938 C 675.350 495.255, 682.775 493.826, 688 492.762 C 693.225 491.698, 699.844 490.413, 702.709 489.906 C 711.133 488.417, 744.547 476.408, 749.211 473.194 C 751.570 471.568, 755.525 468.385, 758 466.119 C 760.474 463.854, 762.797 462, 763.160 462 C 763.524 462, 764.762 460.058, 765.911 457.684 C 768.555 452.221, 768.605 445.239, 766.071 435.167 C 765.010 430.950, 763.849 425.250, 763.491 422.500 C 762.257 413.031, 760.024 401.913, 758.956 399.917 C 758.367 398.817, 757.692 395.408, 757.457 392.343 C 757.038 386.875, 756.084 383.041, 751.401 368 C 748.670 359.227, 745.503 344.918, 744.486 336.750 C 744.092 333.587, 743.323 331, 742.778 331 C 742.232 331, 742.074 330.248, 742.427 329.330 C 742.779 328.411, 742.575 327.356, 741.973 326.984 C 741.371 326.611, 740.885 324.326, 740.893 321.904 C 740.900 319.482, 739.144 310.075, 736.990 301 C 734.836 291.925, 732.330 280.675, 731.421 276 C 730.513 271.325, 728.921 264.232, 727.885 260.239 C 726.848 256.245, 725.996 251.745, 725.990 250.239 C 725.977 246.635, 721.888 238.064, 718.882 235.343 C 715.026 231.851, 708.621 228.977, 703.384 228.390 C 699.600 227.965, 695.798 228.631, 686.500 231.345 C 679.900 233.272, 671.575 235.562, 668 236.434 C 664.425 237.305, 659.250 238.664, 656.500 239.453 C 653.750 240.242, 647.675 241.408, 643 242.044 C 631.229 243.646, 615.088 247.372, 611.496 249.315 C 607.381 251.542, 604.781 253.864, 601.632 258.126 C 597.614 263.562, 597.680 274.363, 601.834 291 C 603.550 297.875, 605.414 306.766, 605.975 310.758 C 608.433 328.247, 610.894 334.203, 617.333 338.250 C 622.361 341.409, 625.707 341.660, 632.401 339.379 C 638.157 337.418, 645.161 337.983, 648.802 340.702 C 653.687 344.348, 655.095 347.414, 657.013 358.580 C 658.044 364.586, 659.825 372.109, 660.970 375.298 C 665.276 387.293, 664.338 395.223, 658.239 398.376 C 653.778 400.683, 642.570 402.300, 634.586 401.787 C 626.259 401.253, 620.945 398.630, 614.352 391.798 C 609.517 386.789, 590.997 360.874, 587.866 354.738 C 583.722 346.614, 580.910 336.293, 577.039 315 C 573.798 297.170, 572.947 289.653, 572.051 270.965 C 570.908 247.122, 571.182 243.544, 575.086 231.461 C 576.904 225.833, 578.424 223.504, 584.380 217.220 C 589.990 211.300, 593.197 208.882, 599.500 205.818 C 608.408 201.488, 620.408 197.593, 629.500 196.082 C 632.800 195.533, 638.200 194.618, 641.500 194.048 C 649.837 192.608, 655.216 192.742, 662.251 194.565 C 668.423 196.164, 673.711 195.672, 681.276 192.792 C 685.336 191.247, 692.793 182.483, 694.064 177.763 C 695.428 172.695, 693.824 163.284, 687.031 136.500 C 684.381 126.050, 681.688 114.321, 681.047 110.435 C 679.734 102.474, 675.426 93.980, 671.344 91.306 C 667.756 88.955, 652.258 88.451, 646 90.481 M 306.500 172.178 C 298.800 172.663, 290.475 173.755, 288 174.605 C 285.525 175.455, 272.700 178.823, 259.500 182.090 C 246.300 185.356, 230.775 189.200, 225 190.630 C 214.221 193.301, 205.033 195.156, 201.500 195.376 C 200.400 195.444, 199.275 195.763, 199 196.084 C 198.725 196.404, 192.484 197.838, 185.132 199.270 C 173.935 201.450, 170.900 202.447, 166.441 205.408 C 156.946 211.712, 153.547 220.709, 155.924 233.250 C 157.744 242.848, 161.186 256.377, 162.113 257.568 C 162.570 258.156, 163.623 263.106, 164.453 268.568 C 165.283 274.031, 167.090 283, 168.469 288.500 C 169.848 294, 171.887 303.450, 172.999 309.500 C 174.111 315.550, 175.710 322.750, 176.553 325.500 C 177.395 328.250, 178.959 335, 180.030 340.500 C 181.101 346, 182.659 353.425, 183.493 357 C 187.797 375.455, 190.047 386.182, 190.940 392.500 C 191.484 396.350, 192.845 402.158, 193.964 405.407 C 195.084 408.655, 196 413.021, 196 415.107 C 196 419.387, 197.330 426.424, 199.948 436 C 200.925 439.575, 202.276 446.100, 202.950 450.500 C 203.623 454.900, 205.035 460.470, 206.087 462.877 C 207.139 465.285, 207.998 468.660, 207.995 470.377 C 207.992 472.095, 208.667 475.525, 209.494 478 C 214.524 493.055, 216.180 499.071, 217.555 507.294 C 218.401 512.357, 219.748 518.197, 220.547 520.270 C 221.346 522.344, 222 525.827, 222 528.011 C 222 530.195, 223.078 537.274, 224.396 543.741 C 225.713 550.209, 227.319 558.650, 227.963 562.500 C 228.607 566.350, 229.362 570.726, 229.641 572.224 C 229.919 573.722, 232.159 577.185, 234.617 579.919 C 241.136 587.170, 243.950 587.383, 263.308 582.094 C 293.112 573.950, 300.149 572.368, 310.500 571.484 C 324.614 570.278, 331.010 565.810, 330.988 557.173 C 330.982 554.603, 330.276 550.025, 329.420 547 C 328.564 543.975, 327.274 538.339, 326.554 534.475 C 325.834 530.612, 324.326 524.087, 323.203 519.975 C 322.080 515.864, 320.651 509.666, 320.028 506.201 C 319.404 502.737, 317.568 495.594, 315.947 490.328 C 312.351 478.646, 312.056 471.164, 315.083 468.425 C 317.126 466.576, 317.236 466.580, 320.833 468.627 C 322.850 469.776, 327.565 474.693, 331.312 479.555 C 335.059 484.417, 339.619 490.050, 341.447 492.073 C 343.274 494.096, 346.018 497.944, 347.545 500.625 C 349.071 503.306, 351.777 507.075, 353.559 509 C 357.908 513.699, 373.580 533.652, 378.264 540.454 C 386.584 552.535, 392.985 554.224, 411.500 549.223 C 417.550 547.589, 425.875 545.313, 430 544.166 C 434.125 543.018, 444.700 540.721, 453.500 539.062 C 475.039 534.999, 479.684 533.516, 483.819 529.381 C 487.045 526.155, 487.218 525.640, 486.793 520.523 C 486.177 513.092, 482.588 507.736, 464.464 487.205 C 457.337 479.132, 453.123 473.665, 447.031 464.588 C 441.490 456.333, 419.406 430, 418.024 430 C 416.710 430, 409 416.544, 409 414.249 C 409 413.077, 411.531 408.424, 414.624 403.907 C 419.412 396.916, 423.472 389.230, 426.988 380.500 C 428.724 376.190, 432.192 362.745, 433.105 356.781 C 436.927 331.820, 436.994 330.907, 436.015 317.206 C 435.482 309.748, 434.670 303.388, 434.212 303.073 C 433.753 302.758, 432.878 298.675, 432.266 294 C 431.655 289.325, 429.748 281, 428.029 275.500 C 426.310 270, 423.974 262.350, 422.839 258.500 C 418.438 243.574, 415.626 236.759, 409.765 226.815 C 396.782 204.784, 383.815 191.456, 365.650 181.472 C 357.981 177.256, 356.171 176.677, 340.612 173.459 C 327.931 170.836, 327.874 170.834, 306.500 172.178 M 286.554 270.727 C 283.970 271.384, 277.919 275.271, 275.820 277.622 C 274.895 278.657, 273.618 280.853, 272.980 282.502 C 271.377 286.651, 271.647 299.935, 273.376 301.928 C 274.125 302.793, 274.575 303.950, 274.375 304.500 C 274.175 305.050, 275.164 310.675, 276.574 317 C 277.983 323.325, 279.264 329.175, 279.419 330 C 280.837 337.516, 281.408 339.772, 282.333 341.500 C 282.921 342.600, 283.537 344.400, 283.702 345.500 C 284.082 348.039, 290.212 353.364, 295.817 356.024 C 300.045 358.031, 306.754 358.457, 310 356.924 C 310.825 356.534, 312.625 355.699, 314 355.068 C 321.836 351.472, 324.276 348.464, 326.332 339.867 C 327.779 333.815, 327.601 322.970, 325.933 315.500 C 325.319 312.750, 324.692 309.375, 324.539 308 C 323.845 301.741, 322.473 297.138, 319.634 291.543 C 317.948 288.219, 316.216 285.350, 315.784 285.167 C 315.353 284.983, 315 284.376, 315 283.818 C 315 282.968, 310.087 278.002, 304.664 273.369 C 301.993 271.088, 291.279 269.525, 286.554 270.727 M 738.676 1161.662 C 498.529 1457.443, 302.373 1699.730, 302.773 1700.077 C 303.173 1700.424, 499.575 1772.117, 739.223 1859.393 L 1174.946 2018.078 1635.223 1867.369 C 1888.375 1784.478, 2095.839 1716.375, 2096.253 1716.027 C 2096.800 1715.567, 1184.791 633.851, 1176.554 625.189 C 1175.544 624.127, 1092.585 725.766, 738.676 1161.662 M 282 2188.591 C 280.625 2188.833, 275.225 2189.753, 270 2190.636 C 251.909 2193.694, 231.407 2202.140, 215.174 2213.226 C 204.778 2220.324, 188.771 2236.545, 181.350 2247.500 C 147.064 2298.115, 142.581 2372.381, 170.460 2427.908 C 187.147 2461.145, 213.849 2484.531, 249.200 2496.872 C 286.248 2509.804, 341.125 2506.610, 371.181 2489.771 L 374.863 2487.709 379.266 2491.604 C 381.688 2493.747, 391.185 2502.250, 400.370 2510.500 C 409.556 2518.750, 417.408 2525.500, 417.819 2525.500 C 418.934 2525.500, 448 2495.312, 448 2494.153 C 448 2493.606, 439.731 2485.658, 429.624 2476.492 L 411.249 2459.826 417.533 2451.493 C 436.947 2425.754, 447.442 2396.655, 449.878 2361.818 C 454.307 2298.468, 429.965 2241.636, 385.667 2211.905 C 370.135 2201.481, 354.718 2195.044, 335.266 2190.862 C 327.554 2189.204, 321.188 2188.698, 305 2188.457 C 293.725 2188.289, 283.375 2188.350, 282 2188.591 M 887.676 2196.250 C 850.536 2275.183, 823.841 2343.363, 796.545 2429 C 789.035 2452.561, 778.765 2485.674, 775.377 2497.250 C 774.897 2498.892, 776.956 2499, 808.874 2499 C 827.578 2499, 843.102 2498.644, 843.371 2498.208 C 843.641 2497.773, 849.074 2480.110, 855.445 2458.958 C 861.816 2437.806, 867.462 2419.488, 867.993 2418.250 L 868.957 2416 921.500 2416 L 974.043 2416 975.002 2418.250 C 975.836 2420.204, 990.362 2467.341, 997.267 2490.500 L 999.653 2498.500 1033.898 2498.763 C 1066.207 2499.012, 1068.114 2498.927, 1067.631 2497.263 C 1054.262 2451.224, 1029.167 2375.279, 1013.499 2333.443 C 996.571 2288.246, 971.464 2229.203, 954.947 2195.750 L 952.601 2191 921.374 2191 L 890.147 2191 887.676 2196.250 M 1848.575 2210.260 C 1809.162 2295.219, 1784.833 2360.816, 1745.658 2487.750 L 1742.186 2499 1776.425 2499 L 1810.664 2499 1811.866 2495.250 C 1812.528 2493.188, 1816.681 2479.575, 1821.097 2465 C 1825.513 2450.425, 1830.688 2433.438, 1832.597 2427.250 L 1836.069 2416 1888.976 2416 L 1941.884 2416 1945.420 2427.250 C 1947.364 2433.438, 1953.096 2452.113, 1958.157 2468.750 L 1967.359 2499 2001.570 2499 L 2035.782 2499 2031.976 2486.750 C 2029.883 2480.012, 2024.097 2461.450, 2019.117 2445.500 C 1990.561 2354.024, 1963.800 2284.313, 1925.941 2202.782 L 1920.500 2191.063 1889 2191.042 L 1857.500 2191.020 1848.575 2210.260 M 495.260 2301.750 C 495.590 2406.464, 495.637 2408.677, 497.726 2417.777 C 503.362 2442.334, 510.914 2457.305, 524.752 2471.348 C 547.768 2494.705, 584.790 2506.326, 630.991 2504.695 C 666.440 2503.444, 691.514 2495.864, 713.186 2479.847 C 720.478 2474.458, 729.143 2465.560, 734.063 2458.408 C 739.235 2450.891, 745.951 2435.649, 748.475 2425.697 C 753.324 2406.581, 753.301 2407.138, 753.725 2298.250 L 754.126 2195 720.563 2195 L 687 2195 686.992 2292.250 C 686.987 2349.081, 686.577 2393.033, 686.006 2398 C 682.541 2428.126, 671.003 2442.310, 645.792 2447.433 C 635.815 2449.461, 612.994 2449.491, 603.500 2447.489 C 588.028 2444.226, 574.810 2434.464, 568.456 2421.609 C 562.015 2408.575, 562.074 2409.722, 562.035 2296.750 L 562 2195 528.462 2195 L 494.923 2195 495.260 2301.750 M 1110 2346.500 L 1110 2498 1205.500 2498 L 1301 2498 1301 2470 L 1301 2442 1238.500 2442 L 1176 2442 1176 2318.500 L 1176 2195 1143 2195 L 1110 2195 1110 2346.500 M 1350 2346.500 L 1350 2498 1383.500 2498 L 1417 2498 1417 2346.500 L 1417 2195 1383.500 2195 L 1350 2195 1350 2346.500 M 1479 2346.446 L 1479 2498 1555.901 2498 C 1627.493 2498, 1633.586 2497.866, 1644.171 2496.056 C 1688.193 2488.530, 1714.833 2466.771, 1723.758 2431.050 C 1726.269 2420.999, 1725.917 2396.988, 1723.104 2386.500 C 1719.459 2372.912, 1713.700 2362.649, 1704.530 2353.401 C 1695.786 2344.583, 1690.660 2341.201, 1678.764 2336.405 L 1670.989 2333.270 1677.745 2329.397 C 1687.054 2324.061, 1699.871 2311.212, 1703.935 2303.144 C 1708.962 2293.162, 1711 2283.543, 1711 2269.798 C 1711 2254.820, 1709.023 2244.862, 1703.904 2234.054 C 1696.599 2218.630, 1682.417 2207.200, 1663 2201.088 C 1646.023 2195.744, 1645.367 2195.707, 1559.250 2195.285 L 1479 2194.891 1479 2346.446 M 2014 2223 L 2014 2251 2056 2251 L 2098 2251 2098 2374.500 L 2098 2498 2131 2498 L 2164 2498 2164 2374.500 L 2164 2251 2206 2251 L 2248 2251 2248 2223 L 2248 2195 2131 2195 L 2014 2195 2014 2223 M 282.654 2245.572 C 259.303 2250.784, 242.973 2263.915, 231.757 2286.500 C 218.465 2313.268, 215.311 2353.157, 223.879 2386.146 C 232.559 2419.565, 255.116 2442.261, 284.939 2447.581 C 298.056 2449.921, 321.314 2448.986, 326.051 2445.929 C 327.617 2444.917, 325.165 2442.315, 308.069 2426.845 L 299.639 2419.216 314.812 2403.101 C 323.158 2394.238, 330.326 2386.962, 330.743 2386.932 C 331.159 2386.902, 338.846 2393.543, 347.825 2401.689 C 356.804 2409.835, 364.679 2416.500, 365.325 2416.500 C 367.445 2416.500, 376.890 2395.960, 379.478 2385.720 C 387.447 2354.194, 384.160 2313.512, 371.544 2287.500 C 361.211 2266.196, 345.078 2252.114, 324.500 2246.435 C 315.898 2244.060, 291.665 2243.561, 282.654 2245.572 M 1546 2282.432 L 1546 2318 1577.250 2317.992 C 1618.542 2317.982, 1626.750 2316.525, 1636.896 2307.404 C 1644.999 2300.118, 1648.542 2286.974, 1646.015 2273.577 C 1643.749 2261.570, 1636.790 2254.020, 1624.085 2249.782 C 1617.893 2247.717, 1615.364 2247.565, 1581.750 2247.225 L 1546 2246.864 1546 2282.432 M 917.026 2268.513 C 909.626 2287.375, 886 2359.727, 886 2363.529 C 886 2364.796, 890.985 2365, 922 2365 C 941.882 2365, 958 2364.609, 958 2364.126 C 958 2363.645, 957.303 2361.282, 956.450 2358.876 C 955.598 2356.469, 951.054 2342.350, 946.354 2327.500 C 936.784 2297.270, 928.582 2273.724, 924.239 2264.013 L 921.337 2257.525 917.026 2268.513 M 1882.691 2273.302 C 1874.651 2294.855, 1853 2361.207, 1853 2364.294 C 1853 2364.682, 1869.359 2365, 1889.352 2365 L 1925.705 2365 1914.486 2329.750 C 1900.503 2285.813, 1891.251 2259.891, 1889.072 2258.545 C 1888.680 2258.303, 1885.809 2264.944, 1882.691 2273.302 M 1546 2404.419 L 1546 2446 1583.750 2445.983 C 1624.720 2445.964, 1630.281 2445.425, 1639.915 2440.543 C 1651.757 2434.542, 1657.938 2424.498, 1658.770 2409.904 C 1659.890 2390.253, 1653.478 2376.327, 1640.217 2369.611 C 1628.747 2363.803, 1627.630 2363.674, 1585.250 2363.240 L 1546 2362.839 1546 2404.419 M 918 2697.445 L 918 2760 921.886 2760 C 925.740 2760, 925.779 2759.961, 926.465 2755.388 L 927.156 2750.775 929.828 2753.334 C 942.045 2765.033, 968.606 2762.343, 981.106 2748.142 C 1000.920 2725.632, 994.626 2686.295, 969.207 2673.781 C 963.647 2671.044, 961.362 2670.521, 953.455 2670.175 C 943.014 2669.718, 936.025 2671.425, 930.989 2675.663 L 928.040 2678.144 927.770 2656.822 L 927.500 2635.500 922.750 2635.195 L 918 2634.890 918 2697.445 M 1338 2656.427 L 1338 2677.854 1332.381 2674.470 C 1325.855 2670.541, 1320.828 2669.575, 1310.178 2670.206 C 1287.981 2671.521, 1272.748 2689.752, 1272.751 2715 C 1272.755 2740.685, 1287.575 2758.503, 1310.760 2760.698 C 1319.267 2761.504, 1328.504 2758.972, 1333.895 2754.358 C 1338.326 2750.565, 1338.176 2750.477, 1339.219 2757.500 C 1339.445 2759.021, 1340.412 2759.574, 1343.258 2759.810 L 1347 2760.121 1347 2697.560 L 1347 2635 1342.500 2635 L 1338 2635 1338 2656.427 M 1593.803 2636.378 C 1581.785 2639.668, 1576.742 2646.776, 1576.156 2661.250 L 1575.801 2670 1571.401 2670 L 1567 2670 1567 2674 L 1567 2678 1571.500 2678 L 1576 2678 1576 2719 L 1576 2760 1580.500 2760 L 1585 2760 1585 2718.978 L 1585 2677.957 1604.250 2678.228 L 1623.500 2678.500 1623.761 2719.250 L 1624.022 2760 1628.511 2760 L 1633 2760 1633 2715 L 1633 2670 1609 2670 L 1585 2670 1585 2663.743 C 1585 2651.145, 1588.552 2645.791, 1598.234 2643.791 L 1604.096 2642.580 1603.798 2639.040 C 1603.549 2636.077, 1603.093 2635.467, 1601 2635.296 C 1599.625 2635.184, 1596.386 2635.671, 1593.803 2636.378 M 1798 2697.445 L 1798 2760 1801.886 2760 C 1805.726 2760, 1805.781 2759.945, 1806.447 2755.502 L 1807.122 2751.004 1810.811 2753.957 C 1821.383 2762.419, 1837.331 2763.114, 1851.321 2755.722 C 1876.356 2742.492, 1880.525 2700.731, 1858.836 2680.443 C 1851.402 2673.489, 1844.344 2670.608, 1833.654 2670.163 C 1823.386 2669.735, 1817.593 2671.063, 1811.972 2675.135 L 1808.040 2677.984 1807.770 2656.742 L 1807.500 2635.500 1802.750 2635.195 L 1798 2634.890 1798 2697.445 M 150.167 2636.879 C 150.350 2637.362, 160.380 2665.487, 172.455 2699.379 L 194.410 2761 201.566 2761 L 208.721 2761 225.510 2713.250 C 234.744 2686.988, 244.653 2658.841, 247.530 2650.702 L 252.761 2635.904 247.665 2636.202 L 242.570 2636.500 222.805 2693.500 C 211.934 2724.850, 202.694 2751.287, 202.270 2752.248 C 201.737 2753.458, 195.831 2737.896, 183.103 2701.748 C 172.985 2673.012, 163.595 2646.463, 162.237 2642.750 L 159.768 2636 154.801 2636 C 152.069 2636, 149.983 2636.396, 150.167 2636.879 M 737.006 2688.750 C 737.009 2721.002, 737.402 2742.906, 738.016 2745.118 C 740.453 2753.890, 748.128 2760, 756.712 2760 L 761 2760 761 2756.128 C 761 2752.392, 760.861 2752.233, 757.052 2751.624 C 751.829 2750.789, 748.108 2747.421, 746.972 2742.500 C 746.463 2740.300, 746.037 2715.438, 746.024 2687.250 L 746 2636 741.500 2636 L 737 2636 737.006 2688.750 M 1159 2689.351 C 1159 2726.576, 1159.344 2743.729, 1160.138 2746.101 C 1162.871 2754.264, 1170.268 2759.931, 1178.250 2759.978 C 1181.962 2760, 1182 2759.959, 1182 2756 C 1182 2752.520, 1181.708 2752, 1179.750 2751.996 C 1176.155 2751.990, 1171.002 2748.249, 1169.440 2744.510 C 1168.249 2741.660, 1168 2731.989, 1168 2688.532 L 1168 2636 1163.500 2636 L 1159 2636 1159 2689.351 M 1623 2642.500 L 1623 2649 1628 2649 L 1633 2649 1633 2642.500 L 1633 2636 1628 2636 L 1623 2636 1623 2642.500 M 1917 2642.500 L 1917 2649 1921.500 2649 L 1926 2649 1926 2642.500 L 1926 2636 1921.500 2636 L 1917 2636 1917 2642.500 M 1975.217 2690.250 L 1975.500 2744.500 1977.871 2749.316 C 1980.939 2755.547, 1986.008 2758.939, 1993.391 2759.701 L 1999 2760.280 1999 2756.140 C 1999 2752.645, 1998.683 2752, 1996.968 2752 C 1993.036 2752, 1988.134 2749.160, 1986.316 2745.829 C 1984.637 2742.752, 1984.477 2738.476, 1984.194 2689.250 L 1983.888 2636 1979.411 2636 L 1974.934 2636 1975.217 2690.250 M 2040 2642.500 L 2040 2649 2045 2649 L 2050 2649 2050 2642.500 L 2050 2636 2045 2636 L 2040 2636 2040 2642.500 M 2208.420 2643.750 C 2206.357 2647.463, 2204.016 2651.512, 2203.219 2652.750 C 2201.795 2654.962, 2201.844 2655, 2206.135 2654.976 C 2210.422 2654.953, 2210.598 2654.816, 2216 2647.286 C 2219.025 2643.069, 2221.860 2639.030, 2222.300 2638.310 C 2222.921 2637.292, 2221.880 2637, 2217.636 2637 L 2212.172 2637 2208.420 2643.750 M 412.500 2646.491 C 411.950 2646.675, 410.262 2647.098, 408.750 2647.432 L 406 2648.038 406 2659.019 L 406 2670 399.500 2670 L 393 2670 393 2674 L 393 2678 399.437 2678 L 405.875 2678 406.187 2710.250 C 406.482 2740.669, 406.620 2742.755, 408.620 2747 C 412.413 2755.051, 418.617 2759.217, 428.832 2760.572 L 434 2761.258 434 2756.759 L 434 2752.260 429.386 2751.740 C 424.037 2751.137, 420.321 2748.685, 417.500 2743.895 C 415.636 2740.730, 415.479 2738.383, 415.186 2709.288 L 414.872 2678.077 424.186 2677.788 L 433.500 2677.500 433.808 2673.788 L 434.116 2670.077 424.808 2669.788 L 415.500 2669.500 415.218 2657.750 C 415.063 2651.287, 414.613 2646.036, 414.218 2646.079 C 413.823 2646.122, 413.050 2646.308, 412.500 2646.491 M 2104.500 2646.876 L 2101.500 2647.516 2101.217 2658.758 L 2100.934 2670 2093.907 2670 L 2086.879 2670 2087.190 2673.750 L 2087.500 2677.500 2094.200 2677.795 L 2100.900 2678.089 2101.200 2711.295 C 2101.490 2743.397, 2101.574 2744.638, 2103.722 2748.655 C 2107.394 2755.523, 2113.283 2759.164, 2122.847 2760.479 L 2128 2761.188 2128 2756.594 C 2128 2752.254, 2127.848 2751.999, 2125.250 2751.978 C 2120.106 2751.937, 2114.276 2748.462, 2112.059 2744.115 C 2110.111 2740.298, 2110 2738.401, 2110 2709.040 L 2110 2678 2119 2678 L 2128 2678 2128 2674 L 2128 2670 2119 2670 L 2110 2670 2110 2658 C 2110 2649.004, 2109.687 2646.030, 2108.750 2646.118 C 2108.063 2646.183, 2106.150 2646.525, 2104.500 2646.876 M 307.618 2669.049 C 305.482 2669.585, 301.098 2671.429, 297.875 2673.147 C 280.790 2682.253, 270.891 2702.395, 273.865 2722 C 279.458 2758.875, 321.326 2774.666, 347.605 2749.813 C 357.869 2740.105, 362.237 2729.713, 362.237 2715 C 362.237 2700.287, 357.869 2689.895, 347.605 2680.187 C 339.381 2672.409, 331.032 2668.824, 320.174 2668.407 C 315.403 2668.224, 309.753 2668.513, 307.618 2669.049 M 824 2669.085 C 818.040 2670.233, 811.366 2672.784, 806.736 2675.685 C 802.995 2678.029, 802.981 2678.062, 804.511 2681.022 C 805.358 2682.660, 806.439 2684, 806.913 2684 C 807.388 2684, 810.863 2682.554, 814.638 2680.787 C 820.409 2678.085, 822.948 2677.510, 830.606 2677.174 C 851.315 2676.265, 860.927 2683.732, 860.978 2700.770 L 861 2708.041 857.030 2706.016 C 840.610 2697.638, 817.224 2699.962, 804.369 2711.249 C 795.567 2718.977, 793.301 2733.280, 799.055 2744.794 C 804.539 2755.769, 815.056 2761.236, 831 2761.402 C 841.904 2761.515, 848.137 2759.791, 856.025 2754.483 C 858.748 2752.651, 861.147 2751.455, 861.356 2751.826 C 861.566 2752.197, 862.042 2754.188, 862.414 2756.250 C 863.044 2759.743, 863.331 2760, 866.604 2760 L 870.118 2760 869.809 2725.250 L 869.500 2690.500 866.814 2685.410 C 861.958 2676.207, 854.099 2671.033, 841.994 2669.069 C 834.538 2667.859, 830.350 2667.863, 824 2669.085 M 1704.043 2669.139 C 1698.779 2670.011, 1689.949 2673.510, 1685.219 2676.598 C 1682.988 2678.054, 1682.976 2678.152, 1684.685 2681.043 C 1685.645 2682.669, 1686.734 2684, 1687.103 2684 C 1687.473 2684, 1690.863 2682.554, 1694.638 2680.787 C 1700.409 2678.085, 1702.948 2677.510, 1710.606 2677.174 C 1731.282 2676.266, 1740.926 2683.737, 1740.978 2700.704 L 1741 2707.908 1735.750 2705.474 C 1728.148 2701.950, 1720.687 2700.681, 1711 2701.265 C 1696.439 2702.142, 1685.516 2707.761, 1679.521 2717.456 C 1676.978 2721.570, 1676.444 2723.572, 1676.147 2730.107 C 1675.848 2736.695, 1676.164 2738.675, 1678.240 2743.185 C 1681.294 2749.820, 1686.005 2754.558, 1692.606 2757.635 C 1706.778 2764.240, 1724.761 2762.751, 1736.886 2753.968 C 1741.800 2750.408, 1741.996 2750.380, 1742.014 2753.250 C 1742.045 2758.479, 1743.083 2760, 1746.617 2760 L 1750 2760 1750 2727.115 C 1750 2690.289, 1749.584 2687.379, 1743.265 2679.997 C 1738.634 2674.586, 1732.606 2671.235, 1724.364 2669.489 C 1716.743 2667.874, 1712.147 2667.795, 1704.043 2669.139 M 499.144 2670.698 C 496.748 2671.545, 492.801 2674.140, 490.374 2676.466 C 485.560 2681.078, 485.462 2681.026, 484.774 2673.500 C 484.529 2670.814, 484.108 2670.468, 480.750 2670.190 L 477 2669.879 477 2714.940 L 477 2760 481.500 2760 L 486 2760 486 2728.678 C 486 2692.615, 486.317 2690.728, 493.479 2684.126 C 501.150 2677.055, 512.891 2675.184, 523.050 2679.415 C 524.155 2679.875, 525.089 2679.036, 526.300 2676.496 C 527.235 2674.536, 528 2672.740, 528 2672.505 C 528 2672.270, 525.668 2671.385, 522.818 2670.539 C 516.307 2668.605, 504.846 2668.682, 499.144 2670.698 M 585.500 2670.348 C 578.433 2672.684, 573.232 2675.863, 568.133 2680.962 C 546.435 2702.660, 552.548 2743.277, 579.518 2756.606 C 585.829 2759.725, 588.143 2760.316, 595.744 2760.750 C 605.682 2761.316, 613.360 2759.663, 620.790 2755.356 C 625.634 2752.548, 632 2747.215, 632 2745.965 C 632 2745.509, 630.640 2744.168, 628.978 2742.984 L 625.955 2740.832 622.278 2744.060 C 616.298 2749.312, 610.615 2751.327, 600.500 2751.783 C 593.032 2752.121, 590.519 2751.820, 585.738 2750.019 C 575.074 2746, 565.510 2733.704, 564.232 2722.369 L 563.743 2718.024 601.621 2717.762 L 639.500 2717.500 639.825 2713 C 640.614 2702.090, 635.372 2688.320, 627.395 2680.342 C 624.923 2677.871, 619.886 2674.432, 616.201 2672.701 C 610.290 2669.924, 608.321 2669.521, 599.500 2669.289 C 593.197 2669.123, 588.021 2669.514, 585.500 2670.348 M 1061.500 2670.348 C 1042.572 2676.606, 1031 2693.157, 1031 2713.971 C 1031 2736.154, 1043.353 2754.058, 1062.445 2759.546 C 1070.128 2761.755, 1083.193 2761.104, 1091 2758.124 C 1096.242 2756.122, 1108 2747.857, 1108 2746.173 C 1108 2745.735, 1106.630 2744.363, 1104.954 2743.124 L 1101.909 2740.873 1098.255 2744.081 C 1092.448 2749.180, 1086.570 2751.312, 1077 2751.791 C 1066.931 2752.295, 1061.883 2751.115, 1055.376 2746.736 C 1047.484 2741.426, 1041.728 2732.089, 1039.670 2721.262 L 1039.055 2718.024 1077.277 2717.762 L 1115.500 2717.500 1115.806 2713.279 C 1116.584 2702.549, 1111.325 2688.605, 1103.439 2680.491 C 1100.821 2677.797, 1096.147 2674.555, 1092.225 2672.712 C 1086.287 2669.922, 1084.329 2669.522, 1075.500 2669.289 C 1069.197 2669.123, 1064.021 2669.514, 1061.500 2670.348 M 1421.500 2670.348 C 1402.572 2676.606, 1391 2693.157, 1391 2713.971 C 1391 2736.154, 1403.353 2754.058, 1422.445 2759.546 C 1430.128 2761.755, 1443.193 2761.104, 1451 2758.124 C 1456.242 2756.122, 1468 2747.857, 1468 2746.173 C 1468 2745.735, 1466.630 2744.363, 1464.954 2743.124 L 1461.909 2740.873 1458.255 2744.081 C 1452.448 2749.180, 1446.570 2751.312, 1437 2751.791 C 1426.931 2752.295, 1421.883 2751.115, 1415.376 2746.736 C 1407.484 2741.426, 1401.728 2732.089, 1399.670 2721.262 L 1399.055 2718.024 1437.277 2717.762 L 1475.500 2717.500 1475.806 2713.279 C 1476.596 2702.384, 1471.243 2688.401, 1463.206 2680.364 C 1460.605 2677.763, 1455.601 2674.299, 1452.003 2672.608 C 1446.312 2669.934, 1444.252 2669.520, 1435.500 2669.289 C 1429.197 2669.123, 1424.021 2669.514, 1421.500 2670.348 M 2194.680 2670.913 C 2183.597 2674.558, 2175.630 2681.642, 2170.401 2692.500 C 2161.395 2711.202, 2164.182 2732.454, 2177.662 2747.864 C 2192.011 2764.267, 2221.300 2765.469, 2238.045 2750.340 C 2240.220 2748.375, 2242 2746.400, 2242 2745.952 C 2242 2745.503, 2240.640 2744.168, 2238.978 2742.984 L 2235.955 2740.832 2232.278 2744.060 C 2226.414 2749.210, 2220.591 2751.311, 2210.823 2751.802 C 2200.922 2752.299, 2195.710 2750.960, 2188.657 2746.108 C 2181.676 2741.305, 2174 2727.801, 2174 2720.322 L 2174 2718 2212 2718 L 2250 2718 2250 2711.089 C 2250 2694.142, 2240.929 2679.450, 2226.037 2672.277 C 2218.532 2668.662, 2203.511 2668.008, 2194.680 2670.913 M 1917 2715 L 1917 2760 1921.500 2760 L 1926 2760 1926 2715 L 1926 2670 1921.500 2670 L 1917 2670 1917 2715 M 2041 2715 L 2041 2760 2045.500 2760 L 2050 2760 2050 2715 L 2050 2670 2045.500 2670 L 2041 2670 2041 2715 M 312.217 2677.179 C 301.390 2678.847, 291.243 2686.736, 286.380 2697.266 C 283.735 2702.991, 283.500 2704.439, 283.500 2715 C 283.500 2725.829, 283.684 2726.888, 286.655 2733.159 C 290.437 2741.142, 296.531 2747.376, 304 2750.903 C 308.577 2753.064, 310.927 2753.500, 318 2753.500 C 325.214 2753.500, 327.333 2753.091, 332.007 2750.795 C 339.483 2747.124, 345.662 2740.799, 349.392 2733 C 352.313 2726.890, 352.500 2725.809, 352.500 2714.979 C 352.500 2703.980, 352.351 2703.156, 349.219 2696.794 C 342.127 2682.388, 327.777 2674.781, 312.217 2677.179 M 588.929 2678.304 C 582.282 2680.189, 575.652 2684.389, 571.954 2689.058 C 568.189 2693.812, 564.058 2703.289, 564.024 2707.250 L 564 2710 598 2710 C 624.540 2710, 631.997 2709.726, 631.988 2708.750 C 631.968 2706.607, 629.351 2697.528, 628.012 2694.954 C 621.064 2681.597, 603.582 2674.149, 588.929 2678.304 M 1064.929 2678.305 C 1058.791 2680.044, 1051.819 2684.241, 1048.446 2688.230 C 1045.128 2692.153, 1041.457 2699.914, 1040.158 2705.750 L 1039.213 2710 1073.581 2710 L 1107.950 2710 1107.382 2706.750 C 1105.001 2693.116, 1097.279 2683.274, 1085.885 2679.348 C 1079.850 2677.269, 1070.272 2676.793, 1064.929 2678.305 M 1424.929 2678.305 C 1412.100 2681.938, 1403.653 2691.052, 1400.420 2704.750 L 1399.180 2710 1433.565 2710 L 1467.950 2710 1467.382 2706.750 C 1465.001 2693.116, 1457.279 2683.274, 1445.885 2679.348 C 1439.850 2677.269, 1430.272 2676.793, 1424.929 2678.305 M 2200.326 2677.984 C 2189.054 2680.377, 2180.050 2688.729, 2175.975 2700.573 C 2172.408 2710.941, 2169.199 2710, 2208.128 2710 L 2242.256 2710 2241.581 2705.750 C 2240.666 2699.986, 2236.980 2692.186, 2233.063 2687.725 C 2226.230 2679.943, 2211.602 2675.590, 2200.326 2677.984 M 938.581 2680.014 C 935.876 2681.071, 932.163 2683.388, 930.331 2685.164 L 927 2688.392 927 2713.968 L 927 2739.544 929.894 2743.056 C 931.486 2744.987, 935.199 2747.884, 938.144 2749.494 C 949.553 2755.728, 966.357 2751.814, 974.970 2740.918 C 990.842 2720.839, 984.112 2688.172, 962.433 2680.061 C 955.326 2677.402, 945.322 2677.382, 938.581 2680.014 M 1303.909 2679.495 C 1298.724 2681.158, 1290.931 2687.557, 1287.563 2692.916 C 1283.210 2699.842, 1281.741 2706.375, 1282.180 2716.847 C 1282.502 2724.551, 1283.108 2727.634, 1285.177 2732.120 C 1291.023 2744.790, 1301.702 2751.998, 1314.628 2751.999 C 1323.206 2752, 1327.590 2750.341, 1333.567 2744.831 L 1338 2740.745 1338 2713.924 L 1338 2687.102 1334.750 2684.669 C 1328.416 2679.927, 1324.759 2678.658, 1316.500 2678.336 C 1311.383 2678.135, 1306.846 2678.553, 1303.909 2679.495 M 1818.581 2680.014 C 1815.876 2681.071, 1812.163 2683.388, 1810.331 2685.164 L 1807 2688.392 1807 2713.968 L 1807 2739.544 1809.894 2743.056 C 1811.486 2744.987, 1815.199 2747.886, 1818.144 2749.497 C 1828.157 2754.975, 1842.379 2752.752, 1852.138 2744.184 C 1857.129 2739.801, 1861.727 2730.629, 1863.180 2722.153 C 1865.496 2708.653, 1860.613 2693.105, 1851.650 2685.432 C 1843.236 2678.230, 1829.087 2675.912, 1818.581 2680.014 M 828.966 2710.137 C 813.669 2711.672, 805.016 2719.311, 805.005 2731.290 C 804.994 2743.735, 812.605 2751.074, 827.500 2752.981 C 838.625 2754.406, 852.732 2750.244, 858.781 2743.753 C 860.945 2741.430, 861.048 2740.648, 860.781 2728.463 L 860.500 2715.620 854.543 2713.227 C 847.463 2710.383, 837.961 2709.235, 828.966 2710.137 M 1708.966 2710.137 C 1697.866 2711.251, 1689.597 2716.223, 1686.381 2723.718 C 1683.012 2731.568, 1685.691 2742.374, 1692.245 2747.373 C 1701.701 2754.586, 1718.495 2755.326, 1730.831 2749.074 C 1740.807 2744.018, 1741.108 2743.393, 1740.781 2728.406 L 1740.500 2715.508 1734.630 2713.180 C 1727.602 2710.394, 1717.890 2709.242, 1708.966 2710.137" stroke="none" fill="#fbfbfb" fill-rule="evenodd"/><path d="M 904.218 38.471 C 901.863 39.206, 899.388 40.242, 898.718 40.773 C 898.048 41.304, 895.025 42.305, 892 42.997 C 888.975 43.690, 880.875 45.788, 874 47.661 C 867.125 49.534, 855.875 51.979, 849 53.093 C 842.125 54.208, 832.900 55.944, 828.500 56.951 C 814.012 60.268, 809.831 61.013, 808.910 60.444 C 808.409 60.135, 808 60.266, 808 60.736 C 808 61.647, 795.103 64.456, 786 65.527 C 776.616 66.631, 756.127 70.980, 750.685 73.023 C 745.759 74.873, 742.016 78.330, 739.185 83.645 C 737.382 87.030, 736.772 96.034, 737.975 101.500 C 739.079 106.515, 741.257 117.454, 742.455 124 C 743.365 128.971, 745.894 138.769, 747.542 143.703 C 749.194 148.654, 755.224 177.806, 758.567 197 C 762.849 221.596, 767.385 241.144, 773.251 260.286 C 774.900 265.668, 776.371 272.193, 776.519 274.786 C 776.668 277.379, 778.150 285.350, 779.814 292.500 C 781.478 299.650, 783.370 309.100, 784.019 313.500 C 784.668 317.900, 785.872 323.075, 786.693 325 C 787.515 326.925, 788.573 331.200, 789.044 334.500 C 789.516 337.800, 790.853 344.775, 792.016 350 C 793.804 358.041, 796.246 370.743, 798.691 384.730 C 799.001 386.507, 799.597 387.749, 800.014 387.491 C 800.973 386.899, 801.969 390.531, 801.986 394.689 C 801.994 396.444, 803.350 403.407, 805 410.164 C 806.650 416.921, 808.003 423.811, 808.006 425.475 C 808.009 427.139, 808.418 430.075, 808.914 432 C 809.411 433.925, 810.108 437.210, 810.463 439.301 C 810.926 442.023, 812.534 444.556, 816.124 448.223 C 824.330 456.604, 828.527 456.934, 852.500 451.089 C 856.900 450.017, 865.675 447.943, 872 446.481 C 878.325 445.020, 885.217 443.180, 887.316 442.394 C 889.415 441.607, 891.489 441.184, 891.926 441.454 C 893.166 442.221, 911.216 438.436, 925 434.519 C 931.875 432.565, 941.550 430.519, 946.500 429.972 C 951.450 429.425, 960.225 427.688, 966 426.112 C 971.775 424.536, 981.900 422.251, 988.500 421.034 C 1007.852 417.465, 1013.406 413.988, 1016.152 403.721 C 1017.596 398.323, 1016.931 393.935, 1010.940 369.300 C 1008.773 360.389, 1007 350.700, 1007 347.768 C 1007 343.382, 1006.363 341.420, 1003.405 336.691 C 997.201 326.772, 988.635 324.194, 975.851 328.398 C 962.449 332.806, 948.756 335.902, 940 336.504 C 935.325 336.825, 926.292 338.007, 919.926 339.130 C 900.160 342.617, 896.959 340.408, 891.436 319.474 C 885.850 298.303, 885.912 292.331, 891.773 286.719 C 897.356 281.372, 903.402 279.526, 930.500 274.891 C 959.548 269.923, 963.436 268.684, 968.664 262.730 C 975.131 255.365, 975.332 245.183, 969.342 228.500 C 967.960 224.650, 966.622 219.700, 966.370 217.500 C 964.295 199.391, 960.981 187.187, 956.866 182.500 C 951.176 176.020, 944.846 175.826, 924 181.496 C 918.775 182.917, 909.325 185.002, 903 186.129 C 896.675 187.256, 889.392 188.556, 886.817 189.018 C 884.241 189.480, 881.233 190.340, 880.132 190.929 C 875.442 193.439, 866.854 190.535, 863.509 185.308 C 862.520 183.763, 860.877 181.695, 859.856 180.711 C 858.835 179.727, 858 178.014, 858 176.903 C 858 175.793, 857.061 170.352, 855.913 164.813 C 853.592 153.612, 853.922 149.082, 857.288 145.946 C 862.427 141.159, 868.365 139.010, 887.329 135.074 C 912.642 129.821, 929.166 125.582, 934.616 122.944 C 945.713 117.572, 947.301 109.214, 941.642 85.975 C 939.696 77.986, 937.575 67.186, 936.928 61.975 C 935.519 50.631, 932.941 44.033, 928.339 39.993 C 925.127 37.172, 924.457 37.004, 916.715 37.067 C 912.197 37.104, 906.573 37.735, 904.218 38.471 M 646 90.481 C 643.525 91.285, 635.558 92.931, 628.296 94.141 C 621.034 95.350, 615.298 96.673, 615.549 97.079 C 615.800 97.486, 612.742 98.350, 608.753 99 C 598.998 100.590, 590.200 103.273, 573.500 109.751 C 565.800 112.737, 557.792 115.820, 555.704 116.601 C 542.311 121.613, 529.008 129.689, 514.774 141.448 C 498.870 154.587, 479.925 181.416, 473.436 199.991 C 470.896 207.259, 470.158 210.180, 467.494 223.500 C 466.724 227.350, 465.367 233.875, 464.478 238 C 459.688 260.222, 465.058 315.273, 475.920 355.302 C 478.646 365.348, 482.061 376.702, 483.509 380.534 C 484.957 384.365, 487.500 391.100, 489.160 395.500 C 490.821 399.900, 492.214 404.063, 492.256 404.750 C 492.299 405.438, 492.708 406, 493.167 406 C 493.625 406, 494 406.471, 494 407.047 C 494 408.943, 503.939 428.022, 507.946 433.818 C 513.129 441.315, 525.887 455.391, 534 462.562 C 537.575 465.722, 543.772 471.275, 547.771 474.903 C 554.828 481.307, 566.159 489, 568.532 489 C 569.176 489, 571.730 490.078, 574.209 491.396 C 579.837 494.389, 591.747 497.506, 603.500 499.064 C 617.695 500.945, 646.955 500.821, 656.500 498.839 C 660.900 497.926, 667.650 496.620, 671.500 495.938 C 675.350 495.255, 682.775 493.826, 688 492.762 C 693.225 491.698, 699.844 490.413, 702.709 489.906 C 711.133 488.417, 744.547 476.408, 749.211 473.194 C 751.570 471.568, 755.525 468.385, 758 466.119 C 760.474 463.854, 762.797 462, 763.160 462 C 763.524 462, 764.762 460.058, 765.911 457.684 C 768.555 452.221, 768.605 445.239, 766.071 435.167 C 765.010 430.950, 763.849 425.250, 763.491 422.500 C 762.257 413.031, 760.024 401.913, 758.956 399.917 C 758.367 398.817, 757.692 395.408, 757.457 392.343 C 757.038 386.875, 756.084 383.041, 751.401 368 C 748.670 359.227, 745.503 344.918, 744.486 336.750 C 744.092 333.587, 743.323 331, 742.778 331 C 742.232 331, 742.074 330.248, 742.427 329.330 C 742.779 328.411, 742.575 327.356, 741.973 326.984 C 741.371 326.611, 740.885 324.326, 740.893 321.904 C 740.900 319.482, 739.144 310.075, 736.990 301 C 734.836 291.925, 732.330 280.675, 731.421 276 C 730.513 271.325, 728.921 264.232, 727.885 260.239 C 726.848 256.245, 725.996 251.745, 725.990 250.239 C 725.977 246.635, 721.888 238.064, 718.882 235.343 C 715.026 231.851, 708.621 228.977, 703.384 228.390 C 699.600 227.965, 695.798 228.631, 686.500 231.345 C 679.900 233.272, 671.575 235.562, 668 236.434 C 664.425 237.305, 659.250 238.664, 656.500 239.453 C 653.750 240.242, 647.675 241.408, 643 242.044 C 631.229 243.646, 615.088 247.372, 611.496 249.315 C 607.381 251.542, 604.781 253.864, 601.632 258.126 C 597.614 263.562, 597.680 274.363, 601.834 291 C 603.550 297.875, 605.414 306.766, 605.975 310.758 C 608.433 328.247, 610.894 334.203, 617.333 338.250 C 622.361 341.409, 625.707 341.660, 632.401 339.379 C 638.157 337.418, 645.161 337.983, 648.802 340.702 C 653.687 344.348, 655.095 347.414, 657.013 358.580 C 658.044 364.586, 659.825 372.109, 660.970 375.298 C 665.276 387.293, 664.338 395.223, 658.239 398.376 C 653.778 400.683, 642.570 402.300, 634.586 401.787 C 626.259 401.253, 620.945 398.630, 614.352 391.798 C 609.517 386.789, 590.997 360.874, 587.866 354.738 C 583.722 346.614, 580.910 336.293, 577.039 315 C 573.798 297.170, 572.947 289.653, 572.051 270.965 C 570.908 247.122, 571.182 243.544, 575.086 231.461 C 576.904 225.833, 578.424 223.504, 584.380 217.220 C 589.990 211.300, 593.197 208.882, 599.500 205.818 C 608.408 201.488, 620.408 197.593, 629.500 196.082 C 632.800 195.533, 638.200 194.618, 641.500 194.048 C 649.837 192.608, 655.216 192.742, 662.251 194.565 C 668.423 196.164, 673.711 195.672, 681.276 192.792 C 685.336 191.247, 692.793 182.483, 694.064 177.763 C 695.428 172.695, 693.824 163.284, 687.031 136.500 C 684.381 126.050, 681.688 114.321, 681.047 110.435 C 679.734 102.474, 675.426 93.980, 671.344 91.306 C 667.756 88.955, 652.258 88.451, 646 90.481 M 306.500 172.178 C 298.800 172.663, 290.475 173.755, 288 174.605 C 285.525 175.455, 272.700 178.823, 259.500 182.090 C 246.300 185.356, 230.775 189.200, 225 190.630 C 214.221 193.301, 205.033 195.156, 201.500 195.376 C 200.400 195.444, 199.275 195.763, 199 196.084 C 198.725 196.404, 192.484 197.838, 185.132 199.270 C 173.935 201.450, 170.900 202.447, 166.441 205.408 C 156.946 211.712, 153.547 220.709, 155.924 233.250 C 157.744 242.848, 161.186 256.377, 162.113 257.568 C 162.570 258.156, 163.623 263.106, 164.453 268.568 C 165.283 274.031, 167.090 283, 168.469 288.500 C 169.848 294, 171.887 303.450, 172.999 309.500 C 174.111 315.550, 175.710 322.750, 176.553 325.500 C 177.395 328.250, 178.959 335, 180.030 340.500 C 181.101 346, 182.659 353.425, 183.493 357 C 187.797 375.455, 190.047 386.182, 190.940 392.500 C 191.484 396.350, 192.845 402.158, 193.964 405.407 C 195.084 408.655, 196 413.021, 196 415.107 C 196 419.387, 197.330 426.424, 199.948 436 C 200.925 439.575, 202.276 446.100, 202.950 450.500 C 203.623 454.900, 205.035 460.470, 206.087 462.877 C 207.139 465.285, 207.998 468.660, 207.995 470.377 C 207.992 472.095, 208.667 475.525, 209.494 478 C 214.524 493.055, 216.180 499.071, 217.555 507.294 C 218.401 512.357, 219.748 518.197, 220.547 520.270 C 221.346 522.344, 222 525.827, 222 528.011 C 222 530.195, 223.078 537.274, 224.396 543.741 C 225.713 550.209, 227.319 558.650, 227.963 562.500 C 228.607 566.350, 229.362 570.726, 229.641 572.224 C 229.919 573.722, 232.159 577.185, 234.617 579.919 C 241.136 587.170, 243.950 587.383, 263.308 582.094 C 293.112 573.950, 300.149 572.368, 310.500 571.484 C 324.614 570.278, 331.010 565.810, 330.988 557.173 C 330.982 554.603, 330.276 550.025, 329.420 547 C 328.564 543.975, 327.274 538.339, 326.554 534.475 C 325.834 530.612, 324.326 524.087, 323.203 519.975 C 322.080 515.864, 320.651 509.666, 320.028 506.201 C 319.404 502.737, 317.568 495.594, 315.947 490.328 C 312.351 478.646, 312.056 471.164, 315.083 468.425 C 317.126 466.576, 317.236 466.580, 320.833 468.627 C 322.850 469.776, 327.565 474.693, 331.312 479.555 C 335.059 484.417, 339.619 490.050, 341.447 492.073 C 343.274 494.096, 346.018 497.944, 347.545 500.625 C 349.071 503.306, 351.777 507.075, 353.559 509 C 357.908 513.699, 373.580 533.652, 378.264 540.454 C 386.584 552.535, 392.985 554.224, 411.500 549.223 C 417.550 547.589, 425.875 545.313, 430 544.166 C 434.125 543.018, 444.700 540.721, 453.500 539.062 C 475.039 534.999, 479.684 533.516, 483.819 529.381 C 487.045 526.155, 487.218 525.640, 486.793 520.523 C 486.177 513.092, 482.588 507.736, 464.464 487.205 C 457.337 479.132, 453.123 473.665, 447.031 464.588 C 441.490 456.333, 419.406 430, 418.024 430 C 416.710 430, 409 416.544, 409 414.249 C 409 413.077, 411.531 408.424, 414.624 403.907 C 419.412 396.916, 423.472 389.230, 426.988 380.500 C 428.724 376.190, 432.192 362.745, 433.105 356.781 C 436.927 331.820, 436.994 330.907, 436.015 317.206 C 435.482 309.748, 434.670 303.388, 434.212 303.073 C 433.753 302.758, 432.878 298.675, 432.266 294 C 431.655 289.325, 429.748 281, 428.029 275.500 C 426.310 270, 423.974 262.350, 422.839 258.500 C 418.438 243.574, 415.626 236.759, 409.765 226.815 C 396.782 204.784, 383.815 191.456, 365.650 181.472 C 357.981 177.256, 356.171 176.677, 340.612 173.459 C 327.931 170.836, 327.874 170.834, 306.500 172.178 M 286.554 270.727 C 283.970 271.384, 277.919 275.271, 275.820 277.622 C 274.895 278.657, 273.618 280.853, 272.980 282.502 C 271.377 286.651, 271.647 299.935, 273.376 301.928 C 274.125 302.793, 274.575 303.950, 274.375 304.500 C 274.175 305.050, 275.164 310.675, 276.574 317 C 277.983 323.325, 279.264 329.175, 279.419 330 C 280.837 337.516, 281.408 339.772, 282.333 341.500 C 282.921 342.600, 283.537 344.400, 283.702 345.500 C 284.082 348.039, 290.212 353.364, 295.817 356.024 C 300.045 358.031, 306.754 358.457, 310 356.924 C 310.825 356.534, 312.625 355.699, 314 355.068 C 321.836 351.472, 324.276 348.464, 326.332 339.867 C 327.779 333.815, 327.601 322.970, 325.933 315.500 C 325.319 312.750, 324.692 309.375, 324.539 308 C 323.845 301.741, 322.473 297.138, 319.634 291.543 C 317.948 288.219, 316.216 285.350, 315.784 285.167 C 315.353 284.983, 315 284.376, 315 283.818 C 315 282.968, 310.087 278.002, 304.664 273.369 C 301.993 271.088, 291.279 269.525, 286.554 270.727 M 89.585 399.107 C 73.617 401.435, 54.259 409.432, 42 418.764 C 22.358 433.715, 9.025 453.583, 2.672 477.368 L 0.500 485.500 0.500 1655.500 L 0.500 2825.500 3.284 2834.500 C 9.160 2853.495, 17.461 2867.571, 30.445 2880.555 C 43.429 2893.539, 57.505 2901.840, 76.500 2907.716 L 85.500 2910.500 1200 2910.500 L 2314.500 2910.500 2323.500 2907.716 C 2347.303 2900.353, 2365.635 2887.797, 2379.257 2869.528 C 2389.057 2856.384, 2396.791 2838.597, 2398.584 2825.077 C 2398.958 2822.260, 2399.654 2819.714, 2400.132 2819.419 C 2400.622 2819.116, 2401 2311.340, 2401 1653.382 C 2401 876.637, 2400.666 488.088, 2400 488.500 C 2399.439 488.846, 2399 488.064, 2399 486.719 C 2399 485.399, 2398.127 480.906, 2397.060 476.735 C 2391.256 454.040, 2377.467 433.513, 2358.238 418.943 C 2349.067 411.995, 2333.561 404.517, 2321.500 401.228 L 2311.500 398.500 1682.323 398.244 L 1053.145 397.987 1052.496 403.744 C 1050.475 421.662, 1042.194 435.883, 1028.241 445.396 C 1019.895 451.086, 1013.164 453.488, 998.737 455.925 C 992.557 456.970, 983 458.963, 977.500 460.356 C 972 461.748, 960.975 464.072, 953 465.519 C 945.025 466.966, 933.325 469.429, 927 470.992 C 920.675 472.555, 911.675 474.586, 907 475.505 C 902.325 476.423, 885.675 480.285, 870 484.085 C 844.803 490.194, 840.376 490.995, 831.802 490.998 C 820.210 491, 809.510 488.042, 801.163 482.527 C 798.227 480.587, 795.512 479, 795.128 479 C 794.745 479, 793.698 480.238, 792.802 481.750 C 790.574 485.509, 780.228 495.594, 774.884 499.216 C 756.495 511.675, 728.214 521.170, 678.434 531.598 C 658.073 535.863, 655.135 536.230, 637.471 536.721 C 600.742 537.740, 569.267 531.464, 546.788 518.638 C 539.121 514.264, 523.708 502.561, 519.076 497.598 C 515.604 493.878, 514.650 494.393, 516.888 498.780 C 520.810 506.469, 522.243 513.743, 521.835 523.899 C 521.489 532.519, 521.058 534.345, 517.711 541.393 C 510.414 556.758, 497.120 566.397, 478.207 570.035 C 472.868 571.062, 463.775 572.815, 458 573.930 C 452.225 575.046, 438.050 578.508, 426.500 581.624 C 408.155 586.574, 404.299 587.298, 396 587.351 C 385.223 587.421, 376.738 585.122, 368.506 579.901 C 365.878 578.235, 363.437 577.238, 363.080 577.686 C 362.724 578.134, 360.655 581.160, 358.484 584.410 C 349.746 597.490, 339.467 602.814, 314.935 606.966 C 305.346 608.589, 291.200 611.767, 283.500 614.028 C 255.666 622.202, 249.541 623.119, 237.434 620.924 C 222.219 618.166, 206.822 606.540, 199.728 592.452 C 195.465 583.988, 194.558 580.742, 192.477 566.500 C 189.052 543.064, 183.522 517.074, 174.497 482 C 167.256 453.861, 156 403.101, 156 398.590 C 156 397.672, 96.232 398.137, 89.585 399.107 M 0.498 1654.500 C 0.498 2295.800, 0.612 2558, 0.750 2237.167 C 0.888 1916.334, 0.888 1391.634, 0.750 1071.167 C 0.612 750.700, 0.498 1013.200, 0.498 1654.500 M 738.676 1161.662 C 498.529 1457.443, 302.373 1699.730, 302.773 1700.077 C 303.173 1700.424, 499.575 1772.117, 739.223 1859.393 L 1174.946 2018.078 1635.223 1867.369 C 1888.375 1784.478, 2095.839 1716.375, 2096.253 1716.027 C 2096.800 1715.567, 1184.791 633.851, 1176.554 625.189 C 1175.544 624.127, 1092.585 725.766, 738.676 1161.662 M 282 2188.591 C 280.625 2188.833, 275.225 2189.753, 270 2190.636 C 251.909 2193.694, 231.407 2202.140, 215.174 2213.226 C 204.778 2220.324, 188.771 2236.545, 181.350 2247.500 C 147.064 2298.115, 142.581 2372.381, 170.460 2427.908 C 187.147 2461.145, 213.849 2484.531, 249.200 2496.872 C 286.248 2509.804, 341.125 2506.610, 371.181 2489.771 L 374.863 2487.709 379.266 2491.604 C 381.688 2493.747, 391.185 2502.250, 400.370 2510.500 C 409.556 2518.750, 417.408 2525.500, 417.819 2525.500 C 418.934 2525.500, 448 2495.312, 448 2494.153 C 448 2493.606, 439.731 2485.658, 429.624 2476.492 L 411.249 2459.826 417.533 2451.493 C 436.947 2425.754, 447.442 2396.655, 449.878 2361.818 C 454.307 2298.468, 429.965 2241.636, 385.667 2211.905 C 370.135 2201.481, 354.718 2195.044, 335.266 2190.862 C 327.554 2189.204, 321.188 2188.698, 305 2188.457 C 293.725 2188.289, 283.375 2188.350, 282 2188.591 M 887.676 2196.250 C 850.536 2275.183, 823.841 2343.363, 796.545 2429 C 789.035 2452.561, 778.765 2485.674, 775.377 2497.250 C 774.897 2498.892, 776.956 2499, 808.874 2499 C 827.578 2499, 843.102 2498.644, 843.371 2498.208 C 843.641 2497.773, 849.074 2480.110, 855.445 2458.958 C 861.816 2437.806, 867.462 2419.488, 867.993 2418.250 L 868.957 2416 921.500 2416 L 974.043 2416 975.002 2418.250 C 975.836 2420.204, 990.362 2467.341, 997.267 2490.500 L 999.653 2498.500 1033.898 2498.763 C 1066.207 2499.012, 1068.114 2498.927, 1067.631 2497.263 C 1054.262 2451.224, 1029.167 2375.279, 1013.499 2333.443 C 996.571 2288.246, 971.464 2229.203, 954.947 2195.750 L 952.601 2191 921.374 2191 L 890.147 2191 887.676 2196.250 M 1848.575 2210.260 C 1809.162 2295.219, 1784.833 2360.816, 1745.658 2487.750 L 1742.186 2499 1776.425 2499 L 1810.664 2499 1811.866 2495.250 C 1812.528 2493.188, 1816.681 2479.575, 1821.097 2465 C 1825.513 2450.425, 1830.688 2433.438, 1832.597 2427.250 L 1836.069 2416 1888.976 2416 L 1941.884 2416 1945.420 2427.250 C 1947.364 2433.438, 1953.096 2452.113, 1958.157 2468.750 L 1967.359 2499 2001.570 2499 L 2035.782 2499 2031.976 2486.750 C 2029.883 2480.012, 2024.097 2461.450, 2019.117 2445.500 C 1990.561 2354.024, 1963.800 2284.313, 1925.941 2202.782 L 1920.500 2191.063 1889 2191.042 L 1857.500 2191.020 1848.575 2210.260 M 495.260 2301.750 C 495.590 2406.464, 495.637 2408.677, 497.726 2417.777 C 503.362 2442.334, 510.914 2457.305, 524.752 2471.348 C 547.768 2494.705, 584.790 2506.326, 630.991 2504.695 C 666.440 2503.444, 691.514 2495.864, 713.186 2479.847 C 720.478 2474.458, 729.143 2465.560, 734.063 2458.408 C 739.235 2450.891, 745.951 2435.649, 748.475 2425.697 C 753.324 2406.581, 753.301 2407.138, 753.725 2298.250 L 754.126 2195 720.563 2195 L 687 2195 686.992 2292.250 C 686.987 2349.081, 686.577 2393.033, 686.006 2398 C 682.541 2428.126, 671.003 2442.310, 645.792 2447.433 C 635.815 2449.461, 612.994 2449.491, 603.500 2447.489 C 588.028 2444.226, 574.810 2434.464, 568.456 2421.609 C 562.015 2408.575, 562.074 2409.722, 562.035 2296.750 L 562 2195 528.462 2195 L 494.923 2195 495.260 2301.750 M 1110 2346.500 L 1110 2498 1205.500 2498 L 1301 2498 1301 2470 L 1301 2442 1238.500 2442 L 1176 2442 1176 2318.500 L 1176 2195 1143 2195 L 1110 2195 1110 2346.500 M 1350 2346.500 L 1350 2498 1383.500 2498 L 1417 2498 1417 2346.500 L 1417 2195 1383.500 2195 L 1350 2195 1350 2346.500 M 1479 2346.446 L 1479 2498 1555.901 2498 C 1627.493 2498, 1633.586 2497.866, 1644.171 2496.056 C 1688.193 2488.530, 1714.833 2466.771, 1723.758 2431.050 C 1726.269 2420.999, 1725.917 2396.988, 1723.104 2386.500 C 1719.459 2372.912, 1713.700 2362.649, 1704.530 2353.401 C 1695.786 2344.583, 1690.660 2341.201, 1678.764 2336.405 L 1670.989 2333.270 1677.745 2329.397 C 1687.054 2324.061, 1699.871 2311.212, 1703.935 2303.144 C 1708.962 2293.162, 1711 2283.543, 1711 2269.798 C 1711 2254.820, 1709.023 2244.862, 1703.904 2234.054 C 1696.599 2218.630, 1682.417 2207.200, 1663 2201.088 C 1646.023 2195.744, 1645.367 2195.707, 1559.250 2195.285 L 1479 2194.891 1479 2346.446 M 2014 2223 L 2014 2251 2056 2251 L 2098 2251 2098 2374.500 L 2098 2498 2131 2498 L 2164 2498 2164 2374.500 L 2164 2251 2206 2251 L 2248 2251 2248 2223 L 2248 2195 2131 2195 L 2014 2195 2014 2223 M 282.654 2245.572 C 259.303 2250.784, 242.973 2263.915, 231.757 2286.500 C 218.465 2313.268, 215.311 2353.157, 223.879 2386.146 C 232.559 2419.565, 255.116 2442.261, 284.939 2447.581 C 298.056 2449.921, 321.314 2448.986, 326.051 2445.929 C 327.617 2444.917, 325.165 2442.315, 308.069 2426.845 L 299.639 2419.216 314.812 2403.101 C 323.158 2394.238, 330.326 2386.962, 330.743 2386.932 C 331.159 2386.902, 338.846 2393.543, 347.825 2401.689 C 356.804 2409.835, 364.679 2416.500, 365.325 2416.500 C 367.445 2416.500, 376.890 2395.960, 379.478 2385.720 C 387.447 2354.194, 384.160 2313.512, 371.544 2287.500 C 361.211 2266.196, 345.078 2252.114, 324.500 2246.435 C 315.898 2244.060, 291.665 2243.561, 282.654 2245.572 M 1546 2282.432 L 1546 2318 1577.250 2317.992 C 1618.542 2317.982, 1626.750 2316.525, 1636.896 2307.404 C 1644.999 2300.118, 1648.542 2286.974, 1646.015 2273.577 C 1643.749 2261.570, 1636.790 2254.020, 1624.085 2249.782 C 1617.893 2247.717, 1615.364 2247.565, 1581.750 2247.225 L 1546 2246.864 1546 2282.432 M 917.026 2268.513 C 909.626 2287.375, 886 2359.727, 886 2363.529 C 886 2364.796, 890.985 2365, 922 2365 C 941.882 2365, 958 2364.609, 958 2364.126 C 958 2363.645, 957.303 2361.282, 956.450 2358.876 C 955.598 2356.469, 951.054 2342.350, 946.354 2327.500 C 936.784 2297.270, 928.582 2273.724, 924.239 2264.013 L 921.337 2257.525 917.026 2268.513 M 1882.691 2273.302 C 1874.651 2294.855, 1853 2361.207, 1853 2364.294 C 1853 2364.682, 1869.359 2365, 1889.352 2365 L 1925.705 2365 1914.486 2329.750 C 1900.503 2285.813, 1891.251 2259.891, 1889.072 2258.545 C 1888.680 2258.303, 1885.809 2264.944, 1882.691 2273.302 M 1546 2404.419 L 1546 2446 1583.750 2445.983 C 1624.720 2445.964, 1630.281 2445.425, 1639.915 2440.543 C 1651.757 2434.542, 1657.938 2424.498, 1658.770 2409.904 C 1659.890 2390.253, 1653.478 2376.327, 1640.217 2369.611 C 1628.747 2363.803, 1627.630 2363.674, 1585.250 2363.240 L 1546 2362.839 1546 2404.419 M 918 2697.445 L 918 2760 921.886 2760 C 925.740 2760, 925.779 2759.961, 926.465 2755.388 L 927.156 2750.775 929.828 2753.334 C 942.045 2765.033, 968.606 2762.343, 981.106 2748.142 C 1000.920 2725.632, 994.626 2686.295, 969.207 2673.781 C 963.647 2671.044, 961.362 2670.521, 953.455 2670.175 C 943.014 2669.718, 936.025 2671.425, 930.989 2675.663 L 928.040 2678.144 927.770 2656.822 L 927.500 2635.500 922.750 2635.195 L 918 2634.890 918 2697.445 M 1338 2656.427 L 1338 2677.854 1332.381 2674.470 C 1325.855 2670.541, 1320.828 2669.575, 1310.178 2670.206 C 1287.981 2671.521, 1272.748 2689.752, 1272.751 2715 C 1272.755 2740.685, 1287.575 2758.503, 1310.760 2760.698 C 1319.267 2761.504, 1328.504 2758.972, 1333.895 2754.358 C 1338.326 2750.565, 1338.176 2750.477, 1339.219 2757.500 C 1339.445 2759.021, 1340.412 2759.574, 1343.258 2759.810 L 1347 2760.121 1347 2697.560 L 1347 2635 1342.500 2635 L 1338 2635 1338 2656.427 M 1593.803 2636.378 C 1581.785 2639.668, 1576.742 2646.776, 1576.156 2661.250 L 1575.801 2670 1571.401 2670 L 1567 2670 1567 2674 L 1567 2678 1571.500 2678 L 1576 2678 1576 2719 L 1576 2760 1580.500 2760 L 1585 2760 1585 2718.978 L 1585 2677.957 1604.250 2678.228 L 1623.500 2678.500 1623.761 2719.250 L 1624.022 2760 1628.511 2760 L 1633 2760 1633 2715 L 1633 2670 1609 2670 L 1585 2670 1585 2663.743 C 1585 2651.145, 1588.552 2645.791, 1598.234 2643.791 L 1604.096 2642.580 1603.798 2639.040 C 1603.549 2636.077, 1603.093 2635.467, 1601 2635.296 C 1599.625 2635.184, 1596.386 2635.671, 1593.803 2636.378 M 1798 2697.445 L 1798 2760 1801.886 2760 C 1805.726 2760, 1805.781 2759.945, 1806.447 2755.502 L 1807.122 2751.004 1810.811 2753.957 C 1821.383 2762.419, 1837.331 2763.114, 1851.321 2755.722 C 1876.356 2742.492, 1880.525 2700.731, 1858.836 2680.443 C 1851.402 2673.489, 1844.344 2670.608, 1833.654 2670.163 C 1823.386 2669.735, 1817.593 2671.063, 1811.972 2675.135 L 1808.040 2677.984 1807.770 2656.742 L 1807.500 2635.500 1802.750 2635.195 L 1798 2634.890 1798 2697.445 M 150.167 2636.879 C 150.350 2637.362, 160.380 2665.487, 172.455 2699.379 L 194.410 2761 201.566 2761 L 208.721 2761 225.510 2713.250 C 234.744 2686.988, 244.653 2658.841, 247.530 2650.702 L 252.761 2635.904 247.665 2636.202 L 242.570 2636.500 222.805 2693.500 C 211.934 2724.850, 202.694 2751.287, 202.270 2752.248 C 201.737 2753.458, 195.831 2737.896, 183.103 2701.748 C 172.985 2673.012, 163.595 2646.463, 162.237 2642.750 L 159.768 2636 154.801 2636 C 152.069 2636, 149.983 2636.396, 150.167 2636.879 M 737.006 2688.750 C 737.009 2721.002, 737.402 2742.906, 738.016 2745.118 C 740.453 2753.890, 748.128 2760, 756.712 2760 L 761 2760 761 2756.128 C 761 2752.392, 760.861 2752.233, 757.052 2751.624 C 751.829 2750.789, 748.108 2747.421, 746.972 2742.500 C 746.463 2740.300, 746.037 2715.438, 746.024 2687.250 L 746 2636 741.500 2636 L 737 2636 737.006 2688.750 M 1159 2689.351 C 1159 2726.576, 1159.344 2743.729, 1160.138 2746.101 C 1162.871 2754.264, 1170.268 2759.931, 1178.250 2759.978 C 1181.962 2760, 1182 2759.959, 1182 2756 C 1182 2752.520, 1181.708 2752, 1179.750 2751.996 C 1176.155 2751.990, 1171.002 2748.249, 1169.440 2744.510 C 1168.249 2741.660, 1168 2731.989, 1168 2688.532 L 1168 2636 1163.500 2636 L 1159 2636 1159 2689.351 M 1623 2642.500 L 1623 2649 1628 2649 L 1633 2649 1633 2642.500 L 1633 2636 1628 2636 L 1623 2636 1623 2642.500 M 1917 2642.500 L 1917 2649 1921.500 2649 L 1926 2649 1926 2642.500 L 1926 2636 1921.500 2636 L 1917 2636 1917 2642.500 M 1975.217 2690.250 L 1975.500 2744.500 1977.871 2749.316 C 1980.939 2755.547, 1986.008 2758.939, 1993.391 2759.701 L 1999 2760.280 1999 2756.140 C 1999 2752.645, 1998.683 2752, 1996.968 2752 C 1993.036 2752, 1988.134 2749.160, 1986.316 2745.829 C 1984.637 2742.752, 1984.477 2738.476, 1984.194 2689.250 L 1983.888 2636 1979.411 2636 L 1974.934 2636 1975.217 2690.250 M 2040 2642.500 L 2040 2649 2045 2649 L 2050 2649 2050 2642.500 L 2050 2636 2045 2636 L 2040 2636 2040 2642.500 M 2208.420 2643.750 C 2206.357 2647.463, 2204.016 2651.512, 2203.219 2652.750 C 2201.795 2654.962, 2201.844 2655, 2206.135 2654.976 C 2210.422 2654.953, 2210.598 2654.816, 2216 2647.286 C 2219.025 2643.069, 2221.860 2639.030, 2222.300 2638.310 C 2222.921 2637.292, 2221.880 2637, 2217.636 2637 L 2212.172 2637 2208.420 2643.750 M 412.500 2646.491 C 411.950 2646.675, 410.262 2647.098, 408.750 2647.432 L 406 2648.038 406 2659.019 L 406 2670 399.500 2670 L 393 2670 393 2674 L 393 2678 399.437 2678 L 405.875 2678 406.187 2710.250 C 406.482 2740.669, 406.620 2742.755, 408.620 2747 C 412.413 2755.051, 418.617 2759.217, 428.832 2760.572 L 434 2761.258 434 2756.759 L 434 2752.260 429.386 2751.740 C 424.037 2751.137, 420.321 2748.685, 417.500 2743.895 C 415.636 2740.730, 415.479 2738.383, 415.186 2709.288 L 414.872 2678.077 424.186 2677.788 L 433.500 2677.500 433.808 2673.788 L 434.116 2670.077 424.808 2669.788 L 415.500 2669.500 415.218 2657.750 C 415.063 2651.287, 414.613 2646.036, 414.218 2646.079 C 413.823 2646.122, 413.050 2646.308, 412.500 2646.491 M 2104.500 2646.876 L 2101.500 2647.516 2101.217 2658.758 L 2100.934 2670 2093.907 2670 L 2086.879 2670 2087.190 2673.750 L 2087.500 2677.500 2094.200 2677.795 L 2100.900 2678.089 2101.200 2711.295 C 2101.490 2743.397, 2101.574 2744.638, 2103.722 2748.655 C 2107.394 2755.523, 2113.283 2759.164, 2122.847 2760.479 L 2128 2761.188 2128 2756.594 C 2128 2752.254, 2127.848 2751.999, 2125.250 2751.978 C 2120.106 2751.937, 2114.276 2748.462, 2112.059 2744.115 C 2110.111 2740.298, 2110 2738.401, 2110 2709.040 L 2110 2678 2119 2678 L 2128 2678 2128 2674 L 2128 2670 2119 2670 L 2110 2670 2110 2658 C 2110 2649.004, 2109.687 2646.030, 2108.750 2646.118 C 2108.063 2646.183, 2106.150 2646.525, 2104.500 2646.876 M 307.618 2669.049 C 305.482 2669.585, 301.098 2671.429, 297.875 2673.147 C 280.790 2682.253, 270.891 2702.395, 273.865 2722 C 279.458 2758.875, 321.326 2774.666, 347.605 2749.813 C 357.869 2740.105, 362.237 2729.713, 362.237 2715 C 362.237 2700.287, 357.869 2689.895, 347.605 2680.187 C 339.381 2672.409, 331.032 2668.824, 320.174 2668.407 C 315.403 2668.224, 309.753 2668.513, 307.618 2669.049 M 824 2669.085 C 818.040 2670.233, 811.366 2672.784, 806.736 2675.685 C 802.995 2678.029, 802.981 2678.062, 804.511 2681.022 C 805.358 2682.660, 806.439 2684, 806.913 2684 C 807.388 2684, 810.863 2682.554, 814.638 2680.787 C 820.409 2678.085, 822.948 2677.510, 830.606 2677.174 C 851.315 2676.265, 860.927 2683.732, 860.978 2700.770 L 861 2708.041 857.030 2706.016 C 840.610 2697.638, 817.224 2699.962, 804.369 2711.249 C 795.567 2718.977, 793.301 2733.280, 799.055 2744.794 C 804.539 2755.769, 815.056 2761.236, 831 2761.402 C 841.904 2761.515, 848.137 2759.791, 856.025 2754.483 C 858.748 2752.651, 861.147 2751.455, 861.356 2751.826 C 861.566 2752.197, 862.042 2754.188, 862.414 2756.250 C 863.044 2759.743, 863.331 2760, 866.604 2760 L 870.118 2760 869.809 2725.250 L 869.500 2690.500 866.814 2685.410 C 861.958 2676.207, 854.099 2671.033, 841.994 2669.069 C 834.538 2667.859, 830.350 2667.863, 824 2669.085 M 1704.043 2669.139 C 1698.779 2670.011, 1689.949 2673.510, 1685.219 2676.598 C 1682.988 2678.054, 1682.976 2678.152, 1684.685 2681.043 C 1685.645 2682.669, 1686.734 2684, 1687.103 2684 C 1687.473 2684, 1690.863 2682.554, 1694.638 2680.787 C 1700.409 2678.085, 1702.948 2677.510, 1710.606 2677.174 C 1731.282 2676.266, 1740.926 2683.737, 1740.978 2700.704 L 1741 2707.908 1735.750 2705.474 C 1728.148 2701.950, 1720.687 2700.681, 1711 2701.265 C 1696.439 2702.142, 1685.516 2707.761, 1679.521 2717.456 C 1676.978 2721.570, 1676.444 2723.572, 1676.147 2730.107 C 1675.848 2736.695, 1676.164 2738.675, 1678.240 2743.185 C 1681.294 2749.820, 1686.005 2754.558, 1692.606 2757.635 C 1706.778 2764.240, 1724.761 2762.751, 1736.886 2753.968 C 1741.800 2750.408, 1741.996 2750.380, 1742.014 2753.250 C 1742.045 2758.479, 1743.083 2760, 1746.617 2760 L 1750 2760 1750 2727.115 C 1750 2690.289, 1749.584 2687.379, 1743.265 2679.997 C 1738.634 2674.586, 1732.606 2671.235, 1724.364 2669.489 C 1716.743 2667.874, 1712.147 2667.795, 1704.043 2669.139 M 499.144 2670.698 C 496.748 2671.545, 492.801 2674.140, 490.374 2676.466 C 485.560 2681.078, 485.462 2681.026, 484.774 2673.500 C 484.529 2670.814, 484.108 2670.468, 480.750 2670.190 L 477 2669.879 477 2714.940 L 477 2760 481.500 2760 L 486 2760 486 2728.678 C 486 2692.615, 486.317 2690.728, 493.479 2684.126 C 501.150 2677.055, 512.891 2675.184, 523.050 2679.415 C 524.155 2679.875, 525.089 2679.036, 526.300 2676.496 C 527.235 2674.536, 528 2672.740, 528 2672.505 C 528 2672.270, 525.668 2671.385, 522.818 2670.539 C 516.307 2668.605, 504.846 2668.682, 499.144 2670.698 M 585.500 2670.348 C 578.433 2672.684, 573.232 2675.863, 568.133 2680.962 C 546.435 2702.660, 552.548 2743.277, 579.518 2756.606 C 585.829 2759.725, 588.143 2760.316, 595.744 2760.750 C 605.682 2761.316, 613.360 2759.663, 620.790 2755.356 C 625.634 2752.548, 632 2747.215, 632 2745.965 C 632 2745.509, 630.640 2744.168, 628.978 2742.984 L 625.955 2740.832 622.278 2744.060 C 616.298 2749.312, 610.615 2751.327, 600.500 2751.783 C 593.032 2752.121, 590.519 2751.820, 585.738 2750.019 C 575.074 2746, 565.510 2733.704, 564.232 2722.369 L 563.743 2718.024 601.621 2717.762 L 639.500 2717.500 639.825 2713 C 640.614 2702.090, 635.372 2688.320, 627.395 2680.342 C 624.923 2677.871, 619.886 2674.432, 616.201 2672.701 C 610.290 2669.924, 608.321 2669.521, 599.500 2669.289 C 593.197 2669.123, 588.021 2669.514, 585.500 2670.348 M 1061.500 2670.348 C 1042.572 2676.606, 1031 2693.157, 1031 2713.971 C 1031 2736.154, 1043.353 2754.058, 1062.445 2759.546 C 1070.128 2761.755, 1083.193 2761.104, 1091 2758.124 C 1096.242 2756.122, 1108 2747.857, 1108 2746.173 C 1108 2745.735, 1106.630 2744.363, 1104.954 2743.124 L 1101.909 2740.873 1098.255 2744.081 C 1092.448 2749.180, 1086.570 2751.312, 1077 2751.791 C 1066.931 2752.295, 1061.883 2751.115, 1055.376 2746.736 C 1047.484 2741.426, 1041.728 2732.089, 1039.670 2721.262 L 1039.055 2718.024 1077.277 2717.762 L 1115.500 2717.500 1115.806 2713.279 C 1116.584 2702.549, 1111.325 2688.605, 1103.439 2680.491 C 1100.821 2677.797, 1096.147 2674.555, 1092.225 2672.712 C 1086.287 2669.922, 1084.329 2669.522, 1075.500 2669.289 C 1069.197 2669.123, 1064.021 2669.514, 1061.500 2670.348 M 1421.500 2670.348 C 1402.572 2676.606, 1391 2693.157, 1391 2713.971 C 1391 2736.154, 1403.353 2754.058, 1422.445 2759.546 C 1430.128 2761.755, 1443.193 2761.104, 1451 2758.124 C 1456.242 2756.122, 1468 2747.857, 1468 2746.173 C 1468 2745.735, 1466.630 2744.363, 1464.954 2743.124 L 1461.909 2740.873 1458.255 2744.081 C 1452.448 2749.180, 1446.570 2751.312, 1437 2751.791 C 1426.931 2752.295, 1421.883 2751.115, 1415.376 2746.736 C 1407.484 2741.426, 1401.728 2732.089, 1399.670 2721.262 L 1399.055 2718.024 1437.277 2717.762 L 1475.500 2717.500 1475.806 2713.279 C 1476.596 2702.384, 1471.243 2688.401, 1463.206 2680.364 C 1460.605 2677.763, 1455.601 2674.299, 1452.003 2672.608 C 1446.312 2669.934, 1444.252 2669.520, 1435.500 2669.289 C 1429.197 2669.123, 1424.021 2669.514, 1421.500 2670.348 M 2194.680 2670.913 C 2183.597 2674.558, 2175.630 2681.642, 2170.401 2692.500 C 2161.395 2711.202, 2164.182 2732.454, 2177.662 2747.864 C 2192.011 2764.267, 2221.300 2765.469, 2238.045 2750.340 C 2240.220 2748.375, 2242 2746.400, 2242 2745.952 C 2242 2745.503, 2240.640 2744.168, 2238.978 2742.984 L 2235.955 2740.832 2232.278 2744.060 C 2226.414 2749.210, 2220.591 2751.311, 2210.823 2751.802 C 2200.922 2752.299, 2195.710 2750.960, 2188.657 2746.108 C 2181.676 2741.305, 2174 2727.801, 2174 2720.322 L 2174 2718 2212 2718 L 2250 2718 2250 2711.089 C 2250 2694.142, 2240.929 2679.450, 2226.037 2672.277 C 2218.532 2668.662, 2203.511 2668.008, 2194.680 2670.913 M 1917 2715 L 1917 2760 1921.500 2760 L 1926 2760 1926 2715 L 1926 2670 1921.500 2670 L 1917 2670 1917 2715 M 2041 2715 L 2041 2760 2045.500 2760 L 2050 2760 2050 2715 L 2050 2670 2045.500 2670 L 2041 2670 2041 2715 M 312.217 2677.179 C 301.390 2678.847, 291.243 2686.736, 286.380 2697.266 C 283.735 2702.991, 283.500 2704.439, 283.500 2715 C 283.500 2725.829, 283.684 2726.888, 286.655 2733.159 C 290.437 2741.142, 296.531 2747.376, 304 2750.903 C 308.577 2753.064, 310.927 2753.500, 318 2753.500 C 325.214 2753.500, 327.333 2753.091, 332.007 2750.795 C 339.483 2747.124, 345.662 2740.799, 349.392 2733 C 352.313 2726.890, 352.500 2725.809, 352.500 2714.979 C 352.500 2703.980, 352.351 2703.156, 349.219 2696.794 C 342.127 2682.388, 327.777 2674.781, 312.217 2677.179 M 588.929 2678.304 C 582.282 2680.189, 575.652 2684.389, 571.954 2689.058 C 568.189 2693.812, 564.058 2703.289, 564.024 2707.250 L 564 2710 598 2710 C 624.540 2710, 631.997 2709.726, 631.988 2708.750 C 631.968 2706.607, 629.351 2697.528, 628.012 2694.954 C 621.064 2681.597, 603.582 2674.149, 588.929 2678.304 M 1064.929 2678.305 C 1058.791 2680.044, 1051.819 2684.241, 1048.446 2688.230 C 1045.128 2692.153, 1041.457 2699.914, 1040.158 2705.750 L 1039.213 2710 1073.581 2710 L 1107.950 2710 1107.382 2706.750 C 1105.001 2693.116, 1097.279 2683.274, 1085.885 2679.348 C 1079.850 2677.269, 1070.272 2676.793, 1064.929 2678.305 M 1424.929 2678.305 C 1412.100 2681.938, 1403.653 2691.052, 1400.420 2704.750 L 1399.180 2710 1433.565 2710 L 1467.950 2710 1467.382 2706.750 C 1465.001 2693.116, 1457.279 2683.274, 1445.885 2679.348 C 1439.850 2677.269, 1430.272 2676.793, 1424.929 2678.305 M 2200.326 2677.984 C 2189.054 2680.377, 2180.050 2688.729, 2175.975 2700.573 C 2172.408 2710.941, 2169.199 2710, 2208.128 2710 L 2242.256 2710 2241.581 2705.750 C 2240.666 2699.986, 2236.980 2692.186, 2233.063 2687.725 C 2226.230 2679.943, 2211.602 2675.590, 2200.326 2677.984 M 938.581 2680.014 C 935.876 2681.071, 932.163 2683.388, 930.331 2685.164 L 927 2688.392 927 2713.968 L 927 2739.544 929.894 2743.056 C 931.486 2744.987, 935.199 2747.884, 938.144 2749.494 C 949.553 2755.728, 966.357 2751.814, 974.970 2740.918 C 990.842 2720.839, 984.112 2688.172, 962.433 2680.061 C 955.326 2677.402, 945.322 2677.382, 938.581 2680.014 M 1303.909 2679.495 C 1298.724 2681.158, 1290.931 2687.557, 1287.563 2692.916 C 1283.210 2699.842, 1281.741 2706.375, 1282.180 2716.847 C 1282.502 2724.551, 1283.108 2727.634, 1285.177 2732.120 C 1291.023 2744.790, 1301.702 2751.998, 1314.628 2751.999 C 1323.206 2752, 1327.590 2750.341, 1333.567 2744.831 L 1338 2740.745 1338 2713.924 L 1338 2687.102 1334.750 2684.669 C 1328.416 2679.927, 1324.759 2678.658, 1316.500 2678.336 C 1311.383 2678.135, 1306.846 2678.553, 1303.909 2679.495 M 1818.581 2680.014 C 1815.876 2681.071, 1812.163 2683.388, 1810.331 2685.164 L 1807 2688.392 1807 2713.968 L 1807 2739.544 1809.894 2743.056 C 1811.486 2744.987, 1815.199 2747.886, 1818.144 2749.497 C 1828.157 2754.975, 1842.379 2752.752, 1852.138 2744.184 C 1857.129 2739.801, 1861.727 2730.629, 1863.180 2722.153 C 1865.496 2708.653, 1860.613 2693.105, 1851.650 2685.432 C 1843.236 2678.230, 1829.087 2675.912, 1818.581 2680.014 M 828.966 2710.137 C 813.669 2711.672, 805.016 2719.311, 805.005 2731.290 C 804.994 2743.735, 812.605 2751.074, 827.500 2752.981 C 838.625 2754.406, 852.732 2750.244, 858.781 2743.753 C 860.945 2741.430, 861.048 2740.648, 860.781 2728.463 L 860.500 2715.620 854.543 2713.227 C 847.463 2710.383, 837.961 2709.235, 828.966 2710.137 M 1708.966 2710.137 C 1697.866 2711.251, 1689.597 2716.223, 1686.381 2723.718 C 1683.012 2731.568, 1685.691 2742.374, 1692.245 2747.373 C 1701.701 2754.586, 1718.495 2755.326, 1730.831 2749.074 C 1740.807 2744.018, 1741.108 2743.393, 1740.781 2728.406 L 1740.500 2715.508 1734.630 2713.180 C 1727.602 2710.394, 1717.890 2709.242, 1708.966 2710.137" stroke="none" fill="#0f8fd8" fill-rule="evenodd"/></svg>