<?xml version="1.0" standalone="no"?>
<!DOCTYPE svg PUBLIC "-//W3C//DTD SVG 20010904//EN"
 "http://www.w3.org/TR/2001/REC-SVG-20010904/DTD/svg10.dtd">
<svg version="1.0" xmlns="http://www.w3.org/2000/svg"
 width="501.000000pt" height="72.000000pt" viewBox="0 0 501.000000 72.000000"
 preserveAspectRatio="xMidYMid meet">

<g transform="translate(0.000000,72.000000) scale(0.100000,-0.100000)"
fill="#000000" stroke="none">
<path d="M463 653 c-10 -4 -13 -50 -13 -188 0 -178 1 -184 20 -182 19 1 20 8
20 184 0 100 -3 184 -7 186 -5 2 -14 2 -20 0z"/>
<path d="M410 453 c0 -97 2 -174 4 -172 2 2 7 82 11 177 5 123 4 172 -4 172
-8 0 -11 -55 -11 -177z"/>
<path d="M370 465 c0 -128 -2 -145 -16 -145 -15 0 -16 14 -9 136 5 112 4 135
-7 132 -9 -3 -14 -27 -16 -71 -3 -59 -5 -67 -22 -67 -13 0 -20 -7 -20 -20 0
-13 7 -20 20 -20 18 0 20 -7 20 -59 0 -55 2 -59 26 -65 15 -4 28 -6 29 -4 1 2
6 76 10 166 5 115 4 162 -4 162 -7 0 -11 -46 -11 -145z"/>
<path d="M720 561 c5 -11 23 -29 40 -41 l30 -21 0 40 0 41 -40 0 c-37 0 -40
-2 -30 -19z"/>
<path d="M2067 453 c-12 -12 -7 -41 8 -47 22 -8 49 23 34 40 -12 15 -31 18
-42 7z"/>
<path d="M2192 444 c-12 -8 -22 -26 -22 -40 0 -15 -6 -24 -15 -24 -8 0 -15 -9
-15 -20 0 -11 7 -20 15 -20 12 0 15 -16 15 -80 0 -79 0 -80 25 -80 25 0 25 1
25 80 0 64 3 80 15 80 8 0 15 9 15 20 0 11 -7 20 -15 20 -8 0 -15 7 -15 15 0
9 7 18 15 21 8 4 15 15 15 25 0 23 -27 25 -58 3z"/>
<path d="M1590 315 c0 -128 1 -135 20 -135 19 0 20 7 20 135 0 128 -1 135 -20
135 -19 0 -20 -7 -20 -135z"/>
<path d="M1101 405 c-60 -52 -63 -141 -5 -196 21 -20 36 -24 84 -24 48 0 63 4
84 24 14 14 26 30 26 38 0 20 -38 16 -67 -7 -14 -11 -32 -20 -39 -20 -56 0
-96 66 -74 121 22 51 81 66 115 29 21 -23 65 -27 65 -6 0 8 -14 26 -31 40 -43
36 -115 37 -158 1z"/>
<path d="M3790 305 c0 -72 4 -125 10 -125 5 0 10 26 12 58 l3 57 48 3 c59 4
52 22 -9 22 l-44 0 0 45 0 45 55 0 c30 0 55 5 55 10 0 6 -28 10 -65 10 l-65 0
0 -125z"/>
<path d="M1359 351 c-78 -78 8 -211 104 -160 16 9 22 9 25 0 2 -6 15 -11 28
-11 24 0 24 1 24 100 0 99 0 100 -24 100 -13 0 -26 -5 -28 -11 -3 -9 -9 -9
-25 0 -37 19 -73 13 -104 -18z m96 -17 c44 -17 36 -98 -10 -110 -52 -13 -86
56 -48 98 17 19 31 22 58 12z"/>
<path d="M1723 368 c-12 -6 -29 -26 -39 -46 -13 -29 -14 -42 -5 -72 26 -88
147 -96 187 -12 20 44 7 101 -31 126 -27 18 -79 20 -112 4z m87 -48 c11 -11
20 -28 20 -38 0 -29 -29 -62 -55 -62 -25 0 -55 33 -55 60 0 25 29 60 51 60 10
0 28 -9 39 -20z"/>
<path d="M1920 280 c0 -93 1 -100 20 -100 17 0 20 7 20 48 0 72 9 92 41 99 22
4 29 11 29 29 0 27 -11 30 -43 13 -16 -9 -22 -9 -25 0 -2 6 -12 11 -23 11 -17
0 -19 -8 -19 -100z"/>
<path d="M2060 280 l0 -100 25 0 25 0 0 100 0 100 -25 0 -25 0 0 -100z"/>
<path d="M2280 320 c0 -111 41 -159 112 -132 16 6 28 6 28 1 0 -5 11 -9 25 -9
l25 0 0 100 0 100 -25 0 c-24 0 -25 -2 -25 -68 0 -70 -10 -92 -41 -92 -35 0
-49 28 -49 96 0 62 -1 64 -25 64 -24 0 -25 -3 -25 -60z"/>
<path d="M2543 356 c-24 -21 -28 -32 -28 -74 0 -67 33 -106 85 -99 19 2 43 7
53 11 20 9 23 -13 7 -45 -12 -21 -74 -27 -85 -9 -7 12 -55 14 -55 2 0 -15 44
-50 72 -57 15 -4 43 -1 63 5 52 17 65 54 65 185 0 104 0 105 -24 105 -13 0
-26 -6 -29 -12 -4 -10 -7 -10 -18 0 -22 20 -75 14 -106 -12z m107 -36 c24 -24
25 -48 4 -78 -18 -26 -50 -28 -76 -5 -22 20 -23 51 -2 81 19 27 48 28 74 2z"/>
<path d="M2798 365 c-53 -29 -55 -135 -3 -169 34 -22 87 -20 119 5 14 11 26
25 26 30 0 13 -37 11 -59 -2 -26 -17 -71 -3 -71 21 0 18 7 20 70 20 69 0 70 1
70 26 0 15 -12 38 -29 55 -33 33 -78 38 -123 14z m90 -37 c21 -21 13 -28 -33
-28 -32 0 -45 4 -45 14 0 25 57 35 78 14z"/>
<path d="M3006 354 c-40 -41 -34 -125 13 -161 20 -15 66 -16 92 -3 13 7 19 7
19 0 0 -5 11 -10 25 -10 l25 0 0 100 0 100 -25 0 c-14 0 -25 -5 -25 -10 0 -7
-6 -7 -19 0 -35 18 -77 12 -105 -16z m108 -30 c9 -8 16 -28 16 -44 0 -52 -50
-78 -84 -44 -34 33 -10 104 34 104 10 0 26 -7 34 -16z"/>
<path d="M3253 356 c-24 -21 -28 -32 -28 -74 0 -65 31 -102 85 -102 20 0 41 5
48 12 18 18 27 1 16 -30 -7 -21 -17 -28 -43 -30 -18 -2 -38 1 -44 7 -13 13
-57 15 -57 3 0 -15 44 -50 72 -57 15 -4 43 -1 63 5 52 17 65 54 65 185 0 104
0 105 -24 105 -13 0 -26 -6 -29 -12 -4 -10 -7 -10 -18 0 -22 20 -75 14 -106
-12z m107 -36 c24 -24 25 -48 4 -78 -18 -26 -50 -28 -76 -5 -22 20 -23 51 -2
81 19 27 48 28 74 2z"/>
<path d="M3508 365 c-53 -29 -55 -135 -3 -169 34 -22 87 -20 119 5 14 11 26
25 26 30 0 13 -37 11 -59 -2 -26 -17 -71 -3 -71 21 0 18 7 20 70 20 69 0 70 1
70 26 0 15 -12 38 -29 55 -33 33 -78 38 -123 14z m90 -37 c21 -21 13 -28 -33
-28 -25 0 -45 4 -45 8 0 15 24 32 45 32 12 0 26 -5 33 -12z"/>
<path d="M3970 280 c0 -60 4 -100 10 -100 6 0 10 29 10 66 0 73 12 104 40 104
20 0 36 17 25 28 -3 4 -20 -1 -36 -10 -24 -14 -29 -15 -29 -3 0 8 -4 15 -10
15 -6 0 -10 -40 -10 -100z"/>
<path d="M4121 354 c-27 -22 -31 -32 -31 -75 0 -40 5 -55 25 -74 30 -31 82
-33 119 -4 l26 20 0 -20 c0 -12 5 -21 10 -21 6 0 10 40 10 100 0 60 -4 100
-10 100 -5 0 -10 -9 -10 -21 l0 -20 -26 20 c-36 28 -76 26 -113 -5z m117 -17
c7 -8 15 -29 18 -48 13 -76 -78 -122 -125 -63 -29 37 -27 79 5 111 20 20 31
24 57 19 17 -4 38 -12 45 -19z"/>
<path d="M4340 280 c0 -114 16 -136 22 -31 4 77 24 111 65 111 44 0 63 -32 63
-110 0 -40 4 -70 10 -70 6 0 10 32 10 75 0 67 -3 79 -25 100 -28 29 -54 31
-95 10 -27 -14 -30 -14 -30 0 0 8 -4 15 -10 15 -6 0 -10 -40 -10 -100z"/>
<path d="M4589 351 c-40 -40 -41 -106 -3 -145 37 -36 95 -36 132 1 18 18 22
28 13 31 -7 2 -19 -5 -27 -17 -17 -24 -70 -29 -98 -8 -9 7 -20 31 -23 54 -5
36 -2 45 21 68 22 22 33 26 59 21 18 -4 40 -16 49 -29 18 -24 32 -20 22 7 -8
22 -56 46 -89 46 -16 0 -38 -12 -56 -29z"/>
<path d="M4834 370 c-64 -26 -73 -133 -15 -177 25 -20 85 -15 115 8 14 11 26
25 26 30 0 17 -25 9 -38 -11 -12 -20 -65 -28 -88 -12 -11 7 -34 45 -34 56 0 3
38 6 85 6 47 0 85 4 85 9 0 29 -26 74 -51 86 -31 17 -54 18 -85 5z m86 -30
c38 -38 27 -50 -50 -50 -77 0 -84 7 -45 45 29 30 68 32 95 5z"/>
<path d="M240 353 c-8 -3 -39 -17 -67 -30 -49 -22 -53 -26 -53 -58 0 -29 6
-38 43 -63 57 -39 116 -66 125 -57 4 4 -1 12 -11 19 -86 53 -142 93 -141 101
1 6 31 9 73 8 l71 -2 0 45 c0 44 -6 50 -40 37z"/>
<path d="M780 281 c0 -22 6 -44 15 -51 13 -11 15 -7 15 23 0 19 -3 42 -6 51
-11 29 -24 17 -24 -23z"/>
<path d="M15 275 c18 -46 60 -92 107 -120 28 -16 23 -8 -31 56 -97 111 -95
110 -76 64z"/>
<path d="M322 134 c2 -10 25 -23 60 -34 99 -30 108 -32 108 -16 0 9 -21 21
-57 31 -32 8 -68 20 -81 25 -31 13 -34 13 -30 -6z"/>
<path d="M725 89 c-27 -4 -85 -4 -129 -1 -65 4 -78 3 -74 -9 6 -19 96 -30 183
-23 78 7 78 7 73 26 -2 10 -16 11 -53 7z"/>
</g>
</svg>
