<svg xmlns="http://www.w3.org/2000/svg" width="900" height="894" viewBox="0 0 900 894" version="1.1"><path d="M 444.500 275.989 C 442.850 276.415, 439.525 276.817, 437.110 276.882 C 434.541 276.951, 432.260 277.609, 431.610 278.469 C 430.597 279.809, 426.130 280.300, 417.056 280.071 C 415.712 280.037, 414.362 280.345, 414.056 280.755 C 413.359 281.689, 406.269 285, 404.966 285 C 404.435 285, 404 284.325, 404 283.500 C 404 282.339, 402.689 282, 398.200 282 C 395.010 282, 391.918 282.482, 391.329 283.071 C 390.739 283.661, 387.820 284.143, 384.841 284.143 C 379.813 284.143, 379.332 284.353, 378.127 287.075 C 376.881 289.891, 376.594 289.997, 370.915 289.754 C 367.662 289.614, 365.001 289.114, 365 288.643 C 365 288.172, 364.338 288.040, 363.529 288.351 C 362.720 288.661, 361.470 288.327, 360.750 287.608 C 359.674 286.531, 359.211 286.549, 358.127 287.709 C 357.331 288.562, 355.763 288.908, 354.156 288.586 C 349.693 287.693, 337.149 287.518, 336.329 288.337 C 335.905 288.762, 336.155 289.478, 336.886 289.929 C 337.775 290.479, 337.862 290.967, 337.147 291.409 C 336.561 291.771, 335.198 291.516, 334.119 290.842 C 332.683 289.945, 331.262 289.891, 328.822 290.640 C 324.823 291.867, 322.908 291.404, 323.679 289.394 C 324.161 288.138, 323.630 288.164, 320.123 289.567 C 317.680 290.545, 314.948 290.953, 313.416 290.568 C 311.741 290.148, 311.058 290.285, 311.475 290.960 C 311.829 291.532, 311.599 292, 310.965 292 C 310.331 292, 309.577 291.100, 309.290 290 C 308.717 287.809, 307.384 287.347, 306.789 289.132 C 306.522 289.933, 305.547 289.837, 303.456 288.806 C 299.498 286.852, 294.903 287.417, 292.701 290.128 L 290.902 292.342 290.335 290.171 C 289.819 288.201, 289.107 287.999, 282.633 287.986 C 278.710 287.979, 274.375 287.745, 273 287.466 C 270.952 287.051, 270.855 287.114, 272.464 287.818 C 274.080 288.524, 273.681 288.795, 270.214 289.350 C 267.896 289.720, 266 290.468, 266 291.012 C 266 291.555, 265.487 292, 264.860 292 C 264.233 292, 263.123 292.788, 262.392 293.750 C 261.127 295.417, 261.062 295.417, 261.032 293.750 C 260.991 291.518, 255.798 291.334, 254 293.500 C 253.099 294.585, 250.715 295, 245.378 295 C 241.320 295, 238 295.414, 238 295.921 C 238 296.427, 236.762 297.118, 235.250 297.457 C 230.478 298.525, 216.532 321.150, 207.177 343 C 203.138 352.434, 194 378.410, 194 380.457 C 194 380.756, 195.824 381, 198.053 381 L 202.106 381 201.996 392.250 C 201.750 417.521, 201.697 417, 204.500 417 L 207 417 207 393.083 C 207 368.141, 207.187 367.081, 211.227 369.158 C 212.325 369.723, 213.661 369.604, 214.896 368.833 C 216.422 367.880, 217.157 367.885, 218.330 368.859 C 219.340 369.697, 220.031 369.759, 220.470 369.049 C 221.308 367.693, 225 367.682, 225 369.035 C 225 369.749, 225.601 369.749, 226.934 369.035 C 227.998 368.466, 229.975 368, 231.327 368 C 232.680 368, 234.045 367.325, 234.362 366.500 C 234.809 365.334, 234.110 364.997, 231.219 364.985 C 229.173 364.976, 226.846 364.556, 226.048 364.051 C 225.249 363.545, 224.217 363.366, 223.755 363.651 C 223.293 363.937, 220.452 364.286, 217.441 364.426 C 212.299 364.666, 212.005 364.555, 212.607 362.591 C 212.960 361.441, 213.458 360.275, 213.714 360 C 214.497 359.158, 245.290 359.999, 246.431 360.893 C 247.019 361.354, 251.696 361.989, 256.825 362.305 C 266.812 362.921, 269 363.876, 269 367.622 C 269 369.662, 269.486 370, 272.418 370 C 278.628 370, 279 370.479, 279 378.475 L 279 385.737 283.250 386.347 C 285.587 386.683, 295.150 387.449, 304.500 388.049 C 313.850 388.650, 323.597 389.486, 326.160 389.909 C 328.723 390.331, 341.098 390.490, 353.660 390.261 C 378.928 389.802, 409.983 389.369, 477.500 388.535 C 502.250 388.229, 533.638 387.689, 547.250 387.333 L 572 386.687 571.985 394.094 C 571.976 398.167, 571.603 402.077, 571.155 402.783 C 570.557 403.726, 565.194 404.196, 550.921 404.556 C 540.239 404.825, 529.440 405.230, 526.922 405.455 C 523.247 405.784, 522.070 405.484, 520.951 403.933 C 519.174 401.466, 517.802 401.486, 516.232 404 C 515.106 405.803, 513.778 406.020, 502.742 406.203 L 490.500 406.405 503 406.953 L 515.500 407.500 515.263 414.495 C 515.133 418.342, 514.809 422.055, 514.544 422.745 C 514.198 423.648, 510.939 424, 502.939 424 C 493.752 424, 491.418 424.313, 489.533 425.795 C 487.284 427.564, 487.278 427.625, 489.125 429.906 C 490.156 431.180, 491 433.027, 491 434.011 C 491 437.818, 508.997 439.783, 511.720 436.273 C 512.745 434.951, 514.445 434.806, 522.382 435.364 C 529.121 435.838, 531.934 435.699, 532.207 434.880 C 532.459 434.122, 533.160 434.303, 534.270 435.413 C 535.760 436.903, 539.998 437.153, 571.725 437.624 C 603.888 438.101, 607.904 438.343, 611.500 440.023 C 613.700 441.051, 616.400 442.089, 617.500 442.330 C 618.600 442.571, 611.382 442.820, 601.460 442.884 C 588.330 442.968, 581.853 442.592, 577.661 441.500 C 569.466 439.366, 544 439.366, 544 441.500 C 544 443.406, 539.428 443.443, 536.037 441.565 C 533.938 440.403, 533.418 440.413, 532.526 441.633 C 531.643 442.841, 530.150 442.886, 522.989 441.915 C 518.320 441.283, 509.275 440.557, 502.888 440.302 C 492.502 439.888, 491.205 440.023, 490.605 441.587 C 490.236 442.548, 490.287 443.659, 490.717 444.056 C 491.148 444.452, 506.575 445.115, 525 445.527 C 543.425 445.940, 562.325 446.408, 567 446.568 C 571.675 446.728, 587.313 446.890, 601.750 446.929 L 628 447 628 453.845 C 628 459.206, 627.604 461.049, 626.171 462.345 C 624.252 464.082, 621.252 464.477, 619.412 463.235 C 618.163 462.391, 616.030 454.460, 615.937 450.307 C 615.875 447.574, 615.849 447.561, 614.945 449.814 C 614.411 451.146, 613.542 451.835, 612.899 451.438 C 611.432 450.531, 612.695 458.443, 614.618 462.200 C 616.348 465.580, 616.343 466, 614.576 466 C 613.793 466, 611.881 463.311, 610.326 460.024 C 608.772 456.738, 606.938 454.038, 606.250 454.024 C 604.564 453.992, 604.723 457.050, 606.532 459.441 C 607.339 460.509, 608 462.421, 608 463.691 C 608 464.961, 608.399 466, 608.887 466 C 610.622 466, 610.810 472.416, 609.112 473.709 C 605.842 476.199, 605 475.235, 605 469 C 605 465.700, 604.599 463, 604.108 463 C 603.618 463, 602.960 461.979, 602.647 460.730 C 602.334 459.482, 601.160 457.475, 600.039 456.272 C 598.917 455.068, 598 453.677, 598 453.180 C 598 452.684, 596.904 452.487, 595.564 452.743 C 593.435 453.150, 593.246 453.518, 594.064 455.669 C 595.979 460.706, 596.774 460.569, 568 460.156 C 548.567 459.877, 541 460.081, 541 460.884 C 541 461.498, 540.212 461.993, 539.250 461.985 C 537.854 461.972, 537.781 461.791, 538.891 461.089 C 541.128 459.672, 521.744 458.531, 519.137 459.927 C 517.099 461.017, 516.994 460.849, 516.868 456.285 C 516.745 451.803, 516.697 451.722, 516.118 455 L 515.500 458.500 503.250 458.143 L 491 457.787 491 460.393 C 491 461.827, 490.498 463, 489.883 463 C 489.228 463, 489.021 463.826, 489.383 465 C 491.377 471.466, 491.371 471.356, 489.712 470.720 C 488.556 470.276, 488.267 470.532, 488.686 471.625 C 489.083 472.659, 490.031 472.958, 491.636 472.555 C 494.200 471.912, 494.708 472.892, 492.800 474.800 C 491.867 475.733, 491.867 476, 492.800 476 C 493.460 476, 494 475.510, 494 474.912 C 494 474.225, 495.380 474.025, 497.750 474.370 C 510.264 476.193, 512 476.223, 512 474.613 C 512 473.709, 510.829 472.780, 509.250 472.432 C 504.216 471.321, 504.450 471.229, 512.500 471.152 C 516.900 471.109, 522.685 471.605, 525.355 472.253 C 529.758 473.322, 530.341 473.254, 531.605 471.525 C 532.372 470.476, 533 470.110, 533 470.711 C 533 472.908, 539.405 473.924, 554.285 474.088 C 575.731 474.325, 596.256 475.797, 597.098 477.159 C 597.530 477.858, 599.037 478.043, 601.042 477.642 C 602.826 477.285, 604.815 477.431, 605.461 477.967 C 606.106 478.503, 610.429 478.940, 615.067 478.938 C 619.705 478.936, 625.417 478.967, 627.759 479.008 C 631.433 479.071, 632.151 478.732, 632.985 476.541 C 634.021 473.816, 635.550 473.218, 636.286 475.250 C 636.646 476.245, 637.182 476.238, 638.908 475.217 C 640.708 474.153, 641.326 474.183, 642.539 475.396 C 643.342 476.200, 644 477.339, 644 477.929 C 644 478.518, 644.450 479, 645 479 C 645.550 479, 646 479.675, 646 480.500 C 646 481.721, 647.660 482, 654.941 482 C 659.859 482, 664.160 482.450, 664.500 483 C 664.844 483.557, 669.475 484, 674.952 484 C 682.159 484, 684.921 484.351, 685.291 485.316 C 685.569 486.039, 688.290 487.230, 691.339 487.961 C 695.884 489.052, 697.444 489.059, 699.997 488.001 C 702.335 487.033, 703.396 486.996, 704.256 487.856 C 705.801 489.401, 710.997 489.320, 711.014 487.750 C 711.021 487.063, 711.299 485.488, 711.630 484.250 C 712.113 482.450, 711.821 482, 710.176 482 C 709.044 482, 707.840 482.450, 707.500 483 C 707.160 483.550, 706.046 484, 705.024 484 C 704.003 484, 702.977 484.562, 702.746 485.250 C 702.433 486.180, 701.963 486.216, 700.913 485.391 C 699.508 484.288, 684.620 482.610, 665.500 481.398 C 660 481.049, 655.050 480.415, 654.500 479.990 C 653.950 479.564, 652.600 478.976, 651.500 478.684 C 650.400 478.392, 652.463 478.191, 656.085 478.237 C 659.707 478.284, 663.241 477.969, 663.938 477.538 C 665.192 476.763, 688.044 477.548, 695.211 478.612 C 698.567 479.110, 698.983 478.916, 699.569 476.581 C 700.391 473.306, 701.778 473.269, 702.589 476.500 C 703.140 478.695, 703.756 479, 707.640 479 C 712.691 479, 712.670 479.033, 713.419 469.750 L 713.964 463 709.232 463.032 C 704.869 463.061, 704.650 463.177, 706.427 464.521 C 707.487 465.323, 708.027 466.306, 707.628 466.705 C 706.606 467.728, 700 467.836, 700 466.830 C 700 466.374, 698.833 466, 697.406 466 C 695.664 466, 694.643 465.351, 694.296 464.024 C 693.907 462.537, 693.367 462.268, 692.116 462.938 C 691.132 463.465, 686.989 463.420, 681.976 462.829 C 677.314 462.279, 669.137 462.073, 663.805 462.370 L 654.109 462.910 653.492 458.205 C 652.386 449.775, 651.381 448.914, 650.609 455.735 C 649.890 462.093, 648.678 464.078, 646.713 462.113 C 646.101 461.501, 644.392 461, 642.917 461 C 639.819 461, 639.035 459.142, 639.014 451.749 L 639 446.998 676.500 447.249 L 714 447.500 714 443.671 C 714 439.883, 713.965 439.848, 710.750 440.495 C 708.962 440.855, 706.609 441.404, 705.520 441.715 C 703.329 442.341, 699.802 442.413, 683.367 442.167 C 672.261 442, 672.232 441.994, 671.742 439.432 L 671.251 436.865 684.170 437.092 C 696.489 437.309, 697.160 437.217, 698.635 435.111 L 700.181 432.903 702.543 435.452 C 704.413 437.470, 705.860 438, 709.498 438 L 714.091 438 713.796 431.250 L 713.500 424.500 703.239 423.939 C 697.595 423.630, 692.556 422.955, 692.042 422.439 C 691.527 421.922, 690.944 418.575, 690.745 415 L 690.385 408.500 690.193 415.191 C 690.087 418.871, 689.525 422.175, 688.945 422.534 C 688.366 422.892, 675.091 422.857, 659.445 422.455 L 631 421.725 631.004 414.112 L 631.008 406.500 660.754 406.243 C 677.114 406.102, 695.112 405.989, 700.750 405.993 C 706.921 405.997, 711 405.602, 711 405 C 711 404.409, 707.400 404, 702.200 404 C 696.689 404, 692.952 403.552, 692.200 402.800 C 690.519 401.119, 690.594 386.582, 692.292 385.173 C 693.002 384.583, 696.552 383.966, 700.180 383.800 L 706.778 383.500 704.047 374 C 695.339 343.701, 678.349 310.138, 660.132 287.250 C 656.734 282.981, 655.385 282, 652.909 282 C 649.474 282, 631.792 284.353, 619 286.513 C 614.325 287.302, 608.475 288.025, 606 288.120 C 603.525 288.215, 599.096 288.888, 596.158 289.615 C 593.220 290.343, 590.520 290.881, 590.158 290.811 C 589.796 290.740, 588.653 291.050, 587.618 291.499 C 586.505 291.982, 585.001 291.857, 583.939 291.194 C 582.951 290.577, 581.998 290.472, 581.821 290.962 C 581.301 292.402, 559.379 292.559, 557.662 291.134 C 556.503 290.172, 556.097 290.188, 555.728 291.208 C 555.352 292.250, 554.809 292.231, 552.926 291.114 C 551.264 290.127, 550.482 290.055, 550.212 290.864 C 549.746 292.262, 543 292.390, 543 291 C 543 290.450, 541.200 290, 539 290 C 536.800 290, 535 290.450, 535 291 C 535 292.522, 528.599 292.193, 525.364 290.506 C 522.823 289.180, 522.464 289.180, 522.177 290.506 C 521.718 292.626, 518.299 292.356, 515.770 290 C 513.426 287.816, 512 287.438, 512 289 C 512 289.550, 511.325 290, 510.500 290 C 509.675 290, 509 290.450, 509 291 C 509 291.579, 505.794 292, 501.383 292 C 493.974 292, 493.779 291.937, 494.207 289.699 C 494.595 287.669, 494.315 287.447, 491.823 287.813 C 489.870 288.099, 489 288.808, 489 290.113 C 489 291.459, 488.283 292, 486.500 292 C 484.469 292, 484 291.508, 484 289.378 C 484 287.167, 483.766 286.950, 482.510 287.992 C 480.482 289.675, 468 290.660, 468 289.137 C 468 288.512, 466.650 288, 465 288 C 463.350 288, 462 288.450, 462 289 C 462 289.550, 461.100 290, 460 290 C 458.900 290, 458 290.398, 458 290.883 C 458 292.327, 453.714 293.008, 452.255 291.796 C 451.176 290.901, 451.160 290.519, 452.174 289.893 C 452.871 289.462, 453.184 288.851, 452.869 288.535 C 452.295 287.962, 444.987 287.137, 439.691 287.047 C 438.082 287.020, 437.146 286.573, 437.500 286 C 437.840 285.450, 437.326 285, 436.359 285 C 434.957 285, 434.852 284.748, 435.843 283.757 C 436.619 282.981, 439.507 282.582, 443.543 282.694 C 447.094 282.793, 450 282.452, 450 281.937 C 450 280.617, 455.737 280.765, 456.566 282.107 C 457.043 282.878, 457.504 282.802, 458.088 281.857 C 458.645 280.956, 458.352 280.289, 457.213 279.869 C 456.271 279.521, 460.050 279.407, 465.611 279.615 C 475.859 279.998, 482.427 278.783, 481.713 276.636 C 481.269 275.301, 449.318 274.744, 444.500 275.989 M 428.371 282.474 C 428.060 283.285, 428.524 284.667, 429.403 285.546 C 430.281 286.424, 431 287.561, 431 288.071 C 431 288.582, 431.675 289, 432.500 289 C 433.325 289, 434 288.325, 434 287.500 C 434 286.675, 433.325 286, 432.500 286 C 431.567 286, 431 285.056, 431 283.500 C 431 280.777, 429.280 280.106, 428.371 282.474 M 650.750 385.732 L 631 386.042 631 394.414 C 631 401.126, 631.314 402.906, 632.582 403.393 C 633.452 403.727, 646.084 404, 660.653 404 C 682.635 404, 687.393 403.750, 688.614 402.529 C 689.714 401.429, 690.011 399.096, 689.793 393.279 L 689.500 385.500 680 385.461 C 674.775 385.440, 661.612 385.562, 650.750 385.732 M 577.250 386.715 L 574 387.127 574 395.563 L 574 404 600.831 404 L 627.662 404 628.884 401.716 C 629.598 400.383, 629.980 396.739, 629.803 392.966 L 629.500 386.500 605 386.402 C 591.525 386.347, 579.038 386.488, 577.250 386.715 M 454.820 403.250 C 454.505 405.461, 454.228 405.505, 438.704 405.776 C 425.451 406.007, 422.656 405.799, 421.343 404.486 C 419.923 403.066, 419.657 403.087, 418.468 404.711 C 417.225 406.409, 418.054 406.514, 434.803 406.774 C 444.543 406.925, 452.885 407.485, 453.424 408.024 C 455.070 409.670, 456 409.119, 456 406.500 C 456 404.060, 456.175 404, 463.368 404 L 470.735 404 470.565 413.277 C 470.471 418.379, 470.078 423.065, 469.691 423.691 C 469.304 424.317, 469.553 425.058, 470.244 425.338 C 471.226 425.736, 471.204 426.056, 470.143 426.799 C 469.397 427.322, 469.176 427.991, 469.653 428.286 C 470.130 428.580, 470.511 434.261, 470.500 440.911 C 470.485 449.978, 470.795 453, 471.740 453 C 472.721 453, 473 447.245, 473 427 L 473 401 464.070 401 C 455.570 401, 455.124 401.108, 454.820 403.250 M 372.638 405.500 C 372.224 406.580, 372.744 407, 374.500 407 C 376.256 407, 376.776 406.580, 376.362 405.500 C 376.045 404.675, 375.207 404, 374.500 404 C 373.793 404, 372.955 404.675, 372.638 405.500 M 402.250 406.735 C 404.863 406.941, 409.137 406.941, 411.750 406.735 C 414.363 406.529, 412.225 406.360, 407 406.360 C 401.775 406.360, 399.637 406.529, 402.250 406.735 M 517.704 413.174 C 517.950 417.203, 518.356 421.134, 518.605 421.908 C 518.986 423.092, 523.137 423.218, 544.655 422.699 C 558.733 422.360, 570.504 421.829, 570.813 421.520 C 571.122 421.211, 571.570 418.267, 571.808 414.979 C 572.388 406.959, 574 407.342, 574 415.500 L 574 422 599.941 422 C 614.209 422, 626.088 421.663, 626.339 421.250 C 626.591 420.837, 627.119 417.468, 627.513 413.762 L 628.230 407.024 575.100 407.028 C 545.879 407.029, 520.909 406.764, 519.613 406.439 C 517.269 405.851, 517.259 405.888, 517.704 413.174 M 232.994 419.500 C 232.826 421.150, 232.785 423.571, 232.903 424.879 C 233.059 426.621, 232.718 427.106, 231.629 426.688 C 230.811 426.374, 228.423 425.808, 226.321 425.430 C 222.721 424.782, 221.193 424.165, 214.096 420.500 C 210.446 418.615, 208.259 418.617, 204.636 420.506 C 202.861 421.432, 199.005 422, 194.502 422 C 186.139 422, 186.038 422.123, 186.014 432.250 C 186.002 437.097, 186.279 438, 187.776 438 C 189.252 438, 189.487 437.308, 189.163 433.916 C 188.800 430.107, 188.933 429.854, 191.137 430.166 C 192.887 430.413, 193.511 431.149, 193.543 433 C 193.572 434.730, 194.111 435.457, 195.293 435.361 C 196.342 435.276, 197 435.941, 197 437.088 C 197 438.569, 197.773 438.964, 200.750 439.002 C 202.813 439.028, 211.978 439.293, 221.118 439.590 C 235.602 440.062, 237.813 439.930, 238.336 438.566 C 238.667 437.705, 238.464 437, 237.885 437 C 235.318 437, 237.978 434.513, 240.790 434.285 C 243.212 434.088, 243.796 434.368, 243.356 435.515 C 243.042 436.332, 242.416 437, 241.964 437 C 240.584 437, 238 440.050, 238 441.678 C 238 442.691, 238.559 443, 239.641 442.584 C 241.034 442.050, 241.085 442.193, 239.980 443.524 C 239.211 444.451, 238.427 444.691, 238.068 444.110 C 237.733 443.568, 236.211 442.651, 234.686 442.071 C 231.932 441.024, 231.917 441.040, 232.554 444.438 C 232.982 446.716, 232.662 448.885, 231.598 450.930 C 230.719 452.618, 229.299 455.351, 228.442 457.002 C 227.585 458.653, 227.145 460.426, 227.463 460.941 C 227.782 461.456, 227.430 462.242, 226.682 462.689 C 225.146 463.605, 222.692 470.026, 223.550 470.883 C 223.857 471.191, 224.527 470.780, 225.039 469.971 C 225.669 468.975, 225.974 468.903, 225.985 469.750 C 225.993 470.438, 226.873 471, 227.941 471 C 229.009 471, 230.139 471.415, 230.452 471.923 C 230.766 472.431, 232.335 473.134, 233.938 473.486 C 237.843 474.344, 242.578 471.819, 243.430 468.425 C 243.795 466.970, 245.009 463.691, 246.128 461.140 C 250.540 451.077, 251 449.881, 251 448.466 C 251 447.660, 251.338 446.996, 251.750 446.992 C 252.162 446.987, 254.525 444.951, 257 442.466 C 259.475 439.982, 262.625 437.457, 264 436.855 C 265.482 436.207, 265.991 435.573, 265.250 435.297 C 263.839 434.773, 263.526 432, 264.878 432 C 265.949 432, 272.841 434.680, 275.250 436.034 C 277.457 437.274, 277.503 436.213, 275.345 433.829 C 273.756 432.073, 273.982 432, 281.024 432 C 285.058 432, 289.926 432.563, 291.842 433.250 C 294.629 434.250, 295.410 434.250, 295.746 433.250 C 296.055 432.331, 299.801 432, 309.883 432 C 324.007 432, 326 432.514, 326 436.155 C 326 437.971, 322.102 442.444, 319.807 443.261 C 319.088 443.517, 318.799 444.049, 319.164 444.444 C 319.530 444.839, 320.738 444.676, 321.849 444.081 C 324.281 442.779, 329 442.649, 329 443.883 C 329 445.161, 332.757 445.773, 348.500 447.059 C 356.200 447.689, 363.263 448.611, 364.197 449.108 C 365.416 449.758, 366.157 449.541, 366.832 448.336 C 367.676 446.827, 370.888 446.646, 398.852 446.529 L 429.934 446.400 435.717 449.085 C 440.598 451.352, 445.631 455.961, 468 478.651 C 482.575 493.435, 496.188 507.396, 498.250 509.676 C 502.113 513.947, 502.932 516.457, 500.750 517.338 C 500.063 517.615, 500.451 517.878, 501.614 517.921 C 503.699 517.999, 509 522.459, 509 524.136 C 509 524.611, 508.438 525.023, 507.750 525.052 C 507.063 525.080, 508.185 525.802, 510.244 526.656 C 512.304 527.510, 513.743 528.607, 513.443 529.093 C 513.142 529.579, 514.055 531.219, 515.470 532.738 L 518.043 535.500 518.638 533.250 C 519.135 531.372, 519.922 531, 523.396 531 C 526.373 531, 527.958 531.554, 528.961 532.946 C 530.802 535.500, 531.981 534.646, 532.079 530.691 C 532.122 528.936, 532.385 528.063, 532.662 528.750 C 532.940 529.438, 533.764 530, 534.494 530 C 535.225 530, 536.958 531.350, 538.347 533 C 539.735 534.650, 541.155 536, 541.502 536 C 541.849 536, 543.748 534.768, 545.722 533.263 C 549.253 530.570, 549.509 530.531, 561.406 530.891 C 568.058 531.092, 575.525 531.407, 578 531.590 C 580.475 531.773, 591.725 532.214, 603 532.570 C 614.275 532.925, 624.019 533.636, 624.653 534.150 C 625.367 534.728, 625.938 534.727, 626.153 534.147 C 626.365 533.574, 633.681 533.729, 645 534.546 C 655.175 535.281, 671.375 535.969, 681 536.075 L 698.500 536.269 700.264 531.548 C 703.159 523.804, 704.003 519.062, 702.376 519.686 C 700.173 520.531, 700.785 518.414, 703.483 515.855 C 704.848 514.560, 705.973 512.539, 705.983 511.363 C 706.003 508.912, 703.050 508.176, 696.500 508.998 L 692.500 509.500 696 511.216 L 699.500 512.932 696.500 512.938 C 694.850 512.942, 685.288 512.922, 675.250 512.893 C 661.377 512.853, 657 513.138, 657 514.080 C 657 515.385, 640.566 515.125, 591 513.038 C 578.625 512.516, 559.950 512.022, 549.500 511.939 C 539.050 511.857, 530.050 511.456, 529.500 511.050 C 528.950 510.643, 527.702 510.026, 526.727 509.678 C 525.197 509.132, 525.107 509.331, 526.069 511.129 C 527.154 513.156, 527.037 513.193, 521.842 512.495 C 516.149 511.729, 514 510.601, 514 508.378 C 514 507.620, 513.021 507, 511.824 507 C 509.346 507, 503.807 501.365, 479.500 474.115 C 477.300 471.649, 472.446 466.451, 468.712 462.565 C 464.979 458.679, 460.817 454.337, 459.462 452.917 C 458.108 451.496, 457 449.808, 457 449.167 C 457 448.525, 456.550 448, 456 448 C 455.450 448, 455 447.502, 455 446.894 C 455 446.286, 453.875 444.903, 452.500 443.821 C 451.125 442.740, 450 440.819, 450 439.552 C 450 437.956, 449.004 436.750, 446.750 435.620 L 443.500 433.990 448 434.631 C 450.475 434.984, 453.097 435.745, 453.826 436.322 C 454.781 437.077, 455.393 436.982, 456.010 435.983 C 456.482 435.220, 456.686 434.301, 456.463 433.940 C 456.240 433.580, 456.463 431.871, 456.959 430.142 C 457.499 428.260, 457.495 427, 456.950 427 C 456.449 427, 456.195 425.664, 456.385 424.032 C 456.828 420.228, 456.051 419.482, 454.280 422.010 C 452.943 423.920, 451.776 424.005, 427.834 423.944 C 414.058 423.909, 402.537 424.130, 402.231 424.436 C 401.925 424.741, 402.203 426.150, 402.848 427.567 C 403.933 429.947, 403.850 430.118, 401.761 429.821 C 399.994 429.570, 399.557 428.936, 399.762 426.916 C 400.071 423.868, 396.914 422, 391.453 422 C 387.087 422, 386.954 423.631, 391.250 424.495 C 397.188 425.690, 398 426.120, 398 428.067 C 398 429.718, 397.233 430.017, 392.750 430.115 C 389.863 430.178, 386.600 430.151, 385.500 430.054 C 381.368 429.689, 374.425 426.627, 372.398 424.276 C 370.856 422.488, 369.524 421.938, 367.398 422.213 L 364.500 422.588 367.250 423.954 C 370.372 425.506, 370.846 426.883, 368.250 426.860 C 367.288 426.852, 355.925 427.101, 343 427.413 C 330.075 427.726, 305.623 428.239, 288.663 428.554 C 258.258 429.118, 257.834 429.098, 258.453 427.147 C 259.033 425.321, 258.533 425.141, 252.038 424.834 C 248.164 424.650, 244.884 424.766, 244.747 425.091 C 244.611 425.417, 243.037 425.968, 241.250 426.316 C 238.498 426.853, 238 426.658, 238 425.042 C 238 423.993, 237.128 422.858, 236.062 422.520 C 234.947 422.166, 233.949 420.757, 233.712 419.202 L 233.300 416.500 232.994 419.500 M 274 424 C 277.106 426.429, 280.475 426.681, 279.607 424.418 C 279.273 423.548, 279 422.648, 279 422.418 C 279 422.188, 277.313 422.010, 275.250 422.022 L 271.500 422.044 274 424 M 307.550 422.810 C 309.244 424.255, 313.784 425.883, 314.400 425.266 C 316.260 423.407, 314.709 422, 310.800 422 C 308.490 422, 307.028 422.365, 307.550 422.810 M 338.550 422.810 C 340.233 424.246, 344.782 425.884, 345.392 425.275 C 346.608 424.059, 343.645 422, 340.678 422 C 338.985 422, 338.028 422.365, 338.550 422.810 M 640.499 438.517 C 637.533 439.823, 637.559 439.838, 642.917 439.919 C 648.593 440.004, 648.735 439.911, 645.499 438.234 C 644.056 437.485, 642.662 437.564, 640.499 438.517 M 662.500 437.674 C 660.850 437.880, 658.375 438.322, 657 438.657 C 654.825 439.187, 655.149 439.441, 659.500 440.614 C 665.387 442.200, 668.663 442.354, 669.450 441.081 C 670.044 440.119, 667.356 436.890, 666.179 437.150 C 665.805 437.232, 664.150 437.468, 662.500 437.674 M 213.648 445.685 C 213.271 446.062, 211.059 446.681, 208.731 447.060 L 204.500 447.750 209.250 447.875 C 211.863 447.944, 214 447.581, 214 447.070 C 214 446.558, 215.012 445.944, 216.250 445.706 C 218.337 445.304, 218.349 445.262, 216.417 445.136 C 215.271 445.061, 214.025 445.308, 213.648 445.685 M 220 446.500 C 220 447.633, 221.222 448, 225 448 C 230.171 448, 231.694 446.687, 227.750 445.630 C 223.587 444.515, 220 444.917, 220 446.500 M 636.015 445.750 C 636.006 446.509, 634.625 447, 632.500 447 C 628.800 447, 628.497 447.476, 629.836 451.185 C 630.296 452.458, 630.373 454.625, 630.008 456 C 629.225 458.953, 630.758 463, 632.661 463 C 634.205 463, 634.323 462.344, 634.039 455.366 C 633.870 451.204, 634.213 449.965, 635.849 448.818 C 637.279 447.817, 637.600 446.981, 636.949 445.952 C 636.319 444.956, 636.026 444.892, 636.015 445.750 M 186 452.906 C 186 456.330, 186.249 456.748, 188.016 456.286 C 190.820 455.552, 191.209 454.553, 189.852 451.575 C 188.048 447.614, 186 448.322, 186 452.906 M 192.713 449.620 C 192.411 449.923, 192.626 451.496, 193.191 453.118 C 194.026 455.512, 194.620 455.942, 196.359 455.408 C 199.333 454.496, 199.462 454.261, 197.975 452.470 C 196.310 450.464, 193.429 448.904, 192.713 449.620 M 365 453.417 C 365 455.226, 364.838 455.233, 349.676 454.064 C 338.472 453.200, 333 454.083, 333 456.754 C 333 457.727, 334.236 457.938, 337.750 457.566 C 340.363 457.289, 347.967 456.799, 354.649 456.477 C 364.120 456.020, 366.923 456.179, 367.367 457.196 C 367.680 457.913, 367.838 457.185, 367.718 455.577 C 367.494 452.567, 365 450.585, 365 453.417 M 204 454.332 C 204 456.457, 206.763 459, 209.071 459 C 210.132 459, 211 459.450, 211 460 C 211 460.550, 210.550 461, 210 461 C 208.262 461, 208.919 463.836, 210.750 464.237 C 212.786 464.683, 217 463.067, 217 461.839 C 217 461.378, 217.469 461, 218.042 461 C 219.264 461, 223.554 457.189, 222.927 456.660 C 221.928 455.817, 213.131 453.721, 208.750 453.282 C 204.952 452.902, 204 453.113, 204 454.332 M 435.718 459.616 C 435.211 460.123, 440.467 466, 441.427 466 C 441.625 466, 442.054 465.302, 442.382 464.448 C 442.722 463.562, 442.555 463.157, 441.993 463.504 C 441.452 463.839, 439.950 462.970, 438.655 461.573 C 437.360 460.176, 436.038 459.295, 435.718 459.616 M 266 469.741 C 266 470.919, 265.550 472.160, 265 472.500 C 263.754 473.270, 263.678 476, 264.902 476 C 266.395 476, 268.174 469.774, 267.013 468.613 C 266.329 467.929, 266 468.295, 266 469.741 M 387.500 469.536 L 384.500 470.910 387.559 470.955 C 389.241 470.980, 391.491 470.339, 392.559 469.532 C 394.474 468.083, 394.473 468.064, 392.500 468.113 C 391.400 468.140, 389.150 468.781, 387.500 469.536 M 418.053 470.053 C 419.979 471.979, 420.856 472.117, 427.140 471.486 C 437.094 470.486, 435.630 468.576, 424.630 468.210 L 415.921 467.921 418.053 470.053 M 617.149 473.428 C 618.389 476.149, 621.304 476.466, 624.500 474.227 C 626.358 472.926, 626.280 472.871, 623.409 473.458 C 621.239 473.901, 619.937 473.629, 619.037 472.544 C 617.067 470.171, 615.912 470.712, 617.149 473.428 M 402 472.934 C 401.175 473.415, 398.025 474.076, 395 474.403 C 387.456 475.218, 377.401 476.714, 372 477.824 C 367.568 478.736, 367.610 478.752, 374.750 478.875 C 378.738 478.944, 381.999 478.663, 381.999 478.250 C 381.998 477.837, 384.473 477.654, 387.499 477.843 C 391.019 478.062, 393 477.792, 393 477.093 C 393 475.712, 404.875 475.622, 408.435 476.975 C 409.846 477.512, 411 478.637, 411 479.475 C 411 480.314, 411.675 481, 412.500 481 C 414.985 481, 414.210 479.091, 410.250 475.454 C 406.417 471.933, 404.647 471.393, 402 472.934 M 187.503 478.750 C 189.008 490.178, 189.993 491.697, 190.604 483.534 C 190.799 480.932, 190.514 479, 189.937 479 C 189.263 479, 189.261 478.381, 189.930 477.131 C 191.021 475.092, 190.443 474, 188.272 474 C 187.187 474, 187.016 475.055, 187.503 478.750 M 212 474.892 C 212 475.382, 210.875 476.066, 209.500 476.411 C 208.125 476.756, 207 477.480, 207 478.019 C 207 478.559, 206.518 479, 205.929 479 C 205.339 479, 204.153 479.704, 203.293 480.564 C 201.120 482.737, 199.047 480.756, 200.709 478.095 C 201.741 476.441, 201.473 476.176, 198.236 475.651 C 196.239 475.327, 194.503 475.164, 194.378 475.288 C 193.950 475.717, 193.689 480.507, 193.844 485.096 L 194 489.692 201.250 491.770 C 205.238 492.912, 211.088 494.159, 214.250 494.539 C 217.412 494.919, 220 495.367, 220 495.533 C 220 497.617, 218.275 499.007, 215.643 499.042 C 213.914 499.066, 210.025 499.702, 207 500.457 C 201.761 501.765, 201.678 501.834, 205.250 501.915 C 207.313 501.962, 209 502.380, 209 502.845 C 209 504.598, 205.356 506.854, 201.500 507.490 C 198.343 508.011, 197.816 507.903, 199 506.980 C 200.275 505.987, 200.225 505.901, 198.668 506.406 C 197.661 506.733, 195.947 507, 194.859 507 C 193.744 507, 193.162 507.454, 193.525 508.041 C 193.879 508.613, 195.030 508.808, 196.084 508.473 C 197.155 508.133, 198 508.336, 198 508.933 C 198 509.520, 197.100 510, 196 510 C 193.919 510, 193.334 512.403, 194.839 514.774 C 195.456 515.747, 196.080 515.569, 197.479 514.024 C 198.486 512.911, 199.760 512, 200.311 512 C 200.861 512, 200.116 513.027, 198.656 514.282 C 197.195 515.537, 196 517.321, 196 518.247 C 196 520.882, 199.110 529.419, 200.368 530.235 C 202.210 531.430, 204 531.105, 204 529.574 C 204 528.790, 206.260 525.865, 209.021 523.074 C 212.821 519.235, 214.767 518, 217.021 518 C 219.780 518, 220 518.269, 220 521.634 C 220 523.633, 220.540 527.070, 221.200 529.272 L 222.399 533.276 223.657 527.888 C 225.413 520.369, 225.297 499.567, 223.471 494.500 C 221.706 489.600, 221.624 487.292, 223.198 486.767 C 225.409 486.030, 222.099 480.410, 217.514 477.117 C 212.926 473.823, 212 473.449, 212 474.892 M 419 475 C 419 475.550, 420.377 476, 422.059 476 C 423.844 476, 424.861 475.583, 424.500 475 C 424.160 474.450, 422.784 474, 421.441 474 C 420.098 474, 419 474.450, 419 475 M 542.208 476.925 C 548.798 477.846, 549.332 479, 543.167 479 C 534.792 479, 537.189 480.985, 545.750 481.140 C 556.485 481.333, 561.337 480.976, 562.450 479.910 C 562.973 479.409, 564.548 478.982, 565.950 478.961 C 568.330 478.924, 568.275 478.824, 565.135 477.461 C 562.725 476.415, 558.326 476.038, 549.635 476.134 C 541.177 476.227, 538.927 476.467, 542.208 476.925 M 354.813 480.137 C 353.138 481.199, 356.846 481.152, 363 480.034 L 367.500 479.217 361.813 479.261 C 358.685 479.285, 355.535 479.679, 354.813 480.137 M 430 482.094 C 430 482.695, 430.900 483.423, 432 483.710 C 434.043 484.244, 434.809 486, 433 486 C 432.450 486, 432 487.800, 432 490 C 432 494.829, 433.366 495.218, 434.631 490.750 C 435.142 488.947, 436.542 487.060, 437.776 486.513 C 440.038 485.509, 440.792 484, 439.031 484 C 438.499 484, 438.322 483.325, 438.638 482.500 C 439.099 481.300, 438.291 481, 434.607 481 C 431.939 481, 430 481.460, 430 482.094 M 503.932 488 C 507.706 491.850, 511.066 495, 511.397 495 C 511.729 495, 512 494.266, 512 493.370 C 512 492.001, 512.761 491.844, 516.750 492.388 C 521.911 493.092, 572.995 495.761, 603.500 496.921 C 621.005 497.587, 628.123 497.118, 624 495.572 C 622.187 494.892, 574.378 492.972, 512.447 491.093 C 510.201 491.024, 508.047 489.680, 504.289 486 C 496.459 478.333, 496.151 480.063, 503.932 488 M 542.500 483 C 542.160 483.550, 540.813 484, 539.506 484 C 536.467 484, 531.526 485.859, 532.357 486.690 C 533.514 487.848, 540.045 487.082, 542.262 485.529 C 543.463 484.688, 545.271 484, 546.282 484 C 547.292 484, 547.840 483.550, 547.500 483 C 547.160 482.450, 546.035 482, 545 482 C 543.965 482, 542.840 482.450, 542.500 483 M 269.500 483.887 C 264.974 484.442, 264.470 484.759, 264.185 487.238 C 263.886 489.831, 264.045 489.945, 267.185 489.390 C 273.939 488.197, 283.799 484.023, 279.950 483.986 C 279.152 483.979, 277.600 483.816, 276.500 483.624 C 275.400 483.432, 272.250 483.551, 269.500 483.887 M 232 485.563 L 228.500 486.887 231.550 486.944 C 233.227 486.975, 235.196 487.563, 235.925 488.250 C 236.985 489.250, 237.342 489.250, 237.708 488.250 C 237.960 487.563, 239.592 486.980, 241.333 486.956 L 244.500 486.912 240.500 485.471 C 238.300 484.679, 236.275 484.077, 236 484.134 C 235.725 484.192, 233.925 484.835, 232 485.563 M 294.473 488.044 C 293.569 489.506, 295.870 492, 298.122 492 C 300.841 492, 300.428 493.676, 297.531 494.403 C 295.459 494.923, 295.083 495.584, 295.193 498.511 C 295.265 500.430, 295.701 502, 296.162 502 C 296.623 502, 297 502.675, 297 503.500 C 297 506.540, 301.427 504.567, 301.490 501.500 C 301.501 500.946, 304.627 500.431, 308.505 500.346 C 312.352 500.261, 316.063 500.149, 316.750 500.096 C 318.565 499.957, 318.285 495.323, 316.418 494.607 C 315.548 494.273, 312.226 494, 309.035 494 C 303.640 494, 303.200 493.824, 302.755 491.500 C 302.409 489.686, 302.720 488.981, 303.889 488.930 C 305.109 488.876, 305.014 488.651, 303.500 488 C 300.663 486.781, 295.237 486.807, 294.473 488.044 M 614.567 488.767 C 613.750 489.583, 616.034 492, 617.622 492 C 619.727 492, 619.262 489.302, 617.058 488.725 C 615.990 488.446, 614.869 488.465, 614.567 488.767 M 263.712 495.726 C 263.428 497.213, 263.421 499.817, 263.696 501.514 C 264.140 504.249, 264.579 504.600, 267.549 504.600 C 269.453 504.600, 271.850 505.442, 273.100 506.550 L 275.299 508.500 274.631 505.750 C 274.014 503.214, 274.195 503, 276.950 503 C 281.065 503, 280.035 500.920, 274.796 498.651 C 271.585 497.259, 270.102 497.088, 268.316 497.902 C 266.242 498.847, 266 498.704, 266 496.538 C 266 493.096, 264.328 492.503, 263.712 495.726 M 322.638 496.500 C 321.778 498.742, 322.868 500.730, 325.319 501.388 C 328.928 502.356, 336.837 502.073, 337.530 500.951 C 337.931 500.302, 338.620 500.252, 339.339 500.820 C 339.978 501.325, 347.025 502.009, 355 502.342 C 396.492 504.070, 417.578 505.139, 427.559 506.022 C 433.641 506.560, 440.734 507, 443.322 507 L 448.027 507 446.513 510.622 C 445.671 512.639, 445 517.228, 445 520.977 L 445 527.709 431.250 528.387 C 423.688 528.759, 413.675 529.539, 409 530.118 C 400.681 531.150, 393 533.586, 393 535.192 C 393 535.637, 392.518 536, 391.929 536 C 390.473 536, 388.783 537.799, 385.802 542.522 C 381.783 548.892, 381.621 550.348, 384.601 553.328 L 387.239 555.966 390.091 553.935 C 391.660 552.818, 393.728 550.576, 394.687 548.952 C 395.647 547.328, 397.266 546, 398.287 546 C 400.320 546, 403 543.766, 403 542.071 C 403 541.482, 403.527 541, 404.171 541 C 404.815 541, 406.206 540.218, 407.262 539.263 C 409.087 537.612, 409.248 537.618, 410.550 539.399 C 411.860 541.190, 411.969 541.162, 413.067 538.753 C 414.318 536.007, 412.993 536.213, 443 534.104 L 453.500 533.366 441 533.243 C 434.125 533.175, 426.475 533.438, 424 533.828 C 421.525 534.219, 417.925 534.286, 416 533.977 L 412.500 533.417 417 532.740 C 419.475 532.367, 431.400 531.351, 443.500 530.480 C 455.600 529.610, 465.950 528.732, 466.500 528.528 C 467.050 528.324, 464.061 528.122, 459.857 528.079 C 453.823 528.017, 452.085 527.663, 451.600 526.400 C 451.262 525.520, 452.677 520.111, 454.743 514.379 C 458.169 504.876, 458.786 503.853, 461.749 502.778 C 463.536 502.129, 464.650 501.250, 464.223 500.823 C 463.797 500.397, 455.863 499.618, 446.593 499.093 C 437.323 498.568, 429.313 497.713, 428.792 497.192 C 428.216 496.616, 426.406 496.590, 424.173 497.124 C 422.153 497.608, 416 497.785, 410.500 497.518 C 398.278 496.925, 356.607 495.737, 348.885 495.762 C 345.797 495.772, 342.309 496.085, 341.135 496.457 C 339.865 496.860, 339 496.702, 339 496.067 C 339 495.401, 336.035 495, 331.107 495 C 325.013 495, 323.083 495.342, 322.638 496.500 M 646.850 495.847 C 646.768 496.481, 646.655 497.563, 646.600 498.250 C 646.524 499.196, 651.357 499.621, 666.500 500 C 681.600 500.378, 686.440 500.802, 686.256 501.732 C 685.956 503.248, 689.063 503.944, 695 503.691 C 698.487 503.543, 699.442 503.143, 699.244 501.913 C 699.100 501.025, 700.112 499.815, 701.541 499.163 C 704.936 497.616, 706 497.697, 706 499.500 C 706 500.325, 706.675 501, 707.500 501 C 708.325 501, 709 500.165, 709 499.144 C 709 496.809, 703.070 496.225, 670.250 495.329 C 653.035 494.860, 646.961 494.994, 646.850 495.847 M 514 497.608 C 514 498.129, 514.791 499.233, 515.757 500.060 C 516.723 500.887, 518.725 503.111, 520.204 505.002 C 521.684 506.892, 523.121 508.212, 523.398 507.935 C 523.675 507.658, 521.674 505.008, 518.951 502.046 C 516.228 499.084, 514 497.087, 514 497.608 M 310.337 511.182 C 308.209 512.211, 306.682 515.348, 307.775 516.442 C 308.082 516.749, 310.508 517, 313.167 517 L 318 517 318 513.500 C 318 510.332, 317.739 510.006, 315.250 510.068 C 313.738 510.105, 311.527 510.606, 310.337 511.182 M 323 513.583 C 323 516.016, 323.401 517.026, 324.250 516.730 C 324.938 516.489, 325.377 515.590, 325.226 514.731 C 325.046 513.706, 325.987 512.942, 327.964 512.508 C 332.775 511.451, 332.540 510, 327.559 510 L 323 510 323 513.583 M 466.978 522.833 C 466.440 523.017, 466 523.579, 466 524.083 C 466 524.587, 468.587 525.014, 471.750 525.032 C 475.212 525.051, 478.272 525.648, 479.441 526.532 C 480.509 527.339, 483.087 528, 485.170 528 C 488.820 528, 488.917 527.912, 487.848 525.566 C 486.804 523.275, 486.184 523.112, 477.347 522.816 C 472.182 522.642, 467.515 522.650, 466.978 522.833 M 517 527.893 C 517 529.104, 519.562 530, 523.023 530 C 526.599 530, 527.735 528.430, 524.739 527.627 C 521.386 526.729, 517 526.879, 517 527.893 M 538 528.918 C 538 531.197, 539.372 533, 541.107 533 C 543.243 533, 543.606 531.006, 541.800 529.200 C 540.383 527.783, 538 527.607, 538 528.918 M 207 534.441 C 207 535.298, 206.626 536, 206.169 536 C 204.281 536, 202.878 540.548, 203.920 543.288 C 205.283 546.875, 206.342 546.709, 207.799 542.679 C 209.260 538.638, 209.354 534.337, 208 533.500 C 207.450 533.160, 207 533.584, 207 534.441 M 326.201 535.239 C 323.682 536.063, 322.973 536.811, 323.201 538.409 C 323.486 540.400, 324 540.486, 334 540.207 C 343.146 539.952, 354.986 537.653, 353.712 536.379 C 353.483 536.150, 351.091 535.767, 348.398 535.528 C 345.704 535.290, 343.500 535.030, 343.500 534.950 C 343.500 534.172, 328.711 534.419, 326.201 535.239 M 334.658 542.058 C 335.239 542.639, 338.367 543.299, 341.608 543.525 C 344.848 543.750, 346.600 543.681, 345.500 543.370 C 344.400 543.060, 343.072 542.400, 342.550 541.903 C 341.144 540.567, 333.320 540.720, 334.658 542.058 M 533.149 545.887 C 532.190 546.494, 532.699 546.876, 534.899 547.198 C 537.038 547.512, 538 547.242, 538 546.327 C 538 544.837, 535.206 544.583, 533.149 545.887 M 575 547.500 C 575.782 548.442, 577.985 549, 580.922 549 C 583.495 549, 586.028 549.396, 586.550 549.881 C 587.759 551.001, 613.362 552.012, 614.994 551.004 C 615.747 550.538, 615.836 550.017, 615.227 549.640 C 613.181 548.376, 592.281 546, 583.203 546 C 574.918 546, 573.908 546.185, 575 547.500 M 215.438 551.705 C 214.292 552.851, 214.115 553.538, 214.899 553.800 C 216.772 554.424, 219 553.192, 219 551.531 C 219 549.518, 217.554 549.589, 215.438 551.705 M 549.268 554.338 C 544.142 557.435, 544.035 557.597, 544.018 562.250 C 544.008 564.862, 543.888 567.337, 543.750 567.750 C 543.516 568.451, 550.429 569.032, 574.250 570.315 L 584 570.840 584 561.556 L 584 552.272 579.360 551.636 C 576.809 551.286, 570.171 551.040, 564.610 551.088 C 555.107 551.171, 554.186 551.366, 549.268 554.338 M 585.750 552.561 C 584.641 553.703, 584.839 560.783, 586 561.500 C 586.550 561.840, 587 564.303, 587 566.973 L 587 571.828 598.250 572.255 C 604.438 572.490, 619.496 573.483, 631.714 574.462 C 643.931 575.441, 654.619 575.977, 655.464 575.652 C 656.558 575.232, 657 573.645, 657 570.136 C 657 566.190, 657.494 564.742, 659.483 562.855 C 662.166 560.310, 662.755 558.030, 660.750 557.950 C 649.791 557.508, 602.946 553.777, 592.500 552.515 C 589.200 552.116, 586.163 552.137, 585.750 552.561 M 221.494 558.765 C 220.941 559.169, 219.202 561.226, 217.629 563.335 C 215.376 566.356, 215.032 567.416, 216.010 568.335 C 216.956 569.224, 217.359 569.204, 217.708 568.250 C 217.960 567.563, 218.831 567, 219.642 567 C 220.454 567, 220.828 566.530, 220.473 565.956 C 220.118 565.382, 220.252 564.370, 220.769 563.706 C 221.566 562.686, 223.130 557.969, 222.656 558.015 C 222.570 558.024, 222.047 558.361, 221.494 558.765 M 224.766 562.914 L 223.228 566.828 228.248 568.914 C 232.613 570.728, 233.804 570.848, 237.384 569.832 C 242.008 568.519, 244.323 567, 241.700 567 C 239.734 567, 239.674 566.625, 240.930 562.243 L 241.860 559 234.082 559 L 226.303 559 224.766 562.914 M 384.597 563.504 C 382.879 564.804, 382.855 565.007, 384.349 565.580 C 385.259 565.930, 387.241 565.870, 388.752 565.448 C 390.806 564.874, 391.058 564.576, 389.750 564.267 C 388.788 564.039, 388 563.436, 388 562.927 C 388 561.623, 386.816 561.824, 384.597 563.504 M 310.250 567.767 C 309.012 568.849, 308 570.303, 308 570.998 C 308 571.891, 306.942 572.090, 304.395 571.677 C 302.413 571.355, 299.375 571.383, 297.645 571.738 L 294.500 572.384 298 573.302 C 305.007 575.140, 311.633 575.241, 314.884 573.560 C 316.598 572.674, 318 571.510, 318 570.974 C 318 569.737, 322.720 569.686, 323.167 570.919 C 323.350 571.424, 324.850 570.751, 326.500 569.424 L 329.500 567.010 326 566.996 C 324.075 566.989, 320.250 566.716, 317.500 566.391 C 313.408 565.907, 312.092 566.157, 310.250 567.767 M 217.501 569.999 C 217.161 570.548, 218.142 573.236, 219.679 575.972 C 223.103 582.061, 224.535 582.509, 239.786 582.250 C 253.929 582.011, 255.296 581.393, 250.372 577.467 C 245.200 573.343, 240.705 572.037, 231.500 571.983 C 226.076 571.951, 222.875 571.464, 221.559 570.468 C 219.277 568.743, 218.344 568.635, 217.501 569.999 M 673.750 575.963 C 671.637 578.021, 671.475 580, 673.418 580 C 674.198 580, 675.490 580.251, 676.289 580.557 C 678.520 581.413, 679.214 578.139, 677.239 576.076 C 675.600 574.362, 675.400 574.356, 673.750 575.963 M 383.250 577.662 C 382.563 577.940, 382 579.704, 382 581.583 C 382 583.642, 381.503 585.006, 380.750 585.015 C 379.917 585.026, 380 585.354, 381 586 C 381.825 586.533, 384.244 586.976, 386.375 586.985 C 390.138 587, 390.233 586.915, 389.658 584.039 C 389.311 582.307, 389.530 580.791, 390.184 580.386 C 390.935 579.922, 390.697 579.252, 389.460 578.347 C 387.590 576.979, 385.511 576.750, 383.250 577.662 M 384.108 581.836 C 382.720 584.389, 383.083 585.362, 385.231 584.838 C 386.174 584.608, 386.420 583.700, 385.998 582 L 385.377 579.500 384.108 581.836 M 369.119 588.105 C 367.832 589.147, 366.208 590, 365.512 590 C 363.360 590, 361.774 592.581, 363.238 593.702 C 366.656 596.322, 377.962 597.976, 393 598.055 C 401.525 598.100, 409.063 598.106, 409.750 598.068 C 411.938 597.949, 411.096 593.818, 408.367 591.290 C 404.258 587.481, 397.774 589.842, 400.151 594.282 C 401.699 597.175, 400.397 597.488, 397.763 594.856 C 394.419 591.515, 390.590 590, 385.490 590 C 383.061 590, 378.911 589.147, 376.266 588.105 C 371.548 586.245, 371.416 586.245, 369.119 588.105 M 413.500 590.895 C 415.241 592.100, 416.649 592.532, 416.854 591.923 C 417.329 590.517, 416.996 590.275, 413.498 589.490 L 410.500 588.817 413.500 590.895 M 584 591.507 C 584 592.765, 582.866 592.909, 577.127 592.375 C 571.479 591.850, 569.703 592.062, 567.159 593.565 C 559.972 597.810, 562.259 599.462, 577.500 601.036 C 601.128 603.475, 599.297 603.549, 602.840 600.006 C 604.578 598.268, 606 596.496, 606 596.067 C 606 595.396, 593.887 593.853, 588.750 593.870 C 587.683 593.873, 587 593.119, 587 591.938 C 587 590.872, 586.325 590, 585.500 590 C 584.675 590, 584 590.678, 584 591.507 M 624.500 592.965 L 622.500 593.704 624.500 594.290 C 625.600 594.612, 633.475 595.093, 642 595.358 C 650.525 595.624, 656.150 595.647, 654.500 595.410 C 652.850 595.173, 649.925 594.556, 648 594.039 C 643.324 592.783, 627.012 592.037, 624.500 592.965 M 564 603.613 C 564 604.418, 566.914 605.022, 572.750 605.426 C 577.563 605.758, 583.672 606.474, 586.326 607.015 C 592.527 608.280, 600 608.282, 600 607.019 C 600 605.843, 598.253 605.463, 586.500 604.083 C 572.105 602.391, 564 602.222, 564 603.613" stroke="none" fill="#d2dfeb" fill-rule="evenodd"/><path d="M 429.091 175.011 C 393.122 178.014, 360.804 186.996, 328.500 202.968 C 245.146 244.180, 191.033 319.892, 178.385 413 C 176.331 428.117, 176.079 461.571, 177.901 477 C 185.363 540.160, 214.405 598.520, 260.357 642.693 C 327.356 707.098, 423.769 732.955, 514.701 710.907 C 543.713 703.873, 577.372 689.223, 601.500 673.128 C 668.684 628.311, 710.630 560.868, 721.615 480 C 723.669 464.883, 723.921 431.429, 722.099 416 C 714.637 352.840, 685.595 294.480, 639.643 250.307 C 597.649 209.939, 543.727 184.233, 485 176.585 C 470.320 174.673, 442.516 173.890, 429.091 175.011 M 444.500 275.989 C 442.850 276.415, 439.525 276.817, 437.110 276.882 C 434.541 276.951, 432.260 277.609, 431.610 278.469 C 430.597 279.809, 426.130 280.300, 417.056 280.071 C 415.712 280.037, 414.362 280.345, 414.056 280.755 C 413.359 281.689, 406.269 285, 404.966 285 C 404.435 285, 404 284.325, 404 283.500 C 404 282.339, 402.689 282, 398.200 282 C 395.010 282, 391.918 282.482, 391.329 283.071 C 390.739 283.661, 387.820 284.143, 384.841 284.143 C 379.813 284.143, 379.332 284.353, 378.127 287.075 C 376.881 289.891, 376.594 289.997, 370.915 289.754 C 367.662 289.614, 365.001 289.114, 365 288.643 C 365 288.172, 364.338 288.040, 363.529 288.351 C 362.720 288.661, 361.470 288.327, 360.750 287.608 C 359.674 286.531, 359.211 286.549, 358.127 287.709 C 357.331 288.562, 355.763 288.908, 354.156 288.586 C 349.693 287.693, 337.149 287.518, 336.329 288.337 C 335.905 288.762, 336.155 289.478, 336.886 289.929 C 337.775 290.479, 337.862 290.967, 337.147 291.409 C 336.561 291.771, 335.198 291.516, 334.119 290.842 C 332.683 289.945, 331.262 289.891, 328.822 290.640 C 324.823 291.867, 322.908 291.404, 323.679 289.394 C 324.161 288.138, 323.630 288.164, 320.123 289.567 C 317.680 290.545, 314.948 290.953, 313.416 290.568 C 311.741 290.148, 311.058 290.285, 311.475 290.960 C 311.829 291.532, 311.599 292, 310.965 292 C 310.331 292, 309.577 291.100, 309.290 290 C 308.717 287.809, 307.384 287.347, 306.789 289.132 C 306.522 289.933, 305.547 289.837, 303.456 288.806 C 299.498 286.852, 294.903 287.417, 292.701 290.128 L 290.902 292.342 290.335 290.171 C 289.819 288.201, 289.107 287.999, 282.633 287.986 C 278.710 287.979, 274.375 287.745, 273 287.466 C 270.952 287.051, 270.855 287.114, 272.464 287.818 C 274.080 288.524, 273.681 288.795, 270.214 289.350 C 267.896 289.720, 266 290.468, 266 291.012 C 266 291.555, 265.487 292, 264.860 292 C 264.233 292, 263.123 292.788, 262.392 293.750 C 261.127 295.417, 261.062 295.417, 261.032 293.750 C 260.991 291.518, 255.798 291.334, 254 293.500 C 253.099 294.585, 250.715 295, 245.378 295 C 241.320 295, 238 295.414, 238 295.921 C 238 296.427, 236.762 297.118, 235.250 297.457 C 230.478 298.525, 216.532 321.150, 207.177 343 C 203.138 352.434, 194 378.410, 194 380.457 C 194 380.756, 195.824 381, 198.053 381 L 202.106 381 201.996 392.250 C 201.750 417.521, 201.697 417, 204.500 417 L 207 417 207 393.083 C 207 368.141, 207.187 367.081, 211.227 369.158 C 212.325 369.723, 213.661 369.604, 214.896 368.833 C 216.422 367.880, 217.157 367.885, 218.330 368.859 C 219.340 369.697, 220.031 369.759, 220.470 369.049 C 221.308 367.693, 225 367.682, 225 369.035 C 225 369.749, 225.601 369.749, 226.934 369.035 C 227.998 368.466, 229.975 368, 231.327 368 C 232.680 368, 234.045 367.325, 234.362 366.500 C 234.809 365.334, 234.110 364.997, 231.219 364.985 C 229.173 364.976, 226.846 364.556, 226.048 364.051 C 225.249 363.545, 224.217 363.366, 223.755 363.651 C 223.293 363.937, 220.452 364.286, 217.441 364.426 C 212.299 364.666, 212.005 364.555, 212.607 362.591 C 212.960 361.441, 213.458 360.275, 213.714 360 C 214.497 359.158, 245.290 359.999, 246.431 360.893 C 247.019 361.354, 251.696 361.989, 256.825 362.305 C 266.812 362.921, 269 363.876, 269 367.622 C 269 369.662, 269.486 370, 272.418 370 C 278.628 370, 279 370.479, 279 378.475 L 279 385.737 283.250 386.347 C 285.587 386.683, 295.150 387.449, 304.500 388.049 C 313.850 388.650, 323.597 389.486, 326.160 389.909 C 328.723 390.331, 341.098 390.490, 353.660 390.261 C 378.928 389.802, 409.983 389.369, 477.500 388.535 C 502.250 388.229, 533.638 387.689, 547.250 387.333 L 572 386.687 571.985 394.094 C 571.976 398.167, 571.603 402.077, 571.155 402.783 C 570.557 403.726, 565.194 404.196, 550.921 404.556 C 540.239 404.825, 529.440 405.230, 526.922 405.455 C 523.247 405.784, 522.070 405.484, 520.951 403.933 C 519.174 401.466, 517.802 401.486, 516.232 404 C 515.106 405.803, 513.778 406.020, 502.742 406.203 L 490.500 406.405 503 406.953 L 515.500 407.500 515.263 414.495 C 515.133 418.342, 514.809 422.055, 514.544 422.745 C 514.198 423.648, 510.939 424, 502.939 424 C 493.752 424, 491.418 424.313, 489.533 425.795 C 487.284 427.564, 487.278 427.625, 489.125 429.906 C 490.156 431.180, 491 433.027, 491 434.011 C 491 437.818, 508.997 439.783, 511.720 436.273 C 512.745 434.951, 514.445 434.806, 522.382 435.364 C 529.121 435.838, 531.934 435.699, 532.207 434.880 C 532.459 434.122, 533.160 434.303, 534.270 435.413 C 535.760 436.903, 539.998 437.153, 571.725 437.624 C 603.888 438.101, 607.904 438.343, 611.500 440.023 C 613.700 441.051, 616.400 442.089, 617.500 442.330 C 618.600 442.571, 611.382 442.820, 601.460 442.884 C 588.330 442.968, 581.853 442.592, 577.661 441.500 C 569.466 439.366, 544 439.366, 544 441.500 C 544 443.406, 539.428 443.443, 536.037 441.565 C 533.938 440.403, 533.418 440.413, 532.526 441.633 C 531.643 442.841, 530.150 442.886, 522.989 441.915 C 518.320 441.283, 509.275 440.557, 502.888 440.302 C 492.502 439.888, 491.205 440.023, 490.605 441.587 C 490.236 442.548, 490.287 443.659, 490.717 444.056 C 491.148 444.452, 506.575 445.115, 525 445.527 C 543.425 445.940, 562.325 446.408, 567 446.568 C 571.675 446.728, 587.313 446.890, 601.750 446.929 L 628 447 628 453.845 C 628 459.206, 627.604 461.049, 626.171 462.345 C 624.252 464.082, 621.252 464.477, 619.412 463.235 C 618.163 462.391, 616.030 454.460, 615.937 450.307 C 615.875 447.574, 615.849 447.561, 614.945 449.814 C 614.411 451.146, 613.542 451.835, 612.899 451.438 C 611.432 450.531, 612.695 458.443, 614.618 462.200 C 616.348 465.580, 616.343 466, 614.576 466 C 613.793 466, 611.881 463.311, 610.326 460.024 C 608.772 456.738, 606.938 454.038, 606.250 454.024 C 604.564 453.992, 604.723 457.050, 606.532 459.441 C 607.339 460.509, 608 462.421, 608 463.691 C 608 464.961, 608.399 466, 608.887 466 C 610.622 466, 610.810 472.416, 609.112 473.709 C 605.842 476.199, 605 475.235, 605 469 C 605 465.700, 604.599 463, 604.108 463 C 603.618 463, 602.960 461.979, 602.647 460.730 C 602.334 459.482, 601.160 457.475, 600.039 456.272 C 598.917 455.068, 598 453.677, 598 453.180 C 598 452.684, 596.904 452.487, 595.564 452.743 C 593.435 453.150, 593.246 453.518, 594.064 455.669 C 595.979 460.706, 596.774 460.569, 568 460.156 C 548.567 459.877, 541 460.081, 541 460.884 C 541 461.498, 540.212 461.993, 539.250 461.985 C 537.854 461.972, 537.781 461.791, 538.891 461.089 C 541.128 459.672, 521.744 458.531, 519.137 459.927 C 517.099 461.017, 516.994 460.849, 516.868 456.285 C 516.745 451.803, 516.697 451.722, 516.118 455 L 515.500 458.500 503.250 458.143 L 491 457.787 491 460.393 C 491 461.827, 490.498 463, 489.883 463 C 489.228 463, 489.021 463.826, 489.383 465 C 491.377 471.466, 491.371 471.356, 489.712 470.720 C 488.556 470.276, 488.267 470.532, 488.686 471.625 C 489.083 472.659, 490.031 472.958, 491.636 472.555 C 494.200 471.912, 494.708 472.892, 492.800 474.800 C 491.867 475.733, 491.867 476, 492.800 476 C 493.460 476, 494 475.510, 494 474.912 C 494 474.225, 495.380 474.025, 497.750 474.370 C 510.264 476.193, 512 476.223, 512 474.613 C 512 473.709, 510.829 472.780, 509.250 472.432 C 504.216 471.321, 504.450 471.229, 512.500 471.152 C 516.900 471.109, 522.685 471.605, 525.355 472.253 C 529.758 473.322, 530.341 473.254, 531.605 471.525 C 532.372 470.476, 533 470.110, 533 470.711 C 533 472.908, 539.405 473.924, 554.285 474.088 C 575.731 474.325, 596.256 475.797, 597.098 477.159 C 597.530 477.858, 599.037 478.043, 601.042 477.642 C 602.826 477.285, 604.815 477.431, 605.461 477.967 C 606.106 478.503, 610.429 478.940, 615.067 478.938 C 619.705 478.936, 625.417 478.967, 627.759 479.008 C 631.433 479.071, 632.151 478.732, 632.985 476.541 C 634.021 473.816, 635.550 473.218, 636.286 475.250 C 636.646 476.245, 637.182 476.238, 638.908 475.217 C 640.708 474.153, 641.326 474.183, 642.539 475.396 C 643.342 476.200, 644 477.339, 644 477.929 C 644 478.518, 644.450 479, 645 479 C 645.550 479, 646 479.675, 646 480.500 C 646 481.721, 647.660 482, 654.941 482 C 659.859 482, 664.160 482.450, 664.500 483 C 664.844 483.557, 669.475 484, 674.952 484 C 682.159 484, 684.921 484.351, 685.291 485.316 C 685.569 486.039, 688.290 487.230, 691.339 487.961 C 695.884 489.052, 697.444 489.059, 699.997 488.001 C 702.335 487.033, 703.396 486.996, 704.256 487.856 C 705.801 489.401, 710.997 489.320, 711.014 487.750 C 711.021 487.063, 711.299 485.488, 711.630 484.250 C 712.113 482.450, 711.821 482, 710.176 482 C 709.044 482, 707.840 482.450, 707.500 483 C 707.160 483.550, 706.046 484, 705.024 484 C 704.003 484, 702.977 484.562, 702.746 485.250 C 702.433 486.180, 701.963 486.216, 700.913 485.391 C 699.508 484.288, 684.620 482.610, 665.500 481.398 C 660 481.049, 655.050 480.415, 654.500 479.990 C 653.950 479.564, 652.600 478.976, 651.500 478.684 C 650.400 478.392, 652.463 478.191, 656.085 478.237 C 659.707 478.284, 663.241 477.969, 663.938 477.538 C 665.192 476.763, 688.044 477.548, 695.211 478.612 C 698.567 479.110, 698.983 478.916, 699.569 476.581 C 700.391 473.306, 701.778 473.269, 702.589 476.500 C 703.140 478.695, 703.756 479, 707.640 479 C 712.691 479, 712.670 479.033, 713.419 469.750 L 713.964 463 709.232 463.032 C 704.869 463.061, 704.650 463.177, 706.427 464.521 C 707.487 465.323, 708.027 466.306, 707.628 466.705 C 706.606 467.728, 700 467.836, 700 466.830 C 700 466.374, 698.833 466, 697.406 466 C 695.664 466, 694.643 465.351, 694.296 464.024 C 693.907 462.537, 693.367 462.268, 692.116 462.938 C 691.132 463.465, 686.989 463.420, 681.976 462.829 C 677.314 462.279, 669.137 462.073, 663.805 462.370 L 654.109 462.910 653.492 458.205 C 652.386 449.775, 651.381 448.914, 650.609 455.735 C 649.890 462.093, 648.678 464.078, 646.713 462.113 C 646.101 461.501, 644.392 461, 642.917 461 C 639.819 461, 639.035 459.142, 639.014 451.749 L 639 446.998 676.500 447.249 L 714 447.500 714 443.671 C 714 439.883, 713.965 439.848, 710.750 440.495 C 708.962 440.855, 706.609 441.404, 705.520 441.715 C 703.329 442.341, 699.802 442.413, 683.367 442.167 C 672.261 442, 672.232 441.994, 671.742 439.432 L 671.251 436.865 684.170 437.092 C 696.489 437.309, 697.160 437.217, 698.635 435.111 L 700.181 432.903 702.543 435.452 C 704.413 437.470, 705.860 438, 709.498 438 L 714.091 438 713.796 431.250 L 713.500 424.500 703.239 423.939 C 697.595 423.630, 692.556 422.955, 692.042 422.439 C 691.527 421.922, 690.944 418.575, 690.745 415 L 690.385 408.500 690.193 415.191 C 690.087 418.871, 689.525 422.175, 688.945 422.534 C 688.366 422.892, 675.091 422.857, 659.445 422.455 L 631 421.725 631.004 414.112 L 631.008 406.500 660.754 406.243 C 677.114 406.102, 695.112 405.989, 700.750 405.993 C 706.921 405.997, 711 405.602, 711 405 C 711 404.409, 707.400 404, 702.200 404 C 696.689 404, 692.952 403.552, 692.200 402.800 C 690.519 401.119, 690.594 386.582, 692.292 385.173 C 693.002 384.583, 696.552 383.966, 700.180 383.800 L 706.778 383.500 704.047 374 C 695.339 343.701, 678.349 310.138, 660.132 287.250 C 656.734 282.981, 655.385 282, 652.909 282 C 649.474 282, 631.792 284.353, 619 286.513 C 614.325 287.302, 608.475 288.025, 606 288.120 C 603.525 288.215, 599.096 288.888, 596.158 289.615 C 593.220 290.343, 590.520 290.881, 590.158 290.811 C 589.796 290.740, 588.653 291.050, 587.618 291.499 C 586.505 291.982, 585.001 291.857, 583.939 291.194 C 582.951 290.577, 581.998 290.472, 581.821 290.962 C 581.301 292.402, 559.379 292.559, 557.662 291.134 C 556.503 290.172, 556.097 290.188, 555.728 291.208 C 555.352 292.250, 554.809 292.231, 552.926 291.114 C 551.264 290.127, 550.482 290.055, 550.212 290.864 C 549.746 292.262, 543 292.390, 543 291 C 543 290.450, 541.200 290, 539 290 C 536.800 290, 535 290.450, 535 291 C 535 292.522, 528.599 292.193, 525.364 290.506 C 522.823 289.180, 522.464 289.180, 522.177 290.506 C 521.718 292.626, 518.299 292.356, 515.770 290 C 513.426 287.816, 512 287.438, 512 289 C 512 289.550, 511.325 290, 510.500 290 C 509.675 290, 509 290.450, 509 291 C 509 291.579, 505.794 292, 501.383 292 C 493.974 292, 493.779 291.937, 494.207 289.699 C 494.595 287.669, 494.315 287.447, 491.823 287.813 C 489.870 288.099, 489 288.808, 489 290.113 C 489 291.459, 488.283 292, 486.500 292 C 484.469 292, 484 291.508, 484 289.378 C 484 287.167, 483.766 286.950, 482.510 287.992 C 480.482 289.675, 468 290.660, 468 289.137 C 468 288.512, 466.650 288, 465 288 C 463.350 288, 462 288.450, 462 289 C 462 289.550, 461.100 290, 460 290 C 458.900 290, 458 290.398, 458 290.883 C 458 292.327, 453.714 293.008, 452.255 291.796 C 451.176 290.901, 451.160 290.519, 452.174 289.893 C 452.871 289.462, 453.184 288.851, 452.869 288.535 C 452.295 287.962, 444.987 287.137, 439.691 287.047 C 438.082 287.020, 437.146 286.573, 437.500 286 C 437.840 285.450, 437.326 285, 436.359 285 C 434.957 285, 434.852 284.748, 435.843 283.757 C 436.619 282.981, 439.507 282.582, 443.543 282.694 C 447.094 282.793, 450 282.452, 450 281.937 C 450 280.617, 455.737 280.765, 456.566 282.107 C 457.043 282.878, 457.504 282.802, 458.088 281.857 C 458.645 280.956, 458.352 280.289, 457.213 279.869 C 456.271 279.521, 460.050 279.407, 465.611 279.615 C 475.859 279.998, 482.427 278.783, 481.713 276.636 C 481.269 275.301, 449.318 274.744, 444.500 275.989 M 428.371 282.474 C 428.060 283.285, 428.524 284.667, 429.403 285.546 C 430.281 286.424, 431 287.561, 431 288.071 C 431 288.582, 431.675 289, 432.500 289 C 433.325 289, 434 288.325, 434 287.500 C 434 286.675, 433.325 286, 432.500 286 C 431.567 286, 431 285.056, 431 283.500 C 431 280.777, 429.280 280.106, 428.371 282.474 M 650.750 385.732 L 631 386.042 631 394.414 C 631 401.126, 631.314 402.906, 632.582 403.393 C 633.452 403.727, 646.084 404, 660.653 404 C 682.635 404, 687.393 403.750, 688.614 402.529 C 689.714 401.429, 690.011 399.096, 689.793 393.279 L 689.500 385.500 680 385.461 C 674.775 385.440, 661.612 385.562, 650.750 385.732 M 577.250 386.715 L 574 387.127 574 395.563 L 574 404 600.831 404 L 627.662 404 628.884 401.716 C 629.598 400.383, 629.980 396.739, 629.803 392.966 L 629.500 386.500 605 386.402 C 591.525 386.347, 579.038 386.488, 577.250 386.715 M 454.820 403.250 C 454.505 405.461, 454.228 405.505, 438.704 405.776 C 425.451 406.007, 422.656 405.799, 421.343 404.486 C 419.923 403.066, 419.657 403.087, 418.468 404.711 C 417.225 406.409, 418.054 406.514, 434.803 406.774 C 444.543 406.925, 452.885 407.485, 453.424 408.024 C 455.070 409.670, 456 409.119, 456 406.500 C 456 404.060, 456.175 404, 463.368 404 L 470.735 404 470.565 413.277 C 470.471 418.379, 470.078 423.065, 469.691 423.691 C 469.304 424.317, 469.553 425.058, 470.244 425.338 C 471.226 425.736, 471.204 426.056, 470.143 426.799 C 469.397 427.322, 469.176 427.991, 469.653 428.286 C 470.130 428.580, 470.511 434.261, 470.500 440.911 C 470.485 449.978, 470.795 453, 471.740 453 C 472.721 453, 473 447.245, 473 427 L 473 401 464.070 401 C 455.570 401, 455.124 401.108, 454.820 403.250 M 372.638 405.500 C 372.224 406.580, 372.744 407, 374.500 407 C 376.256 407, 376.776 406.580, 376.362 405.500 C 376.045 404.675, 375.207 404, 374.500 404 C 373.793 404, 372.955 404.675, 372.638 405.500 M 402.250 406.735 C 404.863 406.941, 409.137 406.941, 411.750 406.735 C 414.363 406.529, 412.225 406.360, 407 406.360 C 401.775 406.360, 399.637 406.529, 402.250 406.735 M 517.704 413.174 C 517.950 417.203, 518.356 421.134, 518.605 421.908 C 518.986 423.092, 523.137 423.218, 544.655 422.699 C 558.733 422.360, 570.504 421.829, 570.813 421.520 C 571.122 421.211, 571.570 418.267, 571.808 414.979 C 572.388 406.959, 574 407.342, 574 415.500 L 574 422 599.941 422 C 614.209 422, 626.088 421.663, 626.339 421.250 C 626.591 420.837, 627.119 417.468, 627.513 413.762 L 628.230 407.024 575.100 407.028 C 545.879 407.029, 520.909 406.764, 519.613 406.439 C 517.269 405.851, 517.259 405.888, 517.704 413.174 M 232.994 419.500 C 232.826 421.150, 232.785 423.571, 232.903 424.879 C 233.059 426.621, 232.718 427.106, 231.629 426.688 C 230.811 426.374, 228.423 425.808, 226.321 425.430 C 222.721 424.782, 221.193 424.165, 214.096 420.500 C 210.446 418.615, 208.259 418.617, 204.636 420.506 C 202.861 421.432, 199.005 422, 194.502 422 C 186.139 422, 186.038 422.123, 186.014 432.250 C 186.002 437.097, 186.279 438, 187.776 438 C 189.252 438, 189.487 437.308, 189.163 433.916 C 188.800 430.107, 188.933 429.854, 191.137 430.166 C 192.887 430.413, 193.511 431.149, 193.543 433 C 193.572 434.730, 194.111 435.457, 195.293 435.361 C 196.342 435.276, 197 435.941, 197 437.088 C 197 438.569, 197.773 438.964, 200.750 439.002 C 202.813 439.028, 211.978 439.293, 221.118 439.590 C 235.602 440.062, 237.813 439.930, 238.336 438.566 C 238.667 437.705, 238.464 437, 237.885 437 C 235.318 437, 237.978 434.513, 240.790 434.285 C 243.212 434.088, 243.796 434.368, 243.356 435.515 C 243.042 436.332, 242.416 437, 241.964 437 C 240.584 437, 238 440.050, 238 441.678 C 238 442.691, 238.559 443, 239.641 442.584 C 241.034 442.050, 241.085 442.193, 239.980 443.524 C 239.211 444.451, 238.427 444.691, 238.068 444.110 C 237.733 443.568, 236.211 442.651, 234.686 442.071 C 231.932 441.024, 231.917 441.040, 232.554 444.438 C 232.982 446.716, 232.662 448.885, 231.598 450.930 C 230.719 452.618, 229.299 455.351, 228.442 457.002 C 227.585 458.653, 227.145 460.426, 227.463 460.941 C 227.782 461.456, 227.430 462.242, 226.682 462.689 C 225.146 463.605, 222.692 470.026, 223.550 470.883 C 223.857 471.191, 224.527 470.780, 225.039 469.971 C 225.669 468.975, 225.974 468.903, 225.985 469.750 C 225.993 470.438, 226.873 471, 227.941 471 C 229.009 471, 230.139 471.415, 230.452 471.923 C 230.766 472.431, 232.335 473.134, 233.938 473.486 C 237.843 474.344, 242.578 471.819, 243.430 468.425 C 243.795 466.970, 245.009 463.691, 246.128 461.140 C 250.540 451.077, 251 449.881, 251 448.466 C 251 447.660, 251.338 446.996, 251.750 446.992 C 252.162 446.987, 254.525 444.951, 257 442.466 C 259.475 439.982, 262.625 437.457, 264 436.855 C 265.482 436.207, 265.991 435.573, 265.250 435.297 C 263.839 434.773, 263.526 432, 264.878 432 C 265.949 432, 272.841 434.680, 275.250 436.034 C 277.457 437.274, 277.503 436.213, 275.345 433.829 C 273.756 432.073, 273.982 432, 281.024 432 C 285.058 432, 289.926 432.563, 291.842 433.250 C 294.629 434.250, 295.410 434.250, 295.746 433.250 C 296.055 432.331, 299.801 432, 309.883 432 C 324.007 432, 326 432.514, 326 436.155 C 326 437.971, 322.102 442.444, 319.807 443.261 C 319.088 443.517, 318.799 444.049, 319.164 444.444 C 319.530 444.839, 320.738 444.676, 321.849 444.081 C 324.281 442.779, 329 442.649, 329 443.883 C 329 445.161, 332.757 445.773, 348.500 447.059 C 356.200 447.689, 363.263 448.611, 364.197 449.108 C 365.416 449.758, 366.157 449.541, 366.832 448.336 C 367.676 446.827, 370.888 446.646, 398.852 446.529 L 429.934 446.400 435.717 449.085 C 440.598 451.352, 445.631 455.961, 468 478.651 C 482.575 493.435, 496.188 507.396, 498.250 509.676 C 502.113 513.947, 502.932 516.457, 500.750 517.338 C 500.063 517.615, 500.451 517.878, 501.614 517.921 C 503.699 517.999, 509 522.459, 509 524.136 C 509 524.611, 508.438 525.023, 507.750 525.052 C 507.063 525.080, 508.185 525.802, 510.244 526.656 C 512.304 527.510, 513.743 528.607, 513.443 529.093 C 513.142 529.579, 514.055 531.219, 515.470 532.738 L 518.043 535.500 518.638 533.250 C 519.135 531.372, 519.922 531, 523.396 531 C 526.373 531, 527.958 531.554, 528.961 532.946 C 530.802 535.500, 531.981 534.646, 532.079 530.691 C 532.122 528.936, 532.385 528.063, 532.662 528.750 C 532.940 529.438, 533.764 530, 534.494 530 C 535.225 530, 536.958 531.350, 538.347 533 C 539.735 534.650, 541.155 536, 541.502 536 C 541.849 536, 543.748 534.768, 545.722 533.263 C 549.253 530.570, 549.509 530.531, 561.406 530.891 C 568.058 531.092, 575.525 531.407, 578 531.590 C 580.475 531.773, 591.725 532.214, 603 532.570 C 614.275 532.925, 624.019 533.636, 624.653 534.150 C 625.367 534.728, 625.938 534.727, 626.153 534.147 C 626.365 533.574, 633.681 533.729, 645 534.546 C 655.175 535.281, 671.375 535.969, 681 536.075 L 698.500 536.269 700.264 531.548 C 703.159 523.804, 704.003 519.062, 702.376 519.686 C 700.173 520.531, 700.785 518.414, 703.483 515.855 C 704.848 514.560, 705.973 512.539, 705.983 511.363 C 706.003 508.912, 703.050 508.176, 696.500 508.998 L 692.500 509.500 696 511.216 L 699.500 512.932 696.500 512.938 C 694.850 512.942, 685.288 512.922, 675.250 512.893 C 661.377 512.853, 657 513.138, 657 514.080 C 657 515.385, 640.566 515.125, 591 513.038 C 578.625 512.516, 559.950 512.022, 549.500 511.939 C 539.050 511.857, 530.050 511.456, 529.500 511.050 C 528.950 510.643, 527.702 510.026, 526.727 509.678 C 525.197 509.132, 525.107 509.331, 526.069 511.129 C 527.154 513.156, 527.037 513.193, 521.842 512.495 C 516.149 511.729, 514 510.601, 514 508.378 C 514 507.620, 513.021 507, 511.824 507 C 509.346 507, 503.807 501.365, 479.500 474.115 C 477.300 471.649, 472.446 466.451, 468.712 462.565 C 464.979 458.679, 460.817 454.337, 459.462 452.917 C 458.108 451.496, 457 449.808, 457 449.167 C 457 448.525, 456.550 448, 456 448 C 455.450 448, 455 447.502, 455 446.894 C 455 446.286, 453.875 444.903, 452.500 443.821 C 451.125 442.740, 450 440.819, 450 439.552 C 450 437.956, 449.004 436.750, 446.750 435.620 L 443.500 433.990 448 434.631 C 450.475 434.984, 453.097 435.745, 453.826 436.322 C 454.781 437.077, 455.393 436.982, 456.010 435.983 C 456.482 435.220, 456.686 434.301, 456.463 433.940 C 456.240 433.580, 456.463 431.871, 456.959 430.142 C 457.499 428.260, 457.495 427, 456.950 427 C 456.449 427, 456.195 425.664, 456.385 424.032 C 456.828 420.228, 456.051 419.482, 454.280 422.010 C 452.943 423.920, 451.776 424.005, 427.834 423.944 C 414.058 423.909, 402.537 424.130, 402.231 424.436 C 401.925 424.741, 402.203 426.150, 402.848 427.567 C 403.933 429.947, 403.850 430.118, 401.761 429.821 C 399.994 429.570, 399.557 428.936, 399.762 426.916 C 400.071 423.868, 396.914 422, 391.453 422 C 387.087 422, 386.954 423.631, 391.250 424.495 C 397.188 425.690, 398 426.120, 398 428.067 C 398 429.718, 397.233 430.017, 392.750 430.115 C 389.863 430.178, 386.600 430.151, 385.500 430.054 C 381.368 429.689, 374.425 426.627, 372.398 424.276 C 370.856 422.488, 369.524 421.938, 367.398 422.213 L 364.500 422.588 367.250 423.954 C 370.372 425.506, 370.846 426.883, 368.250 426.860 C 367.288 426.852, 355.925 427.101, 343 427.413 C 330.075 427.726, 305.623 428.239, 288.663 428.554 C 258.258 429.118, 257.834 429.098, 258.453 427.147 C 259.033 425.321, 258.533 425.141, 252.038 424.834 C 248.164 424.650, 244.884 424.766, 244.747 425.091 C 244.611 425.417, 243.037 425.968, 241.250 426.316 C 238.498 426.853, 238 426.658, 238 425.042 C 238 423.993, 237.128 422.858, 236.062 422.520 C 234.947 422.166, 233.949 420.757, 233.712 419.202 L 233.300 416.500 232.994 419.500 M 274 424 C 277.106 426.429, 280.475 426.681, 279.607 424.418 C 279.273 423.548, 279 422.648, 279 422.418 C 279 422.188, 277.313 422.010, 275.250 422.022 L 271.500 422.044 274 424 M 307.550 422.810 C 309.244 424.255, 313.784 425.883, 314.400 425.266 C 316.260 423.407, 314.709 422, 310.800 422 C 308.490 422, 307.028 422.365, 307.550 422.810 M 338.550 422.810 C 340.233 424.246, 344.782 425.884, 345.392 425.275 C 346.608 424.059, 343.645 422, 340.678 422 C 338.985 422, 338.028 422.365, 338.550 422.810 M 640.499 438.517 C 637.533 439.823, 637.559 439.838, 642.917 439.919 C 648.593 440.004, 648.735 439.911, 645.499 438.234 C 644.056 437.485, 642.662 437.564, 640.499 438.517 M 662.500 437.674 C 660.850 437.880, 658.375 438.322, 657 438.657 C 654.825 439.187, 655.149 439.441, 659.500 440.614 C 665.387 442.200, 668.663 442.354, 669.450 441.081 C 670.044 440.119, 667.356 436.890, 666.179 437.150 C 665.805 437.232, 664.150 437.468, 662.500 437.674 M 213.648 445.685 C 213.271 446.062, 211.059 446.681, 208.731 447.060 L 204.500 447.750 209.250 447.875 C 211.863 447.944, 214 447.581, 214 447.070 C 214 446.558, 215.012 445.944, 216.250 445.706 C 218.337 445.304, 218.349 445.262, 216.417 445.136 C 215.271 445.061, 214.025 445.308, 213.648 445.685 M 220 446.500 C 220 447.633, 221.222 448, 225 448 C 230.171 448, 231.694 446.687, 227.750 445.630 C 223.587 444.515, 220 444.917, 220 446.500 M 636.015 445.750 C 636.006 446.509, 634.625 447, 632.500 447 C 628.800 447, 628.497 447.476, 629.836 451.185 C 630.296 452.458, 630.373 454.625, 630.008 456 C 629.225 458.953, 630.758 463, 632.661 463 C 634.205 463, 634.323 462.344, 634.039 455.366 C 633.870 451.204, 634.213 449.965, 635.849 448.818 C 637.279 447.817, 637.600 446.981, 636.949 445.952 C 636.319 444.956, 636.026 444.892, 636.015 445.750 M 186 452.906 C 186 456.330, 186.249 456.748, 188.016 456.286 C 190.820 455.552, 191.209 454.553, 189.852 451.575 C 188.048 447.614, 186 448.322, 186 452.906 M 192.713 449.620 C 192.411 449.923, 192.626 451.496, 193.191 453.118 C 194.026 455.512, 194.620 455.942, 196.359 455.408 C 199.333 454.496, 199.462 454.261, 197.975 452.470 C 196.310 450.464, 193.429 448.904, 192.713 449.620 M 365 453.417 C 365 455.226, 364.838 455.233, 349.676 454.064 C 338.472 453.200, 333 454.083, 333 456.754 C 333 457.727, 334.236 457.938, 337.750 457.566 C 340.363 457.289, 347.967 456.799, 354.649 456.477 C 364.120 456.020, 366.923 456.179, 367.367 457.196 C 367.680 457.913, 367.838 457.185, 367.718 455.577 C 367.494 452.567, 365 450.585, 365 453.417 M 204 454.332 C 204 456.457, 206.763 459, 209.071 459 C 210.132 459, 211 459.450, 211 460 C 211 460.550, 210.550 461, 210 461 C 208.262 461, 208.919 463.836, 210.750 464.237 C 212.786 464.683, 217 463.067, 217 461.839 C 217 461.378, 217.469 461, 218.042 461 C 219.264 461, 223.554 457.189, 222.927 456.660 C 221.928 455.817, 213.131 453.721, 208.750 453.282 C 204.952 452.902, 204 453.113, 204 454.332 M 435.718 459.616 C 435.211 460.123, 440.467 466, 441.427 466 C 441.625 466, 442.054 465.302, 442.382 464.448 C 442.722 463.562, 442.555 463.157, 441.993 463.504 C 441.452 463.839, 439.950 462.970, 438.655 461.573 C 437.360 460.176, 436.038 459.295, 435.718 459.616 M 266 469.741 C 266 470.919, 265.550 472.160, 265 472.500 C 263.754 473.270, 263.678 476, 264.902 476 C 266.395 476, 268.174 469.774, 267.013 468.613 C 266.329 467.929, 266 468.295, 266 469.741 M 387.500 469.536 L 384.500 470.910 387.559 470.955 C 389.241 470.980, 391.491 470.339, 392.559 469.532 C 394.474 468.083, 394.473 468.064, 392.500 468.113 C 391.400 468.140, 389.150 468.781, 387.500 469.536 M 418.053 470.053 C 419.979 471.979, 420.856 472.117, 427.140 471.486 C 437.094 470.486, 435.630 468.576, 424.630 468.210 L 415.921 467.921 418.053 470.053 M 617.149 473.428 C 618.389 476.149, 621.304 476.466, 624.500 474.227 C 626.358 472.926, 626.280 472.871, 623.409 473.458 C 621.239 473.901, 619.937 473.629, 619.037 472.544 C 617.067 470.171, 615.912 470.712, 617.149 473.428 M 402 472.934 C 401.175 473.415, 398.025 474.076, 395 474.403 C 387.456 475.218, 377.401 476.714, 372 477.824 C 367.568 478.736, 367.610 478.752, 374.750 478.875 C 378.738 478.944, 381.999 478.663, 381.999 478.250 C 381.998 477.837, 384.473 477.654, 387.499 477.843 C 391.019 478.062, 393 477.792, 393 477.093 C 393 475.712, 404.875 475.622, 408.435 476.975 C 409.846 477.512, 411 478.637, 411 479.475 C 411 480.314, 411.675 481, 412.500 481 C 414.985 481, 414.210 479.091, 410.250 475.454 C 406.417 471.933, 404.647 471.393, 402 472.934 M 187.503 478.750 C 189.008 490.178, 189.993 491.697, 190.604 483.534 C 190.799 480.932, 190.514 479, 189.937 479 C 189.263 479, 189.261 478.381, 189.930 477.131 C 191.021 475.092, 190.443 474, 188.272 474 C 187.187 474, 187.016 475.055, 187.503 478.750 M 212 474.892 C 212 475.382, 210.875 476.066, 209.500 476.411 C 208.125 476.756, 207 477.480, 207 478.019 C 207 478.559, 206.518 479, 205.929 479 C 205.339 479, 204.153 479.704, 203.293 480.564 C 201.120 482.737, 199.047 480.756, 200.709 478.095 C 201.741 476.441, 201.473 476.176, 198.236 475.651 C 196.239 475.327, 194.503 475.164, 194.378 475.288 C 193.950 475.717, 193.689 480.507, 193.844 485.096 L 194 489.692 201.250 491.770 C 205.238 492.912, 211.088 494.159, 214.250 494.539 C 217.412 494.919, 220 495.367, 220 495.533 C 220 497.617, 218.275 499.007, 215.643 499.042 C 213.914 499.066, 210.025 499.702, 207 500.457 C 201.761 501.765, 201.678 501.834, 205.250 501.915 C 207.313 501.962, 209 502.380, 209 502.845 C 209 504.598, 205.356 506.854, 201.500 507.490 C 198.343 508.011, 197.816 507.903, 199 506.980 C 200.275 505.987, 200.225 505.901, 198.668 506.406 C 197.661 506.733, 195.947 507, 194.859 507 C 193.744 507, 193.162 507.454, 193.525 508.041 C 193.879 508.613, 195.030 508.808, 196.084 508.473 C 197.155 508.133, 198 508.336, 198 508.933 C 198 509.520, 197.100 510, 196 510 C 193.919 510, 193.334 512.403, 194.839 514.774 C 195.456 515.747, 196.080 515.569, 197.479 514.024 C 198.486 512.911, 199.760 512, 200.311 512 C 200.861 512, 200.116 513.027, 198.656 514.282 C 197.195 515.537, 196 517.321, 196 518.247 C 196 520.882, 199.110 529.419, 200.368 530.235 C 202.210 531.430, 204 531.105, 204 529.574 C 204 528.790, 206.260 525.865, 209.021 523.074 C 212.821 519.235, 214.767 518, 217.021 518 C 219.780 518, 220 518.269, 220 521.634 C 220 523.633, 220.540 527.070, 221.200 529.272 L 222.399 533.276 223.657 527.888 C 225.413 520.369, 225.297 499.567, 223.471 494.500 C 221.706 489.600, 221.624 487.292, 223.198 486.767 C 225.409 486.030, 222.099 480.410, 217.514 477.117 C 212.926 473.823, 212 473.449, 212 474.892 M 419 475 C 419 475.550, 420.377 476, 422.059 476 C 423.844 476, 424.861 475.583, 424.500 475 C 424.160 474.450, 422.784 474, 421.441 474 C 420.098 474, 419 474.450, 419 475 M 542.208 476.925 C 548.798 477.846, 549.332 479, 543.167 479 C 534.792 479, 537.189 480.985, 545.750 481.140 C 556.485 481.333, 561.337 480.976, 562.450 479.910 C 562.973 479.409, 564.548 478.982, 565.950 478.961 C 568.330 478.924, 568.275 478.824, 565.135 477.461 C 562.725 476.415, 558.326 476.038, 549.635 476.134 C 541.177 476.227, 538.927 476.467, 542.208 476.925 M 354.813 480.137 C 353.138 481.199, 356.846 481.152, 363 480.034 L 367.500 479.217 361.813 479.261 C 358.685 479.285, 355.535 479.679, 354.813 480.137 M 430 482.094 C 430 482.695, 430.900 483.423, 432 483.710 C 434.043 484.244, 434.809 486, 433 486 C 432.450 486, 432 487.800, 432 490 C 432 494.829, 433.366 495.218, 434.631 490.750 C 435.142 488.947, 436.542 487.060, 437.776 486.513 C 440.038 485.509, 440.792 484, 439.031 484 C 438.499 484, 438.322 483.325, 438.638 482.500 C 439.099 481.300, 438.291 481, 434.607 481 C 431.939 481, 430 481.460, 430 482.094 M 503.932 488 C 507.706 491.850, 511.066 495, 511.397 495 C 511.729 495, 512 494.266, 512 493.370 C 512 492.001, 512.761 491.844, 516.750 492.388 C 521.911 493.092, 572.995 495.761, 603.500 496.921 C 621.005 497.587, 628.123 497.118, 624 495.572 C 622.187 494.892, 574.378 492.972, 512.447 491.093 C 510.201 491.024, 508.047 489.680, 504.289 486 C 496.459 478.333, 496.151 480.063, 503.932 488 M 542.500 483 C 542.160 483.550, 540.813 484, 539.506 484 C 536.467 484, 531.526 485.859, 532.357 486.690 C 533.514 487.848, 540.045 487.082, 542.262 485.529 C 543.463 484.688, 545.271 484, 546.282 484 C 547.292 484, 547.840 483.550, 547.500 483 C 547.160 482.450, 546.035 482, 545 482 C 543.965 482, 542.840 482.450, 542.500 483 M 269.500 483.887 C 264.974 484.442, 264.470 484.759, 264.185 487.238 C 263.886 489.831, 264.045 489.945, 267.185 489.390 C 273.939 488.197, 283.799 484.023, 279.950 483.986 C 279.152 483.979, 277.600 483.816, 276.500 483.624 C 275.400 483.432, 272.250 483.551, 269.500 483.887 M 232 485.563 L 228.500 486.887 231.550 486.944 C 233.227 486.975, 235.196 487.563, 235.925 488.250 C 236.985 489.250, 237.342 489.250, 237.708 488.250 C 237.960 487.563, 239.592 486.980, 241.333 486.956 L 244.500 486.912 240.500 485.471 C 238.300 484.679, 236.275 484.077, 236 484.134 C 235.725 484.192, 233.925 484.835, 232 485.563 M 294.473 488.044 C 293.569 489.506, 295.870 492, 298.122 492 C 300.841 492, 300.428 493.676, 297.531 494.403 C 295.459 494.923, 295.083 495.584, 295.193 498.511 C 295.265 500.430, 295.701 502, 296.162 502 C 296.623 502, 297 502.675, 297 503.500 C 297 506.540, 301.427 504.567, 301.490 501.500 C 301.501 500.946, 304.627 500.431, 308.505 500.346 C 312.352 500.261, 316.063 500.149, 316.750 500.096 C 318.565 499.957, 318.285 495.323, 316.418 494.607 C 315.548 494.273, 312.226 494, 309.035 494 C 303.640 494, 303.200 493.824, 302.755 491.500 C 302.409 489.686, 302.720 488.981, 303.889 488.930 C 305.109 488.876, 305.014 488.651, 303.500 488 C 300.663 486.781, 295.237 486.807, 294.473 488.044 M 614.567 488.767 C 613.750 489.583, 616.034 492, 617.622 492 C 619.727 492, 619.262 489.302, 617.058 488.725 C 615.990 488.446, 614.869 488.465, 614.567 488.767 M 263.712 495.726 C 263.428 497.213, 263.421 499.817, 263.696 501.514 C 264.140 504.249, 264.579 504.600, 267.549 504.600 C 269.453 504.600, 271.850 505.442, 273.100 506.550 L 275.299 508.500 274.631 505.750 C 274.014 503.214, 274.195 503, 276.950 503 C 281.065 503, 280.035 500.920, 274.796 498.651 C 271.585 497.259, 270.102 497.088, 268.316 497.902 C 266.242 498.847, 266 498.704, 266 496.538 C 266 493.096, 264.328 492.503, 263.712 495.726 M 322.638 496.500 C 321.778 498.742, 322.868 500.730, 325.319 501.388 C 328.928 502.356, 336.837 502.073, 337.530 500.951 C 337.931 500.302, 338.620 500.252, 339.339 500.820 C 339.978 501.325, 347.025 502.009, 355 502.342 C 396.492 504.070, 417.578 505.139, 427.559 506.022 C 433.641 506.560, 440.734 507, 443.322 507 L 448.027 507 446.513 510.622 C 445.671 512.639, 445 517.228, 445 520.977 L 445 527.709 431.250 528.387 C 423.688 528.759, 413.675 529.539, 409 530.118 C 400.681 531.150, 393 533.586, 393 535.192 C 393 535.637, 392.518 536, 391.929 536 C 390.473 536, 388.783 537.799, 385.802 542.522 C 381.783 548.892, 381.621 550.348, 384.601 553.328 L 387.239 555.966 390.091 553.935 C 391.660 552.818, 393.728 550.576, 394.687 548.952 C 395.647 547.328, 397.266 546, 398.287 546 C 400.320 546, 403 543.766, 403 542.071 C 403 541.482, 403.527 541, 404.171 541 C 404.815 541, 406.206 540.218, 407.262 539.263 C 409.087 537.612, 409.248 537.618, 410.550 539.399 C 411.860 541.190, 411.969 541.162, 413.067 538.753 C 414.318 536.007, 412.993 536.213, 443 534.104 L 453.500 533.366 441 533.243 C 434.125 533.175, 426.475 533.438, 424 533.828 C 421.525 534.219, 417.925 534.286, 416 533.977 L 412.500 533.417 417 532.740 C 419.475 532.367, 431.400 531.351, 443.500 530.480 C 455.600 529.610, 465.950 528.732, 466.500 528.528 C 467.050 528.324, 464.061 528.122, 459.857 528.079 C 453.823 528.017, 452.085 527.663, 451.600 526.400 C 451.262 525.520, 452.677 520.111, 454.743 514.379 C 458.169 504.876, 458.786 503.853, 461.749 502.778 C 463.536 502.129, 464.650 501.250, 464.223 500.823 C 463.797 500.397, 455.863 499.618, 446.593 499.093 C 437.323 498.568, 429.313 497.713, 428.792 497.192 C 428.216 496.616, 426.406 496.590, 424.173 497.124 C 422.153 497.608, 416 497.785, 410.500 497.518 C 398.278 496.925, 356.607 495.737, 348.885 495.762 C 345.797 495.772, 342.309 496.085, 341.135 496.457 C 339.865 496.860, 339 496.702, 339 496.067 C 339 495.401, 336.035 495, 331.107 495 C 325.013 495, 323.083 495.342, 322.638 496.500 M 646.850 495.847 C 646.768 496.481, 646.655 497.563, 646.600 498.250 C 646.524 499.196, 651.357 499.621, 666.500 500 C 681.600 500.378, 686.440 500.802, 686.256 501.732 C 685.956 503.248, 689.063 503.944, 695 503.691 C 698.487 503.543, 699.442 503.143, 699.244 501.913 C 699.100 501.025, 700.112 499.815, 701.541 499.163 C 704.936 497.616, 706 497.697, 706 499.500 C 706 500.325, 706.675 501, 707.500 501 C 708.325 501, 709 500.165, 709 499.144 C 709 496.809, 703.070 496.225, 670.250 495.329 C 653.035 494.860, 646.961 494.994, 646.850 495.847 M 514 497.608 C 514 498.129, 514.791 499.233, 515.757 500.060 C 516.723 500.887, 518.725 503.111, 520.204 505.002 C 521.684 506.892, 523.121 508.212, 523.398 507.935 C 523.675 507.658, 521.674 505.008, 518.951 502.046 C 516.228 499.084, 514 497.087, 514 497.608 M 310.337 511.182 C 308.209 512.211, 306.682 515.348, 307.775 516.442 C 308.082 516.749, 310.508 517, 313.167 517 L 318 517 318 513.500 C 318 510.332, 317.739 510.006, 315.250 510.068 C 313.738 510.105, 311.527 510.606, 310.337 511.182 M 323 513.583 C 323 516.016, 323.401 517.026, 324.250 516.730 C 324.938 516.489, 325.377 515.590, 325.226 514.731 C 325.046 513.706, 325.987 512.942, 327.964 512.508 C 332.775 511.451, 332.540 510, 327.559 510 L 323 510 323 513.583 M 466.978 522.833 C 466.440 523.017, 466 523.579, 466 524.083 C 466 524.587, 468.587 525.014, 471.750 525.032 C 475.212 525.051, 478.272 525.648, 479.441 526.532 C 480.509 527.339, 483.087 528, 485.170 528 C 488.820 528, 488.917 527.912, 487.848 525.566 C 486.804 523.275, 486.184 523.112, 477.347 522.816 C 472.182 522.642, 467.515 522.650, 466.978 522.833 M 517 527.893 C 517 529.104, 519.562 530, 523.023 530 C 526.599 530, 527.735 528.430, 524.739 527.627 C 521.386 526.729, 517 526.879, 517 527.893 M 538 528.918 C 538 531.197, 539.372 533, 541.107 533 C 543.243 533, 543.606 531.006, 541.800 529.200 C 540.383 527.783, 538 527.607, 538 528.918 M 207 534.441 C 207 535.298, 206.626 536, 206.169 536 C 204.281 536, 202.878 540.548, 203.920 543.288 C 205.283 546.875, 206.342 546.709, 207.799 542.679 C 209.260 538.638, 209.354 534.337, 208 533.500 C 207.450 533.160, 207 533.584, 207 534.441 M 326.201 535.239 C 323.682 536.063, 322.973 536.811, 323.201 538.409 C 323.486 540.400, 324 540.486, 334 540.207 C 343.146 539.952, 354.986 537.653, 353.712 536.379 C 353.483 536.150, 351.091 535.767, 348.398 535.528 C 345.704 535.290, 343.500 535.030, 343.500 534.950 C 343.500 534.172, 328.711 534.419, 326.201 535.239 M 334.658 542.058 C 335.239 542.639, 338.367 543.299, 341.608 543.525 C 344.848 543.750, 346.600 543.681, 345.500 543.370 C 344.400 543.060, 343.072 542.400, 342.550 541.903 C 341.144 540.567, 333.320 540.720, 334.658 542.058 M 533.149 545.887 C 532.190 546.494, 532.699 546.876, 534.899 547.198 C 537.038 547.512, 538 547.242, 538 546.327 C 538 544.837, 535.206 544.583, 533.149 545.887 M 575 547.500 C 575.782 548.442, 577.985 549, 580.922 549 C 583.495 549, 586.028 549.396, 586.550 549.881 C 587.759 551.001, 613.362 552.012, 614.994 551.004 C 615.747 550.538, 615.836 550.017, 615.227 549.640 C 613.181 548.376, 592.281 546, 583.203 546 C 574.918 546, 573.908 546.185, 575 547.500 M 215.438 551.705 C 214.292 552.851, 214.115 553.538, 214.899 553.800 C 216.772 554.424, 219 553.192, 219 551.531 C 219 549.518, 217.554 549.589, 215.438 551.705 M 549.268 554.338 C 544.142 557.435, 544.035 557.597, 544.018 562.250 C 544.008 564.862, 543.888 567.337, 543.750 567.750 C 543.516 568.451, 550.429 569.032, 574.250 570.315 L 584 570.840 584 561.556 L 584 552.272 579.360 551.636 C 576.809 551.286, 570.171 551.040, 564.610 551.088 C 555.107 551.171, 554.186 551.366, 549.268 554.338 M 585.750 552.561 C 584.641 553.703, 584.839 560.783, 586 561.500 C 586.550 561.840, 587 564.303, 587 566.973 L 587 571.828 598.250 572.255 C 604.438 572.490, 619.496 573.483, 631.714 574.462 C 643.931 575.441, 654.619 575.977, 655.464 575.652 C 656.558 575.232, 657 573.645, 657 570.136 C 657 566.190, 657.494 564.742, 659.483 562.855 C 662.166 560.310, 662.755 558.030, 660.750 557.950 C 649.791 557.508, 602.946 553.777, 592.500 552.515 C 589.200 552.116, 586.163 552.137, 585.750 552.561 M 221.494 558.765 C 220.941 559.169, 219.202 561.226, 217.629 563.335 C 215.376 566.356, 215.032 567.416, 216.010 568.335 C 216.956 569.224, 217.359 569.204, 217.708 568.250 C 217.960 567.563, 218.831 567, 219.642 567 C 220.454 567, 220.828 566.530, 220.473 565.956 C 220.118 565.382, 220.252 564.370, 220.769 563.706 C 221.566 562.686, 223.130 557.969, 222.656 558.015 C 222.570 558.024, 222.047 558.361, 221.494 558.765 M 224.766 562.914 L 223.228 566.828 228.248 568.914 C 232.613 570.728, 233.804 570.848, 237.384 569.832 C 242.008 568.519, 244.323 567, 241.700 567 C 239.734 567, 239.674 566.625, 240.930 562.243 L 241.860 559 234.082 559 L 226.303 559 224.766 562.914 M 384.597 563.504 C 382.879 564.804, 382.855 565.007, 384.349 565.580 C 385.259 565.930, 387.241 565.870, 388.752 565.448 C 390.806 564.874, 391.058 564.576, 389.750 564.267 C 388.788 564.039, 388 563.436, 388 562.927 C 388 561.623, 386.816 561.824, 384.597 563.504 M 310.250 567.767 C 309.012 568.849, 308 570.303, 308 570.998 C 308 571.891, 306.942 572.090, 304.395 571.677 C 302.413 571.355, 299.375 571.383, 297.645 571.738 L 294.500 572.384 298 573.302 C 305.007 575.140, 311.633 575.241, 314.884 573.560 C 316.598 572.674, 318 571.510, 318 570.974 C 318 569.737, 322.720 569.686, 323.167 570.919 C 323.350 571.424, 324.850 570.751, 326.500 569.424 L 329.500 567.010 326 566.996 C 324.075 566.989, 320.250 566.716, 317.500 566.391 C 313.408 565.907, 312.092 566.157, 310.250 567.767 M 217.501 569.999 C 217.161 570.548, 218.142 573.236, 219.679 575.972 C 223.103 582.061, 224.535 582.509, 239.786 582.250 C 253.929 582.011, 255.296 581.393, 250.372 577.467 C 245.200 573.343, 240.705 572.037, 231.500 571.983 C 226.076 571.951, 222.875 571.464, 221.559 570.468 C 219.277 568.743, 218.344 568.635, 217.501 569.999 M 673.750 575.963 C 671.637 578.021, 671.475 580, 673.418 580 C 674.198 580, 675.490 580.251, 676.289 580.557 C 678.520 581.413, 679.214 578.139, 677.239 576.076 C 675.600 574.362, 675.400 574.356, 673.750 575.963 M 383.250 577.662 C 382.563 577.940, 382 579.704, 382 581.583 C 382 583.642, 381.503 585.006, 380.750 585.015 C 379.917 585.026, 380 585.354, 381 586 C 381.825 586.533, 384.244 586.976, 386.375 586.985 C 390.138 587, 390.233 586.915, 389.658 584.039 C 389.311 582.307, 389.530 580.791, 390.184 580.386 C 390.935 579.922, 390.697 579.252, 389.460 578.347 C 387.590 576.979, 385.511 576.750, 383.250 577.662 M 384.108 581.836 C 382.720 584.389, 383.083 585.362, 385.231 584.838 C 386.174 584.608, 386.420 583.700, 385.998 582 L 385.377 579.500 384.108 581.836 M 369.119 588.105 C 367.832 589.147, 366.208 590, 365.512 590 C 363.360 590, 361.774 592.581, 363.238 593.702 C 366.656 596.322, 377.962 597.976, 393 598.055 C 401.525 598.100, 409.063 598.106, 409.750 598.068 C 411.938 597.949, 411.096 593.818, 408.367 591.290 C 404.258 587.481, 397.774 589.842, 400.151 594.282 C 401.699 597.175, 400.397 597.488, 397.763 594.856 C 394.419 591.515, 390.590 590, 385.490 590 C 383.061 590, 378.911 589.147, 376.266 588.105 C 371.548 586.245, 371.416 586.245, 369.119 588.105 M 413.500 590.895 C 415.241 592.100, 416.649 592.532, 416.854 591.923 C 417.329 590.517, 416.996 590.275, 413.498 589.490 L 410.500 588.817 413.500 590.895 M 584 591.507 C 584 592.765, 582.866 592.909, 577.127 592.375 C 571.479 591.850, 569.703 592.062, 567.159 593.565 C 559.972 597.810, 562.259 599.462, 577.500 601.036 C 601.128 603.475, 599.297 603.549, 602.840 600.006 C 604.578 598.268, 606 596.496, 606 596.067 C 606 595.396, 593.887 593.853, 588.750 593.870 C 587.683 593.873, 587 593.119, 587 591.938 C 587 590.872, 586.325 590, 585.500 590 C 584.675 590, 584 590.678, 584 591.507 M 624.500 592.965 L 622.500 593.704 624.500 594.290 C 625.600 594.612, 633.475 595.093, 642 595.358 C 650.525 595.624, 656.150 595.647, 654.500 595.410 C 652.850 595.173, 649.925 594.556, 648 594.039 C 643.324 592.783, 627.012 592.037, 624.500 592.965 M 564 603.613 C 564 604.418, 566.914 605.022, 572.750 605.426 C 577.563 605.758, 583.672 606.474, 586.326 607.015 C 592.527 608.280, 600 608.282, 600 607.019 C 600 605.843, 598.253 605.463, 586.500 604.083 C 572.105 602.391, 564 602.222, 564 603.613" stroke="none" fill="#465e78" fill-rule="evenodd"/></svg>